G04*
G04 #@! TF.GenerationSoftware,Altium Limited,Altium Designer,23.1.1 (15)*
G04*
G04 Layer_Color=128*
%FSLAX44Y44*%
%MOMM*%
G71*
G04*
G04 #@! TF.SameCoordinates,D1EA7B9B-11C4-41B5-954D-5070AA3C9977*
G04*
G04*
G04 #@! TF.FilePolarity,Positive*
G04*
G01*
G75*
%ADD17C,0.1270*%
D17*
X478370Y63500D02*
X489370D01*
X483870Y58000D02*
Y69000D01*
X503770Y63500D02*
X514770D01*
X509270Y58000D02*
Y69000D01*
X402170Y63500D02*
X413170D01*
X407670Y58000D02*
Y69000D01*
X402170Y88900D02*
X413170D01*
X407670Y83400D02*
Y94400D01*
X427570Y63500D02*
X438570D01*
X433070Y58000D02*
Y69000D01*
X427570Y88900D02*
X438570D01*
X433070Y83400D02*
Y94400D01*
X452970Y63500D02*
X463970D01*
X458470Y58000D02*
Y69000D01*
X452970Y88900D02*
X463970D01*
X458470Y83400D02*
Y94400D01*
X478370Y88900D02*
X489370D01*
X483870Y83400D02*
Y94400D01*
X503770Y88900D02*
X514770D01*
X509270Y83400D02*
Y94400D01*
X529170Y63500D02*
X540170D01*
X534670Y58000D02*
Y69000D01*
X529170Y88900D02*
X540170D01*
X534670Y83400D02*
Y94400D01*
X554570Y63500D02*
X565570D01*
X560070Y58000D02*
Y69000D01*
X554570Y88900D02*
X565570D01*
X560070Y83400D02*
Y94400D01*
X579970Y63500D02*
X590970D01*
X585470Y58000D02*
Y69000D01*
X579970Y88900D02*
X590970D01*
X585470Y83400D02*
Y94400D01*
X605370Y63500D02*
X616370D01*
X610870Y58000D02*
Y69000D01*
X605370Y88900D02*
X616370D01*
X610870Y83400D02*
Y94400D01*
X630770Y63500D02*
X641770D01*
X636270Y58000D02*
Y69000D01*
X630770Y88900D02*
X641770D01*
X636270Y83400D02*
Y94400D01*
X528215Y607239D02*
X539216D01*
X533716Y601739D02*
Y612739D01*
X553214Y607239D02*
X564214D01*
X558714Y601739D02*
Y612739D01*
X224310Y621795D02*
X230310D01*
X227310Y618795D02*
Y624795D01*
X310710Y621795D02*
X316710D01*
X313710Y618795D02*
Y624795D01*
X224310Y580296D02*
X230310D01*
X227310Y577296D02*
Y583296D01*
X310710Y580296D02*
X316710D01*
X313710Y577296D02*
Y583296D01*
X728290Y625800D02*
X758290D01*
X743290Y610800D02*
Y640800D01*
X728290Y75800D02*
X758290D01*
X743290Y60800D02*
Y90800D01*
X69690Y75800D02*
X99690D01*
X84690Y60800D02*
Y90800D01*
X69690Y625793D02*
X99690D01*
X84690Y610793D02*
Y640793D01*
X173541Y566101D02*
X175573D01*
X174557Y565085D02*
Y567117D01*
X86490Y577267D02*
X88522D01*
X87506Y576251D02*
Y578283D01*
X73386Y571268D02*
X75418D01*
X74402Y570252D02*
Y572284D01*
X63062Y570329D02*
X65094D01*
X64078Y569313D02*
Y571345D01*
X190950Y543134D02*
X192982D01*
X191966Y542118D02*
Y544150D01*
X181201Y545535D02*
X183233D01*
X182217Y544519D02*
Y546551D01*
X100250Y523003D02*
X102282D01*
X101266Y521987D02*
Y524019D01*
X101624Y513688D02*
X103656D01*
X102640Y512672D02*
Y514704D01*
X96223Y504738D02*
X98255D01*
X97239Y503722D02*
Y505754D01*
X96223Y513688D02*
X98255D01*
X97239Y512672D02*
Y514704D01*
X100966Y445813D02*
X102998D01*
X101982Y444797D02*
Y446829D01*
X114720Y454268D02*
X116752D01*
X115736Y453252D02*
Y455284D01*
X101386Y454268D02*
X103418D01*
X102402Y453252D02*
Y455284D01*
X73498Y529236D02*
X75530D01*
X74514Y528220D02*
Y530252D01*
X73498Y535238D02*
X75530D01*
X74514Y534222D02*
Y536254D01*
X93160Y544431D02*
X95192D01*
X94176Y543415D02*
Y545448D01*
X93215Y537971D02*
X95247D01*
X94231Y536955D02*
Y538987D01*
X86490Y547267D02*
X88522D01*
X87506Y546251D02*
Y548283D01*
X86490Y553267D02*
X88522D01*
X87506Y552251D02*
Y554283D01*
X118080Y562689D02*
X120112D01*
X119096Y561673D02*
Y563705D01*
X102136Y562266D02*
X104168D01*
X103152Y561250D02*
Y563282D01*
X115990Y538268D02*
X118022D01*
X117006Y537252D02*
Y539284D01*
X115990Y526269D02*
X118022D01*
X117006Y525253D02*
Y527285D01*
X118080Y551809D02*
X120112D01*
X119096Y550793D02*
Y552825D01*
X122899Y507980D02*
X124931D01*
X123915Y506964D02*
Y508996D01*
X115175Y508268D02*
X117207D01*
X116191Y507252D02*
Y509284D01*
X86425Y499266D02*
X88457D01*
X87441Y498250D02*
Y500282D01*
X86425Y487267D02*
X88457D01*
X87441Y486251D02*
Y488283D01*
X86425Y493267D02*
X88457D01*
X87441Y492251D02*
Y494283D01*
X127254Y496570D02*
X129286D01*
X128270Y495554D02*
Y497586D01*
X115824Y496570D02*
X117856D01*
X116840Y495554D02*
Y497586D01*
X115682Y489832D02*
X117714D01*
X116698Y488816D02*
Y490848D01*
X167934Y467342D02*
X169966D01*
X168950Y466326D02*
Y468358D01*
X97246Y488382D02*
X99278D01*
X98262Y487366D02*
Y489398D01*
X97246Y481154D02*
X99278D01*
X98262Y480138D02*
Y482170D01*
X122249Y467218D02*
X124281D01*
X123265Y466202D02*
Y468234D01*
X86896Y429143D02*
X88928D01*
X87912Y428127D02*
Y430159D01*
X95225Y428931D02*
X97257D01*
X96241Y427915D02*
Y429947D01*
X87363Y467127D02*
X89395D01*
X88379Y466110D02*
Y468143D01*
X73386Y565268D02*
X75418D01*
X74402Y564252D02*
Y566284D01*
X73386Y559269D02*
X75418D01*
X74402Y558253D02*
Y560285D01*
X100373Y576583D02*
X102405D01*
X101389Y575567D02*
Y577599D01*
X100373Y568206D02*
X102405D01*
X101389Y567191D02*
Y569222D01*
X117003Y574329D02*
X119035D01*
X118019Y573313D02*
Y575345D01*
X652640Y498950D02*
X654672D01*
X653656Y497934D02*
Y499966D01*
X535965Y255638D02*
X537997D01*
X536981Y254622D02*
Y256654D01*
X616364Y468378D02*
X618396D01*
X617380Y467362D02*
Y469394D01*
X536274Y326390D02*
X538306D01*
X537290Y325374D02*
Y327406D01*
X626364Y468378D02*
X628396D01*
X627380Y467362D02*
Y469394D01*
X651370Y493006D02*
X653402D01*
X652386Y491990D02*
Y494022D01*
X527964Y255638D02*
X529996D01*
X528980Y254622D02*
Y256654D01*
X123964Y435237D02*
X125996D01*
X124980Y434221D02*
Y436253D01*
X85598Y451104D02*
X87630D01*
X86614Y450088D02*
Y452120D01*
X245814Y488638D02*
X247846D01*
X246830Y487622D02*
Y489654D01*
X264814Y488638D02*
X266846D01*
X265830Y487622D02*
Y489654D01*
X489204Y453390D02*
X491236D01*
X490220Y452374D02*
Y454406D01*
X495554Y453390D02*
X497586D01*
X496570Y452374D02*
Y454406D01*
X532519Y437490D02*
X534043D01*
X533281Y436728D02*
Y438252D01*
X737108Y165100D02*
X738632D01*
X737870Y164338D02*
Y165862D01*
X564134Y449580D02*
X566166D01*
X565150Y448564D02*
Y450596D01*
X210407Y514598D02*
X212439D01*
X211423Y513582D02*
Y515614D01*
X407924Y179262D02*
X409956D01*
X408940Y178246D02*
Y180278D01*
X487724Y226060D02*
X489756D01*
X488740Y225044D02*
Y227076D01*
X548847Y77653D02*
X550879D01*
X549863Y76637D02*
Y78669D01*
X600856Y638416D02*
X602888D01*
X601872Y637400D02*
Y639432D01*
X570164Y638810D02*
X572196D01*
X571180Y637794D02*
Y639826D01*
X532064Y638810D02*
X534096D01*
X533080Y637794D02*
Y639826D01*
X493964Y638810D02*
X495996D01*
X494980Y637794D02*
Y639826D01*
X589214Y276860D02*
X591246D01*
X590230Y275844D02*
Y277876D01*
X579214Y276860D02*
X581246D01*
X580230Y275844D02*
Y277876D01*
X553974Y307340D02*
X556006D01*
X554990Y306324D02*
Y308356D01*
X279678Y377004D02*
X281710D01*
X280694Y375988D02*
Y378020D01*
X279678Y367004D02*
X281710D01*
X280694Y365988D02*
Y368020D01*
X297679Y377004D02*
X299711D01*
X298695Y375988D02*
Y378020D01*
X289678Y377004D02*
X291710D01*
X290694Y375988D02*
Y378020D01*
X340934Y579120D02*
X342966D01*
X341950Y578104D02*
Y580136D01*
X350934Y579120D02*
X352966D01*
X351950Y578104D02*
Y580136D01*
X360934Y579120D02*
X362966D01*
X361950Y578104D02*
Y580136D01*
X369316Y530860D02*
X371348D01*
X370332Y529844D02*
Y531876D01*
X361315Y530860D02*
X363347D01*
X362331Y529844D02*
Y531876D01*
X353314Y530860D02*
X355346D01*
X354330Y529844D02*
Y531876D01*
X319504Y516372D02*
X321536D01*
X320520Y515356D02*
Y517388D01*
X290506Y516300D02*
X292538D01*
X291522Y515284D02*
Y517316D01*
X311503Y516372D02*
X313535D01*
X312519Y515356D02*
Y517388D01*
X289949Y434594D02*
X291981D01*
X290965Y433578D02*
Y435610D01*
X150368Y413639D02*
X152908D01*
X151638Y412369D02*
Y414909D01*
X142367Y413639D02*
X144907D01*
X143637Y412369D02*
Y414909D01*
X134366Y413639D02*
X136906D01*
X135636Y412369D02*
Y414909D01*
X134366Y421640D02*
X136906D01*
X135636Y420370D02*
Y422910D01*
X142367Y421640D02*
X144907D01*
X143637Y420370D02*
Y422910D01*
X578485Y459359D02*
X580517D01*
X579501Y458343D02*
Y460375D01*
X570484Y459359D02*
X572516D01*
X571500Y458343D02*
Y460375D01*
X586486Y467360D02*
X588518D01*
X587502Y466344D02*
Y468376D01*
X578485Y467360D02*
X580517D01*
X579501Y466344D02*
Y468376D01*
X570484Y467360D02*
X572516D01*
X571500Y466344D02*
Y468376D01*
X614114Y443408D02*
X616146D01*
X615130Y442392D02*
Y444424D01*
X602234Y443230D02*
X604266D01*
X603250Y442214D02*
Y444246D01*
X461645Y234950D02*
X463677D01*
X462661Y233934D02*
Y235966D01*
X453644Y234950D02*
X455676D01*
X454660Y233934D02*
Y235966D01*
X469646Y234950D02*
X471678D01*
X470662Y233934D02*
Y235966D01*
X355970Y270070D02*
X358002D01*
X356986Y269054D02*
Y271086D01*
X348675Y269615D02*
X350707D01*
X349691Y268599D02*
Y270631D01*
X348675Y275330D02*
X350707D01*
X349691Y274314D02*
Y276346D01*
X341944Y269615D02*
X343976D01*
X342960Y268599D02*
Y270631D01*
X341944Y275330D02*
X343976D01*
X342960Y274314D02*
Y276346D01*
X228148Y269748D02*
X230180D01*
X229164Y268732D02*
Y270764D01*
X213537Y269748D02*
X215569D01*
X214553Y268732D02*
Y270764D01*
X221538Y275200D02*
X223570D01*
X222554Y274184D02*
Y276216D01*
X221538Y269748D02*
X223570D01*
X222554Y268732D02*
Y270764D01*
X231394Y287171D02*
X233426D01*
X232410Y286155D02*
Y288187D01*
X213537Y275200D02*
X215569D01*
X214553Y274184D02*
Y276216D01*
X290506Y525100D02*
X292538D01*
X291522Y524084D02*
Y526116D01*
X310834Y532602D02*
X312866D01*
X311850Y531586D02*
Y533618D01*
X302356Y532284D02*
X304388D01*
X303372Y531268D02*
Y533300D01*
X236010Y505289D02*
X238042D01*
X237026Y504273D02*
Y506305D01*
X239820Y510750D02*
X241852D01*
X240836Y509734D02*
Y511766D01*
X245471Y510750D02*
X247504D01*
X246488Y509734D02*
Y511766D01*
X251123Y510750D02*
X253155D01*
X252139Y509734D02*
Y511766D01*
X245110Y557911D02*
X247142D01*
X246126Y556895D02*
Y558927D01*
X241046Y557911D02*
X243078D01*
X242062Y556895D02*
Y558927D01*
X237109Y557911D02*
X239141D01*
X238125Y556895D02*
Y558927D01*
X468674Y197993D02*
X470706D01*
X469690Y196977D02*
Y199009D01*
X468674Y205994D02*
X470706D01*
X469690Y204978D02*
Y207010D01*
X431863Y193988D02*
X433895D01*
X432879Y192973D02*
Y195005D01*
X447040Y193988D02*
X449072D01*
X448056Y192973D02*
Y195005D01*
X442358Y186894D02*
X444390D01*
X443374Y185879D02*
Y187910D01*
X245603Y174429D02*
X247635D01*
X246619Y173413D02*
Y175445D01*
X612648Y529844D02*
X615696D01*
X614172Y528320D02*
Y531368D01*
X246365Y314641D02*
X249413D01*
X247889Y313117D02*
Y316165D01*
X246365Y307910D02*
X249413D01*
X247889Y306386D02*
Y309434D01*
X375412Y301752D02*
X378460D01*
X376936Y300228D02*
Y303276D01*
X375289Y296102D02*
X378337D01*
X376813Y294578D02*
Y297626D01*
X456946Y155956D02*
X459994D01*
X458470Y154432D02*
Y157480D01*
X449477Y155933D02*
X452525D01*
X451001Y154409D02*
Y157457D01*
X453321Y156039D02*
X456369D01*
X454845Y154515D02*
Y157563D01*
X445704Y155899D02*
X448752D01*
X447228Y154375D02*
Y157423D01*
X483870Y155702D02*
X486918D01*
X485394Y154178D02*
Y157226D01*
X480060Y155702D02*
X483108D01*
X481584Y154178D02*
Y157226D01*
X476250Y155702D02*
X479298D01*
X477774Y154178D02*
Y157226D01*
X472440Y155702D02*
X475488D01*
X473964Y154178D02*
Y157226D01*
X476702Y168976D02*
X479750D01*
X478226Y167452D02*
Y170500D01*
X471678Y168910D02*
X474726D01*
X473202Y167386D02*
Y170434D01*
X456367Y169450D02*
X459415D01*
X457891Y167926D02*
Y170974D01*
X450831Y169450D02*
X453879D01*
X452355Y167926D02*
Y170974D01*
X306578Y525100D02*
X308610D01*
X307594Y524084D02*
Y526116D01*
X241046Y563626D02*
X243078D01*
X242062Y562610D02*
Y564642D01*
X344356Y493988D02*
X346388D01*
X345372Y492971D02*
Y495004D01*
X355970Y285477D02*
X358002D01*
X356986Y284461D02*
Y286493D01*
X334210Y317044D02*
X336242D01*
X335226Y316028D02*
Y318060D01*
X336791Y307341D02*
X338315D01*
X337553Y306579D02*
Y308103D01*
X318795Y334238D02*
X320827D01*
X319811Y333222D02*
Y335254D01*
X308497Y334238D02*
X310529D01*
X309513Y333222D02*
Y335254D01*
X329438Y326644D02*
X331470D01*
X330454Y325628D02*
Y327660D01*
X328422Y179324D02*
X330454D01*
X329438Y178308D02*
Y180340D01*
X318008Y179324D02*
X320040D01*
X319024Y178308D02*
Y180340D01*
X306159Y179324D02*
X308191D01*
X307175Y178308D02*
Y180340D01*
X334175Y171654D02*
X336207D01*
X335191Y170638D02*
Y172670D01*
X321626Y303873D02*
X323658D01*
X322642Y302857D02*
Y304889D01*
X326197Y295136D02*
X328229D01*
X327213Y294120D02*
Y296152D01*
X326197Y303873D02*
X328229D01*
X327213Y302857D02*
Y304889D01*
X317056Y303873D02*
X319088D01*
X318072Y302857D02*
Y304889D01*
X317056Y295192D02*
X319088D01*
X318072Y294176D02*
Y296208D01*
X321626Y295192D02*
X323658D01*
X322642Y294176D02*
Y296208D01*
X225538Y138834D02*
X227570D01*
X226554Y137818D02*
Y139850D01*
X322593Y148251D02*
X324625D01*
X323609Y147235D02*
Y149267D01*
X318023Y148251D02*
X320055D01*
X319039Y147235D02*
Y149267D01*
X318023Y156932D02*
X320055D01*
X319039Y155916D02*
Y157948D01*
X327164Y156932D02*
X329196D01*
X328180Y155916D02*
Y157948D01*
X327164Y148195D02*
X329196D01*
X328180Y147179D02*
Y149211D01*
X322593Y156932D02*
X324625D01*
X323609Y155916D02*
Y157948D01*
X186864Y180292D02*
X188897D01*
X187880Y179277D02*
Y181308D01*
X203725Y177021D02*
X205757D01*
X204741Y176005D02*
Y178037D01*
X208521Y307853D02*
X210045D01*
X209283Y307091D02*
Y308615D01*
X193356Y295704D02*
X195388D01*
X194372Y294688D02*
Y296720D01*
X188786Y295704D02*
X190818D01*
X189802Y294688D02*
Y296720D01*
X188786Y304385D02*
X190818D01*
X189802Y303369D02*
Y305401D01*
X198181Y304385D02*
X200213D01*
X199197Y303369D02*
Y305401D01*
X198181Y295648D02*
X200213D01*
X199197Y294632D02*
Y296664D01*
X193356Y304385D02*
X195388D01*
X194372Y303369D02*
Y305401D01*
X156972Y266493D02*
X159004D01*
X157988Y265477D02*
Y267509D01*
X148971Y266493D02*
X151003D01*
X149987Y265477D02*
Y267509D01*
X192086Y157823D02*
X194118D01*
X193102Y156807D02*
Y158839D01*
X196657Y149086D02*
X198689D01*
X197673Y148070D02*
Y150102D01*
X196657Y157823D02*
X198689D01*
X197673Y156807D02*
Y158839D01*
X187516Y157823D02*
X189548D01*
X188532Y156807D02*
Y158839D01*
X187516Y149142D02*
X189548D01*
X188532Y148126D02*
Y150158D01*
X192086Y149142D02*
X194118D01*
X193102Y148126D02*
Y150158D01*
X165354Y202536D02*
X167386D01*
X166370Y201520D02*
Y203552D01*
X165354Y212579D02*
X167386D01*
X166370Y211563D02*
Y213595D01*
X151541Y241330D02*
X153573D01*
X152557Y240314D02*
Y242346D01*
X151541Y249331D02*
X153573D01*
X152557Y248315D02*
Y250347D01*
X143540Y249331D02*
X145572D01*
X144556Y248315D02*
Y250347D01*
X143540Y241330D02*
X145572D01*
X144556Y240314D02*
Y242346D01*
X143540Y211330D02*
X145572D01*
X144556Y210314D02*
Y212346D01*
X143540Y219331D02*
X145572D01*
X144556Y218315D02*
Y220347D01*
X136906Y106426D02*
X138938D01*
X137922Y105410D02*
Y107442D01*
X136906Y114427D02*
X138938D01*
X137922Y113411D02*
Y115443D01*
X159766Y114427D02*
X161798D01*
X160782Y113411D02*
Y115443D01*
X159766Y106426D02*
X161798D01*
X160782Y105410D02*
Y107442D01*
X224596Y287171D02*
X226628D01*
X225612Y286155D02*
Y288187D01*
X159263Y551809D02*
X161295D01*
X160279Y550793D02*
Y552825D01*
X222250Y510993D02*
X224282D01*
X223266Y509977D02*
Y512009D01*
X148971Y261239D02*
X151003D01*
X149987Y260223D02*
Y262255D01*
X156972Y261239D02*
X159004D01*
X157988Y260223D02*
Y262255D01*
X147133Y310972D02*
X149165D01*
X148149Y309956D02*
Y311988D01*
X147042Y302971D02*
X149074D01*
X148058Y301955D02*
Y303987D01*
X141413Y346710D02*
X143445D01*
X142429Y345694D02*
Y347726D01*
X141413Y339563D02*
X143445D01*
X142429Y338547D02*
Y340579D01*
X154813Y353060D02*
X156845D01*
X155829Y352044D02*
Y354076D01*
X162814Y353060D02*
X164846D01*
X163830Y352044D02*
Y354076D01*
X427382Y445110D02*
X429414D01*
X428398Y444094D02*
Y446126D01*
X392740Y445110D02*
X394772D01*
X393756Y444094D02*
Y446126D01*
X296680Y440665D02*
X298712D01*
X297696Y439649D02*
Y441681D01*
X296680Y434594D02*
X298712D01*
X297696Y433578D02*
Y435610D01*
X323941Y440527D02*
X325973D01*
X324957Y439511D02*
Y441543D01*
X210997Y121519D02*
X213029D01*
X212013Y120503D02*
Y122535D01*
X202996Y121519D02*
X205028D01*
X204012Y120503D02*
Y122535D01*
X210997Y128250D02*
X213029D01*
X212013Y127234D02*
Y129266D01*
X202996Y128250D02*
X205028D01*
X204012Y127234D02*
Y129266D01*
X349251Y127359D02*
X351283D01*
X350267Y126343D02*
Y128375D01*
X349251Y132185D02*
X351283D01*
X350267Y131169D02*
Y133201D01*
X363503Y126379D02*
X365535D01*
X364519Y125363D02*
Y127395D01*
X349251Y137011D02*
X351283D01*
X350267Y135995D02*
Y138027D01*
X343790Y128629D02*
X345822D01*
X344806Y127613D02*
Y129645D01*
X461645Y226060D02*
X463677D01*
X462661Y225044D02*
Y227076D01*
X453644Y226060D02*
X455676D01*
X454660Y225044D02*
Y227076D01*
X469646Y226060D02*
X471678D01*
X470662Y225044D02*
Y227076D01*
X633229Y152853D02*
X635261D01*
X634245Y151837D02*
Y153869D01*
X625228Y152853D02*
X627260D01*
X626244Y151837D02*
Y153869D01*
X633229Y160854D02*
X635261D01*
X634245Y159838D02*
Y161870D01*
X625228Y160854D02*
X627260D01*
X626244Y159838D02*
Y161870D01*
X583039Y143552D02*
X585071D01*
X584055Y142536D02*
Y144568D01*
X609680Y200230D02*
X611712D01*
X610696Y199214D02*
Y201246D01*
X609680Y212090D02*
X611712D01*
X610696Y211074D02*
Y213106D01*
X528880Y182272D02*
X530912D01*
X529896Y181256D02*
Y183288D01*
X528880Y174271D02*
X530912D01*
X529896Y173255D02*
Y175287D01*
X520879Y174271D02*
X522911D01*
X521895Y173255D02*
Y175287D01*
X520879Y182272D02*
X522911D01*
X521895Y181256D02*
Y183288D01*
X512807Y182245D02*
X514839D01*
X513823Y181229D02*
Y183261D01*
X504444Y268351D02*
X505968D01*
X505206Y267589D02*
Y269113D01*
X504444Y275082D02*
X505968D01*
X505206Y274320D02*
Y275844D01*
X494157Y268351D02*
X495681D01*
X494919Y267589D02*
Y269113D01*
X497586Y268351D02*
X499110D01*
X498348Y267589D02*
Y269113D01*
X501015Y268351D02*
X502539D01*
X501777Y267589D02*
Y269113D01*
X501015Y275082D02*
X502539D01*
X501777Y274320D02*
Y275844D01*
X497586Y275082D02*
X499110D01*
X498348Y274320D02*
Y275844D01*
X494157Y275082D02*
X495681D01*
X494919Y274320D02*
Y275844D01*
X554195Y468249D02*
X556227D01*
X555211Y467233D02*
Y469265D01*
X554195Y476250D02*
X556227D01*
X555211Y475234D02*
Y477266D01*
X528734Y468249D02*
X530766D01*
X529750Y467233D02*
Y469265D01*
X536194Y468249D02*
X538226D01*
X537210Y467233D02*
Y469265D01*
X546194Y468249D02*
X548226D01*
X547210Y467233D02*
Y469265D01*
X301950Y440665D02*
X303982D01*
X302966Y439649D02*
Y441681D01*
X291409Y440665D02*
X293441D01*
X292425Y439649D02*
Y441681D01*
X296680Y445110D02*
X298712D01*
X297696Y444094D02*
Y446126D01*
X660641Y507271D02*
X662673D01*
X661657Y506255D02*
Y508287D01*
X660641Y512732D02*
X662673D01*
X661657Y511716D02*
Y513748D01*
X660641Y520733D02*
X662673D01*
X661657Y519717D02*
Y521749D01*
X652640Y520733D02*
X654672D01*
X653656Y519717D02*
Y521749D01*
X612648Y536448D02*
X615696D01*
X614172Y534924D02*
Y537972D01*
X619962Y536270D02*
X623010D01*
X621486Y534746D02*
Y537794D01*
X620014Y530098D02*
X623062D01*
X621538Y528574D02*
Y531622D01*
X599694Y557533D02*
X601726D01*
X600710Y556517D02*
Y558549D01*
X623824Y552450D02*
X625856D01*
X624840Y551434D02*
Y553466D01*
X453068Y441485D02*
X455100D01*
X454084Y440469D02*
Y442501D01*
X461069Y435930D02*
X463101D01*
X462085Y434914D02*
Y436946D01*
X467800Y440850D02*
X469832D01*
X468816Y439834D02*
Y441866D01*
X461069Y441485D02*
X463101D01*
X462085Y440469D02*
Y442501D01*
X375300Y456921D02*
X377332D01*
X376316Y455905D02*
Y457937D01*
X369839Y456921D02*
X371871D01*
X370855Y455905D02*
Y457937D01*
X375300Y445999D02*
X377332D01*
X376316Y444983D02*
Y447015D01*
X369839Y445999D02*
X371871D01*
X370855Y444983D02*
Y447015D01*
X444610Y455184D02*
X446642D01*
X445626Y454168D02*
Y456200D01*
X436609Y455184D02*
X438641D01*
X437625Y454168D02*
Y456200D01*
X413147Y455184D02*
X415179D01*
X414163Y454168D02*
Y456200D01*
X452611Y455184D02*
X454643D01*
X453627Y454168D02*
Y456200D01*
X603508Y523616D02*
X605540D01*
X604524Y522600D02*
Y524632D01*
X597746Y523616D02*
X599778D01*
X598762Y522600D02*
Y524632D01*
X589397Y523616D02*
X591429D01*
X590413Y522600D02*
Y524632D01*
X581396Y523616D02*
X583428D01*
X582412Y522600D02*
Y524632D01*
X589397Y529077D02*
X591429D01*
X590413Y528061D02*
Y530093D01*
X581396Y529077D02*
X583428D01*
X582412Y528061D02*
Y530093D01*
X527718Y583250D02*
X529242D01*
X528480Y582488D02*
Y584012D01*
X537718Y583250D02*
X539242D01*
X538480Y582488D02*
Y584012D01*
X537718Y588170D02*
X539242D01*
X538480Y587408D02*
Y588932D01*
X527718Y588170D02*
X529242D01*
X528480Y587408D02*
Y588932D01*
X527718Y593090D02*
X529242D01*
X528480Y592328D02*
Y593852D01*
X537718Y593090D02*
X539242D01*
X538480Y592328D02*
Y593852D01*
X377764Y567924D02*
X379796D01*
X378780Y566908D02*
Y568940D01*
X377764Y573385D02*
X379796D01*
X378780Y572369D02*
Y574401D01*
X387764Y567924D02*
X389796D01*
X388780Y566908D02*
Y568940D01*
X387764Y573385D02*
X389796D01*
X388780Y572369D02*
Y574401D01*
X411629Y552585D02*
X413661D01*
X412645Y551569D02*
Y553601D01*
X411629Y560586D02*
X413661D01*
X412645Y559570D02*
Y561602D01*
X411629Y568587D02*
X413661D01*
X412645Y567571D02*
Y569603D01*
X411629Y575539D02*
X413661D01*
X412645Y574523D02*
Y576555D01*
X417090Y552585D02*
X419122D01*
X418106Y551569D02*
Y553601D01*
X417090Y560586D02*
X419122D01*
X418106Y559570D02*
Y561602D01*
X150965Y560403D02*
X152997D01*
X151981Y559387D02*
Y561419D01*
X142245Y560403D02*
X144277D01*
X143261Y559387D02*
Y561419D01*
X150965Y551809D02*
X152997D01*
X151981Y550793D02*
Y552825D01*
X142245Y551809D02*
X144277D01*
X143261Y550793D02*
Y552825D01*
X128964Y551809D02*
X130996D01*
X129980Y550793D02*
Y552825D01*
X128964Y543215D02*
X130996D01*
X129980Y542200D02*
Y544231D01*
X128964Y534622D02*
X130996D01*
X129980Y533606D02*
Y535638D01*
X134171Y534622D02*
X136203D01*
X135187Y533606D02*
Y535638D01*
X546194Y476250D02*
X548226D01*
X547210Y475234D02*
Y477266D01*
X620063Y522813D02*
X622095D01*
X621079Y521797D02*
Y523829D01*
X528734Y476250D02*
X530766D01*
X529750Y475234D02*
Y477266D01*
X536194Y476250D02*
X538226D01*
X537210Y475234D02*
Y477266D01*
X428608Y455184D02*
X430640D01*
X429624Y454168D02*
Y456200D01*
X421148Y455184D02*
X423180D01*
X422164Y454168D02*
Y456200D01*
X656366Y215171D02*
X658398D01*
X657382Y214155D02*
Y216187D01*
X626080Y215685D02*
X628112D01*
X627096Y214669D02*
Y216701D01*
X656366Y225171D02*
X658398D01*
X657382Y224155D02*
Y226187D01*
X626080Y225685D02*
X628112D01*
X627096Y224669D02*
Y226701D01*
X646366Y225171D02*
X648398D01*
X647382Y224155D02*
Y226187D01*
X752256Y165100D02*
X754288D01*
X753272Y164084D02*
Y166116D01*
X654304Y143348D02*
X656336D01*
X655320Y142332D02*
Y144364D01*
X346964Y638810D02*
X348996D01*
X347980Y637794D02*
Y639826D01*
X372364Y638810D02*
X374396D01*
X373380Y637794D02*
Y639826D01*
X193456Y429641D02*
X195488D01*
X194472Y428625D02*
Y430657D01*
X637055Y131572D02*
X639087D01*
X638071Y130556D02*
Y132588D01*
X637055Y118863D02*
X639087D01*
X638071Y117847D02*
Y119879D01*
X637055Y106153D02*
X639087D01*
X638071Y105137D02*
Y107169D01*
X76686Y125984D02*
X78718D01*
X77702Y124968D02*
Y127000D01*
X88856Y125984D02*
X90888D01*
X89872Y124968D02*
Y127000D01*
X77194Y146050D02*
X79226D01*
X78210Y145034D02*
Y147066D01*
X89364Y146050D02*
X91396D01*
X90380Y145034D02*
Y147066D01*
X101534Y146050D02*
X103566D01*
X102550Y145034D02*
Y147066D01*
X89364Y224790D02*
X91396D01*
X90380Y223774D02*
Y225806D01*
X77194Y224790D02*
X79226D01*
X78210Y223774D02*
Y225806D01*
X65024Y224790D02*
X67056D01*
X66040Y223774D02*
Y225806D01*
X65024Y199390D02*
X67056D01*
X66040Y198374D02*
Y200406D01*
X65024Y146050D02*
X67056D01*
X66040Y145034D02*
Y147066D01*
X65024Y173990D02*
X67056D01*
X66040Y172974D02*
Y175006D01*
X65024Y250190D02*
X67056D01*
X66040Y249174D02*
Y251206D01*
X65024Y273050D02*
X67056D01*
X66040Y272034D02*
Y274066D01*
X65024Y298450D02*
X67056D01*
X66040Y297434D02*
Y299466D01*
X65024Y323850D02*
X67056D01*
X66040Y322834D02*
Y324866D01*
X77194Y374650D02*
X79226D01*
X78210Y373634D02*
Y375666D01*
X65024Y374650D02*
X67056D01*
X66040Y373634D02*
Y375666D01*
X89364Y374650D02*
X91396D01*
X90380Y373634D02*
Y375666D01*
X65024Y400050D02*
X67056D01*
X66040Y399034D02*
Y401066D01*
X77194Y387350D02*
X79226D01*
X78210Y386334D02*
Y388366D01*
X65024Y349250D02*
X67056D01*
X66040Y348234D02*
Y350266D01*
X101534Y361950D02*
X103566D01*
X102550Y360934D02*
Y362966D01*
X89364Y361950D02*
X91396D01*
X90380Y360934D02*
Y362966D01*
X77194Y361950D02*
X79226D01*
X78210Y360934D02*
Y362966D01*
X64516Y100584D02*
X66548D01*
X65532Y99568D02*
Y101600D01*
X64516Y113284D02*
X66548D01*
X65532Y112268D02*
Y114300D01*
X64516Y125984D02*
X66548D01*
X65532Y124968D02*
Y127000D01*
X63246Y602488D02*
X65278D01*
X64262Y601472D02*
Y603504D01*
X63246Y589915D02*
X65278D01*
X64262Y588899D02*
Y590931D01*
X63246Y577342D02*
X65278D01*
X64262Y576326D02*
Y578358D01*
X360480Y159671D02*
X362512D01*
X361496Y158655D02*
Y160687D01*
X345758Y156400D02*
X347282D01*
X346520Y155638D02*
Y157162D01*
X341758Y156400D02*
X343282D01*
X342520Y155638D02*
Y157162D01*
X173482Y412242D02*
X175514D01*
X174498Y411226D02*
Y413258D01*
X85598Y445102D02*
X87630D01*
X86614Y444086D02*
Y446118D01*
X546467Y247603D02*
X548499D01*
X547483Y246587D02*
Y248619D01*
X558452Y157265D02*
X560485D01*
X559468Y156249D02*
Y158281D01*
X558651Y164648D02*
X560683D01*
X559667Y163632D02*
Y165664D01*
X583042Y159535D02*
X585074D01*
X584058Y158519D02*
Y160551D01*
X470154Y294640D02*
X472186D01*
X471170Y293624D02*
Y295656D01*
X427654Y265081D02*
X429686D01*
X428670Y264065D02*
Y266097D01*
X447258Y279339D02*
X449290D01*
X448274Y278323D02*
Y280355D01*
X447258Y285909D02*
X449290D01*
X448274Y284893D02*
Y286925D01*
X512807Y174244D02*
X514839D01*
X513823Y173228D02*
Y175260D01*
X405650Y486500D02*
X407682D01*
X406666Y485484D02*
Y487516D01*
X342856Y472888D02*
X344888D01*
X343871Y471872D02*
Y473904D01*
X141189Y517091D02*
X143221D01*
X142205Y516075D02*
Y518107D01*
X280423Y559798D02*
X282455D01*
X281439Y558782D02*
Y560814D01*
X263144Y559798D02*
X265176D01*
X264160Y558782D02*
Y560814D01*
X308356Y565150D02*
X311404D01*
X309880Y563626D02*
Y566674D01*
X302895Y565150D02*
X305943D01*
X304419Y563626D02*
Y566674D01*
X222467Y564484D02*
X225515D01*
X223991Y562960D02*
Y566008D01*
X227928Y564484D02*
X230976D01*
X229452Y562960D02*
Y566008D01*
X277114Y584333D02*
X279146D01*
X278130Y583317D02*
Y585349D01*
X254363Y584333D02*
X257411D01*
X255886Y582809D02*
Y585857D01*
X188467Y517355D02*
X190467D01*
X189467Y516355D02*
Y518355D01*
X188467Y526855D02*
X190467D01*
X189467Y525855D02*
Y527855D01*
X178967Y526855D02*
X180967D01*
X179967Y525855D02*
Y527855D01*
X178967Y517355D02*
X180967D01*
X179967Y516355D02*
Y518355D01*
X175200Y442290D02*
X177200D01*
X176200Y441290D02*
Y443290D01*
X175200Y451790D02*
X177200D01*
X176200Y450790D02*
Y452790D01*
X165700Y451790D02*
X167700D01*
X166700Y450790D02*
Y452790D01*
X165700Y442290D02*
X167700D01*
X166700Y441290D02*
Y443290D01*
X632766Y483780D02*
X634798D01*
X633782Y482764D02*
Y484796D01*
X538894Y132080D02*
X540926D01*
X539910Y131064D02*
Y133096D01*
X548894Y132080D02*
X550926D01*
X549910Y131064D02*
Y133096D01*
X693529Y106153D02*
X695561D01*
X694545Y105137D02*
Y107169D01*
X665292Y106153D02*
X667324D01*
X666308Y105137D02*
Y107169D01*
X693529Y118863D02*
X695561D01*
X694545Y117847D02*
Y119879D01*
X665292Y118863D02*
X667324D01*
X666308Y117847D02*
Y119879D01*
X710984Y459740D02*
X713016D01*
X712000Y458724D02*
Y460756D01*
X710984Y485140D02*
X713016D01*
X712000Y484124D02*
Y486156D01*
X727651Y459740D02*
X729683D01*
X728667Y458724D02*
Y460756D01*
X727651Y485140D02*
X729683D01*
X728667Y484124D02*
Y486156D01*
X744317Y459740D02*
X746349D01*
X745333Y458724D02*
Y460756D01*
X744317Y485140D02*
X746349D01*
X745333Y484124D02*
Y486156D01*
X101534Y173990D02*
X103566D01*
X102550Y172974D02*
Y175006D01*
X101534Y250190D02*
X103566D01*
X102550Y249174D02*
Y251206D01*
X101534Y199390D02*
X103566D01*
X102550Y198374D02*
Y200406D01*
X101534Y224790D02*
X103566D01*
X102550Y223774D02*
Y225806D01*
X101534Y323850D02*
X103566D01*
X102550Y322834D02*
Y324866D01*
X101534Y273050D02*
X103566D01*
X102550Y272034D02*
Y274066D01*
X101534Y298450D02*
X103566D01*
X102550Y297434D02*
Y299466D01*
X101534Y349250D02*
X103566D01*
X102550Y348234D02*
Y350266D01*
X89364Y173990D02*
X91396D01*
X90380Y172974D02*
Y175006D01*
X89364Y250190D02*
X91396D01*
X90380Y249174D02*
Y251206D01*
X89364Y199390D02*
X91396D01*
X90380Y198374D02*
Y200406D01*
X89364Y323850D02*
X91396D01*
X90380Y322834D02*
Y324866D01*
X89364Y273050D02*
X91396D01*
X90380Y272034D02*
Y274066D01*
X89364Y298450D02*
X91396D01*
X90380Y297434D02*
Y299466D01*
X89364Y349250D02*
X91396D01*
X90380Y348234D02*
Y350266D01*
X652982Y468339D02*
X655014D01*
X653998Y467323D02*
Y469355D01*
X219251Y161291D02*
X220775D01*
X220013Y160529D02*
Y162053D01*
X215251Y157291D02*
X216775D01*
X216013Y156529D02*
Y158053D01*
X270723Y565493D02*
X272755D01*
X271739Y564477D02*
Y566509D01*
X276995Y565493D02*
X279027D01*
X278011Y564477D02*
Y566509D01*
X261993Y583597D02*
X264025D01*
X263009Y582581D02*
Y584613D01*
X268265Y583597D02*
X270297D01*
X269281Y582581D02*
Y584613D01*
X762900Y228062D02*
X764932D01*
X763916Y227046D02*
Y229078D01*
X757439Y228062D02*
X759471D01*
X758455Y227046D02*
Y229078D01*
X449314Y333896D02*
X451346D01*
X450330Y332880D02*
Y334912D01*
X441313Y333896D02*
X443345D01*
X442329Y332880D02*
Y334912D01*
X417310Y333896D02*
X419342D01*
X418326Y332880D02*
Y334912D01*
X425311Y333896D02*
X427343D01*
X426327Y332880D02*
Y334912D01*
X172085Y212579D02*
X174117D01*
X173101Y211563D02*
Y213595D01*
X172085Y192493D02*
X174117D01*
X173101Y191477D02*
Y193509D01*
X289678Y367004D02*
X291710D01*
X290694Y365988D02*
Y368020D01*
X289678Y356336D02*
X291710D01*
X290694Y355320D02*
Y357352D01*
X289678Y345668D02*
X291710D01*
X290694Y344652D02*
Y346684D01*
X289678Y334238D02*
X291710D01*
X290694Y333222D02*
Y335254D01*
X297679Y367004D02*
X299711D01*
X298695Y365988D02*
Y368020D01*
X297679Y356336D02*
X299711D01*
X298695Y355320D02*
Y357352D01*
X297679Y345668D02*
X299711D01*
X298695Y344652D02*
Y346684D01*
X297055Y228815D02*
X299087D01*
X298071Y227799D02*
Y229831D01*
X297055Y218815D02*
X299087D01*
X298071Y217799D02*
Y219831D01*
X297055Y208815D02*
X299087D01*
X298071Y207799D02*
Y209831D01*
X297055Y198815D02*
X299087D01*
X298071Y197799D02*
Y199831D01*
X481393Y366068D02*
X483425D01*
X482409Y365052D02*
Y367084D01*
X536274Y339399D02*
X538306D01*
X537290Y338383D02*
Y340415D01*
X406146Y238887D02*
X408178D01*
X407162Y237871D02*
Y239903D01*
X417154Y265081D02*
X419186D01*
X418170Y264065D02*
Y266097D01*
X406146Y265176D02*
X408178D01*
X407162Y264160D02*
Y266192D01*
X406146Y256413D02*
X408178D01*
X407162Y255397D02*
Y257429D01*
X406146Y247650D02*
X408178D01*
X407162Y246634D02*
Y248666D01*
X406146Y230124D02*
X408178D01*
X407162Y229108D02*
Y231140D01*
X197866Y331470D02*
X199898D01*
X198882Y330454D02*
Y332486D01*
X189865Y331470D02*
X191897D01*
X190881Y330454D02*
Y332486D01*
X181864Y331470D02*
X183896D01*
X182880Y330454D02*
Y332486D01*
X202184Y324286D02*
X204216D01*
X203200Y323270D02*
Y325302D01*
X173065Y335228D02*
X175097D01*
X174081Y334212D02*
Y336244D01*
X463950Y173335D02*
X465981D01*
X464966Y172319D02*
Y174351D01*
X463950Y166604D02*
X465981D01*
X464966Y165588D02*
Y167620D01*
X463950Y159873D02*
X465981D01*
X464966Y158857D02*
Y160889D01*
X405532Y118604D02*
X407565D01*
X406549Y117588D02*
Y119620D01*
X246873Y297866D02*
X248905D01*
X247889Y296850D02*
Y298882D01*
X666240Y402209D02*
X668272D01*
X667256Y401193D02*
Y403225D01*
X666240Y410210D02*
X668272D01*
X667256Y409194D02*
Y411226D01*
X159686Y560403D02*
X161718D01*
X160702Y559387D02*
Y561419D01*
X291409Y445110D02*
X293441D01*
X292425Y444094D02*
Y446126D01*
X237109Y563626D02*
X239141D01*
X238125Y562610D02*
Y564642D01*
X245110Y563626D02*
X247142D01*
X246126Y562610D02*
Y564642D01*
X207251Y161291D02*
X208775D01*
X208013Y160529D02*
Y162053D01*
X203964Y508105D02*
X205996D01*
X204980Y507089D02*
Y509121D01*
X184404Y434721D02*
X186436D01*
X185420Y433705D02*
Y435737D01*
X184404Y429260D02*
X186436D01*
X185420Y428244D02*
Y430276D01*
X255314Y488638D02*
X257346D01*
X256330Y487622D02*
Y489654D01*
X227182Y180619D02*
X229214D01*
X228198Y179603D02*
Y181635D01*
X527964Y209138D02*
X529996D01*
X528980Y208122D02*
Y210154D01*
X517228Y203543D02*
X519260D01*
X518244Y202527D02*
Y204559D01*
X517144Y209138D02*
X519176D01*
X518160Y208122D02*
Y210154D01*
X665292Y131572D02*
X667324D01*
X666308Y130556D02*
Y132588D01*
X593039Y131553D02*
X595071D01*
X594055Y130537D02*
Y132569D01*
X583039Y131553D02*
X585071D01*
X584055Y130537D02*
Y132569D01*
X504444Y129628D02*
X506476D01*
X505460Y128611D02*
Y130644D01*
X504444Y139628D02*
X506476D01*
X505460Y138611D02*
Y140644D01*
X428108Y118558D02*
X430140D01*
X429124Y117542D02*
Y119574D01*
X428108Y128558D02*
X430140D01*
X429124Y127542D02*
Y129574D01*
X407924Y128558D02*
X409956D01*
X408940Y127542D02*
Y129574D01*
X77194Y173990D02*
X79226D01*
X78210Y172974D02*
Y175006D01*
X77194Y199390D02*
X79226D01*
X78210Y198374D02*
Y200406D01*
X77194Y250190D02*
X79226D01*
X78210Y249174D02*
Y251206D01*
X77194Y273050D02*
X79226D01*
X78210Y272034D02*
Y274066D01*
X77194Y298450D02*
X79226D01*
X78210Y297434D02*
Y299466D01*
X77194Y323850D02*
X79226D01*
X78210Y322834D02*
Y324866D01*
X77194Y349250D02*
X79226D01*
X78210Y348234D02*
Y350266D01*
X697484Y67310D02*
X699516D01*
X698500Y66294D02*
Y68326D01*
X338074Y60960D02*
X340106D01*
X339090Y59944D02*
Y61976D01*
X363474Y60960D02*
X365506D01*
X364490Y59944D02*
Y61976D01*
X223774Y60960D02*
X225806D01*
X224790Y59944D02*
Y61976D01*
X249174Y60960D02*
X251206D01*
X250190Y59944D02*
Y61976D01*
X274574Y60960D02*
X276606D01*
X275590Y59944D02*
Y61976D01*
X299974Y60960D02*
X302006D01*
X300990Y59944D02*
Y61976D01*
X119634Y60960D02*
X121666D01*
X120650Y59944D02*
Y61976D01*
X145034Y60960D02*
X147066D01*
X146050Y59944D02*
Y61976D01*
X170434Y60960D02*
X172466D01*
X171450Y59944D02*
Y61976D01*
X195834Y60960D02*
X197866D01*
X196850Y59944D02*
Y61976D01*
X726930Y157907D02*
X728962D01*
X727946Y156891D02*
Y158923D01*
X724390Y132507D02*
X726423D01*
X725406Y131491D02*
Y133523D01*
X724390Y107107D02*
X726423D01*
X725406Y106091D02*
Y108123D01*
X758444Y106680D02*
X760476D01*
X759460Y105664D02*
Y107696D01*
X758444Y132080D02*
X760476D01*
X759460Y131064D02*
Y133096D01*
X758444Y157480D02*
X760476D01*
X759460Y156464D02*
Y158496D01*
X758444Y182880D02*
X760476D01*
X759460Y181864D02*
Y183896D01*
X131064Y618490D02*
X133096D01*
X132080Y617474D02*
Y619506D01*
X156464Y618490D02*
X158496D01*
X157480Y617474D02*
Y619506D01*
X181864Y618490D02*
X183896D01*
X182880Y617474D02*
Y619506D01*
X207264Y618490D02*
X209296D01*
X208280Y617474D02*
Y619506D01*
X235204Y636270D02*
X237236D01*
X236220Y635254D02*
Y637286D01*
X260604Y636270D02*
X262636D01*
X261620Y635254D02*
Y637286D01*
X286004Y636270D02*
X288036D01*
X287020Y635254D02*
Y637286D01*
X311404Y636270D02*
X313436D01*
X312420Y635254D02*
Y637286D01*
X132334Y636270D02*
X134366D01*
X133350Y635254D02*
Y637286D01*
X157734Y636270D02*
X159766D01*
X158750Y635254D02*
Y637286D01*
X183134Y636270D02*
X185166D01*
X184150Y635254D02*
Y637286D01*
X208534Y636270D02*
X210566D01*
X209550Y635254D02*
Y637286D01*
X326644Y624840D02*
X328676D01*
X327660Y623824D02*
Y625856D01*
X352044Y624840D02*
X354076D01*
X353060Y623824D02*
Y625856D01*
X377444Y624840D02*
X379476D01*
X378460Y623824D02*
Y625856D01*
X402844Y624840D02*
X404876D01*
X403860Y623824D02*
Y625856D01*
X397764Y638810D02*
X399796D01*
X398780Y637794D02*
Y639826D01*
X423164Y638810D02*
X425196D01*
X424180Y637794D02*
Y639826D01*
X448564Y638810D02*
X450596D01*
X449580Y637794D02*
Y639826D01*
X473964Y638810D02*
X475996D01*
X474980Y637794D02*
Y639826D01*
X682244Y565150D02*
X684276D01*
X683260Y564134D02*
Y566166D01*
X707644Y565150D02*
X709676D01*
X708660Y564134D02*
Y566166D01*
X733044Y565150D02*
X735076D01*
X734060Y564134D02*
Y566166D01*
X758444Y565150D02*
X760476D01*
X759460Y564134D02*
Y566166D01*
X617474Y588010D02*
X619506D01*
X618490Y586994D02*
Y589026D01*
X642874Y588010D02*
X644906D01*
X643890Y586994D02*
Y589026D01*
X668274Y588010D02*
X670306D01*
X669290Y586994D02*
Y589026D01*
X693674Y588010D02*
X695706D01*
X694690Y586994D02*
Y589026D01*
X617474Y615950D02*
X619506D01*
X618490Y614934D02*
Y616966D01*
X642874Y615950D02*
X644906D01*
X643890Y614934D02*
Y616966D01*
X668274Y615950D02*
X670306D01*
X669290Y614934D02*
Y616966D01*
X693674Y615950D02*
X695706D01*
X694690Y614934D02*
Y616966D01*
X620014Y638810D02*
X622046D01*
X621030Y637794D02*
Y639826D01*
X645414Y638810D02*
X647446D01*
X646430Y637794D02*
Y639826D01*
X670814Y638810D02*
X672846D01*
X671830Y637794D02*
Y639826D01*
X696214Y638810D02*
X698246D01*
X697230Y637794D02*
Y639826D01*
X760984Y459740D02*
X763016D01*
X762000Y458724D02*
Y460756D01*
X760984Y485140D02*
X763016D01*
X762000Y484124D02*
Y486156D01*
X760984Y510540D02*
X763016D01*
X762000Y509524D02*
Y511556D01*
X760984Y535940D02*
X763016D01*
X762000Y534924D02*
Y536956D01*
X583272Y364881D02*
X585304D01*
X584288Y363865D02*
Y365897D01*
X583272Y356880D02*
X585304D01*
X584288Y355864D02*
Y357896D01*
X583272Y340380D02*
X585304D01*
X584288Y339364D02*
Y341396D01*
X583272Y332379D02*
X585304D01*
X584288Y331363D02*
Y333395D01*
X593272Y364881D02*
X595304D01*
X594288Y363865D02*
Y365897D01*
X593272Y356880D02*
X595304D01*
X594288Y355864D02*
Y357896D01*
X593272Y340380D02*
X595304D01*
X594288Y339364D02*
Y341396D01*
X593272Y332379D02*
X595304D01*
X594288Y331363D02*
Y333395D01*
X603272Y364881D02*
X605304D01*
X604288Y363865D02*
Y365897D01*
X603272Y356880D02*
X605304D01*
X604288Y355864D02*
Y357896D01*
X603272Y340380D02*
X605304D01*
X604288Y339364D02*
Y341396D01*
X603272Y332379D02*
X605304D01*
X604288Y331363D02*
Y333395D01*
X674876Y331078D02*
X676908D01*
X675892Y330062D02*
Y332094D01*
X674876Y344180D02*
X676908D01*
X675892Y343164D02*
Y345196D01*
X682246Y403873D02*
X684278D01*
X683262Y402857D02*
Y404889D01*
X603272Y382682D02*
X605304D01*
X604288Y381666D02*
Y383698D01*
X603272Y374881D02*
X605304D01*
X604288Y373865D02*
Y375897D01*
X613272Y382682D02*
X615304D01*
X614288Y381666D02*
Y383698D01*
X613272Y374881D02*
X615304D01*
X614288Y373865D02*
Y375897D01*
X664876Y381092D02*
X666908D01*
X665892Y380076D02*
Y382108D01*
X682246Y395143D02*
X684278D01*
X683262Y394127D02*
Y396159D01*
X680974Y381092D02*
X683006D01*
X681990Y380076D02*
Y382108D01*
X671472Y381092D02*
X673504D01*
X672488Y380076D02*
Y382108D01*
X680974Y371092D02*
X683006D01*
X681990Y370076D02*
Y372108D01*
X671472Y371092D02*
X673504D01*
X672488Y370076D02*
Y372108D01*
X283464Y218597D02*
X285496D01*
X284480Y217581D02*
Y219613D01*
X283464Y228597D02*
X285496D01*
X284480Y227581D02*
Y229613D01*
X690074Y434182D02*
X692106D01*
X691090Y433166D02*
Y435198D01*
X698574Y434182D02*
X700606D01*
X699590Y433166D02*
Y435198D01*
X709074Y434182D02*
X711106D01*
X710090Y433166D02*
Y435198D01*
X150114Y435958D02*
X152146D01*
X151130Y434942D02*
Y436974D01*
X673374Y512732D02*
X675406D01*
X674390Y511716D02*
Y513748D01*
X164113Y501803D02*
X166145D01*
X165129Y500787D02*
Y502819D01*
X603672Y503096D02*
X605704D01*
X604688Y502080D02*
Y504112D01*
X150114Y429230D02*
X152146D01*
X151130Y428214D02*
Y430246D01*
X609853Y503096D02*
X611885D01*
X610869Y502080D02*
Y504112D01*
X169597Y501803D02*
X171629D01*
X170613Y500787D02*
Y502819D01*
X693529Y131572D02*
X695561D01*
X694545Y130556D02*
Y132588D01*
X693529Y141553D02*
X695561D01*
X694545Y140537D02*
Y142569D01*
X583039Y151553D02*
X585071D01*
X584055Y150537D02*
Y152569D01*
X651764Y533400D02*
X653796D01*
X652780Y532384D02*
Y534416D01*
X573027Y207717D02*
X575059D01*
X574043Y206701D02*
Y208733D01*
X308288Y123701D02*
X311336D01*
X309813Y122177D02*
Y125225D01*
X177779Y124895D02*
X180827D01*
X179303Y123371D02*
Y126419D01*
X187706Y261239D02*
X190754D01*
X189230Y259715D02*
Y262763D01*
X306705Y269851D02*
X309753D01*
X308229Y268326D02*
Y271374D01*
X397764Y573385D02*
X399796D01*
X398780Y572369D02*
Y574401D01*
X461069Y447040D02*
X463101D01*
X462085Y446024D02*
Y448056D01*
X375300Y451460D02*
X377332D01*
X376316Y450444D02*
Y452476D01*
X356431Y486251D02*
X358463D01*
X357447Y485235D02*
Y487267D01*
X384253Y472888D02*
X386285D01*
X385269Y471872D02*
Y473904D01*
X145912Y339563D02*
X147944D01*
X146928Y338547D02*
Y340579D01*
X145912Y346710D02*
X147944D01*
X146928Y345694D02*
Y347726D01*
X155043Y302879D02*
X157075D01*
X156059Y301863D02*
Y303895D01*
X155134Y310880D02*
X157166D01*
X156150Y309864D02*
Y311896D01*
X162730Y346710D02*
X164762D01*
X163746Y345694D02*
Y347726D01*
X154729Y346710D02*
X156761D01*
X155745Y345694D02*
Y347726D01*
X154729Y339563D02*
X156761D01*
X155745Y338547D02*
Y340579D01*
X162730Y339563D02*
X164762D01*
X163746Y338547D02*
Y340579D01*
X316290Y123701D02*
X319338D01*
X317813Y122177D02*
Y125225D01*
X153924Y106299D02*
X155956D01*
X154940Y105283D02*
Y107315D01*
X153924Y114300D02*
X155956D01*
X154940Y113284D02*
Y115316D01*
X131064Y106299D02*
X133096D01*
X132080Y105283D02*
Y107315D01*
X131064Y114300D02*
X133096D01*
X132080Y113284D02*
Y115316D01*
X151541Y219331D02*
X153573D01*
X152557Y218315D02*
Y220347D01*
X151541Y211330D02*
X153573D01*
X152557Y210314D02*
Y212346D01*
X237094Y147759D02*
X240142D01*
X238618Y146235D02*
Y149283D01*
X375602Y175189D02*
X378650D01*
X377126Y173665D02*
Y176713D01*
X341944Y281045D02*
X343976D01*
X342960Y280029D02*
Y282061D01*
X202996Y134981D02*
X205028D01*
X204012Y133965D02*
Y135997D01*
X213537Y280651D02*
X215569D01*
X214553Y279635D02*
Y281667D01*
X474384Y173335D02*
X477432D01*
X475908Y171811D02*
Y174859D01*
X456497Y173465D02*
X459545D01*
X458021Y171941D02*
Y174989D01*
X470916Y191262D02*
X472948D01*
X471932Y190246D02*
Y192278D01*
X440944Y173366D02*
X442976D01*
X441960Y172350D02*
Y174382D01*
X451358Y179324D02*
X453390D01*
X452374Y178308D02*
Y180340D01*
X440944Y179832D02*
X442976D01*
X441960Y178816D02*
Y180848D01*
X524602Y276860D02*
X526634D01*
X525618Y275844D02*
Y277876D01*
X524602Y282956D02*
X526634D01*
X525618Y281940D02*
Y283972D01*
X503144Y485140D02*
X505176D01*
X504160Y484124D02*
Y486156D01*
X486463Y469502D02*
X488495D01*
X487479Y468486D02*
Y470518D01*
X474956Y472934D02*
X476988D01*
X475972Y471918D02*
Y473950D01*
X558821Y511810D02*
X560853D01*
X559837Y510794D02*
Y512826D01*
X555361Y228120D02*
X557393D01*
X556377Y227104D02*
Y229136D01*
X156593Y496788D02*
X158625D01*
X157609Y495772D02*
Y497804D01*
X179832Y473710D02*
X181864D01*
X180848Y472694D02*
Y474726D01*
X199453Y433040D02*
X201485D01*
X200469Y432024D02*
Y434056D01*
X397764Y567924D02*
X399796D01*
X398780Y566908D02*
Y568940D01*
X256775Y510750D02*
X258806D01*
X257791Y509734D02*
Y511766D01*
X262426Y510750D02*
X264458D01*
X263442Y509734D02*
Y511766D01*
X134171Y551809D02*
X136203D01*
X135187Y550793D02*
Y552825D01*
X417090Y568587D02*
X419122D01*
X418106Y567571D02*
Y569603D01*
X417090Y575539D02*
X419122D01*
X418106Y574523D02*
Y576555D01*
X310834Y525140D02*
X312866D01*
X311850Y524124D02*
Y526157D01*
X302356Y525100D02*
X304388D01*
X303372Y524084D02*
Y526116D01*
X639836Y311078D02*
X641868D01*
X640852Y310062D02*
Y312094D01*
X639836Y321078D02*
X641868D01*
X640852Y320062D02*
Y322094D01*
X613272Y332379D02*
X615304D01*
X614288Y331363D02*
Y333395D01*
X613272Y364881D02*
X615304D01*
X614288Y363865D02*
Y365897D01*
X588358Y396982D02*
X590390D01*
X589374Y395966D02*
Y397998D01*
X601124Y396982D02*
X603156D01*
X602140Y395966D02*
Y397998D01*
X362204Y314908D02*
X364236D01*
X363220Y313892D02*
Y315924D01*
X622074Y396494D02*
X624106D01*
X623090Y395478D02*
Y397510D01*
X588358Y373127D02*
X590390D01*
X589374Y372111D02*
Y374143D01*
X622074Y402492D02*
X624106D01*
X623090Y401477D02*
Y403508D01*
X622074Y408491D02*
X624106D01*
X623090Y407475D02*
Y409507D01*
X631698Y411607D02*
X633730D01*
X632714Y410591D02*
Y412623D01*
X631698Y417322D02*
X633730D01*
X632714Y416306D02*
Y418338D01*
X433312Y333896D02*
X435344D01*
X434328Y332880D02*
Y334912D01*
X576376Y413766D02*
X578408D01*
X577392Y412750D02*
Y414782D01*
X576376Y407880D02*
X578408D01*
X577392Y406864D02*
Y408896D01*
X357830Y169298D02*
X359861D01*
X358845Y168282D02*
Y170314D01*
X341944Y286760D02*
X343976D01*
X342960Y285744D02*
Y287776D01*
X362204Y323988D02*
X364236D01*
X363220Y322972D02*
Y325005D01*
X355854Y324148D02*
X357886D01*
X356870Y323133D02*
Y325164D01*
X349250Y314908D02*
X351282D01*
X350266Y313892D02*
Y315924D01*
X367689Y85090D02*
X369721D01*
X368705Y84074D02*
Y86106D01*
X353758Y144400D02*
X355282D01*
X354520Y143638D02*
Y145162D01*
X349758Y160400D02*
X351282D01*
X350520Y159638D02*
Y161162D01*
X227182Y167041D02*
X229214D01*
X228198Y166025D02*
Y168057D01*
X227182Y157786D02*
X229214D01*
X228198Y156770D02*
Y158802D01*
X133841Y448630D02*
X135872D01*
X134857Y447614D02*
Y449646D01*
X141263Y501803D02*
X143295D01*
X142279Y500787D02*
Y502819D01*
X168046Y481240D02*
X170078D01*
X169062Y480224D02*
Y482256D01*
X352044Y435610D02*
X354076D01*
X353060Y434594D02*
Y436626D01*
X212333Y501803D02*
X214365D01*
X213349Y500787D02*
Y502819D01*
X630574Y434182D02*
X632606D01*
X631590Y433166D02*
Y435198D01*
X630574Y442682D02*
X632606D01*
X631590Y441666D02*
Y443698D01*
X576376Y305880D02*
X578408D01*
X577392Y304864D02*
Y306896D01*
X569214Y276860D02*
X571246D01*
X570230Y275844D02*
Y277876D01*
X100584Y529269D02*
X102616D01*
X101600Y528253D02*
Y530285D01*
X368309Y176376D02*
X370341D01*
X369325Y175360D02*
Y177392D01*
X343790Y134090D02*
X345822D01*
X344806Y133074D02*
Y135106D01*
X210997Y134981D02*
X213029D01*
X212013Y133965D02*
Y135997D01*
X245095Y147759D02*
X248143D01*
X246619Y146235D02*
Y149283D01*
X185780Y124895D02*
X188828D01*
X187304Y123371D02*
Y126419D01*
X322806Y490774D02*
X324838D01*
X323822Y489758D02*
Y491790D01*
X303502Y516372D02*
X305534D01*
X304518Y515356D02*
Y517388D01*
X653934Y484991D02*
X655966D01*
X654950Y483975D02*
Y486007D01*
X631301Y493006D02*
X633334D01*
X632318Y491990D02*
Y494022D01*
X631301Y498890D02*
X633334D01*
X632318Y497874D02*
Y499907D01*
X272034Y488638D02*
X274066D01*
X273050Y487622D02*
Y489654D01*
X239014Y488638D02*
X241046D01*
X240030Y487622D02*
Y489654D01*
X482828Y441124D02*
X484860D01*
X483844Y440108D02*
Y442140D01*
X166897Y414382D02*
X168929D01*
X167913Y413366D02*
Y415398D01*
X128690Y484268D02*
X130722D01*
X129706Y483252D02*
Y485284D01*
X526995Y343821D02*
X529026D01*
X528010Y342805D02*
Y344837D01*
X526995Y320120D02*
X529026D01*
X528010Y319104D02*
Y321136D01*
X526995Y326390D02*
X529026D01*
X528010Y325374D02*
Y327406D01*
X526995Y337740D02*
X529026D01*
X528010Y336724D02*
Y338756D01*
X561772Y365380D02*
X563804D01*
X562788Y364364D02*
Y366396D01*
X561772Y373880D02*
X563804D01*
X562788Y372864D02*
Y374896D01*
X561772Y399380D02*
X563804D01*
X562788Y398364D02*
Y400396D01*
X681574Y419578D02*
X683606D01*
X682590Y418562D02*
Y420594D01*
X213537Y286103D02*
X215569D01*
X214553Y285087D02*
Y287119D01*
X502539Y446405D02*
X504571D01*
X503555Y445389D02*
Y447421D01*
X529844Y449580D02*
X531876D01*
X530860Y448564D02*
Y450596D01*
X546354Y447040D02*
X548386D01*
X547370Y446024D02*
Y448056D01*
X237142Y123719D02*
X239174D01*
X238158Y122703D02*
Y124735D01*
X211251Y149291D02*
X212775D01*
X212013Y148529D02*
Y150053D01*
X215251Y149291D02*
X216775D01*
X216013Y148529D02*
Y150053D01*
X219251Y149291D02*
X220775D01*
X220013Y148529D02*
Y150053D01*
X219251Y153291D02*
X220775D01*
X220013Y152529D02*
Y154053D01*
X211251Y157291D02*
X212775D01*
X212013Y156529D02*
Y158053D01*
X219251Y157291D02*
X220775D01*
X220013Y156529D02*
Y158053D01*
X375602Y167188D02*
X378650D01*
X377126Y165664D02*
Y168712D01*
X341758Y148400D02*
X343282D01*
X342520Y147638D02*
Y149162D01*
X345758Y148400D02*
X347282D01*
X346520Y147638D02*
Y149162D01*
X349758Y148400D02*
X351282D01*
X350520Y147638D02*
Y149162D01*
X349758Y152400D02*
X351282D01*
X350520Y151638D02*
Y153162D01*
X340791Y295341D02*
X342315D01*
X341553Y294579D02*
Y296103D01*
X344791Y295341D02*
X346315D01*
X345553Y294579D02*
Y296103D01*
X348791Y295341D02*
X350315D01*
X349553Y294579D02*
Y296103D01*
X348791Y299341D02*
X350315D01*
X349553Y298579D02*
Y300103D01*
X348791Y303341D02*
X350315D01*
X349553Y302579D02*
Y304103D01*
X344791Y303341D02*
X346315D01*
X345553Y302579D02*
Y304103D01*
X340791Y303341D02*
X342315D01*
X341553Y302579D02*
Y304103D01*
X246873Y327639D02*
X248905D01*
X247889Y326623D02*
Y328655D01*
X212521Y295853D02*
X214045D01*
X213283Y295091D02*
Y296615D01*
X216521Y295853D02*
X218045D01*
X217283Y295091D02*
Y296615D01*
X220521Y295853D02*
X222045D01*
X221283Y295091D02*
Y296615D01*
X220521Y299853D02*
X222045D01*
X221283Y299091D02*
Y300615D01*
X212521Y303853D02*
X214045D01*
X213283Y303091D02*
Y304615D01*
X216521Y303853D02*
X218045D01*
X217283Y303091D02*
Y304615D01*
X220521Y303853D02*
X222045D01*
X221283Y303091D02*
Y304615D01*
X224132Y327639D02*
X226164D01*
X225148Y326623D02*
Y328655D01*
X230124Y327639D02*
X232156D01*
X231140Y326623D02*
Y328655D01*
X561772Y305880D02*
X563804D01*
X562788Y304864D02*
Y306896D01*
X312166Y269851D02*
X315214D01*
X313690Y268326D02*
Y271374D01*
X187706Y269240D02*
X190754D01*
X189230Y267716D02*
Y270764D01*
X504444Y149627D02*
X506476D01*
X505460Y148611D02*
Y150643D01*
X491744Y160020D02*
X493776D01*
X492760Y159004D02*
Y161036D01*
X491744Y149860D02*
X493776D01*
X492760Y148844D02*
Y150876D01*
X491744Y138430D02*
X493776D01*
X492760Y137414D02*
Y139446D01*
X440944Y138430D02*
X442976D01*
X441960Y137414D02*
Y139446D01*
X440944Y149860D02*
X442976D01*
X441960Y148844D02*
Y150876D01*
X440944Y160020D02*
X442976D01*
X441960Y159004D02*
Y161036D01*
X469010Y173335D02*
X472058D01*
X470534Y171811D02*
Y174859D01*
X450831Y173335D02*
X453879D01*
X452355Y171811D02*
Y174859D01*
X227182Y174429D02*
X229214D01*
X228198Y173413D02*
Y175445D01*
X654304Y83820D02*
X656336D01*
X655320Y82804D02*
Y84836D01*
X664574Y279578D02*
X666606D01*
X665590Y278562D02*
Y280594D01*
X736336Y239682D02*
X738368D01*
X737352Y238666D02*
Y240698D01*
X625228Y168855D02*
X627260D01*
X626244Y167839D02*
Y169871D01*
X527964Y204612D02*
X529996D01*
X528980Y203596D02*
Y205628D01*
X538866Y204612D02*
X540898D01*
X539882Y203596D02*
Y205628D01*
X673733Y148428D02*
X675765D01*
X674749Y147412D02*
Y149444D01*
X633229Y168855D02*
X635261D01*
X634245Y167839D02*
Y169871D01*
X668530Y204497D02*
X670562D01*
X669546Y203481D02*
Y205513D01*
X478536Y191262D02*
X480568D01*
X479552Y190246D02*
Y192278D01*
X414254Y230029D02*
X416286D01*
X415270Y229013D02*
Y231045D01*
X510794Y262032D02*
X512826D01*
X511810Y261016D02*
Y263048D01*
X573280Y249261D02*
X575312D01*
X574296Y248245D02*
Y250277D01*
X489394Y366068D02*
X491426D01*
X490410Y365052D02*
Y367084D01*
X411916Y382108D02*
X413948D01*
X412932Y381092D02*
Y383124D01*
X413186Y375951D02*
X415218D01*
X414202Y374935D02*
Y376967D01*
X446024Y378917D02*
X448056D01*
X447040Y377901D02*
Y379933D01*
X460313Y378917D02*
X462345D01*
X461329Y377901D02*
Y379933D01*
X471785Y378917D02*
X473817D01*
X472801Y377901D02*
Y379933D01*
X464866Y397616D02*
X466898D01*
X465882Y396600D02*
Y398632D01*
X464866Y385005D02*
X466898D01*
X465882Y383988D02*
Y386021D01*
X464866Y391310D02*
X466898D01*
X465882Y390294D02*
Y392326D01*
X460225Y391310D02*
X462257D01*
X461241Y390294D02*
Y392326D01*
X460225Y385005D02*
X462257D01*
X461241Y383988D02*
Y386021D01*
X460225Y397616D02*
X462257D01*
X461241Y396600D02*
Y398632D01*
X609290Y523544D02*
X612338D01*
X610814Y522020D02*
Y525068D01*
X652982Y476340D02*
X655014D01*
X653998Y475324D02*
Y477356D01*
X652640Y512732D02*
X654672D01*
X653656Y511716D02*
Y513748D01*
X642640Y512732D02*
X644672D01*
X643656Y511716D02*
Y513748D01*
X610107Y513079D02*
X611631D01*
X610869Y512317D02*
Y513841D01*
X597746Y529077D02*
X599778D01*
X598762Y528061D02*
Y530093D01*
X603508Y529077D02*
X605540D01*
X604524Y528061D02*
Y530093D01*
X474352Y493069D02*
X476384D01*
X475368Y492053D02*
Y494085D01*
X489155Y517871D02*
X491187D01*
X490171Y516855D02*
Y518887D01*
X435243Y472687D02*
X437275D01*
X436259Y471671D02*
Y473703D01*
X467800Y447040D02*
X469832D01*
X468816Y446024D02*
Y448056D01*
X444551Y511101D02*
X446583D01*
X445567Y510085D02*
Y512117D01*
X444551Y493728D02*
X446583D01*
X445567Y492713D02*
Y494744D01*
X465894Y455930D02*
X467926D01*
X466910Y454914D02*
Y456946D01*
X369839Y451460D02*
X371871D01*
X370855Y450444D02*
Y452476D01*
X301950Y445110D02*
X303982D01*
X302966Y444094D02*
Y446126D01*
X273442Y516372D02*
X275474D01*
X274458Y515356D02*
Y517388D01*
X195422Y473710D02*
X197454D01*
X196438Y472694D02*
Y474726D01*
X193456Y421640D02*
X195488D01*
X194472Y420624D02*
Y422656D01*
X189212Y473710D02*
X191244D01*
X190228Y472694D02*
Y474726D01*
X701772Y314380D02*
X703804D01*
X702788Y313364D02*
Y315396D01*
X204003Y514605D02*
X206035D01*
X205019Y513589D02*
Y515621D01*
X195703Y508105D02*
X197735D01*
X196719Y507089D02*
Y509121D01*
X187471Y501803D02*
X189503D01*
X188487Y500787D02*
Y502819D01*
X142245Y543215D02*
X144277D01*
X143261Y542200D02*
Y544231D01*
X427019Y575539D02*
X429050D01*
X428035Y574523D02*
Y576555D01*
X471225Y508840D02*
X472749D01*
X471987Y508078D02*
Y509602D01*
X471225Y515213D02*
X472749D01*
X471987Y514451D02*
Y515975D01*
X463224Y521587D02*
X464748D01*
X463986Y520825D02*
Y522349D01*
X463224Y515213D02*
X464748D01*
X463986Y514451D02*
Y515975D01*
X426974Y493069D02*
X429006D01*
X427990Y492053D02*
Y494085D01*
X463224Y508840D02*
X464748D01*
X463986Y508078D02*
Y509602D01*
X489155Y522870D02*
X491187D01*
X490171Y521854D02*
Y523886D01*
X471225Y521587D02*
X472749D01*
X471987Y520825D02*
Y522349D01*
X449834Y575543D02*
X451866D01*
X450850Y574527D02*
Y576559D01*
X133838Y435958D02*
X135870D01*
X134854Y434942D02*
Y436974D01*
X150368Y421640D02*
X152908D01*
X151638Y420370D02*
Y422910D01*
X701772Y416380D02*
X703804D01*
X702788Y415364D02*
Y417396D01*
X701772Y407880D02*
X703804D01*
X702788Y406864D02*
Y408896D01*
X701772Y390880D02*
X703804D01*
X702788Y389864D02*
Y391896D01*
X701772Y399380D02*
X703804D01*
X702788Y398364D02*
Y400396D01*
X701772Y382380D02*
X703804D01*
X702788Y381364D02*
Y383396D01*
X701772Y373880D02*
X703804D01*
X702788Y372864D02*
Y374896D01*
X701772Y365380D02*
X703804D01*
X702788Y364364D02*
Y366396D01*
X701772Y356880D02*
X703804D01*
X702788Y355864D02*
Y357896D01*
X701772Y348380D02*
X703804D01*
X702788Y347364D02*
Y349396D01*
X701772Y339880D02*
X703804D01*
X702788Y338864D02*
Y340896D01*
X701772Y331380D02*
X703804D01*
X702788Y330364D02*
Y332396D01*
X701772Y322880D02*
X703804D01*
X702788Y321864D02*
Y323896D01*
X701772Y305880D02*
X703804D01*
X702788Y304864D02*
Y306896D01*
X701772Y297380D02*
X703804D01*
X702788Y296364D02*
Y298396D01*
X709074Y279578D02*
X711106D01*
X710090Y278562D02*
Y280594D01*
X727572Y519390D02*
X729604D01*
X728588Y518374D02*
Y520406D01*
X727572Y527391D02*
X729604D01*
X728588Y526375D02*
Y528407D01*
X727572Y535392D02*
X729604D01*
X728588Y534376D02*
Y536408D01*
X613574Y294182D02*
X615606D01*
X614590Y293166D02*
Y295198D01*
X605074Y294182D02*
X607106D01*
X606090Y293166D02*
Y295198D01*
X596574Y294182D02*
X598606D01*
X597590Y293166D02*
Y295198D01*
X588074Y294182D02*
X590106D01*
X589090Y293166D02*
Y295198D01*
X579574Y294182D02*
X581606D01*
X580590Y293166D02*
Y295198D01*
X673074Y294182D02*
X675106D01*
X674090Y293166D02*
Y295198D01*
X681574Y294182D02*
X683606D01*
X682590Y293166D02*
Y295198D01*
X664876Y344180D02*
X666908D01*
X665892Y343164D02*
Y345196D01*
X639836Y382682D02*
X641868D01*
X640852Y381666D02*
Y383698D01*
X664876Y373380D02*
X666908D01*
X665892Y372364D02*
Y374396D01*
X664876Y356880D02*
X666908D01*
X665892Y355864D02*
Y357896D01*
X664876Y331078D02*
X666908D01*
X665892Y330062D02*
Y332094D01*
X639836Y331078D02*
X641868D01*
X640852Y330062D02*
Y332094D01*
X613272Y340380D02*
X615304D01*
X614288Y339364D02*
Y341396D01*
X613272Y356880D02*
X615304D01*
X614288Y355864D02*
Y357896D01*
X414254Y249079D02*
X416286D01*
X415270Y248063D02*
Y250095D01*
X546354Y420208D02*
X548386D01*
X547370Y419192D02*
Y421224D01*
X517263Y409188D02*
X519295D01*
X518279Y408172D02*
Y410204D01*
X696214Y223221D02*
X698246D01*
X697230Y222206D02*
Y224237D01*
X751123Y233680D02*
X753154D01*
X752138Y232664D02*
Y234696D01*
X749438Y228062D02*
X751470D01*
X750454Y227046D02*
Y229078D01*
X537464Y244742D02*
X539496D01*
X538480Y243726D02*
Y245758D01*
X421077Y186690D02*
X423109D01*
X422093Y185674D02*
Y187706D01*
X428108Y179262D02*
X430140D01*
X429124Y178246D02*
Y180278D01*
X428108Y138558D02*
X430140D01*
X429124Y137542D02*
Y139574D01*
X407924Y138558D02*
X409956D01*
X408940Y137542D02*
Y139574D01*
X231184Y510993D02*
X233216D01*
X232200Y509977D02*
Y512009D01*
X297679Y334238D02*
X299711D01*
X298695Y333222D02*
Y335254D01*
X367689Y93816D02*
X369721D01*
X368705Y92800D02*
Y94832D01*
X315513Y94615D02*
X317544D01*
X316528Y93599D02*
Y95631D01*
X276128Y91815D02*
X278160D01*
X277144Y90799D02*
Y92831D01*
X317757Y103632D02*
X319789D01*
X318773Y102616D02*
Y104648D01*
X265684Y91868D02*
X267716D01*
X266700Y90852D02*
Y92884D01*
X283464Y208597D02*
X285496D01*
X284480Y207581D02*
Y209613D01*
X283464Y198597D02*
X285496D01*
X284480Y197581D02*
Y199613D01*
X283464Y188597D02*
X285496D01*
X284480Y187581D02*
Y189613D01*
X167563Y69676D02*
X169595D01*
X168579Y68660D02*
Y70692D01*
X172085Y202536D02*
X174117D01*
X173101Y201520D02*
Y203552D01*
X165354Y192493D02*
X167386D01*
X166370Y191477D02*
Y193509D01*
X134171Y543215D02*
X136203D01*
X135187Y542200D02*
Y544231D01*
X199073Y566101D02*
X201105D01*
X200089Y565085D02*
Y567117D01*
X186307Y566101D02*
X188339D01*
X187323Y565085D02*
Y567117D01*
X220521Y307853D02*
X222045D01*
X221283Y307091D02*
Y308615D01*
X349758Y156400D02*
X351282D01*
X350520Y155638D02*
Y157162D01*
M02*
