G04*
G04 #@! TF.GenerationSoftware,Altium Limited,Altium Designer,23.1.1 (15)*
G04*
G04 Layer_Color=0*
%FSLAX44Y44*%
%MOMM*%
G71*
G04*
G04 #@! TF.SameCoordinates,D1EA7B9B-11C4-41B5-954D-5070AA3C9977*
G04*
G04*
G04 #@! TF.FilePolarity,Positive*
G04*
G01*
G75*
%ADD10C,0.1000*%
D10*
X467440Y549910D02*
X477440D01*
X472440Y544910D02*
Y554910D01*
X450850Y553180D02*
Y563180D01*
X445850Y558180D02*
X455850D01*
X423035Y558177D02*
X433035D01*
X428035Y553177D02*
Y563177D01*
X422990Y518780D02*
X432990D01*
X427990Y513780D02*
Y523780D01*
X469980Y451326D02*
X479980Y451326D01*
X474980Y446326D02*
X474980Y456326D01*
X469980Y451326D02*
X479980Y451326D01*
X474980Y446326D02*
X474980Y456326D01*
X512430Y471250D02*
Y481250D01*
X507430Y476250D02*
X517430D01*
X465614Y367110D02*
Y377110D01*
X460614Y372110D02*
X470614D01*
X465614Y367110D02*
Y377110D01*
X460614Y372110D02*
X470614D01*
X438472Y266939D02*
Y276939D01*
X433472Y271939D02*
X443472D01*
X339872Y84316D02*
X349872D01*
X344872Y79316D02*
Y89316D01*
X467360Y130890D02*
Y140890D01*
X462360Y135890D02*
X472360D01*
X466280Y177705D02*
Y187705D01*
X461280Y182705D02*
X471280D01*
X500460Y166990D02*
X510460D01*
X505460Y161990D02*
Y171990D01*
X532290Y327620D02*
X542290D01*
X537290Y322620D02*
Y332620D01*
X577200Y508080D02*
Y518080D01*
X572200Y513080D02*
X582200D01*
X639370Y480522D02*
X649370D01*
X644370Y475522D02*
Y485522D01*
X490410Y388430D02*
X490410Y378430D01*
X485410Y383430D02*
X495410Y383430D01*
X469980Y427131D02*
X479980D01*
X474980Y422131D02*
Y432131D01*
M02*
