G04*
G04 #@! TF.GenerationSoftware,Altium Limited,Altium Designer,23.1.1 (15)*
G04*
G04 Layer_Physical_Order=3*
G04 Layer_Color=16440176*
%FSLAX44Y44*%
%MOMM*%
G71*
G04*
G04 #@! TF.SameCoordinates,D1EA7B9B-11C4-41B5-954D-5070AA3C9977*
G04*
G04*
G04 #@! TF.FilePolarity,Positive*
G04*
G01*
G75*
%ADD13C,0.2540*%
%ADD15C,0.1524*%
%ADD21C,0.1016*%
%ADD141C,0.1565*%
%ADD142C,0.7620*%
%ADD144C,1.0160*%
%ADD152C,1.7000*%
%ADD153R,1.7000X1.7000*%
%ADD154C,1.8000*%
%ADD155R,1.8000X1.8000*%
%ADD156O,1.0000X1.8000*%
%ADD157O,1.0000X2.1000*%
%ADD158C,4.0000*%
%ADD159C,0.4064*%
%ADD160C,0.3048*%
%ADD161C,0.5080*%
%ADD162C,0.2540*%
%ADD163C,0.5000*%
%ADD166C,0.1425*%
%ADD167C,0.1438*%
%ADD168C,1.5240*%
G36*
X733847Y646286D02*
X732613Y645775D01*
X728922Y643308D01*
X725782Y640168D01*
X723315Y636477D01*
X721616Y632375D01*
X720750Y628020D01*
Y623580D01*
X721616Y619225D01*
X723315Y615123D01*
X725782Y611432D01*
X728922Y608292D01*
X732613Y605825D01*
X736715Y604126D01*
X741070Y603260D01*
X745510D01*
X749865Y604126D01*
X753967Y605825D01*
X757658Y608292D01*
X760798Y611432D01*
X763265Y615123D01*
X763783Y616374D01*
X765053Y616121D01*
Y436470D01*
X717340D01*
X716349Y436273D01*
X715509Y435711D01*
X714947Y434871D01*
X714750Y433880D01*
Y279880D01*
X714947Y278889D01*
X715509Y278049D01*
X716349Y277487D01*
X717340Y277290D01*
X765053D01*
Y85478D01*
X763783Y85226D01*
X763265Y86477D01*
X760798Y90168D01*
X757658Y93308D01*
X753967Y95775D01*
X749865Y97474D01*
X745510Y98340D01*
X741070D01*
X736715Y97474D01*
X732613Y95775D01*
X728922Y93308D01*
X725782Y90168D01*
X723315Y86477D01*
X721616Y82375D01*
X720750Y78020D01*
Y73580D01*
X721616Y69225D01*
X723315Y65123D01*
X725782Y61432D01*
X728922Y58292D01*
X732613Y55825D01*
X733864Y55307D01*
X733612Y54037D01*
X644216D01*
X643690Y55307D01*
X645104Y56721D01*
X646558Y59239D01*
X647310Y62047D01*
Y64953D01*
X646558Y67761D01*
X645104Y70279D01*
X643049Y72334D01*
X640531Y73788D01*
X637723Y74540D01*
X634817D01*
X632009Y73788D01*
X629491Y72334D01*
X627436Y70279D01*
X625982Y67761D01*
X625230Y64953D01*
Y62047D01*
X625982Y59239D01*
X627436Y56721D01*
X628850Y55307D01*
X628324Y54037D01*
X618816D01*
X618290Y55307D01*
X619704Y56721D01*
X621158Y59239D01*
X621910Y62047D01*
Y64953D01*
X621158Y67761D01*
X619704Y70279D01*
X617649Y72334D01*
X615131Y73788D01*
X612323Y74540D01*
X609417D01*
X606609Y73788D01*
X604091Y72334D01*
X602036Y70279D01*
X600582Y67761D01*
X599830Y64953D01*
Y62047D01*
X600582Y59239D01*
X602036Y56721D01*
X603450Y55307D01*
X602924Y54037D01*
X593416D01*
X592890Y55307D01*
X594304Y56721D01*
X595758Y59239D01*
X596510Y62047D01*
Y64953D01*
X595758Y67761D01*
X594304Y70279D01*
X592249Y72334D01*
X589731Y73788D01*
X586923Y74540D01*
X584017D01*
X581209Y73788D01*
X578691Y72334D01*
X576636Y70279D01*
X575182Y67761D01*
X574430Y64953D01*
Y62047D01*
X575182Y59239D01*
X576636Y56721D01*
X578050Y55307D01*
X577524Y54037D01*
X568016D01*
X567490Y55307D01*
X568904Y56721D01*
X570358Y59239D01*
X571110Y62047D01*
Y64953D01*
X570358Y67761D01*
X568904Y70279D01*
X566849Y72334D01*
X564331Y73788D01*
X561523Y74540D01*
X558617D01*
X557866Y74339D01*
X554035Y78170D01*
X554815Y79186D01*
X555809Y78612D01*
X558617Y77860D01*
X561523D01*
X564331Y78612D01*
X566849Y80066D01*
X568904Y82121D01*
X570358Y84639D01*
X571110Y87447D01*
Y90353D01*
X570358Y93161D01*
X568904Y95679D01*
X566849Y97734D01*
X564331Y99188D01*
X561523Y99940D01*
X558617D01*
X555809Y99188D01*
X553291Y97734D01*
X551236Y95679D01*
X550724Y94792D01*
X549905Y94831D01*
X549350Y94953D01*
X548698Y95929D01*
X530232Y114395D01*
Y144543D01*
X561986Y176296D01*
X597024D01*
X598293Y176549D01*
X599369Y177267D01*
X622193Y200091D01*
X622912Y201167D01*
X623164Y202436D01*
Y232395D01*
X661100Y270331D01*
X662274Y269845D01*
Y248810D01*
X662526Y247541D01*
X663245Y246465D01*
X672373Y237337D01*
X673449Y236618D01*
X674718Y236366D01*
X737352D01*
X737423Y236380D01*
X738009D01*
X738549Y236604D01*
X738621Y236618D01*
X738681Y236659D01*
X739222Y236883D01*
X739636Y237297D01*
X739697Y237337D01*
X739737Y237398D01*
X740151Y237812D01*
X740375Y238352D01*
X740416Y238413D01*
X740430Y238484D01*
X740654Y239025D01*
Y239611D01*
X740668Y239682D01*
X740654Y239753D01*
Y240339D01*
X740430Y240880D01*
X740416Y240951D01*
X740375Y241012D01*
X740151Y241553D01*
X739737Y241966D01*
X739697Y242027D01*
X739636Y242067D01*
X739222Y242481D01*
X738681Y242705D01*
X738621Y242746D01*
X738549Y242760D01*
X738009Y242984D01*
X737423D01*
X737352Y242998D01*
X676092D01*
X668906Y250184D01*
Y279578D01*
X668892Y279649D01*
Y280235D01*
X668668Y280776D01*
X668654Y280847D01*
X668613Y280908D01*
X668389Y281448D01*
X667975Y281862D01*
X667935Y281923D01*
X667874Y281963D01*
X667460Y282377D01*
X666920Y282601D01*
X666859Y282642D01*
X666788Y282656D01*
X666247Y282880D01*
X665661D01*
X665590Y282894D01*
X665519Y282880D01*
X664933D01*
X664875Y282856D01*
X663779Y283436D01*
X663668Y283598D01*
X663605Y283704D01*
Y377091D01*
X664875Y377939D01*
X665235Y377790D01*
X666549D01*
X667762Y378293D01*
X668425Y378955D01*
X669190Y379116D01*
X669956Y378955D01*
X670618Y378293D01*
X671831Y377790D01*
X673145D01*
X674358Y378293D01*
X675287Y379222D01*
X675790Y380435D01*
Y381749D01*
X675287Y382962D01*
X674358Y383891D01*
X673145Y384394D01*
X671831D01*
X670618Y383891D01*
X669956Y383229D01*
X669190Y383068D01*
X668425Y383229D01*
X667762Y383891D01*
X666549Y384394D01*
X665235D01*
X665074Y384327D01*
X663990Y385019D01*
X663904Y386230D01*
X674818Y397145D01*
X675537Y398220D01*
X675789Y399489D01*
Y404993D01*
X675537Y406262D01*
X674818Y407338D01*
X669601Y412555D01*
X669540Y412595D01*
X669126Y413009D01*
X668586Y413233D01*
X668525Y413274D01*
X668454Y413288D01*
X667913Y413512D01*
X667327D01*
X667256Y413526D01*
X667185Y413512D01*
X666599D01*
X666058Y413288D01*
X665987Y413274D01*
X665926Y413233D01*
X665386Y413009D01*
X664972Y412595D01*
X664911Y412555D01*
X664871Y412494D01*
X664457Y412080D01*
X664233Y411540D01*
X664192Y411479D01*
X664178Y411408D01*
X663954Y410867D01*
Y410281D01*
X663940Y410210D01*
X663954Y410139D01*
Y409553D01*
X664178Y409012D01*
X664192Y408941D01*
X664233Y408880D01*
X664457Y408340D01*
X664871Y407925D01*
X664911Y407865D01*
X666098Y406678D01*
X666072Y405764D01*
X665800Y405180D01*
X665386Y405008D01*
X664972Y404594D01*
X664911Y404554D01*
X653157Y392800D01*
X652430Y392947D01*
X651887Y393276D01*
Y464265D01*
X653157Y465113D01*
X653341Y465037D01*
X654655D01*
X655868Y465540D01*
X656797Y466469D01*
X657300Y467682D01*
Y468996D01*
X656797Y470209D01*
X655868Y471138D01*
X654655Y471641D01*
X653341D01*
X653176Y472134D01*
X654192Y473038D01*
X654655D01*
X655868Y473541D01*
X656797Y474470D01*
X657300Y475683D01*
Y476997D01*
X656797Y478210D01*
X655868Y479139D01*
X654655Y479642D01*
X653341D01*
X653157Y479566D01*
X651887Y480414D01*
Y482637D01*
X651635Y483906D01*
X650916Y484982D01*
X635634Y500264D01*
Y501622D01*
X635381Y502891D01*
X634662Y503967D01*
X616913Y521716D01*
X615837Y522435D01*
X615289Y522544D01*
X614116Y522887D01*
Y524201D01*
X613672Y525272D01*
X613914Y525922D01*
X614282Y526542D01*
X614829D01*
X616042Y527045D01*
X616971Y527974D01*
X617220Y528575D01*
X618595D01*
X618739Y528228D01*
X619668Y527299D01*
X620881Y526796D01*
X622195D01*
X623408Y527299D01*
X624337Y528228D01*
X624840Y529441D01*
Y530755D01*
X624337Y531968D01*
X623925Y532380D01*
X623523Y533152D01*
X623925Y534040D01*
X624286Y534400D01*
X624788Y535614D01*
Y536927D01*
X624286Y538141D01*
X623357Y539070D01*
X622143Y539572D01*
X620830D01*
X619616Y539070D01*
X618687Y538141D01*
X618553Y537818D01*
X617179D01*
X616971Y538318D01*
X616042Y539247D01*
X614829Y539750D01*
X613515D01*
X612302Y539247D01*
X611373Y538318D01*
X610870Y537105D01*
Y535791D01*
X611373Y534578D01*
X612040Y533910D01*
X612198Y533146D01*
X612040Y532382D01*
X611373Y531714D01*
X610870Y530501D01*
Y529187D01*
X611314Y528116D01*
X611072Y527466D01*
X610704Y526846D01*
X610157D01*
X608944Y526343D01*
X608731Y526131D01*
X608136Y526196D01*
X607275Y526820D01*
X607213Y527096D01*
X607323Y527207D01*
X607826Y528420D01*
Y529734D01*
X607323Y530948D01*
X606394Y531877D01*
X605181Y532379D01*
X603867D01*
X602653Y531877D01*
X602472Y531696D01*
X601643Y531015D01*
X600813Y531696D01*
X600632Y531877D01*
X599419Y532379D01*
X598105D01*
X596892Y531877D01*
X595963Y530948D01*
X595460Y529734D01*
Y528420D01*
X595963Y527207D01*
X596823Y526347D01*
X595963Y525487D01*
X595460Y524273D01*
Y522960D01*
X595278Y522688D01*
X593897D01*
X593715Y522960D01*
Y524273D01*
X593212Y525487D01*
X592352Y526347D01*
X593212Y527207D01*
X593715Y528420D01*
Y529734D01*
X593212Y530948D01*
X592283Y531877D01*
X591070Y532379D01*
X589756D01*
X588543Y531877D01*
X587614Y530948D01*
X587111Y529734D01*
Y528420D01*
X587614Y527207D01*
X588474Y526347D01*
X587614Y525487D01*
X587111Y524273D01*
Y522960D01*
X587055Y522875D01*
X586949D01*
X585714Y524122D01*
Y524273D01*
X585211Y525487D01*
X584351Y526347D01*
X585211Y527207D01*
X585714Y528420D01*
Y529734D01*
X585211Y530948D01*
X584282Y531877D01*
X583069Y532379D01*
X581755D01*
X580541Y531877D01*
X579613Y530948D01*
X579110Y529734D01*
Y528420D01*
X579613Y527207D01*
X580473Y526347D01*
X579613Y525487D01*
X579110Y524273D01*
Y522960D01*
X578928Y522688D01*
X551180D01*
Y549243D01*
X551180Y549243D01*
X551180Y549243D01*
X551161Y549299D01*
X552680Y550464D01*
X567300Y565084D01*
X655665D01*
X677338Y543411D01*
Y516250D01*
X676834Y515914D01*
X676068Y515611D01*
X675047Y516034D01*
X673734D01*
X672520Y515531D01*
X671591Y514603D01*
X671088Y513389D01*
Y512075D01*
X671591Y510862D01*
X672520Y509933D01*
X673734Y509430D01*
X675047D01*
X676031Y509837D01*
X677118Y509243D01*
X677194Y508047D01*
X672862Y503716D01*
X664567D01*
X664042Y504986D01*
X664457Y505401D01*
X664959Y506614D01*
Y507928D01*
X664457Y509142D01*
X663596Y510001D01*
X664457Y510862D01*
X664959Y512075D01*
Y513389D01*
X664457Y514603D01*
X663528Y515531D01*
X662314Y516034D01*
X661001D01*
X659787Y515531D01*
X658858Y514603D01*
X658355Y513389D01*
Y512075D01*
X658858Y510862D01*
X659718Y510001D01*
X658858Y509142D01*
X658355Y507928D01*
Y506614D01*
X658858Y505401D01*
X659273Y504986D01*
X658747Y503716D01*
X652780D01*
X650791Y503454D01*
X648937Y502686D01*
X647345Y501464D01*
X646124Y499873D01*
X645356Y498019D01*
X645094Y496030D01*
X645356Y494040D01*
X646124Y492187D01*
X647345Y490595D01*
X648937Y489374D01*
X650791Y488606D01*
X652780Y488344D01*
X676046D01*
X678035Y488606D01*
X679889Y489374D01*
X681481Y490595D01*
X690459Y499573D01*
X690459Y499573D01*
X691680Y501165D01*
X692448Y503019D01*
X692710Y505008D01*
X692710Y505008D01*
Y546594D01*
X692710Y546594D01*
X692448Y548583D01*
X691680Y550437D01*
X690459Y552029D01*
X690459Y552029D01*
X664283Y578205D01*
X662691Y579426D01*
X660838Y580194D01*
X658849Y580456D01*
X564116D01*
X562127Y580194D01*
X560273Y579426D01*
X558681Y578205D01*
X544062Y563585D01*
X437789D01*
X435800Y563323D01*
X433946Y562555D01*
X432354Y561334D01*
X432354Y561334D01*
X422581Y551561D01*
X422132Y551702D01*
X421408Y552183D01*
Y553242D01*
X420905Y554456D01*
X419976Y555384D01*
X418763Y555887D01*
X417449D01*
X416236Y555384D01*
X415375Y554524D01*
X414515Y555384D01*
X413302Y555887D01*
X411988D01*
X410774Y555384D01*
X409846Y554456D01*
X409343Y553242D01*
Y551928D01*
X409846Y550715D01*
X410774Y549786D01*
X411988Y549283D01*
X413302D01*
X414515Y549786D01*
X415375Y550646D01*
X416236Y549786D01*
X417449Y549283D01*
X418042D01*
X418706Y548095D01*
X418165Y547436D01*
X333452D01*
X329308Y551580D01*
X327716Y552802D01*
X325862Y553570D01*
X323873Y553831D01*
X248224D01*
X247972Y555102D01*
X247996Y555112D01*
X248925Y556041D01*
X249428Y557254D01*
Y558568D01*
X248925Y559781D01*
X248768Y559939D01*
X248047Y560769D01*
X248768Y561598D01*
X248925Y561756D01*
X249428Y562969D01*
Y564283D01*
X248925Y565496D01*
X247996Y566425D01*
X246783Y566928D01*
X245469D01*
X244256Y566425D01*
X244094Y566264D01*
X243932Y566425D01*
X242719Y566928D01*
X241405D01*
X240192Y566425D01*
X240093Y566327D01*
X239995Y566425D01*
X238782Y566928D01*
X237468D01*
X236255Y566425D01*
X235326Y565496D01*
X234823Y564283D01*
Y562969D01*
X235326Y561756D01*
X235483Y561598D01*
X236204Y560769D01*
X235483Y559939D01*
X235326Y559781D01*
X234823Y558568D01*
Y557254D01*
X235326Y556041D01*
X236255Y555112D01*
X236279Y555102D01*
X236027Y553831D01*
X231897D01*
X218506Y567223D01*
Y574172D01*
X219776Y574256D01*
X219964Y572828D01*
X220723Y570993D01*
X221932Y569418D01*
X223507Y568210D01*
X225341Y567450D01*
X227310Y567191D01*
X229278Y567450D01*
X231112Y568210D01*
X232687Y569418D01*
X233896Y570993D01*
X234656Y572828D01*
X234915Y574796D01*
Y581971D01*
X235143Y582146D01*
X236860Y581862D01*
X237390Y581069D01*
X239326Y579776D01*
X241610Y579321D01*
X243894Y579776D01*
X245830Y581069D01*
X247124Y583006D01*
X247578Y585290D01*
X247449Y585937D01*
Y585937D01*
X247402Y586176D01*
X247124Y587574D01*
X246758Y588122D01*
X246757Y588122D01*
X246196Y588962D01*
X246196Y588963D01*
X245830Y589510D01*
X245282Y589876D01*
X245282Y589877D01*
X244441Y590438D01*
X244441Y590438D01*
X243894Y590804D01*
X243248Y590932D01*
X243247Y590933D01*
X242256Y591130D01*
X242255D01*
X241610Y591258D01*
X240964Y591130D01*
X240963D01*
X239972Y590932D01*
X239971Y590932D01*
X239326Y590804D01*
X238778Y590438D01*
X238777Y590438D01*
X237937Y589876D01*
X237937Y589876D01*
X237390Y589510D01*
X237024Y588962D01*
X237023Y588962D01*
X236462Y588121D01*
Y588121D01*
X236096Y587574D01*
X236015Y587168D01*
X234729Y587210D01*
X234656Y587764D01*
X233896Y589599D01*
X232687Y591174D01*
X231112Y592382D01*
X229278Y593142D01*
X227310Y593401D01*
X225341Y593142D01*
X223507Y592382D01*
X221932Y591174D01*
X220723Y589599D01*
X219964Y587764D01*
X219705Y585796D01*
Y582284D01*
X218435Y582200D01*
X218244Y583649D01*
X217476Y585503D01*
X216255Y587095D01*
X216255Y587095D01*
X202285Y601065D01*
X200693Y602286D01*
X198839Y603054D01*
X196850Y603316D01*
X105981D01*
X105859Y603300D01*
X104140D01*
X103149Y603103D01*
X102309Y602541D01*
X101776Y602009D01*
X100546Y601065D01*
X99602Y599834D01*
X92149Y592381D01*
X91587Y591541D01*
X91390Y590550D01*
Y570230D01*
X91587Y569239D01*
X92149Y568399D01*
X93792Y566755D01*
X93306Y565582D01*
X88556D01*
X87287Y565330D01*
X86211Y564611D01*
X78655Y557055D01*
X77201Y557397D01*
X77201Y557398D01*
X77425Y557939D01*
X77466Y558000D01*
X77480Y558071D01*
X77704Y558612D01*
Y559197D01*
X77718Y559269D01*
X77704Y559340D01*
Y559925D01*
X77480Y560466D01*
X77466Y560538D01*
X77425Y560598D01*
X77201Y561139D01*
X76787Y561553D01*
X76747Y561614D01*
X76682Y562739D01*
X76901Y563098D01*
X77201Y563398D01*
X77425Y563939D01*
X77466Y563999D01*
X77480Y564071D01*
X77704Y564611D01*
Y565197D01*
X77718Y565268D01*
X77704Y565340D01*
Y565925D01*
X77480Y566466D01*
X77466Y566537D01*
X77425Y566598D01*
X77201Y567139D01*
X76901Y567438D01*
X76740Y567702D01*
X76669Y568717D01*
X76901Y569098D01*
X77201Y569397D01*
X77704Y570611D01*
Y571925D01*
X77201Y573138D01*
X76272Y574067D01*
X75058Y574570D01*
X73745D01*
X72531Y574067D01*
X71602Y573138D01*
X71100Y571925D01*
Y570611D01*
X71602Y569397D01*
X71902Y569098D01*
X72135Y568717D01*
X72065Y567724D01*
X71892Y567448D01*
X64100Y559657D01*
X62927Y560143D01*
Y616114D01*
X64197Y616367D01*
X64715Y615116D01*
X67182Y611424D01*
X70322Y608285D01*
X74013Y605818D01*
X78115Y604119D01*
X82470Y603253D01*
X86910D01*
X91265Y604119D01*
X95367Y605818D01*
X99058Y608285D01*
X102198Y611424D01*
X104665Y615116D01*
X106364Y619218D01*
X107230Y623573D01*
Y628013D01*
X106364Y632368D01*
X104665Y636470D01*
X102198Y640161D01*
X99058Y643301D01*
X95367Y645768D01*
X94116Y646286D01*
X94368Y647556D01*
X733594D01*
X733847Y646286D01*
D02*
G37*
G36*
X124460Y599440D02*
Y590550D01*
X105410Y571500D01*
Y566420D01*
X97790D01*
X94160Y570050D01*
X94027Y570249D01*
X93980Y570485D01*
Y590295D01*
X94027Y590531D01*
X94160Y590730D01*
X101433Y598003D01*
X101433Y598003D01*
X101433Y598003D01*
X103960Y600530D01*
X104159Y600663D01*
X104395Y600710D01*
X123190D01*
X124460Y599440D01*
D02*
G37*
G36*
X185615Y556455D02*
X212760Y529310D01*
X213836Y528592D01*
X215105Y528339D01*
X263801D01*
X283625Y508516D01*
X283139Y507343D01*
X281824D01*
X264851Y524315D01*
X263776Y525034D01*
X262507Y525286D01*
X171450D01*
X170181Y525034D01*
X169105Y524315D01*
X162785Y517994D01*
X162066Y516918D01*
X161813Y515649D01*
Y504936D01*
X160640Y504450D01*
X150211Y514879D01*
X149135Y515598D01*
X147866Y515850D01*
X138760D01*
X138274Y517024D01*
X155073Y533823D01*
X163830D01*
X165126Y534080D01*
X166225Y534815D01*
X173558Y542147D01*
X182217D01*
X182647Y542233D01*
X182874D01*
X183084Y542320D01*
X183514Y542405D01*
X183878Y542649D01*
X184088Y542736D01*
X184249Y542896D01*
X184613Y543140D01*
X184856Y543504D01*
X185017Y543664D01*
X185692Y543862D01*
X186431Y543845D01*
X186483Y543826D01*
X189570Y540739D01*
X189935Y540496D01*
X190095Y540335D01*
X190305Y540248D01*
X190669Y540005D01*
X191099Y539919D01*
X191309Y539832D01*
X191536D01*
X191966Y539747D01*
X192395Y539832D01*
X192623D01*
X192833Y539919D01*
X193262Y540005D01*
X193626Y540248D01*
X193836Y540335D01*
X193997Y540495D01*
X194361Y540739D01*
X194604Y541103D01*
X194765Y541264D01*
X194852Y541474D01*
X195095Y541838D01*
X195181Y542267D01*
X195268Y542477D01*
Y542705D01*
X195353Y543134D01*
X195268Y543564D01*
Y543791D01*
X195181Y544001D01*
X195095Y544430D01*
X194852Y544794D01*
X194765Y545005D01*
X194604Y545165D01*
X194361Y545529D01*
X186315Y553575D01*
X185216Y554310D01*
X183920Y554567D01*
X171450D01*
Y566946D01*
X175124D01*
X185615Y556455D01*
D02*
G37*
G36*
X330269Y532064D02*
X421640D01*
X422870Y532226D01*
X423464Y531023D01*
X421536Y529096D01*
X330304D01*
X328366Y531034D01*
X328959Y532237D01*
X330269Y532064D01*
D02*
G37*
G36*
X300268Y533419D02*
X300070Y532941D01*
Y531628D01*
X300573Y530414D01*
X301502Y529485D01*
X301756Y529380D01*
Y528005D01*
X301502Y527899D01*
X300573Y526970D01*
X300070Y525757D01*
Y524443D01*
X300573Y523230D01*
X301502Y522301D01*
X302715Y521798D01*
X304029D01*
X305242Y522301D01*
X305483Y522541D01*
X305724Y522301D01*
X306937Y521798D01*
X308251D01*
X309464Y522301D01*
X309742Y522578D01*
X309979Y522341D01*
X311193Y521838D01*
X312506D01*
X313720Y522341D01*
X314649Y523270D01*
X315152Y524484D01*
Y525797D01*
X314649Y527011D01*
X313720Y527940D01*
X313131Y528184D01*
Y529559D01*
X313720Y529803D01*
X314649Y530732D01*
X315152Y531945D01*
Y533073D01*
X315652Y533445D01*
X316325Y533695D01*
X326585Y523435D01*
X327661Y522716D01*
X328930Y522464D01*
X332011D01*
X332497Y521291D01*
X325063Y513856D01*
X309676D01*
X308610Y514350D01*
X308610Y515126D01*
Y518582D01*
X298735D01*
X298734Y514350D01*
X297669Y513856D01*
X291506D01*
X271846Y533516D01*
X272332Y534689D01*
X299448D01*
X300268Y533419D01*
D02*
G37*
G36*
X222005Y514167D02*
X221997Y514057D01*
X221936Y514017D01*
X221396Y513793D01*
X220982Y513379D01*
X220921Y513338D01*
X220881Y513278D01*
X220467Y512864D01*
X220243Y512323D01*
X220202Y512262D01*
X220188Y512191D01*
X219964Y511650D01*
Y511065D01*
X219950Y510993D01*
X219964Y510922D01*
Y510337D01*
X220188Y509796D01*
X220202Y509724D01*
X220243Y509664D01*
X220467Y509123D01*
X220881Y508709D01*
X220921Y508648D01*
X227339Y502230D01*
X226853Y501057D01*
X191849D01*
X191789Y501146D01*
Y502459D01*
X191287Y503673D01*
X190449Y504511D01*
X190224Y504882D01*
X190025Y505883D01*
X199579Y515437D01*
X201600D01*
X201717Y515261D01*
Y513948D01*
X202220Y512734D01*
X202803Y512152D01*
X203006Y511324D01*
X202786Y510581D01*
X202181Y509975D01*
X201678Y508761D01*
Y507448D01*
X202181Y506234D01*
X203110Y505305D01*
X204323Y504803D01*
X205637D01*
X206850Y505305D01*
X207779Y506234D01*
X208282Y507448D01*
Y508761D01*
X207779Y509975D01*
X207197Y510558D01*
X206993Y511386D01*
X207165Y511966D01*
X208348Y512555D01*
X209024Y512327D01*
X209552Y511798D01*
X210766Y511296D01*
X212080D01*
X213293Y511798D01*
X214222Y512727D01*
X214725Y513941D01*
Y515255D01*
X214847Y515437D01*
X220856D01*
X222005Y514167D01*
D02*
G37*
G36*
X508894Y506226D02*
X508408Y505053D01*
X445868D01*
X445382Y506226D01*
X447912Y508756D01*
X447952Y508817D01*
X448366Y509231D01*
X448590Y509771D01*
X448631Y509832D01*
X448645Y509903D01*
X448869Y510444D01*
Y511030D01*
X448883Y511101D01*
X448869Y511172D01*
Y511758D01*
X448645Y512299D01*
X448631Y512370D01*
X448590Y512431D01*
X448366Y512971D01*
X447952Y513386D01*
X447912Y513446D01*
X447851Y513486D01*
X447438Y513900D01*
X446897Y514124D01*
X446836Y514165D01*
X446765Y514179D01*
X446224Y514403D01*
X445638D01*
X445567Y514417D01*
X445496Y514403D01*
X444910D01*
X444369Y514179D01*
X444298Y514165D01*
X444238Y514124D01*
X443697Y513900D01*
X443283Y513486D01*
X443222Y513446D01*
X440026Y510250D01*
X437435D01*
X436949Y511423D01*
X449260Y523734D01*
X491386D01*
X508894Y506226D01*
D02*
G37*
G36*
X192243Y517481D02*
X179881Y505119D01*
X170613D01*
X170542Y505105D01*
X169956D01*
X169716Y505005D01*
X168809Y505408D01*
X168446Y505854D01*
Y514276D01*
X172824Y518654D01*
X191757D01*
X192243Y517481D01*
D02*
G37*
G36*
X517465Y492535D02*
X518540Y491816D01*
X519810Y491564D01*
X597217D01*
X608824Y479956D01*
Y453308D01*
X609076Y452038D01*
X609795Y450963D01*
X617374Y443384D01*
X628921Y431837D01*
X629996Y431118D01*
X630692Y430980D01*
X630933Y430880D01*
X631194D01*
X631265Y430866D01*
X631590D01*
X631661Y430880D01*
X632247D01*
X632788Y431104D01*
X632859Y431118D01*
X632920Y431159D01*
X633460Y431383D01*
X633874Y431797D01*
X633935Y431837D01*
X633975Y431898D01*
X634389Y432312D01*
X634613Y432852D01*
X634654Y432913D01*
X634668Y432984D01*
X634892Y433525D01*
Y434111D01*
X634906Y434182D01*
X634892Y434253D01*
Y434839D01*
X634668Y435380D01*
X634654Y435451D01*
X634613Y435512D01*
X634389Y436052D01*
X633975Y436466D01*
X633935Y436527D01*
X633874Y436567D01*
X633460Y436981D01*
X632941Y437197D01*
X632027Y438110D01*
X632123Y438662D01*
X632464Y439470D01*
X632788Y439604D01*
X632859Y439618D01*
X632920Y439659D01*
X633460Y439883D01*
X633874Y440297D01*
X633935Y440337D01*
X633975Y440398D01*
X634389Y440812D01*
X634613Y441352D01*
X634654Y441413D01*
X634668Y441484D01*
X634892Y442025D01*
Y442611D01*
X634906Y442682D01*
X634892Y442753D01*
Y443339D01*
X634668Y443880D01*
X634654Y443951D01*
X634613Y444012D01*
X634389Y444552D01*
X633975Y444966D01*
X633935Y445027D01*
X625616Y453346D01*
Y464392D01*
X626672Y465097D01*
X626723Y465076D01*
X628037D01*
X629250Y465579D01*
X630179Y466508D01*
X630682Y467721D01*
Y469035D01*
X630179Y470248D01*
X629250Y471177D01*
X628037Y471680D01*
X626723D01*
X626672Y471659D01*
X625616Y472364D01*
Y493358D01*
X626790Y493844D01*
X629973Y490661D01*
X642235Y478399D01*
Y279240D01*
X641226Y278231D01*
X640053Y278717D01*
Y413299D01*
X639800Y414568D01*
X639081Y415644D01*
X635059Y419667D01*
X634998Y419707D01*
X634584Y420121D01*
X634044Y420345D01*
X633983Y420386D01*
X633912Y420400D01*
X633371Y420624D01*
X632785D01*
X632714Y420638D01*
X632643Y420624D01*
X632057D01*
X631516Y420400D01*
X631445Y420386D01*
X631384Y420345D01*
X630844Y420121D01*
X630430Y419707D01*
X630369Y419667D01*
X630329Y419606D01*
X629915Y419192D01*
X629691Y418652D01*
X629650Y418591D01*
X629636Y418520D01*
X629412Y417979D01*
Y417393D01*
X629398Y417322D01*
X629412Y417251D01*
Y416665D01*
X629636Y416124D01*
X629650Y416053D01*
X629691Y415992D01*
X629915Y415452D01*
X630072Y415294D01*
X630223Y415121D01*
X630369Y413952D01*
X630329Y413891D01*
X629915Y413477D01*
X629691Y412937D01*
X629650Y412876D01*
X629636Y412805D01*
X629412Y412264D01*
Y411678D01*
X629398Y411607D01*
X629412Y411536D01*
Y410950D01*
X629636Y410409D01*
X629650Y410338D01*
X629691Y410277D01*
X629915Y409737D01*
X630329Y409323D01*
X630369Y409262D01*
X630487Y409144D01*
Y407443D01*
X629313Y406957D01*
X625435Y410836D01*
X625374Y410876D01*
X624960Y411290D01*
X624420Y411514D01*
X624359Y411555D01*
X624288Y411569D01*
X623747Y411793D01*
X623161D01*
X623090Y411807D01*
X623019Y411793D01*
X622433D01*
X621892Y411569D01*
X621821Y411555D01*
X621760Y411514D01*
X621220Y411290D01*
X620806Y410876D01*
X620745Y410836D01*
X620705Y410775D01*
X620291Y410361D01*
X620067Y409821D01*
X620026Y409760D01*
X620012Y409689D01*
X619788Y409148D01*
Y408562D01*
X619774Y408491D01*
X619788Y408420D01*
Y407834D01*
X620012Y407293D01*
X620026Y407222D01*
X620067Y407161D01*
X620291Y406620D01*
X620590Y406321D01*
X620809Y405963D01*
X620745Y404837D01*
X620705Y404777D01*
X620291Y404363D01*
X620067Y403822D01*
X620026Y403761D01*
X620012Y403690D01*
X619788Y403149D01*
Y402564D01*
X619774Y402492D01*
X619788Y402421D01*
Y401836D01*
X620012Y401295D01*
X620026Y401223D01*
X620067Y401163D01*
X620291Y400622D01*
X620590Y400323D01*
X620809Y399965D01*
X620745Y398839D01*
X620705Y398778D01*
X620291Y398364D01*
X620067Y397824D01*
X620026Y397763D01*
X620012Y397692D01*
X619788Y397151D01*
Y396565D01*
X619774Y396494D01*
X619788Y396423D01*
Y395837D01*
X620012Y395296D01*
X620026Y395225D01*
X620005Y395126D01*
X618975Y394482D01*
X614130Y399327D01*
X613054Y400046D01*
X611785Y400298D01*
X602140D01*
X602069Y400284D01*
X601483D01*
X600942Y400060D01*
X600871Y400046D01*
X600810Y400005D01*
X600270Y399781D01*
X599856Y399367D01*
X599795Y399327D01*
X599755Y399266D01*
X599341Y398852D01*
X599117Y398311D01*
X599076Y398251D01*
X599062Y398179D01*
X598838Y397639D01*
Y397053D01*
X598824Y396982D01*
X598099Y395905D01*
X595369D01*
X591947Y399327D01*
X590872Y400046D01*
X590360Y400147D01*
X590031Y400284D01*
X589674D01*
X589603Y400298D01*
X589374D01*
X589303Y400284D01*
X588717D01*
X588176Y400060D01*
X588105Y400046D01*
X588044Y400005D01*
X587504Y399781D01*
X587090Y399367D01*
X587029Y399327D01*
X586989Y399266D01*
X586575Y398852D01*
X586351Y398311D01*
X586310Y398251D01*
X586296Y398179D01*
X586072Y397639D01*
Y397053D01*
X586058Y396982D01*
X586072Y396910D01*
Y396325D01*
X586296Y395784D01*
X586310Y395713D01*
X586351Y395652D01*
X586575Y395111D01*
X586989Y394697D01*
X587029Y394637D01*
X587090Y394596D01*
X587504Y394182D01*
X587859Y394035D01*
X591651Y390243D01*
X592727Y389524D01*
X593996Y389272D01*
X610843D01*
X613013Y387103D01*
X612715Y385604D01*
X612418Y385481D01*
X611489Y384552D01*
X610986Y383339D01*
Y382025D01*
X611489Y380812D01*
X612418Y379883D01*
X613631Y379380D01*
Y378183D01*
X612418Y377680D01*
X611489Y376751D01*
X610986Y375538D01*
Y374224D01*
X611489Y373011D01*
X612418Y372082D01*
X613631Y371579D01*
X614945D01*
X615428Y371256D01*
Y298383D01*
X614590Y297498D01*
X614519Y297484D01*
X613933D01*
X613392Y297260D01*
X613321Y297246D01*
X613260Y297205D01*
X612720Y296981D01*
X612306Y296567D01*
X612245Y296527D01*
X612205Y296466D01*
X611791Y296052D01*
X611567Y295512D01*
X611526Y295451D01*
X611517Y295403D01*
X610662Y294548D01*
X610018Y294696D01*
X609323Y295005D01*
X609168Y295380D01*
X609154Y295451D01*
X609113Y295512D01*
X608889Y296052D01*
X608475Y296466D01*
X608435Y296527D01*
X608374Y296567D01*
X607960Y296981D01*
X607420Y297205D01*
X607359Y297246D01*
X607288Y297260D01*
X606747Y297484D01*
X606161D01*
X606090Y297498D01*
X606019Y297484D01*
X605433D01*
X604892Y297260D01*
X604821Y297246D01*
X604760Y297205D01*
X604220Y296981D01*
X603806Y296567D01*
X603745Y296527D01*
X603705Y296466D01*
X603291Y296052D01*
X603067Y295512D01*
X603026Y295451D01*
X603017Y295403D01*
X602162Y294548D01*
X601518Y294696D01*
X600823Y295005D01*
X600668Y295380D01*
X600654Y295451D01*
X600613Y295512D01*
X600389Y296052D01*
X599975Y296466D01*
X599935Y296527D01*
X599874Y296567D01*
X599460Y296981D01*
X598920Y297205D01*
X598859Y297246D01*
X598788Y297260D01*
X598247Y297484D01*
X597661D01*
X597590Y297498D01*
X597519Y297484D01*
X596933D01*
X596392Y297260D01*
X596321Y297246D01*
X596260Y297205D01*
X595720Y296981D01*
X595306Y296567D01*
X595245Y296527D01*
X593676Y294958D01*
X592406Y295484D01*
Y307530D01*
X592154Y308799D01*
X591435Y309875D01*
X565499Y335811D01*
X564423Y336530D01*
X563154Y336782D01*
X532131D01*
X531327Y337740D01*
X531312Y337811D01*
Y338397D01*
X531088Y338938D01*
X531074Y339009D01*
X531034Y339070D01*
X530810Y339610D01*
X530470Y339951D01*
X530234Y340379D01*
X530355Y341476D01*
X530396Y341536D01*
X530810Y341950D01*
X531034Y342491D01*
X531074Y342552D01*
X531088Y342623D01*
X531312Y343164D01*
Y343749D01*
X531327Y343821D01*
Y364490D01*
X552450D01*
Y364597D01*
X553623Y365083D01*
X555671Y363035D01*
X556747Y362316D01*
X558016Y362064D01*
X562788D01*
X562859Y362078D01*
X563445D01*
X563986Y362302D01*
X564057Y362316D01*
X564118Y362357D01*
X564658Y362581D01*
X565072Y362995D01*
X565133Y363035D01*
X565173Y363096D01*
X565587Y363510D01*
X565811Y364050D01*
X565852Y364111D01*
X565866Y364182D01*
X566090Y364723D01*
Y365309D01*
X566104Y365380D01*
X566965Y366254D01*
X585817D01*
X587086Y366506D01*
X588162Y367225D01*
X591719Y370782D01*
X591759Y370842D01*
X592173Y371256D01*
X592397Y371797D01*
X592438Y371858D01*
X592452Y371929D01*
X592676Y372470D01*
Y373055D01*
X592690Y373127D01*
X592676Y373198D01*
Y373784D01*
X592452Y374324D01*
X592438Y374396D01*
X592397Y374456D01*
X592173Y374997D01*
X591759Y375411D01*
X591719Y375472D01*
X591658Y375512D01*
X591244Y375926D01*
X590704Y376150D01*
X590643Y376191D01*
X590572Y376205D01*
X590031Y376429D01*
X589445D01*
X589374Y376443D01*
X589303Y376429D01*
X588717D01*
X588176Y376205D01*
X588105Y376191D01*
X588044Y376150D01*
X587504Y375926D01*
X587090Y375512D01*
X587029Y375472D01*
X584444Y372886D01*
X566885D01*
X566104Y373880D01*
Y390656D01*
X565852Y391925D01*
X565133Y393001D01*
X563326Y394808D01*
X563368Y395262D01*
X563732Y396197D01*
X563986Y396302D01*
X564057Y396316D01*
X564118Y396357D01*
X564658Y396581D01*
X565072Y396995D01*
X565133Y397035D01*
X565173Y397096D01*
X565587Y397510D01*
X565811Y398050D01*
X565852Y398111D01*
X565866Y398182D01*
X566090Y398723D01*
Y399309D01*
X566104Y399380D01*
X566090Y399451D01*
Y400037D01*
X565866Y400578D01*
X565852Y400649D01*
X565811Y400710D01*
X565587Y401250D01*
X565173Y401664D01*
X565133Y401725D01*
X565072Y401765D01*
X564658Y402179D01*
X564118Y402403D01*
X564057Y402444D01*
X563986Y402458D01*
X563445Y402682D01*
X562859D01*
X562788Y402696D01*
X561679D01*
X525490Y438885D01*
X524414Y439604D01*
X523145Y439856D01*
X482315D01*
X478296Y443876D01*
Y455930D01*
X478044Y457199D01*
X477325Y458275D01*
X464828Y470772D01*
X463752Y471491D01*
X462483Y471743D01*
X253697D01*
X232189Y493251D01*
X232675Y494424D01*
X244069D01*
X244595Y493154D01*
X244480Y493040D01*
X243760Y491962D01*
X243507Y490690D01*
Y488638D01*
X243528Y488534D01*
Y487981D01*
X243740Y487470D01*
X243760Y487366D01*
X243819Y487279D01*
X244031Y486768D01*
X244422Y486377D01*
X244480Y486288D01*
X244569Y486230D01*
X244960Y485839D01*
X245470Y485627D01*
X245558Y485568D01*
X245662Y485548D01*
X246173Y485336D01*
X246726D01*
X246830Y485315D01*
X246934Y485336D01*
X247487D01*
X247682Y485417D01*
X248483Y485384D01*
X249206Y485037D01*
X249708Y484286D01*
X250737Y483257D01*
Y481270D01*
X250990Y479999D01*
X251710Y478921D01*
X255540Y475091D01*
X256618Y474371D01*
X257889Y474118D01*
X485061D01*
X493420Y465759D01*
Y463362D01*
X490765Y460708D01*
X490045Y459630D01*
X489792Y458358D01*
Y457795D01*
X487870Y455873D01*
X487543Y455383D01*
X487421Y455260D01*
X487354Y455101D01*
X487150Y454795D01*
X487079Y454434D01*
X486918Y454047D01*
Y453627D01*
X486897Y453523D01*
Y453390D01*
X486918Y453286D01*
Y452733D01*
X487130Y452222D01*
X487150Y452118D01*
X487209Y452030D01*
X487421Y451520D01*
X487812Y451129D01*
X487870Y451040D01*
X487959Y450982D01*
X488350Y450591D01*
X488860Y450379D01*
X488949Y450320D01*
X489052Y450300D01*
X489563Y450088D01*
X490116D01*
X490220Y450067D01*
X490324Y450088D01*
X490877D01*
X491388Y450300D01*
X491492Y450320D01*
X491580Y450379D01*
X492090Y450591D01*
X492481Y450982D01*
X492570Y451040D01*
X492585Y451064D01*
X493395Y451375D01*
X494175Y451075D01*
X494221Y451040D01*
X494309Y450982D01*
X494700Y450591D01*
X495210Y450379D01*
X495299Y450320D01*
X495402Y450300D01*
X495913Y450088D01*
X496466D01*
X496570Y450067D01*
X496674Y450088D01*
X497227D01*
X497738Y450300D01*
X497841Y450320D01*
X497930Y450379D01*
X498440Y450591D01*
X498831Y450982D01*
X498919Y451040D01*
X499422Y451543D01*
X500142Y452621D01*
X500395Y453893D01*
Y456033D01*
X502561Y458199D01*
X503282Y459277D01*
X503535Y460549D01*
Y468573D01*
X503282Y469844D01*
X502561Y470922D01*
X490224Y483260D01*
X489146Y483980D01*
X487874Y484233D01*
X267143D01*
X266890Y485503D01*
X266998Y485548D01*
X267101Y485568D01*
X267190Y485627D01*
X267700Y485839D01*
X268091Y486230D01*
X268179Y486288D01*
X268238Y486377D01*
X268629Y486768D01*
X268841Y487279D01*
X268900Y487366D01*
X268920Y487470D01*
X269132Y487981D01*
Y488534D01*
X269153Y488638D01*
X269132Y488742D01*
Y489295D01*
X268920Y489806D01*
X268900Y489910D01*
X268841Y489998D01*
X268629Y490508D01*
X268238Y490899D01*
X268179Y490988D01*
X268091Y491046D01*
X267700Y491437D01*
X267190Y491649D01*
X267101Y491708D01*
X266998Y491728D01*
X266487Y491940D01*
X265934D01*
X265830Y491961D01*
X262162D01*
X260890Y491708D01*
X259812Y490988D01*
X256518Y487693D01*
X255380Y488351D01*
Y489958D01*
X255127Y491230D01*
X254407Y492308D01*
X253560Y493154D01*
X254086Y494424D01*
X270506D01*
X271975Y492955D01*
X273051Y492236D01*
X274320Y491984D01*
X335194D01*
X336463Y492236D01*
X337538Y492955D01*
X340425Y495841D01*
X341709Y495462D01*
X341765Y495386D01*
X341487Y493988D01*
X341783Y492501D01*
X342625Y491241D01*
X343885Y490399D01*
X345372Y490103D01*
X346858Y490399D01*
X348119Y491241D01*
X350833Y493955D01*
X439846D01*
X442820Y490982D01*
X444081Y490140D01*
X445567Y489844D01*
X447054Y490140D01*
X448314Y490982D01*
X449156Y492242D01*
X449452Y493728D01*
X449156Y495215D01*
X448314Y496475D01*
X447542Y497247D01*
X448028Y498420D01*
X511579D01*
X517465Y492535D01*
D02*
G37*
G36*
X99804Y461520D02*
X99835Y461189D01*
X99604Y460056D01*
X99572Y460013D01*
X97824Y458846D01*
X96420Y456745D01*
X95928Y454268D01*
X96420Y451790D01*
X97824Y449689D01*
X99924Y448286D01*
X102402Y447793D01*
X114209D01*
X118271Y443732D01*
X120371Y442328D01*
X122849Y441836D01*
X132495D01*
X132885Y441446D01*
X134255Y440530D01*
X134226Y439894D01*
X133995Y439176D01*
X132983Y438757D01*
X132054Y437828D01*
X131552Y436615D01*
Y435301D01*
X131658Y435044D01*
X130581Y434325D01*
X127325Y437582D01*
X127264Y437622D01*
X126850Y438036D01*
X126309Y438260D01*
X126249Y438301D01*
X126177Y438315D01*
X125637Y438539D01*
X125051D01*
X124980Y438553D01*
X124908Y438539D01*
X124323D01*
X123782Y438315D01*
X123711Y438301D01*
X123650Y438260D01*
X123109Y438036D01*
X122695Y437622D01*
X122635Y437582D01*
X122594Y437521D01*
X122181Y437107D01*
X121956Y436566D01*
X121916Y436506D01*
X121902Y436434D01*
X121678Y435894D01*
Y435308D01*
X121664Y435237D01*
X121678Y435165D01*
Y434580D01*
X121902Y434039D01*
X121916Y433968D01*
X121956Y433907D01*
X122181Y433366D01*
X122594Y432952D01*
X122635Y432892D01*
X130593Y424934D01*
X131669Y424215D01*
X132938Y423962D01*
X142451D01*
X143720Y424215D01*
X144796Y424934D01*
X147405Y427544D01*
X148331Y427360D01*
X149260Y426431D01*
X150473Y425928D01*
X151787D01*
X153000Y426431D01*
X153929Y427360D01*
X154432Y428573D01*
Y429887D01*
X153929Y431100D01*
X153000Y432029D01*
X152816Y432955D01*
X153475Y433613D01*
X153515Y433674D01*
X153929Y434087D01*
X155222Y433890D01*
X156720Y432393D01*
Y419101D01*
X157213Y416623D01*
X157430Y416298D01*
Y412750D01*
X157627Y411759D01*
X158009Y411187D01*
X157576Y409917D01*
X130424D01*
X100651Y439691D01*
X99575Y440410D01*
X98306Y440662D01*
X89808D01*
X85486Y444984D01*
Y447487D01*
X85957Y447802D01*
X87271D01*
X88484Y448305D01*
X89413Y449234D01*
X89916Y450447D01*
Y451761D01*
X89413Y452974D01*
X88484Y453903D01*
X87271Y454406D01*
X85957D01*
X85486Y454721D01*
Y463554D01*
X85894Y463863D01*
X86756Y464225D01*
X87722Y463825D01*
X89036D01*
X90250Y464327D01*
X91179Y465256D01*
X91681Y466470D01*
Y467783D01*
X91636Y467892D01*
X92713Y468611D01*
X99804Y461520D01*
D02*
G37*
G36*
X351323Y439081D02*
X351189Y438409D01*
X350261Y437480D01*
X349758Y436267D01*
Y434953D01*
X350261Y433740D01*
X351190Y432811D01*
X352403Y432308D01*
X353717D01*
X354930Y432811D01*
X355859Y433740D01*
X356531Y433873D01*
X371991Y418414D01*
X371505Y417240D01*
X268873D01*
X238560Y447553D01*
X239046Y448727D01*
X289576D01*
X290103Y447457D01*
X289626Y446980D01*
X289123Y445766D01*
Y444453D01*
X289626Y443239D01*
X289978Y442887D01*
X289626Y442535D01*
X289123Y441321D01*
Y440008D01*
X289626Y438794D01*
X290555Y437865D01*
X291768Y437363D01*
X293082D01*
X294296Y437865D01*
X295061Y438630D01*
X295825Y437865D01*
X297039Y437363D01*
X298353D01*
X299566Y437865D01*
X300331Y438630D01*
X301096Y437865D01*
X302309Y437363D01*
X303623D01*
X304837Y437865D01*
X305766Y438794D01*
X306268Y440008D01*
Y441321D01*
X305766Y442535D01*
X305414Y442887D01*
X305766Y443239D01*
X306268Y444453D01*
Y445766D01*
X305766Y446980D01*
X305289Y447457D01*
X305815Y448727D01*
X341678D01*
X351323Y439081D01*
D02*
G37*
G36*
X138524Y456330D02*
X214620D01*
X252730Y418220D01*
Y409917D01*
X179952D01*
X179062Y411187D01*
X179120Y411480D01*
Y419100D01*
X178923Y420091D01*
X178361Y420931D01*
X175821Y423471D01*
X174981Y424033D01*
X173990Y424230D01*
X169669D01*
Y435074D01*
X169176Y437552D01*
X167773Y439652D01*
X156824Y450602D01*
X154723Y452005D01*
X152245Y452498D01*
X140145D01*
X139435Y453208D01*
X137334Y454611D01*
X134857Y455104D01*
X133249Y454784D01*
X126246D01*
X125977Y455154D01*
X126623Y456424D01*
X138052D01*
X138524Y456330D01*
D02*
G37*
G36*
X176530Y419100D02*
Y411480D01*
X174967Y409917D01*
X162853D01*
X160020Y412750D01*
Y419100D01*
X162560Y421640D01*
X173990D01*
X176530Y419100D01*
D02*
G37*
G36*
X494524Y391056D02*
Y336550D01*
X488950D01*
Y336550D01*
X487680Y336084D01*
X424773Y398991D01*
X425259Y400164D01*
X485416D01*
X494524Y391056D01*
D02*
G37*
G36*
X467963Y328690D02*
X467477Y327517D01*
X364382D01*
X350469Y341429D01*
X349393Y342148D01*
X348124Y342400D01*
X242585D01*
X241316Y342148D01*
X240240Y341429D01*
X228795Y329984D01*
X227667Y329925D01*
X227314Y330143D01*
X227019Y330439D01*
X226478Y330663D01*
X226417Y330703D01*
X226346Y330717D01*
X225805Y330941D01*
X225220D01*
X225148Y330956D01*
X225077Y330941D01*
X224491D01*
X223951Y330717D01*
X223879Y330703D01*
X223819Y330663D01*
X223278Y330439D01*
X222864Y330025D01*
X222803Y329984D01*
X222763Y329924D01*
X222349Y329510D01*
X222125Y328969D01*
X222085Y328908D01*
X222070Y328837D01*
X221846Y328296D01*
Y327711D01*
X221832Y327639D01*
X221846Y327568D01*
Y326982D01*
X222070Y326442D01*
X222085Y326370D01*
X222125Y326310D01*
X222349Y325769D01*
X222763Y325355D01*
X222803Y325294D01*
X227863Y320235D01*
X228939Y319516D01*
X230208Y319264D01*
X232410D01*
X233679Y319516D01*
X234755Y320235D01*
X243493Y328973D01*
X244515Y328341D01*
X244587Y328271D01*
Y327711D01*
X244573Y327639D01*
X244587Y327568D01*
Y326982D01*
X244811Y326442D01*
X244825Y326370D01*
X244866Y326310D01*
X245090Y325769D01*
X245504Y325355D01*
X245544Y325294D01*
X245605Y325254D01*
X246019Y324840D01*
X246560Y324616D01*
X246620Y324576D01*
X246692Y324561D01*
X247232Y324337D01*
X247818D01*
X247889Y324323D01*
X257706D01*
X258770Y323260D01*
X258284Y322086D01*
X243840D01*
X242571Y321834D01*
X241495Y321115D01*
X227549Y307169D01*
X225294D01*
X224077Y307297D01*
Y322088D01*
X222021D01*
Y310548D01*
X221788Y310393D01*
X220778D01*
X219844Y310006D01*
X219130Y309292D01*
X218743Y308358D01*
Y307348D01*
X217788Y306393D01*
X216778D01*
X215844Y306006D01*
X215283Y305445D01*
X214722Y306006D01*
X213788Y306393D01*
X212778D01*
X211844Y306006D01*
X211130Y305292D01*
X210743Y304358D01*
Y303348D01*
X211130Y302414D01*
X211844Y301700D01*
X212778Y301313D01*
X213788D01*
X214722Y301700D01*
X215283Y302261D01*
X215844Y301700D01*
X216778Y301313D01*
X217788D01*
X218743Y300358D01*
Y299348D01*
X217788Y298393D01*
X216778D01*
X215844Y298006D01*
X215130Y297292D01*
X214743Y296358D01*
Y295348D01*
X215130Y294414D01*
X215844Y293700D01*
X216778Y293313D01*
X217788D01*
X218722Y293700D01*
X219283Y294261D01*
X219844Y293700D01*
X220778Y293313D01*
X221788D01*
X222722Y293700D01*
X223436Y294414D01*
X223823Y295348D01*
Y296358D01*
X223436Y297292D01*
X222875Y297853D01*
X223436Y298414D01*
X223823Y299348D01*
Y300358D01*
X223942Y300537D01*
X228923D01*
X230192Y300789D01*
X231268Y301508D01*
X243414Y313654D01*
X244866Y313310D01*
X245090Y312770D01*
X245848Y312013D01*
X245944Y311275D01*
X245848Y310538D01*
X245090Y309780D01*
X244587Y308567D01*
Y307253D01*
X245090Y306039D01*
X246019Y305110D01*
X247232Y304608D01*
X248546D01*
X249760Y305110D01*
X250689Y306039D01*
X251191Y307253D01*
Y308567D01*
X250689Y309780D01*
X249931Y310538D01*
X249834Y311275D01*
X249931Y312013D01*
X250689Y312770D01*
X251191Y313984D01*
Y315298D01*
X251296Y315454D01*
X297434D01*
Y312928D01*
X305562D01*
Y315454D01*
X323619D01*
X330614Y308459D01*
X331690Y307740D01*
X332959Y307488D01*
X347574D01*
X348060Y306315D01*
X347882Y306136D01*
X347208Y305686D01*
X347086Y305504D01*
X346992Y305494D01*
X346058Y305881D01*
X345048D01*
X344114Y305494D01*
X343553Y304933D01*
X342992Y305494D01*
X342058Y305881D01*
X341048D01*
X340114Y305494D01*
X339400Y304780D01*
X339013Y303846D01*
Y302836D01*
X339400Y301902D01*
X340114Y301188D01*
X341048Y300801D01*
X342058D01*
X342992Y301188D01*
X343553Y301749D01*
X344114Y301188D01*
X345048Y300801D01*
X346058D01*
X347013Y299846D01*
Y298836D01*
X346058Y297881D01*
X345048D01*
X344114Y297494D01*
X343400Y296780D01*
X343013Y295846D01*
Y294836D01*
X343400Y293902D01*
X344114Y293188D01*
X344781Y292912D01*
X344528Y291642D01*
X330184D01*
X329658Y292912D01*
X330012Y293266D01*
X330515Y294480D01*
Y295793D01*
X330012Y297007D01*
X329083Y297936D01*
X327870Y298438D01*
X326556D01*
X325342Y297936D01*
X324955Y297549D01*
X324513Y297992D01*
X323299Y298494D01*
X321985D01*
X320772Y297992D01*
X320357Y297577D01*
X319942Y297992D01*
X318728Y298494D01*
X317415D01*
X316201Y297992D01*
X315272Y297063D01*
X314770Y295849D01*
Y294536D01*
X315272Y293322D01*
X315683Y292912D01*
X315156Y291642D01*
X236580D01*
X236364Y291599D01*
X236144Y291605D01*
X235873Y291501D01*
X235588Y291445D01*
X235406Y291322D01*
X235200Y291244D01*
X234990Y291045D01*
X234748Y290883D01*
X234626Y290700D01*
X234467Y290549D01*
X233599Y289325D01*
X233481Y289060D01*
X233319Y288819D01*
X233277Y288603D01*
X233187Y288403D01*
X233179Y288112D01*
X233122Y287828D01*
Y287744D01*
X232019Y286862D01*
X231679Y286895D01*
X231566Y287008D01*
X231245Y287222D01*
X230945Y287466D01*
X230828Y287501D01*
X230726Y287569D01*
X230347Y287644D01*
X229977Y287755D01*
X229253Y287823D01*
X229011Y287798D01*
X228769Y287823D01*
X228046Y287755D01*
X227675Y287644D01*
X227296Y287569D01*
X227195Y287501D01*
X227077Y287466D01*
X226777Y287222D01*
X226456Y287008D01*
X226343Y286895D01*
X226004Y286862D01*
X224900Y287744D01*
Y287828D01*
X224844Y288112D01*
X224835Y288403D01*
X224746Y288603D01*
X224703Y288819D01*
X224542Y289060D01*
X224423Y289325D01*
X223556Y290549D01*
X223396Y290700D01*
X223274Y290883D01*
X223033Y291045D01*
X222822Y291244D01*
X222617Y291322D01*
X222434Y291445D01*
X222149Y291501D01*
X221878Y291605D01*
X221658Y291599D01*
X221443Y291642D01*
X213854D01*
X212862Y291445D01*
X212022Y290883D01*
X211124Y289985D01*
X209854Y290511D01*
Y295402D01*
X209657Y296393D01*
X209095Y297233D01*
X206301Y300027D01*
X205461Y300589D01*
X205048Y300671D01*
X204732Y302029D01*
X204858Y302126D01*
X206487Y304248D01*
X207511Y306720D01*
X207860Y309372D01*
X207511Y312024D01*
X206487Y314496D01*
X204858Y316618D01*
X202736Y318247D01*
X200264Y319270D01*
X197612Y319620D01*
X186363D01*
X173405Y332578D01*
X171282Y334206D01*
X168811Y335230D01*
X166159Y335579D01*
X166158Y335579D01*
X149257D01*
X148922Y336444D01*
X148884Y336849D01*
X149727Y337693D01*
X150230Y338906D01*
Y340220D01*
X149727Y341433D01*
X148798Y342362D01*
X148589Y342449D01*
Y343824D01*
X148798Y343911D01*
X149727Y344840D01*
X150230Y346053D01*
Y347367D01*
X149727Y348580D01*
X148798Y349509D01*
X147585Y350012D01*
X146271D01*
X145057Y349509D01*
X144678Y349130D01*
X144299Y349509D01*
X143085Y350012D01*
X141772D01*
X140558Y349509D01*
X139629Y348580D01*
X139127Y347367D01*
Y346053D01*
X139629Y344840D01*
X140558Y343911D01*
X140768Y343824D01*
Y342449D01*
X140558Y342362D01*
X139629Y341433D01*
X139127Y340220D01*
Y338906D01*
X139629Y337693D01*
X140473Y336849D01*
X140434Y336444D01*
X140099Y335579D01*
X139992D01*
X137339Y335230D01*
X134868Y334206D01*
X132746Y332578D01*
X132746Y332578D01*
X125342Y325174D01*
X123713Y323051D01*
X123204Y321823D01*
X121934Y322075D01*
Y374342D01*
X121682Y375611D01*
X120963Y376687D01*
X112821Y384829D01*
X113307Y386002D01*
X410651D01*
X467963Y328690D01*
D02*
G37*
G36*
X585774Y306156D02*
Y295193D01*
X584586Y293984D01*
X584052D01*
X583906Y294182D01*
X583892Y294253D01*
Y294839D01*
X583668Y295380D01*
X583654Y295451D01*
X583613Y295511D01*
X583389Y296052D01*
X582975Y296466D01*
X582935Y296527D01*
X582874Y296567D01*
X582460Y296981D01*
X581920Y297205D01*
X581859Y297246D01*
X581788Y297260D01*
X581247Y297484D01*
X580661D01*
X580590Y297498D01*
X580519Y297484D01*
X579933D01*
X579392Y297260D01*
X579321Y297246D01*
X579260Y297205D01*
X579046Y297116D01*
X563168D01*
X552281Y308003D01*
X552767Y309177D01*
X554802D01*
X560443Y303535D01*
X560504Y303495D01*
X560918Y303081D01*
X561458Y302857D01*
X561519Y302816D01*
X561590Y302802D01*
X562131Y302578D01*
X562717D01*
X562788Y302564D01*
X562859Y302578D01*
X563445D01*
X563986Y302802D01*
X564057Y302816D01*
X564118Y302857D01*
X564658Y303081D01*
X565072Y303495D01*
X565133Y303535D01*
X565173Y303596D01*
X565587Y304010D01*
X565811Y304550D01*
X565852Y304611D01*
X565866Y304682D01*
X566090Y305223D01*
Y305809D01*
X566104Y305880D01*
X566090Y305951D01*
Y306537D01*
X565866Y307078D01*
X565852Y307149D01*
X565811Y307210D01*
X565587Y307750D01*
X565173Y308164D01*
X565133Y308225D01*
X558520Y314838D01*
X557444Y315557D01*
X556175Y315809D01*
X529550D01*
X529450Y316171D01*
X529280Y317056D01*
X529340Y317097D01*
X529881Y317321D01*
X530295Y317735D01*
X530355Y317775D01*
X530396Y317836D01*
X530810Y318250D01*
X531034Y318790D01*
X531074Y318851D01*
X531088Y318922D01*
X531312Y319463D01*
Y320049D01*
X531327Y320120D01*
X531312Y320191D01*
Y320777D01*
X531088Y321318D01*
X531074Y321389D01*
X531034Y321450D01*
X530810Y321990D01*
X530396Y322404D01*
X530318Y322566D01*
X530255Y322736D01*
X530113Y323470D01*
X530341Y324010D01*
X530379Y324081D01*
X530396Y324106D01*
X530810Y324520D01*
X531034Y325060D01*
X531074Y325121D01*
X531088Y325192D01*
X531312Y325733D01*
Y326319D01*
X531327Y326390D01*
X532141Y327334D01*
X533796D01*
X533988Y327047D01*
Y325733D01*
X534491Y324520D01*
X535420Y323591D01*
X536633Y323088D01*
X537947D01*
X539160Y323591D01*
X540089Y324520D01*
X540592Y325733D01*
Y327047D01*
X540784Y327334D01*
X552817D01*
X574076Y306075D01*
Y305880D01*
X574090Y305809D01*
Y305223D01*
X574314Y304682D01*
X574328Y304611D01*
X574369Y304550D01*
X574593Y304010D01*
X575007Y303596D01*
X575047Y303535D01*
X575108Y303495D01*
X575522Y303081D01*
X576062Y302857D01*
X576123Y302816D01*
X576194Y302802D01*
X576735Y302578D01*
X577321D01*
X577392Y302564D01*
X577463Y302578D01*
X578049D01*
X578590Y302802D01*
X578661Y302816D01*
X578722Y302857D01*
X579262Y303081D01*
X579676Y303495D01*
X579737Y303535D01*
X579777Y303596D01*
X580191Y304010D01*
X580415Y304550D01*
X580456Y304611D01*
X580470Y304682D01*
X580694Y305223D01*
Y305809D01*
X580708Y305880D01*
Y307448D01*
X580456Y308717D01*
X579737Y309793D01*
X561236Y328294D01*
X561684Y329642D01*
X562213Y329717D01*
X585774Y306156D01*
D02*
G37*
G36*
X444592Y286928D02*
X444389Y285909D01*
X444685Y284422D01*
X445527Y283162D01*
X445609Y283079D01*
X445579Y281314D01*
X445474Y281209D01*
X444972Y279996D01*
Y278682D01*
X445474Y277469D01*
X446403Y276540D01*
X447617Y276037D01*
X448930D01*
X450144Y276540D01*
X451073Y277469D01*
X451196Y277493D01*
X474896Y253793D01*
X476156Y252951D01*
X477643Y252655D01*
X478865D01*
X486410Y245110D01*
Y224790D01*
X482600Y220980D01*
X387350D01*
X373380Y234950D01*
X221996D01*
X212778Y244168D01*
Y270584D01*
X212090Y271272D01*
Y287288D01*
X213854Y289052D01*
X221443D01*
X222310Y287828D01*
Y286514D01*
X222813Y285301D01*
X223742Y284372D01*
X224956Y283869D01*
X226269D01*
X227483Y284372D01*
X228288Y285176D01*
X229011Y285244D01*
X229735Y285176D01*
X230540Y284372D01*
X231753Y283869D01*
X233067D01*
X234280Y284372D01*
X235209Y285301D01*
X235712Y286514D01*
Y287828D01*
X236580Y289052D01*
X354095D01*
X354621Y287782D01*
X354187Y287348D01*
X353684Y286134D01*
Y284820D01*
X354187Y283607D01*
X355116Y282678D01*
X356329Y282175D01*
X357643D01*
X358857Y282678D01*
X359785Y283607D01*
X360288Y284820D01*
Y286134D01*
X359785Y287348D01*
X359351Y287782D01*
X359877Y289052D01*
X442468D01*
X444592Y286928D01*
D02*
G37*
G36*
X158134Y312692D02*
X166008Y304818D01*
X172630Y298196D01*
X204470Y298196D01*
X207264Y295402D01*
Y283972D01*
X203962Y280670D01*
X168058D01*
X144418Y304310D01*
Y311737D01*
X145372Y312692D01*
X158134Y312692D01*
D02*
G37*
G36*
X160528Y267462D02*
Y259842D01*
X159766Y259080D01*
X146812D01*
X138938Y266954D01*
Y274828D01*
X141986Y277876D01*
X144526D01*
X145288Y278638D01*
X149352D01*
X160528Y267462D01*
D02*
G37*
G36*
X557969Y246514D02*
X559229Y245672D01*
X560715Y245376D01*
X574296D01*
X575783Y245672D01*
X577043Y246514D01*
X577885Y247774D01*
X578181Y249261D01*
X577885Y250748D01*
X577043Y252008D01*
X575783Y252850D01*
X574296Y253146D01*
X562324D01*
X556677Y258793D01*
X557163Y259967D01*
X609039D01*
X609525Y258793D01*
X597859Y247127D01*
X597140Y246051D01*
X596887Y244782D01*
Y228719D01*
X577605Y209436D01*
X576842Y209588D01*
X575913Y210517D01*
X574700Y211019D01*
X573386D01*
X572172Y210517D01*
X571243Y209588D01*
X570741Y208374D01*
Y207061D01*
X571243Y205847D01*
X572172Y204918D01*
X572324Y204156D01*
X570255Y202087D01*
X532784D01*
X532034Y203357D01*
X532282Y203955D01*
Y205269D01*
X531779Y206482D01*
X531387Y206875D01*
X531779Y207268D01*
X532282Y208481D01*
Y209795D01*
X531779Y211008D01*
X530850Y211937D01*
X529637Y212440D01*
X528323D01*
X527110Y211937D01*
X526181Y211008D01*
X525678Y209795D01*
Y208481D01*
X526181Y207268D01*
X526573Y206875D01*
X526181Y206482D01*
X525678Y205269D01*
Y203955D01*
X525926Y203357D01*
X525176Y202087D01*
X522080D01*
X521546Y202886D01*
Y204199D01*
X521043Y205413D01*
X520961Y205495D01*
X520955Y207264D01*
X520959Y207268D01*
X521462Y208481D01*
Y209795D01*
X520959Y211008D01*
X520030Y211937D01*
X518817Y212440D01*
X517503D01*
X516290Y211937D01*
X515361Y211008D01*
X514858Y209795D01*
Y208481D01*
X515361Y207268D01*
X515443Y207185D01*
X515449Y205417D01*
X515445Y205413D01*
X514942Y204199D01*
Y202886D01*
X515445Y201672D01*
X516373Y200743D01*
X516537Y199922D01*
X495241Y178626D01*
X494522Y177550D01*
X494270Y176281D01*
Y129390D01*
X481474Y116594D01*
X410888D01*
X410402Y117767D01*
X412001Y119366D01*
X432816D01*
X434085Y119618D01*
X435161Y120337D01*
X438209Y123385D01*
X438928Y124461D01*
X439180Y125730D01*
Y169817D01*
X440450Y170417D01*
X441303Y170064D01*
X442617D01*
X442672Y170027D01*
Y157480D01*
Y152654D01*
X442869Y151663D01*
X443431Y150823D01*
X446225Y148029D01*
X447065Y147467D01*
X448056Y147270D01*
X458470D01*
X459461Y147467D01*
X460301Y148029D01*
X462079Y149807D01*
X462641Y150647D01*
X462838Y151638D01*
Y175006D01*
X462641Y175997D01*
X462079Y176837D01*
X461571Y177345D01*
X460731Y177907D01*
X459740Y178104D01*
X456053D01*
X455676Y178667D01*
Y179981D01*
X455173Y181194D01*
X454244Y182123D01*
X453031Y182626D01*
X451717D01*
X450504Y182123D01*
X449575Y181194D01*
X449072Y179981D01*
Y178667D01*
X448695Y178104D01*
X446278D01*
X446185Y178085D01*
X445332Y178980D01*
X445262Y179175D01*
Y180489D01*
X444759Y181702D01*
X444108Y182354D01*
X444089Y182650D01*
X444260Y183493D01*
X444383Y183738D01*
X444572Y183817D01*
X444643Y183831D01*
X444704Y183871D01*
X445245Y184095D01*
X445659Y184509D01*
X445719Y184550D01*
X445760Y184610D01*
X446174Y185024D01*
X446398Y185565D01*
X446438Y185625D01*
X446452Y185697D01*
X446676Y186238D01*
Y186823D01*
X446690Y186894D01*
X446676Y186966D01*
Y187551D01*
X446452Y188092D01*
X446438Y188164D01*
X446398Y188224D01*
X446174Y188765D01*
X445760Y189179D01*
X445719Y189239D01*
X445659Y189280D01*
X445245Y189694D01*
X444704Y189918D01*
X444643Y189958D01*
X444572Y189972D01*
X444031Y190196D01*
X443446D01*
X443374Y190211D01*
X442375D01*
X441106Y189958D01*
X440031Y189239D01*
X433519Y182728D01*
X432910Y181816D01*
X432050Y181604D01*
X431488Y181567D01*
X430994Y182061D01*
X429781Y182564D01*
X428467D01*
X427253Y182061D01*
X426325Y181133D01*
X425822Y179919D01*
Y178605D01*
X426325Y177392D01*
X427253Y176463D01*
X428467Y175960D01*
X429781D01*
X430994Y176463D01*
X431278Y176746D01*
X432548Y176220D01*
Y127104D01*
X431442Y125998D01*
X410627D01*
X409358Y125746D01*
X408282Y125027D01*
X404204Y120948D01*
X404163Y120888D01*
X403749Y120474D01*
X403525Y119933D01*
X403485Y119873D01*
X403471Y119801D01*
X403246Y119260D01*
Y118675D01*
X403232Y118604D01*
X403246Y118532D01*
Y117947D01*
X403281Y117864D01*
X402724Y116789D01*
X402582Y116687D01*
X402432Y116594D01*
X369934D01*
X361456Y125072D01*
Y151130D01*
X361204Y152399D01*
X360485Y153475D01*
X355215Y158745D01*
X354139Y159464D01*
X353189Y159653D01*
X353060Y159895D01*
Y160905D01*
X352673Y161839D01*
X351959Y162553D01*
X351025Y162940D01*
X350015D01*
X349081Y162553D01*
X348367Y161839D01*
X347980Y160905D01*
Y159895D01*
X347025Y158940D01*
X346015D01*
X345081Y158553D01*
X344520Y157992D01*
X343959Y158553D01*
X343025Y158940D01*
X342015D01*
X341081Y158553D01*
X340686Y158158D01*
X339899Y157934D01*
X339099Y158097D01*
X337111Y160085D01*
Y166783D01*
X336859Y168052D01*
X336140Y169128D01*
X329867Y175401D01*
X328792Y176119D01*
X327523Y176372D01*
X295119D01*
X294634Y177545D01*
X298065Y180976D01*
X335500D01*
X359151Y157326D01*
X359211Y157286D01*
X359625Y156872D01*
X360166Y156648D01*
X360227Y156607D01*
X360298Y156593D01*
X360839Y156369D01*
X361424D01*
X361496Y156355D01*
X361567Y156369D01*
X362152D01*
X362693Y156593D01*
X362765Y156607D01*
X362825Y156648D01*
X363366Y156872D01*
X363780Y157286D01*
X363840Y157326D01*
X363881Y157387D01*
X364295Y157801D01*
X364519Y158342D01*
X364559Y158402D01*
X364574Y158473D01*
X364798Y159014D01*
Y159600D01*
X364812Y159671D01*
X364798Y159742D01*
Y160328D01*
X364574Y160869D01*
X364559Y160940D01*
X364519Y161001D01*
X364295Y161541D01*
X363881Y161955D01*
X363840Y162016D01*
X360728Y165129D01*
X360716Y166499D01*
X361130Y166913D01*
X361190Y166953D01*
X361231Y167013D01*
X361645Y167428D01*
X361869Y167968D01*
X361909Y168029D01*
X361923Y168100D01*
X362147Y168641D01*
Y169226D01*
X362162Y169298D01*
X362147Y169369D01*
Y169955D01*
X361923Y170496D01*
X361909Y170567D01*
X361869Y170627D01*
X361645Y171168D01*
X361231Y171582D01*
X361190Y171643D01*
X347442Y185391D01*
X347928Y186564D01*
X354211D01*
X366744Y174031D01*
X367820Y173312D01*
X368346Y173208D01*
X368669Y173074D01*
X369018D01*
X369089Y173060D01*
X369325D01*
X369397Y173074D01*
X369982D01*
X370523Y173298D01*
X370594Y173312D01*
X370655Y173353D01*
X371196Y173577D01*
X371610Y173991D01*
X371670Y174031D01*
X371711Y174092D01*
X372125Y174506D01*
X372274Y174866D01*
X372349Y175047D01*
X372387Y175092D01*
X372438Y175154D01*
X372554Y175265D01*
X372813Y175238D01*
X373824Y174641D01*
Y174532D01*
X374327Y173318D01*
X375256Y172389D01*
X376470Y171887D01*
X377783D01*
X378997Y172389D01*
X379926Y173318D01*
X380428Y174532D01*
Y175846D01*
X379926Y177059D01*
X378997Y177988D01*
X377783Y178491D01*
X376470D01*
X375256Y177988D01*
X374327Y177059D01*
X374298Y176989D01*
X372912Y176383D01*
X372774Y176393D01*
X372627Y176750D01*
X372627Y176448D01*
X372679Y176399D01*
X372627Y176448D01*
X372627Y177033D01*
X372403Y177574D01*
X372389Y177645D01*
X372349Y177706D01*
X372125Y178247D01*
X371711Y178661D01*
X371670Y178721D01*
X371610Y178762D01*
X371196Y179175D01*
X370827Y179328D01*
X357930Y192225D01*
X356854Y192944D01*
X355585Y193197D01*
X292542D01*
X291273Y192944D01*
X290198Y192225D01*
X284265Y186293D01*
X255168D01*
X253899Y186041D01*
X252823Y185322D01*
X244274Y176774D01*
X244234Y176713D01*
X243820Y176299D01*
X243596Y175758D01*
X243556Y175698D01*
X243541Y175627D01*
X243317Y175086D01*
Y174500D01*
X243303Y174429D01*
X243310Y174392D01*
X243317Y174349D01*
Y173772D01*
X242212Y173122D01*
X231935D01*
X231500Y173772D01*
Y175086D01*
X230998Y176299D01*
X230603Y176694D01*
X230209Y177524D01*
X230603Y178354D01*
X230998Y178748D01*
X231500Y179962D01*
Y181276D01*
X230998Y182489D01*
X230069Y183418D01*
X228855Y183921D01*
X227542D01*
X226328Y183418D01*
X225399Y182489D01*
X224896Y181276D01*
Y179962D01*
X225399Y178748D01*
X225794Y178354D01*
X226188Y177524D01*
X225794Y176694D01*
X225399Y176299D01*
X224896Y175086D01*
Y173772D01*
X225399Y172558D01*
X226328Y171630D01*
X226607Y170139D01*
X225854Y169386D01*
X225813Y169326D01*
X225399Y168911D01*
X225175Y168371D01*
X225135Y168310D01*
X225121Y168239D01*
X224896Y167698D01*
Y167113D01*
X224882Y167041D01*
X224896Y166970D01*
Y166384D01*
X225121Y165844D01*
X225135Y165772D01*
X225175Y165711D01*
X225399Y165171D01*
X225813Y164757D01*
X225854Y164696D01*
X225914Y164656D01*
X226328Y164242D01*
X226869Y164018D01*
X226929Y163977D01*
X227001Y163963D01*
X227542Y163739D01*
X227666D01*
X228218Y162559D01*
X228215Y162492D01*
X225854Y160131D01*
X225193Y159744D01*
X224236Y160152D01*
X223932Y160355D01*
X223726Y160396D01*
X222553Y160786D01*
Y161796D01*
X222166Y162730D01*
X221452Y163444D01*
X220518Y163831D01*
X219508D01*
X218574Y163444D01*
X217860Y162730D01*
X217473Y161796D01*
Y160786D01*
X216518Y159831D01*
X215508D01*
X214574Y159444D01*
X214013Y158883D01*
X213452Y159444D01*
X212518Y159831D01*
X211508D01*
X210815Y159544D01*
X210178Y159610D01*
X209750Y160274D01*
X210138Y161510D01*
X210141Y161511D01*
X211411Y162289D01*
X211635Y162497D01*
X211889Y162666D01*
X212003Y162836D01*
X212153Y162975D01*
X212281Y163253D01*
X212451Y163507D01*
X212491Y163707D01*
X212576Y163893D01*
X212588Y164198D01*
X212648Y164498D01*
Y238840D01*
X213060Y239153D01*
X213862Y239422D01*
X220165Y233119D01*
X221005Y232557D01*
X221996Y232360D01*
X372307D01*
X385519Y219149D01*
X386359Y218587D01*
X387350Y218390D01*
X482600D01*
X483591Y218587D01*
X484431Y219149D01*
X488053Y222770D01*
X488083Y222758D01*
X489396D01*
X490610Y223261D01*
X491539Y224190D01*
X492042Y225403D01*
Y226717D01*
X491539Y227930D01*
X490610Y228859D01*
X489396Y229362D01*
X489000D01*
Y245110D01*
X488803Y246101D01*
X488241Y246941D01*
X483700Y251482D01*
X484187Y252655D01*
X518651D01*
X520138Y252951D01*
X521398Y253793D01*
X524589Y256984D01*
X525626Y256328D01*
X525678Y256277D01*
Y254981D01*
X526181Y253768D01*
X527110Y252839D01*
X528323Y252336D01*
X529637D01*
X530850Y252839D01*
X531779Y253768D01*
X532282Y254981D01*
Y256295D01*
X531779Y257508D01*
X530850Y258437D01*
X529637Y258940D01*
X529274D01*
X528559Y260210D01*
X528786Y260584D01*
X543899D01*
X557969Y246514D01*
D02*
G37*
G36*
X616532Y217697D02*
Y203810D01*
X595650Y182928D01*
X581763D01*
X581278Y184102D01*
X615359Y218183D01*
X616532Y217697D01*
D02*
G37*
G36*
X549698Y191487D02*
X533989Y175778D01*
X532743Y176026D01*
X532695Y176142D01*
X531766Y177071D01*
X530553Y177573D01*
X529239D01*
X528025Y177071D01*
X527096Y176142D01*
X526594Y174928D01*
Y173615D01*
X527096Y172401D01*
X527956Y171542D01*
X528184Y171209D01*
X528389Y170178D01*
X513281Y155070D01*
X512562Y153994D01*
X512309Y152725D01*
Y100558D01*
X511302Y99785D01*
X510723Y99940D01*
X507817D01*
X505009Y99188D01*
X502491Y97734D01*
X500436Y95679D01*
X498982Y93161D01*
X498230Y90353D01*
Y87447D01*
X498982Y84639D01*
X500045Y82798D01*
X499312Y81528D01*
X495932D01*
X493668Y83791D01*
X494158Y84639D01*
X494910Y87447D01*
Y90353D01*
X494158Y93161D01*
X492704Y95679D01*
X490649Y97734D01*
X488131Y99188D01*
X485323Y99940D01*
X482417D01*
X479609Y99188D01*
X477091Y97734D01*
X475036Y95679D01*
X473582Y93161D01*
X472830Y90353D01*
Y87447D01*
X473582Y84639D01*
X475036Y82121D01*
X477091Y80066D01*
X479609Y78612D01*
X482417Y77860D01*
X485323D01*
X488131Y78612D01*
X488979Y79102D01*
X491880Y76200D01*
X488979Y73298D01*
X488131Y73788D01*
X485323Y74540D01*
X482417D01*
X479609Y73788D01*
X477091Y72334D01*
X475036Y70279D01*
X473582Y67761D01*
X472830Y64953D01*
Y62047D01*
X473582Y59239D01*
X475036Y56721D01*
X476450Y55307D01*
X475924Y54037D01*
X466416D01*
X465890Y55307D01*
X467304Y56721D01*
X468758Y59239D01*
X469510Y62047D01*
Y64953D01*
X468758Y67761D01*
X467304Y70279D01*
X465249Y72334D01*
X462731Y73788D01*
X459923Y74540D01*
X457017D01*
X454209Y73788D01*
X451691Y72334D01*
X449636Y70279D01*
X448182Y67761D01*
X447430Y64953D01*
Y62047D01*
X448182Y59239D01*
X449636Y56721D01*
X451050Y55307D01*
X450524Y54037D01*
X441016D01*
X440490Y55307D01*
X441904Y56721D01*
X443358Y59239D01*
X444110Y62047D01*
Y64953D01*
X443358Y67761D01*
X442169Y69820D01*
X442775Y71090D01*
X443976D01*
X445245Y71342D01*
X446321Y72061D01*
X453361Y79102D01*
X454209Y78612D01*
X457017Y77860D01*
X459923D01*
X462731Y78612D01*
X465249Y80066D01*
X467304Y82121D01*
X468758Y84639D01*
X469510Y87447D01*
Y90353D01*
X468758Y93161D01*
X467304Y95679D01*
X465249Y97734D01*
X462731Y99188D01*
X459923Y99940D01*
X457017D01*
X454209Y99188D01*
X451691Y97734D01*
X449636Y95679D01*
X448182Y93161D01*
X447430Y90353D01*
Y87447D01*
X448182Y84639D01*
X448672Y83791D01*
X442602Y77722D01*
X438330D01*
X437989Y78992D01*
X439849Y80066D01*
X441904Y82121D01*
X443358Y84639D01*
X444110Y87447D01*
Y90353D01*
X443358Y93161D01*
X441904Y95679D01*
X439849Y97734D01*
X437331Y99188D01*
X434523Y99940D01*
X431617D01*
X428809Y99188D01*
X428711Y99131D01*
X425960Y101882D01*
X424884Y102601D01*
X423615Y102853D01*
X307563D01*
X306294Y102601D01*
X305218Y101882D01*
X286977Y83640D01*
X258139D01*
X257730Y84843D01*
X257867Y84948D01*
X304707Y131788D01*
X326564D01*
X329216Y132137D01*
X331688Y133161D01*
X332603Y133863D01*
X333742Y133301D01*
Y115824D01*
X333994Y114555D01*
X334713Y113479D01*
X341063Y107129D01*
X342139Y106410D01*
X343408Y106158D01*
X483967D01*
X485236Y106410D01*
X486312Y107129D01*
X502725Y123542D01*
X503444Y124618D01*
X503696Y125887D01*
Y173378D01*
X510747Y180429D01*
X511023Y180375D01*
X511952Y179446D01*
X513166Y178943D01*
X514479D01*
X515693Y179446D01*
X516622Y180375D01*
X517125Y181588D01*
Y182902D01*
X516622Y184115D01*
X515693Y185044D01*
X515638Y185320D01*
X522978Y192660D01*
X549212D01*
X549698Y191487D01*
D02*
G37*
G36*
X210058Y239014D02*
Y164498D01*
X208788Y163719D01*
X208518Y163831D01*
X207508D01*
X206574Y163444D01*
X205860Y162730D01*
X205473Y161796D01*
Y160786D01*
X205860Y159852D01*
X206574Y159138D01*
X206964Y158976D01*
X207347Y157629D01*
X207336Y157552D01*
X204978Y155194D01*
X181610D01*
X177800Y159004D01*
Y214884D01*
X166370Y226314D01*
X144018D01*
X141224Y229108D01*
Y252222D01*
X143002Y254000D01*
X195072D01*
X210058Y239014D01*
D02*
G37*
G36*
X175210Y213811D02*
Y159940D01*
X173940Y159414D01*
X160832Y172523D01*
Y219964D01*
X160635Y220955D01*
X160073Y221795D01*
X159318Y222551D01*
X159804Y223724D01*
X165297D01*
X175210Y213811D01*
D02*
G37*
G36*
X330479Y162078D02*
Y158711D01*
X330487Y158669D01*
Y154450D01*
X316517D01*
X312707Y158260D01*
Y162070D01*
X315247Y164610D01*
X327947D01*
X330479Y162078D01*
D02*
G37*
G36*
X460248Y175006D02*
Y151638D01*
X458470Y149860D01*
X448056D01*
X445262Y152654D01*
Y157480D01*
Y174498D01*
X446278Y175514D01*
X459740D01*
X460248Y175006D01*
D02*
G37*
G36*
X287196Y168469D02*
X239329Y120602D01*
X215489D01*
X215315Y120862D01*
Y122176D01*
X214812Y123389D01*
X214055Y124147D01*
X213958Y124884D01*
X214055Y125622D01*
X214812Y126379D01*
X215315Y127593D01*
Y128907D01*
X214812Y130120D01*
X214055Y130878D01*
X213958Y131615D01*
X214055Y132353D01*
X214812Y133110D01*
X215315Y134324D01*
Y135638D01*
X214812Y136851D01*
X213883Y137780D01*
X212670Y138283D01*
X211356D01*
X210142Y137780D01*
X209214Y136851D01*
X208711Y135638D01*
Y134324D01*
X209214Y133110D01*
X209971Y132353D01*
X210068Y131615D01*
X209971Y130878D01*
X209214Y130120D01*
X208711Y128907D01*
Y127593D01*
X209214Y126379D01*
X209971Y125622D01*
X210068Y124884D01*
X209971Y124147D01*
X209214Y123389D01*
X208711Y122176D01*
Y120862D01*
X208650Y120771D01*
X208546D01*
X207314Y122016D01*
Y122176D01*
X206811Y123389D01*
X206054Y124147D01*
X205957Y124884D01*
X206054Y125622D01*
X206811Y126379D01*
X207314Y127593D01*
Y128907D01*
X206811Y130120D01*
X206054Y130878D01*
X205957Y131615D01*
X206054Y132353D01*
X206811Y133110D01*
X207314Y134324D01*
Y135638D01*
X206811Y136851D01*
X206047Y137615D01*
X206809Y138377D01*
X207371Y139217D01*
X207568Y140208D01*
Y151892D01*
X207371Y152883D01*
X206954Y153507D01*
X208750Y155303D01*
X209422Y155636D01*
X210390Y155310D01*
X210424Y155288D01*
X210574Y155138D01*
X211508Y154751D01*
X212518D01*
X213452Y155138D01*
X214013Y155699D01*
X214574Y155138D01*
X215508Y154751D01*
X216518D01*
X217473Y153796D01*
Y152786D01*
X216518Y151831D01*
X215508D01*
X214574Y151444D01*
X213860Y150730D01*
X213473Y149796D01*
Y148786D01*
X213860Y147852D01*
X214574Y147138D01*
X215508Y146751D01*
X216518D01*
X217452Y147138D01*
X218013Y147699D01*
X218574Y147138D01*
X219508Y146751D01*
X220518D01*
X221452Y147138D01*
X222166Y147852D01*
X222553Y148786D01*
Y149796D01*
X222200Y150649D01*
X222244Y150901D01*
X222402Y151248D01*
X223810Y151455D01*
X224186Y151078D01*
X225262Y150359D01*
X226531Y150107D01*
X234642D01*
X235491Y148837D01*
X235316Y148416D01*
Y147102D01*
X235819Y145888D01*
X236748Y144960D01*
X237962Y144457D01*
X239275D01*
X240489Y144960D01*
X241418Y145888D01*
X241920Y147102D01*
Y148416D01*
X242515Y148723D01*
X243317Y147731D01*
Y147102D01*
X243820Y145888D01*
X244749Y144960D01*
X245963Y144457D01*
X247276D01*
X248490Y144960D01*
X249419Y145888D01*
X249921Y147102D01*
Y148416D01*
X249419Y149629D01*
X248490Y150558D01*
X248306Y150634D01*
X248008Y152132D01*
X265615Y169739D01*
X286712D01*
X287196Y168469D01*
D02*
G37*
G36*
X332792Y147662D02*
Y143852D01*
X328982Y140042D01*
X315012D01*
Y147662D01*
X317552Y150202D01*
X330252D01*
X332792Y147662D01*
D02*
G37*
G36*
X158242Y219964D02*
Y171450D01*
X177038Y152654D01*
X181360D01*
X181610Y152604D01*
X204266D01*
X204978Y151892D01*
Y140208D01*
X202839Y138069D01*
X202141Y137780D01*
X201213Y136851D01*
X200924Y136154D01*
X197104Y132334D01*
X147828D01*
X134874Y145288D01*
Y218186D01*
X139192Y222504D01*
X155702D01*
X158242Y219964D01*
D02*
G37*
G36*
X142240Y116840D02*
Y106680D01*
X139700Y104140D01*
X129540D01*
X127000Y106680D01*
Y116840D01*
X129540Y119380D01*
X139700D01*
X142240Y116840D01*
D02*
G37*
G36*
X164164Y116412D02*
X164164Y105236D01*
X162306Y103378D01*
X154337D01*
X148924Y108792D01*
Y116240D01*
X151635Y118952D01*
X161624D01*
X164164Y116412D01*
D02*
G37*
G36*
X398415Y94951D02*
X397382Y93161D01*
X396630Y90353D01*
Y87447D01*
X397382Y84639D01*
X397872Y83791D01*
X394750Y80670D01*
X369981D01*
X369728Y81940D01*
X370575Y82291D01*
X371504Y83220D01*
X372007Y84433D01*
Y85747D01*
X371504Y86960D01*
X370575Y87889D01*
X369361Y88392D01*
X368048D01*
X366834Y87889D01*
X365905Y86960D01*
X365403Y85747D01*
Y84433D01*
X365905Y83220D01*
X366834Y82291D01*
X367681Y81940D01*
X367428Y80670D01*
X295045D01*
X294559Y81843D01*
X308937Y96221D01*
X312592D01*
X313227Y95272D01*
Y93958D01*
X313729Y92745D01*
X314658Y91816D01*
X315872Y91313D01*
X317185D01*
X318399Y91816D01*
X319328Y92745D01*
X319830Y93958D01*
Y95272D01*
X320465Y96221D01*
X397682D01*
X398415Y94951D01*
D02*
G37*
G36*
X106666Y370736D02*
Y100090D01*
X106918Y98821D01*
X107637Y97745D01*
X133321Y72061D01*
X134397Y71342D01*
X135666Y71090D01*
X396630D01*
Y54037D01*
X94368D01*
X94116Y55307D01*
X95367Y55825D01*
X99058Y58292D01*
X102198Y61432D01*
X104665Y65123D01*
X106364Y69225D01*
X107230Y73580D01*
Y78020D01*
X106364Y82375D01*
X104665Y86477D01*
X102198Y90168D01*
X99058Y93308D01*
X95367Y95775D01*
X91265Y97474D01*
X86910Y98340D01*
X82470D01*
X78115Y97474D01*
X74013Y95775D01*
X70322Y93308D01*
X67182Y90168D01*
X64715Y86477D01*
X64197Y85226D01*
X62927Y85478D01*
Y412816D01*
X64100Y413302D01*
X106666Y370736D01*
D02*
G37*
%LPC*%
G36*
X313710Y633400D02*
X311742Y633140D01*
X309908Y632381D01*
X308333Y631172D01*
X307124Y629597D01*
X306364Y627763D01*
X306105Y625794D01*
Y617794D01*
X306364Y615826D01*
X307124Y613992D01*
X308333Y612417D01*
X309908Y611208D01*
X311742Y610449D01*
X313710Y610190D01*
X315679Y610449D01*
X317513Y611208D01*
X319088Y612417D01*
X320297Y613992D01*
X321056Y615826D01*
X321315Y617794D01*
Y625794D01*
X321056Y627763D01*
X320297Y629597D01*
X319088Y631172D01*
X317513Y632381D01*
X315679Y633140D01*
X313710Y633400D01*
D02*
G37*
G36*
X227310D02*
X225341Y633140D01*
X223507Y632381D01*
X221932Y631172D01*
X220723Y629597D01*
X219964Y627763D01*
X219705Y625794D01*
Y617794D01*
X219964Y615826D01*
X220723Y613992D01*
X221932Y612417D01*
X223507Y611208D01*
X225341Y610449D01*
X227310Y610190D01*
X229278Y610449D01*
X231112Y611208D01*
X232687Y612417D01*
X233896Y613992D01*
X234656Y615826D01*
X234915Y617794D01*
Y625794D01*
X234656Y627763D01*
X233896Y629597D01*
X232687Y631172D01*
X231112Y632381D01*
X229278Y633140D01*
X227310Y633400D01*
D02*
G37*
G36*
X313710Y593401D02*
X311742Y593142D01*
X309908Y592382D01*
X308333Y591174D01*
X307124Y589599D01*
X306364Y587764D01*
X306317Y587406D01*
X305031Y587364D01*
X304984Y587598D01*
X303676Y589556D01*
X301719Y590864D01*
X299410Y591323D01*
X297101Y590864D01*
X295144Y589556D01*
X293836Y587598D01*
X293377Y585290D01*
X293836Y582981D01*
X295144Y581023D01*
X297101Y579716D01*
X299410Y579256D01*
X301719Y579716D01*
X303676Y581023D01*
X304835Y582758D01*
X305893Y582629D01*
X306105Y582547D01*
Y574796D01*
X306364Y572828D01*
X307124Y570993D01*
X308333Y569418D01*
X309908Y568210D01*
X311742Y567450D01*
X313710Y567191D01*
X315679Y567450D01*
X317513Y568210D01*
X319088Y569418D01*
X320297Y570993D01*
X321056Y572828D01*
X321315Y574796D01*
Y585796D01*
X321056Y587764D01*
X320297Y589599D01*
X319088Y591174D01*
X317513Y592382D01*
X315679Y593142D01*
X313710Y593401D01*
D02*
G37*
G36*
X269281Y586920D02*
X269177Y586899D01*
X268624D01*
X268113Y586688D01*
X268009Y586667D01*
X267921Y586608D01*
X267410Y586397D01*
X267019Y586006D01*
X266931Y585947D01*
X266498Y585514D01*
X265359Y585947D01*
X265313Y585977D01*
X265238Y586038D01*
X264880Y586397D01*
X264369Y586608D01*
X264281Y586667D01*
X264177Y586688D01*
X263666Y586899D01*
X263113D01*
X263009Y586920D01*
X262906Y586899D01*
X262353D01*
X261842Y586688D01*
X261738Y586667D01*
X261650Y586608D01*
X261139Y586397D01*
X260748Y586006D01*
X260660Y585947D01*
X260601Y585859D01*
X260210Y585468D01*
X259998Y584957D01*
X259940Y584869D01*
X259919Y584765D01*
X259707Y584254D01*
Y583701D01*
X259687Y583597D01*
X259707Y583494D01*
Y582941D01*
X259919Y582430D01*
X259940Y582326D01*
X259998Y582238D01*
X260210Y581727D01*
X260601Y581336D01*
X260660Y581248D01*
X261178Y580730D01*
Y574341D01*
X261431Y573070D01*
X262151Y571992D01*
X264992Y569151D01*
X266070Y568430D01*
X267342Y568177D01*
X268007D01*
X268166Y568039D01*
X268751Y566907D01*
X268728Y566853D01*
X268670Y566765D01*
X268649Y566661D01*
X268437Y566150D01*
Y565597D01*
X268417Y565493D01*
X268437Y565390D01*
Y564837D01*
X268649Y564326D01*
X268670Y564222D01*
X268728Y564134D01*
X268940Y563623D01*
X269331Y563232D01*
X269390Y563144D01*
X269478Y563085D01*
X269869Y562694D01*
X270380Y562482D01*
X270468Y562424D01*
X270572Y562403D01*
X271082Y562191D01*
X271636D01*
X271739Y562171D01*
X271843Y562191D01*
X272396D01*
X272907Y562403D01*
X273011Y562424D01*
X273099Y562482D01*
X273610Y562694D01*
X273968Y563053D01*
X274044Y563114D01*
X274089Y563144D01*
X274123Y563178D01*
X274267Y563295D01*
X275510D01*
X275661Y563144D01*
X275749Y563085D01*
X276140Y562694D01*
X276651Y562482D01*
X276739Y562424D01*
X276843Y562403D01*
X277354Y562191D01*
X277907D01*
X278011Y562171D01*
X278114Y562191D01*
X278667D01*
X279178Y562403D01*
X279282Y562424D01*
X279370Y562482D01*
X279881Y562694D01*
X280272Y563085D01*
X280360Y563144D01*
X280419Y563232D01*
X280810Y563623D01*
X281021Y564134D01*
X281080Y564222D01*
X281101Y564326D01*
X281313Y564837D01*
Y565390D01*
X281333Y565493D01*
X281313Y565597D01*
Y566150D01*
X281101Y566661D01*
X281080Y566765D01*
X281021Y566853D01*
X280810Y567364D01*
X280419Y567755D01*
X280360Y567843D01*
X279827Y568376D01*
Y572197D01*
X279574Y573468D01*
X278854Y574546D01*
X276081Y577319D01*
X275003Y578039D01*
X273732Y578292D01*
X271293D01*
Y580911D01*
X271630Y581248D01*
X271689Y581336D01*
X272080Y581727D01*
X272292Y582238D01*
X272350Y582326D01*
X272371Y582430D01*
X272583Y582941D01*
Y583494D01*
X272603Y583597D01*
X272583Y583701D01*
Y584254D01*
X272371Y584765D01*
X272350Y584869D01*
X272292Y584957D01*
X272080Y585468D01*
X271689Y585859D01*
X271630Y585947D01*
X271542Y586006D01*
X271151Y586397D01*
X270640Y586608D01*
X270552Y586667D01*
X270448Y586688D01*
X269937Y586899D01*
X269384D01*
X269281Y586920D01*
D02*
G37*
G36*
X535234Y618779D02*
X532196D01*
X529261Y617992D01*
X526629Y616473D01*
X524481Y614324D01*
X522962Y611693D01*
X522175Y608758D01*
Y605719D01*
X522962Y602784D01*
X524481Y600153D01*
X526629Y598004D01*
X528542Y596900D01*
X528202Y595630D01*
X527975D01*
X527041Y595243D01*
X526327Y594529D01*
X525940Y593595D01*
Y592585D01*
X526327Y591651D01*
X526518Y591460D01*
X526900Y590630D01*
X526518Y589800D01*
X526327Y589609D01*
X525940Y588675D01*
Y587665D01*
X526327Y586731D01*
X526518Y586540D01*
X526900Y585710D01*
X526518Y584880D01*
X526327Y584689D01*
X525940Y583755D01*
Y582745D01*
X526327Y581811D01*
X527041Y581097D01*
X527975Y580710D01*
X528985D01*
X529919Y581097D01*
X530633Y581811D01*
X531020Y582745D01*
Y583755D01*
X530633Y584689D01*
X530442Y584880D01*
X530060Y585710D01*
X530442Y586540D01*
X530633Y586731D01*
X531020Y587665D01*
Y588675D01*
X530633Y589609D01*
X530442Y589800D01*
X530060Y590630D01*
X530442Y591460D01*
X530633Y591651D01*
X531020Y592585D01*
Y593595D01*
X530633Y594529D01*
X530259Y594903D01*
X530917Y596041D01*
X532196Y595699D01*
X535234D01*
X535871Y595869D01*
X536529Y594731D01*
X536327Y594529D01*
X535940Y593595D01*
Y592585D01*
X536327Y591651D01*
X536518Y591460D01*
X536900Y590630D01*
X536518Y589800D01*
X536327Y589609D01*
X535940Y588675D01*
Y587665D01*
X536327Y586731D01*
X536518Y586540D01*
X536900Y585710D01*
X536518Y584880D01*
X536327Y584689D01*
X535940Y583755D01*
Y582745D01*
X536327Y581811D01*
X537041Y581097D01*
X537975Y580710D01*
X538985D01*
X539919Y581097D01*
X540633Y581811D01*
X541020Y582745D01*
Y583755D01*
X540633Y584689D01*
X540442Y584880D01*
X540060Y585710D01*
X540442Y586540D01*
X540633Y586731D01*
X541020Y587665D01*
Y588675D01*
X540633Y589609D01*
X540442Y589800D01*
X540060Y590630D01*
X540442Y591460D01*
X540633Y591651D01*
X541020Y592585D01*
Y593595D01*
X540633Y594529D01*
X539919Y595243D01*
X539127Y595571D01*
X538948Y596113D01*
X538888Y596900D01*
X540801Y598004D01*
X542949Y600153D01*
X544469Y602784D01*
X545255Y605719D01*
Y608758D01*
X544469Y611693D01*
X542949Y614324D01*
X540801Y616473D01*
X538169Y617992D01*
X535234Y618779D01*
D02*
G37*
G36*
X418763Y578841D02*
X417449D01*
X416236Y578339D01*
X415375Y577478D01*
X414515Y578339D01*
X413302Y578841D01*
X411988D01*
X410774Y578339D01*
X409846Y577410D01*
X409343Y576196D01*
Y574882D01*
X409846Y573669D01*
X410774Y572740D01*
Y571386D01*
X409846Y570458D01*
X409343Y569244D01*
Y567930D01*
X409846Y566717D01*
X410774Y565788D01*
X411988Y565285D01*
X413302D01*
X414515Y565788D01*
X415375Y566648D01*
X416236Y565788D01*
X417449Y565285D01*
X418763D01*
X419976Y565788D01*
X420905Y566717D01*
X421408Y567930D01*
Y569244D01*
X420905Y570458D01*
X419976Y571386D01*
Y572740D01*
X420905Y573669D01*
X421408Y574882D01*
Y576196D01*
X420905Y577410D01*
X419976Y578339D01*
X418763Y578841D01*
D02*
G37*
G36*
X399437Y576687D02*
X398123D01*
X396910Y576184D01*
X395981Y575255D01*
X395478Y574041D01*
Y572728D01*
X395981Y571514D01*
X396841Y570654D01*
X395981Y569794D01*
X395478Y568581D01*
Y567267D01*
X395981Y566053D01*
X396910Y565124D01*
X398123Y564622D01*
X399437D01*
X400650Y565124D01*
X401579Y566053D01*
X402082Y567267D01*
Y568581D01*
X401579Y569794D01*
X400719Y570654D01*
X401579Y571514D01*
X402082Y572728D01*
Y574041D01*
X401579Y575255D01*
X400650Y576184D01*
X399437Y576687D01*
D02*
G37*
G36*
X389437D02*
X388123D01*
X386910Y576184D01*
X385981Y575255D01*
X385478Y574041D01*
Y572728D01*
X385981Y571514D01*
X386841Y570654D01*
X385981Y569794D01*
X385478Y568581D01*
Y567267D01*
X385981Y566053D01*
X386910Y565124D01*
X388123Y564622D01*
X389437D01*
X390650Y565124D01*
X391579Y566053D01*
X392082Y567267D01*
Y568581D01*
X391579Y569794D01*
X390719Y570654D01*
X391579Y571514D01*
X392082Y572728D01*
Y574041D01*
X391579Y575255D01*
X390650Y576184D01*
X389437Y576687D01*
D02*
G37*
G36*
X379437D02*
X378123D01*
X376910Y576184D01*
X375981Y575255D01*
X375478Y574041D01*
Y572728D01*
X375981Y571514D01*
X376841Y570654D01*
X375981Y569794D01*
X375478Y568581D01*
Y567267D01*
X375981Y566053D01*
X376910Y565124D01*
X378123Y564622D01*
X379437D01*
X380650Y565124D01*
X381579Y566053D01*
X382082Y567267D01*
Y568581D01*
X381579Y569794D01*
X380719Y570654D01*
X381579Y571514D01*
X382082Y572728D01*
Y574041D01*
X381579Y575255D01*
X380650Y576184D01*
X379437Y576687D01*
D02*
G37*
G36*
X418763Y563888D02*
X417449D01*
X416236Y563386D01*
X415375Y562525D01*
X414515Y563386D01*
X413302Y563888D01*
X411988D01*
X410774Y563386D01*
X409846Y562457D01*
X409343Y561243D01*
Y559929D01*
X409846Y558716D01*
X410774Y557787D01*
X411988Y557284D01*
X413302D01*
X414515Y557787D01*
X415375Y558647D01*
X416236Y557787D01*
X417449Y557284D01*
X418763D01*
X419976Y557787D01*
X420905Y558716D01*
X421408Y559929D01*
Y561243D01*
X420905Y562457D01*
X419976Y563386D01*
X418763Y563888D01*
D02*
G37*
G36*
X662314Y524035D02*
X661001D01*
X659787Y523532D01*
X658858Y522603D01*
X658355Y521390D01*
Y520076D01*
X658858Y518863D01*
X659787Y517934D01*
X661001Y517431D01*
X662314D01*
X663528Y517934D01*
X664457Y518863D01*
X664959Y520076D01*
Y521390D01*
X664457Y522603D01*
X663528Y523532D01*
X662314Y524035D01*
D02*
G37*
G36*
X654313D02*
X652999D01*
X651786Y523532D01*
X650857Y522603D01*
X650354Y521390D01*
Y520076D01*
X650857Y518863D01*
X651786Y517934D01*
X652999Y517431D01*
X654313D01*
X655527Y517934D01*
X656456Y518863D01*
X656958Y520076D01*
Y521390D01*
X656456Y522603D01*
X655527Y523532D01*
X654313Y524035D01*
D02*
G37*
G36*
Y516034D02*
X652999D01*
X651786Y515531D01*
X650857Y514603D01*
X650354Y513389D01*
Y512075D01*
X650857Y510862D01*
X651786Y509933D01*
X652999Y509430D01*
X654313D01*
X655527Y509933D01*
X656456Y510862D01*
X656958Y512075D01*
Y513389D01*
X656456Y514603D01*
X655527Y515531D01*
X654313Y516034D01*
D02*
G37*
G36*
X644313D02*
X642999D01*
X641786Y515531D01*
X640857Y514603D01*
X640354Y513389D01*
Y512075D01*
X640857Y510862D01*
X641786Y509933D01*
X642999Y509430D01*
X644313D01*
X645527Y509933D01*
X646456Y510862D01*
X646958Y512075D01*
Y513389D01*
X646456Y514603D01*
X645527Y515531D01*
X644313Y516034D01*
D02*
G37*
G36*
X683247Y422880D02*
X681933D01*
X680720Y422377D01*
X679791Y421449D01*
X679288Y420235D01*
Y418921D01*
X679791Y417708D01*
X680720Y416779D01*
X681933Y416276D01*
X683247D01*
X684460Y416779D01*
X685389Y417708D01*
X685892Y418921D01*
Y420235D01*
X685389Y421449D01*
X684460Y422377D01*
X683247Y422880D01*
D02*
G37*
G36*
X683919Y407175D02*
X682605D01*
X681392Y406672D01*
X680463Y405743D01*
X679960Y404529D01*
Y403216D01*
X680463Y402002D01*
X681392Y401073D01*
X682605Y400571D01*
X683919D01*
X685133Y401073D01*
X686061Y402002D01*
X686564Y403216D01*
Y404529D01*
X686061Y405743D01*
X685133Y406672D01*
X683919Y407175D01*
D02*
G37*
G36*
Y398445D02*
X682605D01*
X681392Y397942D01*
X680463Y397013D01*
X679960Y395800D01*
Y394486D01*
X680463Y393272D01*
X681392Y392343D01*
X682605Y391841D01*
X683919D01*
X685133Y392343D01*
X686061Y393272D01*
X686564Y394486D01*
Y395800D01*
X686061Y397013D01*
X685133Y397942D01*
X683919Y398445D01*
D02*
G37*
G36*
X682647Y384394D02*
X681333D01*
X680120Y383891D01*
X679191Y382962D01*
X678688Y381749D01*
Y380435D01*
X679191Y379222D01*
X680120Y378293D01*
X681333Y377790D01*
X682647D01*
X683860Y378293D01*
X684789Y379222D01*
X685292Y380435D01*
Y381749D01*
X684789Y382962D01*
X683860Y383891D01*
X682647Y384394D01*
D02*
G37*
G36*
Y374394D02*
X681333D01*
X680120Y373891D01*
X679191Y372962D01*
X678688Y371749D01*
Y370435D01*
X679191Y369222D01*
X680120Y368293D01*
X681333Y367790D01*
X682647D01*
X683860Y368293D01*
X684789Y369222D01*
X685292Y370435D01*
Y371749D01*
X684789Y372962D01*
X683860Y373891D01*
X682647Y374394D01*
D02*
G37*
G36*
X673145D02*
X671831D01*
X670618Y373891D01*
X669689Y372962D01*
X669186Y371749D01*
Y370435D01*
X669689Y369222D01*
X670618Y368293D01*
X671831Y367790D01*
X673145D01*
X674358Y368293D01*
X675287Y369222D01*
X675790Y370435D01*
Y371749D01*
X675287Y372962D01*
X674358Y373891D01*
X673145Y374394D01*
D02*
G37*
G36*
X670203Y207799D02*
X668889D01*
X667676Y207296D01*
X666747Y206367D01*
X666244Y205154D01*
Y203840D01*
X666747Y202627D01*
X667676Y201698D01*
X668889Y201195D01*
X670203D01*
X671416Y201698D01*
X672345Y202627D01*
X672848Y203840D01*
Y205154D01*
X672345Y206367D01*
X671416Y207296D01*
X670203Y207799D01*
D02*
G37*
G36*
X634902Y172157D02*
X633588D01*
X632375Y171655D01*
X631446Y170726D01*
X630943Y169512D01*
Y168198D01*
X631446Y166985D01*
X632375Y166056D01*
X633588Y165553D01*
X634902D01*
X636116Y166056D01*
X637045Y166985D01*
X637547Y168198D01*
Y169512D01*
X637045Y170726D01*
X636116Y171655D01*
X634902Y172157D01*
D02*
G37*
G36*
X626901D02*
X625588D01*
X624374Y171655D01*
X623445Y170726D01*
X622942Y169512D01*
Y168198D01*
X623445Y166985D01*
X624374Y166056D01*
X625588Y165553D01*
X626901D01*
X628115Y166056D01*
X629044Y166985D01*
X629546Y168198D01*
Y169512D01*
X629044Y170726D01*
X628115Y171655D01*
X626901Y172157D01*
D02*
G37*
G36*
X738426Y167894D02*
X737314D01*
X736287Y167469D01*
X735501Y166683D01*
X735076Y165656D01*
Y164544D01*
X735501Y163517D01*
X736287Y162731D01*
X737314Y162306D01*
X738426D01*
X739453Y162731D01*
X740239Y163517D01*
X740664Y164544D01*
Y165656D01*
X740239Y166683D01*
X739453Y167469D01*
X738426Y167894D01*
D02*
G37*
G36*
X634902Y164156D02*
X633588D01*
X632375Y163654D01*
X631446Y162725D01*
X630943Y161511D01*
Y160197D01*
X631446Y158984D01*
X632375Y158055D01*
X633588Y157552D01*
X634902D01*
X636116Y158055D01*
X637045Y158984D01*
X637547Y160197D01*
Y161511D01*
X637045Y162725D01*
X636116Y163654D01*
X634902Y164156D01*
D02*
G37*
G36*
X626901D02*
X625588D01*
X624374Y163654D01*
X623445Y162725D01*
X622942Y161511D01*
Y160197D01*
X623445Y158984D01*
X624374Y158055D01*
X625588Y157552D01*
X626901D01*
X628115Y158055D01*
X629044Y158984D01*
X629546Y160197D01*
Y161511D01*
X629044Y162725D01*
X628115Y163654D01*
X626901Y164156D01*
D02*
G37*
G36*
X560323Y167950D02*
X559010D01*
X557796Y167447D01*
X556867Y166518D01*
X556365Y165305D01*
Y163991D01*
X556867Y162777D01*
X557796Y161849D01*
X558191Y161685D01*
Y160310D01*
X557598Y160065D01*
X556669Y159136D01*
X556166Y157922D01*
Y156608D01*
X556669Y155395D01*
X557598Y154466D01*
X558812Y153963D01*
X560125D01*
X561339Y154466D01*
X562268Y155395D01*
X562771Y156608D01*
Y157922D01*
X562268Y159136D01*
X561339Y160065D01*
X560944Y160228D01*
Y161603D01*
X561537Y161849D01*
X562466Y162777D01*
X562969Y163991D01*
Y165305D01*
X562466Y166518D01*
X561537Y167447D01*
X560323Y167950D01*
D02*
G37*
G36*
X634902Y156155D02*
X633588D01*
X632375Y155653D01*
X631446Y154724D01*
X630943Y153510D01*
Y152196D01*
X631446Y150983D01*
X632375Y150054D01*
X633588Y149551D01*
X634902D01*
X636116Y150054D01*
X637045Y150983D01*
X637547Y152196D01*
Y153510D01*
X637045Y154724D01*
X636116Y155653D01*
X634902Y156155D01*
D02*
G37*
G36*
X626901D02*
X625588D01*
X624374Y155653D01*
X623445Y154724D01*
X622942Y153510D01*
Y152196D01*
X623445Y150983D01*
X624374Y150054D01*
X625588Y149551D01*
X626901D01*
X628115Y150054D01*
X629044Y150983D01*
X629546Y152196D01*
Y153510D01*
X629044Y154724D01*
X628115Y155653D01*
X626901Y156155D01*
D02*
G37*
G36*
X655977Y87122D02*
X654663D01*
X653450Y86619D01*
X652521Y85690D01*
X652018Y84477D01*
Y83163D01*
X652521Y81950D01*
X653450Y81021D01*
X654663Y80518D01*
X655977D01*
X657190Y81021D01*
X658119Y81950D01*
X658622Y83163D01*
Y84477D01*
X658119Y85690D01*
X657190Y86619D01*
X655977Y87122D01*
D02*
G37*
G36*
X612323Y99940D02*
X609417D01*
X606609Y99188D01*
X604091Y97734D01*
X602036Y95679D01*
X600582Y93161D01*
X599830Y90353D01*
Y87447D01*
X600582Y84639D01*
X602036Y82121D01*
X604091Y80066D01*
X606609Y78612D01*
X609417Y77860D01*
X612323D01*
X615131Y78612D01*
X617649Y80066D01*
X619704Y82121D01*
X621158Y84639D01*
X621910Y87447D01*
Y90353D01*
X621158Y93161D01*
X619704Y95679D01*
X617649Y97734D01*
X615131Y99188D01*
X612323Y99940D01*
D02*
G37*
G36*
X586923D02*
X584017D01*
X581209Y99188D01*
X578691Y97734D01*
X576636Y95679D01*
X575182Y93161D01*
X574430Y90353D01*
Y87447D01*
X575182Y84639D01*
X576636Y82121D01*
X578691Y80066D01*
X581209Y78612D01*
X584017Y77860D01*
X586923D01*
X589731Y78612D01*
X592249Y80066D01*
X594304Y82121D01*
X595758Y84639D01*
X596510Y87447D01*
Y90353D01*
X595758Y93161D01*
X594304Y95679D01*
X592249Y97734D01*
X589731Y99188D01*
X586923Y99940D01*
D02*
G37*
G36*
X292178Y528402D02*
X290865D01*
X289651Y527899D01*
X288722Y526970D01*
X288220Y525757D01*
Y524443D01*
X288722Y523230D01*
X289651Y522301D01*
X290865Y521798D01*
X292178D01*
X293392Y522301D01*
X294321Y523230D01*
X294824Y524443D01*
Y525757D01*
X294321Y526970D01*
X293392Y527899D01*
X292178Y528402D01*
D02*
G37*
G36*
X537867Y479552D02*
X536553D01*
X535340Y479049D01*
X534411Y478120D01*
X534167Y477533D01*
X532793D01*
X532549Y478120D01*
X531620Y479049D01*
X530407Y479552D01*
X529093D01*
X527880Y479049D01*
X526951Y478120D01*
X526448Y476907D01*
Y475593D01*
X526951Y474380D01*
X527880Y473451D01*
X529093Y472948D01*
X530407D01*
X531620Y473451D01*
X532549Y474380D01*
X532793Y474967D01*
X534167D01*
X534411Y474380D01*
X535340Y473451D01*
X536553Y472948D01*
X537867D01*
X539080Y473451D01*
X540009Y474380D01*
X540512Y475593D01*
Y476907D01*
X540009Y478120D01*
X539080Y479049D01*
X537867Y479552D01*
D02*
G37*
G36*
X555868D02*
X554554D01*
X553340Y479049D01*
X552412Y478120D01*
X551909Y476907D01*
Y475593D01*
X552412Y474380D01*
X553340Y473451D01*
X554554Y472948D01*
X555868D01*
X557081Y473451D01*
X558010Y474380D01*
X558513Y475593D01*
Y476907D01*
X558010Y478120D01*
X557081Y479049D01*
X555868Y479552D01*
D02*
G37*
G36*
X547867D02*
X546553D01*
X545340Y479049D01*
X544411Y478120D01*
X543908Y476907D01*
Y475593D01*
X544411Y474380D01*
X545340Y473451D01*
X546553Y472948D01*
X547867D01*
X549080Y473451D01*
X550009Y474380D01*
X550512Y475593D01*
Y476907D01*
X550009Y478120D01*
X549080Y479049D01*
X547867Y479552D01*
D02*
G37*
G36*
X537867Y471551D02*
X536553D01*
X535340Y471048D01*
X534411Y470119D01*
X534167Y469532D01*
X532793D01*
X532549Y470119D01*
X531620Y471048D01*
X530407Y471551D01*
X529093D01*
X527880Y471048D01*
X526951Y470119D01*
X526448Y468906D01*
Y467592D01*
X526951Y466379D01*
X527880Y465450D01*
X529093Y464947D01*
X530407D01*
X531620Y465450D01*
X532549Y466379D01*
X532793Y466966D01*
X534167D01*
X534411Y466379D01*
X535340Y465450D01*
X536553Y464947D01*
X537867D01*
X539080Y465450D01*
X540009Y466379D01*
X540512Y467592D01*
Y468906D01*
X540009Y470119D01*
X539080Y471048D01*
X537867Y471551D01*
D02*
G37*
G36*
X555868D02*
X554554D01*
X553340Y471048D01*
X552412Y470119D01*
X551909Y468906D01*
Y467592D01*
X552412Y466379D01*
X553340Y465450D01*
X554554Y464947D01*
X555868D01*
X557081Y465450D01*
X558010Y466379D01*
X558513Y467592D01*
Y468906D01*
X558010Y470119D01*
X557081Y471048D01*
X555868Y471551D01*
D02*
G37*
G36*
X547867D02*
X546553D01*
X545340Y471048D01*
X544411Y470119D01*
X543908Y468906D01*
Y467592D01*
X544411Y466379D01*
X545340Y465450D01*
X546553Y464947D01*
X547867D01*
X549080Y465450D01*
X550009Y466379D01*
X550512Y467592D01*
Y468906D01*
X550009Y470119D01*
X549080Y471048D01*
X547867Y471551D01*
D02*
G37*
G36*
X565807Y452882D02*
X564493D01*
X563280Y452379D01*
X562351Y451450D01*
X561848Y450237D01*
Y448923D01*
X562351Y447710D01*
X563280Y446781D01*
X564493Y446278D01*
X565807D01*
X567020Y446781D01*
X567949Y447710D01*
X568452Y448923D01*
Y450237D01*
X567949Y451450D01*
X567020Y452379D01*
X565807Y452882D01*
D02*
G37*
G36*
X533836Y440284D02*
X532725D01*
X531698Y439858D01*
X530912Y439072D01*
X530487Y438045D01*
Y436934D01*
X530912Y435907D01*
X531698Y435121D01*
X532725Y434696D01*
X533836D01*
X534863Y435121D01*
X535649Y435907D01*
X536075Y436934D01*
Y438045D01*
X535649Y439072D01*
X534863Y439858D01*
X533836Y440284D01*
D02*
G37*
G36*
X578049Y417068D02*
X576735D01*
X575522Y416565D01*
X574593Y415636D01*
X574090Y414423D01*
Y413109D01*
X574593Y411896D01*
X574836Y411653D01*
X575420Y410823D01*
X574836Y409993D01*
X574593Y409750D01*
X574090Y408537D01*
Y407223D01*
X574593Y406010D01*
X575522Y405081D01*
X576735Y404578D01*
X578049D01*
X579262Y405081D01*
X580191Y406010D01*
X580694Y407223D01*
Y408537D01*
X580191Y409750D01*
X579948Y409993D01*
X579364Y410823D01*
X579948Y411653D01*
X580191Y411896D01*
X580694Y413109D01*
Y414423D01*
X580191Y415636D01*
X579262Y416565D01*
X578049Y417068D01*
D02*
G37*
G36*
X604945Y385984D02*
X603631D01*
X602418Y385481D01*
X601489Y384552D01*
X600986Y383339D01*
Y382025D01*
X601489Y380812D01*
X602418Y379883D01*
X603631Y379380D01*
Y378183D01*
X602418Y377680D01*
X601489Y376751D01*
X600986Y375538D01*
Y374224D01*
X601489Y373011D01*
X602418Y372082D01*
X603631Y371579D01*
X604945D01*
X606158Y372082D01*
X607087Y373011D01*
X607590Y374224D01*
Y375538D01*
X607087Y376751D01*
X606158Y377680D01*
X604945Y378183D01*
Y379380D01*
X606158Y379883D01*
X607087Y380812D01*
X607590Y382025D01*
Y383339D01*
X607087Y384552D01*
X606158Y385481D01*
X604945Y385984D01*
D02*
G37*
G36*
X325614Y443829D02*
X324300D01*
X323086Y443326D01*
X322158Y442397D01*
X321655Y441184D01*
Y439870D01*
X322158Y438656D01*
X323086Y437728D01*
X324300Y437225D01*
X325614D01*
X326827Y437728D01*
X327756Y438656D01*
X328259Y439870D01*
Y441184D01*
X327756Y442397D01*
X326827Y443326D01*
X325614Y443829D01*
D02*
G37*
G36*
X201126Y436342D02*
X199812D01*
X198599Y435839D01*
X197670Y434910D01*
X197167Y433697D01*
Y432383D01*
X197670Y431170D01*
X198599Y430241D01*
X199812Y429738D01*
X201126D01*
X202339Y430241D01*
X203268Y431170D01*
X203771Y432383D01*
Y433697D01*
X203268Y434910D01*
X202339Y435839D01*
X201126Y436342D01*
D02*
G37*
G36*
X186077Y438023D02*
X184763D01*
X183550Y437520D01*
X182621Y436591D01*
X182118Y435378D01*
Y434064D01*
X182621Y432851D01*
X183481Y431991D01*
X182621Y431130D01*
X182118Y429917D01*
Y428603D01*
X182621Y427390D01*
X183550Y426461D01*
X184763Y425958D01*
X186077D01*
X187290Y426461D01*
X188219Y427390D01*
X188722Y428603D01*
Y429917D01*
X188219Y431130D01*
X187359Y431991D01*
X188219Y432851D01*
X188722Y434064D01*
Y435378D01*
X188219Y436591D01*
X187290Y437520D01*
X186077Y438023D01*
D02*
G37*
G36*
X164487Y356362D02*
X163173D01*
X161960Y355859D01*
X161031Y354930D01*
X160528Y353717D01*
Y352403D01*
X161031Y351190D01*
X161494Y350726D01*
X161775Y349829D01*
X161464Y349097D01*
X160947Y348580D01*
X160444Y347367D01*
Y346053D01*
X160947Y344840D01*
X161876Y343911D01*
X163089Y343408D01*
X164403D01*
X165617Y343911D01*
X166545Y344840D01*
X167048Y346053D01*
Y347367D01*
X166545Y348580D01*
X166082Y349044D01*
X165801Y349941D01*
X166112Y350673D01*
X166629Y351190D01*
X167132Y352403D01*
Y353717D01*
X166629Y354930D01*
X165700Y355859D01*
X164487Y356362D01*
D02*
G37*
G36*
X156486D02*
X155172D01*
X153959Y355859D01*
X153030Y354930D01*
X152527Y353717D01*
Y352403D01*
X153030Y351190D01*
X153493Y350726D01*
X153774Y349829D01*
X153463Y349097D01*
X152946Y348580D01*
X152443Y347367D01*
Y346053D01*
X152946Y344840D01*
X153875Y343911D01*
X155088Y343408D01*
X156402D01*
X157616Y343911D01*
X158544Y344840D01*
X159047Y346053D01*
Y347367D01*
X158544Y348580D01*
X158081Y349044D01*
X157800Y349941D01*
X158111Y350673D01*
X158628Y351190D01*
X159131Y352403D01*
Y353717D01*
X158628Y354930D01*
X157699Y355859D01*
X156486Y356362D01*
D02*
G37*
G36*
X327870Y307175D02*
X326556D01*
X325342Y306672D01*
X324928Y306258D01*
X324513Y306672D01*
X323299Y307175D01*
X321985D01*
X320772Y306672D01*
X320357Y306258D01*
X319942Y306672D01*
X318728Y307175D01*
X317415D01*
X316201Y306672D01*
X315272Y305744D01*
X314770Y304530D01*
Y303216D01*
X315272Y302003D01*
X316201Y301074D01*
X317415Y300571D01*
X318728D01*
X319942Y301074D01*
X320357Y301489D01*
X320772Y301074D01*
X321985Y300571D01*
X323299D01*
X324513Y301074D01*
X324928Y301489D01*
X325342Y301074D01*
X326556Y300571D01*
X327870D01*
X329083Y301074D01*
X330012Y302003D01*
X330515Y303216D01*
Y304530D01*
X330012Y305744D01*
X329083Y306672D01*
X327870Y307175D01*
D02*
G37*
G36*
X248546Y301168D02*
X247232D01*
X246019Y300665D01*
X245090Y299736D01*
X244587Y298522D01*
Y297209D01*
X245090Y295995D01*
X246019Y295066D01*
X247232Y294564D01*
X248546D01*
X249760Y295066D01*
X250689Y295995D01*
X251191Y297209D01*
Y298522D01*
X250689Y299736D01*
X249760Y300665D01*
X248546Y301168D01*
D02*
G37*
G36*
X314347Y273153D02*
X313033D01*
X311820Y272650D01*
X310959Y271790D01*
X310099Y272650D01*
X308886Y273153D01*
X307572D01*
X306359Y272650D01*
X305430Y271721D01*
X304927Y270507D01*
Y269194D01*
X305430Y267980D01*
X306359Y267051D01*
X307572Y266549D01*
X308886D01*
X310099Y267051D01*
X310959Y267911D01*
X311820Y267051D01*
X313033Y266549D01*
X314347D01*
X315560Y267051D01*
X316489Y267980D01*
X316992Y269194D01*
Y270507D01*
X316489Y271721D01*
X315560Y272650D01*
X314347Y273153D01*
D02*
G37*
G36*
X357643Y273372D02*
X356329D01*
X355116Y272870D01*
X354187Y271941D01*
X353684Y270727D01*
Y269414D01*
X354187Y268200D01*
X355116Y267271D01*
X356329Y266768D01*
X357643D01*
X358857Y267271D01*
X359785Y268200D01*
X360288Y269414D01*
Y270727D01*
X359785Y271941D01*
X358857Y272870D01*
X357643Y273372D01*
D02*
G37*
G36*
X229821Y273050D02*
X228508D01*
X227294Y272547D01*
X226365Y271618D01*
X225862Y270405D01*
Y269091D01*
X226365Y267878D01*
X227294Y266949D01*
X228508Y266446D01*
X229821D01*
X231035Y266949D01*
X231964Y267878D01*
X232466Y269091D01*
Y270405D01*
X231964Y271618D01*
X231035Y272547D01*
X229821Y273050D01*
D02*
G37*
G36*
X407819Y268478D02*
X406505D01*
X405292Y267975D01*
X404363Y267046D01*
X403860Y265833D01*
Y264519D01*
X404363Y263306D01*
X405292Y262377D01*
X406505Y261874D01*
X407819D01*
X409032Y262377D01*
X409961Y263306D01*
X410464Y264519D01*
Y265833D01*
X409961Y267046D01*
X409032Y267975D01*
X407819Y268478D01*
D02*
G37*
G36*
X429326Y268383D02*
X428013D01*
X426799Y267880D01*
X425870Y266951D01*
X425368Y265738D01*
Y264424D01*
X425870Y263211D01*
X426799Y262282D01*
X428013Y261779D01*
X429326D01*
X430540Y262282D01*
X431469Y263211D01*
X431972Y264424D01*
Y265738D01*
X431469Y266951D01*
X430540Y267880D01*
X429326Y268383D01*
D02*
G37*
G36*
X418827D02*
X417513D01*
X416299Y267880D01*
X415370Y266951D01*
X414868Y265738D01*
Y264424D01*
X415370Y263211D01*
X416299Y262282D01*
X417513Y261779D01*
X418827D01*
X420040Y262282D01*
X420969Y263211D01*
X421472Y264424D01*
Y265738D01*
X420969Y266951D01*
X420040Y267880D01*
X418827Y268383D01*
D02*
G37*
G36*
X407819Y259715D02*
X406505D01*
X405292Y259212D01*
X404363Y258283D01*
X403860Y257070D01*
Y255756D01*
X404363Y254543D01*
X405292Y253614D01*
X406505Y253111D01*
X407819D01*
X409032Y253614D01*
X409961Y254543D01*
X410464Y255756D01*
Y257070D01*
X409961Y258283D01*
X409032Y259212D01*
X407819Y259715D01*
D02*
G37*
G36*
X415926Y252381D02*
X414613D01*
X413399Y251878D01*
X412470Y250949D01*
X411968Y249736D01*
Y248422D01*
X412470Y247209D01*
X413399Y246280D01*
X414613Y245777D01*
X415926D01*
X417140Y246280D01*
X418069Y247209D01*
X418572Y248422D01*
Y249736D01*
X418069Y250949D01*
X417140Y251878D01*
X415926Y252381D01*
D02*
G37*
G36*
X407819Y250952D02*
X406505D01*
X405292Y250449D01*
X404363Y249520D01*
X403860Y248307D01*
Y246993D01*
X404363Y245780D01*
X405292Y244851D01*
X406505Y244348D01*
X407819D01*
X409032Y244851D01*
X409961Y245780D01*
X410464Y246993D01*
Y248307D01*
X409961Y249520D01*
X409032Y250449D01*
X407819Y250952D01*
D02*
G37*
G36*
Y242189D02*
X406505D01*
X405292Y241686D01*
X404363Y240757D01*
X403860Y239544D01*
Y238230D01*
X404363Y237017D01*
X405292Y236088D01*
X406505Y235585D01*
X407819D01*
X409032Y236088D01*
X409961Y237017D01*
X410464Y238230D01*
Y239544D01*
X409961Y240757D01*
X409032Y241686D01*
X407819Y242189D01*
D02*
G37*
G36*
Y233426D02*
X406505D01*
X405292Y232923D01*
X404363Y231994D01*
X403860Y230781D01*
Y229467D01*
X404363Y228254D01*
X405292Y227325D01*
X406505Y226822D01*
X407819D01*
X409032Y227325D01*
X409961Y228254D01*
X410464Y229467D01*
Y230781D01*
X409961Y231994D01*
X409032Y232923D01*
X407819Y233426D01*
D02*
G37*
G36*
X415926Y233331D02*
X414613D01*
X413399Y232828D01*
X412470Y231899D01*
X411968Y230686D01*
Y229372D01*
X412470Y228159D01*
X413399Y227230D01*
X414613Y226727D01*
X415926D01*
X417140Y227230D01*
X418069Y228159D01*
X418572Y229372D01*
Y230686D01*
X418069Y231899D01*
X417140Y232828D01*
X415926Y233331D01*
D02*
G37*
G36*
X537638Y258940D02*
X536324D01*
X535111Y258437D01*
X534182Y257508D01*
X533679Y256295D01*
Y254981D01*
X534182Y253768D01*
X535111Y252839D01*
X536324Y252336D01*
X537638D01*
X538851Y252839D01*
X539780Y253768D01*
X540283Y254981D01*
Y256295D01*
X539780Y257508D01*
X538851Y258437D01*
X537638Y258940D01*
D02*
G37*
G36*
X470347Y209296D02*
X469034D01*
X467820Y208793D01*
X466891Y207864D01*
X466388Y206651D01*
Y205337D01*
X466891Y204124D01*
X467820Y203195D01*
X469034Y202692D01*
X470347D01*
X471561Y203195D01*
X472490Y204124D01*
X472992Y205337D01*
Y206651D01*
X472490Y207864D01*
X471561Y208793D01*
X470347Y209296D01*
D02*
G37*
G36*
Y201295D02*
X469034D01*
X467820Y200792D01*
X466891Y199863D01*
X466388Y198650D01*
Y197336D01*
X466891Y196123D01*
X467820Y195194D01*
X469034Y194691D01*
X470347D01*
X471561Y195194D01*
X472490Y196123D01*
X472992Y197336D01*
Y198650D01*
X472490Y199863D01*
X471561Y200792D01*
X470347Y201295D01*
D02*
G37*
G36*
X448713Y197290D02*
X447399D01*
X446186Y196788D01*
X445257Y195859D01*
X444754Y194645D01*
Y193332D01*
X445257Y192118D01*
X446186Y191189D01*
X447399Y190686D01*
X448713D01*
X449926Y191189D01*
X450855Y192118D01*
X451358Y193332D01*
Y194645D01*
X450855Y195859D01*
X449926Y196788D01*
X448713Y197290D01*
D02*
G37*
G36*
X433536D02*
X432222D01*
X431009Y196788D01*
X430080Y195859D01*
X429577Y194645D01*
Y193332D01*
X430080Y192118D01*
X431009Y191189D01*
X432222Y190686D01*
X433536D01*
X434749Y191189D01*
X435678Y192118D01*
X436181Y193332D01*
Y194645D01*
X435678Y195859D01*
X434749Y196788D01*
X433536Y197290D01*
D02*
G37*
G36*
X480209Y194564D02*
X478895D01*
X477682Y194061D01*
X476753Y193132D01*
X476250Y191919D01*
Y190605D01*
X476753Y189392D01*
X477682Y188463D01*
X478895Y187960D01*
X480209D01*
X481422Y188463D01*
X482351Y189392D01*
X482854Y190605D01*
Y191919D01*
X482351Y193132D01*
X481422Y194061D01*
X480209Y194564D01*
D02*
G37*
G36*
X422750Y189992D02*
X421437D01*
X420223Y189489D01*
X419294Y188560D01*
X418791Y187347D01*
Y186033D01*
X419294Y184820D01*
X420223Y183891D01*
X421437Y183388D01*
X422750D01*
X423964Y183891D01*
X424893Y184820D01*
X425395Y186033D01*
Y187347D01*
X424893Y188560D01*
X423964Y189489D01*
X422750Y189992D01*
D02*
G37*
G36*
X409597Y182564D02*
X408283D01*
X407070Y182061D01*
X406141Y181133D01*
X405638Y179919D01*
Y178605D01*
X406141Y177392D01*
X407070Y176463D01*
X408283Y175960D01*
X409597D01*
X410810Y176463D01*
X411739Y177392D01*
X412242Y178605D01*
Y179919D01*
X411739Y181133D01*
X410810Y182061D01*
X409597Y182564D01*
D02*
G37*
G36*
X377783Y170490D02*
X376470D01*
X375256Y169987D01*
X374327Y169058D01*
X373824Y167845D01*
Y166531D01*
X374327Y165317D01*
X375256Y164388D01*
X376470Y163886D01*
X377783D01*
X378997Y164388D01*
X379926Y165317D01*
X380428Y166531D01*
Y167845D01*
X379926Y169058D01*
X378997Y169987D01*
X377783Y170490D01*
D02*
G37*
G36*
X485394Y179374D02*
X470916Y179374D01*
X469925Y179177D01*
X469085Y178615D01*
X466799Y176329D01*
X466237Y175489D01*
X466040Y174498D01*
Y151384D01*
X466237Y150393D01*
X466799Y149553D01*
X468831Y147521D01*
X469671Y146959D01*
X470662Y146762D01*
X485648D01*
X486639Y146959D01*
X487479Y147521D01*
X490173Y150215D01*
X490735Y151055D01*
X490932Y152046D01*
Y173836D01*
X490735Y174827D01*
X490173Y175667D01*
X487225Y178615D01*
X486385Y179177D01*
X485394Y179374D01*
D02*
G37*
%LPD*%
G36*
X488342Y173836D02*
Y152046D01*
X485648Y149352D01*
X470662D01*
X468630Y151384D01*
Y174498D01*
X470916Y176784D01*
X485394Y176784D01*
X488342Y173836D01*
D02*
G37*
%LPC*%
G36*
X530553Y185574D02*
X529239D01*
X528025Y185072D01*
X527096Y184143D01*
X526594Y182929D01*
Y181616D01*
X527096Y180402D01*
X528025Y179473D01*
X529239Y178970D01*
X530553D01*
X531766Y179473D01*
X532695Y180402D01*
X533198Y181616D01*
Y182929D01*
X532695Y184143D01*
X531766Y185072D01*
X530553Y185574D01*
D02*
G37*
G36*
X522552D02*
X521238D01*
X520024Y185072D01*
X519095Y184143D01*
X518593Y182929D01*
Y181616D01*
X519095Y180402D01*
X520024Y179473D01*
X521238Y178970D01*
X522552D01*
X523765Y179473D01*
X524694Y180402D01*
X525197Y181616D01*
Y182929D01*
X524694Y184143D01*
X523765Y185072D01*
X522552Y185574D01*
D02*
G37*
G36*
Y177573D02*
X521238D01*
X520024Y177071D01*
X519095Y176142D01*
X518593Y174928D01*
Y173615D01*
X519095Y172401D01*
X520024Y171472D01*
X521238Y170969D01*
X522552D01*
X523765Y171472D01*
X524694Y172401D01*
X525197Y173615D01*
Y174928D01*
X524694Y176142D01*
X523765Y177071D01*
X522552Y177573D01*
D02*
G37*
G36*
X514479Y177546D02*
X513166D01*
X511952Y177043D01*
X511023Y176114D01*
X510521Y174901D01*
Y173587D01*
X511023Y172374D01*
X511952Y171445D01*
X513166Y170942D01*
X514479D01*
X515693Y171445D01*
X516622Y172374D01*
X517125Y173587D01*
Y174901D01*
X516622Y176114D01*
X515693Y177043D01*
X514479Y177546D01*
D02*
G37*
G36*
X318470Y127003D02*
X317157D01*
X315943Y126501D01*
X315014Y125572D01*
X314512Y124358D01*
Y123045D01*
X315014Y121831D01*
X315943Y120902D01*
X317157Y120399D01*
X318470D01*
X319684Y120902D01*
X320613Y121831D01*
X321115Y123045D01*
Y124358D01*
X320613Y125572D01*
X319684Y126501D01*
X318470Y127003D01*
D02*
G37*
G36*
X310469D02*
X309156D01*
X307942Y126501D01*
X307013Y125572D01*
X306511Y124358D01*
Y123045D01*
X307013Y121831D01*
X307942Y120902D01*
X309156Y120399D01*
X310469D01*
X311683Y120902D01*
X312612Y121831D01*
X313114Y123045D01*
Y124358D01*
X312612Y125572D01*
X311683Y126501D01*
X310469Y127003D01*
D02*
G37*
G36*
X277801Y95117D02*
X276487D01*
X275273Y94614D01*
X274344Y93685D01*
X273842Y92472D01*
Y91158D01*
X274344Y89944D01*
X275273Y89015D01*
X276487Y88513D01*
X277801D01*
X279014Y89015D01*
X279943Y89944D01*
X280446Y91158D01*
Y92472D01*
X279943Y93685D01*
X279014Y94614D01*
X277801Y95117D01*
D02*
G37*
G36*
X188537Y183594D02*
X187224D01*
X186010Y183092D01*
X185081Y182163D01*
X184578Y180949D01*
Y179636D01*
X185081Y178422D01*
X186010Y177493D01*
X187224Y176991D01*
X188537D01*
X189751Y177493D01*
X190680Y178422D01*
X191182Y179636D01*
Y180949D01*
X190680Y182163D01*
X189751Y183092D01*
X188537Y183594D01*
D02*
G37*
G36*
X205398Y180323D02*
X204084D01*
X202871Y179820D01*
X201942Y178891D01*
X201439Y177678D01*
Y176364D01*
X201942Y175150D01*
X202871Y174221D01*
X204084Y173719D01*
X205398D01*
X206612Y174221D01*
X207541Y175150D01*
X208043Y176364D01*
Y177678D01*
X207541Y178891D01*
X206612Y179820D01*
X205398Y180323D01*
D02*
G37*
%LPD*%
D13*
X240030Y491490D02*
X242570Y494030D01*
X240030Y488638D02*
Y491490D01*
X345372Y493988D02*
X349224Y497840D01*
X441455D01*
X477643Y256540D02*
X518651D01*
X448274Y285909D02*
X477643Y256540D01*
X526580Y264469D02*
X545508D01*
X518651Y256540D02*
X526580Y264469D01*
X545508D02*
X560715Y249261D01*
X574296D01*
X256228Y472440D02*
X436259D01*
X483805Y472934D02*
X489673Y467066D01*
X436489Y472670D02*
X475708D01*
X475972Y472934D01*
X483805D01*
X489673Y458284D02*
Y467066D01*
X436259Y472440D02*
X436489Y472670D01*
X483844Y441124D02*
X491924D01*
X504160Y453360D01*
Y471200D01*
X273050Y488638D02*
X275278Y486410D01*
X488950D01*
X504160Y471200D01*
X240030Y488638D02*
X256228Y472440D01*
X441455Y497840D02*
X445567Y493728D01*
D15*
X266745Y494943D02*
X273050Y488638D01*
X243483Y494943D02*
X266745D01*
X242570Y494030D02*
X243483Y494943D01*
D21*
X62214Y403876D02*
Y559214D01*
X64078Y561078D02*
Y570329D01*
X62214Y559214D02*
X64078Y561078D01*
X62214Y403876D02*
X66040Y400050D01*
D141*
X172155Y545535D02*
X182217D01*
X163830Y537210D02*
X172155Y545535D01*
X153670Y537210D02*
X163830D01*
X183920Y551180D02*
X191966Y543134D01*
X171450Y551180D02*
X183920D01*
X161290Y541020D02*
X171450Y551180D01*
X152092Y541020D02*
X161290D01*
X131772Y520700D02*
X152092Y541020D01*
X133350Y516890D02*
X153670Y537210D01*
X97239Y513688D02*
Y515286D01*
X100671Y518719D02*
X105969D01*
X97239Y515286D02*
X100671Y518719D01*
X105969D02*
X107950Y520700D01*
X131772D01*
X109220Y516890D02*
X133350D01*
X106018Y513688D02*
X109220Y516890D01*
X102640Y513688D02*
X106018D01*
X393756Y445110D02*
X428398D01*
D142*
X115736Y454268D02*
X116891D01*
X102402D02*
X115736D01*
X116891D02*
X122849Y448310D01*
X134537D01*
X163195Y419101D02*
Y435074D01*
X137463Y446024D02*
X152245D01*
X163195Y435074D01*
Y419101D02*
X167913Y414382D01*
X134857Y448630D02*
X137463Y446024D01*
X134537Y448310D02*
X134857Y448630D01*
D144*
X228714Y546146D02*
X323873D01*
X210820Y564039D02*
X228714Y546146D01*
X323873D02*
X330269Y539750D01*
X652780Y496030D02*
X676046D01*
X685024Y505008D01*
X547245Y555899D02*
X564116Y572770D01*
X437789Y555899D02*
X547245D01*
X564116Y572770D02*
X658849D01*
X685024Y505008D02*
Y546594D01*
X658849Y572770D02*
X685024Y546594D01*
X330269Y539750D02*
X421640D01*
X105981Y595630D02*
X196850D01*
X210820Y581660D01*
X421640Y539750D02*
X437789Y555899D01*
X210820Y564039D02*
Y581660D01*
X425899Y282761D02*
X447040Y261620D01*
D152*
X483870Y63500D02*
D03*
X509270D02*
D03*
X407670Y88900D02*
D03*
X433070Y63500D02*
D03*
Y88900D02*
D03*
X458470Y63500D02*
D03*
Y88900D02*
D03*
X483870D02*
D03*
X509270D02*
D03*
X534670Y63500D02*
D03*
Y88900D02*
D03*
X560070Y63500D02*
D03*
Y88900D02*
D03*
X585470Y63500D02*
D03*
Y88900D02*
D03*
X610870Y63500D02*
D03*
Y88900D02*
D03*
X636270Y63500D02*
D03*
Y88900D02*
D03*
D153*
X407670Y63500D02*
D03*
D154*
X533715Y607239D02*
D03*
D155*
X558714D02*
D03*
D156*
X227310Y621795D02*
D03*
X313710D02*
D03*
D157*
X227310Y580296D02*
D03*
X313710D02*
D03*
D158*
X743290Y625800D02*
D03*
Y75800D02*
D03*
X84690D02*
D03*
Y625793D02*
D03*
D159*
X174557Y566101D02*
D03*
X87506Y577267D02*
D03*
X74402Y571268D02*
D03*
X64078Y570329D02*
D03*
X191966Y543134D02*
D03*
X182217Y545535D02*
D03*
X101266Y523003D02*
D03*
X102640Y513688D02*
D03*
X97239Y504738D02*
D03*
Y513688D02*
D03*
X101982Y445813D02*
D03*
X115736Y454268D02*
D03*
X102402D02*
D03*
X74514Y529236D02*
D03*
Y535238D02*
D03*
X94176Y544431D02*
D03*
X94231Y537971D02*
D03*
X87506Y547267D02*
D03*
Y553267D02*
D03*
X119096Y562689D02*
D03*
X103152Y562266D02*
D03*
X117006Y538268D02*
D03*
Y526269D02*
D03*
X119096Y551809D02*
D03*
X123915Y507980D02*
D03*
X116191Y508268D02*
D03*
X87441Y499266D02*
D03*
Y487267D02*
D03*
Y493267D02*
D03*
X128270Y496570D02*
D03*
X116840D02*
D03*
X116698Y489832D02*
D03*
X168950Y467342D02*
D03*
X98262Y488382D02*
D03*
Y481154D02*
D03*
X123265Y467218D02*
D03*
X87912Y429143D02*
D03*
X96241Y428931D02*
D03*
X88379Y467127D02*
D03*
X74402Y565268D02*
D03*
Y559269D02*
D03*
X101389Y576583D02*
D03*
X101389Y568206D02*
D03*
X118019Y574329D02*
D03*
X653656Y498950D02*
D03*
X536981Y255638D02*
D03*
X617380Y468378D02*
D03*
X537290Y326390D02*
D03*
X627380Y468378D02*
D03*
X652386Y493006D02*
D03*
X528980Y255638D02*
D03*
X124980Y435237D02*
D03*
X86614Y451104D02*
D03*
X246830Y488638D02*
D03*
X265830D02*
D03*
X490220Y453390D02*
D03*
X496570D02*
D03*
X565150Y449580D02*
D03*
X211423Y514598D02*
D03*
X408940Y179262D02*
D03*
X488740Y226060D02*
D03*
X549863Y77653D02*
D03*
X601872Y638416D02*
D03*
X571180Y638810D02*
D03*
X533080D02*
D03*
X494980D02*
D03*
X590230Y276860D02*
D03*
X580230D02*
D03*
X554990Y307340D02*
D03*
X280694Y377004D02*
D03*
Y367004D02*
D03*
X298695Y377004D02*
D03*
X290694D02*
D03*
X341950Y579120D02*
D03*
X351950D02*
D03*
X361950D02*
D03*
X370332Y530860D02*
D03*
X362331D02*
D03*
X354330D02*
D03*
X320520Y516372D02*
D03*
X291522Y516300D02*
D03*
X312519Y516372D02*
D03*
X290965Y434594D02*
D03*
X579501Y459359D02*
D03*
X571500D02*
D03*
X587502Y467360D02*
D03*
X579501D02*
D03*
X571500D02*
D03*
X615130Y443408D02*
D03*
X603250Y443230D02*
D03*
X462661Y234950D02*
D03*
X454660D02*
D03*
X470662D02*
D03*
X356986Y270070D02*
D03*
X349691Y269615D02*
D03*
Y275330D02*
D03*
X342960Y269615D02*
D03*
Y275330D02*
D03*
X229164Y269748D02*
D03*
X214553D02*
D03*
X222554Y275200D02*
D03*
Y269748D02*
D03*
X232410Y287171D02*
D03*
X214553Y275200D02*
D03*
X291522Y525100D02*
D03*
X311850Y532602D02*
D03*
X303372Y532284D02*
D03*
X237026Y505289D02*
D03*
X240836Y510750D02*
D03*
X246488D02*
D03*
X252139D02*
D03*
X246126Y557911D02*
D03*
X242062D02*
D03*
X238125D02*
D03*
X469690Y197993D02*
D03*
Y205994D02*
D03*
X432879Y193988D02*
D03*
X448056D02*
D03*
X443374Y186894D02*
D03*
X246619Y174429D02*
D03*
X614172Y529844D02*
D03*
X247889Y314641D02*
D03*
Y307910D02*
D03*
X376936Y301752D02*
D03*
X376813Y296102D02*
D03*
X458470Y155956D02*
D03*
X451001Y155933D02*
D03*
X454845Y156039D02*
D03*
X447228Y155899D02*
D03*
X485394Y155702D02*
D03*
X481584D02*
D03*
X477774D02*
D03*
X473964D02*
D03*
X478226Y168976D02*
D03*
X473202Y168910D02*
D03*
X457891Y169450D02*
D03*
X452355D02*
D03*
X307594Y525100D02*
D03*
X242062Y563626D02*
D03*
X345372Y493988D02*
D03*
X356986Y285477D02*
D03*
X335226Y317044D02*
D03*
X319811Y334238D02*
D03*
X309513D02*
D03*
X330454Y326644D02*
D03*
X329438Y179324D02*
D03*
X319024D02*
D03*
X307175D02*
D03*
X335191Y171654D02*
D03*
X322642Y303873D02*
D03*
X327213Y295136D02*
D03*
X327213Y303873D02*
D03*
X318072D02*
D03*
Y295192D02*
D03*
X322642D02*
D03*
X226554Y138834D02*
D03*
X323609Y148251D02*
D03*
X319039D02*
D03*
Y156932D02*
D03*
X328180D02*
D03*
X328180Y148195D02*
D03*
X323609Y156932D02*
D03*
X187880Y180292D02*
D03*
X204741Y177021D02*
D03*
X194372Y295704D02*
D03*
X189802D02*
D03*
Y304385D02*
D03*
X199197D02*
D03*
X199197Y295648D02*
D03*
X194372Y304385D02*
D03*
X157988Y266493D02*
D03*
X149987D02*
D03*
X193102Y157823D02*
D03*
X197673Y149086D02*
D03*
X197673Y157823D02*
D03*
X188532D02*
D03*
Y149142D02*
D03*
X193102D02*
D03*
X166370Y202536D02*
D03*
Y212579D02*
D03*
X152557Y241330D02*
D03*
Y249331D02*
D03*
X144556D02*
D03*
Y241330D02*
D03*
Y211330D02*
D03*
Y219331D02*
D03*
X137922Y106426D02*
D03*
Y114427D02*
D03*
X160782D02*
D03*
Y106426D02*
D03*
X225612Y287171D02*
D03*
X160279Y551809D02*
D03*
X223266Y510993D02*
D03*
X149987Y261239D02*
D03*
X157988D02*
D03*
X148149Y310972D02*
D03*
X148058Y302971D02*
D03*
X142429Y346710D02*
D03*
Y339563D02*
D03*
X155829Y353060D02*
D03*
X163830D02*
D03*
X428398Y445110D02*
D03*
X393756D02*
D03*
X297696Y440665D02*
D03*
Y434594D02*
D03*
X324957Y440527D02*
D03*
X212013Y121519D02*
D03*
X204012D02*
D03*
X212013Y128250D02*
D03*
X204012D02*
D03*
X350267Y127359D02*
D03*
Y132185D02*
D03*
X364519Y126379D02*
D03*
X350267Y137011D02*
D03*
X344806Y128629D02*
D03*
X462661Y226060D02*
D03*
X454660D02*
D03*
X470662D02*
D03*
X634245Y152853D02*
D03*
X626244D02*
D03*
X634245Y160854D02*
D03*
X626244D02*
D03*
X584055Y143552D02*
D03*
X610696Y200230D02*
D03*
Y212090D02*
D03*
X529896Y182272D02*
D03*
Y174271D02*
D03*
X521895D02*
D03*
Y182272D02*
D03*
X513823Y182245D02*
D03*
X555211Y468249D02*
D03*
Y476250D02*
D03*
X529750Y468249D02*
D03*
X537210D02*
D03*
X547210D02*
D03*
X302966Y440665D02*
D03*
X292425D02*
D03*
X297696Y445110D02*
D03*
X661657Y507271D02*
D03*
Y512732D02*
D03*
Y520733D02*
D03*
X653656D02*
D03*
X614172Y536448D02*
D03*
X621486Y536270D02*
D03*
X621538Y530098D02*
D03*
X600710Y557533D02*
D03*
X624840Y552450D02*
D03*
X454084Y441485D02*
D03*
X462085Y435930D02*
D03*
X468816Y440850D02*
D03*
X462085Y441485D02*
D03*
X376316Y456921D02*
D03*
X370855D02*
D03*
X376316Y445999D02*
D03*
X370855D02*
D03*
X445626Y455184D02*
D03*
X437625D02*
D03*
X414163D02*
D03*
X453627D02*
D03*
X604524Y523616D02*
D03*
X598762D02*
D03*
X590413D02*
D03*
X582412D02*
D03*
X590413Y529077D02*
D03*
X582412D02*
D03*
X378780Y567924D02*
D03*
Y573385D02*
D03*
X388780Y567924D02*
D03*
Y573385D02*
D03*
X412645Y552585D02*
D03*
Y560586D02*
D03*
Y568587D02*
D03*
Y575539D02*
D03*
X418106Y552585D02*
D03*
Y560586D02*
D03*
X151981Y560403D02*
D03*
X143261Y560403D02*
D03*
X151981Y551809D02*
D03*
X143261D02*
D03*
X129980D02*
D03*
Y543215D02*
D03*
Y534622D02*
D03*
X135187D02*
D03*
X547210Y476250D02*
D03*
X621079Y522813D02*
D03*
X529750Y476250D02*
D03*
X537210D02*
D03*
X429624Y455184D02*
D03*
X422164D02*
D03*
X657382Y215171D02*
D03*
X627096Y215685D02*
D03*
X657382Y225171D02*
D03*
X627096Y225685D02*
D03*
X647382Y225171D02*
D03*
X753272Y165100D02*
D03*
X655320Y143348D02*
D03*
X347980Y638810D02*
D03*
X373380D02*
D03*
X194472Y429641D02*
D03*
X638071Y131572D02*
D03*
Y118863D02*
D03*
Y106153D02*
D03*
X77702Y125984D02*
D03*
X89872D02*
D03*
X78210Y146050D02*
D03*
X90380D02*
D03*
X102550D02*
D03*
X90380Y224790D02*
D03*
X78210D02*
D03*
X66040D02*
D03*
Y199390D02*
D03*
Y146050D02*
D03*
Y173990D02*
D03*
Y250190D02*
D03*
Y273050D02*
D03*
Y298450D02*
D03*
Y323850D02*
D03*
X78210Y374650D02*
D03*
X66040D02*
D03*
X90380D02*
D03*
X66040Y400050D02*
D03*
X78210Y387350D02*
D03*
X66040Y349250D02*
D03*
X102550Y361950D02*
D03*
X90380D02*
D03*
X78210D02*
D03*
X65532Y100584D02*
D03*
Y113284D02*
D03*
Y125984D02*
D03*
X64262Y602488D02*
D03*
Y589915D02*
D03*
Y577342D02*
D03*
X361496Y159671D02*
D03*
X174498Y412242D02*
D03*
X86614Y445102D02*
D03*
X547483Y247603D02*
D03*
X559468Y157265D02*
D03*
X559667Y164648D02*
D03*
X584058Y159535D02*
D03*
X471170Y294640D02*
D03*
X428670Y265081D02*
D03*
X448274Y279339D02*
D03*
Y285909D02*
D03*
X513823Y174244D02*
D03*
X406666Y486500D02*
D03*
X343871Y472888D02*
D03*
X142205Y517091D02*
D03*
X281439Y559798D02*
D03*
X264160D02*
D03*
X309880Y565150D02*
D03*
X304419D02*
D03*
X223991Y564484D02*
D03*
X229452D02*
D03*
X278130Y584333D02*
D03*
X255886D02*
D03*
X633782Y483780D02*
D03*
X539910Y132080D02*
D03*
X549910D02*
D03*
X694545Y106153D02*
D03*
X666308D02*
D03*
X694545Y118863D02*
D03*
X666308D02*
D03*
X712000Y459740D02*
D03*
Y485140D02*
D03*
X728667Y459740D02*
D03*
Y485140D02*
D03*
X745333Y459740D02*
D03*
Y485140D02*
D03*
X102550Y173990D02*
D03*
Y250190D02*
D03*
Y199390D02*
D03*
Y224790D02*
D03*
Y323850D02*
D03*
Y273050D02*
D03*
Y298450D02*
D03*
Y349250D02*
D03*
X90380Y173990D02*
D03*
Y250190D02*
D03*
Y199390D02*
D03*
Y323850D02*
D03*
Y273050D02*
D03*
Y298450D02*
D03*
Y349250D02*
D03*
X653998Y468339D02*
D03*
X271739Y565493D02*
D03*
X278011D02*
D03*
X263009Y583597D02*
D03*
X269281D02*
D03*
X763916Y228062D02*
D03*
X758455D02*
D03*
X450330Y333896D02*
D03*
X442329D02*
D03*
X418326D02*
D03*
X426327D02*
D03*
X173101Y212579D02*
D03*
Y192493D02*
D03*
X290694Y367004D02*
D03*
Y356336D02*
D03*
Y345668D02*
D03*
Y334238D02*
D03*
X298695Y367004D02*
D03*
Y356336D02*
D03*
Y345668D02*
D03*
X298071Y228815D02*
D03*
Y218815D02*
D03*
Y208815D02*
D03*
Y198815D02*
D03*
X482409Y366068D02*
D03*
X537290Y339399D02*
D03*
X407162Y238887D02*
D03*
X418170Y265081D02*
D03*
X407162Y265176D02*
D03*
Y256413D02*
D03*
Y247650D02*
D03*
Y230124D02*
D03*
X198882Y331470D02*
D03*
X190881D02*
D03*
X182880D02*
D03*
X203200Y324286D02*
D03*
X174081Y335228D02*
D03*
X464966Y173335D02*
D03*
Y166604D02*
D03*
Y159873D02*
D03*
X406549Y118604D02*
D03*
X247889Y297866D02*
D03*
X667256Y402209D02*
D03*
Y410210D02*
D03*
X160702Y560403D02*
D03*
X292425Y445110D02*
D03*
X238125Y563626D02*
D03*
X246126D02*
D03*
X204980Y508105D02*
D03*
X185420Y434721D02*
D03*
Y429260D02*
D03*
X256330Y488638D02*
D03*
X228198Y180619D02*
D03*
X528980Y209138D02*
D03*
X518244Y203543D02*
D03*
X518160Y209138D02*
D03*
X666308Y131572D02*
D03*
X594055Y131553D02*
D03*
X584055D02*
D03*
X505460Y129628D02*
D03*
Y139628D02*
D03*
X429124Y118558D02*
D03*
Y128558D02*
D03*
X408940Y128558D02*
D03*
X78210Y173990D02*
D03*
Y199390D02*
D03*
Y250190D02*
D03*
Y273050D02*
D03*
Y298450D02*
D03*
Y323850D02*
D03*
Y349250D02*
D03*
X698500Y67310D02*
D03*
X339090Y60960D02*
D03*
X364490D02*
D03*
X224790D02*
D03*
X250190D02*
D03*
X275590D02*
D03*
X300990D02*
D03*
X120650D02*
D03*
X146050D02*
D03*
X171450D02*
D03*
X196850D02*
D03*
X727946Y157907D02*
D03*
X725406Y132507D02*
D03*
Y107107D02*
D03*
X759460Y106680D02*
D03*
Y132080D02*
D03*
Y157480D02*
D03*
Y182880D02*
D03*
X132080Y618490D02*
D03*
X157480D02*
D03*
X182880D02*
D03*
X208280D02*
D03*
X236220Y636270D02*
D03*
X261620D02*
D03*
X287020D02*
D03*
X312420D02*
D03*
X133350D02*
D03*
X158750D02*
D03*
X184150D02*
D03*
X209550D02*
D03*
X327660Y624840D02*
D03*
X353060D02*
D03*
X378460D02*
D03*
X403860D02*
D03*
X398780Y638810D02*
D03*
X424180D02*
D03*
X449580D02*
D03*
X474980D02*
D03*
X683260Y565150D02*
D03*
X708660D02*
D03*
X734060D02*
D03*
X759460D02*
D03*
X618490Y588010D02*
D03*
X643890D02*
D03*
X669290D02*
D03*
X694690D02*
D03*
X618490Y615950D02*
D03*
X643890D02*
D03*
X669290D02*
D03*
X694690D02*
D03*
X621030Y638810D02*
D03*
X646430D02*
D03*
X671830D02*
D03*
X697230D02*
D03*
X762000Y459740D02*
D03*
Y485140D02*
D03*
X762000Y510540D02*
D03*
Y535940D02*
D03*
X584288Y364881D02*
D03*
Y356880D02*
D03*
Y340380D02*
D03*
Y332379D02*
D03*
X594288Y364881D02*
D03*
Y356880D02*
D03*
Y340380D02*
D03*
Y332379D02*
D03*
X604288Y364881D02*
D03*
Y356880D02*
D03*
Y340380D02*
D03*
Y332379D02*
D03*
X675892Y331078D02*
D03*
Y344180D02*
D03*
X683262Y403873D02*
D03*
X604288Y382682D02*
D03*
Y374881D02*
D03*
X614288Y382682D02*
D03*
Y374881D02*
D03*
X665892Y381092D02*
D03*
X683262Y395143D02*
D03*
X681990Y381092D02*
D03*
X672488D02*
D03*
X681990Y371092D02*
D03*
X672488D02*
D03*
X284480Y218597D02*
D03*
Y228597D02*
D03*
X691090Y434182D02*
D03*
X699590D02*
D03*
X710090D02*
D03*
X151130Y435958D02*
D03*
X674390Y512732D02*
D03*
X165129Y501803D02*
D03*
X604688Y503096D02*
D03*
X151130Y429230D02*
D03*
X610869Y503096D02*
D03*
X170613Y501803D02*
D03*
X694545Y131572D02*
D03*
Y141553D02*
D03*
X584055Y151553D02*
D03*
X652780Y533400D02*
D03*
X574043Y207717D02*
D03*
X309813Y123701D02*
D03*
X179303Y124895D02*
D03*
X189230Y261239D02*
D03*
X308229Y269851D02*
D03*
X398780Y573385D02*
D03*
X462085Y447040D02*
D03*
X376316Y451460D02*
D03*
X357447Y486251D02*
D03*
X385269Y472888D02*
D03*
X146928Y339563D02*
D03*
Y346710D02*
D03*
X156059Y302879D02*
D03*
X156150Y310880D02*
D03*
X163746Y346710D02*
D03*
X155745D02*
D03*
Y339563D02*
D03*
X163746D02*
D03*
X317813Y123701D02*
D03*
X154940Y106299D02*
D03*
Y114300D02*
D03*
X132080Y106299D02*
D03*
Y114300D02*
D03*
X152557Y219331D02*
D03*
Y211330D02*
D03*
X238618Y147759D02*
D03*
X377126Y175189D02*
D03*
X342960Y281045D02*
D03*
X204012Y134981D02*
D03*
X214553Y280651D02*
D03*
X475908Y173335D02*
D03*
X458021Y173465D02*
D03*
X471932Y191262D02*
D03*
X441960Y173366D02*
D03*
X452374Y179324D02*
D03*
X441960Y179832D02*
D03*
X525618Y276860D02*
D03*
Y282956D02*
D03*
X504160Y485140D02*
D03*
X487479Y469502D02*
D03*
X475972Y472934D02*
D03*
X559837Y511810D02*
D03*
X556377Y228120D02*
D03*
X157609Y496788D02*
D03*
X180848Y473710D02*
D03*
X200469Y433040D02*
D03*
X398780Y567924D02*
D03*
X257791Y510750D02*
D03*
X263442D02*
D03*
X135187Y551809D02*
D03*
X418106Y568587D02*
D03*
Y575539D02*
D03*
X311850Y525140D02*
D03*
X303372Y525100D02*
D03*
X640852Y311078D02*
D03*
Y321078D02*
D03*
X614288Y332379D02*
D03*
Y364881D02*
D03*
X589374Y396982D02*
D03*
X602140D02*
D03*
X363220Y314908D02*
D03*
X623090Y396494D02*
D03*
X589374Y373127D02*
D03*
X623090Y402492D02*
D03*
Y408491D02*
D03*
X632714Y411607D02*
D03*
Y417322D02*
D03*
X434328Y333896D02*
D03*
X577392Y413766D02*
D03*
Y407880D02*
D03*
X358845Y169298D02*
D03*
X342960Y286760D02*
D03*
X363220Y323988D02*
D03*
X356870Y324148D02*
D03*
X350266Y314908D02*
D03*
X368705Y85090D02*
D03*
X228198Y167041D02*
D03*
Y157786D02*
D03*
X134857Y448630D02*
D03*
X142279Y501803D02*
D03*
X169062Y481240D02*
D03*
X353060Y435610D02*
D03*
X213349Y501803D02*
D03*
X631590Y434182D02*
D03*
Y442682D02*
D03*
X577392Y305880D02*
D03*
X570230Y276860D02*
D03*
X101600Y529269D02*
D03*
X369325Y176376D02*
D03*
X344806Y134090D02*
D03*
X212013Y134981D02*
D03*
X246619Y147759D02*
D03*
X187304Y124895D02*
D03*
X323822Y490774D02*
D03*
X304518Y516372D02*
D03*
X654950Y484991D02*
D03*
X632318Y493006D02*
D03*
Y498890D02*
D03*
X273050Y488638D02*
D03*
X240030D02*
D03*
X483844Y441124D02*
D03*
X167913Y414382D02*
D03*
X129706Y484268D02*
D03*
X528010Y343821D02*
D03*
Y320120D02*
D03*
Y326390D02*
D03*
Y337740D02*
D03*
X562788Y365380D02*
D03*
Y373880D02*
D03*
Y399380D02*
D03*
X682590Y419578D02*
D03*
X214553Y286103D02*
D03*
X503555Y446405D02*
D03*
X530860Y449580D02*
D03*
X547370Y447040D02*
D03*
X238158Y123719D02*
D03*
X377126Y167188D02*
D03*
X247889Y327639D02*
D03*
X225148D02*
D03*
X231140D02*
D03*
X562788Y305880D02*
D03*
X313690Y269851D02*
D03*
X189230Y269240D02*
D03*
X505460Y149627D02*
D03*
X492760Y160020D02*
D03*
Y149860D02*
D03*
Y138430D02*
D03*
X441960D02*
D03*
Y149860D02*
D03*
Y160020D02*
D03*
X470534Y173335D02*
D03*
X452355D02*
D03*
X228198Y174429D02*
D03*
X655320Y83820D02*
D03*
X665590Y279578D02*
D03*
X737352Y239682D02*
D03*
X626244Y168855D02*
D03*
X528980Y204612D02*
D03*
X539882D02*
D03*
X674749Y148428D02*
D03*
X634245Y168855D02*
D03*
X669546Y204497D02*
D03*
X479552Y191262D02*
D03*
X415270Y230029D02*
D03*
X511810Y262032D02*
D03*
X574296Y249261D02*
D03*
X490410Y366068D02*
D03*
X412932Y382108D02*
D03*
X414202Y375951D02*
D03*
X447040Y378917D02*
D03*
X461329D02*
D03*
X472801D02*
D03*
X465882Y397616D02*
D03*
Y385005D02*
D03*
Y391310D02*
D03*
X461241D02*
D03*
Y385005D02*
D03*
Y397616D02*
D03*
X610814Y523544D02*
D03*
X653998Y476340D02*
D03*
X653656Y512732D02*
D03*
X643656D02*
D03*
X598762Y529077D02*
D03*
X604524D02*
D03*
X475368Y493069D02*
D03*
X490171Y517871D02*
D03*
X436259Y472687D02*
D03*
X468816Y447040D02*
D03*
X445567Y511101D02*
D03*
Y493728D02*
D03*
X466910Y455930D02*
D03*
X370855Y451460D02*
D03*
X302966Y445110D02*
D03*
X274458Y516372D02*
D03*
X196438Y473710D02*
D03*
X194472Y421640D02*
D03*
X190228Y473710D02*
D03*
X702788Y314380D02*
D03*
X205019Y514605D02*
D03*
X196719Y508105D02*
D03*
X188487Y501803D02*
D03*
X143261Y543215D02*
D03*
X428035Y575539D02*
D03*
X427990Y493069D02*
D03*
X490171Y522870D02*
D03*
X450850Y575543D02*
D03*
X134854Y435958D02*
D03*
X702788Y416380D02*
D03*
Y407880D02*
D03*
Y390880D02*
D03*
Y399380D02*
D03*
Y382380D02*
D03*
Y373880D02*
D03*
Y365380D02*
D03*
Y356880D02*
D03*
Y348380D02*
D03*
Y339880D02*
D03*
Y331380D02*
D03*
Y322880D02*
D03*
Y305880D02*
D03*
Y297380D02*
D03*
X710090Y279578D02*
D03*
X728588Y519390D02*
D03*
Y527391D02*
D03*
Y535392D02*
D03*
X614590Y294182D02*
D03*
X606090D02*
D03*
X597590D02*
D03*
X589090D02*
D03*
X580590D02*
D03*
X674090D02*
D03*
X682590D02*
D03*
X665892Y344180D02*
D03*
X640852Y382682D02*
D03*
X665892Y373380D02*
D03*
Y356880D02*
D03*
Y331078D02*
D03*
X640852D02*
D03*
X614288Y340380D02*
D03*
Y356880D02*
D03*
X415270Y249079D02*
D03*
X547370Y420208D02*
D03*
X518279Y409188D02*
D03*
X697230Y223221D02*
D03*
X752138Y233680D02*
D03*
X750454Y228062D02*
D03*
X538480Y244742D02*
D03*
X422093Y186690D02*
D03*
X429124Y179262D02*
D03*
Y138558D02*
D03*
X408940Y138558D02*
D03*
X232200Y510993D02*
D03*
X298695Y334238D02*
D03*
X368705Y93816D02*
D03*
X316528Y94615D02*
D03*
X277144Y91815D02*
D03*
X318773Y103632D02*
D03*
X266700Y91868D02*
D03*
X284480Y208597D02*
D03*
Y198597D02*
D03*
Y188597D02*
D03*
X168579Y69676D02*
D03*
X173101Y202536D02*
D03*
X166370Y192493D02*
D03*
X135187Y543215D02*
D03*
X200089Y566101D02*
D03*
X187323D02*
D03*
D160*
X533281Y437490D02*
D03*
X737870Y165100D02*
D03*
D161*
X151638Y413639D02*
D03*
X143637D02*
D03*
X135636D02*
D03*
Y421640D02*
D03*
X143637D02*
D03*
X151638D02*
D03*
D162*
X337553Y307341D02*
D03*
X209283Y307853D02*
D03*
X505206Y268351D02*
D03*
Y275082D02*
D03*
X494919Y268351D02*
D03*
X498348D02*
D03*
X501777D02*
D03*
Y275082D02*
D03*
X498348D02*
D03*
X494919D02*
D03*
X528480Y583250D02*
D03*
X538480D02*
D03*
Y588170D02*
D03*
X528480D02*
D03*
Y593090D02*
D03*
X538480D02*
D03*
X346520Y156400D02*
D03*
X342520D02*
D03*
X220013Y161291D02*
D03*
X216013Y157291D02*
D03*
X208013Y161291D02*
D03*
X354520Y144400D02*
D03*
X350520Y160400D02*
D03*
X212013Y149291D02*
D03*
X216013D02*
D03*
X220013D02*
D03*
Y153291D02*
D03*
X212013Y157291D02*
D03*
X220013D02*
D03*
X342520Y148400D02*
D03*
X346520D02*
D03*
X350520D02*
D03*
Y152400D02*
D03*
X341553Y295341D02*
D03*
X345553D02*
D03*
X349553D02*
D03*
Y299341D02*
D03*
Y303341D02*
D03*
X345553D02*
D03*
X341553D02*
D03*
X213283Y295853D02*
D03*
X217283D02*
D03*
X221283D02*
D03*
Y299853D02*
D03*
X213283Y303853D02*
D03*
X217283D02*
D03*
X221283D02*
D03*
X610869Y513079D02*
D03*
X471987Y508840D02*
D03*
Y515213D02*
D03*
X463986Y521587D02*
D03*
Y515213D02*
D03*
Y508840D02*
D03*
X471987Y521587D02*
D03*
X221283Y307853D02*
D03*
X350520Y156400D02*
D03*
D163*
X189467Y517355D02*
D03*
Y526855D02*
D03*
X179967D02*
D03*
Y517355D02*
D03*
X176200Y442290D02*
D03*
Y451790D02*
D03*
X166700D02*
D03*
Y442290D02*
D03*
D166*
X215105Y531655D02*
X265175D01*
X187960Y558800D02*
X215105Y531655D01*
X191770Y561340D02*
Y568083D01*
X195424Y563684D02*
Y571656D01*
X221101Y538006D02*
X316704D01*
X195424Y563684D02*
X221101Y538006D01*
X218087Y535023D02*
X265650D01*
X191770Y561340D02*
X218087Y535023D01*
X100309Y523003D02*
X101266D01*
X92042Y514737D02*
X100309Y523003D01*
X97239Y504738D02*
X102202D01*
X109999Y512534D01*
X147866D01*
X186379Y573475D02*
X191770Y568083D01*
X121671Y557779D02*
X137366Y573475D01*
X186379D01*
X176498Y570262D02*
X187960Y558800D01*
X139732Y570262D02*
X176498D01*
X121279Y551809D02*
X139732Y570262D01*
X119096Y551809D02*
X121279D01*
X87506Y553267D02*
X97790D01*
X102303Y557779D02*
X121671D01*
X97790Y553267D02*
X102303Y557779D01*
X190500Y576580D02*
X195424Y571656D01*
X119096Y562689D02*
X132987Y576580D01*
X190500D01*
X122352Y459740D02*
X138430D01*
X92042Y473972D02*
X102667Y463347D01*
X118745D02*
X122352Y459740D01*
X102667Y463347D02*
X118745D01*
X92042Y473972D02*
Y514737D01*
X87506Y547267D02*
X89668Y549429D01*
X97001D02*
X102942Y543488D01*
X89668Y549429D02*
X97001D01*
X79396Y512919D02*
X102942Y536465D01*
Y543488D01*
X73187Y516927D02*
X94231Y537971D01*
X73187Y424729D02*
Y516927D01*
X99060Y536767D02*
Y539547D01*
X76583Y514291D02*
X99060Y536767D01*
X76583Y426030D02*
Y514291D01*
X94176Y544431D02*
X99060Y539547D01*
X70304Y422656D02*
Y544014D01*
X88556Y562266D02*
X103152D01*
X70304Y544014D02*
X88556Y562266D01*
X123915Y507980D02*
X125564Y509630D01*
X144491D01*
X133438Y501731D02*
X146108Y489061D01*
X122729Y501731D02*
X133438D01*
X146108Y489061D02*
X219599D01*
X116191Y508268D02*
X122729Y501731D01*
X128270Y496570D02*
X133475D01*
X143702Y486343D01*
X217237D01*
X143547Y481240D02*
X169570D01*
X121695Y491715D02*
X133072D01*
X143547Y481240D01*
X143165Y477101D02*
X170711D01*
X131933Y488332D02*
X143165Y477101D01*
X118197Y488332D02*
X131933D01*
X147866Y512534D02*
X162659Y497741D01*
X116840Y496570D02*
X121695Y491715D01*
X116698Y489832D02*
X118197Y488332D01*
X130339Y477909D02*
X136698Y471550D01*
X98262Y488382D02*
X108735Y477909D01*
X130339D01*
X130858Y472488D02*
X140422Y462925D01*
X98262Y481154D02*
X106928Y472488D01*
X130858D01*
X138430Y459740D02*
X138524Y459646D01*
X79396Y440034D02*
Y512919D01*
Y440034D02*
X85327Y434103D01*
X82169Y443611D02*
Y509838D01*
X101600Y529269D01*
X82169Y443611D02*
X88434Y437346D01*
X76583Y426030D02*
X109991Y392622D01*
X73187Y424729D02*
X108597Y389318D01*
X88434Y437346D02*
X98306D01*
X85327Y434103D02*
X97491D01*
X128114Y403480D01*
X486790D01*
X129051Y406601D02*
X489692D01*
X98306Y437346D02*
X129051Y406601D01*
X125658Y399515D02*
X419559D01*
X96241Y428931D02*
X125658Y399515D01*
X87912Y429143D02*
X121288Y395767D01*
X417397D01*
X64808Y555675D02*
X74402Y565268D01*
X64808Y417284D02*
Y555675D01*
X67556Y552423D02*
X74402Y559269D01*
X67556Y418854D02*
Y552423D01*
X132938Y427279D02*
X142451D01*
X124980Y435237D02*
X132938Y427279D01*
X262890Y323829D02*
X326192D01*
X259080Y327639D02*
X262890Y323829D01*
X247889Y327639D02*
X259080D01*
X266700Y329499D02*
X325943D01*
X225148Y327639D02*
X230208Y322580D01*
X232410D01*
X242570Y332740D01*
X263459D01*
X266700Y329499D01*
X242585Y339084D02*
X348124D01*
X231140Y327639D02*
X242585Y339084D01*
X349553Y303341D02*
X349777D01*
X354473Y308038D02*
X463755D01*
X349777Y303341D02*
X354473Y308038D01*
X324993Y318770D02*
X332959Y310804D01*
X466899D02*
X492998Y284706D01*
X332959Y310804D02*
X466899D01*
X463755Y308038D02*
X490065Y281728D01*
X328930Y321092D02*
X353024D01*
X326192Y323829D02*
X328930Y321092D01*
X243840Y318770D02*
X324993D01*
X228923Y303853D02*
X243840Y318770D01*
X221283Y303853D02*
X228923D01*
X515626Y152725D02*
X554670Y191770D01*
X509270Y88900D02*
X515626Y95256D01*
Y152725D01*
X526916Y145916D02*
X560612Y179612D01*
X597024D01*
X619848Y202436D01*
X558394Y184000D02*
X576486D01*
X523495Y149101D02*
X558394Y184000D01*
X576486D02*
X614931Y222445D01*
Y234983D01*
X526916Y113021D02*
Y145916D01*
Y113021D02*
X546353Y93584D01*
Y84077D02*
Y93584D01*
X539615Y77339D02*
X546353Y84077D01*
X526919Y77339D02*
X539615D01*
X513080Y63500D02*
X526919Y77339D01*
X549863Y77653D02*
X560070Y67445D01*
Y63500D02*
Y67445D01*
X557240Y283907D02*
X604710D01*
X554426Y280879D02*
X608913D01*
X560852Y289836D02*
X593244D01*
X495736Y287877D02*
X538558D01*
X556533Y269903D02*
X608899D01*
X509087Y304076D02*
X546611D01*
X504670Y296672D02*
X544474D01*
X538558Y287877D02*
X556533Y269903D01*
X507589Y299666D02*
X546660D01*
X501674Y293760D02*
X541545D01*
X510819Y308255D02*
X547340D01*
X498806Y290717D02*
X540437D01*
X546660Y299666D02*
X559391Y286935D01*
X561795Y293800D02*
X580208D01*
X544474Y296672D02*
X557240Y283907D01*
X547340Y308255D02*
X561795Y293800D01*
X541545Y293760D02*
X554426Y280879D01*
X558354Y272801D02*
X606717D01*
X546611Y304076D02*
X560852Y289836D01*
X540437Y290717D02*
X558354Y272801D01*
X559391Y286935D02*
X599238D01*
X290133Y510540D02*
X326436D01*
X265650Y535023D02*
X290133Y510540D01*
X619719Y445729D02*
X631265Y434182D01*
X612140Y453308D02*
X619719Y445729D01*
X612140Y453308D02*
Y481330D01*
X598590Y494880D02*
X612140Y481330D01*
X614313Y507130D02*
X622300Y499143D01*
X526187Y507130D02*
X614313D01*
X622300Y451972D02*
Y499143D01*
Y451972D02*
X631590Y442682D01*
X519810Y494880D02*
X598590D01*
X631265Y434182D02*
X631590D01*
X165129Y501803D02*
Y515649D01*
X171450Y521970D01*
X316704Y538006D02*
X328930Y525780D01*
X422910D02*
X438150Y541020D01*
X328930Y525780D02*
X422910D01*
X171450Y521970D02*
X262507D01*
X162659Y497741D02*
X271879D01*
X274320Y495300D02*
X335194D01*
X271879Y497741D02*
X274320Y495300D01*
X276860Y498040D02*
X331642D01*
X223266Y510993D02*
X233780Y500480D01*
X274420D02*
X276860Y498040D01*
X233780Y500480D02*
X274420D01*
X326436Y510540D02*
X336733Y520836D01*
X423046D02*
X439689Y537479D01*
X336733Y520836D02*
X423046D01*
X338209Y517825D02*
X426385D01*
X327491Y507107D02*
X338209Y517825D01*
X426385D02*
X443230Y534670D01*
X289723Y507107D02*
X327491D01*
X265175Y531655D02*
X289723Y507107D01*
X262507Y521970D02*
X280450Y504026D01*
X329124D01*
X339474Y514376D01*
X330067Y500946D02*
X339407Y510286D01*
X279362Y500946D02*
X330067D01*
X261554Y518754D02*
X279362Y500946D01*
X339474Y514376D02*
X428016D01*
X444500Y530860D01*
X198206Y518754D02*
X261554D01*
X339407Y510286D02*
X431122D01*
X340537Y506934D02*
X441400D01*
X331642Y498040D02*
X340537Y506934D01*
X181255Y501803D02*
X198206Y518754D01*
X170613Y501803D02*
X181255D01*
X441400Y506934D02*
X445567Y511101D01*
X435864Y125730D02*
Y180383D01*
X442375Y186894D02*
X443374D01*
X435864Y180383D02*
X442375Y186894D01*
X520075Y198771D02*
X571629D01*
X497586Y176281D02*
X520075Y198771D01*
X497586Y128016D02*
Y176281D01*
X500380Y125887D02*
Y174752D01*
X343408Y109474D02*
X483967D01*
X500380Y125887D01*
X337058Y115824D02*
X343408Y109474D01*
X482848Y113278D02*
X497586Y128016D01*
X358140Y123698D02*
X368560Y113278D01*
X482848D01*
X358140Y123698D02*
Y151130D01*
X521604Y195977D02*
X572786D01*
X500380Y174752D02*
X521604Y195977D01*
X337058Y115824D02*
Y155448D01*
X333795Y158711D02*
X337058Y155448D01*
X406549Y118604D02*
X410627Y122682D01*
X432816D01*
X435864Y125730D01*
X452355Y168736D02*
Y173335D01*
X454845Y156039D02*
Y166246D01*
X452355Y168736D02*
X454845Y166246D01*
X328422Y331978D02*
X349040D01*
X325943Y329499D02*
X328422Y331978D01*
X349040D02*
X356870Y324148D01*
X285639Y182977D02*
X292542Y189881D01*
X336874Y184293D02*
X361496Y159671D01*
X296691Y184293D02*
X336874D01*
X294104Y187151D02*
X340993D01*
X286909Y179955D02*
X294104Y187151D01*
X340993D02*
X358845Y169298D01*
X355585Y189881D02*
X369089Y176376D01*
X292542Y189881D02*
X355585D01*
X289052Y176653D02*
X296691Y184293D01*
X261143Y176653D02*
X289052D01*
X259069Y179955D02*
X286909D01*
X255168Y182977D02*
X285639D01*
X327523Y173056D02*
X333795Y166783D01*
X264242Y173056D02*
X327523D01*
X333795Y158711D02*
Y166783D01*
X248920Y164431D02*
X261143Y176653D01*
X244609Y153423D02*
X264242Y173056D01*
X248920Y169806D02*
X259069Y179955D01*
X246619Y174429D02*
X255168Y182977D01*
X109982Y100090D02*
Y372110D01*
X118618Y100787D02*
X139080Y80324D01*
X114808Y99483D02*
X136937Y77354D01*
X118618Y100787D02*
Y374342D01*
X114808Y99483D02*
Y371602D01*
X136937Y77354D02*
X396124D01*
X135666Y74406D02*
X443976D01*
X139080Y80324D02*
X288350D01*
X109982Y100090D02*
X135666Y74406D01*
X396124Y77354D02*
X407670Y88900D01*
X288350Y80324D02*
X307563Y99537D01*
X443976Y74406D02*
X458470Y88900D01*
X307563Y99537D02*
X423615D01*
X226531Y153423D02*
X244609D01*
X234844Y164431D02*
X248920D01*
X230963Y169806D02*
X248920D01*
X228198Y167041D02*
X230963Y169806D01*
X228198Y157786D02*
X234844Y164431D01*
X605899Y222881D02*
Y238214D01*
X574788Y191770D02*
X605899Y222881D01*
X571629Y198771D02*
X600204Y227345D01*
X555112Y187960D02*
X576058D01*
X554670Y191770D02*
X574788D01*
X609600Y221502D02*
Y235783D01*
X602998Y226188D02*
Y241444D01*
X572786Y195977D02*
X602998Y226188D01*
X600204Y227345D02*
Y244782D01*
X576058Y187960D02*
X609600Y221502D01*
X510314Y284706D02*
X522501Y272519D01*
X508488Y281728D02*
X521462Y268755D01*
X490065Y281728D02*
X508488D01*
X492998Y284706D02*
X510314D01*
X521462Y268755D02*
X548363D01*
X522501Y272519D02*
X549679D01*
X363432Y324201D02*
X471233D01*
X468778Y314835D02*
X495736Y287877D01*
X367668Y319541D02*
X469983D01*
X363293Y314835D02*
X468778D01*
X471233Y324201D02*
X501674Y293760D01*
X469983Y319541D02*
X498806Y290717D01*
X381814Y428850D02*
X518353D01*
X346536Y460235D02*
X381000Y425771D01*
X393899Y431601D02*
X521843D01*
X347698Y462966D02*
X381814Y428850D01*
X345375Y457504D02*
X379922Y422957D01*
X381000Y425771D02*
X515190D01*
X518353Y428850D02*
X556260Y390942D01*
X384127Y441373D02*
X393899Y431601D01*
X515190Y425771D02*
X549910Y391051D01*
X511763Y422957D02*
X528010Y406710D01*
X379922Y422957D02*
X511763D01*
X521843Y431601D02*
X562788Y390656D01*
X248009Y465696D02*
X374794D01*
X384127Y441373D02*
Y456363D01*
X374794Y465696D02*
X384127Y456363D01*
X243345Y460235D02*
X346536D01*
X245694Y462966D02*
X347698D01*
X378922Y420065D02*
X500322D01*
X237377Y454773D02*
X344213D01*
X378922Y420065D01*
X343052Y452043D02*
X378139Y416955D01*
X497408D01*
X239726Y457504D02*
X345375D01*
X235027Y452043D02*
X343052D01*
X497408Y416955D02*
X517954Y396410D01*
X494416Y413924D02*
X512925Y395415D01*
X218499Y462925D02*
X267499Y413924D01*
X494416D01*
X215994Y459646D02*
X265199Y410441D01*
X674718Y239682D02*
X737352D01*
X614931Y234983D02*
X655320Y275372D01*
X619848Y233768D02*
X660289Y274209D01*
X619848Y202436D02*
Y233768D01*
X64808Y417284D02*
X109982Y372110D01*
X67556Y418854D02*
X114808Y371602D01*
X70304Y422656D02*
X118618Y374342D01*
X500712Y541020D02*
X522361Y519371D01*
X438150Y541020D02*
X500712D01*
X500020Y537479D02*
X520951Y516548D01*
X439689Y537479D02*
X500020D01*
X431122Y510286D02*
X447886Y527050D01*
X443230Y534670D02*
X498647D01*
X444500Y530860D02*
X495356D01*
X498647Y534670D02*
X526187Y507130D01*
X495356Y530860D02*
X523120Y503096D01*
X447886Y527050D02*
X492760D01*
X521303Y498507D01*
X614568Y519371D02*
X632318Y501622D01*
X522361Y519371D02*
X614568D01*
X612551Y516548D02*
X625908Y503191D01*
X520951Y516548D02*
X612551D01*
X625908Y499416D02*
Y503191D01*
X665590Y248810D02*
X674718Y239682D01*
X665590Y248810D02*
Y279578D01*
X667256Y410210D02*
X672473Y404993D01*
Y399489D02*
Y404993D01*
X660289Y387305D02*
X672473Y399489D01*
X660289Y274209D02*
Y387305D01*
X655320Y390273D02*
X667256Y402209D01*
X523495Y82516D02*
Y149101D01*
X655320Y275372D02*
Y390273D01*
X495009Y74639D02*
X515618D01*
X523495Y82516D01*
X509270Y63500D02*
X513080D01*
X519888Y84442D02*
Y152736D01*
X555112Y187960D01*
X513658Y78212D02*
X519888Y84442D01*
X494558Y78212D02*
X513658D01*
X483870Y88900D02*
X494558Y78212D01*
X618744Y290710D02*
Y386061D01*
X593996Y392588D02*
X612217D01*
X618744Y386061D01*
X602140Y396982D02*
X611785D01*
X621599Y287682D02*
Y387168D01*
X611785Y396982D02*
X621599Y387168D01*
X589603Y396982D02*
X593996Y392588D01*
X589374Y396982D02*
X589603D01*
X142451Y427279D02*
X151130Y435958D01*
X607900Y498507D02*
X610869Y501476D01*
X521303Y498507D02*
X607900D01*
X512953Y501736D02*
X519810Y494880D01*
X610869Y501476D02*
Y503096D01*
X523120D02*
X604688D01*
X483870Y63500D02*
X495009Y74639D01*
X632318Y498890D02*
Y501622D01*
X625908Y499416D02*
X632318Y493006D01*
X605899Y238214D02*
X645552Y277867D01*
X602998Y241444D02*
X636736Y275183D01*
X600204Y244782D02*
X633803Y278381D01*
X353024Y321092D02*
X359208Y314908D01*
X423615Y99537D02*
X434013Y89139D01*
X222663Y157291D02*
X226531Y153423D01*
X412024Y389318D02*
X504670Y296672D01*
X157609Y496788D02*
X159720Y494677D01*
X144491Y509630D02*
X151165Y502955D01*
Y497297D02*
Y502955D01*
Y497297D02*
X156593Y491869D01*
X221836D01*
X159720Y494677D02*
X226073D01*
X136698Y471550D02*
X172820D01*
X179234Y477964D02*
X209106D01*
X172820Y471550D02*
X179234Y477964D01*
X178146Y480714D02*
X211436D01*
X171776Y474345D02*
X178146Y480714D01*
X139417Y474345D02*
X171776D01*
X170711Y477101D02*
X177181Y483570D01*
X213660D01*
X560942Y369570D02*
X585817D01*
X589374Y373127D01*
X636736Y275183D02*
Y413299D01*
X632714Y417322D02*
X636736Y413299D01*
X632714Y411607D02*
X633803Y410518D01*
Y278381D02*
Y410518D01*
X609600Y235783D02*
X648571Y274754D01*
X645552Y277867D02*
Y479772D01*
X648571Y274754D02*
Y482637D01*
X350520Y156400D02*
X352870D01*
X358140Y151130D01*
X614565Y263283D02*
X630878Y279597D01*
X623090Y408491D02*
X630878Y400702D01*
Y279597D02*
Y400702D01*
X627763Y281561D02*
Y397819D01*
X623090Y402492D02*
X627763Y397819D01*
X613077Y266875D02*
X627763Y281561D01*
X608899Y269903D02*
X624482Y285485D01*
X623090Y396494D02*
X624482Y395103D01*
Y285485D02*
Y395103D01*
X606717Y272801D02*
X621599Y287682D01*
X367666Y319542D02*
X367668Y319541D01*
X363220Y323988D02*
X363432Y324201D01*
X361476Y319542D02*
X367666D01*
X356870Y324148D02*
X361476Y319542D01*
X359208Y314908D02*
X363220D01*
X555323Y266875D02*
X613077D01*
X548363Y268755D02*
X553835Y263283D01*
X549679Y272519D02*
X555323Y266875D01*
X553835Y263283D02*
X614565D01*
X608913Y280879D02*
X618744Y290710D01*
X604710Y283907D02*
X614590Y293787D01*
X599238Y286935D02*
X606090Y293786D01*
X593244Y289836D02*
X597590Y294182D01*
X348124Y339084D02*
X363220Y323988D01*
X220013Y157291D02*
X222663D01*
X369089Y176376D02*
X369325D01*
X108597Y389318D02*
X412024D01*
X414633Y392622D02*
X507589Y299666D01*
X109991Y392622D02*
X414633D01*
X417397Y395767D02*
X509087Y304076D01*
X419559Y399515D02*
X510819Y308255D01*
X491876Y410441D02*
X507897Y394420D01*
X265199Y410441D02*
X491876D01*
X138524Y459646D02*
X215994D01*
X521897Y312493D02*
X556175D01*
X497840Y336550D02*
X521897Y312493D01*
X497840Y336550D02*
Y392430D01*
X486790Y403480D02*
X497840Y392430D01*
X502868Y337901D02*
X520649Y320120D01*
X489692Y406601D02*
X502868Y393425D01*
Y337901D02*
Y393425D01*
X520649Y320120D02*
X528010D01*
X129706Y484055D02*
X139417Y474345D01*
X129706Y484055D02*
Y484268D01*
X140422Y462925D02*
X218499D01*
X512925Y339317D02*
Y395415D01*
X507897Y338171D02*
X520105Y325963D01*
X507897Y338171D02*
Y394420D01*
X520105Y325963D02*
X527583D01*
X521592Y330650D02*
X554190D01*
X512925Y339317D02*
X521592Y330650D01*
X211436Y480714D02*
X237377Y454773D01*
X213660Y483570D02*
X239726Y457504D01*
X209106Y477964D02*
X235027Y452043D01*
X217237Y486343D02*
X243345Y460235D01*
X219599Y489061D02*
X245694Y462966D01*
X221836Y491869D02*
X248009Y465696D01*
X226073Y494677D02*
X252323Y468427D01*
X341630Y501736D02*
X512953D01*
X335194Y495300D02*
X341630Y501736D01*
X523784Y333466D02*
X563154D01*
X517954Y339296D02*
X523784Y333466D01*
X517954Y339296D02*
Y396410D01*
X474980Y442502D02*
X480942Y436540D01*
X474980Y442502D02*
Y455930D01*
X480942Y436540D02*
X523145D01*
X462483Y468427D02*
X474980Y455930D01*
X252323Y468427D02*
X462483D01*
X522982Y342768D02*
Y397405D01*
X500322Y420065D02*
X522982Y397405D01*
Y342768D02*
X528010Y337740D01*
X523145Y436540D02*
X560305Y399380D01*
X528010Y343821D02*
Y406710D01*
X549910Y373486D02*
Y391051D01*
X558016Y365380D02*
X562788D01*
X549910Y373486D02*
X558016Y365380D01*
X556260Y374252D02*
Y390942D01*
Y374252D02*
X560942Y369570D01*
X562788Y373880D02*
Y390656D01*
X560305Y399380D02*
X562788D01*
X580208Y293800D02*
X580590Y294182D01*
X577392Y305880D02*
Y307448D01*
X554190Y330650D02*
X577392Y307448D01*
X614590Y293787D02*
Y294182D01*
X606090Y293786D02*
Y294182D01*
X556175Y312493D02*
X562788Y305880D01*
X527583Y325963D02*
X528010Y326390D01*
X563154Y333466D02*
X589090Y307530D01*
Y294182D02*
Y307530D01*
X632318Y493006D02*
X645552Y479772D01*
X632318Y498890D02*
X648571Y482637D01*
D167*
X496742Y461986D02*
Y467135D01*
X486437Y477441D02*
X496742Y467135D01*
X493115Y458358D02*
X496742Y461986D01*
X493115Y456418D02*
Y458358D01*
X257889Y477441D02*
X486437D01*
X490220Y453523D02*
X493115Y456418D01*
X490220Y453390D02*
Y453523D01*
X248101Y491961D02*
X250055D01*
X252057Y489958D01*
X246830Y490690D02*
X248101Y491961D01*
X246830Y488638D02*
Y490690D01*
X254060Y481270D02*
Y484633D01*
X252057Y486636D02*
X254060Y484633D01*
Y481270D02*
X257889Y477441D01*
X252057Y486636D02*
Y489958D01*
X500212Y460549D02*
Y468573D01*
X487874Y480910D02*
X500212Y468573D01*
X497072Y457409D02*
X500212Y460549D01*
X497072Y453893D02*
Y457409D01*
X496570Y453390D02*
X497072Y453893D01*
X262162Y488638D02*
X265830D01*
X257529Y484006D02*
X262162Y488638D01*
X259326Y480910D02*
X487874D01*
X257529Y482708D02*
Y484006D01*
Y482708D02*
X259326Y480910D01*
X273035Y566789D02*
Y570760D01*
X271739Y565493D02*
X273035Y566789D01*
X272295Y571500D02*
X273035Y570760D01*
X267342Y571500D02*
X272295D01*
X273732Y574970D02*
X276505Y572197D01*
Y567000D02*
Y572197D01*
X269818Y574970D02*
X273732D01*
X276505Y567000D02*
X278011Y565493D01*
X263009Y583597D02*
X264500Y582107D01*
Y574341D02*
Y582107D01*
X267970Y582287D02*
X269281Y583597D01*
X264500Y574341D02*
X267342Y571500D01*
X267970Y576818D02*
Y582287D01*
Y576818D02*
X269818Y574970D01*
D168*
X294785Y161566D02*
X322888D01*
X300463Y142036D02*
X326564D01*
X135040Y104593D02*
X147439Y92194D01*
X135040Y104593D02*
Y111322D01*
X147439Y92194D02*
X250621D01*
X300463Y142036D01*
X243574Y110354D02*
X294785Y161566D01*
X182118Y309372D02*
X197612D01*
X132588Y284734D02*
Y317928D01*
X139992Y325331D02*
X166159D01*
X132588Y317928D02*
X139992Y325331D01*
X166159D02*
X182118Y309372D01*
X132588Y284734D02*
X147066Y270256D01*
X162377Y110354D02*
X243574D01*
M02*
