G04*
G04 #@! TF.GenerationSoftware,Altium Limited,Altium Designer,23.1.1 (15)*
G04*
G04 Layer_Color=255*
%FSLAX44Y44*%
%MOMM*%
G71*
G04*
G04 #@! TF.SameCoordinates,D1EA7B9B-11C4-41B5-954D-5070AA3C9977*
G04*
G04*
G04 #@! TF.FilePolarity,Positive*
G04*
G01*
G75*
%ADD23R,0.6500X0.3000*%
%ADD24R,0.8000X0.3000*%
%ADD25R,0.9500X0.5000*%
%ADD26R,1.4000X2.8000*%
%ADD27R,0.8000X0.8000*%
%ADD28R,3.4000X0.9800*%
%ADD29R,0.8000X0.8000*%
%ADD30R,2.8000X1.4000*%
%ADD31R,1.0400X0.5320*%
%ADD32R,0.6600X0.6200*%
%ADD33R,1.2960X1.7575*%
%ADD34R,2.7430X2.1590*%
%ADD35R,0.6200X0.6600*%
G04:AMPARAMS|DCode=36|XSize=0.24mm|YSize=0.6mm|CornerRadius=0.0504mm|HoleSize=0mm|Usage=FLASHONLY|Rotation=270.000|XOffset=0mm|YOffset=0mm|HoleType=Round|Shape=RoundedRectangle|*
%AMROUNDEDRECTD36*
21,1,0.2400,0.4992,0,0,270.0*
21,1,0.1392,0.6000,0,0,270.0*
1,1,0.1008,-0.2496,-0.0696*
1,1,0.1008,-0.2496,0.0696*
1,1,0.1008,0.2496,0.0696*
1,1,0.1008,0.2496,-0.0696*
%
%ADD36ROUNDEDRECTD36*%
G04:AMPARAMS|DCode=37|XSize=0.24mm|YSize=0.6mm|CornerRadius=0.0504mm|HoleSize=0mm|Usage=FLASHONLY|Rotation=180.000|XOffset=0mm|YOffset=0mm|HoleType=Round|Shape=RoundedRectangle|*
%AMROUNDEDRECTD37*
21,1,0.2400,0.4992,0,0,180.0*
21,1,0.1392,0.6000,0,0,180.0*
1,1,0.1008,-0.0696,0.2496*
1,1,0.1008,0.0696,0.2496*
1,1,0.1008,0.0696,-0.2496*
1,1,0.1008,-0.0696,-0.2496*
%
%ADD37ROUNDEDRECTD37*%
%ADD38R,0.7154X0.6725*%
%ADD39R,1.0121X1.1581*%
%ADD40R,0.5725X0.6153*%
%ADD41R,1.1581X1.0121*%
%ADD42R,3.5000X1.2000*%
%ADD43R,0.9000X0.8000*%
%ADD44R,0.5050X0.2800*%
%ADD45R,0.9000X1.7000*%
%ADD46R,0.6153X0.5725*%
G04:AMPARAMS|DCode=47|XSize=0.67mm|YSize=0.3mm|CornerRadius=0.0495mm|HoleSize=0mm|Usage=FLASHONLY|Rotation=270.000|XOffset=0mm|YOffset=0mm|HoleType=Round|Shape=RoundedRectangle|*
%AMROUNDEDRECTD47*
21,1,0.6700,0.2010,0,0,270.0*
21,1,0.5710,0.3000,0,0,270.0*
1,1,0.0990,-0.1005,-0.2855*
1,1,0.0990,-0.1005,0.2855*
1,1,0.0990,0.1005,0.2855*
1,1,0.0990,0.1005,-0.2855*
%
%ADD47ROUNDEDRECTD47*%
%ADD48R,1.4500X1.5500*%
%ADD49R,1.7000X1.0000*%
%ADD50R,1.8052X0.6121*%
G04:AMPARAMS|DCode=51|XSize=1.8052mm|YSize=0.6121mm|CornerRadius=0.3061mm|HoleSize=0mm|Usage=FLASHONLY|Rotation=180.000|XOffset=0mm|YOffset=0mm|HoleType=Round|Shape=RoundedRectangle|*
%AMROUNDEDRECTD51*
21,1,1.8052,0.0000,0,0,180.0*
21,1,1.1931,0.6121,0,0,180.0*
1,1,0.6121,-0.5966,0.0000*
1,1,0.6121,0.5966,0.0000*
1,1,0.6121,0.5966,0.0000*
1,1,0.6121,-0.5966,0.0000*
%
%ADD51ROUNDEDRECTD51*%
%ADD52R,0.9800X3.4000*%
%ADD53R,0.9970X1.5450*%
G04:AMPARAMS|DCode=54|XSize=0.65mm|YSize=1.2mm|CornerRadius=0.0488mm|HoleSize=0mm|Usage=FLASHONLY|Rotation=180.000|XOffset=0mm|YOffset=0mm|HoleType=Round|Shape=RoundedRectangle|*
%AMROUNDEDRECTD54*
21,1,0.6500,1.1025,0,0,180.0*
21,1,0.5525,1.2000,0,0,180.0*
1,1,0.0975,-0.2763,0.5513*
1,1,0.0975,0.2763,0.5513*
1,1,0.0975,0.2763,-0.5513*
1,1,0.0975,-0.2763,-0.5513*
%
%ADD54ROUNDEDRECTD54*%
%ADD55C,0.1955*%
%ADD56R,0.8000X0.9000*%
G04:AMPARAMS|DCode=57|XSize=0.6182mm|YSize=0.1566mm|CornerRadius=0.0783mm|HoleSize=0mm|Usage=FLASHONLY|Rotation=270.000|XOffset=0mm|YOffset=0mm|HoleType=Round|Shape=RoundedRectangle|*
%AMROUNDEDRECTD57*
21,1,0.6182,0.0000,0,0,270.0*
21,1,0.4616,0.1566,0,0,270.0*
1,1,0.1566,0.0000,-0.2308*
1,1,0.1566,0.0000,0.2308*
1,1,0.1566,0.0000,0.2308*
1,1,0.1566,0.0000,-0.2308*
%
%ADD57ROUNDEDRECTD57*%
%ADD58R,0.1566X0.6182*%
%ADD59R,1.2000X1.2000*%
%ADD60R,0.8000X0.4000*%
%ADD61R,0.4000X0.8000*%
%ADD62R,0.8000X0.8000*%
%ADD63R,1.1000X1.2000*%
%ADD64R,0.9582X1.1061*%
G04:AMPARAMS|DCode=65|XSize=1.21mm|YSize=0.59mm|CornerRadius=0.0738mm|HoleSize=0mm|Usage=FLASHONLY|Rotation=90.000|XOffset=0mm|YOffset=0mm|HoleType=Round|Shape=RoundedRectangle|*
%AMROUNDEDRECTD65*
21,1,1.2100,0.4425,0,0,90.0*
21,1,1.0625,0.5900,0,0,90.0*
1,1,0.1475,0.2213,0.5313*
1,1,0.1475,0.2213,-0.5313*
1,1,0.1475,-0.2213,-0.5313*
1,1,0.1475,-0.2213,0.5313*
%
%ADD65ROUNDEDRECTD65*%
%ADD123C,1.2000*%
%ADD124R,0.5400X0.5657*%
%ADD125R,0.5657X0.5400*%
G04:AMPARAMS|DCode=126|XSize=1.45mm|YSize=1.45mm|CornerRadius=0.0508mm|HoleSize=0mm|Usage=FLASHONLY|Rotation=180.000|XOffset=0mm|YOffset=0mm|HoleType=Round|Shape=RoundedRectangle|*
%AMROUNDEDRECTD126*
21,1,1.4500,1.3485,0,0,180.0*
21,1,1.3485,1.4500,0,0,180.0*
1,1,0.1015,-0.6743,0.6743*
1,1,0.1015,0.6743,0.6743*
1,1,0.1015,0.6743,-0.6743*
1,1,0.1015,-0.6743,-0.6743*
%
%ADD126ROUNDEDRECTD126*%
G04:AMPARAMS|DCode=127|XSize=1.7mm|YSize=1.7mm|CornerRadius=0mm|HoleSize=0mm|Usage=FLASHONLY|Rotation=270.000|XOffset=0mm|YOffset=0mm|HoleType=Round|Shape=Octagon|*
%AMOCTAGOND127*
4,1,8,-0.4250,-0.8500,0.4250,-0.8500,0.8500,-0.4250,0.8500,0.4250,0.4250,0.8500,-0.4250,0.8500,-0.8500,0.4250,-0.8500,-0.4250,-0.4250,-0.8500,0.0*
%
%ADD127OCTAGOND127*%

%ADD128R,0.2800X0.8000*%
%ADD129R,0.8000X0.2800*%
%ADD130R,0.8640X0.8065*%
%ADD131R,1.3770X1.1325*%
%ADD132R,0.5400X0.7901*%
%ADD133R,0.7901X0.5400*%
%ADD134R,1.3500X1.4100*%
%ADD135R,0.8065X0.8640*%
%ADD136C,0.2300*%
%ADD137C,0.2400*%
%ADD138R,0.4000X0.4000*%
%ADD139R,0.6000X1.1500*%
%ADD140R,0.3000X1.1500*%
%ADD152C,1.7000*%
%ADD153R,1.7000X1.7000*%
%ADD154C,1.8000*%
%ADD155R,1.8000X1.8000*%
%ADD156O,1.0000X1.8000*%
%ADD157O,1.0000X2.1000*%
%ADD158C,4.0000*%
D23*
X109704Y556266D02*
D03*
Y574267D02*
D03*
Y568268D02*
D03*
Y562266D02*
D03*
Y550267D02*
D03*
Y544267D02*
D03*
Y538268D02*
D03*
Y532266D02*
D03*
Y526267D02*
D03*
Y520267D02*
D03*
Y514268D02*
D03*
Y508268D02*
D03*
Y502266D02*
D03*
Y496267D02*
D03*
Y490267D02*
D03*
Y484268D02*
D03*
Y478268D02*
D03*
Y472266D02*
D03*
Y466267D02*
D03*
Y460267D02*
D03*
Y454268D02*
D03*
Y448268D02*
D03*
D24*
X80954Y553267D02*
D03*
Y577267D02*
D03*
Y571268D02*
D03*
Y565268D02*
D03*
Y559266D02*
D03*
Y547267D02*
D03*
Y541268D02*
D03*
Y535268D02*
D03*
Y529266D02*
D03*
Y523267D02*
D03*
Y517267D02*
D03*
Y511268D02*
D03*
Y505266D02*
D03*
Y499266D02*
D03*
Y493267D02*
D03*
Y487267D02*
D03*
Y481268D02*
D03*
X80955Y475266D02*
D03*
X80954Y469266D02*
D03*
Y463267D02*
D03*
Y457267D02*
D03*
Y451268D02*
D03*
Y445266D02*
D03*
D25*
X83705Y584267D02*
D03*
Y438268D02*
D03*
D26*
X546757Y163775D02*
D03*
X571756Y226879D02*
D03*
X596755Y163775D02*
D03*
X695559Y161488D02*
D03*
X670560Y224592D02*
D03*
X645561Y161488D02*
D03*
D27*
X619726Y241675D02*
D03*
X619794Y225685D02*
D03*
X640080Y242189D02*
D03*
Y225171D02*
D03*
X414054Y463857D02*
D03*
X413986Y479846D02*
D03*
X284514Y75825D02*
D03*
X284446Y91815D02*
D03*
D28*
X474032Y255009D02*
D03*
Y278709D02*
D03*
X519190Y505602D02*
D03*
Y529302D02*
D03*
D29*
X393654Y472156D02*
D03*
X376636D02*
D03*
D30*
X393700Y504952D02*
D03*
X330596Y529951D02*
D03*
X393700Y554949D02*
D03*
D31*
X418064Y426110D02*
D03*
Y435610D02*
D03*
Y445110D02*
D03*
X440964D02*
D03*
Y435610D02*
D03*
Y426110D02*
D03*
X385508D02*
D03*
Y435610D02*
D03*
Y445110D02*
D03*
X362607D02*
D03*
Y435610D02*
D03*
Y426110D02*
D03*
X281960D02*
D03*
Y435610D02*
D03*
Y445110D02*
D03*
X259060D02*
D03*
Y435610D02*
D03*
Y426110D02*
D03*
X333607D02*
D03*
Y435610D02*
D03*
Y445110D02*
D03*
X310706D02*
D03*
Y435610D02*
D03*
Y426110D02*
D03*
D32*
X340450Y321310D02*
D03*
X349250D02*
D03*
X148049Y517091D02*
D03*
X156849D02*
D03*
X158840Y421640D02*
D03*
X167640D02*
D03*
X187870D02*
D03*
X179070D02*
D03*
X343303Y174808D02*
D03*
X352104D02*
D03*
X221596D02*
D03*
X212796D02*
D03*
X746670Y165100D02*
D03*
X737870D02*
D03*
X542200Y281940D02*
D03*
X533400D02*
D03*
D33*
X306070D02*
D03*
Y315666D02*
D03*
X177654Y285995D02*
D03*
Y319721D02*
D03*
X306070Y135537D02*
D03*
Y169263D02*
D03*
X177654Y139433D02*
D03*
Y173159D02*
D03*
D34*
X271780Y320903D02*
D03*
Y276703D02*
D03*
X146855Y325466D02*
D03*
Y281266D02*
D03*
X271780Y174500D02*
D03*
Y130300D02*
D03*
X146855Y134196D02*
D03*
Y178396D02*
D03*
D35*
X239820Y288970D02*
D03*
Y297770D02*
D03*
X406400Y397510D02*
D03*
Y388710D02*
D03*
X266700Y98470D02*
D03*
Y107270D02*
D03*
X627380Y483780D02*
D03*
Y474980D02*
D03*
X660400Y476340D02*
D03*
Y485140D02*
D03*
X547370Y426810D02*
D03*
Y435610D02*
D03*
X296970Y516300D02*
D03*
Y525100D02*
D03*
D36*
X198717Y514605D02*
D03*
Y519605D02*
D03*
Y524605D02*
D03*
Y529605D02*
D03*
X170717D02*
D03*
Y524605D02*
D03*
Y519605D02*
D03*
Y514605D02*
D03*
X185450Y439540D02*
D03*
Y444540D02*
D03*
Y449540D02*
D03*
Y454540D02*
D03*
X157450D02*
D03*
Y449540D02*
D03*
Y444540D02*
D03*
Y439540D02*
D03*
D37*
X192217Y536105D02*
D03*
X187217D02*
D03*
X182217D02*
D03*
X177217D02*
D03*
X182217Y508105D02*
D03*
X187217D02*
D03*
X192217D02*
D03*
X177217D02*
D03*
X178950Y461040D02*
D03*
X173950D02*
D03*
X168950D02*
D03*
X163950D02*
D03*
X168950Y433040D02*
D03*
X173950D02*
D03*
X178950D02*
D03*
X163950D02*
D03*
D38*
X467654Y549910D02*
D03*
X477226D02*
D03*
D39*
X450850Y566450D02*
D03*
Y549910D02*
D03*
X428035Y566446D02*
D03*
Y549907D02*
D03*
X427990Y510510D02*
D03*
Y527050D02*
D03*
X505460Y158720D02*
D03*
Y175260D02*
D03*
X490410Y391700D02*
D03*
X490410Y375160D02*
D03*
D40*
X474980Y455611D02*
D03*
Y447040D02*
D03*
D41*
X504160Y476250D02*
D03*
X520700D02*
D03*
X568930Y513080D02*
D03*
X585470D02*
D03*
D42*
X434282Y322580D02*
D03*
X487680D02*
D03*
D43*
X406400Y375951D02*
D03*
X406400Y361950D02*
D03*
D44*
X454249Y398620D02*
D03*
Y393619D02*
D03*
Y388620D02*
D03*
X454249Y383619D02*
D03*
X472801D02*
D03*
X472801Y388620D02*
D03*
X472801Y393619D02*
D03*
X472801Y398620D02*
D03*
D45*
X463525Y391119D02*
D03*
D46*
X461329Y372110D02*
D03*
X469900Y372110D02*
D03*
D47*
X443472Y279339D02*
D03*
X438472D02*
D03*
X433472D02*
D03*
Y264539D02*
D03*
X438472D02*
D03*
X443472D02*
D03*
D48*
X444162Y249079D02*
D03*
X425162D02*
D03*
X444822Y230029D02*
D03*
X425822D02*
D03*
D49*
X180381Y106680D02*
D03*
Y69676D02*
D03*
X246380Y69676D02*
D03*
Y106680D02*
D03*
X674390Y535392D02*
D03*
X740390Y535392D02*
D03*
Y498388D02*
D03*
X674390Y498388D02*
D03*
D50*
X356376Y74816D02*
D03*
D51*
Y93816D02*
D03*
X333367Y84316D02*
D03*
D52*
X455510Y135890D02*
D03*
X479210D02*
D03*
D53*
X732654Y184285D02*
D03*
X750454D02*
D03*
Y217035D02*
D03*
X732654D02*
D03*
D54*
X528980Y235440D02*
D03*
X538480D02*
D03*
X547980D02*
D03*
Y264940D02*
D03*
X528980D02*
D03*
D55*
X542290Y320120D02*
D03*
X537290D02*
D03*
X532290D02*
D03*
X542290Y325120D02*
D03*
X537290D02*
D03*
X532290D02*
D03*
X542290Y330120D02*
D03*
X537290D02*
D03*
X532290D02*
D03*
X542290Y335120D02*
D03*
X537290D02*
D03*
X532290D02*
D03*
D56*
X530830Y398780D02*
D03*
X544830D02*
D03*
D57*
X649620Y476250D02*
D03*
X646120D02*
D03*
X642620D02*
D03*
X639120D02*
D03*
Y484793D02*
D03*
X642620D02*
D03*
X646120D02*
D03*
D58*
X649620D02*
D03*
D59*
X640090Y373380D02*
D03*
X623590D02*
D03*
Y356880D02*
D03*
Y340380D02*
D03*
X640090D02*
D03*
X656590D02*
D03*
Y356880D02*
D03*
X640090D02*
D03*
D60*
X710090Y416380D02*
D03*
Y407880D02*
D03*
Y399380D02*
D03*
Y390880D02*
D03*
Y382380D02*
D03*
Y373880D02*
D03*
Y365380D02*
D03*
Y356880D02*
D03*
Y348380D02*
D03*
Y339880D02*
D03*
Y331380D02*
D03*
Y322880D02*
D03*
Y314380D02*
D03*
Y305880D02*
D03*
Y297380D02*
D03*
X570090D02*
D03*
Y305880D02*
D03*
Y314380D02*
D03*
Y322880D02*
D03*
Y331380D02*
D03*
Y339880D02*
D03*
Y348380D02*
D03*
Y356880D02*
D03*
Y365380D02*
D03*
Y373880D02*
D03*
Y382380D02*
D03*
Y390880D02*
D03*
Y399380D02*
D03*
Y407880D02*
D03*
Y416380D02*
D03*
D61*
X699590Y286880D02*
D03*
X691090D02*
D03*
X682590D02*
D03*
X674090D02*
D03*
X665590D02*
D03*
X657090D02*
D03*
X648590D02*
D03*
X640090D02*
D03*
X631590D02*
D03*
X623090D02*
D03*
X614590D02*
D03*
X606090D02*
D03*
X597590D02*
D03*
X589090D02*
D03*
X580590D02*
D03*
Y426880D02*
D03*
X589090D02*
D03*
X597590D02*
D03*
X606090D02*
D03*
X614590D02*
D03*
X623090D02*
D03*
X631590D02*
D03*
X640090D02*
D03*
X648590D02*
D03*
X657090D02*
D03*
X682590D02*
D03*
X691090D02*
D03*
X699590D02*
D03*
X665590D02*
D03*
X674090D02*
D03*
D62*
X570090Y286880D02*
D03*
X710090D02*
D03*
X570090Y426880D02*
D03*
X710090D02*
D03*
D63*
X518279Y418490D02*
D03*
Y437490D02*
D03*
X533281Y418490D02*
D03*
Y437490D02*
D03*
D64*
X474980Y420370D02*
D03*
X474980Y433892D02*
D03*
D65*
X246830Y523090D02*
D03*
X256330D02*
D03*
X265830D02*
D03*
Y497990D02*
D03*
X256330D02*
D03*
X246830D02*
D03*
D123*
X737870Y447040D02*
D03*
X689610D02*
D03*
X486410Y204470D02*
D03*
X513080Y274320D02*
D03*
X515620Y218440D02*
D03*
X511810Y252730D02*
D03*
X574040Y259080D02*
D03*
X236220Y447040D02*
D03*
X200162Y470242D02*
D03*
X160587Y486545D02*
D03*
X140267D02*
D03*
X402590Y450850D02*
D03*
X453390Y415290D02*
D03*
X384810Y118110D02*
D03*
X480627Y232043D02*
D03*
X712470Y236220D02*
D03*
X513080Y303530D02*
D03*
X510540Y347980D02*
D03*
X635000Y554990D02*
D03*
X586740Y537210D02*
D03*
X548640Y490220D02*
D03*
X586740D02*
D03*
X612140D02*
D03*
X635000Y537210D02*
D03*
X679960Y477267D02*
D03*
X330200Y556260D02*
D03*
X292100Y538480D02*
D03*
X215197Y556395D02*
D03*
X131572Y565404D02*
D03*
X668020Y67310D02*
D03*
D124*
X637540Y267559D02*
D03*
Y258903D02*
D03*
X428752Y481622D02*
D03*
Y472965D02*
D03*
X459100D02*
D03*
Y481622D02*
D03*
X135187Y524573D02*
D03*
Y515916D02*
D03*
X175827Y483487D02*
D03*
Y492143D02*
D03*
X191067D02*
D03*
Y483487D02*
D03*
X470850Y481622D02*
D03*
Y472965D02*
D03*
X482600D02*
D03*
Y481622D02*
D03*
X379730Y79988D02*
D03*
Y88644D02*
D03*
X695960Y238008D02*
D03*
Y229352D02*
D03*
X624409Y267559D02*
D03*
Y258903D02*
D03*
X611278Y267559D02*
D03*
Y258903D02*
D03*
X598147Y267559D02*
D03*
Y258903D02*
D03*
X232200Y525780D02*
D03*
Y517124D02*
D03*
X280460Y525028D02*
D03*
Y516372D02*
D03*
X200089Y551315D02*
D03*
Y559971D02*
D03*
X187323Y551315D02*
D03*
Y559971D02*
D03*
X174557Y551315D02*
D03*
Y559971D02*
D03*
D125*
X350002Y469900D02*
D03*
X358658D02*
D03*
X156777Y542623D02*
D03*
X148121D02*
D03*
X156777Y529857D02*
D03*
X148121D02*
D03*
Y504325D02*
D03*
X156777D02*
D03*
X203698Y455023D02*
D03*
X212355D02*
D03*
X134854Y454660D02*
D03*
X143510D02*
D03*
X134854Y441960D02*
D03*
X143510D02*
D03*
X286786Y106680D02*
D03*
X278130D02*
D03*
X301742Y94615D02*
D03*
X310398D02*
D03*
X301742Y82550D02*
D03*
X310398D02*
D03*
X436880Y186690D02*
D03*
X428224D02*
D03*
X463560Y205994D02*
D03*
X454904D02*
D03*
X737352Y233680D02*
D03*
X746008D02*
D03*
X532926Y357538D02*
D03*
X541583D02*
D03*
X532926Y370304D02*
D03*
X541583D02*
D03*
X643656Y519430D02*
D03*
X635000D02*
D03*
Y506730D02*
D03*
X643656D02*
D03*
X323850Y483870D02*
D03*
X332506D02*
D03*
Y496570D02*
D03*
X323850D02*
D03*
D126*
X184717Y522105D02*
D03*
X171450Y447040D02*
D03*
D127*
X467870Y515369D02*
D03*
D128*
X460370Y530371D02*
D03*
X465368D02*
D03*
X470370D02*
D03*
X475368D02*
D03*
Y500371D02*
D03*
X470370D02*
D03*
X465368D02*
D03*
X460370D02*
D03*
D129*
X482869Y522870D02*
D03*
Y517871D02*
D03*
Y512870D02*
D03*
Y507871D02*
D03*
X452869D02*
D03*
Y512870D02*
D03*
Y517871D02*
D03*
Y522870D02*
D03*
D130*
X445130Y484309D02*
D03*
Y469241D02*
D03*
D131*
X425450Y394970D02*
D03*
Y374970D02*
D03*
D132*
X441960Y382958D02*
D03*
X441960Y393860D02*
D03*
X600710Y539379D02*
D03*
Y550281D02*
D03*
D133*
X300619Y106680D02*
D03*
X311521D02*
D03*
D134*
X429124Y168910D02*
D03*
Y148910D02*
D03*
X408940Y148910D02*
D03*
Y168910D02*
D03*
D135*
X440690Y200660D02*
D03*
X425623Y200660D02*
D03*
D136*
X474280Y186705D02*
D03*
X470280D02*
D03*
X466280D02*
D03*
X462280D02*
D03*
X458280D02*
D03*
X474280Y182705D02*
D03*
X470280D02*
D03*
X466280D02*
D03*
X462280D02*
D03*
X458280D02*
D03*
X474280Y178705D02*
D03*
X470280D02*
D03*
X466280D02*
D03*
X462280D02*
D03*
X458280D02*
D03*
D137*
X605870Y518080D02*
D03*
Y513079D02*
D03*
X610869Y518080D02*
D03*
Y513079D02*
D03*
X615870Y518080D02*
D03*
Y513079D02*
D03*
Y508080D02*
D03*
X610869D02*
D03*
X605870D02*
D03*
D138*
X656590Y373380D02*
D03*
D139*
X302512Y574546D02*
D03*
X294510D02*
D03*
X238511D02*
D03*
X246509D02*
D03*
D140*
X253009D02*
D03*
X258011D02*
D03*
X263009D02*
D03*
X268011D02*
D03*
X273009D02*
D03*
X278011D02*
D03*
X283009D02*
D03*
X288011D02*
D03*
D152*
X483870Y63500D02*
D03*
X509270D02*
D03*
X407670Y88900D02*
D03*
X433070Y63500D02*
D03*
Y88900D02*
D03*
X458470Y63500D02*
D03*
Y88900D02*
D03*
X483870D02*
D03*
X509270D02*
D03*
X534670Y63500D02*
D03*
Y88900D02*
D03*
X560070Y63500D02*
D03*
Y88900D02*
D03*
X585470Y63500D02*
D03*
Y88900D02*
D03*
X610870Y63500D02*
D03*
Y88900D02*
D03*
X636270Y63500D02*
D03*
Y88900D02*
D03*
D153*
X407670Y63500D02*
D03*
D154*
X533715Y607239D02*
D03*
D155*
X558714D02*
D03*
D156*
X227310Y621795D02*
D03*
X313710D02*
D03*
D157*
X227310Y580296D02*
D03*
X313710D02*
D03*
D158*
X743290Y625800D02*
D03*
Y75800D02*
D03*
X84690D02*
D03*
Y625793D02*
D03*
M02*
