G04*
G04 #@! TF.GenerationSoftware,Altium Limited,Altium Designer,23.1.1 (15)*
G04*
G04 Layer_Physical_Order=2*
G04 Layer_Color=36540*
%FSLAX44Y44*%
%MOMM*%
G71*
G04*
G04 #@! TF.SameCoordinates,D1EA7B9B-11C4-41B5-954D-5070AA3C9977*
G04*
G04*
G04 #@! TF.FilePolarity,Positive*
G04*
G01*
G75*
%ADD13C,0.2540*%
%ADD152C,1.7000*%
%ADD153R,1.7000X1.7000*%
%ADD154C,1.8000*%
%ADD155R,1.8000X1.8000*%
%ADD156O,1.0000X1.8000*%
%ADD157O,1.0000X2.1000*%
%ADD158C,4.0000*%
%ADD159C,0.4064*%
%ADD160C,0.3048*%
%ADD161C,0.5080*%
%ADD162C,0.2540*%
%ADD163C,0.5000*%
G04:AMPARAMS|DCode=164|XSize=1mm|YSize=1mm|CornerRadius=0mm|HoleSize=0mm|Usage=FLASHONLY|Rotation=225.000|XOffset=0mm|YOffset=0mm|HoleType=Round|Shape=Rectangle|*
%AMROTATEDRECTD164*
4,1,4,0.0000,0.7071,0.7071,0.0000,0.0000,-0.7071,-0.7071,0.0000,0.0000,0.7071,0.0*
%
%ADD164ROTATEDRECTD164*%

%ADD165P,1.0776X4X270.0*%
G36*
X733847Y646286D02*
X732613Y645775D01*
X728922Y643308D01*
X725782Y640168D01*
X723315Y636477D01*
X721616Y632375D01*
X720750Y628020D01*
Y623580D01*
X721616Y619225D01*
X723315Y615123D01*
X725782Y611432D01*
X728922Y608292D01*
X732613Y605825D01*
X736715Y604126D01*
X741070Y603260D01*
X745510D01*
X749865Y604126D01*
X753967Y605825D01*
X757658Y608292D01*
X760798Y611432D01*
X763265Y615123D01*
X763783Y616374D01*
X765053Y616121D01*
Y436470D01*
X717340D01*
X716349Y436273D01*
X715509Y435711D01*
X714947Y434871D01*
X714750Y433880D01*
Y279880D01*
X714947Y278889D01*
X715509Y278049D01*
X716349Y277487D01*
X717340Y277290D01*
X765053D01*
Y85478D01*
X763783Y85226D01*
X763265Y86477D01*
X760798Y90168D01*
X757658Y93308D01*
X753967Y95775D01*
X749865Y97474D01*
X745510Y98340D01*
X741070D01*
X736715Y97474D01*
X732613Y95775D01*
X728922Y93308D01*
X725782Y90168D01*
X723315Y86477D01*
X721616Y82375D01*
X720750Y78020D01*
Y73580D01*
X721616Y69225D01*
X723315Y65123D01*
X725782Y61432D01*
X728922Y58292D01*
X732613Y55825D01*
X733864Y55307D01*
X733612Y54037D01*
X644216D01*
X643690Y55307D01*
X645104Y56721D01*
X646558Y59239D01*
X647310Y62047D01*
Y64953D01*
X646558Y67761D01*
X645104Y70279D01*
X643049Y72334D01*
X640531Y73788D01*
X637723Y74540D01*
X634817D01*
X632009Y73788D01*
X629491Y72334D01*
X627436Y70279D01*
X625982Y67761D01*
X625230Y64953D01*
Y62047D01*
X625982Y59239D01*
X627436Y56721D01*
X628850Y55307D01*
X628324Y54037D01*
X618816D01*
X618290Y55307D01*
X619704Y56721D01*
X621158Y59239D01*
X621910Y62047D01*
Y64953D01*
X621158Y67761D01*
X619704Y70279D01*
X617649Y72334D01*
X615131Y73788D01*
X612323Y74540D01*
X609417D01*
X606609Y73788D01*
X604091Y72334D01*
X602036Y70279D01*
X600582Y67761D01*
X599830Y64953D01*
Y62047D01*
X600582Y59239D01*
X602036Y56721D01*
X603450Y55307D01*
X602924Y54037D01*
X593416D01*
X592890Y55307D01*
X594304Y56721D01*
X595758Y59239D01*
X596510Y62047D01*
Y64953D01*
X595758Y67761D01*
X594304Y70279D01*
X592249Y72334D01*
X589731Y73788D01*
X586923Y74540D01*
X584017D01*
X581209Y73788D01*
X578691Y72334D01*
X576636Y70279D01*
X575182Y67761D01*
X574430Y64953D01*
Y62047D01*
X575182Y59239D01*
X576636Y56721D01*
X578050Y55307D01*
X577524Y54037D01*
X568016D01*
X567490Y55307D01*
X568904Y56721D01*
X570358Y59239D01*
X571110Y62047D01*
Y64953D01*
X570358Y67761D01*
X568904Y70279D01*
X566849Y72334D01*
X564331Y73788D01*
X561523Y74540D01*
X558617D01*
X555809Y73788D01*
X553291Y72334D01*
X551236Y70279D01*
X549782Y67761D01*
X549030Y64953D01*
Y62047D01*
X549782Y59239D01*
X551236Y56721D01*
X552650Y55307D01*
X552124Y54037D01*
X542616D01*
X542090Y55307D01*
X543504Y56721D01*
X544958Y59239D01*
X545710Y62047D01*
Y64953D01*
X544958Y67761D01*
X543504Y70279D01*
X541449Y72334D01*
X538931Y73788D01*
X536123Y74540D01*
X533217D01*
X530409Y73788D01*
X527891Y72334D01*
X525836Y70279D01*
X524382Y67761D01*
X523630Y64953D01*
Y62047D01*
X524382Y59239D01*
X525836Y56721D01*
X527250Y55307D01*
X526724Y54037D01*
X517216D01*
X516690Y55307D01*
X518104Y56721D01*
X519558Y59239D01*
X520310Y62047D01*
Y64953D01*
X519558Y67761D01*
X518104Y70279D01*
X516049Y72334D01*
X513531Y73788D01*
X510723Y74540D01*
X507817D01*
X505009Y73788D01*
X502491Y72334D01*
X500436Y70279D01*
X498982Y67761D01*
X498230Y64953D01*
Y62047D01*
X498982Y59239D01*
X500436Y56721D01*
X501850Y55307D01*
X501324Y54037D01*
X491816D01*
X491290Y55307D01*
X492704Y56721D01*
X494158Y59239D01*
X494910Y62047D01*
Y64953D01*
X494158Y67761D01*
X492704Y70279D01*
X490649Y72334D01*
X488131Y73788D01*
X485323Y74540D01*
X482417D01*
X479609Y73788D01*
X477091Y72334D01*
X475036Y70279D01*
X473582Y67761D01*
X472830Y64953D01*
Y62047D01*
X473582Y59239D01*
X475036Y56721D01*
X476450Y55307D01*
X475924Y54037D01*
X466416D01*
X465890Y55307D01*
X467304Y56721D01*
X468758Y59239D01*
X469510Y62047D01*
Y64953D01*
X468758Y67761D01*
X467304Y70279D01*
X465249Y72334D01*
X462731Y73788D01*
X459923Y74540D01*
X457017D01*
X454209Y73788D01*
X451691Y72334D01*
X449636Y70279D01*
X448182Y67761D01*
X447430Y64953D01*
Y62047D01*
X448182Y59239D01*
X449636Y56721D01*
X451050Y55307D01*
X450524Y54037D01*
X441016D01*
X440490Y55307D01*
X441904Y56721D01*
X443358Y59239D01*
X444110Y62047D01*
Y64953D01*
X443358Y67761D01*
X441904Y70279D01*
X439849Y72334D01*
X437331Y73788D01*
X434523Y74540D01*
X431617D01*
X428809Y73788D01*
X426291Y72334D01*
X424236Y70279D01*
X422782Y67761D01*
X422030Y64953D01*
Y62047D01*
X422782Y59239D01*
X424236Y56721D01*
X425650Y55307D01*
X425124Y54037D01*
X418710D01*
Y74540D01*
X396630D01*
Y54037D01*
X94368D01*
X94116Y55307D01*
X95367Y55825D01*
X99058Y58292D01*
X102198Y61432D01*
X104665Y65123D01*
X106364Y69225D01*
X107230Y73580D01*
Y78020D01*
X106364Y82375D01*
X104665Y86477D01*
X102198Y90168D01*
X99058Y93308D01*
X95367Y95775D01*
X91265Y97474D01*
X86910Y98340D01*
X82470D01*
X78115Y97474D01*
X74013Y95775D01*
X70322Y93308D01*
X67182Y90168D01*
X64715Y86477D01*
X64197Y85226D01*
X62927Y85478D01*
Y616114D01*
X64197Y616367D01*
X64715Y615116D01*
X67182Y611424D01*
X70322Y608285D01*
X74013Y605818D01*
X78115Y604119D01*
X82470Y603253D01*
X86910D01*
X91265Y604119D01*
X95367Y605818D01*
X99058Y608285D01*
X102198Y611424D01*
X104665Y615116D01*
X106364Y619218D01*
X107230Y623573D01*
Y628013D01*
X106364Y632368D01*
X104665Y636470D01*
X102198Y640161D01*
X99058Y643301D01*
X95367Y645768D01*
X94116Y646286D01*
X94368Y647556D01*
X733594D01*
X733847Y646286D01*
D02*
G37*
%LPC*%
G36*
X313710Y633400D02*
X311742Y633140D01*
X309908Y632381D01*
X308333Y631172D01*
X307124Y629597D01*
X306364Y627763D01*
X306105Y625794D01*
Y617794D01*
X306364Y615826D01*
X307124Y613992D01*
X308333Y612417D01*
X309908Y611208D01*
X311742Y610449D01*
X313710Y610190D01*
X315679Y610449D01*
X317513Y611208D01*
X319088Y612417D01*
X320297Y613992D01*
X321056Y615826D01*
X321315Y617794D01*
Y625794D01*
X321056Y627763D01*
X320297Y629597D01*
X319088Y631172D01*
X317513Y632381D01*
X315679Y633140D01*
X313710Y633400D01*
D02*
G37*
G36*
X227310D02*
X225341Y633140D01*
X223507Y632381D01*
X221932Y631172D01*
X220723Y629597D01*
X219964Y627763D01*
X219705Y625794D01*
Y617794D01*
X219964Y615826D01*
X220723Y613992D01*
X221932Y612417D01*
X223507Y611208D01*
X225341Y610449D01*
X227310Y610190D01*
X229278Y610449D01*
X231112Y611208D01*
X232687Y612417D01*
X233896Y613992D01*
X234656Y615826D01*
X234915Y617794D01*
Y625794D01*
X234656Y627763D01*
X233896Y629597D01*
X232687Y631172D01*
X231112Y632381D01*
X229278Y633140D01*
X227310Y633400D01*
D02*
G37*
G36*
X313710Y593401D02*
X311742Y593142D01*
X309908Y592382D01*
X308333Y591174D01*
X307124Y589599D01*
X306364Y587764D01*
X306317Y587406D01*
X305031Y587364D01*
X304984Y587598D01*
X303676Y589556D01*
X301719Y590864D01*
X299410Y591323D01*
X297101Y590864D01*
X295144Y589556D01*
X293836Y587598D01*
X293377Y585290D01*
X293836Y582981D01*
X295144Y581023D01*
X297101Y579716D01*
X299410Y579256D01*
X301719Y579716D01*
X303676Y581023D01*
X304835Y582758D01*
X305893Y582629D01*
X306105Y582547D01*
Y574796D01*
X306364Y572828D01*
X307124Y570993D01*
X308333Y569418D01*
X309908Y568210D01*
X311742Y567450D01*
X313710Y567191D01*
X315679Y567450D01*
X317513Y568210D01*
X319088Y569418D01*
X320297Y570993D01*
X321056Y572828D01*
X321315Y574796D01*
Y585796D01*
X321056Y587764D01*
X320297Y589599D01*
X319088Y591174D01*
X317513Y592382D01*
X315679Y593142D01*
X313710Y593401D01*
D02*
G37*
G36*
X269937Y586899D02*
X268624D01*
X267410Y586397D01*
X266975Y585961D01*
X266145Y585610D01*
X265315Y585961D01*
X264880Y586397D01*
X263666Y586899D01*
X262353D01*
X261139Y586397D01*
X260210Y585468D01*
X259707Y584254D01*
Y582941D01*
X260210Y581727D01*
X261139Y580798D01*
X262353Y580295D01*
X263666D01*
X264880Y580798D01*
X265315Y581234D01*
X266145Y581585D01*
X266975Y581234D01*
X267410Y580798D01*
X268624Y580295D01*
X269937D01*
X271151Y580798D01*
X272080Y581727D01*
X272583Y582941D01*
Y584254D01*
X272080Y585468D01*
X271151Y586397D01*
X269937Y586899D01*
D02*
G37*
G36*
X535234Y618779D02*
X532196D01*
X529261Y617992D01*
X526629Y616473D01*
X524481Y614324D01*
X522962Y611693D01*
X522175Y608758D01*
Y605719D01*
X522962Y602784D01*
X524481Y600153D01*
X526629Y598004D01*
X528542Y596900D01*
X528202Y595630D01*
X527975D01*
X527041Y595243D01*
X526327Y594529D01*
X525940Y593595D01*
Y592585D01*
X526327Y591651D01*
X526518Y591460D01*
X526900Y590630D01*
X526518Y589800D01*
X526327Y589609D01*
X525940Y588675D01*
Y587665D01*
X526327Y586731D01*
X526518Y586540D01*
X526900Y585710D01*
X526518Y584880D01*
X526327Y584689D01*
X525940Y583755D01*
Y582745D01*
X526327Y581811D01*
X527041Y581097D01*
X527975Y580710D01*
X528985D01*
X529919Y581097D01*
X530633Y581811D01*
X531020Y582745D01*
Y583755D01*
X530633Y584689D01*
X530442Y584880D01*
X530060Y585710D01*
X530442Y586540D01*
X530633Y586731D01*
X531020Y587665D01*
Y588675D01*
X530633Y589609D01*
X530442Y589800D01*
X530060Y590630D01*
X530442Y591460D01*
X530633Y591651D01*
X531020Y592585D01*
Y593595D01*
X530633Y594529D01*
X530259Y594903D01*
X530917Y596041D01*
X532196Y595699D01*
X535234D01*
X535871Y595869D01*
X536529Y594731D01*
X536327Y594529D01*
X535940Y593595D01*
Y592585D01*
X536327Y591651D01*
X536518Y591460D01*
X536900Y590630D01*
X536518Y589800D01*
X536327Y589609D01*
X535940Y588675D01*
Y587665D01*
X536327Y586731D01*
X536518Y586540D01*
X536900Y585710D01*
X536518Y584880D01*
X536327Y584689D01*
X535940Y583755D01*
Y582745D01*
X536327Y581811D01*
X537041Y581097D01*
X537975Y580710D01*
X538985D01*
X539919Y581097D01*
X540633Y581811D01*
X541020Y582745D01*
Y583755D01*
X540633Y584689D01*
X540442Y584880D01*
X540060Y585710D01*
X540442Y586540D01*
X540633Y586731D01*
X541020Y587665D01*
Y588675D01*
X540633Y589609D01*
X540442Y589800D01*
X540060Y590630D01*
X540442Y591460D01*
X540633Y591651D01*
X541020Y592585D01*
Y593595D01*
X540633Y594529D01*
X539919Y595243D01*
X539127Y595571D01*
X538948Y596113D01*
X538888Y596900D01*
X540801Y598004D01*
X542949Y600153D01*
X544469Y602784D01*
X545255Y605719D01*
Y608758D01*
X544469Y611693D01*
X542949Y614324D01*
X540801Y616473D01*
X538169Y617992D01*
X535234Y618779D01*
D02*
G37*
G36*
X227310Y593401D02*
X225341Y593142D01*
X223507Y592382D01*
X221932Y591174D01*
X220723Y589599D01*
X219964Y587764D01*
X219705Y585796D01*
Y574796D01*
X219964Y572828D01*
X220723Y570993D01*
X221932Y569418D01*
X223507Y568210D01*
X225341Y567450D01*
X227310Y567191D01*
X229278Y567450D01*
X231112Y568210D01*
X232687Y569418D01*
X233896Y570993D01*
X234656Y572828D01*
X234915Y574796D01*
Y581971D01*
X235143Y582146D01*
X236860Y581862D01*
X237390Y581069D01*
X239326Y579776D01*
X241610Y579321D01*
X243894Y579776D01*
X245830Y581069D01*
X247124Y583006D01*
X247578Y585290D01*
X247449Y585937D01*
Y585937D01*
X247402Y586176D01*
X247124Y587574D01*
X246758Y588122D01*
X246757Y588122D01*
X246196Y588962D01*
X246196Y588963D01*
X245830Y589510D01*
X245282Y589876D01*
X245282Y589877D01*
X244441Y590438D01*
X244441Y590438D01*
X243894Y590804D01*
X243248Y590932D01*
X243247Y590933D01*
X242256Y591130D01*
X242255D01*
X241610Y591258D01*
X240964Y591130D01*
X240963D01*
X239972Y590932D01*
X239971Y590932D01*
X239326Y590804D01*
X238778Y590438D01*
X238777Y590438D01*
X237937Y589876D01*
X237937Y589876D01*
X237390Y589510D01*
X237024Y588962D01*
X237023Y588962D01*
X236462Y588121D01*
Y588121D01*
X236096Y587574D01*
X236015Y587168D01*
X234729Y587210D01*
X234656Y587764D01*
X233896Y589599D01*
X232687Y591174D01*
X231112Y592382D01*
X229278Y593142D01*
X227310Y593401D01*
D02*
G37*
G36*
X418763Y578841D02*
X417449D01*
X416236Y578339D01*
X415375Y577478D01*
X414515Y578339D01*
X413302Y578841D01*
X411988D01*
X410774Y578339D01*
X409846Y577410D01*
X409343Y576196D01*
Y574882D01*
X409846Y573669D01*
X410774Y572740D01*
Y571386D01*
X409846Y570458D01*
X409343Y569244D01*
Y567930D01*
X409846Y566717D01*
X410774Y565788D01*
X411988Y565285D01*
X413302D01*
X414515Y565788D01*
X415375Y566648D01*
X416236Y565788D01*
X417449Y565285D01*
X418763D01*
X419976Y565788D01*
X420905Y566717D01*
X421408Y567930D01*
Y569244D01*
X420905Y570458D01*
X419976Y571386D01*
Y572740D01*
X420905Y573669D01*
X421408Y574882D01*
Y576196D01*
X420905Y577410D01*
X419976Y578339D01*
X418763Y578841D01*
D02*
G37*
G36*
X102046Y579885D02*
X100732D01*
X99518Y579382D01*
X98590Y578453D01*
X98087Y577240D01*
Y575926D01*
X98590Y574713D01*
X99518Y573784D01*
X100732Y573281D01*
X102046D01*
X103259Y573784D01*
X104188Y574713D01*
X104691Y575926D01*
Y577240D01*
X104188Y578453D01*
X103259Y579382D01*
X102046Y579885D01*
D02*
G37*
G36*
X278667Y568795D02*
X277354D01*
X276140Y568293D01*
X275705Y567857D01*
X274875Y567506D01*
X274045Y567857D01*
X273610Y568293D01*
X272396Y568795D01*
X271082D01*
X269869Y568293D01*
X268940Y567364D01*
X268437Y566150D01*
Y564837D01*
X268940Y563623D01*
X269869Y562694D01*
X271082Y562191D01*
X272396D01*
X273610Y562694D01*
X274045Y563130D01*
X274875Y563481D01*
X275705Y563130D01*
X276140Y562694D01*
X277354Y562191D01*
X278667D01*
X279881Y562694D01*
X280810Y563623D01*
X281313Y564837D01*
Y566150D01*
X280810Y567364D01*
X279881Y568293D01*
X278667Y568795D01*
D02*
G37*
G36*
X246783Y566928D02*
X245469D01*
X244256Y566425D01*
X244094Y566264D01*
X243932Y566425D01*
X242719Y566928D01*
X241405D01*
X240192Y566425D01*
X240093Y566327D01*
X239995Y566425D01*
X238782Y566928D01*
X237468D01*
X236255Y566425D01*
X235326Y565496D01*
X234823Y564283D01*
Y562969D01*
X235326Y561756D01*
X235483Y561598D01*
X236204Y560769D01*
X235483Y559939D01*
X235326Y559781D01*
X234823Y558568D01*
Y557254D01*
X235326Y556041D01*
X236255Y555112D01*
X237468Y554609D01*
X238782D01*
X239995Y555112D01*
X240093Y555210D01*
X240192Y555112D01*
X241405Y554609D01*
X242719D01*
X243932Y555112D01*
X244094Y555273D01*
X244256Y555112D01*
X245469Y554609D01*
X246783D01*
X247996Y555112D01*
X248925Y556041D01*
X249428Y557254D01*
Y558568D01*
X248925Y559781D01*
X248768Y559939D01*
X248047Y560769D01*
X248768Y561598D01*
X248925Y561756D01*
X249428Y562969D01*
Y564283D01*
X248925Y565496D01*
X247996Y566425D01*
X246783Y566928D01*
D02*
G37*
G36*
X399437Y576687D02*
X398123D01*
X396910Y576184D01*
X395981Y575255D01*
X395478Y574041D01*
Y572728D01*
X395981Y571514D01*
X396841Y570654D01*
X395981Y569794D01*
X395478Y568581D01*
Y567267D01*
X395981Y566053D01*
X396910Y565124D01*
X398123Y564622D01*
X399437D01*
X400650Y565124D01*
X401579Y566053D01*
X402082Y567267D01*
Y568581D01*
X401579Y569794D01*
X400719Y570654D01*
X401579Y571514D01*
X402082Y572728D01*
Y574041D01*
X401579Y575255D01*
X400650Y576184D01*
X399437Y576687D01*
D02*
G37*
G36*
X389437D02*
X388123D01*
X386910Y576184D01*
X385981Y575255D01*
X385478Y574041D01*
Y572728D01*
X385981Y571514D01*
X386841Y570654D01*
X385981Y569794D01*
X385478Y568581D01*
Y567267D01*
X385981Y566053D01*
X386910Y565124D01*
X388123Y564622D01*
X389437D01*
X390650Y565124D01*
X391579Y566053D01*
X392082Y567267D01*
Y568581D01*
X391579Y569794D01*
X390719Y570654D01*
X391579Y571514D01*
X392082Y572728D01*
Y574041D01*
X391579Y575255D01*
X390650Y576184D01*
X389437Y576687D01*
D02*
G37*
G36*
X379437D02*
X378123D01*
X376910Y576184D01*
X375981Y575255D01*
X375478Y574041D01*
Y572728D01*
X375981Y571514D01*
X376841Y570654D01*
X375981Y569794D01*
X375478Y568581D01*
Y567267D01*
X375981Y566053D01*
X376910Y565124D01*
X378123Y564622D01*
X379437D01*
X380650Y565124D01*
X381579Y566053D01*
X382082Y567267D01*
Y568581D01*
X381579Y569794D01*
X380719Y570654D01*
X381579Y571514D01*
X382082Y572728D01*
Y574041D01*
X381579Y575255D01*
X380650Y576184D01*
X379437Y576687D01*
D02*
G37*
G36*
X200746Y569403D02*
X199433D01*
X198219Y568901D01*
X197290Y567972D01*
X196787Y566758D01*
Y565444D01*
X197290Y564231D01*
X198219Y563302D01*
X199433Y562799D01*
X200746D01*
X201960Y563302D01*
X202889Y564231D01*
X203391Y565444D01*
Y566758D01*
X202889Y567972D01*
X201960Y568901D01*
X200746Y569403D01*
D02*
G37*
G36*
X187980D02*
X186667D01*
X185453Y568901D01*
X184524Y567972D01*
X184021Y566758D01*
Y565444D01*
X184524Y564231D01*
X185453Y563302D01*
X186667Y562799D01*
X187980D01*
X189194Y563302D01*
X190123Y564231D01*
X190625Y565444D01*
Y566758D01*
X190123Y567972D01*
X189194Y568901D01*
X187980Y569403D01*
D02*
G37*
G36*
X418763Y563888D02*
X417449D01*
X416236Y563386D01*
X415375Y562525D01*
X414515Y563386D01*
X413302Y563888D01*
X411988D01*
X410774Y563386D01*
X409846Y562457D01*
X409343Y561243D01*
Y559929D01*
X409846Y558716D01*
X410774Y557787D01*
X411988Y557284D01*
X413302D01*
X414515Y557787D01*
X415375Y558647D01*
X416236Y557787D01*
X417449Y557284D01*
X418763D01*
X419976Y557787D01*
X420905Y558716D01*
X421408Y559929D01*
Y561243D01*
X420905Y562457D01*
X419976Y563386D01*
X418763Y563888D01*
D02*
G37*
G36*
X119753Y565991D02*
X118439D01*
X117226Y565488D01*
X116297Y564560D01*
X115794Y563346D01*
Y562032D01*
X116297Y560819D01*
X117226Y559890D01*
X118439Y559387D01*
X119753D01*
X120966Y559890D01*
X121895Y560819D01*
X122398Y562032D01*
Y563346D01*
X121895Y564560D01*
X120966Y565488D01*
X119753Y565991D01*
D02*
G37*
G36*
X102046Y571508D02*
X100732D01*
X99518Y571006D01*
X98589Y570077D01*
X98087Y568863D01*
Y567550D01*
X98589Y566336D01*
X99518Y565407D01*
X99737Y565317D01*
X100353Y564136D01*
X99850Y562923D01*
Y561609D01*
X100353Y560396D01*
X101281Y559467D01*
X102495Y558964D01*
X103809D01*
X105022Y559467D01*
X105951Y560396D01*
X106454Y561609D01*
Y562923D01*
X105951Y564136D01*
X105022Y565065D01*
X104804Y565156D01*
X104188Y566336D01*
X104691Y567550D01*
Y568863D01*
X104188Y570077D01*
X103259Y571006D01*
X102046Y571508D01*
D02*
G37*
G36*
X161359Y563705D02*
X160045D01*
X158832Y563202D01*
X157903Y562273D01*
X157400Y561060D01*
Y559746D01*
X157903Y558532D01*
X158832Y557603D01*
X160045Y557101D01*
X161359D01*
X162572Y557603D01*
X163501Y558532D01*
X164004Y559746D01*
Y561060D01*
X163501Y562273D01*
X162572Y563202D01*
X161359Y563705D01*
D02*
G37*
G36*
X152638D02*
X151325D01*
X150111Y563202D01*
X149182Y562273D01*
X148679Y561060D01*
Y559746D01*
X149182Y558532D01*
X150111Y557603D01*
X151325Y557101D01*
X152638D01*
X153852Y557603D01*
X154781Y558532D01*
X155283Y559746D01*
Y561060D01*
X154781Y562273D01*
X153852Y563202D01*
X152638Y563705D01*
D02*
G37*
G36*
X143918Y563705D02*
X142604D01*
X141390Y563202D01*
X140461Y562273D01*
X139959Y561060D01*
Y559746D01*
X140461Y558532D01*
X141390Y557603D01*
X142604Y557101D01*
X143918D01*
X145131Y557603D01*
X146060Y558532D01*
X146563Y559746D01*
Y561060D01*
X146060Y562273D01*
X145131Y563202D01*
X143918Y563705D01*
D02*
G37*
G36*
X75058Y574570D02*
X73745D01*
X72531Y574067D01*
X71602Y573138D01*
X71100Y571925D01*
Y570611D01*
X71602Y569397D01*
X71902Y569098D01*
X72409Y568268D01*
X71902Y567438D01*
X71602Y567139D01*
X71100Y565925D01*
Y564611D01*
X71602Y563398D01*
X71902Y563098D01*
X72409Y562268D01*
X71902Y561439D01*
X71602Y561139D01*
X71100Y559925D01*
Y558612D01*
X71602Y557398D01*
X72531Y556469D01*
X73745Y555967D01*
X75058D01*
X76272Y556469D01*
X77201Y557398D01*
X77704Y558612D01*
Y559925D01*
X77201Y561139D01*
X76901Y561439D01*
X76395Y562268D01*
X76901Y563098D01*
X77201Y563398D01*
X77704Y564611D01*
Y565925D01*
X77201Y567139D01*
X76901Y567438D01*
X76395Y568268D01*
X76901Y569098D01*
X77201Y569397D01*
X77704Y570611D01*
Y571925D01*
X77201Y573138D01*
X76272Y574067D01*
X75058Y574570D01*
D02*
G37*
G36*
X418763Y555887D02*
X417449D01*
X416236Y555384D01*
X415375Y554524D01*
X414515Y555384D01*
X413302Y555887D01*
X411988D01*
X410774Y555384D01*
X409846Y554456D01*
X409343Y553242D01*
Y551928D01*
X409846Y550715D01*
X410774Y549786D01*
X411988Y549283D01*
X413302D01*
X414515Y549786D01*
X415375Y550646D01*
X416236Y549786D01*
X417449Y549283D01*
X418763D01*
X419976Y549786D01*
X420905Y550715D01*
X421408Y551928D01*
Y553242D01*
X420905Y554456D01*
X419976Y555384D01*
X418763Y555887D01*
D02*
G37*
G36*
X135844Y555111D02*
X134530D01*
X133317Y554608D01*
X132584Y553875D01*
X131851Y554608D01*
X130637Y555111D01*
X129324D01*
X128110Y554608D01*
X127181Y553680D01*
X126678Y552466D01*
Y551152D01*
X127181Y549939D01*
X128110Y549010D01*
X129324Y548507D01*
X130637D01*
X131851Y549010D01*
X132584Y549743D01*
X133317Y549010D01*
X134530Y548507D01*
X135844D01*
X137058Y549010D01*
X137987Y549939D01*
X138489Y551152D01*
Y552466D01*
X137987Y553680D01*
X137058Y554608D01*
X135844Y555111D01*
D02*
G37*
G36*
X160935D02*
X159622D01*
X158408Y554608D01*
X157479Y553680D01*
X156977Y552466D01*
Y551152D01*
X157479Y549939D01*
X158408Y549010D01*
X159622Y548507D01*
X160935D01*
X162149Y549010D01*
X163078Y549939D01*
X163581Y551152D01*
Y552466D01*
X163078Y553680D01*
X162149Y554608D01*
X160935Y555111D01*
D02*
G37*
G36*
X152638D02*
X151325D01*
X150111Y554608D01*
X149182Y553680D01*
X148679Y552466D01*
Y551152D01*
X149182Y549939D01*
X150111Y549010D01*
X151325Y548507D01*
X152638D01*
X153852Y549010D01*
X154781Y549939D01*
X155283Y551152D01*
Y552466D01*
X154781Y553680D01*
X153852Y554608D01*
X152638Y555111D01*
D02*
G37*
G36*
X143918D02*
X142604D01*
X141390Y554608D01*
X140461Y553680D01*
X139959Y552466D01*
Y551152D01*
X140461Y549939D01*
X141390Y549010D01*
X142604Y548507D01*
X143918D01*
X145131Y549010D01*
X146060Y549939D01*
X146563Y551152D01*
Y552466D01*
X146060Y553680D01*
X145131Y554608D01*
X143918Y555111D01*
D02*
G37*
G36*
X119753D02*
X118439D01*
X117226Y554608D01*
X116297Y553680D01*
X115794Y552466D01*
Y551152D01*
X116297Y549939D01*
X117226Y549010D01*
X118439Y548507D01*
X119753D01*
X120966Y549010D01*
X121895Y549939D01*
X122398Y551152D01*
Y552466D01*
X121895Y553680D01*
X120966Y554608D01*
X119753Y555111D01*
D02*
G37*
G36*
X135844Y546517D02*
X134530D01*
X133317Y546015D01*
X132584Y545282D01*
X131851Y546015D01*
X130637Y546517D01*
X129324D01*
X128110Y546015D01*
X127181Y545086D01*
X126678Y543872D01*
Y542559D01*
X127181Y541345D01*
X128110Y540416D01*
X129324Y539913D01*
X130637D01*
X131851Y540416D01*
X132584Y541149D01*
X133317Y540416D01*
X134530Y539913D01*
X135844D01*
X137058Y540416D01*
X137987Y541345D01*
X138489Y542559D01*
Y543872D01*
X137987Y545086D01*
X137058Y546015D01*
X135844Y546517D01*
D02*
G37*
G36*
X182874Y548837D02*
X181560D01*
X180347Y548334D01*
X179418Y547405D01*
X178915Y546192D01*
Y544878D01*
X179418Y543664D01*
X180347Y542736D01*
X181560Y542233D01*
X182874D01*
X184088Y542736D01*
X185017Y543664D01*
X185519Y544878D01*
Y546192D01*
X185017Y547405D01*
X184088Y548334D01*
X182874Y548837D01*
D02*
G37*
G36*
X143918Y546517D02*
X142604D01*
X141390Y546015D01*
X140461Y545086D01*
X139959Y543872D01*
Y542559D01*
X140461Y541345D01*
X141390Y540416D01*
X142604Y539913D01*
X143918D01*
X145131Y540416D01*
X146060Y541345D01*
X146563Y542559D01*
Y543872D01*
X146060Y545086D01*
X145131Y546015D01*
X143918Y546517D01*
D02*
G37*
G36*
X192623Y546436D02*
X191309D01*
X190095Y545933D01*
X189166Y545005D01*
X188664Y543791D01*
Y542477D01*
X189166Y541264D01*
X190095Y540335D01*
X191309Y539832D01*
X192623D01*
X193836Y540335D01*
X194765Y541264D01*
X195268Y542477D01*
Y543791D01*
X194765Y545005D01*
X193836Y545933D01*
X192623Y546436D01*
D02*
G37*
G36*
X135844Y537924D02*
X134530D01*
X133317Y537421D01*
X132584Y536688D01*
X131851Y537421D01*
X130637Y537924D01*
X129324D01*
X128110Y537421D01*
X127181Y536492D01*
X126678Y535279D01*
Y533965D01*
X127181Y532751D01*
X128110Y531823D01*
X129324Y531320D01*
X130637D01*
X131851Y531823D01*
X132584Y532556D01*
X133317Y531823D01*
X134530Y531320D01*
X135844D01*
X137058Y531823D01*
X137987Y532751D01*
X138489Y533965D01*
Y535279D01*
X137987Y536492D01*
X137058Y537421D01*
X135844Y537924D01*
D02*
G37*
G36*
X117663Y541570D02*
X116349D01*
X115136Y541067D01*
X114207Y540138D01*
X113704Y538925D01*
Y537611D01*
X114207Y536398D01*
X115136Y535469D01*
X116349Y534966D01*
X117663D01*
X118876Y535469D01*
X119805Y536398D01*
X120308Y537611D01*
Y538925D01*
X119805Y540138D01*
X118876Y541067D01*
X117663Y541570D01*
D02*
G37*
G36*
X88163Y556569D02*
X86849D01*
X85635Y556066D01*
X84706Y555137D01*
X84204Y553923D01*
Y552610D01*
X84706Y551396D01*
X85006Y551097D01*
X85513Y550267D01*
X85006Y549437D01*
X84706Y549138D01*
X84204Y547924D01*
Y546610D01*
X84706Y545397D01*
X85635Y544468D01*
X86849Y543965D01*
X88163D01*
X89376Y544468D01*
X89604Y544695D01*
X90874Y544169D01*
Y543775D01*
X91376Y542561D01*
X91959Y541978D01*
X92204Y541242D01*
X91982Y540391D01*
X91432Y539841D01*
X90929Y538627D01*
Y537314D01*
X91432Y536100D01*
X92361Y535171D01*
X93574Y534669D01*
X94888D01*
X96102Y535171D01*
X97030Y536100D01*
X97533Y537314D01*
Y538627D01*
X97030Y539841D01*
X96448Y540424D01*
X96203Y541160D01*
X96425Y542011D01*
X96975Y542561D01*
X97478Y543775D01*
Y545088D01*
X96975Y546302D01*
X96046Y547231D01*
X94832Y547733D01*
X93519D01*
X92305Y547231D01*
X92078Y547003D01*
X90808Y547529D01*
Y547924D01*
X90305Y549138D01*
X90006Y549437D01*
X89499Y550267D01*
X90006Y551097D01*
X90305Y551396D01*
X90808Y552610D01*
Y553923D01*
X90305Y555137D01*
X89376Y556066D01*
X88163Y556569D01*
D02*
G37*
G36*
X312506Y535904D02*
X311193D01*
X309979Y535401D01*
X309050Y534473D01*
X308548Y533259D01*
Y531945D01*
X309050Y530732D01*
X309979Y529803D01*
X310187Y529717D01*
X310240Y528385D01*
X309762Y528086D01*
X309407Y527923D01*
X308251Y528402D01*
X306937D01*
X306258Y528120D01*
X305794Y528377D01*
X305720Y528525D01*
X305660Y529902D01*
X306171Y530414D01*
X306674Y531628D01*
Y532941D01*
X306171Y534155D01*
X305242Y535084D01*
X304029Y535586D01*
X302715D01*
X301502Y535084D01*
X300573Y534155D01*
X300070Y532941D01*
Y531628D01*
X300573Y530414D01*
X301502Y529485D01*
X301756Y529380D01*
Y528005D01*
X301502Y527899D01*
X300573Y526970D01*
X300070Y525757D01*
Y524443D01*
X300573Y523230D01*
X301502Y522301D01*
X302715Y521798D01*
X304029D01*
X305242Y522301D01*
X305483Y522541D01*
X305724Y522301D01*
X306937Y521798D01*
X308251D01*
X309464Y522301D01*
X309742Y522578D01*
X309979Y522341D01*
X311193Y521838D01*
X312506D01*
X313720Y522341D01*
X314649Y523270D01*
X315152Y524484D01*
Y525797D01*
X314649Y527011D01*
X313720Y527940D01*
X313131Y528184D01*
Y529559D01*
X313720Y529803D01*
X314649Y530732D01*
X315152Y531945D01*
Y533259D01*
X314649Y534473D01*
X313720Y535401D01*
X312506Y535904D01*
D02*
G37*
G36*
X614829Y539750D02*
X613515D01*
X612302Y539247D01*
X611373Y538318D01*
X610870Y537105D01*
Y535791D01*
X611373Y534578D01*
X612040Y533910D01*
X612198Y533146D01*
X612040Y532382D01*
X611373Y531714D01*
X610870Y530501D01*
Y529187D01*
X611314Y528116D01*
X611072Y527466D01*
X610704Y526846D01*
X610157D01*
X608944Y526343D01*
X608731Y526131D01*
X608136Y526196D01*
X607275Y526820D01*
X607213Y527096D01*
X607323Y527207D01*
X607826Y528420D01*
Y529734D01*
X607323Y530948D01*
X606394Y531877D01*
X605181Y532379D01*
X603867D01*
X602653Y531877D01*
X602472Y531696D01*
X601643Y531015D01*
X600813Y531696D01*
X600632Y531877D01*
X599419Y532379D01*
X598105D01*
X596892Y531877D01*
X595963Y530948D01*
X595460Y529734D01*
Y528420D01*
X595963Y527207D01*
X596823Y526347D01*
X595963Y525487D01*
X595460Y524273D01*
Y522960D01*
X595963Y521746D01*
X596892Y520817D01*
X598105Y520314D01*
X599419D01*
X600632Y520817D01*
X600813Y520998D01*
X601643Y521679D01*
X602472Y520998D01*
X602653Y520817D01*
X603867Y520314D01*
X605181D01*
X606394Y520817D01*
X606819Y521242D01*
X607717Y521566D01*
X608462Y521226D01*
X608944Y520745D01*
X610157Y520242D01*
X611471D01*
X612685Y520745D01*
X613613Y521674D01*
X614116Y522887D01*
Y524201D01*
X613672Y525272D01*
X613914Y525922D01*
X614282Y526542D01*
X614829D01*
X616042Y527045D01*
X616971Y527974D01*
X617220Y528575D01*
X618595D01*
X618739Y528228D01*
X619668Y527299D01*
X620881Y526796D01*
X622195D01*
X623408Y527299D01*
X624337Y528228D01*
X624840Y529441D01*
Y530755D01*
X624337Y531968D01*
X623925Y532380D01*
X623523Y533152D01*
X623925Y534040D01*
X624286Y534400D01*
X624788Y535614D01*
Y536927D01*
X624286Y538141D01*
X623357Y539070D01*
X622143Y539572D01*
X620830D01*
X619616Y539070D01*
X618687Y538141D01*
X618553Y537818D01*
X617179D01*
X616971Y538318D01*
X616042Y539247D01*
X614829Y539750D01*
D02*
G37*
G36*
X75171Y538540D02*
X73857D01*
X72644Y538037D01*
X71715Y537108D01*
X71212Y535895D01*
Y534581D01*
X71715Y533368D01*
X72016Y533067D01*
X72521Y532237D01*
X72016Y531407D01*
X71715Y531106D01*
X71212Y529893D01*
Y528579D01*
X71715Y527365D01*
X72644Y526437D01*
X73857Y525934D01*
X75171D01*
X76385Y526437D01*
X77314Y527365D01*
X77816Y528579D01*
Y529893D01*
X77314Y531106D01*
X77013Y531407D01*
X76508Y532237D01*
X77013Y533067D01*
X77314Y533368D01*
X77816Y534581D01*
Y535895D01*
X77314Y537108D01*
X76385Y538037D01*
X75171Y538540D01*
D02*
G37*
G36*
X117663Y529571D02*
X116349D01*
X115136Y529068D01*
X114207Y528139D01*
X113704Y526926D01*
Y525612D01*
X114207Y524399D01*
X115136Y523470D01*
X116349Y522967D01*
X117663D01*
X118876Y523470D01*
X119805Y524399D01*
X120308Y525612D01*
Y526926D01*
X119805Y528139D01*
X118876Y529068D01*
X117663Y529571D01*
D02*
G37*
G36*
X292178Y528402D02*
X290865D01*
X289651Y527899D01*
X288722Y526970D01*
X288220Y525757D01*
Y524443D01*
X288722Y523230D01*
X289651Y522301D01*
X290865Y521798D01*
X292178D01*
X293392Y522301D01*
X294321Y523230D01*
X294824Y524443D01*
Y525757D01*
X294321Y526970D01*
X293392Y527899D01*
X292178Y528402D01*
D02*
G37*
G36*
X591070Y532379D02*
X589756D01*
X588543Y531877D01*
X587614Y530948D01*
X587111Y529734D01*
Y528420D01*
X587614Y527207D01*
X588474Y526347D01*
X587614Y525487D01*
X587111Y524273D01*
Y522960D01*
X587614Y521746D01*
X588543Y520817D01*
X589756Y520314D01*
X591070D01*
X592283Y520817D01*
X593212Y521746D01*
X593715Y522960D01*
Y524273D01*
X593212Y525487D01*
X592352Y526347D01*
X593212Y527207D01*
X593715Y528420D01*
Y529734D01*
X593212Y530948D01*
X592283Y531877D01*
X591070Y532379D01*
D02*
G37*
G36*
X583069D02*
X581755D01*
X580541Y531877D01*
X579613Y530948D01*
X579110Y529734D01*
Y528420D01*
X579613Y527207D01*
X580473Y526347D01*
X579613Y525487D01*
X579110Y524273D01*
Y522960D01*
X579613Y521746D01*
X580541Y520817D01*
X581755Y520314D01*
X583069D01*
X584282Y520817D01*
X585211Y521746D01*
X585714Y522960D01*
Y524273D01*
X585211Y525487D01*
X584351Y526347D01*
X585211Y527207D01*
X585714Y528420D01*
Y529734D01*
X585211Y530948D01*
X584282Y531877D01*
X583069Y532379D01*
D02*
G37*
G36*
X102257Y532571D02*
X100943D01*
X99730Y532068D01*
X98801Y531139D01*
X98298Y529926D01*
Y528612D01*
X98801Y527398D01*
X99131Y527067D01*
X99369Y525928D01*
X99066Y525473D01*
X98466Y524873D01*
X97964Y523660D01*
Y522346D01*
X98466Y521132D01*
X99395Y520204D01*
X100609Y519701D01*
X101923D01*
X103136Y520204D01*
X104065Y521132D01*
X104568Y522346D01*
Y523660D01*
X104065Y524873D01*
X103734Y525204D01*
X103497Y526344D01*
X103799Y526798D01*
X104399Y527398D01*
X104902Y528612D01*
Y529926D01*
X104399Y531139D01*
X103470Y532068D01*
X102257Y532571D01*
D02*
G37*
G36*
X662314Y524035D02*
X661001D01*
X659787Y523532D01*
X658858Y522603D01*
X658355Y521390D01*
Y520076D01*
X658858Y518863D01*
X659787Y517934D01*
X661001Y517431D01*
X662314D01*
X663528Y517934D01*
X664457Y518863D01*
X664959Y520076D01*
Y521390D01*
X664457Y522603D01*
X663528Y523532D01*
X662314Y524035D01*
D02*
G37*
G36*
X654313D02*
X652999D01*
X651786Y523532D01*
X650857Y522603D01*
X650354Y521390D01*
Y520076D01*
X650857Y518863D01*
X651786Y517934D01*
X652999Y517431D01*
X654313D01*
X655527Y517934D01*
X656456Y518863D01*
X656958Y520076D01*
Y521390D01*
X656456Y522603D01*
X655527Y523532D01*
X654313Y524035D01*
D02*
G37*
G36*
X103297Y516990D02*
X101983D01*
X100770Y516488D01*
X99940Y515658D01*
X99110Y516488D01*
X97896Y516990D01*
X96582D01*
X95369Y516488D01*
X94440Y515559D01*
X93937Y514345D01*
Y513031D01*
X94440Y511818D01*
X95369Y510889D01*
X96582Y510386D01*
X97896D01*
X99110Y510889D01*
X99940Y511719D01*
X100770Y510889D01*
X101983Y510386D01*
X103297D01*
X104511Y510889D01*
X105440Y511818D01*
X105942Y513031D01*
Y514345D01*
X105440Y515559D01*
X104511Y516488D01*
X103297Y516990D01*
D02*
G37*
G36*
X264099Y514052D02*
X262785D01*
X261572Y513549D01*
X261446Y513424D01*
X260616Y512645D01*
X259787Y513424D01*
X259661Y513549D01*
X258447Y514052D01*
X257134D01*
X255920Y513549D01*
X255794Y513424D01*
X254965Y512645D01*
X254135Y513424D01*
X254009Y513549D01*
X252796Y514052D01*
X251482D01*
X250269Y513549D01*
X250143Y513424D01*
X249313Y512645D01*
X248484Y513424D01*
X248358Y513549D01*
X247144Y514052D01*
X245831D01*
X244617Y513549D01*
X244491Y513424D01*
X243662Y512645D01*
X242832Y513424D01*
X242706Y513549D01*
X241493Y514052D01*
X240179D01*
X238966Y513549D01*
X238037Y512620D01*
X237534Y511407D01*
Y510093D01*
X237630Y509861D01*
X236782Y508591D01*
X236369D01*
X235156Y508088D01*
X234227Y507159D01*
X233724Y505946D01*
Y504632D01*
X234227Y503419D01*
X235156Y502490D01*
X236369Y501987D01*
X237683D01*
X238896Y502490D01*
X239825Y503419D01*
X240328Y504632D01*
Y505946D01*
X240232Y506178D01*
X241080Y507448D01*
X241493D01*
X242706Y507951D01*
X242832Y508076D01*
X243662Y508855D01*
X244491Y508076D01*
X244617Y507951D01*
X245831Y507448D01*
X247144D01*
X248358Y507951D01*
X248484Y508076D01*
X249313Y508855D01*
X250143Y508076D01*
X250269Y507951D01*
X251482Y507448D01*
X252796D01*
X254009Y507951D01*
X254135Y508076D01*
X254965Y508855D01*
X255794Y508076D01*
X255920Y507951D01*
X257134Y507448D01*
X258447D01*
X259661Y507951D01*
X259787Y508076D01*
X260616Y508855D01*
X261446Y508076D01*
X261572Y507951D01*
X262785Y507448D01*
X264099D01*
X265312Y507951D01*
X266241Y508880D01*
X266744Y510093D01*
Y511407D01*
X266241Y512620D01*
X265312Y513549D01*
X264099Y514052D01*
D02*
G37*
G36*
X205676Y517907D02*
X204363D01*
X203149Y517404D01*
X202220Y516475D01*
X201717Y515261D01*
Y513948D01*
X202220Y512734D01*
X202803Y512152D01*
X203006Y511324D01*
X202786Y510581D01*
X202181Y509975D01*
X201678Y508761D01*
Y507448D01*
X202181Y506234D01*
X203110Y505305D01*
X204323Y504803D01*
X205637D01*
X206850Y505305D01*
X207779Y506234D01*
X208282Y507448D01*
Y508761D01*
X207779Y509975D01*
X207197Y510558D01*
X206993Y511386D01*
X207165Y511966D01*
X208348Y512555D01*
X209024Y512327D01*
X209552Y511798D01*
X210766Y511296D01*
X212080D01*
X213293Y511798D01*
X214222Y512727D01*
X214725Y513941D01*
Y515255D01*
X214222Y516468D01*
X213293Y517397D01*
X212080Y517900D01*
X210766D01*
X209552Y517397D01*
X209028Y516873D01*
X208216Y516606D01*
X207418Y516876D01*
X206890Y517404D01*
X205676Y517907D01*
D02*
G37*
G36*
X675047Y516034D02*
X673734D01*
X672520Y515531D01*
X671591Y514603D01*
X671088Y513389D01*
Y512075D01*
X671591Y510862D01*
X672520Y509933D01*
X673734Y509430D01*
X675047D01*
X676261Y509933D01*
X677190Y510862D01*
X677692Y512075D01*
Y513389D01*
X677190Y514603D01*
X676261Y515531D01*
X675047Y516034D01*
D02*
G37*
G36*
X654313D02*
X652999D01*
X651786Y515531D01*
X650857Y514603D01*
X650354Y513389D01*
Y512075D01*
X650857Y510862D01*
X651786Y509933D01*
X652999Y509430D01*
X654313D01*
X655527Y509933D01*
X656456Y510862D01*
X656958Y512075D01*
Y513389D01*
X656456Y514603D01*
X655527Y515531D01*
X654313Y516034D01*
D02*
G37*
G36*
X644313D02*
X642999D01*
X641786Y515531D01*
X640857Y514603D01*
X640354Y513389D01*
Y512075D01*
X640857Y510862D01*
X641786Y509933D01*
X642999Y509430D01*
X644313D01*
X645527Y509933D01*
X646456Y510862D01*
X646958Y512075D01*
Y513389D01*
X646456Y514603D01*
X645527Y515531D01*
X644313Y516034D01*
D02*
G37*
G36*
X446224Y514403D02*
X444910D01*
X443697Y513900D01*
X442768Y512971D01*
X442265Y511758D01*
Y510444D01*
X442768Y509231D01*
X443697Y508302D01*
X444910Y507799D01*
X446224D01*
X447438Y508302D01*
X448366Y509231D01*
X448869Y510444D01*
Y511758D01*
X448366Y512971D01*
X447438Y513900D01*
X446224Y514403D01*
D02*
G37*
G36*
X223923Y514295D02*
X222609D01*
X221396Y513793D01*
X220467Y512864D01*
X219964Y511650D01*
Y510337D01*
X220467Y509123D01*
X221396Y508194D01*
X222609Y507691D01*
X223923D01*
X225136Y508194D01*
X226065Y509123D01*
X226568Y510337D01*
Y511650D01*
X226065Y512864D01*
X225136Y513793D01*
X223923Y514295D01*
D02*
G37*
G36*
X611525Y506398D02*
X610212D01*
X608998Y505895D01*
X608608Y505505D01*
X607778Y505106D01*
X606949Y505505D01*
X606558Y505895D01*
X605345Y506398D01*
X604031D01*
X602817Y505895D01*
X601889Y504966D01*
X601386Y503753D01*
Y502439D01*
X601889Y501226D01*
X602817Y500297D01*
X604031Y499794D01*
X605345D01*
X606558Y500297D01*
X606949Y500687D01*
X607778Y501086D01*
X608608Y500687D01*
X608998Y500297D01*
X610212Y499794D01*
X611525D01*
X612739Y500297D01*
X613668Y501226D01*
X614171Y502439D01*
Y503753D01*
X613668Y504966D01*
X612739Y505895D01*
X611525Y506398D01*
D02*
G37*
G36*
X116848Y511570D02*
X115534D01*
X114321Y511067D01*
X113392Y510139D01*
X112889Y508925D01*
Y507611D01*
X113392Y506398D01*
X114321Y505469D01*
X115534Y504966D01*
X116848D01*
X118062Y505469D01*
X118991Y506398D01*
X119359Y507286D01*
X120170Y507310D01*
X120667Y507194D01*
X121116Y506110D01*
X122044Y505181D01*
X123258Y504678D01*
X124572D01*
X125785Y505181D01*
X126714Y506110D01*
X127217Y507323D01*
Y508637D01*
X126714Y509851D01*
X125785Y510780D01*
X124572Y511282D01*
X123258D01*
X122044Y510780D01*
X121116Y509851D01*
X120748Y508963D01*
X119937Y508938D01*
X119439Y509055D01*
X118991Y510139D01*
X118062Y511067D01*
X116848Y511570D01*
D02*
G37*
G36*
X662314Y516034D02*
X661001D01*
X659787Y515531D01*
X658858Y514603D01*
X658355Y513389D01*
Y512075D01*
X658858Y510862D01*
X659718Y510001D01*
X658858Y509142D01*
X658355Y507928D01*
Y506614D01*
X658858Y505401D01*
X659787Y504472D01*
X661001Y503969D01*
X662314D01*
X663528Y504472D01*
X664457Y505401D01*
X664959Y506614D01*
Y507928D01*
X664457Y509142D01*
X663596Y510001D01*
X664457Y510862D01*
X664959Y512075D01*
Y513389D01*
X664457Y514603D01*
X663528Y515531D01*
X662314Y516034D01*
D02*
G37*
G36*
X171270Y505105D02*
X169956D01*
X168743Y504602D01*
X167871Y503731D01*
X167000Y504602D01*
X165786Y505105D01*
X164473D01*
X163259Y504602D01*
X162330Y503673D01*
X161827Y502459D01*
Y501146D01*
X162330Y499932D01*
X163259Y499003D01*
X164473Y498501D01*
X165786D01*
X167000Y499003D01*
X167871Y499875D01*
X168743Y499003D01*
X169956Y498501D01*
X171270D01*
X172484Y499003D01*
X173413Y499932D01*
X173915Y501146D01*
Y502459D01*
X173413Y503673D01*
X172484Y504602D01*
X171270Y505105D01*
D02*
G37*
G36*
X97896Y508040D02*
X96582D01*
X95369Y507537D01*
X94440Y506608D01*
X93937Y505395D01*
Y504081D01*
X94440Y502867D01*
X95369Y501939D01*
X96582Y501436D01*
X97896D01*
X99110Y501939D01*
X100039Y502867D01*
X100541Y504081D01*
Y505395D01*
X100039Y506608D01*
X99110Y507537D01*
X97896Y508040D01*
D02*
G37*
G36*
X189144Y505105D02*
X187831D01*
X186617Y504602D01*
X185688Y503673D01*
X185185Y502459D01*
Y501146D01*
X185688Y499932D01*
X186617Y499003D01*
X187831Y498501D01*
X189144D01*
X190358Y499003D01*
X191287Y499932D01*
X191789Y501146D01*
Y502459D01*
X191287Y503673D01*
X190358Y504602D01*
X189144Y505105D01*
D02*
G37*
G36*
X142936D02*
X141622D01*
X140409Y504602D01*
X139480Y503673D01*
X138977Y502459D01*
Y501146D01*
X139480Y499932D01*
X140409Y499003D01*
X141622Y498501D01*
X142936D01*
X144149Y499003D01*
X145078Y499932D01*
X145581Y501146D01*
Y502459D01*
X145078Y503673D01*
X144149Y504602D01*
X142936Y505105D01*
D02*
G37*
G36*
X158266Y500090D02*
X156952D01*
X155739Y499588D01*
X154810Y498659D01*
X154307Y497445D01*
Y496131D01*
X154810Y494918D01*
X155739Y493989D01*
X156952Y493486D01*
X158266D01*
X159480Y493989D01*
X160408Y494918D01*
X160911Y496131D01*
Y497445D01*
X160408Y498659D01*
X159480Y499588D01*
X158266Y500090D01*
D02*
G37*
G36*
X128927Y499872D02*
X127613D01*
X126400Y499369D01*
X125471Y498440D01*
X124968Y497227D01*
Y495913D01*
X125471Y494700D01*
X126400Y493771D01*
X127613Y493268D01*
X128927D01*
X130140Y493771D01*
X131069Y494700D01*
X131572Y495913D01*
Y497227D01*
X131069Y498440D01*
X130140Y499369D01*
X128927Y499872D01*
D02*
G37*
G36*
X346029Y497290D02*
X344715D01*
X343501Y496787D01*
X342572Y495858D01*
X342070Y494644D01*
Y493331D01*
X342572Y492117D01*
X343501Y491188D01*
X344715Y490686D01*
X346029D01*
X347242Y491188D01*
X348171Y492117D01*
X348674Y493331D01*
Y494644D01*
X348171Y495858D01*
X347242Y496787D01*
X346029Y497290D01*
D02*
G37*
G36*
X446224Y497030D02*
X444910D01*
X443697Y496528D01*
X442768Y495599D01*
X442265Y494385D01*
Y493072D01*
X442768Y491858D01*
X443697Y490929D01*
X444910Y490426D01*
X446224D01*
X447438Y490929D01*
X448366Y491858D01*
X448869Y493072D01*
Y494385D01*
X448366Y495599D01*
X447438Y496528D01*
X446224Y497030D01*
D02*
G37*
G36*
X654313Y502252D02*
X652999D01*
X651786Y501749D01*
X650857Y500820D01*
X650354Y499607D01*
Y498293D01*
X650857Y497080D01*
X650611Y495845D01*
X650516Y495806D01*
X649587Y494877D01*
X649084Y493663D01*
Y492350D01*
X649587Y491136D01*
X650516Y490207D01*
X651730Y489704D01*
X653043D01*
X654257Y490207D01*
X655186Y491136D01*
X655688Y492350D01*
Y493663D01*
X655186Y494877D01*
X655431Y496111D01*
X655527Y496151D01*
X656456Y497080D01*
X656958Y498293D01*
Y499607D01*
X656456Y500820D01*
X655527Y501749D01*
X654313Y502252D01*
D02*
G37*
G36*
X632974Y502192D02*
X631661D01*
X630447Y501690D01*
X629518Y500761D01*
X629016Y499547D01*
Y498234D01*
X629518Y497020D01*
X629760Y496778D01*
X630346Y495948D01*
X629760Y495119D01*
X629518Y494877D01*
X629016Y493663D01*
Y492350D01*
X629518Y491136D01*
X630447Y490207D01*
X631661Y489704D01*
X632974D01*
X634188Y490207D01*
X635117Y491136D01*
X635620Y492350D01*
Y493663D01*
X635117Y494877D01*
X634875Y495119D01*
X634289Y495948D01*
X634875Y496778D01*
X635117Y497020D01*
X635620Y498234D01*
Y499547D01*
X635117Y500761D01*
X634188Y501690D01*
X632974Y502192D01*
D02*
G37*
G36*
X117497Y499872D02*
X116183D01*
X114970Y499369D01*
X114041Y498440D01*
X113538Y497227D01*
Y495913D01*
X114041Y494700D01*
X114762Y493979D01*
X114809Y493009D01*
X114703Y492506D01*
X113898Y491702D01*
X113396Y490489D01*
Y489175D01*
X113898Y487961D01*
X114827Y487032D01*
X116041Y486530D01*
X117355D01*
X118568Y487032D01*
X119497Y487961D01*
X120000Y489175D01*
Y490489D01*
X119497Y491702D01*
X118776Y492423D01*
X118729Y493392D01*
X118835Y493895D01*
X119639Y494700D01*
X120142Y495913D01*
Y497227D01*
X119639Y498440D01*
X118710Y499369D01*
X117497Y499872D01*
D02*
G37*
G36*
X266487Y491940D02*
X265173D01*
X263960Y491437D01*
X263031Y490508D01*
X262528Y489295D01*
Y487981D01*
X263031Y486768D01*
X263960Y485839D01*
X265173Y485336D01*
X266487D01*
X267700Y485839D01*
X268629Y486768D01*
X269132Y487981D01*
Y489295D01*
X268629Y490508D01*
X267700Y491437D01*
X266487Y491940D01*
D02*
G37*
G36*
X247487D02*
X246173D01*
X244960Y491437D01*
X244031Y490508D01*
X243528Y489295D01*
Y487981D01*
X244031Y486768D01*
X244960Y485839D01*
X246173Y485336D01*
X247487D01*
X248700Y485839D01*
X249629Y486768D01*
X250132Y487981D01*
Y489295D01*
X249629Y490508D01*
X248700Y491437D01*
X247487Y491940D01*
D02*
G37*
G36*
X88098Y502568D02*
X86784D01*
X85571Y502066D01*
X84642Y501137D01*
X84139Y499923D01*
Y498609D01*
X84642Y497396D01*
X84941Y497096D01*
X85448Y496267D01*
X84941Y495437D01*
X84642Y495137D01*
X84139Y493924D01*
Y492610D01*
X84642Y491396D01*
X84941Y491097D01*
X85448Y490267D01*
X84941Y489437D01*
X84642Y489138D01*
X84139Y487924D01*
Y486610D01*
X84642Y485397D01*
X85571Y484468D01*
X86784Y483965D01*
X88098D01*
X89312Y484468D01*
X90240Y485397D01*
X90743Y486610D01*
Y487924D01*
X90240Y489138D01*
X89941Y489437D01*
X89434Y490267D01*
X89941Y491097D01*
X90240Y491396D01*
X90743Y492610D01*
Y493924D01*
X90240Y495137D01*
X89941Y495437D01*
X89434Y496267D01*
X89941Y497096D01*
X90240Y497396D01*
X90743Y498609D01*
Y499923D01*
X90240Y501137D01*
X89312Y502066D01*
X88098Y502568D01*
D02*
G37*
G36*
X130363Y487570D02*
X129049D01*
X127836Y487067D01*
X126907Y486138D01*
X126404Y484924D01*
Y483611D01*
X126907Y482397D01*
X127836Y481468D01*
X129049Y480966D01*
X130363D01*
X131576Y481468D01*
X132505Y482397D01*
X133008Y483611D01*
Y484924D01*
X132505Y486138D01*
X131576Y487067D01*
X130363Y487570D01*
D02*
G37*
G36*
X169719Y484542D02*
X168405D01*
X167191Y484039D01*
X166262Y483111D01*
X165760Y481897D01*
Y480583D01*
X166262Y479370D01*
X167191Y478441D01*
X168405Y477938D01*
X169719D01*
X170932Y478441D01*
X171861Y479370D01*
X172364Y480583D01*
Y481897D01*
X171861Y483111D01*
X170932Y484039D01*
X169719Y484542D01*
D02*
G37*
G36*
X98919Y491684D02*
X97605D01*
X96392Y491181D01*
X95463Y490252D01*
X94960Y489039D01*
Y487725D01*
X95463Y486511D01*
X96392Y485583D01*
X96699Y485456D01*
Y484081D01*
X96392Y483954D01*
X95463Y483025D01*
X94960Y481811D01*
Y480498D01*
X95463Y479284D01*
X96392Y478355D01*
X97605Y477852D01*
X98919D01*
X100133Y478355D01*
X101061Y479284D01*
X101564Y480498D01*
Y481811D01*
X101061Y483025D01*
X100133Y483954D01*
X99826Y484081D01*
Y485456D01*
X100133Y485583D01*
X101061Y486511D01*
X101564Y487725D01*
Y489039D01*
X101061Y490252D01*
X100133Y491181D01*
X98919Y491684D01*
D02*
G37*
G36*
X537867Y479552D02*
X536553D01*
X535340Y479049D01*
X534411Y478120D01*
X534167Y477533D01*
X532793D01*
X532549Y478120D01*
X531620Y479049D01*
X530407Y479552D01*
X529093D01*
X527880Y479049D01*
X526951Y478120D01*
X526448Y476907D01*
Y475593D01*
X526951Y474380D01*
X527880Y473451D01*
X529093Y472948D01*
X530407D01*
X531620Y473451D01*
X532549Y474380D01*
X532793Y474967D01*
X534167D01*
X534411Y474380D01*
X535340Y473451D01*
X536553Y472948D01*
X537867D01*
X539080Y473451D01*
X540009Y474380D01*
X540512Y475593D01*
Y476907D01*
X540009Y478120D01*
X539080Y479049D01*
X537867Y479552D01*
D02*
G37*
G36*
X197095Y477012D02*
X195781D01*
X194568Y476509D01*
X194163Y476104D01*
X193333Y475722D01*
X192503Y476104D01*
X192098Y476509D01*
X190885Y477012D01*
X189571D01*
X188358Y476509D01*
X187429Y475580D01*
X186926Y474367D01*
Y473053D01*
X187429Y471840D01*
X188358Y470911D01*
X189571Y470408D01*
X190885D01*
X192098Y470911D01*
X192503Y471316D01*
X193333Y471698D01*
X194163Y471316D01*
X194568Y470911D01*
X195781Y470408D01*
X197095D01*
X198308Y470911D01*
X199237Y471840D01*
X199740Y473053D01*
Y474367D01*
X199237Y475580D01*
X198308Y476509D01*
X197095Y477012D01*
D02*
G37*
G36*
X654655Y479642D02*
X653341D01*
X652128Y479139D01*
X651199Y478210D01*
X650696Y476997D01*
Y475683D01*
X651199Y474470D01*
X652128Y473541D01*
X653341Y473038D01*
X654655D01*
X655868Y473541D01*
X656797Y474470D01*
X657300Y475683D01*
Y476997D01*
X656797Y478210D01*
X655868Y479139D01*
X654655Y479642D01*
D02*
G37*
G36*
X555868Y479552D02*
X554554D01*
X553340Y479049D01*
X552412Y478120D01*
X551909Y476907D01*
Y475593D01*
X552412Y474380D01*
X553340Y473451D01*
X554554Y472948D01*
X555868D01*
X557081Y473451D01*
X558010Y474380D01*
X558513Y475593D01*
Y476907D01*
X558010Y478120D01*
X557081Y479049D01*
X555868Y479552D01*
D02*
G37*
G36*
X547867D02*
X546553D01*
X545340Y479049D01*
X544411Y478120D01*
X543908Y476907D01*
Y475593D01*
X544411Y474380D01*
X545340Y473451D01*
X546553Y472948D01*
X547867D01*
X549080Y473451D01*
X550009Y474380D01*
X550512Y475593D01*
Y476907D01*
X550009Y478120D01*
X549080Y479049D01*
X547867Y479552D01*
D02*
G37*
G36*
X181505Y477012D02*
X180191D01*
X178978Y476509D01*
X178049Y475580D01*
X177546Y474367D01*
Y473053D01*
X178049Y471840D01*
X178978Y470911D01*
X180191Y470408D01*
X181505D01*
X182718Y470911D01*
X183647Y471840D01*
X184150Y473053D01*
Y474367D01*
X183647Y475580D01*
X182718Y476509D01*
X181505Y477012D01*
D02*
G37*
G36*
X537867Y471551D02*
X536553D01*
X535340Y471048D01*
X534411Y470119D01*
X534167Y469532D01*
X532793D01*
X532549Y470119D01*
X531620Y471048D01*
X530407Y471551D01*
X529093D01*
X527880Y471048D01*
X526951Y470119D01*
X526448Y468906D01*
Y467592D01*
X526951Y466379D01*
X527880Y465450D01*
X529093Y464947D01*
X530407D01*
X531620Y465450D01*
X532549Y466379D01*
X532793Y466966D01*
X534167D01*
X534411Y466379D01*
X535340Y465450D01*
X536553Y464947D01*
X537867D01*
X539080Y465450D01*
X540009Y466379D01*
X540512Y467592D01*
Y468906D01*
X540009Y470119D01*
X539080Y471048D01*
X537867Y471551D01*
D02*
G37*
G36*
X628037Y471680D02*
X626723D01*
X625510Y471177D01*
X624581Y470248D01*
X624078Y469035D01*
Y467721D01*
X624581Y466508D01*
X625510Y465579D01*
X626723Y465076D01*
X628037D01*
X629250Y465579D01*
X630179Y466508D01*
X630682Y467721D01*
Y469035D01*
X630179Y470248D01*
X629250Y471177D01*
X628037Y471680D01*
D02*
G37*
G36*
X618037D02*
X616723D01*
X615510Y471177D01*
X614581Y470248D01*
X614078Y469035D01*
Y467721D01*
X614581Y466508D01*
X615510Y465579D01*
X616723Y465076D01*
X618037D01*
X619250Y465579D01*
X620179Y466508D01*
X620682Y467721D01*
Y469035D01*
X620179Y470248D01*
X619250Y471177D01*
X618037Y471680D01*
D02*
G37*
G36*
X654655Y471641D02*
X653341D01*
X652128Y471138D01*
X651199Y470209D01*
X650696Y468996D01*
Y467682D01*
X651199Y466469D01*
X652128Y465540D01*
X653341Y465037D01*
X654655D01*
X655868Y465540D01*
X656797Y466469D01*
X657300Y467682D01*
Y468996D01*
X656797Y470209D01*
X655868Y471138D01*
X654655Y471641D01*
D02*
G37*
G36*
X555868Y471551D02*
X554554D01*
X553340Y471048D01*
X552412Y470119D01*
X551909Y468906D01*
Y467592D01*
X552412Y466379D01*
X553340Y465450D01*
X554554Y464947D01*
X555868D01*
X557081Y465450D01*
X558010Y466379D01*
X558513Y467592D01*
Y468906D01*
X558010Y470119D01*
X557081Y471048D01*
X555868Y471551D01*
D02*
G37*
G36*
X547867D02*
X546553D01*
X545340Y471048D01*
X544411Y470119D01*
X543908Y468906D01*
Y467592D01*
X544411Y466379D01*
X545340Y465450D01*
X546553Y464947D01*
X547867D01*
X549080Y465450D01*
X550009Y466379D01*
X550512Y467592D01*
Y468906D01*
X550009Y470119D01*
X549080Y471048D01*
X547867Y471551D01*
D02*
G37*
G36*
X169607Y470644D02*
X168293D01*
X167080Y470141D01*
X166151Y469212D01*
X165648Y467999D01*
Y466685D01*
X166151Y465472D01*
X167080Y464543D01*
X168293Y464040D01*
X169607D01*
X170820Y464543D01*
X171749Y465472D01*
X172252Y466685D01*
Y467999D01*
X171749Y469212D01*
X170820Y470141D01*
X169607Y470644D01*
D02*
G37*
G36*
X123922Y470520D02*
X122608D01*
X121394Y470018D01*
X120465Y469089D01*
X119963Y467875D01*
Y466561D01*
X120465Y465348D01*
X121394Y464419D01*
X122608Y463916D01*
X123922D01*
X125135Y464419D01*
X126064Y465348D01*
X126567Y466561D01*
Y467875D01*
X126064Y469089D01*
X125135Y470018D01*
X123922Y470520D01*
D02*
G37*
G36*
X89036Y470429D02*
X87722D01*
X86509Y469926D01*
X85580Y468997D01*
X85077Y467783D01*
Y466470D01*
X85580Y465256D01*
X86509Y464327D01*
X87722Y463825D01*
X89036D01*
X90250Y464327D01*
X91179Y465256D01*
X91681Y466470D01*
Y467783D01*
X91179Y468997D01*
X90250Y469926D01*
X89036Y470429D01*
D02*
G37*
G36*
X376973Y460223D02*
X375659D01*
X374446Y459720D01*
X373586Y458860D01*
X372725Y459720D01*
X371512Y460223D01*
X370198D01*
X368985Y459720D01*
X368056Y458791D01*
X367553Y457577D01*
Y456264D01*
X368056Y455050D01*
X368916Y454190D01*
X368056Y453330D01*
X367553Y452116D01*
Y450803D01*
X368056Y449589D01*
X368916Y448729D01*
X368056Y447869D01*
X367553Y446655D01*
Y445342D01*
X368056Y444128D01*
X368985Y443199D01*
X370198Y442697D01*
X371512D01*
X372725Y443199D01*
X373586Y444059D01*
X374446Y443199D01*
X375659Y442697D01*
X376973D01*
X378186Y443199D01*
X379115Y444128D01*
X379618Y445342D01*
Y446655D01*
X379115Y447869D01*
X378255Y448729D01*
X379115Y449589D01*
X379618Y450803D01*
Y452116D01*
X379115Y453330D01*
X378255Y454190D01*
X379115Y455050D01*
X379618Y456264D01*
Y457577D01*
X379115Y458791D01*
X378186Y459720D01*
X376973Y460223D01*
D02*
G37*
G36*
X430281Y458486D02*
X428967D01*
X427753Y457983D01*
X426824Y457054D01*
X426581Y456467D01*
X425206D01*
X424963Y457054D01*
X424034Y457983D01*
X422821Y458486D01*
X421507D01*
X420293Y457983D01*
X419365Y457054D01*
X418862Y455841D01*
Y454527D01*
X419365Y453314D01*
X420293Y452385D01*
X421507Y451882D01*
X422821D01*
X424034Y452385D01*
X424963Y453314D01*
X425206Y453901D01*
X426581D01*
X426824Y453314D01*
X427753Y452385D01*
X428967Y451882D01*
X430281D01*
X431494Y452385D01*
X432423Y453314D01*
X432926Y454527D01*
Y455841D01*
X432423Y457054D01*
X431494Y457983D01*
X430281Y458486D01*
D02*
G37*
G36*
X497227Y456692D02*
X495913D01*
X494700Y456189D01*
X494211Y455701D01*
X493395Y455399D01*
X492579Y455701D01*
X492090Y456189D01*
X490877Y456692D01*
X489563D01*
X488350Y456189D01*
X487421Y455260D01*
X486918Y454047D01*
Y452733D01*
X487421Y451520D01*
X488350Y450591D01*
X489563Y450088D01*
X490877D01*
X492090Y450591D01*
X492579Y451079D01*
X493395Y451381D01*
X494211Y451079D01*
X494700Y450591D01*
X495913Y450088D01*
X497227D01*
X498440Y450591D01*
X499369Y451520D01*
X499872Y452733D01*
Y454047D01*
X499369Y455260D01*
X498440Y456189D01*
X497227Y456692D01*
D02*
G37*
G36*
X454284Y458486D02*
X452970D01*
X451756Y457983D01*
X450827Y457054D01*
X450325Y455841D01*
Y454527D01*
X450827Y453314D01*
X451756Y452385D01*
X452970Y451882D01*
X454284D01*
X455497Y452385D01*
X456426Y453314D01*
X456929Y454527D01*
Y455841D01*
X456426Y457054D01*
X455497Y457983D01*
X454284Y458486D01*
D02*
G37*
G36*
X446283D02*
X444969D01*
X443755Y457983D01*
X442826Y457054D01*
X442324Y455841D01*
Y454527D01*
X442826Y453314D01*
X443755Y452385D01*
X444969Y451882D01*
X446283D01*
X447496Y452385D01*
X448425Y453314D01*
X448928Y454527D01*
Y455841D01*
X448425Y457054D01*
X447496Y457983D01*
X446283Y458486D01*
D02*
G37*
G36*
X438282D02*
X436968D01*
X435754Y457983D01*
X434826Y457054D01*
X434323Y455841D01*
Y454527D01*
X434826Y453314D01*
X435754Y452385D01*
X436968Y451882D01*
X438282D01*
X439495Y452385D01*
X440424Y453314D01*
X440927Y454527D01*
Y455841D01*
X440424Y457054D01*
X439495Y457983D01*
X438282Y458486D01*
D02*
G37*
G36*
X414820D02*
X413506D01*
X412292Y457983D01*
X411363Y457054D01*
X410861Y455841D01*
Y454527D01*
X411363Y453314D01*
X412292Y452385D01*
X413506Y451882D01*
X414820D01*
X416033Y452385D01*
X416962Y453314D01*
X417465Y454527D01*
Y455841D01*
X416962Y457054D01*
X416033Y457983D01*
X414820Y458486D01*
D02*
G37*
G36*
X116393Y457570D02*
X115079D01*
X113866Y457067D01*
X112937Y456138D01*
X112434Y454924D01*
Y453611D01*
X112937Y452397D01*
X113866Y451468D01*
X115079Y450966D01*
X116393D01*
X117606Y451468D01*
X118535Y452397D01*
X119038Y453611D01*
Y454924D01*
X118535Y456138D01*
X117606Y457067D01*
X116393Y457570D01*
D02*
G37*
G36*
X103059D02*
X101745D01*
X100532Y457067D01*
X99603Y456138D01*
X99100Y454924D01*
Y453611D01*
X99603Y452397D01*
X100532Y451468D01*
X101745Y450966D01*
X103059D01*
X104272Y451468D01*
X105201Y452397D01*
X105704Y453611D01*
Y454924D01*
X105201Y456138D01*
X104272Y457067D01*
X103059Y457570D01*
D02*
G37*
G36*
X469472Y450342D02*
X468159D01*
X466945Y449839D01*
X466188Y449082D01*
X465450Y448985D01*
X464713Y449082D01*
X463955Y449839D01*
X462741Y450342D01*
X461428D01*
X460214Y449839D01*
X459285Y448910D01*
X458783Y447697D01*
Y446383D01*
X459285Y445170D01*
X460192Y444263D01*
X459285Y443355D01*
X458783Y442142D01*
Y440828D01*
X459285Y439615D01*
X460192Y438708D01*
X459285Y437800D01*
X458783Y436587D01*
Y435273D01*
X459285Y434060D01*
X460214Y433131D01*
X461428Y432628D01*
X462741D01*
X463955Y433131D01*
X464884Y434060D01*
X465387Y435273D01*
Y436587D01*
X464884Y437800D01*
X464719Y437965D01*
X464916Y438386D01*
X465068Y438481D01*
X466410Y438586D01*
X466945Y438051D01*
X468159Y437548D01*
X469472D01*
X470686Y438051D01*
X471615Y438980D01*
X472118Y440193D01*
Y441507D01*
X471615Y442720D01*
X471220Y443115D01*
X470826Y443945D01*
X471220Y444775D01*
X471615Y445170D01*
X472118Y446383D01*
Y447697D01*
X471615Y448910D01*
X470686Y449839D01*
X469472Y450342D01*
D02*
G37*
G36*
X87271Y454406D02*
X85957D01*
X84744Y453903D01*
X83815Y452974D01*
X83312Y451761D01*
Y450447D01*
X83815Y449234D01*
X84744Y448305D01*
X85957Y447802D01*
X87271D01*
X88484Y448305D01*
X89413Y449234D01*
X89916Y450447D01*
Y451761D01*
X89413Y452974D01*
X88484Y453903D01*
X87271Y454406D01*
D02*
G37*
G36*
X303623Y448412D02*
X302309D01*
X301096Y447909D01*
X300331Y447144D01*
X299566Y447909D01*
X298353Y448412D01*
X297039D01*
X295825Y447909D01*
X295061Y447144D01*
X294296Y447909D01*
X293082Y448412D01*
X291768D01*
X290555Y447909D01*
X289626Y446980D01*
X289123Y445766D01*
Y444453D01*
X289626Y443239D01*
X289978Y442887D01*
X289626Y442535D01*
X289123Y441321D01*
Y440008D01*
X289626Y438794D01*
X290555Y437865D01*
X291768Y437363D01*
X293082D01*
X294296Y437865D01*
X295061Y438630D01*
X295825Y437865D01*
X297039Y437363D01*
X298353D01*
X299566Y437865D01*
X300331Y438630D01*
X301096Y437865D01*
X302309Y437363D01*
X303623D01*
X304837Y437865D01*
X305766Y438794D01*
X306268Y440008D01*
Y441321D01*
X305766Y442535D01*
X305414Y442887D01*
X305766Y443239D01*
X306268Y444453D01*
Y445766D01*
X305766Y446980D01*
X304837Y447909D01*
X303623Y448412D01*
D02*
G37*
G36*
X565807Y452882D02*
X564493D01*
X563280Y452379D01*
X562351Y451450D01*
X561848Y450237D01*
Y448923D01*
X562351Y447710D01*
X563280Y446781D01*
X564493Y446278D01*
X565807D01*
X567020Y446781D01*
X567949Y447710D01*
X568452Y448923D01*
Y450237D01*
X567949Y451450D01*
X567020Y452379D01*
X565807Y452882D01*
D02*
G37*
G36*
X135513Y451932D02*
X134200D01*
X132986Y451429D01*
X132057Y450500D01*
X131554Y449287D01*
Y447973D01*
X132057Y446759D01*
X132986Y445830D01*
X134200Y445328D01*
X135513D01*
X136727Y445830D01*
X137656Y446759D01*
X138159Y447973D01*
Y449287D01*
X137656Y450500D01*
X136727Y451429D01*
X135513Y451932D01*
D02*
G37*
G36*
X429055Y448412D02*
X427742D01*
X426528Y447909D01*
X425599Y446980D01*
X425096Y445766D01*
Y444453D01*
X425599Y443239D01*
X426528Y442310D01*
X427742Y441808D01*
X429055D01*
X430269Y442310D01*
X431198Y443239D01*
X431700Y444453D01*
Y445766D01*
X431198Y446980D01*
X430269Y447909D01*
X429055Y448412D01*
D02*
G37*
G36*
X394412D02*
X393099D01*
X391885Y447909D01*
X390956Y446980D01*
X390454Y445766D01*
Y444453D01*
X390956Y443239D01*
X391885Y442310D01*
X393099Y441808D01*
X394412D01*
X395626Y442310D01*
X396555Y443239D01*
X397058Y444453D01*
Y445766D01*
X396555Y446980D01*
X395626Y447909D01*
X394412Y448412D01*
D02*
G37*
G36*
X632247Y445984D02*
X630933D01*
X629720Y445481D01*
X628791Y444552D01*
X628288Y443339D01*
Y442025D01*
X628791Y440812D01*
X629720Y439883D01*
X630933Y439380D01*
X632247D01*
X633460Y439883D01*
X634389Y440812D01*
X634892Y442025D01*
Y443339D01*
X634389Y444552D01*
X633460Y445481D01*
X632247Y445984D01*
D02*
G37*
G36*
X454740Y444787D02*
X453427D01*
X452213Y444284D01*
X451284Y443355D01*
X450782Y442142D01*
Y440828D01*
X451284Y439615D01*
X452213Y438686D01*
X453427Y438183D01*
X454740D01*
X455954Y438686D01*
X456883Y439615D01*
X457386Y440828D01*
Y442142D01*
X456883Y443355D01*
X455954Y444284D01*
X454740Y444787D01*
D02*
G37*
G36*
X325614Y443829D02*
X324300D01*
X323086Y443326D01*
X322158Y442397D01*
X321655Y441184D01*
Y439870D01*
X322158Y438656D01*
X323086Y437728D01*
X324300Y437225D01*
X325614D01*
X326827Y437728D01*
X327756Y438656D01*
X328259Y439870D01*
Y441184D01*
X327756Y442397D01*
X326827Y443326D01*
X325614Y443829D01*
D02*
G37*
G36*
X533836Y440284D02*
X532725D01*
X531698Y439858D01*
X530912Y439072D01*
X530487Y438045D01*
Y436934D01*
X530912Y435907D01*
X531698Y435121D01*
X532725Y434696D01*
X533836D01*
X534863Y435121D01*
X535649Y435907D01*
X536075Y436934D01*
Y438045D01*
X535649Y439072D01*
X534863Y439858D01*
X533836Y440284D01*
D02*
G37*
G36*
X135511Y439260D02*
X134197D01*
X132983Y438757D01*
X132054Y437828D01*
X131552Y436615D01*
Y435301D01*
X132054Y434087D01*
X132983Y433159D01*
X134197Y432656D01*
X135511D01*
X136724Y433159D01*
X137653Y434087D01*
X138156Y435301D01*
Y436615D01*
X137653Y437828D01*
X136724Y438757D01*
X135511Y439260D01*
D02*
G37*
G36*
X353717Y438912D02*
X352403D01*
X351190Y438409D01*
X350261Y437480D01*
X349758Y436267D01*
Y434953D01*
X350261Y433740D01*
X351190Y432811D01*
X352403Y432308D01*
X353717D01*
X354930Y432811D01*
X355859Y433740D01*
X356362Y434953D01*
Y436267D01*
X355859Y437480D01*
X354930Y438409D01*
X353717Y438912D01*
D02*
G37*
G36*
X125637Y438539D02*
X124323D01*
X123109Y438036D01*
X122181Y437107D01*
X121678Y435894D01*
Y434580D01*
X122181Y433366D01*
X123109Y432437D01*
X124323Y431935D01*
X125637D01*
X126850Y432437D01*
X127779Y433366D01*
X128282Y434580D01*
Y435894D01*
X127779Y437107D01*
X126850Y438036D01*
X125637Y438539D01*
D02*
G37*
G36*
X632247Y437484D02*
X630933D01*
X629720Y436981D01*
X628791Y436052D01*
X628288Y434839D01*
Y433525D01*
X628791Y432312D01*
X629720Y431383D01*
X630933Y430880D01*
X632247D01*
X633460Y431383D01*
X634389Y432312D01*
X634892Y433525D01*
Y434839D01*
X634389Y436052D01*
X633460Y436981D01*
X632247Y437484D01*
D02*
G37*
G36*
X201126Y436342D02*
X199812D01*
X198599Y435839D01*
X197670Y434910D01*
X197167Y433697D01*
Y432383D01*
X197670Y431170D01*
X198599Y430241D01*
X199812Y429738D01*
X201126D01*
X202339Y430241D01*
X203268Y431170D01*
X203771Y432383D01*
Y433697D01*
X203268Y434910D01*
X202339Y435839D01*
X201126Y436342D01*
D02*
G37*
G36*
X186077Y438023D02*
X184763D01*
X183550Y437520D01*
X182621Y436591D01*
X182118Y435378D01*
Y434064D01*
X182621Y432851D01*
X183481Y431991D01*
X182621Y431130D01*
X182118Y429917D01*
Y428603D01*
X182621Y427390D01*
X183550Y426461D01*
X184763Y425958D01*
X186077D01*
X187290Y426461D01*
X188219Y427390D01*
X188722Y428603D01*
Y429917D01*
X188219Y431130D01*
X187359Y431991D01*
X188219Y432851D01*
X188722Y434064D01*
Y435378D01*
X188219Y436591D01*
X187290Y437520D01*
X186077Y438023D01*
D02*
G37*
G36*
X151787Y439260D02*
X150473D01*
X149260Y438757D01*
X148331Y437828D01*
X147828Y436615D01*
Y435301D01*
X148331Y434087D01*
X149086Y433332D01*
X149184Y432594D01*
X149086Y431856D01*
X148331Y431100D01*
X147828Y429887D01*
Y428573D01*
X148331Y427360D01*
X149260Y426431D01*
X150473Y425928D01*
X151787D01*
X153000Y426431D01*
X153929Y427360D01*
X154432Y428573D01*
Y429887D01*
X153929Y431100D01*
X153174Y431856D01*
X153076Y432594D01*
X153174Y433332D01*
X153929Y434087D01*
X154432Y435301D01*
Y436615D01*
X153929Y437828D01*
X153000Y438757D01*
X151787Y439260D01*
D02*
G37*
G36*
X88569Y432445D02*
X87255D01*
X86041Y431942D01*
X85112Y431013D01*
X84610Y429799D01*
Y428486D01*
X85112Y427272D01*
X86041Y426343D01*
X87255Y425841D01*
X88569D01*
X89782Y426343D01*
X90711Y427272D01*
X91214Y428486D01*
Y429799D01*
X90711Y431013D01*
X89782Y431942D01*
X88569Y432445D01*
D02*
G37*
G36*
X96898Y432233D02*
X95585D01*
X94371Y431731D01*
X93442Y430802D01*
X92939Y429588D01*
Y428275D01*
X93442Y427061D01*
X94371Y426132D01*
X95585Y425629D01*
X96898D01*
X98112Y426132D01*
X99041Y427061D01*
X99543Y428275D01*
Y429588D01*
X99041Y430802D01*
X98112Y431731D01*
X96898Y432233D01*
D02*
G37*
G36*
X683247Y422880D02*
X681933D01*
X680720Y422377D01*
X679791Y421449D01*
X679288Y420235D01*
Y418921D01*
X679791Y417708D01*
X680720Y416779D01*
X681933Y416276D01*
X683247D01*
X684460Y416779D01*
X685389Y417708D01*
X685892Y418921D01*
Y420235D01*
X685389Y421449D01*
X684460Y422377D01*
X683247Y422880D01*
D02*
G37*
G36*
X168570Y417684D02*
X167256D01*
X166043Y417182D01*
X165114Y416253D01*
X164611Y415039D01*
Y413726D01*
X165114Y412512D01*
X166043Y411583D01*
X167256Y411080D01*
X168570D01*
X169783Y411583D01*
X169926Y411726D01*
X170398Y411673D01*
X171309Y411312D01*
X171699Y410372D01*
X172628Y409443D01*
X173841Y408940D01*
X175155D01*
X176368Y409443D01*
X177297Y410372D01*
X177800Y411585D01*
Y412899D01*
X177297Y414112D01*
X176368Y415041D01*
X175155Y415544D01*
X173841D01*
X172628Y415041D01*
X172485Y414899D01*
X172013Y414951D01*
X171102Y415312D01*
X170712Y416253D01*
X169783Y417182D01*
X168570Y417684D01*
D02*
G37*
G36*
X633371Y420624D02*
X632057D01*
X630844Y420121D01*
X629915Y419192D01*
X629412Y417979D01*
Y416665D01*
X629915Y415452D01*
X630072Y415294D01*
X630793Y414464D01*
X630072Y413635D01*
X629915Y413477D01*
X629412Y412264D01*
Y410950D01*
X629915Y409737D01*
X630844Y408808D01*
X632057Y408305D01*
X633371D01*
X634584Y408808D01*
X635513Y409737D01*
X636016Y410950D01*
Y412264D01*
X635513Y413477D01*
X635356Y413635D01*
X634635Y414464D01*
X635356Y415294D01*
X635513Y415452D01*
X636016Y416665D01*
Y417979D01*
X635513Y419192D01*
X634584Y420121D01*
X633371Y420624D01*
D02*
G37*
G36*
X667913Y413512D02*
X666599D01*
X665386Y413009D01*
X664457Y412080D01*
X663954Y410867D01*
Y409553D01*
X664457Y408340D01*
X665386Y407411D01*
X666599Y406908D01*
X667913D01*
X669126Y407411D01*
X670055Y408340D01*
X670558Y409553D01*
Y410867D01*
X670055Y412080D01*
X669126Y413009D01*
X667913Y413512D01*
D02*
G37*
G36*
X578049Y417068D02*
X576735D01*
X575522Y416565D01*
X574593Y415636D01*
X574090Y414423D01*
Y413109D01*
X574593Y411896D01*
X574836Y411653D01*
X575420Y410823D01*
X574836Y409993D01*
X574593Y409750D01*
X574090Y408537D01*
Y407223D01*
X574593Y406010D01*
X575522Y405081D01*
X576735Y404578D01*
X578049D01*
X579262Y405081D01*
X580191Y406010D01*
X580694Y407223D01*
Y408537D01*
X580191Y409750D01*
X579948Y409993D01*
X579364Y410823D01*
X579948Y411653D01*
X580191Y411896D01*
X580694Y413109D01*
Y414423D01*
X580191Y415636D01*
X579262Y416565D01*
X578049Y417068D01*
D02*
G37*
G36*
X683919Y407175D02*
X682605D01*
X681392Y406672D01*
X680463Y405743D01*
X679960Y404529D01*
Y403216D01*
X680463Y402002D01*
X681392Y401073D01*
X682605Y400571D01*
X683919D01*
X685133Y401073D01*
X686061Y402002D01*
X686564Y403216D01*
Y404529D01*
X686061Y405743D01*
X685133Y406672D01*
X683919Y407175D01*
D02*
G37*
G36*
X667913Y405511D02*
X666599D01*
X665386Y405008D01*
X664457Y404079D01*
X663954Y402866D01*
Y401552D01*
X664457Y400339D01*
X665386Y399410D01*
X666599Y398907D01*
X667913D01*
X669126Y399410D01*
X670055Y400339D01*
X670558Y401552D01*
Y402866D01*
X670055Y404079D01*
X669126Y405008D01*
X667913Y405511D01*
D02*
G37*
G36*
X563445Y402682D02*
X562131D01*
X560918Y402179D01*
X559989Y401250D01*
X559486Y400037D01*
Y398723D01*
X559989Y397510D01*
X560918Y396581D01*
X562131Y396078D01*
X563445D01*
X564658Y396581D01*
X565587Y397510D01*
X566090Y398723D01*
Y400037D01*
X565587Y401250D01*
X564658Y402179D01*
X563445Y402682D01*
D02*
G37*
G36*
X602797Y400284D02*
X601483D01*
X600270Y399781D01*
X599341Y398852D01*
X598838Y397639D01*
Y396325D01*
X599341Y395111D01*
X600270Y394182D01*
X601483Y393680D01*
X602797D01*
X604011Y394182D01*
X604939Y395111D01*
X605442Y396325D01*
Y397639D01*
X604939Y398852D01*
X604011Y399781D01*
X602797Y400284D01*
D02*
G37*
G36*
X590031D02*
X588717D01*
X587504Y399781D01*
X586575Y398852D01*
X586072Y397639D01*
Y396325D01*
X586575Y395111D01*
X587504Y394182D01*
X588717Y393680D01*
X590031D01*
X591244Y394182D01*
X592173Y395111D01*
X592676Y396325D01*
Y397639D01*
X592173Y398852D01*
X591244Y399781D01*
X590031Y400284D01*
D02*
G37*
G36*
X623747Y411793D02*
X622433D01*
X621220Y411290D01*
X620291Y410361D01*
X619788Y409148D01*
Y407834D01*
X620291Y406620D01*
X620590Y406321D01*
X621097Y405492D01*
X620590Y404662D01*
X620291Y404363D01*
X619788Y403149D01*
Y401836D01*
X620291Y400622D01*
X620590Y400323D01*
X621097Y399493D01*
X620590Y398664D01*
X620291Y398364D01*
X619788Y397151D01*
Y395837D01*
X620291Y394624D01*
X621220Y393695D01*
X622433Y393192D01*
X623747D01*
X624960Y393695D01*
X625889Y394624D01*
X626392Y395837D01*
Y397151D01*
X625889Y398364D01*
X625590Y398664D01*
X625083Y399493D01*
X625590Y400323D01*
X625889Y400622D01*
X626392Y401836D01*
Y403149D01*
X625889Y404363D01*
X625590Y404662D01*
X625083Y405492D01*
X625590Y406321D01*
X625889Y406620D01*
X626392Y407834D01*
Y409148D01*
X625889Y410361D01*
X624960Y411290D01*
X623747Y411793D01*
D02*
G37*
G36*
X683919Y398445D02*
X682605D01*
X681392Y397942D01*
X680463Y397013D01*
X679960Y395800D01*
Y394486D01*
X680463Y393272D01*
X681392Y392343D01*
X682605Y391841D01*
X683919D01*
X685133Y392343D01*
X686061Y393272D01*
X686564Y394486D01*
Y395800D01*
X686061Y397013D01*
X685133Y397942D01*
X683919Y398445D01*
D02*
G37*
G36*
X673145Y384394D02*
X671831D01*
X670618Y383891D01*
X669956Y383229D01*
X669190Y383068D01*
X668425Y383229D01*
X667762Y383891D01*
X666549Y384394D01*
X665235D01*
X664022Y383891D01*
X663093Y382962D01*
X662590Y381749D01*
Y380435D01*
X663093Y379222D01*
X664022Y378293D01*
X665235Y377790D01*
X666549D01*
X667762Y378293D01*
X668425Y378955D01*
X669190Y379116D01*
X669956Y378955D01*
X670618Y378293D01*
X671831Y377790D01*
X673145D01*
X674358Y378293D01*
X675287Y379222D01*
X675790Y380435D01*
Y381749D01*
X675287Y382962D01*
X674358Y383891D01*
X673145Y384394D01*
D02*
G37*
G36*
X682647D02*
X681333D01*
X680120Y383891D01*
X679191Y382962D01*
X678688Y381749D01*
Y380435D01*
X679191Y379222D01*
X680120Y378293D01*
X681333Y377790D01*
X682647D01*
X683860Y378293D01*
X684789Y379222D01*
X685292Y380435D01*
Y381749D01*
X684789Y382962D01*
X683860Y383891D01*
X682647Y384394D01*
D02*
G37*
G36*
X614945Y385984D02*
X613631D01*
X612418Y385481D01*
X611489Y384552D01*
X610986Y383339D01*
Y382025D01*
X611489Y380812D01*
X612418Y379883D01*
X613631Y379380D01*
Y378183D01*
X612418Y377680D01*
X611489Y376751D01*
X610986Y375538D01*
Y374224D01*
X611489Y373011D01*
X612418Y372082D01*
X613631Y371579D01*
X614945D01*
X616158Y372082D01*
X617087Y373011D01*
X617590Y374224D01*
Y375538D01*
X617087Y376751D01*
X616158Y377680D01*
X614945Y378183D01*
Y379380D01*
X616158Y379883D01*
X617087Y380812D01*
X617590Y382025D01*
Y383339D01*
X617087Y384552D01*
X616158Y385481D01*
X614945Y385984D01*
D02*
G37*
G36*
X604945D02*
X603631D01*
X602418Y385481D01*
X601489Y384552D01*
X600986Y383339D01*
Y382025D01*
X601489Y380812D01*
X602418Y379883D01*
X603631Y379380D01*
Y378183D01*
X602418Y377680D01*
X601489Y376751D01*
X600986Y375538D01*
Y374224D01*
X601489Y373011D01*
X602418Y372082D01*
X603631Y371579D01*
X604945D01*
X606158Y372082D01*
X607087Y373011D01*
X607590Y374224D01*
Y375538D01*
X607087Y376751D01*
X606158Y377680D01*
X604945Y378183D01*
Y379380D01*
X606158Y379883D01*
X607087Y380812D01*
X607590Y382025D01*
Y383339D01*
X607087Y384552D01*
X606158Y385481D01*
X604945Y385984D01*
D02*
G37*
G36*
X563445Y377182D02*
X562131D01*
X560918Y376679D01*
X559989Y375750D01*
X559486Y374537D01*
Y373223D01*
X559989Y372010D01*
X560918Y371081D01*
X562131Y370578D01*
X563445D01*
X564658Y371081D01*
X565587Y372010D01*
X566090Y373223D01*
Y374537D01*
X565587Y375750D01*
X564658Y376679D01*
X563445Y377182D01*
D02*
G37*
G36*
X590031Y376429D02*
X588717D01*
X587504Y375926D01*
X586575Y374997D01*
X586072Y373784D01*
Y372470D01*
X586575Y371256D01*
X587504Y370327D01*
X588717Y369825D01*
X590031D01*
X591244Y370327D01*
X592173Y371256D01*
X592676Y372470D01*
Y373784D01*
X592173Y374997D01*
X591244Y375926D01*
X590031Y376429D01*
D02*
G37*
G36*
X682647Y374394D02*
X681333D01*
X680120Y373891D01*
X679191Y372962D01*
X678688Y371749D01*
Y370435D01*
X679191Y369222D01*
X680120Y368293D01*
X681333Y367790D01*
X682647D01*
X683860Y368293D01*
X684789Y369222D01*
X685292Y370435D01*
Y371749D01*
X684789Y372962D01*
X683860Y373891D01*
X682647Y374394D01*
D02*
G37*
G36*
X673145D02*
X671831D01*
X670618Y373891D01*
X669689Y372962D01*
X669186Y371749D01*
Y370435D01*
X669689Y369222D01*
X670618Y368293D01*
X671831Y367790D01*
X673145D01*
X674358Y368293D01*
X675287Y369222D01*
X675790Y370435D01*
Y371749D01*
X675287Y372962D01*
X674358Y373891D01*
X673145Y374394D01*
D02*
G37*
G36*
X563445Y368682D02*
X562131D01*
X560918Y368179D01*
X559989Y367250D01*
X559486Y366037D01*
Y364723D01*
X559989Y363510D01*
X560918Y362581D01*
X562131Y362078D01*
X563445D01*
X564658Y362581D01*
X565587Y363510D01*
X566090Y364723D01*
Y366037D01*
X565587Y367250D01*
X564658Y368179D01*
X563445Y368682D01*
D02*
G37*
G36*
X147585Y350012D02*
X146271D01*
X145057Y349509D01*
X144678Y349130D01*
X144299Y349509D01*
X143085Y350012D01*
X141772D01*
X140558Y349509D01*
X139629Y348580D01*
X139127Y347367D01*
Y346053D01*
X139629Y344840D01*
X140558Y343911D01*
X140768Y343824D01*
Y342449D01*
X140558Y342362D01*
X139629Y341433D01*
X139127Y340220D01*
Y338906D01*
X139629Y337693D01*
X140558Y336764D01*
X141772Y336261D01*
X143085D01*
X144299Y336764D01*
X144678Y337143D01*
X145057Y336764D01*
X146271Y336261D01*
X147585D01*
X148798Y336764D01*
X149727Y337693D01*
X150230Y338906D01*
Y340220D01*
X149727Y341433D01*
X148798Y342362D01*
X148589Y342449D01*
Y343824D01*
X148798Y343911D01*
X149727Y344840D01*
X150230Y346053D01*
Y347367D01*
X149727Y348580D01*
X148798Y349509D01*
X147585Y350012D01*
D02*
G37*
G36*
X164487Y356362D02*
X163173D01*
X161960Y355859D01*
X161031Y354930D01*
X160528Y353717D01*
Y352403D01*
X161031Y351190D01*
X161494Y350726D01*
X161775Y349829D01*
X161464Y349097D01*
X160947Y348580D01*
X160444Y347367D01*
Y346053D01*
X160947Y344840D01*
X161876Y343911D01*
X163089Y343408D01*
X164403D01*
X165617Y343911D01*
X166545Y344840D01*
X167048Y346053D01*
Y347367D01*
X166545Y348580D01*
X166082Y349044D01*
X165801Y349941D01*
X166112Y350673D01*
X166629Y351190D01*
X167132Y352403D01*
Y353717D01*
X166629Y354930D01*
X165700Y355859D01*
X164487Y356362D01*
D02*
G37*
G36*
X156486D02*
X155172D01*
X153959Y355859D01*
X153030Y354930D01*
X152527Y353717D01*
Y352403D01*
X153030Y351190D01*
X153493Y350726D01*
X153774Y349829D01*
X153463Y349097D01*
X152946Y348580D01*
X152443Y347367D01*
Y346053D01*
X152946Y344840D01*
X153875Y343911D01*
X155088Y343408D01*
X156402D01*
X157616Y343911D01*
X158544Y344840D01*
X159047Y346053D01*
Y347367D01*
X158544Y348580D01*
X158081Y349044D01*
X157800Y349941D01*
X158111Y350673D01*
X158628Y351190D01*
X159131Y352403D01*
Y353717D01*
X158628Y354930D01*
X157699Y355859D01*
X156486Y356362D01*
D02*
G37*
G36*
X528667Y347123D02*
X527354D01*
X526140Y346620D01*
X525211Y345691D01*
X524709Y344478D01*
Y343164D01*
X525211Y341950D01*
X525551Y341610D01*
X526008Y340780D01*
X525551Y339951D01*
X525211Y339610D01*
X524709Y338397D01*
Y337083D01*
X525211Y335870D01*
X526140Y334941D01*
X527354Y334438D01*
X528667D01*
X529881Y334941D01*
X530810Y335870D01*
X531312Y337083D01*
Y338397D01*
X530810Y339610D01*
X530470Y339951D01*
X530014Y340780D01*
X530470Y341610D01*
X530810Y341950D01*
X531312Y343164D01*
Y344478D01*
X530810Y345691D01*
X529881Y346620D01*
X528667Y347123D01*
D02*
G37*
G36*
X231797Y330941D02*
X230483D01*
X229270Y330439D01*
X228974Y330143D01*
X228144Y329631D01*
X227314Y330143D01*
X227019Y330439D01*
X225805Y330941D01*
X224491D01*
X223278Y330439D01*
X222349Y329510D01*
X221846Y328296D01*
Y326982D01*
X222349Y325769D01*
X223278Y324840D01*
X224491Y324337D01*
X225805D01*
X227019Y324840D01*
X227314Y325136D01*
X228144Y325648D01*
X228974Y325136D01*
X229270Y324840D01*
X230483Y324337D01*
X231797D01*
X233010Y324840D01*
X233939Y325769D01*
X234442Y326982D01*
Y328296D01*
X233939Y329510D01*
X233010Y330439D01*
X231797Y330941D01*
D02*
G37*
G36*
X248546D02*
X247232D01*
X246019Y330439D01*
X245090Y329510D01*
X244587Y328296D01*
Y326982D01*
X245090Y325769D01*
X246019Y324840D01*
X247232Y324337D01*
X248546D01*
X249760Y324840D01*
X250689Y325769D01*
X251191Y326982D01*
Y328296D01*
X250689Y329510D01*
X249760Y330439D01*
X248546Y330941D01*
D02*
G37*
G36*
X537947Y329692D02*
X536633D01*
X535420Y329189D01*
X534491Y328260D01*
X533988Y327047D01*
Y325733D01*
X534491Y324520D01*
X535420Y323591D01*
X536633Y323088D01*
X537947D01*
X539160Y323591D01*
X540089Y324520D01*
X540592Y325733D01*
Y327047D01*
X540089Y328260D01*
X539160Y329189D01*
X537947Y329692D01*
D02*
G37*
G36*
X357527Y327450D02*
X356213D01*
X355000Y326948D01*
X354071Y326019D01*
X353568Y324805D01*
Y323492D01*
X354071Y322278D01*
X355000Y321349D01*
X356213Y320846D01*
X357527D01*
X358740Y321349D01*
X359182Y321790D01*
X360155Y322048D01*
X360795Y321744D01*
X361350Y321189D01*
X362563Y320686D01*
X363877D01*
X365090Y321189D01*
X366019Y322118D01*
X366522Y323332D01*
Y324645D01*
X366019Y325859D01*
X365090Y326788D01*
X363877Y327290D01*
X362563D01*
X361350Y326788D01*
X360908Y326347D01*
X359935Y326089D01*
X359295Y326393D01*
X358740Y326948D01*
X357527Y327450D01*
D02*
G37*
G36*
X528667Y329692D02*
X527354D01*
X526140Y329189D01*
X525211Y328260D01*
X524709Y327047D01*
Y325733D01*
X525211Y324520D01*
X525646Y324085D01*
X525998Y323255D01*
X525646Y322425D01*
X525211Y321990D01*
X524709Y320777D01*
Y319463D01*
X525211Y318250D01*
X526140Y317321D01*
X527354Y316818D01*
X528667D01*
X529881Y317321D01*
X530810Y318250D01*
X531312Y319463D01*
Y320777D01*
X530810Y321990D01*
X530375Y322425D01*
X530023Y323255D01*
X530375Y324085D01*
X530810Y324520D01*
X531312Y325733D01*
Y327047D01*
X530810Y328260D01*
X529881Y329189D01*
X528667Y329692D01*
D02*
G37*
G36*
X363877Y318210D02*
X362563D01*
X361350Y317707D01*
X360421Y316778D01*
X359918Y315565D01*
Y314251D01*
X360421Y313038D01*
X361350Y312109D01*
X362563Y311606D01*
X363877D01*
X365090Y312109D01*
X366019Y313038D01*
X366522Y314251D01*
Y315565D01*
X366019Y316778D01*
X365090Y317707D01*
X363877Y318210D01*
D02*
G37*
G36*
X350923D02*
X349609D01*
X348396Y317707D01*
X347467Y316778D01*
X346964Y315565D01*
Y314251D01*
X347467Y313038D01*
X348396Y312109D01*
X349609Y311606D01*
X350923D01*
X352136Y312109D01*
X353065Y313038D01*
X353568Y314251D01*
Y315565D01*
X353065Y316778D01*
X352136Y317707D01*
X350923Y318210D01*
D02*
G37*
G36*
X148806Y314274D02*
X147492D01*
X146278Y313771D01*
X145350Y312842D01*
X144847Y311628D01*
Y310315D01*
X145350Y309101D01*
X146278Y308172D01*
X147492Y307670D01*
X148806D01*
X150019Y308172D01*
X150948Y309101D01*
X151451Y310315D01*
Y311628D01*
X150948Y312842D01*
X150019Y313771D01*
X148806Y314274D01*
D02*
G37*
G36*
X156807Y314182D02*
X155493D01*
X154279Y313680D01*
X153351Y312751D01*
X152848Y311537D01*
Y310224D01*
X153351Y309010D01*
X154279Y308081D01*
X155493Y307578D01*
X156807D01*
X158020Y308081D01*
X158949Y309010D01*
X159452Y310224D01*
Y311537D01*
X158949Y312751D01*
X158020Y313680D01*
X156807Y314182D01*
D02*
G37*
G36*
X199854Y307687D02*
X198540D01*
X197327Y307185D01*
X196785Y306643D01*
X196243Y307185D01*
X195029Y307687D01*
X193715D01*
X192502Y307185D01*
X192087Y306770D01*
X191672Y307185D01*
X190458Y307687D01*
X189145D01*
X187931Y307185D01*
X187002Y306256D01*
X186500Y305042D01*
Y303728D01*
X187002Y302515D01*
X187931Y301586D01*
X189145Y301083D01*
X190458D01*
X191672Y301586D01*
X192087Y302001D01*
X192502Y301586D01*
X193715Y301083D01*
X195029D01*
X196243Y301586D01*
X196785Y302128D01*
X197327Y301586D01*
X198540Y301083D01*
X199854D01*
X201067Y301586D01*
X201996Y302515D01*
X202499Y303728D01*
Y305042D01*
X201996Y306256D01*
X201067Y307185D01*
X199854Y307687D01*
D02*
G37*
G36*
X327870Y307175D02*
X326556D01*
X325342Y306672D01*
X324928Y306258D01*
X324513Y306672D01*
X323299Y307175D01*
X321985D01*
X320772Y306672D01*
X320357Y306258D01*
X319942Y306672D01*
X318728Y307175D01*
X317415D01*
X316201Y306672D01*
X315272Y305744D01*
X314770Y304530D01*
Y303216D01*
X315272Y302003D01*
X316201Y301074D01*
X317415Y300571D01*
X318728D01*
X319942Y301074D01*
X320357Y301489D01*
X320772Y301074D01*
X321985Y300571D01*
X323299D01*
X324513Y301074D01*
X324928Y301489D01*
X325342Y301074D01*
X326556Y300571D01*
X327870D01*
X329083Y301074D01*
X330012Y302003D01*
X330515Y303216D01*
Y304530D01*
X330012Y305744D01*
X329083Y306672D01*
X327870Y307175D01*
D02*
G37*
G36*
X221788Y310393D02*
X220778D01*
X219844Y310006D01*
X219130Y309292D01*
X218743Y308358D01*
Y307348D01*
X217788Y306393D01*
X216778D01*
X215844Y306006D01*
X215283Y305445D01*
X214722Y306006D01*
X213788Y306393D01*
X212778D01*
X211844Y306006D01*
X211130Y305292D01*
X210743Y304358D01*
Y303348D01*
X211130Y302414D01*
X211844Y301700D01*
X212778Y301313D01*
X213788D01*
X214722Y301700D01*
X215283Y302261D01*
X215844Y301700D01*
X216778Y301313D01*
X217788D01*
X218743Y300358D01*
Y299348D01*
X217788Y298393D01*
X216778D01*
X215844Y298006D01*
X215130Y297292D01*
X214743Y296358D01*
Y295348D01*
X215130Y294414D01*
X215844Y293700D01*
X216778Y293313D01*
X217788D01*
X218722Y293700D01*
X219283Y294261D01*
X219844Y293700D01*
X220778Y293313D01*
X221788D01*
X222722Y293700D01*
X223436Y294414D01*
X223823Y295348D01*
Y296358D01*
X223436Y297292D01*
X222875Y297853D01*
X223436Y298414D01*
X223823Y299348D01*
Y300358D01*
X223436Y301292D01*
X222875Y301853D01*
X223436Y302414D01*
X223823Y303348D01*
Y304358D01*
X223436Y305292D01*
X222875Y305853D01*
X223436Y306414D01*
X223823Y307348D01*
Y308358D01*
X223436Y309292D01*
X222722Y310006D01*
X221788Y310393D01*
D02*
G37*
G36*
X350058Y305881D02*
X349048D01*
X348114Y305494D01*
X347553Y304933D01*
X346992Y305494D01*
X346058Y305881D01*
X345048D01*
X344114Y305494D01*
X343553Y304933D01*
X342992Y305494D01*
X342058Y305881D01*
X341048D01*
X340114Y305494D01*
X339400Y304780D01*
X339013Y303846D01*
Y302836D01*
X339400Y301902D01*
X340114Y301188D01*
X341048Y300801D01*
X342058D01*
X342992Y301188D01*
X343553Y301749D01*
X344114Y301188D01*
X345048Y300801D01*
X346058D01*
X347013Y299846D01*
Y298836D01*
X346058Y297881D01*
X345048D01*
X344114Y297494D01*
X343400Y296780D01*
X343013Y295846D01*
Y294836D01*
X343400Y293902D01*
X344114Y293188D01*
X345048Y292801D01*
X346058D01*
X346992Y293188D01*
X347553Y293749D01*
X348114Y293188D01*
X349048Y292801D01*
X350058D01*
X350992Y293188D01*
X351706Y293902D01*
X352093Y294836D01*
Y295846D01*
X351706Y296780D01*
X351145Y297341D01*
X351706Y297902D01*
X352093Y298836D01*
Y299846D01*
X351706Y300780D01*
X351145Y301341D01*
X351706Y301902D01*
X352093Y302836D01*
Y303846D01*
X351706Y304780D01*
X350992Y305494D01*
X350058Y305881D01*
D02*
G37*
G36*
X248546Y317943D02*
X247232D01*
X246019Y317440D01*
X245090Y316511D01*
X244587Y315298D01*
Y313984D01*
X245090Y312770D01*
X245848Y312013D01*
X245944Y311275D01*
X245848Y310538D01*
X245090Y309780D01*
X244587Y308567D01*
Y307253D01*
X245090Y306039D01*
X246019Y305110D01*
X247232Y304608D01*
X248546D01*
X249760Y305110D01*
X250689Y306039D01*
X251191Y307253D01*
Y308567D01*
X250689Y309780D01*
X249931Y310538D01*
X249834Y311275D01*
X249931Y312013D01*
X250689Y312770D01*
X251191Y313984D01*
Y315298D01*
X250689Y316511D01*
X249760Y317440D01*
X248546Y317943D01*
D02*
G37*
G36*
X578049Y309182D02*
X576735D01*
X575522Y308679D01*
X574593Y307750D01*
X574090Y306537D01*
Y305223D01*
X574593Y304010D01*
X575522Y303081D01*
X576735Y302578D01*
X578049D01*
X579262Y303081D01*
X580191Y304010D01*
X580694Y305223D01*
Y306537D01*
X580191Y307750D01*
X579262Y308679D01*
X578049Y309182D01*
D02*
G37*
G36*
X563445D02*
X562131D01*
X560918Y308679D01*
X559989Y307750D01*
X559486Y306537D01*
Y305223D01*
X559989Y304010D01*
X560918Y303081D01*
X562131Y302578D01*
X563445D01*
X564658Y303081D01*
X565587Y304010D01*
X566090Y305223D01*
Y306537D01*
X565587Y307750D01*
X564658Y308679D01*
X563445Y309182D01*
D02*
G37*
G36*
X148714Y306273D02*
X147401D01*
X146187Y305770D01*
X145258Y304841D01*
X144756Y303627D01*
Y302314D01*
X145258Y301100D01*
X146187Y300171D01*
X147401Y299669D01*
X148714D01*
X149928Y300171D01*
X150857Y301100D01*
X151360Y302314D01*
Y303627D01*
X150857Y304841D01*
X149928Y305770D01*
X148714Y306273D01*
D02*
G37*
G36*
X156715Y306181D02*
X155402D01*
X154188Y305679D01*
X153259Y304750D01*
X152757Y303536D01*
Y302222D01*
X153259Y301009D01*
X154188Y300080D01*
X155402Y299577D01*
X156715D01*
X157929Y300080D01*
X158858Y301009D01*
X159361Y302222D01*
Y303536D01*
X158858Y304750D01*
X157929Y305679D01*
X156715Y306181D01*
D02*
G37*
G36*
X195029Y299006D02*
X193715D01*
X192502Y298504D01*
X192087Y298089D01*
X191672Y298504D01*
X190458Y299006D01*
X189145D01*
X187931Y298504D01*
X187002Y297575D01*
X186500Y296361D01*
Y295048D01*
X187002Y293834D01*
X187931Y292905D01*
X189145Y292402D01*
X190458D01*
X191672Y292905D01*
X192087Y293320D01*
X192502Y292905D01*
X193715Y292402D01*
X195029D01*
X196243Y292905D01*
X196757Y293419D01*
X197326Y292849D01*
X198540Y292346D01*
X199854D01*
X201067Y292849D01*
X201996Y293778D01*
X202499Y294992D01*
Y296305D01*
X201996Y297519D01*
X201067Y298448D01*
X199854Y298950D01*
X198540D01*
X197326Y298448D01*
X196812Y297934D01*
X196243Y298504D01*
X195029Y299006D01*
D02*
G37*
G36*
X323299Y298494D02*
X321985D01*
X320772Y297992D01*
X320357Y297577D01*
X319942Y297992D01*
X318728Y298494D01*
X317415D01*
X316201Y297992D01*
X315272Y297063D01*
X314770Y295849D01*
Y294536D01*
X315272Y293322D01*
X316201Y292393D01*
X317415Y291890D01*
X318728D01*
X319942Y292393D01*
X320357Y292808D01*
X320772Y292393D01*
X321985Y291890D01*
X323299D01*
X324513Y292393D01*
X324900Y292780D01*
X325342Y292337D01*
X326556Y291834D01*
X327870D01*
X329083Y292337D01*
X330012Y293266D01*
X330515Y294480D01*
Y295793D01*
X330012Y297007D01*
X329083Y297936D01*
X327870Y298438D01*
X326556D01*
X325342Y297936D01*
X324955Y297549D01*
X324513Y297992D01*
X323299Y298494D01*
D02*
G37*
G36*
X248546Y301168D02*
X247232D01*
X246019Y300665D01*
X245090Y299736D01*
X244587Y298522D01*
Y297209D01*
X245090Y295995D01*
X246019Y295066D01*
X247232Y294564D01*
X248546D01*
X249760Y295066D01*
X250689Y295995D01*
X251191Y297209D01*
Y298522D01*
X250689Y299736D01*
X249760Y300665D01*
X248546Y301168D01*
D02*
G37*
G36*
X377593Y305054D02*
X376279D01*
X375066Y304551D01*
X374137Y303622D01*
X373634Y302409D01*
Y301095D01*
X374137Y299882D01*
X374200Y299818D01*
X374943Y298901D01*
X374014Y297973D01*
X373511Y296759D01*
Y295445D01*
X374014Y294232D01*
X374943Y293303D01*
X376156Y292800D01*
X377470D01*
X378683Y293303D01*
X379612Y294232D01*
X380115Y295445D01*
Y296759D01*
X379612Y297973D01*
X379549Y298036D01*
X378806Y298953D01*
X379735Y299882D01*
X380238Y301095D01*
Y302409D01*
X379735Y303622D01*
X378806Y304551D01*
X377593Y305054D01*
D02*
G37*
G36*
X615247Y297484D02*
X613933D01*
X612720Y296981D01*
X611791Y296052D01*
X611288Y294839D01*
Y293525D01*
X611791Y292312D01*
X612720Y291383D01*
X613933Y290880D01*
X615247D01*
X616460Y291383D01*
X617389Y292312D01*
X617892Y293525D01*
Y294839D01*
X617389Y296052D01*
X616460Y296981D01*
X615247Y297484D01*
D02*
G37*
G36*
X606747D02*
X605433D01*
X604220Y296981D01*
X603291Y296052D01*
X602788Y294839D01*
Y293525D01*
X603291Y292312D01*
X604220Y291383D01*
X605433Y290880D01*
X606747D01*
X607960Y291383D01*
X608889Y292312D01*
X609392Y293525D01*
Y294839D01*
X608889Y296052D01*
X607960Y296981D01*
X606747Y297484D01*
D02*
G37*
G36*
X598247D02*
X596933D01*
X595720Y296981D01*
X594791Y296052D01*
X594288Y294839D01*
Y293525D01*
X594791Y292312D01*
X595720Y291383D01*
X596933Y290880D01*
X598247D01*
X599460Y291383D01*
X600389Y292312D01*
X600892Y293525D01*
Y294839D01*
X600389Y296052D01*
X599460Y296981D01*
X598247Y297484D01*
D02*
G37*
G36*
X589747D02*
X588433D01*
X587220Y296981D01*
X586291Y296052D01*
X585788Y294839D01*
Y293525D01*
X586291Y292312D01*
X587220Y291383D01*
X588433Y290880D01*
X589747D01*
X590960Y291383D01*
X591889Y292312D01*
X592392Y293525D01*
Y294839D01*
X591889Y296052D01*
X590960Y296981D01*
X589747Y297484D01*
D02*
G37*
G36*
X581247D02*
X579933D01*
X578720Y296981D01*
X577791Y296052D01*
X577288Y294839D01*
Y293525D01*
X577791Y292312D01*
X578720Y291383D01*
X579933Y290880D01*
X581247D01*
X582460Y291383D01*
X583389Y292312D01*
X583892Y293525D01*
Y294839D01*
X583389Y296052D01*
X582460Y296981D01*
X581247Y297484D01*
D02*
G37*
G36*
X526275Y286258D02*
X524961D01*
X523748Y285755D01*
X522819Y284826D01*
X522316Y283613D01*
Y282299D01*
X522819Y281086D01*
X523748Y280157D01*
X524961Y279654D01*
X526275D01*
X527488Y280157D01*
X528417Y281086D01*
X528920Y282299D01*
Y283613D01*
X528417Y284826D01*
X527488Y285755D01*
X526275Y286258D01*
D02*
G37*
G36*
X505711Y277622D02*
X504701D01*
X503767Y277235D01*
X503492Y276960D01*
X503216Y277235D01*
X502282Y277622D01*
X501272D01*
X500338Y277235D01*
X500062Y276960D01*
X499787Y277235D01*
X498853Y277622D01*
X497843D01*
X496909Y277235D01*
X496633Y276960D01*
X496358Y277235D01*
X495424Y277622D01*
X494414D01*
X493480Y277235D01*
X492766Y276521D01*
X492379Y275587D01*
Y274577D01*
X492766Y273643D01*
X493480Y272929D01*
X494414Y272542D01*
X495424D01*
X496358Y272929D01*
X496633Y273204D01*
X496909Y272929D01*
X497843Y272542D01*
X498853D01*
X499787Y272929D01*
X500062Y273204D01*
X500338Y272929D01*
X501272Y272542D01*
X502282D01*
X503216Y272929D01*
X503492Y273204D01*
X503767Y272929D01*
X504701Y272542D01*
X505711D01*
X506645Y272929D01*
X507359Y273643D01*
X507746Y274577D01*
Y275587D01*
X507359Y276521D01*
X506645Y277235D01*
X505711Y277622D01*
D02*
G37*
G36*
X666247Y282880D02*
X664933D01*
X663720Y282377D01*
X662791Y281448D01*
X662288Y280235D01*
Y278921D01*
X662791Y277708D01*
X663720Y276779D01*
X664933Y276276D01*
X666247D01*
X667460Y276779D01*
X668389Y277708D01*
X668892Y278921D01*
Y280235D01*
X668389Y281448D01*
X667460Y282377D01*
X666247Y282880D01*
D02*
G37*
G36*
X448930Y289211D02*
X447617D01*
X446403Y288708D01*
X445474Y287779D01*
X444972Y286566D01*
Y285252D01*
X445474Y284039D01*
X446118Y283395D01*
X446293Y282624D01*
X446118Y281853D01*
X445474Y281209D01*
X444972Y279996D01*
Y278682D01*
X445474Y277469D01*
X446403Y276540D01*
X447617Y276037D01*
X448930D01*
X450144Y276540D01*
X451073Y277469D01*
X451576Y278682D01*
Y279996D01*
X451073Y281209D01*
X450429Y281853D01*
X450254Y282624D01*
X450429Y283395D01*
X451073Y284039D01*
X451576Y285252D01*
Y286566D01*
X451073Y287779D01*
X450144Y288708D01*
X448930Y289211D01*
D02*
G37*
G36*
X314347Y273153D02*
X313033D01*
X311820Y272650D01*
X310959Y271790D01*
X310099Y272650D01*
X308886Y273153D01*
X307572D01*
X306359Y272650D01*
X305430Y271721D01*
X304927Y270507D01*
Y269194D01*
X305430Y267980D01*
X306359Y267051D01*
X307572Y266549D01*
X308886D01*
X310099Y267051D01*
X310959Y267911D01*
X311820Y267051D01*
X313033Y266549D01*
X314347D01*
X315560Y267051D01*
X316489Y267980D01*
X316992Y269194D01*
Y270507D01*
X316489Y271721D01*
X315560Y272650D01*
X314347Y273153D01*
D02*
G37*
G36*
X505711Y270891D02*
X504701D01*
X503767Y270504D01*
X503492Y270229D01*
X503216Y270504D01*
X502282Y270891D01*
X501272D01*
X500338Y270504D01*
X500062Y270229D01*
X499787Y270504D01*
X498853Y270891D01*
X497843D01*
X496909Y270504D01*
X496633Y270229D01*
X496358Y270504D01*
X495424Y270891D01*
X494414D01*
X493480Y270504D01*
X492766Y269790D01*
X492379Y268856D01*
Y267846D01*
X492766Y266912D01*
X493480Y266198D01*
X494414Y265811D01*
X495424D01*
X496358Y266198D01*
X496633Y266473D01*
X496909Y266198D01*
X497843Y265811D01*
X498853D01*
X499787Y266198D01*
X500062Y266473D01*
X500338Y266198D01*
X501272Y265811D01*
X502282D01*
X503216Y266198D01*
X503492Y266473D01*
X503767Y266198D01*
X504701Y265811D01*
X505711D01*
X506645Y266198D01*
X507359Y266912D01*
X507746Y267846D01*
Y268856D01*
X507359Y269790D01*
X506645Y270504D01*
X505711Y270891D01*
D02*
G37*
G36*
X223211Y278502D02*
X221897D01*
X220683Y277999D01*
X219755Y277070D01*
X219252Y275856D01*
Y274543D01*
X219755Y273329D01*
X220610Y272474D01*
X219755Y271618D01*
X219252Y270405D01*
Y269091D01*
X219755Y267878D01*
X220683Y266949D01*
X221897Y266446D01*
X223211D01*
X224424Y266949D01*
X225353Y267878D01*
X225856Y269091D01*
Y270405D01*
X225353Y271618D01*
X224498Y272474D01*
X225353Y273329D01*
X225856Y274543D01*
Y275856D01*
X225353Y277070D01*
X224424Y277999D01*
X223211Y278502D01*
D02*
G37*
G36*
X215210Y289405D02*
X213896D01*
X212682Y288902D01*
X211754Y287973D01*
X211251Y286760D01*
Y285446D01*
X211754Y284233D01*
X212609Y283377D01*
X211754Y282522D01*
X211251Y281308D01*
Y279995D01*
X211754Y278781D01*
X212609Y277926D01*
X211754Y277070D01*
X211251Y275856D01*
Y274543D01*
X211754Y273329D01*
X212609Y272474D01*
X211754Y271618D01*
X211251Y270405D01*
Y269091D01*
X211754Y267878D01*
X212682Y266949D01*
X213896Y266446D01*
X215210D01*
X216423Y266949D01*
X217352Y267878D01*
X217855Y269091D01*
Y270405D01*
X217352Y271618D01*
X216497Y272474D01*
X217352Y273329D01*
X217855Y274543D01*
Y275856D01*
X217352Y277070D01*
X216497Y277926D01*
X217352Y278781D01*
X217855Y279995D01*
Y281308D01*
X217352Y282522D01*
X216497Y283377D01*
X217352Y284233D01*
X217855Y285446D01*
Y286760D01*
X217352Y287973D01*
X216423Y288902D01*
X215210Y289405D01*
D02*
G37*
G36*
X343617Y290062D02*
X342303D01*
X341090Y289559D01*
X340161Y288630D01*
X339658Y287417D01*
Y286103D01*
X340161Y284890D01*
X340318Y284732D01*
X341039Y283902D01*
X340318Y283073D01*
X340161Y282915D01*
X339658Y281702D01*
Y280388D01*
X340161Y279174D01*
X340318Y279017D01*
X341039Y278187D01*
X340318Y277358D01*
X340161Y277200D01*
X339658Y275987D01*
Y274673D01*
X340161Y273459D01*
X340318Y273302D01*
X341039Y272472D01*
X340318Y271643D01*
X340161Y271485D01*
X339658Y270272D01*
Y268958D01*
X340161Y267745D01*
X341090Y266816D01*
X342303Y266313D01*
X343617D01*
X344831Y266816D01*
X345588Y267573D01*
X346326Y267670D01*
X347063Y267573D01*
X347821Y266816D01*
X349034Y266313D01*
X350348D01*
X351562Y266816D01*
X352491Y267745D01*
X352993Y268958D01*
Y270272D01*
X352491Y271485D01*
X352333Y271643D01*
X351612Y272472D01*
X352333Y273302D01*
X352491Y273459D01*
X352993Y274673D01*
Y275987D01*
X352491Y277200D01*
X351562Y278129D01*
X350348Y278632D01*
X349034D01*
X347821Y278129D01*
X347063Y277372D01*
X346326Y277275D01*
X345815Y277342D01*
X345118Y278459D01*
X345602Y279017D01*
X345760Y279174D01*
X346262Y280388D01*
Y281702D01*
X345760Y282915D01*
X345602Y283073D01*
X344881Y283902D01*
X345602Y284732D01*
X345760Y284890D01*
X346262Y286103D01*
Y287417D01*
X345760Y288630D01*
X344831Y289559D01*
X343617Y290062D01*
D02*
G37*
G36*
X189887Y272542D02*
X188573D01*
X187360Y272039D01*
X186431Y271110D01*
X185928Y269897D01*
Y268583D01*
X186431Y267370D01*
X187360Y266441D01*
X188573Y265938D01*
X189887D01*
X191100Y266441D01*
X192029Y267370D01*
X192532Y268583D01*
Y269897D01*
X192029Y271110D01*
X191100Y272039D01*
X189887Y272542D01*
D02*
G37*
G36*
X512467Y265334D02*
X511153D01*
X509940Y264831D01*
X509011Y263902D01*
X508508Y262689D01*
Y261375D01*
X509011Y260162D01*
X509940Y259233D01*
X511153Y258730D01*
X512467D01*
X513680Y259233D01*
X514609Y260162D01*
X515112Y261375D01*
Y262689D01*
X514609Y263902D01*
X513680Y264831D01*
X512467Y265334D01*
D02*
G37*
G36*
X189887Y264541D02*
X188573D01*
X187360Y264038D01*
X186431Y263109D01*
X185928Y261896D01*
Y260582D01*
X186431Y259369D01*
X187360Y258440D01*
X188573Y257937D01*
X189887D01*
X191100Y258440D01*
X192029Y259369D01*
X192532Y260582D01*
Y261896D01*
X192029Y263109D01*
X191100Y264038D01*
X189887Y264541D01*
D02*
G37*
G36*
X158645Y269795D02*
X157331D01*
X156117Y269293D01*
X155189Y268364D01*
X154686Y267150D01*
Y265836D01*
X155189Y264623D01*
X155945Y263866D01*
X155189Y263109D01*
X154686Y261896D01*
Y260582D01*
X155189Y259369D01*
X156117Y258440D01*
X157331Y257937D01*
X158645D01*
X159858Y258440D01*
X160787Y259369D01*
X161290Y260582D01*
Y261896D01*
X160787Y263109D01*
X160031Y263866D01*
X160787Y264623D01*
X161290Y265836D01*
Y267150D01*
X160787Y268364D01*
X159858Y269293D01*
X158645Y269795D01*
D02*
G37*
G36*
X150644D02*
X149330D01*
X148117Y269293D01*
X147188Y268364D01*
X146685Y267150D01*
Y265836D01*
X147188Y264623D01*
X147944Y263866D01*
X147188Y263109D01*
X146685Y261896D01*
Y260582D01*
X147188Y259369D01*
X148117Y258440D01*
X149330Y257937D01*
X150644D01*
X151857Y258440D01*
X152786Y259369D01*
X153289Y260582D01*
Y261896D01*
X152786Y263109D01*
X152030Y263866D01*
X152786Y264623D01*
X153289Y265836D01*
Y267150D01*
X152786Y268364D01*
X151857Y269293D01*
X150644Y269795D01*
D02*
G37*
G36*
X537638Y258940D02*
X536324D01*
X535111Y258437D01*
X534182Y257508D01*
X533679Y256295D01*
Y254981D01*
X534182Y253768D01*
X535111Y252839D01*
X536324Y252336D01*
X537638D01*
X538851Y252839D01*
X539780Y253768D01*
X540283Y254981D01*
Y256295D01*
X539780Y257508D01*
X538851Y258437D01*
X537638Y258940D01*
D02*
G37*
G36*
X529637D02*
X528323D01*
X527110Y258437D01*
X526181Y257508D01*
X525678Y256295D01*
Y254981D01*
X526181Y253768D01*
X527110Y252839D01*
X528323Y252336D01*
X529637D01*
X530850Y252839D01*
X531779Y253768D01*
X532282Y254981D01*
Y256295D01*
X531779Y257508D01*
X530850Y258437D01*
X529637Y258940D01*
D02*
G37*
G36*
X153214Y252633D02*
X151900D01*
X150686Y252131D01*
X149757Y251202D01*
X149255Y249988D01*
Y248674D01*
X149757Y247461D01*
X150686Y246532D01*
X151900Y246029D01*
X153214D01*
X154427Y246532D01*
X155356Y247461D01*
X155859Y248674D01*
Y249988D01*
X155356Y251202D01*
X154427Y252131D01*
X153214Y252633D01*
D02*
G37*
G36*
X145212D02*
X143899D01*
X142685Y252131D01*
X141756Y251202D01*
X141254Y249988D01*
Y248674D01*
X141756Y247461D01*
X142685Y246532D01*
X143899Y246029D01*
X145212D01*
X146426Y246532D01*
X147355Y247461D01*
X147858Y248674D01*
Y249988D01*
X147355Y251202D01*
X146426Y252131D01*
X145212Y252633D01*
D02*
G37*
G36*
X574953Y252563D02*
X573639D01*
X572426Y252060D01*
X571497Y251131D01*
X570994Y249918D01*
Y248604D01*
X571497Y247391D01*
X572426Y246462D01*
X573639Y245959D01*
X574953D01*
X576166Y246462D01*
X577095Y247391D01*
X577598Y248604D01*
Y249918D01*
X577095Y251131D01*
X576166Y252060D01*
X574953Y252563D01*
D02*
G37*
G36*
X153214Y244632D02*
X151900D01*
X150686Y244130D01*
X149757Y243201D01*
X149255Y241987D01*
Y240673D01*
X149757Y239460D01*
X150686Y238531D01*
X151900Y238028D01*
X153214D01*
X154427Y238531D01*
X155356Y239460D01*
X155859Y240673D01*
Y241987D01*
X155356Y243201D01*
X154427Y244130D01*
X153214Y244632D01*
D02*
G37*
G36*
X145212D02*
X143899D01*
X142685Y244130D01*
X141756Y243201D01*
X141254Y241987D01*
Y240673D01*
X141756Y239460D01*
X142685Y238531D01*
X143899Y238028D01*
X145212D01*
X146426Y238531D01*
X147355Y239460D01*
X147858Y240673D01*
Y241987D01*
X147355Y243201D01*
X146426Y244130D01*
X145212Y244632D01*
D02*
G37*
G36*
X738009Y242984D02*
X736695D01*
X735481Y242481D01*
X734553Y241553D01*
X734050Y240339D01*
Y239025D01*
X734553Y237812D01*
X735481Y236883D01*
X736695Y236380D01*
X738009D01*
X739222Y236883D01*
X740151Y237812D01*
X740654Y239025D01*
Y240339D01*
X740151Y241553D01*
X739222Y242481D01*
X738009Y242984D01*
D02*
G37*
G36*
X471319Y238252D02*
X470005D01*
X468792Y237749D01*
X467863Y236820D01*
X467360Y235607D01*
Y234293D01*
X467863Y233080D01*
X468792Y232151D01*
X470005Y231648D01*
X471319D01*
X472532Y232151D01*
X473461Y233080D01*
X473964Y234293D01*
Y235607D01*
X473461Y236820D01*
X472532Y237749D01*
X471319Y238252D01*
D02*
G37*
G36*
X463318D02*
X462004D01*
X460791Y237749D01*
X459862Y236820D01*
X459359Y235607D01*
Y234293D01*
X459862Y233080D01*
X460791Y232151D01*
X462004Y231648D01*
X463318D01*
X464531Y232151D01*
X465460Y233080D01*
X465963Y234293D01*
Y235607D01*
X465460Y236820D01*
X464531Y237749D01*
X463318Y238252D01*
D02*
G37*
G36*
X455317D02*
X454003D01*
X452790Y237749D01*
X451861Y236820D01*
X451358Y235607D01*
Y234293D01*
X451861Y233080D01*
X452790Y232151D01*
X454003Y231648D01*
X455317D01*
X456530Y232151D01*
X457459Y233080D01*
X457962Y234293D01*
Y235607D01*
X457459Y236820D01*
X456530Y237749D01*
X455317Y238252D01*
D02*
G37*
G36*
X489396Y229362D02*
X488083D01*
X486869Y228859D01*
X485940Y227930D01*
X485438Y226717D01*
Y225403D01*
X485940Y224190D01*
X486869Y223261D01*
X488083Y222758D01*
X489396D01*
X490610Y223261D01*
X491539Y224190D01*
X492042Y225403D01*
Y226717D01*
X491539Y227930D01*
X490610Y228859D01*
X489396Y229362D01*
D02*
G37*
G36*
X471319D02*
X470005D01*
X468792Y228859D01*
X467863Y227930D01*
X467360Y226717D01*
Y225403D01*
X467863Y224190D01*
X468792Y223261D01*
X470005Y222758D01*
X471319D01*
X472532Y223261D01*
X473461Y224190D01*
X473964Y225403D01*
Y226717D01*
X473461Y227930D01*
X472532Y228859D01*
X471319Y229362D01*
D02*
G37*
G36*
X463318D02*
X462004D01*
X460791Y228859D01*
X459862Y227930D01*
X459359Y226717D01*
Y225403D01*
X459862Y224190D01*
X460791Y223261D01*
X462004Y222758D01*
X463318D01*
X464531Y223261D01*
X465460Y224190D01*
X465963Y225403D01*
Y226717D01*
X465460Y227930D01*
X464531Y228859D01*
X463318Y229362D01*
D02*
G37*
G36*
X455317D02*
X454003D01*
X452790Y228859D01*
X451861Y227930D01*
X451358Y226717D01*
Y225403D01*
X451861Y224190D01*
X452790Y223261D01*
X454003Y222758D01*
X455317D01*
X456530Y223261D01*
X457459Y224190D01*
X457962Y225403D01*
Y226717D01*
X457459Y227930D01*
X456530Y228859D01*
X455317Y229362D01*
D02*
G37*
G36*
X153214Y222633D02*
X151900D01*
X150686Y222131D01*
X149757Y221202D01*
X149255Y219988D01*
Y218674D01*
X149757Y217461D01*
X150686Y216532D01*
X151900Y216029D01*
X153214D01*
X154427Y216532D01*
X155356Y217461D01*
X155859Y218674D01*
Y219988D01*
X155356Y221202D01*
X154427Y222131D01*
X153214Y222633D01*
D02*
G37*
G36*
X145212D02*
X143899D01*
X142685Y222131D01*
X141756Y221202D01*
X141254Y219988D01*
Y218674D01*
X141756Y217461D01*
X142685Y216532D01*
X143899Y216029D01*
X145212D01*
X146426Y216532D01*
X147355Y217461D01*
X147858Y218674D01*
Y219988D01*
X147355Y221202D01*
X146426Y222131D01*
X145212Y222633D01*
D02*
G37*
G36*
X153214Y214632D02*
X151900D01*
X150686Y214130D01*
X149757Y213201D01*
X149255Y211987D01*
Y210673D01*
X149757Y209460D01*
X150686Y208531D01*
X151900Y208028D01*
X153214D01*
X154427Y208531D01*
X155356Y209460D01*
X155859Y210673D01*
Y211987D01*
X155356Y213201D01*
X154427Y214130D01*
X153214Y214632D01*
D02*
G37*
G36*
X145212D02*
X143899D01*
X142685Y214130D01*
X141756Y213201D01*
X141254Y211987D01*
Y210673D01*
X141756Y209460D01*
X142685Y208531D01*
X143899Y208028D01*
X145212D01*
X146426Y208531D01*
X147355Y209460D01*
X147858Y210673D01*
Y211987D01*
X147355Y213201D01*
X146426Y214130D01*
X145212Y214632D01*
D02*
G37*
G36*
X574700Y211019D02*
X573386D01*
X572172Y210517D01*
X571243Y209588D01*
X570741Y208374D01*
Y207061D01*
X571243Y205847D01*
X572172Y204918D01*
X573386Y204415D01*
X574700D01*
X575913Y204918D01*
X576842Y205847D01*
X577345Y207061D01*
Y208374D01*
X576842Y209588D01*
X575913Y210517D01*
X574700Y211019D01*
D02*
G37*
G36*
X529637Y212440D02*
X528323D01*
X527110Y211937D01*
X526181Y211008D01*
X525678Y209795D01*
Y208481D01*
X526181Y207268D01*
X526573Y206875D01*
X526181Y206482D01*
X525678Y205269D01*
Y203955D01*
X526181Y202742D01*
X527110Y201813D01*
X528323Y201310D01*
X529637D01*
X530850Y201813D01*
X531779Y202742D01*
X532282Y203955D01*
Y205269D01*
X531779Y206482D01*
X531387Y206875D01*
X531779Y207268D01*
X532282Y208481D01*
Y209795D01*
X531779Y211008D01*
X530850Y211937D01*
X529637Y212440D01*
D02*
G37*
G36*
X670203Y207799D02*
X668889D01*
X667676Y207296D01*
X666747Y206367D01*
X666244Y205154D01*
Y203840D01*
X666747Y202627D01*
X667676Y201698D01*
X668889Y201195D01*
X670203D01*
X671416Y201698D01*
X672345Y202627D01*
X672848Y203840D01*
Y205154D01*
X672345Y206367D01*
X671416Y207296D01*
X670203Y207799D01*
D02*
G37*
G36*
X518817Y212440D02*
X517503D01*
X516290Y211937D01*
X515361Y211008D01*
X514858Y209795D01*
Y208481D01*
X515361Y207268D01*
X515443Y207185D01*
X515449Y205417D01*
X515445Y205413D01*
X514942Y204199D01*
Y202886D01*
X515445Y201672D01*
X516373Y200743D01*
X517587Y200241D01*
X518901D01*
X520114Y200743D01*
X521043Y201672D01*
X521546Y202886D01*
Y204199D01*
X521043Y205413D01*
X520961Y205495D01*
X520955Y207264D01*
X520959Y207268D01*
X521462Y208481D01*
Y209795D01*
X520959Y211008D01*
X520030Y211937D01*
X518817Y212440D01*
D02*
G37*
G36*
X471424Y220284D02*
X425958D01*
X423969Y220022D01*
X422115Y219254D01*
X420523Y218033D01*
X419686Y216941D01*
X415697Y212953D01*
X414476Y211361D01*
X413708Y209507D01*
X413446Y207518D01*
Y200589D01*
X412555Y199698D01*
X413361Y198892D01*
X410610Y196141D01*
X410049Y195301D01*
X409852Y194310D01*
X410049Y193319D01*
X410610Y192479D01*
X415999Y187090D01*
X416839Y186529D01*
X417830Y186332D01*
X418311Y186428D01*
X418791Y186033D01*
X419294Y184820D01*
X420223Y183891D01*
X421437Y183388D01*
X422750D01*
X423544Y183717D01*
X424477Y183330D01*
X426466Y183068D01*
X426601D01*
X426632Y183020D01*
X426990Y181798D01*
X426325Y181133D01*
X425822Y179919D01*
Y178605D01*
X426325Y177392D01*
X427253Y176463D01*
X428467Y175960D01*
X429781D01*
X430994Y176463D01*
X431923Y177392D01*
X432426Y178605D01*
Y179919D01*
X431923Y181133D01*
X431257Y181798D01*
X431615Y183020D01*
X431647Y183068D01*
X438730D01*
X439257Y181798D01*
X439161Y181702D01*
X438658Y180489D01*
Y179175D01*
X439161Y177962D01*
X439731Y177391D01*
X439963Y176599D01*
X439731Y175807D01*
X439161Y175236D01*
X438658Y174023D01*
Y172709D01*
X439161Y171496D01*
X440090Y170567D01*
X441303Y170064D01*
X442617D01*
X443830Y170567D01*
X444759Y171496D01*
X445262Y172709D01*
Y174023D01*
X444759Y175236D01*
X444189Y175807D01*
X443957Y176599D01*
X444189Y177391D01*
X444759Y177962D01*
X445262Y179175D01*
Y180489D01*
X444759Y181702D01*
X444664Y181798D01*
X445190Y183068D01*
X449719D01*
X450178Y181798D01*
X449575Y181194D01*
X449072Y179981D01*
Y178667D01*
X449575Y177454D01*
X449860Y177169D01*
X450373Y176319D01*
X449860Y175509D01*
X449556Y175205D01*
X449053Y173992D01*
Y172678D01*
X449556Y171465D01*
X449628Y171393D01*
X449556Y171321D01*
X449053Y170107D01*
Y168794D01*
X449556Y167580D01*
X450485Y166651D01*
X451698Y166148D01*
X453012D01*
X454225Y166651D01*
X455123Y167549D01*
X456021Y166651D01*
X457234Y166148D01*
X458548D01*
X459762Y166651D01*
X460691Y167580D01*
X461193Y168794D01*
Y170107D01*
X460691Y171321D01*
X460619Y171393D01*
X460820Y171594D01*
X461323Y172808D01*
Y174121D01*
X460820Y175335D01*
X459892Y176264D01*
X458678Y176767D01*
X457364D01*
X456151Y176264D01*
X455875Y175988D01*
X455664Y176031D01*
X455302Y176541D01*
X455152Y177433D01*
X455173Y177454D01*
X455676Y178667D01*
Y179981D01*
X455173Y181194D01*
X454570Y181798D01*
X455029Y183068D01*
X466344D01*
X468333Y183330D01*
X470187Y184098D01*
X471779Y185319D01*
X471779Y185319D01*
X473787Y187327D01*
X474246Y187925D01*
X474724Y188470D01*
X475269Y188948D01*
X475491Y189119D01*
X476234Y189280D01*
X477200Y188944D01*
X477682Y188463D01*
X478895Y187960D01*
X480209D01*
X481422Y188463D01*
X482351Y189392D01*
X482854Y190605D01*
Y191919D01*
X482351Y193132D01*
X481870Y193614D01*
X481683Y195224D01*
X482955Y196495D01*
X484176Y198087D01*
X484944Y199941D01*
X485206Y201930D01*
Y206502D01*
X484944Y208491D01*
X484176Y210345D01*
X482955Y211937D01*
X476859Y218033D01*
X475267Y219254D01*
X473413Y220022D01*
X471424Y220284D01*
D02*
G37*
G36*
X530553Y185574D02*
X529239D01*
X528025Y185072D01*
X527096Y184143D01*
X526594Y182929D01*
Y181616D01*
X527096Y180402D01*
X528025Y179473D01*
X529239Y178970D01*
X530553D01*
X531766Y179473D01*
X532695Y180402D01*
X533198Y181616D01*
Y182929D01*
X532695Y184143D01*
X531766Y185072D01*
X530553Y185574D01*
D02*
G37*
G36*
X522552D02*
X521238D01*
X520024Y185072D01*
X519095Y184143D01*
X518593Y182929D01*
Y181616D01*
X519095Y180402D01*
X520024Y179473D01*
X521238Y178970D01*
X522552D01*
X523765Y179473D01*
X524694Y180402D01*
X525197Y181616D01*
Y182929D01*
X524694Y184143D01*
X523765Y185072D01*
X522552Y185574D01*
D02*
G37*
G36*
X514479Y185547D02*
X513166D01*
X511952Y185044D01*
X511023Y184115D01*
X510521Y182902D01*
Y181588D01*
X511023Y180375D01*
X511952Y179446D01*
X513166Y178943D01*
X514479D01*
X515693Y179446D01*
X516622Y180375D01*
X517125Y181588D01*
Y182902D01*
X516622Y184115D01*
X515693Y185044D01*
X514479Y185547D01*
D02*
G37*
G36*
X409597Y182564D02*
X408283D01*
X407070Y182061D01*
X406141Y181133D01*
X405638Y179919D01*
Y178605D01*
X406141Y177392D01*
X407070Y176463D01*
X408283Y175960D01*
X409597D01*
X410810Y176463D01*
X411739Y177392D01*
X412242Y178605D01*
Y179919D01*
X411739Y181133D01*
X410810Y182061D01*
X409597Y182564D01*
D02*
G37*
G36*
X476565Y176637D02*
X475251D01*
X474038Y176134D01*
X473221Y175318D01*
X472404Y176134D01*
X471191Y176637D01*
X469877D01*
X468664Y176134D01*
X467735Y175205D01*
X467232Y173992D01*
Y172678D01*
X467735Y171465D01*
X468664Y170536D01*
X468939Y170422D01*
X469900Y169567D01*
Y168253D01*
X470403Y167040D01*
X471332Y166111D01*
X472545Y165608D01*
X473859D01*
X475072Y166111D01*
X475747Y166785D01*
X476355Y166176D01*
X477569Y165674D01*
X478882D01*
X480096Y166176D01*
X481025Y167105D01*
X481528Y168319D01*
Y169632D01*
X481025Y170846D01*
X480096Y171775D01*
X479021Y172220D01*
X479210Y172678D01*
Y173992D01*
X478707Y175205D01*
X477778Y176134D01*
X476565Y176637D01*
D02*
G37*
G36*
X369982Y179678D02*
X368669D01*
X367455Y179175D01*
X366526Y178247D01*
X366023Y177033D01*
Y175719D01*
X366526Y174506D01*
X367455Y173577D01*
X368669Y173074D01*
X369982D01*
X371196Y173577D01*
X372125Y174506D01*
X372627Y175719D01*
X373824Y175543D01*
X373824Y174532D01*
X374327Y173318D01*
X375256Y172389D01*
X376470Y171887D01*
X377783D01*
X378997Y172389D01*
X379926Y173318D01*
X380428Y174532D01*
Y175846D01*
X379926Y177059D01*
X378997Y177988D01*
X377783Y178491D01*
X376470D01*
X375256Y177988D01*
X374327Y177059D01*
X373824Y175846D01*
X372627Y176022D01*
X372627Y177033D01*
X372125Y178247D01*
X371196Y179175D01*
X369982Y179678D01*
D02*
G37*
G36*
X247276Y177731D02*
X245963D01*
X244749Y177228D01*
X243820Y176299D01*
X243317Y175086D01*
Y173772D01*
X243820Y172558D01*
X244749Y171630D01*
X245963Y171127D01*
X247276D01*
X248490Y171630D01*
X249419Y172558D01*
X249921Y173772D01*
Y175086D01*
X249419Y176299D01*
X248490Y177228D01*
X247276Y177731D01*
D02*
G37*
G36*
X530553Y177573D02*
X529239D01*
X528025Y177071D01*
X527096Y176142D01*
X526594Y174928D01*
Y173615D01*
X527096Y172401D01*
X528025Y171472D01*
X529239Y170969D01*
X530553D01*
X531766Y171472D01*
X532695Y172401D01*
X533198Y173615D01*
Y174928D01*
X532695Y176142D01*
X531766Y177071D01*
X530553Y177573D01*
D02*
G37*
G36*
X522552D02*
X521238D01*
X520024Y177071D01*
X519095Y176142D01*
X518593Y174928D01*
Y173615D01*
X519095Y172401D01*
X520024Y171472D01*
X521238Y170969D01*
X522552D01*
X523765Y171472D01*
X524694Y172401D01*
X525197Y173615D01*
Y174928D01*
X524694Y176142D01*
X523765Y177071D01*
X522552Y177573D01*
D02*
G37*
G36*
X514479Y177546D02*
X513166D01*
X511952Y177043D01*
X511023Y176114D01*
X510521Y174901D01*
Y173587D01*
X511023Y172374D01*
X511952Y171445D01*
X513166Y170942D01*
X514479D01*
X515693Y171445D01*
X516622Y172374D01*
X517125Y173587D01*
Y174901D01*
X516622Y176114D01*
X515693Y177043D01*
X514479Y177546D01*
D02*
G37*
G36*
X359502Y172600D02*
X358189D01*
X356975Y172097D01*
X356046Y171168D01*
X355544Y169955D01*
Y168641D01*
X356046Y167428D01*
X356975Y166499D01*
X358189Y165996D01*
X359502D01*
X360716Y166499D01*
X361645Y167428D01*
X362147Y168641D01*
Y169955D01*
X361645Y171168D01*
X360716Y172097D01*
X359502Y172600D01*
D02*
G37*
G36*
X634902Y172157D02*
X633588D01*
X632375Y171655D01*
X631446Y170726D01*
X630943Y169512D01*
Y168198D01*
X631446Y166985D01*
X632375Y166056D01*
X633588Y165553D01*
X634902D01*
X636116Y166056D01*
X637045Y166985D01*
X637547Y168198D01*
Y169512D01*
X637045Y170726D01*
X636116Y171655D01*
X634902Y172157D01*
D02*
G37*
G36*
X626901D02*
X625588D01*
X624374Y171655D01*
X623445Y170726D01*
X622942Y169512D01*
Y168198D01*
X623445Y166985D01*
X624374Y166056D01*
X625588Y165553D01*
X626901D01*
X628115Y166056D01*
X629044Y166985D01*
X629546Y168198D01*
Y169512D01*
X629044Y170726D01*
X628115Y171655D01*
X626901Y172157D01*
D02*
G37*
G36*
X377783Y170490D02*
X376470D01*
X375256Y169987D01*
X374327Y169058D01*
X373824Y167845D01*
Y166531D01*
X374327Y165317D01*
X375256Y164388D01*
X376470Y163886D01*
X377783D01*
X378997Y164388D01*
X379926Y165317D01*
X380428Y166531D01*
Y167845D01*
X379926Y169058D01*
X378997Y169987D01*
X377783Y170490D01*
D02*
G37*
G36*
X228855Y183921D02*
X227542D01*
X226328Y183418D01*
X225399Y182489D01*
X224896Y181276D01*
Y179962D01*
X225399Y178748D01*
X225794Y178354D01*
X226188Y177524D01*
X225794Y176694D01*
X225399Y176299D01*
X224896Y175086D01*
Y173772D01*
X225399Y172558D01*
X226328Y171630D01*
X226828Y171422D01*
Y170048D01*
X226328Y169840D01*
X225399Y168911D01*
X224896Y167698D01*
Y166384D01*
X225399Y165171D01*
X226328Y164242D01*
X227542Y163739D01*
X228855D01*
X230069Y164242D01*
X230998Y165171D01*
X231500Y166384D01*
Y167698D01*
X230998Y168911D01*
X230069Y169840D01*
X229569Y170048D01*
Y171422D01*
X230069Y171630D01*
X230998Y172558D01*
X231500Y173772D01*
Y175086D01*
X230998Y176299D01*
X230603Y176694D01*
X230209Y177524D01*
X230603Y178354D01*
X230998Y178748D01*
X231500Y179962D01*
Y181276D01*
X230998Y182489D01*
X230069Y183418D01*
X228855Y183921D01*
D02*
G37*
G36*
X738426Y167894D02*
X737314D01*
X736287Y167469D01*
X735501Y166683D01*
X735076Y165656D01*
Y164544D01*
X735501Y163517D01*
X736287Y162731D01*
X737314Y162306D01*
X738426D01*
X739453Y162731D01*
X740239Y163517D01*
X740664Y164544D01*
Y165656D01*
X740239Y166683D01*
X739453Y167469D01*
X738426Y167894D01*
D02*
G37*
G36*
X198330Y161125D02*
X197016D01*
X195802Y160623D01*
X195388Y160208D01*
X194973Y160623D01*
X193759Y161125D01*
X192445D01*
X191232Y160623D01*
X190817Y160208D01*
X190402Y160623D01*
X189188Y161125D01*
X187875D01*
X186661Y160623D01*
X185732Y159694D01*
X185230Y158480D01*
Y157166D01*
X185732Y155953D01*
X186661Y155024D01*
X187875Y154521D01*
X189188D01*
X190402Y155024D01*
X190817Y155439D01*
X191232Y155024D01*
X192445Y154521D01*
X193759D01*
X194973Y155024D01*
X195388Y155439D01*
X195802Y155024D01*
X197016Y154521D01*
X198330D01*
X199543Y155024D01*
X200472Y155953D01*
X200975Y157166D01*
Y158480D01*
X200472Y159694D01*
X199543Y160623D01*
X198330Y161125D01*
D02*
G37*
G36*
X328837Y160234D02*
X327523D01*
X326310Y159731D01*
X325895Y159317D01*
X325480Y159731D01*
X324266Y160234D01*
X322952D01*
X321739Y159731D01*
X321324Y159317D01*
X320909Y159731D01*
X319695Y160234D01*
X318382D01*
X317168Y159731D01*
X316239Y158802D01*
X315737Y157589D01*
Y156275D01*
X316239Y155062D01*
X317168Y154133D01*
X318382Y153630D01*
X319695D01*
X320909Y154133D01*
X321324Y154548D01*
X321739Y154133D01*
X322952Y153630D01*
X324266D01*
X325480Y154133D01*
X325895Y154548D01*
X326310Y154133D01*
X327523Y153630D01*
X328837D01*
X330050Y154133D01*
X330979Y155062D01*
X331482Y156275D01*
Y157589D01*
X330979Y158802D01*
X330050Y159731D01*
X328837Y160234D01*
D02*
G37*
G36*
X220518Y163831D02*
X219508D01*
X218574Y163444D01*
X217860Y162730D01*
X217473Y161796D01*
Y160786D01*
X216518Y159831D01*
X215508D01*
X214574Y159444D01*
X214013Y158883D01*
X213452Y159444D01*
X212518Y159831D01*
X211508D01*
X210574Y159444D01*
X209860Y158730D01*
X209473Y157796D01*
Y156786D01*
X209860Y155852D01*
X210574Y155138D01*
X211508Y154751D01*
X212518D01*
X213452Y155138D01*
X214013Y155699D01*
X214574Y155138D01*
X215508Y154751D01*
X216518D01*
X217473Y153796D01*
Y152786D01*
X216518Y151831D01*
X215508D01*
X214574Y151444D01*
X213860Y150730D01*
X213473Y149796D01*
Y148786D01*
X213860Y147852D01*
X214574Y147138D01*
X215508Y146751D01*
X216518D01*
X217452Y147138D01*
X218013Y147699D01*
X218574Y147138D01*
X219508Y146751D01*
X220518D01*
X221452Y147138D01*
X222166Y147852D01*
X222553Y148786D01*
Y149796D01*
X222166Y150730D01*
X221605Y151291D01*
X222166Y151852D01*
X222553Y152786D01*
Y153796D01*
X222166Y154730D01*
X221605Y155291D01*
X222166Y155852D01*
X222553Y156786D01*
Y157796D01*
X222166Y158730D01*
X221605Y159291D01*
X222166Y159852D01*
X222553Y160786D01*
Y161796D01*
X222166Y162730D01*
X221452Y163444D01*
X220518Y163831D01*
D02*
G37*
G36*
X455502Y159341D02*
X454188D01*
X452974Y158838D01*
X452869Y158733D01*
X451658Y159235D01*
X450344D01*
X449130Y158733D01*
X449097Y158699D01*
X447885Y159201D01*
X446571D01*
X445358Y158698D01*
X444429Y157769D01*
X443926Y156556D01*
Y155242D01*
X444429Y154029D01*
X445358Y153100D01*
X446571Y152597D01*
X447885D01*
X449099Y153100D01*
X449132Y153133D01*
X450344Y152631D01*
X451658D01*
X452871Y153134D01*
X452976Y153239D01*
X454188Y152737D01*
X455502D01*
X456575Y153181D01*
X456600Y153157D01*
X457813Y152654D01*
X459127D01*
X460340Y153157D01*
X461269Y154086D01*
X461772Y155299D01*
Y156613D01*
X461269Y157826D01*
X460340Y158755D01*
X459127Y159258D01*
X457813D01*
X456740Y158813D01*
X456715Y158838D01*
X455502Y159341D01*
D02*
G37*
G36*
X486051Y159004D02*
X484737D01*
X483524Y158501D01*
X483489Y158467D01*
X483454Y158501D01*
X482241Y159004D01*
X480927D01*
X479714Y158501D01*
X479679Y158467D01*
X479644Y158501D01*
X478431Y159004D01*
X477117D01*
X475904Y158501D01*
X475869Y158467D01*
X475834Y158501D01*
X474621Y159004D01*
X473307D01*
X472094Y158501D01*
X471165Y157572D01*
X470662Y156359D01*
Y155045D01*
X471165Y153832D01*
X472094Y152903D01*
X473307Y152400D01*
X474621D01*
X475834Y152903D01*
X475869Y152937D01*
X475904Y152903D01*
X477117Y152400D01*
X478431D01*
X479644Y152903D01*
X479679Y152937D01*
X479714Y152903D01*
X480927Y152400D01*
X482241D01*
X483454Y152903D01*
X483489Y152937D01*
X483524Y152903D01*
X484737Y152400D01*
X486051D01*
X487264Y152903D01*
X488193Y153832D01*
X488696Y155045D01*
Y156359D01*
X488193Y157572D01*
X487264Y158501D01*
X486051Y159004D01*
D02*
G37*
G36*
X351025Y162940D02*
X350015D01*
X349081Y162553D01*
X348367Y161839D01*
X347980Y160905D01*
Y159895D01*
X347025Y158940D01*
X346015D01*
X345081Y158553D01*
X344520Y157992D01*
X343959Y158553D01*
X343025Y158940D01*
X342015D01*
X341081Y158553D01*
X340367Y157839D01*
X339980Y156905D01*
Y155895D01*
X340367Y154961D01*
X341081Y154247D01*
X342015Y153860D01*
X343025D01*
X343959Y154247D01*
X344520Y154808D01*
X345081Y154247D01*
X346015Y153860D01*
X347025D01*
X347980Y152905D01*
Y151895D01*
X347025Y150940D01*
X346015D01*
X345081Y150553D01*
X344367Y149839D01*
X343980Y148905D01*
Y147895D01*
X344367Y146961D01*
X345081Y146247D01*
X346015Y145860D01*
X347025D01*
X347959Y146247D01*
X348520Y146808D01*
X349081Y146247D01*
X350015Y145860D01*
X351025D01*
X351959Y146247D01*
X352673Y146961D01*
X353060Y147895D01*
Y148905D01*
X352673Y149839D01*
X352112Y150400D01*
X352673Y150961D01*
X353060Y151895D01*
Y152905D01*
X352673Y153839D01*
X352112Y154400D01*
X352673Y154961D01*
X353060Y155895D01*
Y156905D01*
X352673Y157839D01*
X352112Y158400D01*
X352673Y158961D01*
X353060Y159895D01*
Y160905D01*
X352673Y161839D01*
X351959Y162553D01*
X351025Y162940D01*
D02*
G37*
G36*
X634902Y164156D02*
X633588D01*
X632375Y163654D01*
X631446Y162725D01*
X630943Y161511D01*
Y160197D01*
X631446Y158984D01*
X632375Y158055D01*
X633588Y157552D01*
X634902D01*
X636116Y158055D01*
X637045Y158984D01*
X637547Y160197D01*
Y161511D01*
X637045Y162725D01*
X636116Y163654D01*
X634902Y164156D01*
D02*
G37*
G36*
X626901D02*
X625588D01*
X624374Y163654D01*
X623445Y162725D01*
X622942Y161511D01*
Y160197D01*
X623445Y158984D01*
X624374Y158055D01*
X625588Y157552D01*
X626901D01*
X628115Y158055D01*
X629044Y158984D01*
X629546Y160197D01*
Y161511D01*
X629044Y162725D01*
X628115Y163654D01*
X626901Y164156D01*
D02*
G37*
G36*
X362152Y162973D02*
X360839D01*
X359625Y162470D01*
X358696Y161541D01*
X358194Y160328D01*
Y159014D01*
X358696Y157801D01*
X359625Y156872D01*
X360839Y156369D01*
X362152D01*
X363366Y156872D01*
X364295Y157801D01*
X364798Y159014D01*
Y160328D01*
X364295Y161541D01*
X363366Y162470D01*
X362152Y162973D01*
D02*
G37*
G36*
X228855Y161088D02*
X227542D01*
X226328Y160585D01*
X225399Y159656D01*
X224896Y158442D01*
Y157129D01*
X225399Y155915D01*
X226328Y154986D01*
X227542Y154484D01*
X228855D01*
X230069Y154986D01*
X230998Y155915D01*
X231500Y157129D01*
Y158442D01*
X230998Y159656D01*
X230069Y160585D01*
X228855Y161088D01*
D02*
G37*
G36*
X560323Y167950D02*
X559010D01*
X557796Y167447D01*
X556867Y166518D01*
X556365Y165305D01*
Y163991D01*
X556867Y162777D01*
X557796Y161849D01*
X558191Y161685D01*
Y160310D01*
X557598Y160065D01*
X556669Y159136D01*
X556166Y157922D01*
Y156608D01*
X556669Y155395D01*
X557598Y154466D01*
X558812Y153963D01*
X560125D01*
X561339Y154466D01*
X562268Y155395D01*
X562771Y156608D01*
Y157922D01*
X562268Y159136D01*
X561339Y160065D01*
X560944Y160228D01*
Y161603D01*
X561537Y161849D01*
X562466Y162777D01*
X562969Y163991D01*
Y165305D01*
X562466Y166518D01*
X561537Y167447D01*
X560323Y167950D01*
D02*
G37*
G36*
X193759Y152444D02*
X192445D01*
X191232Y151942D01*
X190817Y151527D01*
X190402Y151942D01*
X189188Y152444D01*
X187875D01*
X186661Y151942D01*
X185732Y151013D01*
X185230Y149799D01*
Y148486D01*
X185732Y147272D01*
X186661Y146343D01*
X187875Y145840D01*
X189188D01*
X190402Y146343D01*
X190817Y146758D01*
X191232Y146343D01*
X192445Y145840D01*
X193759D01*
X194973Y146343D01*
X195360Y146730D01*
X195802Y146287D01*
X197016Y145784D01*
X198330D01*
X199543Y146287D01*
X200472Y147216D01*
X200975Y148430D01*
Y149743D01*
X200472Y150957D01*
X199543Y151886D01*
X198330Y152388D01*
X197016D01*
X195802Y151886D01*
X195415Y151499D01*
X194973Y151942D01*
X193759Y152444D01*
D02*
G37*
G36*
X324266Y151553D02*
X322952D01*
X321739Y151051D01*
X321324Y150636D01*
X320909Y151051D01*
X319695Y151553D01*
X318382D01*
X317168Y151051D01*
X316239Y150122D01*
X315737Y148908D01*
Y147594D01*
X316239Y146381D01*
X317168Y145452D01*
X318382Y144949D01*
X319695D01*
X320909Y145452D01*
X321324Y145867D01*
X321739Y145452D01*
X322952Y144949D01*
X324266D01*
X325480Y145452D01*
X325867Y145839D01*
X326310Y145396D01*
X327523Y144893D01*
X328837D01*
X330050Y145396D01*
X330979Y146325D01*
X331482Y147538D01*
Y148852D01*
X330979Y150066D01*
X330050Y150995D01*
X328837Y151497D01*
X327523D01*
X326310Y150995D01*
X325923Y150608D01*
X325480Y151051D01*
X324266Y151553D01*
D02*
G37*
G36*
X634902Y156155D02*
X633588D01*
X632375Y155653D01*
X631446Y154724D01*
X630943Y153510D01*
Y152196D01*
X631446Y150983D01*
X632375Y150054D01*
X633588Y149551D01*
X634902D01*
X636116Y150054D01*
X637045Y150983D01*
X637547Y152196D01*
Y153510D01*
X637045Y154724D01*
X636116Y155653D01*
X634902Y156155D01*
D02*
G37*
G36*
X626901D02*
X625588D01*
X624374Y155653D01*
X623445Y154724D01*
X622942Y153510D01*
Y152196D01*
X623445Y150983D01*
X624374Y150054D01*
X625588Y149551D01*
X626901D01*
X628115Y150054D01*
X629044Y150983D01*
X629546Y152196D01*
Y153510D01*
X629044Y154724D01*
X628115Y155653D01*
X626901Y156155D01*
D02*
G37*
G36*
X247276Y151061D02*
X245963D01*
X244749Y150558D01*
X243820Y149629D01*
X243317Y148416D01*
Y147102D01*
X243820Y145888D01*
X244749Y144960D01*
X245963Y144457D01*
X247276D01*
X248490Y144960D01*
X249419Y145888D01*
X249921Y147102D01*
Y148416D01*
X249419Y149629D01*
X248490Y150558D01*
X247276Y151061D01*
D02*
G37*
G36*
X239275D02*
X237962D01*
X236748Y150558D01*
X235819Y149629D01*
X235316Y148416D01*
Y147102D01*
X235819Y145888D01*
X236748Y144960D01*
X237962Y144457D01*
X239275D01*
X240489Y144960D01*
X241418Y145888D01*
X241920Y147102D01*
Y148416D01*
X241418Y149629D01*
X240489Y150558D01*
X239275Y151061D01*
D02*
G37*
G36*
X350924Y140313D02*
X349610D01*
X348397Y139810D01*
X347468Y138881D01*
X346965Y137668D01*
X345695Y137296D01*
X345463Y137392D01*
X344149D01*
X342936Y136889D01*
X342007Y135960D01*
X341504Y134747D01*
Y133433D01*
X342007Y132219D01*
X342867Y131359D01*
X342007Y130499D01*
X341504Y129285D01*
Y127972D01*
X342007Y126758D01*
X342936Y125829D01*
X344149Y125327D01*
X345463D01*
X346058Y125573D01*
X347468Y125488D01*
X348397Y124559D01*
X349610Y124057D01*
X350924D01*
X352137Y124559D01*
X353066Y125488D01*
X353569Y126702D01*
Y128015D01*
X353066Y129229D01*
X352524Y129772D01*
X353066Y130314D01*
X353569Y131528D01*
Y132842D01*
X353066Y134055D01*
X352524Y134598D01*
X353066Y135140D01*
X353569Y136354D01*
Y137668D01*
X353066Y138881D01*
X352137Y139810D01*
X350924Y140313D01*
D02*
G37*
G36*
X187961Y128197D02*
X186647D01*
X185434Y127694D01*
X184505Y126765D01*
X184002Y125552D01*
Y124238D01*
X184505Y123024D01*
X185434Y122095D01*
X186647Y121593D01*
X187961D01*
X189175Y122095D01*
X190104Y123024D01*
X190606Y124238D01*
Y125552D01*
X190104Y126765D01*
X189175Y127694D01*
X187961Y128197D01*
D02*
G37*
G36*
X179960D02*
X178647D01*
X177433Y127694D01*
X176504Y126765D01*
X176001Y125552D01*
Y124238D01*
X176504Y123024D01*
X177433Y122095D01*
X178647Y121593D01*
X179960D01*
X181174Y122095D01*
X182103Y123024D01*
X182605Y124238D01*
Y125552D01*
X182103Y126765D01*
X181174Y127694D01*
X179960Y128197D01*
D02*
G37*
G36*
X318470Y127003D02*
X317157D01*
X315943Y126501D01*
X315014Y125572D01*
X314512Y124358D01*
Y123045D01*
X315014Y121831D01*
X315943Y120902D01*
X317157Y120399D01*
X318470D01*
X319684Y120902D01*
X320613Y121831D01*
X321115Y123045D01*
Y124358D01*
X320613Y125572D01*
X319684Y126501D01*
X318470Y127003D01*
D02*
G37*
G36*
X310469D02*
X309156D01*
X307942Y126501D01*
X307013Y125572D01*
X306511Y124358D01*
Y123045D01*
X307013Y121831D01*
X307942Y120902D01*
X309156Y120399D01*
X310469D01*
X311683Y120902D01*
X312612Y121831D01*
X313114Y123045D01*
Y124358D01*
X312612Y125572D01*
X311683Y126501D01*
X310469Y127003D01*
D02*
G37*
G36*
X212670Y138283D02*
X211356D01*
X210142Y137780D01*
X209214Y136851D01*
X208711Y135638D01*
Y134324D01*
X209214Y133110D01*
X209971Y132353D01*
X210068Y131615D01*
X209971Y130878D01*
X209214Y130120D01*
X208711Y128907D01*
Y127593D01*
X209214Y126379D01*
X209971Y125622D01*
X210068Y124884D01*
X209971Y124147D01*
X209214Y123389D01*
X208711Y122176D01*
Y120862D01*
X209214Y119648D01*
X210142Y118720D01*
X211356Y118217D01*
X212670D01*
X213883Y118720D01*
X214812Y119648D01*
X215315Y120862D01*
Y122176D01*
X214812Y123389D01*
X214055Y124147D01*
X213958Y124884D01*
X214055Y125622D01*
X214812Y126379D01*
X215315Y127593D01*
Y128907D01*
X214812Y130120D01*
X214055Y130878D01*
X213958Y131615D01*
X214055Y132353D01*
X214812Y133110D01*
X215315Y134324D01*
Y135638D01*
X214812Y136851D01*
X213883Y137780D01*
X212670Y138283D01*
D02*
G37*
G36*
X204669D02*
X203355D01*
X202141Y137780D01*
X201213Y136851D01*
X200710Y135638D01*
Y134324D01*
X201213Y133110D01*
X201970Y132353D01*
X202067Y131615D01*
X201970Y130878D01*
X201213Y130120D01*
X200710Y128907D01*
Y127593D01*
X201213Y126379D01*
X201970Y125622D01*
X202067Y124884D01*
X201970Y124147D01*
X201213Y123389D01*
X200710Y122176D01*
Y120862D01*
X201213Y119648D01*
X202141Y118720D01*
X203355Y118217D01*
X204669D01*
X205882Y118720D01*
X206811Y119648D01*
X207314Y120862D01*
Y122176D01*
X206811Y123389D01*
X206054Y124147D01*
X205957Y124884D01*
X206054Y125622D01*
X206811Y126379D01*
X207314Y127593D01*
Y128907D01*
X206811Y130120D01*
X206054Y130878D01*
X205957Y131615D01*
X206054Y132353D01*
X206811Y133110D01*
X207314Y134324D01*
Y135638D01*
X206811Y136851D01*
X205882Y137780D01*
X204669Y138283D01*
D02*
G37*
G36*
X138579Y117729D02*
X137265D01*
X136052Y117226D01*
X135767Y116942D01*
X135066Y116333D01*
X134108Y116942D01*
X133950Y117099D01*
X132737Y117602D01*
X131423D01*
X130210Y117099D01*
X129281Y116170D01*
X128778Y114957D01*
Y113643D01*
X129281Y112430D01*
X130210Y111501D01*
X131423Y110998D01*
X132737D01*
X133950Y111501D01*
X134235Y111785D01*
X134936Y112394D01*
X135894Y111785D01*
X136052Y111628D01*
X137265Y111125D01*
X138579D01*
X139792Y111628D01*
X140721Y112557D01*
X141224Y113770D01*
Y115084D01*
X140721Y116297D01*
X139792Y117226D01*
X138579Y117729D01*
D02*
G37*
G36*
X161439D02*
X160125D01*
X158912Y117226D01*
X158627Y116942D01*
X157927Y116333D01*
X156968Y116942D01*
X156810Y117099D01*
X155597Y117602D01*
X154283D01*
X153070Y117099D01*
X152141Y116170D01*
X151638Y114957D01*
Y113643D01*
X152141Y112430D01*
X153070Y111501D01*
X154283Y110998D01*
X155597D01*
X156810Y111501D01*
X157095Y111785D01*
X157795Y112394D01*
X158754Y111785D01*
X158912Y111628D01*
X160125Y111125D01*
X161439D01*
X162652Y111628D01*
X163581Y112557D01*
X164084Y113770D01*
Y115084D01*
X163581Y116297D01*
X162652Y117226D01*
X161439Y117729D01*
D02*
G37*
G36*
X407205Y121906D02*
X405892D01*
X404678Y121403D01*
X403749Y120474D01*
X403246Y119260D01*
Y117947D01*
X403749Y116733D01*
X404678Y115804D01*
X405892Y115302D01*
X407205D01*
X408419Y115804D01*
X409348Y116733D01*
X409851Y117947D01*
Y119260D01*
X409348Y120474D01*
X408419Y121403D01*
X407205Y121906D01*
D02*
G37*
G36*
X138579Y109728D02*
X137265D01*
X136052Y109225D01*
X135767Y108941D01*
X135066Y108332D01*
X134108Y108941D01*
X133950Y109098D01*
X132737Y109601D01*
X131423D01*
X130210Y109098D01*
X129281Y108169D01*
X128778Y106956D01*
Y105642D01*
X129281Y104429D01*
X130210Y103500D01*
X131423Y102997D01*
X132737D01*
X133950Y103500D01*
X134235Y103784D01*
X134936Y104393D01*
X135894Y103784D01*
X136052Y103627D01*
X137265Y103124D01*
X138579D01*
X139792Y103627D01*
X140721Y104556D01*
X141224Y105769D01*
Y107083D01*
X140721Y108296D01*
X139792Y109225D01*
X138579Y109728D01*
D02*
G37*
G36*
X161439D02*
X160125D01*
X158912Y109225D01*
X158627Y108941D01*
X157927Y108332D01*
X156968Y108941D01*
X156810Y109098D01*
X155597Y109601D01*
X154283D01*
X153070Y109098D01*
X152141Y108169D01*
X151638Y106956D01*
Y105642D01*
X152141Y104429D01*
X153070Y103500D01*
X154283Y102997D01*
X155597D01*
X156810Y103500D01*
X157095Y103784D01*
X157795Y104393D01*
X158754Y103784D01*
X158912Y103627D01*
X160125Y103124D01*
X161439D01*
X162652Y103627D01*
X163581Y104556D01*
X164084Y105769D01*
Y107083D01*
X163581Y108296D01*
X162652Y109225D01*
X161439Y109728D01*
D02*
G37*
G36*
X317185Y97917D02*
X315872D01*
X314658Y97414D01*
X313729Y96485D01*
X313227Y95272D01*
Y93958D01*
X313729Y92745D01*
X314658Y91816D01*
X315872Y91313D01*
X317185D01*
X318399Y91816D01*
X319328Y92745D01*
X319830Y93958D01*
Y95272D01*
X319328Y96485D01*
X318399Y97414D01*
X317185Y97917D01*
D02*
G37*
G36*
X277801Y95117D02*
X276487D01*
X275273Y94614D01*
X274344Y93685D01*
X273842Y92472D01*
Y91158D01*
X274344Y89944D01*
X275273Y89015D01*
X276487Y88513D01*
X277801D01*
X279014Y89015D01*
X279943Y89944D01*
X280446Y91158D01*
Y92472D01*
X279943Y93685D01*
X279014Y94614D01*
X277801Y95117D01*
D02*
G37*
G36*
X369361Y88392D02*
X368048D01*
X366834Y87889D01*
X365905Y86960D01*
X365403Y85747D01*
Y84433D01*
X365905Y83220D01*
X366834Y82291D01*
X368048Y81788D01*
X369361D01*
X370575Y82291D01*
X371504Y83220D01*
X372007Y84433D01*
Y85747D01*
X371504Y86960D01*
X370575Y87889D01*
X369361Y88392D01*
D02*
G37*
G36*
X561523Y99940D02*
X558617D01*
X555809Y99188D01*
X553291Y97734D01*
X551236Y95679D01*
X549782Y93161D01*
X549030Y90353D01*
Y87447D01*
X549782Y84639D01*
X551236Y82121D01*
X551387Y81970D01*
X550668Y80893D01*
X550519Y80955D01*
X549206D01*
X547992Y80452D01*
X547063Y79523D01*
X546561Y78309D01*
Y76996D01*
X547063Y75782D01*
X547992Y74853D01*
X549206Y74351D01*
X550519D01*
X551733Y74853D01*
X552662Y75782D01*
X553165Y76996D01*
Y78309D01*
X552967Y78787D01*
X553975Y79671D01*
X555809Y78612D01*
X558617Y77860D01*
X561523D01*
X564331Y78612D01*
X566849Y80066D01*
X568904Y82121D01*
X570358Y84639D01*
X571110Y87447D01*
Y90353D01*
X570358Y93161D01*
X568904Y95679D01*
X566849Y97734D01*
X564331Y99188D01*
X561523Y99940D01*
D02*
G37*
G36*
X655977Y87122D02*
X654663D01*
X653450Y86619D01*
X652521Y85690D01*
X652018Y84477D01*
Y83163D01*
X652521Y81950D01*
X653450Y81021D01*
X654663Y80518D01*
X655977D01*
X657190Y81021D01*
X658119Y81950D01*
X658622Y83163D01*
Y84477D01*
X658119Y85690D01*
X657190Y86619D01*
X655977Y87122D01*
D02*
G37*
G36*
X612323Y99940D02*
X609417D01*
X606609Y99188D01*
X604091Y97734D01*
X602036Y95679D01*
X600582Y93161D01*
X599830Y90353D01*
Y87447D01*
X600582Y84639D01*
X602036Y82121D01*
X604091Y80066D01*
X606609Y78612D01*
X609417Y77860D01*
X612323D01*
X615131Y78612D01*
X617649Y80066D01*
X619704Y82121D01*
X621158Y84639D01*
X621910Y87447D01*
Y90353D01*
X621158Y93161D01*
X619704Y95679D01*
X617649Y97734D01*
X615131Y99188D01*
X612323Y99940D01*
D02*
G37*
G36*
X586923D02*
X584017D01*
X581209Y99188D01*
X578691Y97734D01*
X576636Y95679D01*
X575182Y93161D01*
X574430Y90353D01*
Y87447D01*
X575182Y84639D01*
X576636Y82121D01*
X578691Y80066D01*
X581209Y78612D01*
X584017Y77860D01*
X586923D01*
X589731Y78612D01*
X592249Y80066D01*
X594304Y82121D01*
X595758Y84639D01*
X596510Y87447D01*
Y90353D01*
X595758Y93161D01*
X594304Y95679D01*
X592249Y97734D01*
X589731Y99188D01*
X586923Y99940D01*
D02*
G37*
G36*
X536123D02*
X533217D01*
X530409Y99188D01*
X527891Y97734D01*
X525836Y95679D01*
X524382Y93161D01*
X523630Y90353D01*
Y87447D01*
X524382Y84639D01*
X525836Y82121D01*
X527891Y80066D01*
X530409Y78612D01*
X533217Y77860D01*
X536123D01*
X538931Y78612D01*
X541449Y80066D01*
X543504Y82121D01*
X544958Y84639D01*
X545710Y87447D01*
Y90353D01*
X544958Y93161D01*
X543504Y95679D01*
X541449Y97734D01*
X538931Y99188D01*
X536123Y99940D01*
D02*
G37*
G36*
X510723D02*
X507817D01*
X505009Y99188D01*
X502491Y97734D01*
X500436Y95679D01*
X498982Y93161D01*
X498230Y90353D01*
Y87447D01*
X498982Y84639D01*
X500436Y82121D01*
X502491Y80066D01*
X505009Y78612D01*
X507817Y77860D01*
X510723D01*
X513531Y78612D01*
X516049Y80066D01*
X518104Y82121D01*
X519558Y84639D01*
X520310Y87447D01*
Y90353D01*
X519558Y93161D01*
X518104Y95679D01*
X516049Y97734D01*
X513531Y99188D01*
X510723Y99940D01*
D02*
G37*
G36*
X485323D02*
X482417D01*
X479609Y99188D01*
X477091Y97734D01*
X475036Y95679D01*
X473582Y93161D01*
X472830Y90353D01*
Y87447D01*
X473582Y84639D01*
X475036Y82121D01*
X477091Y80066D01*
X479609Y78612D01*
X482417Y77860D01*
X485323D01*
X488131Y78612D01*
X490649Y80066D01*
X492704Y82121D01*
X494158Y84639D01*
X494910Y87447D01*
Y90353D01*
X494158Y93161D01*
X492704Y95679D01*
X490649Y97734D01*
X488131Y99188D01*
X485323Y99940D01*
D02*
G37*
G36*
X459923D02*
X457017D01*
X454209Y99188D01*
X451691Y97734D01*
X449636Y95679D01*
X448182Y93161D01*
X447430Y90353D01*
Y87447D01*
X448182Y84639D01*
X449636Y82121D01*
X451691Y80066D01*
X454209Y78612D01*
X457017Y77860D01*
X459923D01*
X462731Y78612D01*
X465249Y80066D01*
X467304Y82121D01*
X468758Y84639D01*
X469510Y87447D01*
Y90353D01*
X468758Y93161D01*
X467304Y95679D01*
X465249Y97734D01*
X462731Y99188D01*
X459923Y99940D01*
D02*
G37*
G36*
X434523D02*
X431617D01*
X428809Y99188D01*
X426291Y97734D01*
X424236Y95679D01*
X422782Y93161D01*
X422030Y90353D01*
Y87447D01*
X422782Y84639D01*
X424236Y82121D01*
X426291Y80066D01*
X428809Y78612D01*
X431617Y77860D01*
X434523D01*
X437331Y78612D01*
X439849Y80066D01*
X441904Y82121D01*
X443358Y84639D01*
X444110Y87447D01*
Y90353D01*
X443358Y93161D01*
X441904Y95679D01*
X439849Y97734D01*
X437331Y99188D01*
X434523Y99940D01*
D02*
G37*
G36*
X409123D02*
X406217D01*
X403409Y99188D01*
X400891Y97734D01*
X398836Y95679D01*
X397382Y93161D01*
X396630Y90353D01*
Y87447D01*
X397382Y84639D01*
X398836Y82121D01*
X400891Y80066D01*
X403409Y78612D01*
X406217Y77860D01*
X409123D01*
X411931Y78612D01*
X414449Y80066D01*
X416504Y82121D01*
X417958Y84639D01*
X418710Y87447D01*
Y90353D01*
X417958Y93161D01*
X416504Y95679D01*
X414449Y97734D01*
X411931Y99188D01*
X409123Y99940D01*
D02*
G37*
%LPD*%
G36*
X477520Y206502D02*
Y201930D01*
X470432Y194842D01*
X469185Y194009D01*
X468352Y192762D01*
X466344Y190754D01*
X426466D01*
X424895Y192325D01*
X425049Y192479D01*
X425611Y193319D01*
X425808Y194310D01*
X425611Y195301D01*
X425049Y196141D01*
X421132Y200058D01*
Y207518D01*
X425958Y212344D01*
Y212598D01*
X471424D01*
X477520Y206502D01*
D02*
G37*
D13*
X481330Y179070D02*
Y181864D01*
X471932Y191262D02*
X481330Y181864D01*
D152*
X483870Y63500D02*
D03*
X509270D02*
D03*
X407670Y88900D02*
D03*
X433070Y63500D02*
D03*
Y88900D02*
D03*
X458470Y63500D02*
D03*
Y88900D02*
D03*
X483870D02*
D03*
X509270D02*
D03*
X534670Y63500D02*
D03*
Y88900D02*
D03*
X560070Y63500D02*
D03*
Y88900D02*
D03*
X585470Y63500D02*
D03*
Y88900D02*
D03*
X610870Y63500D02*
D03*
Y88900D02*
D03*
X636270Y63500D02*
D03*
Y88900D02*
D03*
D153*
X407670Y63500D02*
D03*
D154*
X533715Y607239D02*
D03*
D155*
X558714D02*
D03*
D156*
X227310Y621795D02*
D03*
X313710D02*
D03*
D157*
X227310Y580296D02*
D03*
X313710D02*
D03*
D158*
X743290Y625800D02*
D03*
Y75800D02*
D03*
X84690D02*
D03*
Y625793D02*
D03*
D159*
X174557Y566101D02*
D03*
X87506Y577267D02*
D03*
X74402Y571268D02*
D03*
X64078Y570329D02*
D03*
X191966Y543134D02*
D03*
X182217Y545535D02*
D03*
X101266Y523003D02*
D03*
X102640Y513688D02*
D03*
X97239Y504738D02*
D03*
Y513688D02*
D03*
X101982Y445813D02*
D03*
X115736Y454268D02*
D03*
X102402D02*
D03*
X74514Y529236D02*
D03*
Y535238D02*
D03*
X94176Y544431D02*
D03*
X94231Y537971D02*
D03*
X87506Y547267D02*
D03*
Y553267D02*
D03*
X119096Y562689D02*
D03*
X103152Y562266D02*
D03*
X117006Y538268D02*
D03*
Y526269D02*
D03*
X119096Y551809D02*
D03*
X123915Y507980D02*
D03*
X116191Y508268D02*
D03*
X87441Y499266D02*
D03*
Y487267D02*
D03*
Y493267D02*
D03*
X128270Y496570D02*
D03*
X116840D02*
D03*
X116698Y489832D02*
D03*
X168950Y467342D02*
D03*
X98262Y488382D02*
D03*
Y481154D02*
D03*
X123265Y467218D02*
D03*
X87912Y429143D02*
D03*
X96241Y428931D02*
D03*
X88379Y467127D02*
D03*
X74402Y565268D02*
D03*
Y559269D02*
D03*
X101389Y576583D02*
D03*
X101389Y568206D02*
D03*
X118019Y574329D02*
D03*
X653656Y498950D02*
D03*
X536981Y255638D02*
D03*
X617380Y468378D02*
D03*
X537290Y326390D02*
D03*
X627380Y468378D02*
D03*
X652386Y493006D02*
D03*
X528980Y255638D02*
D03*
X124980Y435237D02*
D03*
X86614Y451104D02*
D03*
X246830Y488638D02*
D03*
X265830D02*
D03*
X490220Y453390D02*
D03*
X496570D02*
D03*
X565150Y449580D02*
D03*
X211423Y514598D02*
D03*
X408940Y179262D02*
D03*
X488740Y226060D02*
D03*
X549863Y77653D02*
D03*
X601872Y638416D02*
D03*
X571180Y638810D02*
D03*
X533080D02*
D03*
X494980D02*
D03*
X590230Y276860D02*
D03*
X580230D02*
D03*
X554990Y307340D02*
D03*
X280694Y377004D02*
D03*
Y367004D02*
D03*
X298695Y377004D02*
D03*
X290694D02*
D03*
X341950Y579120D02*
D03*
X351950D02*
D03*
X361950D02*
D03*
X370332Y530860D02*
D03*
X362331D02*
D03*
X354330D02*
D03*
X320520Y516372D02*
D03*
X291522Y516300D02*
D03*
X312519Y516372D02*
D03*
X290965Y434594D02*
D03*
X579501Y459359D02*
D03*
X571500D02*
D03*
X587502Y467360D02*
D03*
X579501D02*
D03*
X571500D02*
D03*
X615130Y443408D02*
D03*
X603250Y443230D02*
D03*
X462661Y234950D02*
D03*
X454660D02*
D03*
X470662D02*
D03*
X356986Y270070D02*
D03*
X349691Y269615D02*
D03*
Y275330D02*
D03*
X342960Y269615D02*
D03*
Y275330D02*
D03*
X229164Y269748D02*
D03*
X214553D02*
D03*
X222554Y275200D02*
D03*
Y269748D02*
D03*
X232410Y287171D02*
D03*
X214553Y275200D02*
D03*
X291522Y525100D02*
D03*
X311850Y532602D02*
D03*
X303372Y532284D02*
D03*
X237026Y505289D02*
D03*
X240836Y510750D02*
D03*
X246488D02*
D03*
X252139D02*
D03*
X246126Y557911D02*
D03*
X242062D02*
D03*
X238125D02*
D03*
X469690Y197993D02*
D03*
Y205994D02*
D03*
X432879Y193988D02*
D03*
X448056D02*
D03*
X443374Y186894D02*
D03*
X246619Y174429D02*
D03*
X614172Y529844D02*
D03*
X247889Y314641D02*
D03*
Y307910D02*
D03*
X376936Y301752D02*
D03*
X376813Y296102D02*
D03*
X458470Y155956D02*
D03*
X451001Y155933D02*
D03*
X454845Y156039D02*
D03*
X447228Y155899D02*
D03*
X485394Y155702D02*
D03*
X481584D02*
D03*
X477774D02*
D03*
X473964D02*
D03*
X478226Y168976D02*
D03*
X473202Y168910D02*
D03*
X457891Y169450D02*
D03*
X452355D02*
D03*
X307594Y525100D02*
D03*
X242062Y563626D02*
D03*
X345372Y493988D02*
D03*
X356986Y285477D02*
D03*
X335226Y317044D02*
D03*
X319811Y334238D02*
D03*
X309513D02*
D03*
X330454Y326644D02*
D03*
X329438Y179324D02*
D03*
X319024D02*
D03*
X307175D02*
D03*
X335191Y171654D02*
D03*
X322642Y303873D02*
D03*
X327213Y295136D02*
D03*
X327213Y303873D02*
D03*
X318072D02*
D03*
Y295192D02*
D03*
X322642D02*
D03*
X226554Y138834D02*
D03*
X323609Y148251D02*
D03*
X319039D02*
D03*
Y156932D02*
D03*
X328180D02*
D03*
X328180Y148195D02*
D03*
X323609Y156932D02*
D03*
X187880Y180292D02*
D03*
X204741Y177021D02*
D03*
X194372Y295704D02*
D03*
X189802D02*
D03*
Y304385D02*
D03*
X199197D02*
D03*
X199197Y295648D02*
D03*
X194372Y304385D02*
D03*
X157988Y266493D02*
D03*
X149987D02*
D03*
X193102Y157823D02*
D03*
X197673Y149086D02*
D03*
X197673Y157823D02*
D03*
X188532D02*
D03*
Y149142D02*
D03*
X193102D02*
D03*
X166370Y202536D02*
D03*
Y212579D02*
D03*
X152557Y241330D02*
D03*
Y249331D02*
D03*
X144556D02*
D03*
Y241330D02*
D03*
Y211330D02*
D03*
Y219331D02*
D03*
X137922Y106426D02*
D03*
Y114427D02*
D03*
X160782D02*
D03*
Y106426D02*
D03*
X225612Y287171D02*
D03*
X160279Y551809D02*
D03*
X223266Y510993D02*
D03*
X149987Y261239D02*
D03*
X157988D02*
D03*
X148149Y310972D02*
D03*
X148058Y302971D02*
D03*
X142429Y346710D02*
D03*
Y339563D02*
D03*
X155829Y353060D02*
D03*
X163830D02*
D03*
X428398Y445110D02*
D03*
X393756D02*
D03*
X297696Y440665D02*
D03*
Y434594D02*
D03*
X324957Y440527D02*
D03*
X212013Y121519D02*
D03*
X204012D02*
D03*
X212013Y128250D02*
D03*
X204012D02*
D03*
X350267Y127359D02*
D03*
Y132185D02*
D03*
X364519Y126379D02*
D03*
X350267Y137011D02*
D03*
X344806Y128629D02*
D03*
X462661Y226060D02*
D03*
X454660D02*
D03*
X470662D02*
D03*
X634245Y152853D02*
D03*
X626244D02*
D03*
X634245Y160854D02*
D03*
X626244D02*
D03*
X584055Y143552D02*
D03*
X610696Y200230D02*
D03*
Y212090D02*
D03*
X529896Y182272D02*
D03*
Y174271D02*
D03*
X521895D02*
D03*
Y182272D02*
D03*
X513823Y182245D02*
D03*
X555211Y468249D02*
D03*
Y476250D02*
D03*
X529750Y468249D02*
D03*
X537210D02*
D03*
X547210D02*
D03*
X302966Y440665D02*
D03*
X292425D02*
D03*
X297696Y445110D02*
D03*
X661657Y507271D02*
D03*
Y512732D02*
D03*
Y520733D02*
D03*
X653656D02*
D03*
X614172Y536448D02*
D03*
X621486Y536270D02*
D03*
X621538Y530098D02*
D03*
X600710Y557533D02*
D03*
X624840Y552450D02*
D03*
X454084Y441485D02*
D03*
X462085Y435930D02*
D03*
X468816Y440850D02*
D03*
X462085Y441485D02*
D03*
X376316Y456921D02*
D03*
X370855D02*
D03*
X376316Y445999D02*
D03*
X370855D02*
D03*
X445626Y455184D02*
D03*
X437625D02*
D03*
X414163D02*
D03*
X453627D02*
D03*
X604524Y523616D02*
D03*
X598762D02*
D03*
X590413D02*
D03*
X582412D02*
D03*
X590413Y529077D02*
D03*
X582412D02*
D03*
X378780Y567924D02*
D03*
Y573385D02*
D03*
X388780Y567924D02*
D03*
Y573385D02*
D03*
X412645Y552585D02*
D03*
Y560586D02*
D03*
Y568587D02*
D03*
Y575539D02*
D03*
X418106Y552585D02*
D03*
Y560586D02*
D03*
X151981Y560403D02*
D03*
X143261Y560403D02*
D03*
X151981Y551809D02*
D03*
X143261D02*
D03*
X129980D02*
D03*
Y543215D02*
D03*
Y534622D02*
D03*
X135187D02*
D03*
X547210Y476250D02*
D03*
X621079Y522813D02*
D03*
X529750Y476250D02*
D03*
X537210D02*
D03*
X429624Y455184D02*
D03*
X422164D02*
D03*
X657382Y215171D02*
D03*
X627096Y215685D02*
D03*
X657382Y225171D02*
D03*
X627096Y225685D02*
D03*
X647382Y225171D02*
D03*
X753272Y165100D02*
D03*
X655320Y143348D02*
D03*
X347980Y638810D02*
D03*
X373380D02*
D03*
X194472Y429641D02*
D03*
X638071Y131572D02*
D03*
Y118863D02*
D03*
Y106153D02*
D03*
X77702Y125984D02*
D03*
X89872D02*
D03*
X78210Y146050D02*
D03*
X90380D02*
D03*
X102550D02*
D03*
X90380Y224790D02*
D03*
X78210D02*
D03*
X66040D02*
D03*
Y199390D02*
D03*
Y146050D02*
D03*
Y173990D02*
D03*
Y250190D02*
D03*
Y273050D02*
D03*
Y298450D02*
D03*
Y323850D02*
D03*
X78210Y374650D02*
D03*
X66040D02*
D03*
X90380D02*
D03*
X66040Y400050D02*
D03*
X78210Y387350D02*
D03*
X66040Y349250D02*
D03*
X102550Y361950D02*
D03*
X90380D02*
D03*
X78210D02*
D03*
X65532Y100584D02*
D03*
Y113284D02*
D03*
Y125984D02*
D03*
X64262Y602488D02*
D03*
Y589915D02*
D03*
Y577342D02*
D03*
X361496Y159671D02*
D03*
X174498Y412242D02*
D03*
X86614Y445102D02*
D03*
X547483Y247603D02*
D03*
X559468Y157265D02*
D03*
X559667Y164648D02*
D03*
X584058Y159535D02*
D03*
X471170Y294640D02*
D03*
X428670Y265081D02*
D03*
X448274Y279339D02*
D03*
Y285909D02*
D03*
X513823Y174244D02*
D03*
X406666Y486500D02*
D03*
X343871Y472888D02*
D03*
X142205Y517091D02*
D03*
X281439Y559798D02*
D03*
X264160D02*
D03*
X309880Y565150D02*
D03*
X304419D02*
D03*
X223991Y564484D02*
D03*
X229452D02*
D03*
X278130Y584333D02*
D03*
X255886D02*
D03*
X633782Y483780D02*
D03*
X539910Y132080D02*
D03*
X549910D02*
D03*
X694545Y106153D02*
D03*
X666308D02*
D03*
X694545Y118863D02*
D03*
X666308D02*
D03*
X712000Y459740D02*
D03*
Y485140D02*
D03*
X728667Y459740D02*
D03*
Y485140D02*
D03*
X745333Y459740D02*
D03*
Y485140D02*
D03*
X102550Y173990D02*
D03*
Y250190D02*
D03*
Y199390D02*
D03*
Y224790D02*
D03*
Y323850D02*
D03*
Y273050D02*
D03*
Y298450D02*
D03*
Y349250D02*
D03*
X90380Y173990D02*
D03*
Y250190D02*
D03*
Y199390D02*
D03*
Y323850D02*
D03*
Y273050D02*
D03*
Y298450D02*
D03*
Y349250D02*
D03*
X653998Y468339D02*
D03*
X271739Y565493D02*
D03*
X278011D02*
D03*
X263009Y583597D02*
D03*
X269281D02*
D03*
X763916Y228062D02*
D03*
X758455D02*
D03*
X450330Y333896D02*
D03*
X442329D02*
D03*
X418326D02*
D03*
X426327D02*
D03*
X173101Y212579D02*
D03*
Y192493D02*
D03*
X290694Y367004D02*
D03*
Y356336D02*
D03*
Y345668D02*
D03*
Y334238D02*
D03*
X298695Y367004D02*
D03*
Y356336D02*
D03*
Y345668D02*
D03*
X298071Y228815D02*
D03*
Y218815D02*
D03*
Y208815D02*
D03*
Y198815D02*
D03*
X482409Y366068D02*
D03*
X537290Y339399D02*
D03*
X407162Y238887D02*
D03*
X418170Y265081D02*
D03*
X407162Y265176D02*
D03*
Y256413D02*
D03*
Y247650D02*
D03*
Y230124D02*
D03*
X198882Y331470D02*
D03*
X190881D02*
D03*
X182880D02*
D03*
X203200Y324286D02*
D03*
X174081Y335228D02*
D03*
X464966Y173335D02*
D03*
Y166604D02*
D03*
Y159873D02*
D03*
X406549Y118604D02*
D03*
X247889Y297866D02*
D03*
X667256Y402209D02*
D03*
Y410210D02*
D03*
X160702Y560403D02*
D03*
X292425Y445110D02*
D03*
X238125Y563626D02*
D03*
X246126D02*
D03*
X204980Y508105D02*
D03*
X185420Y434721D02*
D03*
Y429260D02*
D03*
X256330Y488638D02*
D03*
X228198Y180619D02*
D03*
X528980Y209138D02*
D03*
X518244Y203543D02*
D03*
X518160Y209138D02*
D03*
X666308Y131572D02*
D03*
X594055Y131553D02*
D03*
X584055D02*
D03*
X505460Y129628D02*
D03*
Y139628D02*
D03*
X429124Y118558D02*
D03*
Y128558D02*
D03*
X408940Y128558D02*
D03*
X78210Y173990D02*
D03*
Y199390D02*
D03*
Y250190D02*
D03*
Y273050D02*
D03*
Y298450D02*
D03*
Y323850D02*
D03*
Y349250D02*
D03*
X698500Y67310D02*
D03*
X339090Y60960D02*
D03*
X364490D02*
D03*
X224790D02*
D03*
X250190D02*
D03*
X275590D02*
D03*
X300990D02*
D03*
X120650D02*
D03*
X146050D02*
D03*
X171450D02*
D03*
X196850D02*
D03*
X727946Y157907D02*
D03*
X725406Y132507D02*
D03*
Y107107D02*
D03*
X759460Y106680D02*
D03*
Y132080D02*
D03*
Y157480D02*
D03*
Y182880D02*
D03*
X132080Y618490D02*
D03*
X157480D02*
D03*
X182880D02*
D03*
X208280D02*
D03*
X236220Y636270D02*
D03*
X261620D02*
D03*
X287020D02*
D03*
X312420D02*
D03*
X133350D02*
D03*
X158750D02*
D03*
X184150D02*
D03*
X209550D02*
D03*
X327660Y624840D02*
D03*
X353060D02*
D03*
X378460D02*
D03*
X403860D02*
D03*
X398780Y638810D02*
D03*
X424180D02*
D03*
X449580D02*
D03*
X474980D02*
D03*
X683260Y565150D02*
D03*
X708660D02*
D03*
X734060D02*
D03*
X759460D02*
D03*
X618490Y588010D02*
D03*
X643890D02*
D03*
X669290D02*
D03*
X694690D02*
D03*
X618490Y615950D02*
D03*
X643890D02*
D03*
X669290D02*
D03*
X694690D02*
D03*
X621030Y638810D02*
D03*
X646430D02*
D03*
X671830D02*
D03*
X697230D02*
D03*
X762000Y459740D02*
D03*
Y485140D02*
D03*
X762000Y510540D02*
D03*
Y535940D02*
D03*
X584288Y364881D02*
D03*
Y356880D02*
D03*
Y340380D02*
D03*
Y332379D02*
D03*
X594288Y364881D02*
D03*
Y356880D02*
D03*
Y340380D02*
D03*
Y332379D02*
D03*
X604288Y364881D02*
D03*
Y356880D02*
D03*
Y340380D02*
D03*
Y332379D02*
D03*
X675892Y331078D02*
D03*
Y344180D02*
D03*
X683262Y403873D02*
D03*
X604288Y382682D02*
D03*
Y374881D02*
D03*
X614288Y382682D02*
D03*
Y374881D02*
D03*
X665892Y381092D02*
D03*
X683262Y395143D02*
D03*
X681990Y381092D02*
D03*
X672488D02*
D03*
X681990Y371092D02*
D03*
X672488D02*
D03*
X284480Y218597D02*
D03*
Y228597D02*
D03*
X691090Y434182D02*
D03*
X699590D02*
D03*
X710090D02*
D03*
X151130Y435958D02*
D03*
X674390Y512732D02*
D03*
X165129Y501803D02*
D03*
X604688Y503096D02*
D03*
X151130Y429230D02*
D03*
X610869Y503096D02*
D03*
X170613Y501803D02*
D03*
X694545Y131572D02*
D03*
Y141553D02*
D03*
X584055Y151553D02*
D03*
X652780Y533400D02*
D03*
X574043Y207717D02*
D03*
X309813Y123701D02*
D03*
X179303Y124895D02*
D03*
X189230Y261239D02*
D03*
X308229Y269851D02*
D03*
X398780Y573385D02*
D03*
X462085Y447040D02*
D03*
X376316Y451460D02*
D03*
X357447Y486251D02*
D03*
X385269Y472888D02*
D03*
X146928Y339563D02*
D03*
Y346710D02*
D03*
X156059Y302879D02*
D03*
X156150Y310880D02*
D03*
X163746Y346710D02*
D03*
X155745D02*
D03*
Y339563D02*
D03*
X163746D02*
D03*
X317813Y123701D02*
D03*
X154940Y106299D02*
D03*
Y114300D02*
D03*
X132080Y106299D02*
D03*
Y114300D02*
D03*
X152557Y219331D02*
D03*
Y211330D02*
D03*
X238618Y147759D02*
D03*
X377126Y175189D02*
D03*
X342960Y281045D02*
D03*
X204012Y134981D02*
D03*
X214553Y280651D02*
D03*
X475908Y173335D02*
D03*
X458021Y173465D02*
D03*
X471932Y191262D02*
D03*
X441960Y173366D02*
D03*
X452374Y179324D02*
D03*
X441960Y179832D02*
D03*
X525618Y276860D02*
D03*
Y282956D02*
D03*
X504160Y485140D02*
D03*
X487479Y469502D02*
D03*
X475972Y472934D02*
D03*
X559837Y511810D02*
D03*
X556377Y228120D02*
D03*
X157609Y496788D02*
D03*
X180848Y473710D02*
D03*
X200469Y433040D02*
D03*
X398780Y567924D02*
D03*
X257791Y510750D02*
D03*
X263442D02*
D03*
X135187Y551809D02*
D03*
X418106Y568587D02*
D03*
Y575539D02*
D03*
X311850Y525140D02*
D03*
X303372Y525100D02*
D03*
X640852Y311078D02*
D03*
Y321078D02*
D03*
X614288Y332379D02*
D03*
Y364881D02*
D03*
X589374Y396982D02*
D03*
X602140D02*
D03*
X363220Y314908D02*
D03*
X623090Y396494D02*
D03*
X589374Y373127D02*
D03*
X623090Y402492D02*
D03*
Y408491D02*
D03*
X632714Y411607D02*
D03*
Y417322D02*
D03*
X434328Y333896D02*
D03*
X577392Y413766D02*
D03*
Y407880D02*
D03*
X358845Y169298D02*
D03*
X342960Y286760D02*
D03*
X363220Y323988D02*
D03*
X356870Y324148D02*
D03*
X350266Y314908D02*
D03*
X368705Y85090D02*
D03*
X228198Y167041D02*
D03*
Y157786D02*
D03*
X134857Y448630D02*
D03*
X142279Y501803D02*
D03*
X169062Y481240D02*
D03*
X353060Y435610D02*
D03*
X213349Y501803D02*
D03*
X631590Y434182D02*
D03*
Y442682D02*
D03*
X577392Y305880D02*
D03*
X570230Y276860D02*
D03*
X101600Y529269D02*
D03*
X369325Y176376D02*
D03*
X344806Y134090D02*
D03*
X212013Y134981D02*
D03*
X246619Y147759D02*
D03*
X187304Y124895D02*
D03*
X323822Y490774D02*
D03*
X304518Y516372D02*
D03*
X654950Y484991D02*
D03*
X632318Y493006D02*
D03*
Y498890D02*
D03*
X273050Y488638D02*
D03*
X240030D02*
D03*
X483844Y441124D02*
D03*
X167913Y414382D02*
D03*
X129706Y484268D02*
D03*
X528010Y343821D02*
D03*
Y320120D02*
D03*
Y326390D02*
D03*
Y337740D02*
D03*
X562788Y365380D02*
D03*
Y373880D02*
D03*
Y399380D02*
D03*
X682590Y419578D02*
D03*
X214553Y286103D02*
D03*
X503555Y446405D02*
D03*
X530860Y449580D02*
D03*
X547370Y447040D02*
D03*
X238158Y123719D02*
D03*
X377126Y167188D02*
D03*
X247889Y327639D02*
D03*
X225148D02*
D03*
X231140D02*
D03*
X562788Y305880D02*
D03*
X313690Y269851D02*
D03*
X189230Y269240D02*
D03*
X505460Y149627D02*
D03*
X492760Y160020D02*
D03*
Y149860D02*
D03*
Y138430D02*
D03*
X441960D02*
D03*
Y149860D02*
D03*
Y160020D02*
D03*
X470534Y173335D02*
D03*
X452355D02*
D03*
X228198Y174429D02*
D03*
X655320Y83820D02*
D03*
X665590Y279578D02*
D03*
X737352Y239682D02*
D03*
X626244Y168855D02*
D03*
X528980Y204612D02*
D03*
X539882D02*
D03*
X674749Y148428D02*
D03*
X634245Y168855D02*
D03*
X669546Y204497D02*
D03*
X479552Y191262D02*
D03*
X415270Y230029D02*
D03*
X511810Y262032D02*
D03*
X574296Y249261D02*
D03*
X490410Y366068D02*
D03*
X412932Y382108D02*
D03*
X414202Y375951D02*
D03*
X447040Y378917D02*
D03*
X461329D02*
D03*
X472801D02*
D03*
X465882Y397616D02*
D03*
Y385005D02*
D03*
Y391310D02*
D03*
X461241D02*
D03*
Y385005D02*
D03*
Y397616D02*
D03*
X610814Y523544D02*
D03*
X653998Y476340D02*
D03*
X653656Y512732D02*
D03*
X643656D02*
D03*
X598762Y529077D02*
D03*
X604524D02*
D03*
X475368Y493069D02*
D03*
X490171Y517871D02*
D03*
X436259Y472687D02*
D03*
X468816Y447040D02*
D03*
X445567Y511101D02*
D03*
Y493728D02*
D03*
X466910Y455930D02*
D03*
X370855Y451460D02*
D03*
X302966Y445110D02*
D03*
X274458Y516372D02*
D03*
X196438Y473710D02*
D03*
X194472Y421640D02*
D03*
X190228Y473710D02*
D03*
X702788Y314380D02*
D03*
X205019Y514605D02*
D03*
X196719Y508105D02*
D03*
X188487Y501803D02*
D03*
X143261Y543215D02*
D03*
X428035Y575539D02*
D03*
X427990Y493069D02*
D03*
X490171Y522870D02*
D03*
X450850Y575543D02*
D03*
X134854Y435958D02*
D03*
X702788Y416380D02*
D03*
Y407880D02*
D03*
Y390880D02*
D03*
Y399380D02*
D03*
Y382380D02*
D03*
Y373880D02*
D03*
Y365380D02*
D03*
Y356880D02*
D03*
Y348380D02*
D03*
Y339880D02*
D03*
Y331380D02*
D03*
Y322880D02*
D03*
Y305880D02*
D03*
Y297380D02*
D03*
X710090Y279578D02*
D03*
X728588Y519390D02*
D03*
Y527391D02*
D03*
Y535392D02*
D03*
X614590Y294182D02*
D03*
X606090D02*
D03*
X597590D02*
D03*
X589090D02*
D03*
X580590D02*
D03*
X674090D02*
D03*
X682590D02*
D03*
X665892Y344180D02*
D03*
X640852Y382682D02*
D03*
X665892Y373380D02*
D03*
Y356880D02*
D03*
Y331078D02*
D03*
X640852D02*
D03*
X614288Y340380D02*
D03*
Y356880D02*
D03*
X415270Y249079D02*
D03*
X547370Y420208D02*
D03*
X518279Y409188D02*
D03*
X697230Y223221D02*
D03*
X752138Y233680D02*
D03*
X750454Y228062D02*
D03*
X538480Y244742D02*
D03*
X422093Y186690D02*
D03*
X429124Y179262D02*
D03*
Y138558D02*
D03*
X408940Y138558D02*
D03*
X232200Y510993D02*
D03*
X298695Y334238D02*
D03*
X368705Y93816D02*
D03*
X316528Y94615D02*
D03*
X277144Y91815D02*
D03*
X318773Y103632D02*
D03*
X266700Y91868D02*
D03*
X284480Y208597D02*
D03*
Y198597D02*
D03*
Y188597D02*
D03*
X168579Y69676D02*
D03*
X173101Y202536D02*
D03*
X166370Y192493D02*
D03*
X135187Y543215D02*
D03*
X200089Y566101D02*
D03*
X187323D02*
D03*
D160*
X533281Y437490D02*
D03*
X737870Y165100D02*
D03*
D161*
X151638Y413639D02*
D03*
X143637D02*
D03*
X135636D02*
D03*
Y421640D02*
D03*
X143637D02*
D03*
X151638D02*
D03*
D162*
X337553Y307341D02*
D03*
X209283Y307853D02*
D03*
X505206Y268351D02*
D03*
Y275082D02*
D03*
X494919Y268351D02*
D03*
X498348D02*
D03*
X501777D02*
D03*
Y275082D02*
D03*
X498348D02*
D03*
X494919D02*
D03*
X528480Y583250D02*
D03*
X538480D02*
D03*
Y588170D02*
D03*
X528480D02*
D03*
Y593090D02*
D03*
X538480D02*
D03*
X346520Y156400D02*
D03*
X342520D02*
D03*
X220013Y161291D02*
D03*
X216013Y157291D02*
D03*
X208013Y161291D02*
D03*
X354520Y144400D02*
D03*
X350520Y160400D02*
D03*
X212013Y149291D02*
D03*
X216013D02*
D03*
X220013D02*
D03*
Y153291D02*
D03*
X212013Y157291D02*
D03*
X220013D02*
D03*
X342520Y148400D02*
D03*
X346520D02*
D03*
X350520D02*
D03*
Y152400D02*
D03*
X341553Y295341D02*
D03*
X345553D02*
D03*
X349553D02*
D03*
Y299341D02*
D03*
Y303341D02*
D03*
X345553D02*
D03*
X341553D02*
D03*
X213283Y295853D02*
D03*
X217283D02*
D03*
X221283D02*
D03*
Y299853D02*
D03*
X213283Y303853D02*
D03*
X217283D02*
D03*
X221283D02*
D03*
X610869Y513079D02*
D03*
X471987Y508840D02*
D03*
Y515213D02*
D03*
X463986Y521587D02*
D03*
Y515213D02*
D03*
Y508840D02*
D03*
X471987Y521587D02*
D03*
X221283Y307853D02*
D03*
X350520Y156400D02*
D03*
D163*
X189467Y517355D02*
D03*
Y526855D02*
D03*
X179967D02*
D03*
Y517355D02*
D03*
X176200Y442290D02*
D03*
Y451790D02*
D03*
X166700D02*
D03*
Y442290D02*
D03*
D164*
X412442Y188922D02*
D03*
X423218Y199698D02*
D03*
D165*
X417830Y194310D02*
D03*
M02*
