G04*
G04 #@! TF.GenerationSoftware,Altium Limited,Altium Designer,23.1.1 (15)*
G04*
G04 Layer_Color=65535*
%FSLAX44Y44*%
%MOMM*%
G71*
G04*
G04 #@! TF.SameCoordinates,D1EA7B9B-11C4-41B5-954D-5070AA3C9977*
G04*
G04*
G04 #@! TF.FilePolarity,Positive*
G04*
G01*
G75*
%ADD10C,0.1000*%
%ADD11C,0.3000*%
%ADD12C,0.2500*%
%ADD13C,0.2540*%
%ADD14C,0.1500*%
%ADD15C,0.1524*%
%ADD16C,0.2000*%
%ADD17C,0.1270*%
%ADD18C,0.2032*%
%ADD19C,0.3048*%
%ADD20C,0.2030*%
%ADD21C,0.1016*%
%ADD22C,0.3500*%
G36*
X350448Y359549D02*
X349250Y357886D01*
X345440Y362966D01*
X353060D01*
X350448Y359549D01*
D02*
G37*
G36*
X187178Y282286D02*
X185658D01*
Y286858D01*
X187178D01*
Y282286D01*
D02*
G37*
G36*
X169650D02*
X168130D01*
Y286858D01*
X169650D01*
Y282286D01*
D02*
G37*
G36*
X315594Y278231D02*
X314074D01*
Y282803D01*
X315594D01*
Y278231D01*
D02*
G37*
G36*
X298066D02*
X296546D01*
Y282803D01*
X298066D01*
Y278231D01*
D02*
G37*
G36*
X237485Y251756D02*
X238491D01*
Y251505D01*
X238994D01*
Y251253D01*
X239246D01*
Y251002D01*
X239749D01*
Y250750D01*
X240000D01*
Y250499D01*
X240252D01*
Y250247D01*
X240503D01*
Y249744D01*
X240755D01*
Y249493D01*
X241006D01*
Y248990D01*
X241258D01*
Y248487D01*
X241509D01*
Y248235D01*
X241761D01*
Y247732D01*
X242012D01*
Y247229D01*
X242264D01*
Y246726D01*
X242515D01*
Y246475D01*
X242767D01*
Y245972D01*
X243018D01*
Y245469D01*
X243270D01*
Y244966D01*
X243521D01*
Y244714D01*
X243773D01*
Y244211D01*
X244024D01*
Y243708D01*
X244276D01*
Y243456D01*
X244527D01*
Y242953D01*
X244779D01*
Y242451D01*
X245030D01*
Y242199D01*
X245282D01*
Y241696D01*
X245533D01*
Y241193D01*
X245785D01*
Y240941D01*
X246036D01*
Y240438D01*
X246288D01*
Y239935D01*
X246539D01*
Y239432D01*
X246791D01*
Y238929D01*
X247042D01*
Y238678D01*
X247294D01*
Y238175D01*
X247545D01*
Y237672D01*
X247797D01*
Y237169D01*
X248048D01*
Y236917D01*
X248300D01*
Y236414D01*
X248551D01*
Y235911D01*
X248803D01*
Y235660D01*
X249055D01*
Y235157D01*
X249306D01*
Y234654D01*
X249557D01*
Y234402D01*
X249809D01*
Y233899D01*
X250061D01*
Y233396D01*
X250312D01*
Y233145D01*
X250564D01*
Y232642D01*
X250815D01*
Y232139D01*
X251067D01*
Y231636D01*
X251318D01*
Y231133D01*
X251570D01*
Y230881D01*
X251821D01*
Y230378D01*
X252073D01*
Y229875D01*
X252324D01*
Y229372D01*
X252576D01*
Y229120D01*
X252827D01*
Y228617D01*
X253079D01*
Y228114D01*
X253330D01*
Y227863D01*
X253582D01*
Y227360D01*
X253833D01*
Y226857D01*
X254085D01*
Y226605D01*
X254336D01*
Y226102D01*
X254588D01*
Y225599D01*
X254839D01*
Y225348D01*
X255091D01*
Y224845D01*
X255342D01*
Y224342D01*
X255594D01*
Y223839D01*
X255845D01*
Y223336D01*
X256097D01*
Y223084D01*
X256348D01*
Y222581D01*
X256600D01*
Y222078D01*
X256851D01*
Y221575D01*
X257103D01*
Y221324D01*
X257354D01*
Y220821D01*
X257606D01*
Y220318D01*
X257857D01*
Y220066D01*
X258109D01*
Y219563D01*
X258360D01*
Y219060D01*
X258612D01*
Y218809D01*
X258863D01*
Y218305D01*
X259115D01*
Y217803D01*
X259366D01*
Y217551D01*
X259618D01*
Y217048D01*
X259869D01*
Y216545D01*
X260121D01*
Y216042D01*
X260372D01*
Y215287D01*
X260624D01*
Y214533D01*
X260875D01*
Y212772D01*
X260624D01*
Y212018D01*
X260372D01*
Y211515D01*
X260121D01*
Y211263D01*
X259869D01*
Y211012D01*
X259618D01*
Y210760D01*
X259366D01*
Y210509D01*
X258863D01*
Y210257D01*
X258360D01*
Y210006D01*
X257606D01*
Y209754D01*
X216107D01*
Y210006D01*
X215604D01*
Y210257D01*
X215101D01*
Y210509D01*
X214598D01*
Y210760D01*
X214346D01*
Y211012D01*
X214095D01*
Y211263D01*
X213843D01*
Y211515D01*
X213592D01*
Y212018D01*
X213340D01*
Y212772D01*
X213089D01*
Y214533D01*
X213340D01*
Y215539D01*
X213592D01*
Y216042D01*
X213843D01*
Y216545D01*
X214095D01*
Y217048D01*
X214346D01*
Y217551D01*
X214598D01*
Y217803D01*
X214849D01*
Y218305D01*
X215101D01*
Y218809D01*
X215352D01*
Y219060D01*
X215604D01*
Y219563D01*
X215855D01*
Y220066D01*
X216107D01*
Y220569D01*
X216358D01*
Y220821D01*
X216610D01*
Y221324D01*
X216861D01*
Y221827D01*
X217113D01*
Y222078D01*
X217364D01*
Y222581D01*
X217616D01*
Y223084D01*
X217867D01*
Y223336D01*
X218119D01*
Y223839D01*
X218370D01*
Y224342D01*
X218622D01*
Y224845D01*
X218873D01*
Y225348D01*
X219125D01*
Y225599D01*
X219376D01*
Y226102D01*
X219628D01*
Y226605D01*
X219879D01*
Y226857D01*
X220131D01*
Y227360D01*
X220382D01*
Y227863D01*
X220634D01*
Y228114D01*
X220885D01*
Y228617D01*
X221137D01*
Y229120D01*
X221388D01*
Y229372D01*
X221640D01*
Y229875D01*
X221891D01*
Y230378D01*
X222143D01*
Y230881D01*
X222394D01*
Y231133D01*
X222646D01*
Y231636D01*
X222897D01*
Y232139D01*
X223149D01*
Y232642D01*
X223400D01*
Y233145D01*
X223652D01*
Y233396D01*
X223904D01*
Y233899D01*
X224155D01*
Y234402D01*
X224407D01*
Y234654D01*
X224658D01*
Y235157D01*
X224909D01*
Y235660D01*
X225161D01*
Y235911D01*
X225413D01*
Y236414D01*
X225664D01*
Y236917D01*
X225916D01*
Y237169D01*
X226167D01*
Y237672D01*
X226419D01*
Y238175D01*
X226670D01*
Y238678D01*
X226922D01*
Y239181D01*
X227173D01*
Y239432D01*
X227425D01*
Y239935D01*
X227676D01*
Y240438D01*
X227928D01*
Y240941D01*
X228179D01*
Y241193D01*
X228431D01*
Y241696D01*
X228682D01*
Y242199D01*
X228934D01*
Y242451D01*
X229185D01*
Y242953D01*
X229437D01*
Y243456D01*
X229688D01*
Y243708D01*
X229940D01*
Y244211D01*
X230191D01*
Y244714D01*
X230443D01*
Y244966D01*
X230694D01*
Y245469D01*
X230946D01*
Y245972D01*
X231197D01*
Y246475D01*
X231449D01*
Y246726D01*
X231700D01*
Y247229D01*
X231952D01*
Y247732D01*
X232203D01*
Y248235D01*
X232455D01*
Y248487D01*
X232706D01*
Y248990D01*
X232958D01*
Y249493D01*
X233209D01*
Y249744D01*
X233461D01*
Y250247D01*
X233712D01*
Y250499D01*
X233964D01*
Y250750D01*
X234215D01*
Y251002D01*
X234718D01*
Y251253D01*
X234970D01*
Y251505D01*
X235473D01*
Y251756D01*
X236479D01*
Y252008D01*
X237485D01*
Y251756D01*
D02*
G37*
G36*
X262636Y204724D02*
X211328D01*
Y205227D01*
X262636D01*
Y204724D01*
D02*
G37*
G36*
X187178Y135724D02*
X185658D01*
Y140296D01*
X187178D01*
Y135724D01*
D02*
G37*
G36*
X169650D02*
X168130D01*
Y140296D01*
X169650D01*
Y135724D01*
D02*
G37*
G36*
X315594Y131828D02*
X314074D01*
Y136400D01*
X315594D01*
Y131828D01*
D02*
G37*
G36*
X298066D02*
X296546D01*
Y136400D01*
X298066D01*
Y131828D01*
D02*
G37*
G36*
X655036Y631424D02*
X655476D01*
Y631370D01*
X655696D01*
Y631315D01*
X655916D01*
Y631259D01*
X656026D01*
Y631204D01*
X656191D01*
Y631150D01*
X656301D01*
Y631095D01*
X656411D01*
Y631040D01*
X656520D01*
Y630985D01*
X656630D01*
Y630930D01*
X656685D01*
Y630875D01*
X656795D01*
Y630820D01*
X656850D01*
Y630765D01*
X656960D01*
Y630710D01*
X657015D01*
Y630655D01*
X657070D01*
Y630600D01*
X657125D01*
Y630545D01*
X657235D01*
Y630490D01*
X657290D01*
Y630435D01*
X657345D01*
Y630380D01*
X657400D01*
Y630325D01*
X657455D01*
Y630215D01*
X657565D01*
Y630105D01*
X657620D01*
Y630050D01*
X657675D01*
Y629940D01*
X657730D01*
Y629885D01*
X657785D01*
Y629775D01*
X657840D01*
Y629720D01*
X657895D01*
Y629610D01*
X657950D01*
Y629500D01*
X658005D01*
Y629390D01*
X658060D01*
Y629281D01*
X658115D01*
Y629116D01*
X658170D01*
Y629006D01*
X658224D01*
Y628786D01*
X658279D01*
Y628566D01*
X658335D01*
Y628126D01*
X658390D01*
Y627686D01*
X658335D01*
Y627247D01*
X658279D01*
Y627027D01*
X658224D01*
Y626807D01*
X658170D01*
Y626697D01*
X658115D01*
Y626532D01*
X658060D01*
Y626422D01*
X658005D01*
Y626312D01*
X657950D01*
Y626202D01*
X657895D01*
Y626147D01*
Y626092D01*
X657840D01*
Y626037D01*
X657785D01*
Y625927D01*
X657730D01*
Y625872D01*
X657675D01*
Y625762D01*
X657620D01*
Y625707D01*
X657565D01*
Y625597D01*
X657455D01*
Y625488D01*
X657400D01*
Y625433D01*
X657345D01*
Y625378D01*
X657290D01*
Y625323D01*
X657235D01*
Y625268D01*
X657125D01*
Y625213D01*
X657070D01*
Y625158D01*
X657015D01*
Y625103D01*
X656960D01*
Y625048D01*
X656850D01*
Y624993D01*
X656795D01*
Y624938D01*
X656685D01*
Y624883D01*
X656630D01*
Y624828D01*
X656520D01*
Y624773D01*
X656466D01*
Y624718D01*
X656301D01*
Y624663D01*
X656191D01*
Y624608D01*
X656026D01*
Y624553D01*
X655916D01*
Y624498D01*
X655696D01*
Y624443D01*
X655476D01*
Y624388D01*
X655036D01*
Y624333D01*
X654596D01*
Y624388D01*
X654157D01*
Y624443D01*
X653937D01*
Y624498D01*
X653772D01*
Y624553D01*
X653607D01*
Y624608D01*
X653442D01*
Y624663D01*
X653332D01*
Y624718D01*
X653167D01*
Y624773D01*
X653112D01*
Y624828D01*
X653002D01*
Y624883D01*
X652947D01*
Y624938D01*
X652837D01*
Y624993D01*
X652782D01*
Y625048D01*
X652673D01*
Y625103D01*
X652617D01*
Y625158D01*
X652562D01*
Y625213D01*
X652507D01*
Y625268D01*
X652398D01*
Y625323D01*
X652343D01*
Y625378D01*
X652288D01*
Y625433D01*
X652233D01*
Y625488D01*
X652178D01*
Y625597D01*
X652068D01*
Y625707D01*
X652013D01*
Y625762D01*
X651958D01*
Y625872D01*
X651903D01*
Y625927D01*
X651848D01*
Y626037D01*
X651793D01*
Y626092D01*
X651738D01*
Y626202D01*
X651683D01*
Y626312D01*
X651628D01*
Y626422D01*
X651573D01*
Y626532D01*
X651518D01*
Y626697D01*
X651463D01*
Y626807D01*
X651408D01*
Y627027D01*
X651353D01*
Y627247D01*
X651298D01*
Y627796D01*
X651243D01*
Y628071D01*
X651298D01*
Y628566D01*
X651353D01*
Y628786D01*
X651408D01*
Y629006D01*
X651463D01*
Y629116D01*
X651518D01*
Y629281D01*
X651573D01*
Y629390D01*
X651628D01*
Y629500D01*
X651683D01*
Y629610D01*
X651738D01*
Y629720D01*
X651793D01*
Y629775D01*
X651848D01*
Y629885D01*
X651903D01*
Y629940D01*
X651958D01*
Y630050D01*
X652013D01*
Y630105D01*
X652068D01*
Y630160D01*
X652123D01*
Y630215D01*
X652178D01*
Y630270D01*
X652233D01*
Y630380D01*
X652288D01*
Y630435D01*
X652343D01*
Y630490D01*
X652453D01*
Y630545D01*
X652507D01*
Y630600D01*
X652562D01*
Y630655D01*
X652617D01*
Y630710D01*
X652673D01*
Y630765D01*
X652782D01*
Y630820D01*
X652837D01*
Y630875D01*
X652947D01*
Y630930D01*
X653002D01*
Y630985D01*
X653112D01*
Y631040D01*
X653222D01*
Y631095D01*
X653332D01*
Y631150D01*
X653442D01*
Y631204D01*
X653607D01*
Y631259D01*
X653772D01*
Y631315D01*
X653937D01*
Y631370D01*
X654157D01*
Y631424D01*
X654596D01*
Y631479D01*
X655036D01*
Y631424D01*
D02*
G37*
G36*
X658554Y606797D02*
X651133D01*
Y625323D01*
X651188D01*
Y625268D01*
X651243D01*
Y625158D01*
X651298D01*
Y625103D01*
X651353D01*
Y625048D01*
X651408D01*
Y624993D01*
X651463D01*
Y624938D01*
X651518D01*
Y624828D01*
X651573D01*
Y624773D01*
X651628D01*
Y624718D01*
X651683D01*
Y624663D01*
X651738D01*
Y624608D01*
X651793D01*
Y624553D01*
X651848D01*
Y624498D01*
X651958D01*
Y624443D01*
X652013D01*
Y624388D01*
X652068D01*
Y624333D01*
X652178D01*
Y624278D01*
X652233D01*
Y624223D01*
X652288D01*
Y624168D01*
X652398D01*
Y624113D01*
X652507D01*
Y624058D01*
X652562D01*
Y624003D01*
X652673D01*
Y623948D01*
X652782D01*
Y623893D01*
X652892D01*
Y623838D01*
X653002D01*
Y623783D01*
X653112D01*
Y623728D01*
X653277D01*
Y623674D01*
X653442D01*
Y623619D01*
X653662D01*
Y623563D01*
X653882D01*
Y623509D01*
X654157D01*
Y623454D01*
X655531D01*
Y623509D01*
X655806D01*
Y623563D01*
X656026D01*
Y623619D01*
X656246D01*
Y623674D01*
X656411D01*
Y623728D01*
X656575D01*
Y623783D01*
X656685D01*
Y623838D01*
X656795D01*
Y623893D01*
X656905D01*
Y623948D01*
X657015D01*
Y624003D01*
X657125D01*
Y624058D01*
X657180D01*
Y624113D01*
X657290D01*
Y624168D01*
X657400D01*
Y624223D01*
X657455D01*
Y624278D01*
X657510D01*
Y624333D01*
X657620D01*
Y624388D01*
X657675D01*
Y624443D01*
X657730D01*
Y624498D01*
X657840D01*
Y624553D01*
X657895D01*
Y624608D01*
X657950D01*
Y624663D01*
X658005D01*
Y624718D01*
X658060D01*
Y624773D01*
X658115D01*
Y624828D01*
X658170D01*
Y624938D01*
X658224D01*
Y624993D01*
X658279D01*
Y625048D01*
X658335D01*
Y625103D01*
X658390D01*
Y625158D01*
X658444D01*
Y625268D01*
X658499D01*
Y625323D01*
X658554D01*
Y606797D01*
D02*
G37*
G36*
X619580Y631370D02*
X619525D01*
Y631259D01*
X619470D01*
Y631150D01*
X619415D01*
Y631040D01*
X619360D01*
Y630930D01*
X619305D01*
Y630820D01*
X619250D01*
Y630710D01*
X619195D01*
Y630600D01*
X619140D01*
Y630490D01*
X619085D01*
Y630380D01*
X619030D01*
Y630270D01*
X618975D01*
Y630160D01*
X618920D01*
Y630050D01*
X618865D01*
Y629940D01*
X618810D01*
Y629830D01*
X618755D01*
Y629720D01*
X618700D01*
Y629610D01*
X618645D01*
Y629500D01*
X618590D01*
Y629390D01*
X618535D01*
Y629281D01*
X618480D01*
Y629171D01*
X618425D01*
Y629061D01*
X618370D01*
Y628951D01*
X618315D01*
Y628841D01*
X618260D01*
Y628731D01*
X618205D01*
Y628621D01*
X618150D01*
Y628511D01*
X618096D01*
Y628401D01*
X618041D01*
Y628291D01*
X617986D01*
Y628181D01*
X617931D01*
Y628071D01*
X617876D01*
Y628016D01*
Y627961D01*
X617821D01*
Y627851D01*
X617766D01*
Y627741D01*
X617711D01*
Y627631D01*
X617656D01*
Y627522D01*
X617601D01*
Y627411D01*
X617546D01*
Y627302D01*
X617491D01*
Y627192D01*
X617436D01*
Y627082D01*
X617381D01*
Y626972D01*
X617326D01*
Y626862D01*
X617271D01*
Y626752D01*
X617216D01*
Y626642D01*
X617161D01*
Y626532D01*
X617106D01*
Y626422D01*
X617051D01*
Y626312D01*
X616996D01*
Y626202D01*
X616941D01*
Y626092D01*
X616886D01*
Y625982D01*
X616831D01*
Y625872D01*
X616776D01*
Y625762D01*
X616721D01*
Y625652D01*
X616666D01*
Y625542D01*
X616611D01*
Y625433D01*
X616556D01*
Y625323D01*
X616501D01*
Y625213D01*
X616446D01*
Y625103D01*
X616391D01*
Y624993D01*
X616337D01*
Y624883D01*
X616282D01*
Y624773D01*
X616227D01*
Y624663D01*
X616171D01*
Y624553D01*
X616117D01*
Y624443D01*
X616062D01*
Y624333D01*
X616007D01*
Y624223D01*
X615952D01*
Y624113D01*
X615897D01*
Y624003D01*
X615842D01*
Y623893D01*
X615787D01*
Y623783D01*
X615732D01*
Y623674D01*
X615677D01*
Y623563D01*
X615622D01*
Y623454D01*
X615567D01*
Y623344D01*
X615512D01*
Y623234D01*
X615457D01*
Y623124D01*
X615402D01*
Y623014D01*
X615347D01*
Y622904D01*
X615292D01*
Y622794D01*
X615237D01*
Y622684D01*
X615182D01*
Y622574D01*
X615127D01*
Y622464D01*
X615072D01*
Y622354D01*
X615017D01*
Y622244D01*
X614907D01*
Y622354D01*
X614852D01*
Y622464D01*
X614797D01*
Y622574D01*
X614742D01*
Y622684D01*
X614687D01*
Y622794D01*
X614632D01*
Y622904D01*
X614577D01*
Y623014D01*
X614522D01*
Y623124D01*
X614467D01*
Y623234D01*
X614412D01*
Y623344D01*
X614357D01*
Y623454D01*
X614302D01*
Y623563D01*
X614248D01*
Y623674D01*
X614193D01*
Y623783D01*
X614138D01*
Y623893D01*
X614083D01*
Y624003D01*
X614028D01*
Y624113D01*
X613973D01*
Y624223D01*
X613918D01*
Y624333D01*
X613863D01*
Y624443D01*
X613808D01*
Y624553D01*
X613753D01*
Y624663D01*
X613698D01*
Y624773D01*
X613643D01*
Y624883D01*
X613588D01*
Y624993D01*
X613533D01*
Y625103D01*
X613478D01*
Y625213D01*
X613423D01*
Y625323D01*
X613368D01*
Y625433D01*
X613313D01*
Y625542D01*
X613258D01*
Y625652D01*
X613203D01*
Y625762D01*
X613148D01*
Y625872D01*
X613093D01*
Y625982D01*
X613038D01*
Y626092D01*
X612983D01*
Y626202D01*
X612928D01*
Y626312D01*
X612873D01*
Y626422D01*
X612818D01*
Y626532D01*
X612763D01*
Y626642D01*
X612708D01*
Y626752D01*
X612653D01*
Y626862D01*
X612598D01*
Y626972D01*
X612543D01*
Y627082D01*
X612489D01*
Y627192D01*
X612434D01*
Y627302D01*
X612379D01*
Y627411D01*
X612323D01*
Y627522D01*
X612269D01*
Y627631D01*
X612214D01*
Y627741D01*
X612159D01*
Y627851D01*
X612104D01*
Y627961D01*
X612049D01*
Y628071D01*
X611994D01*
Y628181D01*
X611939D01*
Y628291D01*
X611884D01*
Y628401D01*
X611829D01*
Y628511D01*
X611774D01*
Y628621D01*
X611719D01*
Y628731D01*
X611664D01*
Y628841D01*
X611609D01*
Y628951D01*
X611554D01*
Y629061D01*
X611499D01*
Y629171D01*
X611444D01*
Y629281D01*
X611389D01*
Y629390D01*
X611334D01*
Y629500D01*
X611279D01*
Y629610D01*
X611224D01*
Y629720D01*
X611169D01*
Y629830D01*
X611114D01*
Y629940D01*
X611059D01*
Y630050D01*
X611004D01*
Y630160D01*
X610949D01*
Y630270D01*
X610894D01*
Y630380D01*
X610839D01*
Y630490D01*
X610784D01*
Y630600D01*
X610729D01*
Y630710D01*
X610674D01*
Y630820D01*
X610619D01*
Y630930D01*
X610564D01*
Y631040D01*
X610509D01*
Y631150D01*
X610454D01*
Y631259D01*
X610400D01*
Y631370D01*
X610345D01*
Y631479D01*
X619580D01*
Y631370D01*
D02*
G37*
G36*
X648660Y614603D02*
X640304D01*
Y622024D01*
X648660D01*
Y614603D01*
D02*
G37*
G36*
X398272Y609346D02*
X390652D01*
X393264Y612763D01*
X394462Y614426D01*
X398272Y609346D01*
D02*
G37*
G36*
X648660Y624113D02*
X638655D01*
Y615373D01*
Y615318D01*
Y606797D01*
X631234D01*
Y631534D01*
X648660D01*
Y624113D01*
D02*
G37*
G36*
X628650Y625158D02*
Y625103D01*
Y606797D01*
X621229D01*
Y631534D01*
X628650D01*
Y625158D01*
D02*
G37*
G36*
X608750Y606797D02*
X601329D01*
Y623948D01*
Y624003D01*
Y631534D01*
X608750D01*
Y606797D01*
D02*
G37*
G36*
X678454Y610315D02*
Y610261D01*
Y606248D01*
X671088D01*
Y613669D01*
X678454D01*
Y610315D01*
D02*
G37*
G36*
X668724Y606138D02*
X661358D01*
Y615648D01*
Y615703D01*
Y631534D01*
X668724D01*
Y606138D01*
D02*
G37*
G36*
X437880Y336769D02*
X429960D01*
Y338749D01*
X437880D01*
Y336769D01*
D02*
G37*
G36*
X489030Y338749D02*
X492000D01*
Y336769D01*
X489030D01*
Y331159D01*
X487050D01*
Y336769D01*
X484080D01*
Y338749D01*
X487050D01*
Y344359D01*
X489030D01*
Y338749D01*
D02*
G37*
G36*
X897305Y368127D02*
X897333Y368106D01*
X897375Y368078D01*
X897431Y368043D01*
X897544Y367944D01*
X897593Y367895D01*
X897642Y367846D01*
X897649Y367839D01*
X897670Y367818D01*
X897691Y367790D01*
X897699Y367755D01*
X897691Y367741D01*
X897684Y367726D01*
X897663Y367705D01*
X897635Y367677D01*
X897586Y367642D01*
X897523Y367600D01*
X897431Y367551D01*
Y362604D01*
Y362597D01*
Y362569D01*
X897424Y362527D01*
X897417Y362478D01*
X897403Y362421D01*
X897389Y362365D01*
X897361Y362316D01*
X897326Y362267D01*
X897319Y362260D01*
X897311Y362253D01*
X897290Y362231D01*
X897262Y362203D01*
X897227Y362175D01*
X897178Y362147D01*
X897129Y362119D01*
X897072Y362091D01*
X897065D01*
X897051Y362077D01*
X897023Y362070D01*
X896988Y362056D01*
X896904Y362034D01*
X896819Y362020D01*
Y362027D01*
Y362048D01*
Y362077D01*
X896812Y362112D01*
X896798Y362182D01*
X896784Y362217D01*
X896763Y362245D01*
Y362253D01*
X896749Y362260D01*
X896713Y362295D01*
X896685Y362316D01*
X896650Y362344D01*
X896601Y362365D01*
X896552Y362393D01*
X896545D01*
X896524Y362400D01*
X896488Y362414D01*
X896446Y362428D01*
X896390Y362443D01*
X896327Y362457D01*
X896186Y362478D01*
Y362632D01*
X896193D01*
X896200Y362625D01*
X896221D01*
X896249Y362618D01*
X896320Y362597D01*
X896411Y362583D01*
X896516Y362562D01*
X896629Y362541D01*
X896749Y362534D01*
X896868Y362527D01*
X896925D01*
X896953Y362534D01*
X897023Y362541D01*
X897058Y362548D01*
X897079Y362562D01*
X897086Y362569D01*
X897114Y362597D01*
X897122Y362625D01*
X897136Y362654D01*
X897143Y362696D01*
Y362745D01*
Y365004D01*
X897136Y364996D01*
X897122Y364982D01*
X897101Y364961D01*
X897065Y364933D01*
X896995Y364863D01*
X896910Y364799D01*
X896904Y364793D01*
X896882Y364778D01*
X896847Y364750D01*
X896805Y364722D01*
X896756Y364680D01*
X896699Y364645D01*
X896580Y364560D01*
X896573Y364553D01*
X896552Y364546D01*
X896524Y364525D01*
X896488Y364497D01*
X896397Y364441D01*
X896291Y364384D01*
Y364377D01*
X896277Y364349D01*
X896263Y364307D01*
X896249Y364265D01*
X896235Y364223D01*
X896214Y364180D01*
X896200Y364152D01*
X896186Y364145D01*
X896172Y364152D01*
X896151Y364173D01*
X896123Y364208D01*
X896087Y364265D01*
X896059Y364300D01*
X896038Y364349D01*
X896003Y364406D01*
X895968Y364469D01*
X895932Y364539D01*
X895890Y364624D01*
Y364617D01*
Y364595D01*
Y364574D01*
X895883Y364553D01*
Y364546D01*
Y364532D01*
Y364511D01*
X895876Y364476D01*
Y364441D01*
Y364391D01*
X895869Y364279D01*
X895855Y364145D01*
X895841Y363997D01*
X895827Y363836D01*
X895806Y363667D01*
Y363660D01*
Y363653D01*
X895799Y363632D01*
Y363603D01*
X895785Y363540D01*
X895771Y363449D01*
X895750Y363350D01*
X895729Y363238D01*
X895679Y363012D01*
Y362998D01*
X895665Y362963D01*
X895651Y362907D01*
X895630Y362836D01*
X895602Y362752D01*
X895567Y362661D01*
X895489Y362471D01*
X895482Y362464D01*
X895475Y362435D01*
X895454Y362386D01*
X895419Y362330D01*
X895384Y362260D01*
X895341Y362189D01*
X895285Y362105D01*
X895222Y362020D01*
X895145Y362077D01*
X895152Y362084D01*
X895159Y362112D01*
X895180Y362154D01*
X895201Y362203D01*
X895222Y362267D01*
X895250Y362344D01*
X895278Y362421D01*
X895299Y362506D01*
Y362513D01*
X895313Y362541D01*
X895327Y362583D01*
X895341Y362640D01*
X895363Y362703D01*
X895377Y362780D01*
X895419Y362942D01*
Y362956D01*
X895426Y362991D01*
X895440Y363041D01*
X895447Y363118D01*
X895461Y363202D01*
X895475Y363308D01*
X895489Y363420D01*
X895503Y363547D01*
Y363554D01*
Y363568D01*
X895510Y363589D01*
Y363618D01*
X895517Y363653D01*
Y363695D01*
X895524Y363800D01*
X895538Y363920D01*
X895546Y364061D01*
X895560Y364208D01*
X895567Y364363D01*
Y364370D01*
Y364391D01*
Y364420D01*
X895574Y364462D01*
Y364511D01*
Y364574D01*
X895581Y364645D01*
Y364729D01*
Y364814D01*
X895588Y364912D01*
Y365123D01*
X895595Y365355D01*
Y365609D01*
Y365616D01*
Y365630D01*
Y365651D01*
Y365679D01*
Y365714D01*
Y365756D01*
Y365862D01*
Y365996D01*
Y366143D01*
Y366312D01*
Y366495D01*
X895588Y366685D01*
Y366889D01*
X895581Y367304D01*
Y367508D01*
X895574Y367705D01*
Y367895D01*
X895567Y368078D01*
X895947Y367839D01*
X897086D01*
X897298Y368134D01*
X897305Y368127D01*
D02*
G37*
G36*
X885372Y368226D02*
X885435Y368219D01*
X885512Y368205D01*
X885604Y368191D01*
X885695Y368170D01*
X885794Y368148D01*
X885878Y368127D01*
X885885D01*
X885907Y368113D01*
X885921Y368092D01*
X885928Y368050D01*
Y368043D01*
X885913Y368022D01*
X885900Y368008D01*
X885885Y367994D01*
X885857Y367980D01*
X885822Y367966D01*
X885815D01*
X885801Y367959D01*
X885780Y367952D01*
X885752Y367944D01*
X885688Y367930D01*
X885611Y367916D01*
Y367909D01*
X885604Y367881D01*
Y367832D01*
X885590Y367776D01*
X885583Y367705D01*
X885576Y367628D01*
X885548Y367459D01*
X886969D01*
X887286Y367839D01*
X887300Y367832D01*
X887328Y367804D01*
X887377Y367769D01*
X887440Y367719D01*
X887511Y367663D01*
X887595Y367600D01*
X887764Y367459D01*
X887771Y367452D01*
X887792Y367438D01*
X887813Y367417D01*
X887820Y367382D01*
Y367375D01*
Y367368D01*
X887806Y367332D01*
X887792Y367311D01*
X887778Y367297D01*
X887750Y367290D01*
X887715Y367283D01*
X885512D01*
Y367276D01*
Y367262D01*
X885506Y367220D01*
X885491Y367164D01*
X885477Y367079D01*
X885463Y366988D01*
X885442Y366889D01*
X885400Y366671D01*
X886385D01*
X886603Y366959D01*
X886617Y366953D01*
X886645Y366931D01*
X886687Y366903D01*
X886737Y366868D01*
X886849Y366777D01*
X886906Y366727D01*
X886948Y366678D01*
X886955Y366671D01*
X886969Y366643D01*
X886983Y366615D01*
X886990Y366587D01*
X886983Y366572D01*
X886976Y366558D01*
X886955Y366537D01*
X886927Y366509D01*
X886877Y366474D01*
X886814Y366425D01*
X886730Y366376D01*
Y363561D01*
X886969D01*
X887286Y363934D01*
X887300Y363927D01*
X887328Y363899D01*
X887377Y363864D01*
X887440Y363815D01*
X887511Y363758D01*
X887595Y363695D01*
X887764Y363561D01*
X887771Y363554D01*
X887792Y363540D01*
X887813Y363512D01*
X887820Y363477D01*
Y363470D01*
Y363463D01*
X887806Y363428D01*
X887792Y363406D01*
X887778Y363385D01*
X887750Y363378D01*
X887715Y363371D01*
X883824D01*
X883711Y363364D01*
X883606D01*
X883514Y363357D01*
X883472D01*
X883437Y363350D01*
X883296Y363639D01*
X883310D01*
X883353Y363624D01*
X883416Y363618D01*
X883507Y363603D01*
X883620Y363589D01*
X883754Y363575D01*
X883901Y363568D01*
X884077Y363561D01*
X884098D01*
Y366502D01*
Y366516D01*
Y366544D01*
Y366594D01*
X884091Y366657D01*
X884084Y366734D01*
X884077Y366805D01*
X884063Y366882D01*
X884049Y366959D01*
X884443Y366671D01*
X885076D01*
Y366678D01*
X885083Y366685D01*
X885090Y366727D01*
X885104Y366791D01*
X885126Y366875D01*
X885147Y366967D01*
X885175Y367072D01*
X885210Y367283D01*
X883972D01*
X883873Y367276D01*
X883768D01*
X883662Y367269D01*
X883571Y367262D01*
X883528D01*
X883493Y367255D01*
X883353Y367551D01*
X883367Y367543D01*
X883409Y367536D01*
X883472Y367522D01*
X883564Y367508D01*
X883669Y367487D01*
X883803Y367473D01*
X883958Y367466D01*
X884127Y367459D01*
X885245D01*
Y367466D01*
X885252Y367480D01*
Y367494D01*
Y367508D01*
Y367515D01*
Y367529D01*
X885259Y367551D01*
Y367579D01*
X885273Y367656D01*
X885280Y367755D01*
X885294Y367867D01*
X885301Y367987D01*
X885309Y368113D01*
X885315Y368233D01*
X885330D01*
X885372Y368226D01*
D02*
G37*
G36*
X891261Y368127D02*
X891289D01*
X891359Y368113D01*
X891451Y368099D01*
X891549Y368078D01*
X891655Y368050D01*
X891760Y368022D01*
X891859Y367987D01*
X891866D01*
X891873Y367980D01*
X891908Y367959D01*
X891936Y367930D01*
X891943Y367916D01*
X891950Y367895D01*
Y367888D01*
X891936Y367860D01*
X891915Y367832D01*
X891887Y367818D01*
X891859Y367804D01*
X891852D01*
X891838Y367797D01*
X891809Y367783D01*
X891781Y367769D01*
X891739Y367755D01*
X891690Y367747D01*
X891570Y367726D01*
Y367311D01*
X892154D01*
X892450Y367600D01*
X892457Y367593D01*
X892485Y367572D01*
X892527Y367543D01*
X892576Y367501D01*
X892640Y367452D01*
X892710Y367403D01*
X892851Y367297D01*
X892858Y367290D01*
X892879Y367276D01*
X892893Y367255D01*
X892900Y367227D01*
Y367220D01*
Y367213D01*
X892893Y367171D01*
X892872Y367135D01*
X892851Y367121D01*
X892830Y367114D01*
X891570D01*
Y366354D01*
X891894D01*
X892154Y366608D01*
X892161Y366601D01*
X892189Y366587D01*
X892225Y366558D01*
X892274Y366523D01*
X892330Y366481D01*
X892386Y366439D01*
X892513Y366333D01*
X892520Y366326D01*
X892541Y366312D01*
X892555Y366291D01*
X892562Y366263D01*
Y366256D01*
Y366249D01*
X892555Y366214D01*
X892527Y366179D01*
X892513Y366171D01*
X892485Y366164D01*
X891021D01*
X890923Y366157D01*
X890817D01*
X890712Y366150D01*
X890620Y366143D01*
X890578D01*
X890543Y366136D01*
X890402Y366432D01*
X890416D01*
X890459Y366418D01*
X890522Y366411D01*
X890613Y366397D01*
X890719Y366383D01*
X890853Y366368D01*
X891008Y366361D01*
X891176Y366354D01*
X891254D01*
Y367114D01*
X890754D01*
X890656Y367107D01*
X890550D01*
X890445Y367100D01*
X890353Y367093D01*
X890276Y367086D01*
X890135Y367382D01*
X890149D01*
X890191Y367368D01*
X890255Y367360D01*
X890346Y367346D01*
X890452Y367332D01*
X890585Y367325D01*
X890740Y367311D01*
X891254D01*
Y367600D01*
Y367607D01*
Y367614D01*
Y367656D01*
Y367719D01*
Y367797D01*
X891247Y367888D01*
X891240Y367973D01*
X891233Y368057D01*
X891226Y368134D01*
X891240D01*
X891261Y368127D01*
D02*
G37*
G36*
X877393Y367213D02*
X876795D01*
Y367895D01*
X877393D01*
Y367213D01*
D02*
G37*
G36*
X857341D02*
X856743D01*
Y367895D01*
X857341D01*
Y367213D01*
D02*
G37*
G36*
X848940Y367909D02*
X848990D01*
X849046Y367902D01*
X849180Y367874D01*
X849327Y367839D01*
X849482Y367783D01*
X849637Y367698D01*
X849714Y367649D01*
X849785Y367593D01*
X849792Y367586D01*
X849799Y367579D01*
X849820Y367557D01*
X849841Y367536D01*
X849876Y367501D01*
X849904Y367459D01*
X849982Y367360D01*
X850059Y367234D01*
X850129Y367079D01*
X850193Y366903D01*
X850235Y366706D01*
X849637Y366657D01*
Y366664D01*
X849630Y366671D01*
X849623Y366713D01*
X849602Y366777D01*
X849574Y366854D01*
X849546Y366938D01*
X849503Y367023D01*
X849454Y367100D01*
X849405Y367164D01*
X849391Y367178D01*
X849363Y367206D01*
X849313Y367248D01*
X849243Y367297D01*
X849152Y367339D01*
X849053Y367382D01*
X848933Y367410D01*
X848807Y367424D01*
X848757D01*
X848701Y367417D01*
X848638Y367403D01*
X848553Y367382D01*
X848469Y367354D01*
X848385Y367318D01*
X848300Y367262D01*
X848286Y367255D01*
X848251Y367227D01*
X848202Y367178D01*
X848138Y367107D01*
X848068Y367023D01*
X847991Y366924D01*
X847920Y366798D01*
X847850Y366657D01*
Y366650D01*
X847843Y366636D01*
X847836Y366615D01*
X847822Y366587D01*
X847815Y366544D01*
X847801Y366495D01*
X847786Y366439D01*
X847773Y366368D01*
X847751Y366291D01*
X847737Y366207D01*
X847723Y366115D01*
X847716Y366017D01*
X847702Y365904D01*
X847695Y365792D01*
X847688Y365665D01*
Y365538D01*
X847695Y365545D01*
X847723Y365588D01*
X847773Y365644D01*
X847836Y365714D01*
X847906Y365799D01*
X847998Y365876D01*
X848096Y365953D01*
X848209Y366024D01*
X848216D01*
X848223Y366031D01*
X848265Y366052D01*
X848328Y366073D01*
X848413Y366108D01*
X848511Y366136D01*
X848624Y366157D01*
X848743Y366179D01*
X848870Y366186D01*
X848926D01*
X848969Y366179D01*
X849025Y366171D01*
X849081Y366164D01*
X849152Y366150D01*
X849222Y366129D01*
X849384Y366080D01*
X849468Y366045D01*
X849553Y365996D01*
X849637Y365946D01*
X849728Y365890D01*
X849813Y365820D01*
X849890Y365742D01*
X849897Y365735D01*
X849911Y365721D01*
X849932Y365700D01*
X849954Y365665D01*
X849989Y365616D01*
X850024Y365566D01*
X850059Y365503D01*
X850101Y365433D01*
X850144Y365355D01*
X850179Y365271D01*
X850214Y365172D01*
X850249Y365074D01*
X850270Y364968D01*
X850291Y364849D01*
X850305Y364729D01*
X850312Y364603D01*
Y364595D01*
Y364581D01*
Y364560D01*
Y364525D01*
X850305Y364483D01*
Y364441D01*
X850284Y364328D01*
X850263Y364194D01*
X850228Y364054D01*
X850179Y363899D01*
X850108Y363751D01*
Y363744D01*
X850101Y363737D01*
X850087Y363716D01*
X850073Y363688D01*
X850031Y363618D01*
X849968Y363526D01*
X849890Y363428D01*
X849799Y363329D01*
X849686Y363231D01*
X849567Y363146D01*
X849560D01*
X849553Y363139D01*
X849531Y363125D01*
X849503Y363118D01*
X849433Y363083D01*
X849342Y363048D01*
X849222Y363005D01*
X849088Y362977D01*
X848940Y362949D01*
X848779Y362942D01*
X848743D01*
X848708Y362949D01*
X848652D01*
X848589Y362956D01*
X848518Y362970D01*
X848434Y362991D01*
X848349Y363012D01*
X848251Y363041D01*
X848152Y363076D01*
X848054Y363118D01*
X847948Y363174D01*
X847850Y363238D01*
X847751Y363308D01*
X847653Y363392D01*
X847561Y363491D01*
X847554Y363498D01*
X847540Y363519D01*
X847519Y363547D01*
X847491Y363596D01*
X847449Y363660D01*
X847414Y363730D01*
X847371Y363821D01*
X847329Y363920D01*
X847280Y364040D01*
X847238Y364173D01*
X847203Y364321D01*
X847167Y364483D01*
X847132Y364666D01*
X847111Y364863D01*
X847097Y365074D01*
X847090Y365299D01*
Y365306D01*
Y365313D01*
Y365334D01*
Y365362D01*
X847097Y365433D01*
Y365531D01*
X847104Y365644D01*
X847118Y365778D01*
X847132Y365925D01*
X847153Y366087D01*
X847181Y366249D01*
X847217Y366425D01*
X847259Y366594D01*
X847308Y366763D01*
X847371Y366924D01*
X847442Y367079D01*
X847519Y367227D01*
X847611Y367354D01*
X847618Y367360D01*
X847632Y367375D01*
X847660Y367403D01*
X847695Y367445D01*
X847737Y367487D01*
X847794Y367529D01*
X847864Y367586D01*
X847934Y367635D01*
X848019Y367684D01*
X848110Y367741D01*
X848216Y367783D01*
X848321Y367832D01*
X848441Y367867D01*
X848568Y367895D01*
X848701Y367909D01*
X848842Y367916D01*
X848898D01*
X848940Y367909D01*
D02*
G37*
G36*
X889143Y368177D02*
X889171D01*
X889241Y368163D01*
X889326Y368148D01*
X889424Y368127D01*
X889530Y368106D01*
X889635Y368071D01*
X889734Y368036D01*
X889741D01*
X889748Y368029D01*
X889776Y368008D01*
X889804Y367980D01*
X889818Y367959D01*
Y367938D01*
Y367930D01*
X889811Y367909D01*
X889783Y367881D01*
X889762Y367874D01*
X889734Y367860D01*
X889727D01*
X889713Y367853D01*
X889685Y367839D01*
X889650Y367825D01*
X889607Y367818D01*
X889565Y367804D01*
X889453Y367790D01*
Y366608D01*
X889607D01*
X889868Y366875D01*
X889875Y366868D01*
X889903Y366854D01*
X889945Y366826D01*
X889994Y366791D01*
X890058Y366748D01*
X890121Y366699D01*
X890255Y366601D01*
X890262Y366594D01*
X890283Y366580D01*
X890297Y366558D01*
X890304Y366530D01*
Y366523D01*
Y366516D01*
X890297Y366481D01*
X890269Y366446D01*
X890248Y366439D01*
X890219Y366432D01*
X889453D01*
Y365827D01*
X889467Y365820D01*
X889495Y365799D01*
X889544Y365770D01*
X889600Y365728D01*
X889727Y365630D01*
X889797Y365573D01*
X889854Y365517D01*
X889861Y365510D01*
X889882Y365489D01*
X889910Y365461D01*
X889938Y365426D01*
X890015Y365327D01*
X890051Y365278D01*
X890086Y365222D01*
Y365215D01*
X890093Y365201D01*
X890100Y365187D01*
X890114Y365158D01*
X890128Y365095D01*
X890135Y365025D01*
Y365018D01*
Y364990D01*
X890128Y364954D01*
X890114Y364919D01*
X890100Y364877D01*
X890072Y364842D01*
X890030Y364814D01*
X889980Y364807D01*
X889973D01*
X889952Y364814D01*
X889924Y364821D01*
X889896Y364835D01*
X889889Y364842D01*
X889875Y364863D01*
X889861Y364884D01*
X889847Y364912D01*
X889833Y364940D01*
X889818Y364982D01*
X889811Y364996D01*
X889804Y365025D01*
X889783Y365074D01*
X889762Y365130D01*
X889727Y365201D01*
X889692Y365271D01*
X889657Y365341D01*
X889614Y365405D01*
Y365412D01*
X889600Y365426D01*
X889586Y365440D01*
X889565Y365468D01*
X889516Y365531D01*
X889453Y365602D01*
Y362548D01*
Y362541D01*
Y362527D01*
Y362499D01*
Y362471D01*
X889460Y362407D01*
Y362379D01*
X889467Y362351D01*
Y362344D01*
Y362330D01*
X889474Y362309D01*
Y362288D01*
X889481Y362224D01*
Y362161D01*
Y362154D01*
Y362126D01*
X889467Y362098D01*
X889453Y362056D01*
X889424Y362020D01*
X889389Y361985D01*
X889333Y361957D01*
X889263Y361950D01*
X889241D01*
X889213Y361957D01*
X889185Y361964D01*
X889157Y361971D01*
X889129Y361992D01*
X889115Y362013D01*
X889108Y362048D01*
Y362056D01*
Y362077D01*
Y362105D01*
Y362147D01*
X889115Y362203D01*
Y362267D01*
Y362337D01*
X889122Y362414D01*
Y362421D01*
Y362457D01*
X889129Y362499D01*
Y362555D01*
Y362611D01*
X889136Y362682D01*
Y362815D01*
Y365397D01*
X889129Y365391D01*
X889122Y365355D01*
X889108Y365313D01*
X889087Y365250D01*
X889059Y365179D01*
X889030Y365109D01*
X888967Y364947D01*
X888960Y364933D01*
X888946Y364898D01*
X888918Y364835D01*
X888890Y364757D01*
X888848Y364666D01*
X888798Y364567D01*
X888742Y364455D01*
X888686Y364335D01*
X888679Y364321D01*
X888658Y364286D01*
X888629Y364230D01*
X888587Y364152D01*
X888531Y364061D01*
X888467Y363955D01*
X888390Y363836D01*
X888313Y363716D01*
X888228Y363829D01*
Y363836D01*
X888235Y363843D01*
X888249Y363864D01*
X888257Y363892D01*
X888292Y363962D01*
X888334Y364054D01*
X888383Y364159D01*
X888439Y364272D01*
X888545Y364525D01*
Y364532D01*
X888552Y364539D01*
X888566Y364581D01*
X888587Y364645D01*
X888615Y364729D01*
X888651Y364835D01*
X888693Y364947D01*
X888728Y365081D01*
X888770Y365222D01*
Y365229D01*
X888777Y365236D01*
X888784Y365278D01*
X888805Y365341D01*
X888826Y365426D01*
X888855Y365524D01*
X888883Y365644D01*
X888911Y365763D01*
X888939Y365897D01*
Y365911D01*
X888946Y365946D01*
X888960Y366003D01*
X888974Y366073D01*
X888988Y366157D01*
X889002Y366242D01*
X889030Y366432D01*
X888840D01*
X888742Y366425D01*
X888636D01*
X888531Y366418D01*
X888432Y366411D01*
X888355Y366404D01*
X888228Y366699D01*
X888242Y366692D01*
X888285Y366685D01*
X888348Y366671D01*
X888432Y366657D01*
X888545Y366636D01*
X888672Y366622D01*
X888826Y366615D01*
X888995Y366608D01*
X889136D01*
Y367649D01*
Y367656D01*
Y367663D01*
Y367705D01*
Y367769D01*
Y367853D01*
X889129Y367938D01*
X889122Y368029D01*
X889115Y368113D01*
X889108Y368184D01*
X889122D01*
X889143Y368177D01*
D02*
G37*
G36*
X893716Y368148D02*
X893744D01*
X893808Y368134D01*
X893892Y368120D01*
X893991Y368099D01*
X894103Y368064D01*
X894209Y368029D01*
X894314Y367987D01*
X894321D01*
X894328Y367980D01*
X894357Y367966D01*
X894378Y367944D01*
X894392Y367930D01*
Y367916D01*
Y367909D01*
X894378Y367881D01*
X894357Y367846D01*
X894328Y367832D01*
X894300Y367818D01*
X894293D01*
X894279Y367811D01*
X894251Y367804D01*
X894216Y367797D01*
X894131Y367776D01*
X894026Y367755D01*
Y366291D01*
X894040D01*
X894307Y366558D01*
X894314Y366551D01*
X894342Y366537D01*
X894378Y366509D01*
X894427Y366474D01*
X894483Y366425D01*
X894539Y366383D01*
X894666Y366277D01*
X894673Y366270D01*
X894687Y366256D01*
X894701Y366242D01*
X894708Y366214D01*
Y366207D01*
Y366200D01*
X894701Y366164D01*
X894673Y366129D01*
X894659Y366122D01*
X894631Y366115D01*
X894026D01*
Y362576D01*
Y362569D01*
Y362541D01*
X894019Y362499D01*
X894012Y362449D01*
X893984Y362337D01*
X893962Y362288D01*
X893927Y362239D01*
X893920Y362231D01*
X893913Y362224D01*
X893892Y362203D01*
X893871Y362175D01*
X893801Y362126D01*
X893709Y362070D01*
X893702D01*
X893688Y362056D01*
X893660Y362048D01*
X893632Y362034D01*
X893561Y362006D01*
X893519Y361999D01*
X893484Y361992D01*
X893477Y362091D01*
Y362098D01*
Y362105D01*
X893463Y362140D01*
X893449Y362182D01*
X893428Y362217D01*
Y362224D01*
X893414Y362231D01*
X893393Y362245D01*
X893372Y362267D01*
X893336Y362288D01*
X893294Y362316D01*
X893238Y362337D01*
X893182Y362358D01*
X893175Y362365D01*
X893146Y362372D01*
X893104Y362386D01*
X893055Y362400D01*
X892984Y362414D01*
X892914Y362428D01*
X892830Y362443D01*
X892738Y362449D01*
Y362604D01*
X892745D01*
X892752Y362597D01*
X892773D01*
X892802Y362590D01*
X892879Y362576D01*
X892971Y362555D01*
X893083Y362534D01*
X893196Y362520D01*
X893322Y362513D01*
X893442Y362506D01*
X893491D01*
X893526Y362513D01*
X893590Y362527D01*
X893618Y362534D01*
X893646Y362548D01*
X893653Y362555D01*
X893667Y362569D01*
X893674Y362583D01*
X893688Y362611D01*
X893695Y362646D01*
X893702Y362689D01*
Y362745D01*
Y366115D01*
X893357D01*
X893259Y366108D01*
X893153D01*
X893048Y366101D01*
X892956Y366094D01*
X892879Y366087D01*
X892738Y366376D01*
X892752D01*
X892795Y366361D01*
X892858Y366347D01*
X892942Y366333D01*
X893055Y366319D01*
X893189Y366305D01*
X893336Y366298D01*
X893512Y366291D01*
X893702D01*
Y367621D01*
Y367628D01*
Y367635D01*
Y367656D01*
Y367684D01*
Y367755D01*
Y367832D01*
X893695Y367923D01*
Y368008D01*
X893688Y368092D01*
X893681Y368156D01*
X893695D01*
X893716Y368148D01*
D02*
G37*
G36*
X882248Y368043D02*
X882276D01*
X882346Y368029D01*
X882431Y368015D01*
X882529Y367994D01*
X882635Y367973D01*
X882740Y367944D01*
X882839Y367909D01*
X882846D01*
X882853Y367902D01*
X882888Y367881D01*
X882916Y367853D01*
X882923Y367832D01*
X882930Y367811D01*
Y367804D01*
X882916Y367776D01*
X882895Y367747D01*
X882867Y367733D01*
X882839Y367726D01*
X882832D01*
X882818Y367719D01*
X882790Y367705D01*
X882755Y367691D01*
X882670Y367670D01*
X882564Y367649D01*
Y366263D01*
X882797D01*
X883085Y366587D01*
X883099Y366580D01*
X883127Y366558D01*
X883170Y366523D01*
X883233Y366488D01*
X883303Y366432D01*
X883374Y366383D01*
X883535Y366256D01*
X883542Y366249D01*
X883564Y366235D01*
X883585Y366221D01*
X883592Y366193D01*
Y366186D01*
Y366179D01*
X883585Y366143D01*
X883564Y366101D01*
X883542Y366094D01*
X883521Y366087D01*
X882564D01*
Y364019D01*
X882571D01*
X882579Y364026D01*
X882621Y364040D01*
X882677Y364068D01*
X882747Y364096D01*
X882755D01*
X882762Y364103D01*
X882783Y364110D01*
X882811Y364117D01*
X882881Y364145D01*
X882973Y364180D01*
X883092Y364223D01*
X883226Y364279D01*
X883374Y364342D01*
X883535Y364412D01*
X883564Y364272D01*
X883557D01*
X883549Y364265D01*
X883507Y364237D01*
X883437Y364194D01*
X883353Y364145D01*
X883254Y364089D01*
X883148Y364026D01*
X883036Y363969D01*
X882930Y363913D01*
X882916Y363906D01*
X882881Y363885D01*
X882825Y363857D01*
X882747Y363821D01*
X882663Y363779D01*
X882571Y363737D01*
X882367Y363653D01*
X882353Y363646D01*
X882325Y363632D01*
X882276Y363610D01*
X882206Y363582D01*
X882128Y363547D01*
X882037Y363519D01*
X881938Y363484D01*
X881840Y363449D01*
Y363442D01*
X881826Y363413D01*
X881819Y363371D01*
X881805Y363329D01*
X881784Y363287D01*
X881769Y363245D01*
X881755Y363216D01*
X881741Y363209D01*
X881727Y363216D01*
X881706Y363238D01*
X881678Y363273D01*
X881657Y363301D01*
X881636Y363336D01*
X881608Y363378D01*
X881580Y363435D01*
X881544Y363491D01*
X881509Y363561D01*
X881467Y363646D01*
X881418Y363737D01*
X881432D01*
X881453Y363744D01*
X881481Y363751D01*
X881558Y363765D01*
X881650Y363786D01*
X881755Y363807D01*
X881875Y363836D01*
X881988Y363864D01*
X882107Y363892D01*
X882121D01*
X882149Y363899D01*
X882185Y363913D01*
X882234Y363927D01*
Y366087D01*
X882030D01*
X881931Y366080D01*
X881826Y366073D01*
X881720D01*
X881622Y366059D01*
X881544Y366052D01*
X881418Y366354D01*
X881432Y366347D01*
X881474Y366340D01*
X881537Y366326D01*
X881622Y366312D01*
X881734Y366291D01*
X881861Y366277D01*
X882016Y366270D01*
X882185Y366263D01*
X882234D01*
Y367522D01*
Y367529D01*
Y367536D01*
Y367579D01*
Y367642D01*
Y367719D01*
X882227Y367804D01*
Y367895D01*
X882220Y367980D01*
X882213Y368050D01*
X882227D01*
X882248Y368043D01*
D02*
G37*
G36*
X874902Y366629D02*
X874952D01*
X875001Y366622D01*
X875121Y366601D01*
X875247Y366566D01*
X875381Y366509D01*
X875515Y366439D01*
X875627Y366340D01*
X875641Y366326D01*
X875669Y366284D01*
X875719Y366221D01*
X875740Y366171D01*
X875768Y366122D01*
X875796Y366059D01*
X875817Y365996D01*
X875845Y365925D01*
X875866Y365841D01*
X875881Y365756D01*
X875895Y365658D01*
X875909Y365559D01*
Y365447D01*
Y363027D01*
X875311D01*
Y365243D01*
Y365250D01*
Y365257D01*
Y365299D01*
Y365362D01*
X875304Y365440D01*
X875296Y365524D01*
X875290Y365609D01*
X875275Y365693D01*
X875254Y365756D01*
Y365763D01*
X875240Y365784D01*
X875226Y365813D01*
X875205Y365848D01*
X875177Y365890D01*
X875142Y365932D01*
X875099Y365975D01*
X875043Y366017D01*
X875036Y366024D01*
X875015Y366031D01*
X874987Y366045D01*
X874938Y366066D01*
X874888Y366087D01*
X874825Y366101D01*
X874762Y366108D01*
X874684Y366115D01*
X874649D01*
X874621Y366108D01*
X874551Y366101D01*
X874466Y366087D01*
X874368Y366052D01*
X874262Y366010D01*
X874157Y365946D01*
X874058Y365862D01*
X874051Y365848D01*
X874023Y365813D01*
X873981Y365756D01*
X873939Y365672D01*
X873889Y365559D01*
X873854Y365426D01*
X873826Y365264D01*
X873812Y365074D01*
Y363027D01*
X873214D01*
Y365313D01*
Y365320D01*
Y365334D01*
Y365348D01*
Y365376D01*
X873207Y365454D01*
X873193Y365538D01*
X873179Y365637D01*
X873151Y365735D01*
X873115Y365827D01*
X873066Y365911D01*
X873059Y365918D01*
X873038Y365946D01*
X873003Y365975D01*
X872954Y366017D01*
X872890Y366052D01*
X872806Y366087D01*
X872707Y366108D01*
X872588Y366115D01*
X872545D01*
X872496Y366108D01*
X872440Y366101D01*
X872370Y366080D01*
X872285Y366059D01*
X872208Y366024D01*
X872123Y365981D01*
X872116Y365975D01*
X872088Y365953D01*
X872053Y365925D01*
X872004Y365883D01*
X871954Y365827D01*
X871905Y365756D01*
X871856Y365679D01*
X871814Y365588D01*
X871807Y365573D01*
X871800Y365538D01*
X871786Y365482D01*
X871765Y365405D01*
X871743Y365299D01*
X871729Y365172D01*
X871722Y365025D01*
X871715Y364856D01*
Y363027D01*
X871117D01*
Y366558D01*
X871652D01*
Y366052D01*
X871659Y366066D01*
X871680Y366094D01*
X871722Y366143D01*
X871772Y366200D01*
X871835Y366270D01*
X871912Y366340D01*
X871997Y366411D01*
X872095Y366474D01*
X872109Y366481D01*
X872144Y366502D01*
X872201Y366523D01*
X872278Y366558D01*
X872370Y366587D01*
X872475Y366608D01*
X872595Y366629D01*
X872721Y366636D01*
X872785D01*
X872862Y366629D01*
X872947Y366615D01*
X873052Y366594D01*
X873158Y366566D01*
X873263Y366523D01*
X873362Y366467D01*
X873376Y366460D01*
X873404Y366439D01*
X873446Y366404D01*
X873502Y366347D01*
X873559Y366284D01*
X873622Y366207D01*
X873678Y366115D01*
X873720Y366010D01*
X873727Y366017D01*
X873742Y366038D01*
X873763Y366066D01*
X873798Y366108D01*
X873840Y366157D01*
X873889Y366207D01*
X873946Y366263D01*
X874016Y366326D01*
X874093Y366383D01*
X874171Y366439D01*
X874262Y366488D01*
X874361Y366537D01*
X874466Y366580D01*
X874579Y366608D01*
X874691Y366629D01*
X874818Y366636D01*
X874867D01*
X874902Y366629D01*
D02*
G37*
G36*
X854850D02*
X854900D01*
X854949Y366622D01*
X855069Y366601D01*
X855195Y366566D01*
X855329Y366509D01*
X855463Y366439D01*
X855575Y366340D01*
X855589Y366326D01*
X855617Y366284D01*
X855667Y366221D01*
X855688Y366171D01*
X855716Y366122D01*
X855744Y366059D01*
X855765Y365996D01*
X855793Y365925D01*
X855814Y365841D01*
X855828Y365756D01*
X855843Y365658D01*
X855857Y365559D01*
Y365447D01*
Y363027D01*
X855259D01*
Y365243D01*
Y365250D01*
Y365257D01*
Y365299D01*
Y365362D01*
X855251Y365440D01*
X855245Y365524D01*
X855238Y365609D01*
X855223Y365693D01*
X855202Y365756D01*
Y365763D01*
X855188Y365784D01*
X855174Y365813D01*
X855153Y365848D01*
X855125Y365890D01*
X855090Y365932D01*
X855048Y365975D01*
X854991Y366017D01*
X854984Y366024D01*
X854963Y366031D01*
X854935Y366045D01*
X854886Y366066D01*
X854836Y366087D01*
X854773Y366101D01*
X854710Y366108D01*
X854632Y366115D01*
X854597D01*
X854569Y366108D01*
X854499Y366101D01*
X854414Y366087D01*
X854316Y366052D01*
X854210Y366010D01*
X854105Y365946D01*
X854006Y365862D01*
X853999Y365848D01*
X853971Y365813D01*
X853929Y365756D01*
X853887Y365672D01*
X853837Y365559D01*
X853802Y365426D01*
X853774Y365264D01*
X853760Y365074D01*
Y363027D01*
X853162D01*
Y365313D01*
Y365320D01*
Y365334D01*
Y365348D01*
Y365376D01*
X853155Y365454D01*
X853141Y365538D01*
X853127Y365637D01*
X853099Y365735D01*
X853063Y365827D01*
X853014Y365911D01*
X853007Y365918D01*
X852986Y365946D01*
X852951Y365975D01*
X852902Y366017D01*
X852838Y366052D01*
X852754Y366087D01*
X852655Y366108D01*
X852536Y366115D01*
X852494D01*
X852444Y366108D01*
X852388Y366101D01*
X852318Y366080D01*
X852233Y366059D01*
X852156Y366024D01*
X852071Y365981D01*
X852064Y365975D01*
X852036Y365953D01*
X852001Y365925D01*
X851952Y365883D01*
X851902Y365827D01*
X851853Y365756D01*
X851804Y365679D01*
X851762Y365588D01*
X851755Y365573D01*
X851748Y365538D01*
X851734Y365482D01*
X851712Y365405D01*
X851691Y365299D01*
X851677Y365172D01*
X851670Y365025D01*
X851663Y364856D01*
Y363027D01*
X851065D01*
Y366558D01*
X851600D01*
Y366052D01*
X851607Y366066D01*
X851628Y366094D01*
X851670Y366143D01*
X851720Y366200D01*
X851783Y366270D01*
X851860Y366340D01*
X851945Y366411D01*
X852043Y366474D01*
X852057Y366481D01*
X852093Y366502D01*
X852149Y366523D01*
X852226Y366558D01*
X852318Y366587D01*
X852423Y366608D01*
X852543Y366629D01*
X852669Y366636D01*
X852733D01*
X852810Y366629D01*
X852895Y366615D01*
X853000Y366594D01*
X853106Y366566D01*
X853211Y366523D01*
X853310Y366467D01*
X853324Y366460D01*
X853352Y366439D01*
X853394Y366404D01*
X853450Y366347D01*
X853507Y366284D01*
X853570Y366207D01*
X853626Y366115D01*
X853669Y366010D01*
X853676Y366017D01*
X853690Y366038D01*
X853711Y366066D01*
X853746Y366108D01*
X853788Y366157D01*
X853837Y366207D01*
X853894Y366263D01*
X853964Y366326D01*
X854041Y366383D01*
X854119Y366439D01*
X854210Y366488D01*
X854309Y366537D01*
X854414Y366580D01*
X854527Y366608D01*
X854639Y366629D01*
X854766Y366636D01*
X854815D01*
X854850Y366629D01*
D02*
G37*
G36*
X898114Y368092D02*
X898170Y368078D01*
X898240Y368064D01*
X898325Y368043D01*
X898409Y368015D01*
X898494Y367994D01*
X898571Y367966D01*
X898578Y367959D01*
X898599Y367944D01*
X898613Y367923D01*
X898620Y367895D01*
Y367888D01*
X898613Y367860D01*
X898592Y367825D01*
X898557Y367797D01*
X898543Y367790D01*
X898508Y367776D01*
X898451Y367755D01*
X898381Y367726D01*
Y367283D01*
X900224D01*
X900513Y367600D01*
X900527Y367593D01*
X900555Y367572D01*
X900597Y367536D01*
X900661Y367494D01*
X900731Y367445D01*
X900801Y367396D01*
X900963Y367276D01*
X900970Y367269D01*
X900991Y367255D01*
X901012Y367227D01*
X901019Y367199D01*
Y367192D01*
Y367185D01*
X901012Y367142D01*
X900984Y367107D01*
X900963Y367093D01*
X900935Y367086D01*
X898381D01*
Y366488D01*
Y366481D01*
Y366453D01*
Y366418D01*
X898388Y366368D01*
X898402Y366270D01*
X898416Y366228D01*
X898437Y366186D01*
X898444Y366179D01*
X898472Y366150D01*
X898515Y366108D01*
X898585Y366073D01*
X898592D01*
X898606Y366066D01*
X898634Y366059D01*
X898677Y366045D01*
X898726Y366038D01*
X898796Y366024D01*
X898880Y366017D01*
X898979Y366010D01*
X898993D01*
X899035Y366003D01*
X899099Y365996D01*
X899183D01*
X899282Y365989D01*
X899394Y365981D01*
X899521Y365975D01*
X899781D01*
X899880Y365981D01*
X899985D01*
X900112Y365989D01*
X900238Y365996D01*
X900372Y366003D01*
X900421D01*
X900471Y366010D01*
X900534Y366017D01*
X900611Y366024D01*
X900689Y366038D01*
X900766Y366052D01*
X900844Y366073D01*
X900851D01*
X900872Y366080D01*
X900907Y366087D01*
X900942Y366094D01*
X901033Y366108D01*
X901076Y366115D01*
X901132D01*
X901174Y366108D01*
X901230Y366094D01*
X901294Y366066D01*
X901301Y366059D01*
X901322Y366024D01*
X901350Y365975D01*
X901364Y365897D01*
Y365890D01*
X901357Y365883D01*
X901350Y365862D01*
X901329Y365848D01*
X901322Y365841D01*
X901301Y365827D01*
X901266Y365813D01*
X901209Y365792D01*
X901202D01*
X901174Y365784D01*
X901132Y365778D01*
X901083Y365770D01*
X901012Y365763D01*
X900935Y365756D01*
X900844Y365749D01*
X900745Y365742D01*
X900696D01*
X900661Y365735D01*
X900618D01*
X900569Y365728D01*
X900443D01*
X900302Y365721D01*
X900140Y365714D01*
X899964Y365707D01*
X899598D01*
X899479Y365714D01*
X899331D01*
X899183Y365721D01*
X899028Y365728D01*
X898888Y365742D01*
X898874D01*
X898845Y365749D01*
X898796D01*
X898740Y365756D01*
X898620Y365778D01*
X898557Y365784D01*
X898508Y365799D01*
X898501D01*
X898480Y365806D01*
X898451Y365813D01*
X898416Y365827D01*
X898339Y365855D01*
X898304Y365876D01*
X898268Y365897D01*
X898261Y365904D01*
X898247Y365911D01*
X898205Y365953D01*
X898149Y366017D01*
X898128Y366052D01*
X898107Y366094D01*
Y366101D01*
X898100Y366115D01*
X898092Y366136D01*
X898085Y366171D01*
X898078Y366207D01*
X898071Y366256D01*
X898064Y366312D01*
Y366376D01*
Y368106D01*
X898078D01*
X898114Y368092D01*
D02*
G37*
G36*
X892204Y365728D02*
X892246Y365700D01*
X892302Y365665D01*
X892365Y365623D01*
X892429Y365573D01*
X892478Y365524D01*
X892520Y365482D01*
X892527Y365461D01*
X892534Y365440D01*
Y365426D01*
X892527Y365412D01*
X892513Y365397D01*
X892485Y365369D01*
X892457Y365341D01*
X892408Y365306D01*
X892344Y365264D01*
Y364581D01*
X892358Y364574D01*
X892386Y364553D01*
X892429Y364518D01*
X892478Y364476D01*
X892485D01*
X892492Y364469D01*
X892499Y364455D01*
X892506Y364441D01*
Y364434D01*
Y364427D01*
X892499Y364384D01*
X892485Y364349D01*
X892471Y364335D01*
X892450Y364328D01*
X890747D01*
Y364300D01*
Y364293D01*
X890740Y364265D01*
X890712Y364237D01*
X890698Y364223D01*
X890670Y364208D01*
X890663D01*
X890656Y364202D01*
X890613Y364194D01*
X890564Y364180D01*
X890515Y364173D01*
X890501D01*
X890473Y364180D01*
X890445Y364202D01*
X890438Y364223D01*
X890431Y364244D01*
Y365735D01*
X890832Y365531D01*
X892007D01*
X892189Y365735D01*
X892197D01*
X892204Y365728D01*
D02*
G37*
G36*
X900738Y365165D02*
X900766Y365151D01*
X900808Y365123D01*
X900865Y365088D01*
X900977Y365004D01*
X901026Y364947D01*
X901076Y364898D01*
X901083Y364891D01*
X901097Y364863D01*
X901111Y364835D01*
X901118Y364807D01*
Y364793D01*
X901104Y364778D01*
X901090Y364757D01*
X901062Y364729D01*
X901019Y364687D01*
X900956Y364645D01*
X900879Y364588D01*
Y363209D01*
Y363202D01*
Y363188D01*
Y363167D01*
Y363132D01*
Y363048D01*
Y362949D01*
X900886Y362836D01*
Y362738D01*
X900893Y362640D01*
X900900Y362604D01*
Y362569D01*
Y362562D01*
Y362541D01*
Y362506D01*
X900907Y362457D01*
Y362358D01*
Y362260D01*
Y362253D01*
Y362245D01*
X900900Y362210D01*
X900879Y362161D01*
X900844Y362112D01*
X900836D01*
X900829Y362105D01*
X900794Y362098D01*
X900745Y362084D01*
X900703Y362077D01*
X900682D01*
X900632Y362091D01*
X900583Y362112D01*
X900569Y362133D01*
X900562Y362161D01*
Y362428D01*
X898444D01*
Y362161D01*
Y362147D01*
X898430Y362119D01*
X898409Y362105D01*
X898388Y362091D01*
X898353Y362084D01*
X898304Y362077D01*
X898297D01*
X898268Y362084D01*
X898219Y362091D01*
X898163Y362112D01*
X898149Y362126D01*
X898128Y362154D01*
X898107Y362203D01*
X898092Y362260D01*
Y362267D01*
Y362281D01*
Y362309D01*
Y362344D01*
X898100Y362386D01*
Y362443D01*
Y362499D01*
X898107Y362569D01*
Y362576D01*
X898114Y362604D01*
X898121Y362646D01*
X898128Y362710D01*
X898135Y362794D01*
X898142Y362907D01*
Y362970D01*
X898149Y363041D01*
Y363125D01*
Y363209D01*
Y364729D01*
Y364743D01*
Y364771D01*
Y364821D01*
X898142Y364884D01*
X898135Y364954D01*
X898128Y365025D01*
X898114Y365102D01*
X898092Y365172D01*
X898494Y364884D01*
X900513D01*
X900731Y365172D01*
X900738Y365165D01*
D02*
G37*
G36*
X892837Y365383D02*
X892851Y365362D01*
X892879Y365334D01*
X892914Y365292D01*
X892949Y365243D01*
X892992Y365187D01*
X893076Y365067D01*
X893083Y365060D01*
X893097Y365039D01*
X893118Y365011D01*
X893146Y364975D01*
X893210Y364884D01*
X893266Y364778D01*
X893273Y364771D01*
X893280Y364757D01*
X893294Y364729D01*
X893315Y364694D01*
X893350Y364609D01*
X893379Y364525D01*
Y364518D01*
X893386Y364511D01*
X893400Y364469D01*
X893407Y364406D01*
X893414Y364328D01*
Y364321D01*
Y364307D01*
X893407Y364265D01*
X893400Y364202D01*
X893379Y364145D01*
X893372Y364131D01*
X893343Y364103D01*
X893301Y364075D01*
X893273Y364068D01*
X893245Y364061D01*
X893238D01*
X893224Y364068D01*
X893203Y364082D01*
X893189Y364103D01*
X893182Y364110D01*
X893175Y364138D01*
X893167Y364159D01*
X893153Y364187D01*
X893146Y364230D01*
X893139Y364279D01*
Y364286D01*
X893132Y364307D01*
X893125Y364349D01*
X893118Y364391D01*
X893104Y364448D01*
X893083Y364511D01*
X893048Y364638D01*
Y364645D01*
X893034Y364666D01*
X893020Y364701D01*
X893006Y364743D01*
X892984Y364799D01*
X892956Y364856D01*
X892907Y364975D01*
Y364982D01*
X892893Y365004D01*
X892879Y365032D01*
X892858Y365074D01*
X892830Y365123D01*
X892802Y365187D01*
X892717Y365313D01*
X892830Y365391D01*
X892837Y365383D01*
D02*
G37*
G36*
X878892Y363027D02*
X878294D01*
Y367895D01*
X878892D01*
Y363027D01*
D02*
G37*
G36*
X877393D02*
X876795D01*
Y366558D01*
X877393D01*
Y363027D01*
D02*
G37*
G36*
X866298D02*
X865615D01*
Y363709D01*
X866298D01*
Y363027D01*
D02*
G37*
G36*
X864687Y367360D02*
X864679Y367354D01*
X864665Y367339D01*
X864637Y367311D01*
X864609Y367269D01*
X864567Y367220D01*
X864511Y367164D01*
X864454Y367093D01*
X864391Y367009D01*
X864328Y366924D01*
X864250Y366826D01*
X864173Y366713D01*
X864096Y366601D01*
X864011Y366474D01*
X863927Y366340D01*
X863842Y366193D01*
X863758Y366045D01*
X863751Y366038D01*
X863737Y366010D01*
X863716Y365967D01*
X863680Y365904D01*
X863645Y365827D01*
X863603Y365742D01*
X863554Y365644D01*
X863504Y365531D01*
X863448Y365405D01*
X863385Y365278D01*
X863329Y365137D01*
X863272Y364990D01*
X863160Y364687D01*
X863054Y364363D01*
Y364356D01*
X863047Y364335D01*
X863040Y364300D01*
X863026Y364258D01*
X863012Y364202D01*
X862998Y364131D01*
X862977Y364054D01*
X862963Y363969D01*
X862942Y363871D01*
X862921Y363765D01*
X862885Y363540D01*
X862850Y363294D01*
X862829Y363027D01*
X862217D01*
Y363033D01*
Y363055D01*
Y363083D01*
X862224Y363125D01*
Y363181D01*
X862231Y363252D01*
X862238Y363329D01*
X862245Y363413D01*
X862259Y363512D01*
X862273Y363610D01*
X862294Y363730D01*
X862316Y363850D01*
X862337Y363976D01*
X862365Y364117D01*
X862435Y364406D01*
Y364412D01*
X862442Y364441D01*
X862456Y364483D01*
X862477Y364546D01*
X862498Y364617D01*
X862526Y364701D01*
X862555Y364799D01*
X862597Y364905D01*
X862639Y365025D01*
X862681Y365144D01*
X862787Y365412D01*
X862914Y365693D01*
X863054Y365975D01*
X863061Y365981D01*
X863075Y366010D01*
X863096Y366045D01*
X863125Y366101D01*
X863160Y366164D01*
X863209Y366242D01*
X863258Y366326D01*
X863315Y366418D01*
X863448Y366622D01*
X863589Y366833D01*
X863751Y367051D01*
X863920Y367255D01*
X861535D01*
Y367832D01*
X864687D01*
Y367360D01*
D02*
G37*
G36*
X858840Y363027D02*
X858242D01*
Y367895D01*
X858840D01*
Y363027D01*
D02*
G37*
G36*
X857341D02*
X856743D01*
Y366558D01*
X857341D01*
Y363027D01*
D02*
G37*
G36*
X868859Y367909D02*
X868915Y367902D01*
X868978Y367895D01*
X869049Y367888D01*
X869119Y367867D01*
X869288Y367825D01*
X869457Y367762D01*
X869541Y367719D01*
X869626Y367670D01*
X869703Y367607D01*
X869781Y367543D01*
X869788Y367536D01*
X869794Y367529D01*
X869816Y367508D01*
X869844Y367480D01*
X869872Y367438D01*
X869907Y367396D01*
X869977Y367290D01*
X870048Y367156D01*
X870111Y367002D01*
X870160Y366826D01*
X870167Y366734D01*
X870174Y366636D01*
Y366629D01*
Y366622D01*
Y366580D01*
X870167Y366516D01*
X870153Y366439D01*
X870132Y366340D01*
X870097Y366242D01*
X870055Y366143D01*
X869992Y366045D01*
X869985Y366031D01*
X869956Y366003D01*
X869914Y365960D01*
X869858Y365904D01*
X869781Y365841D01*
X869689Y365778D01*
X869584Y365714D01*
X869457Y365658D01*
X869464D01*
X869478Y365651D01*
X869499Y365644D01*
X869527Y365630D01*
X869612Y365594D01*
X869710Y365545D01*
X869816Y365475D01*
X869928Y365397D01*
X870034Y365299D01*
X870132Y365187D01*
Y365179D01*
X870139Y365172D01*
X870167Y365130D01*
X870210Y365060D01*
X870252Y364968D01*
X870294Y364856D01*
X870336Y364722D01*
X870364Y364574D01*
X870371Y364412D01*
Y364406D01*
Y364384D01*
Y364349D01*
X870364Y364307D01*
X870357Y364258D01*
X870350Y364194D01*
X870336Y364124D01*
X870315Y364047D01*
X870266Y363885D01*
X870231Y363793D01*
X870182Y363709D01*
X870132Y363618D01*
X870076Y363533D01*
X870006Y363449D01*
X869928Y363364D01*
X869921Y363357D01*
X869907Y363343D01*
X869886Y363322D01*
X869851Y363301D01*
X869802Y363266D01*
X869752Y363231D01*
X869689Y363195D01*
X869619Y363153D01*
X869541Y363111D01*
X869450Y363076D01*
X869351Y363041D01*
X869253Y363005D01*
X869140Y362984D01*
X869021Y362963D01*
X868901Y362949D01*
X868767Y362942D01*
X868697D01*
X868648Y362949D01*
X868584Y362956D01*
X868514Y362963D01*
X868437Y362977D01*
X868352Y362998D01*
X868162Y363048D01*
X868064Y363083D01*
X867972Y363118D01*
X867874Y363167D01*
X867775Y363223D01*
X867684Y363287D01*
X867599Y363364D01*
X867592Y363371D01*
X867578Y363385D01*
X867557Y363406D01*
X867529Y363442D01*
X867501Y363484D01*
X867459Y363533D01*
X867423Y363589D01*
X867381Y363660D01*
X867339Y363730D01*
X867304Y363815D01*
X867234Y363990D01*
X867205Y364096D01*
X867184Y364202D01*
X867170Y364314D01*
X867163Y364427D01*
Y364434D01*
Y364448D01*
Y364476D01*
X867170Y364504D01*
Y364546D01*
X867177Y364595D01*
X867191Y364708D01*
X867219Y364835D01*
X867262Y364961D01*
X867325Y365095D01*
X867402Y365222D01*
Y365229D01*
X867416Y365236D01*
X867445Y365271D01*
X867501Y365327D01*
X867578Y365397D01*
X867677Y365468D01*
X867796Y365545D01*
X867930Y365609D01*
X868092Y365658D01*
X868085D01*
X868078Y365665D01*
X868057Y365672D01*
X868028Y365686D01*
X867965Y365714D01*
X867881Y365756D01*
X867789Y365813D01*
X867698Y365883D01*
X867613Y365960D01*
X867536Y366045D01*
X867529Y366059D01*
X867508Y366087D01*
X867480Y366143D01*
X867452Y366214D01*
X867416Y366305D01*
X867388Y366411D01*
X867367Y366530D01*
X867360Y366657D01*
Y366664D01*
Y366678D01*
Y366706D01*
X867367Y366748D01*
X867374Y366791D01*
X867381Y366847D01*
X867409Y366967D01*
X867452Y367107D01*
X867522Y367255D01*
X867564Y367332D01*
X867613Y367410D01*
X867677Y367480D01*
X867740Y367551D01*
X867747Y367557D01*
X867761Y367565D01*
X867782Y367586D01*
X867810Y367607D01*
X867846Y367635D01*
X867895Y367663D01*
X867951Y367698D01*
X868007Y367733D01*
X868078Y367769D01*
X868155Y367804D01*
X868240Y367832D01*
X868331Y367860D01*
X868528Y367902D01*
X868641Y367909D01*
X868753Y367916D01*
X868817D01*
X868859Y367909D01*
D02*
G37*
G36*
X859797Y362942D02*
X859318D01*
X860732Y367980D01*
X861211D01*
X859797Y362942D01*
D02*
G37*
G36*
X891936Y364293D02*
X891971Y364279D01*
X892021Y364258D01*
X892084Y364223D01*
X892154Y364187D01*
X892232Y364145D01*
X892309Y364096D01*
X892379Y364047D01*
X892386Y364040D01*
X892401Y364026D01*
X892415Y364005D01*
X892422Y363976D01*
Y363969D01*
X892415Y363955D01*
X892393Y363941D01*
X892358Y363920D01*
X892351D01*
X892337Y363913D01*
X892323Y363906D01*
X892295Y363899D01*
X892225Y363885D01*
X892154Y363878D01*
Y363871D01*
X892147Y363857D01*
X892140Y363829D01*
X892126Y363793D01*
X892098Y363702D01*
X892063Y363596D01*
Y363589D01*
X892056Y363568D01*
X892042Y363540D01*
X892028Y363505D01*
X891985Y363420D01*
X891943Y363329D01*
Y363322D01*
X891936Y363308D01*
X891922Y363280D01*
X891908Y363252D01*
X891866Y363167D01*
X891809Y363076D01*
X891803Y363069D01*
X891788Y363048D01*
X891767Y363012D01*
X891746Y362977D01*
X891753D01*
X891767Y362984D01*
X891796D01*
X891824Y362991D01*
X891866Y362998D01*
X891922Y363012D01*
X891978Y363027D01*
X892049Y363041D01*
X892119Y363055D01*
X892204Y363069D01*
X892379Y363111D01*
X892583Y363160D01*
X892802Y363209D01*
X892830Y363083D01*
X892823D01*
X892809Y363076D01*
X892781Y363069D01*
X892745Y363055D01*
X892696Y363041D01*
X892647Y363019D01*
X892520Y362977D01*
X892379Y362935D01*
X892225Y362886D01*
X892070Y362836D01*
X891915Y362794D01*
X891908D01*
X891894Y362787D01*
X891873Y362780D01*
X891845Y362773D01*
X891803Y362759D01*
X891760Y362752D01*
X891655Y362717D01*
X891528Y362689D01*
X891394Y362646D01*
X891106Y362576D01*
X891099D01*
X891092Y362569D01*
X891071D01*
X891043Y362562D01*
X890972Y362548D01*
X890874Y362527D01*
X890761Y362506D01*
X890635Y362478D01*
X890494Y362457D01*
X890346Y362428D01*
Y362421D01*
X890339Y362393D01*
X890325Y362351D01*
X890311Y362309D01*
X890297Y362267D01*
X890276Y362224D01*
X890262Y362196D01*
X890248Y362189D01*
X890234Y362196D01*
X890219Y362217D01*
X890184Y362253D01*
X890170Y362281D01*
X890149Y362316D01*
X890121Y362358D01*
X890093Y362414D01*
X890058Y362471D01*
X890023Y362541D01*
X889980Y362625D01*
X889931Y362717D01*
X889952D01*
X889980Y362724D01*
X890023D01*
X890065Y362731D01*
X890121Y362738D01*
X890241Y362752D01*
X890388Y362766D01*
X890543Y362780D01*
X890705Y362801D01*
X890867Y362822D01*
X890881D01*
X890909Y362830D01*
X890902Y362836D01*
Y362851D01*
X890895Y362872D01*
X890881Y362900D01*
X890874Y362928D01*
X890867Y362977D01*
X890853Y363027D01*
Y363033D01*
Y363041D01*
X890839Y363083D01*
X890832Y363139D01*
X890810Y363216D01*
X890789Y363301D01*
X890761Y363392D01*
X890733Y363484D01*
X890705Y363568D01*
X890698Y363582D01*
X890691Y363610D01*
X890670Y363653D01*
X890649Y363716D01*
X890613Y363786D01*
X890578Y363864D01*
X890487Y364033D01*
X890571Y364145D01*
X890578Y364138D01*
X890606Y364103D01*
X890649Y364061D01*
X890698Y363997D01*
X890754Y363927D01*
X890810Y363850D01*
X890867Y363765D01*
X890916Y363674D01*
X890923Y363667D01*
X890937Y363639D01*
X890958Y363603D01*
X890979Y363554D01*
X891008Y363498D01*
X891036Y363428D01*
X891085Y363287D01*
Y363280D01*
X891092Y363266D01*
X891099Y363238D01*
X891106Y363202D01*
X891120Y363118D01*
X891127Y363027D01*
Y363019D01*
Y363005D01*
X891120Y362963D01*
X891113Y362907D01*
X891085Y362858D01*
X891099D01*
X891127Y362865D01*
X891169Y362872D01*
X891233Y362879D01*
X891310Y362893D01*
X891387Y362907D01*
X891479Y362928D01*
X891577Y362942D01*
X891584Y362949D01*
X891591Y362977D01*
X891606Y363012D01*
X891620Y363055D01*
X891641Y363111D01*
X891662Y363167D01*
X891704Y363287D01*
Y363294D01*
X891711Y363315D01*
X891725Y363350D01*
X891739Y363399D01*
X891753Y363449D01*
X891767Y363512D01*
X891803Y363646D01*
Y363653D01*
X891809Y363681D01*
X891817Y363716D01*
X891831Y363765D01*
X891845Y363821D01*
X891859Y363878D01*
X891880Y363997D01*
Y364005D01*
X891887Y364026D01*
Y364061D01*
X891894Y364096D01*
X891908Y364194D01*
X891922Y364300D01*
X891936Y364293D01*
D02*
G37*
G36*
X884619Y363125D02*
X884647Y363111D01*
X884689Y363083D01*
X884753Y363048D01*
X884816Y363005D01*
X884893Y362963D01*
X885034Y362865D01*
X885041Y362858D01*
X885048Y362851D01*
X885055Y362830D01*
Y362794D01*
Y362787D01*
X885041Y362773D01*
X885027Y362759D01*
X884999Y362752D01*
X884971Y362745D01*
X884732D01*
X884717Y362738D01*
X884689Y362717D01*
X884640Y362682D01*
X884570Y362640D01*
X884492Y362590D01*
X884401Y362541D01*
X884302Y362485D01*
X884197Y362443D01*
X884183Y362435D01*
X884148Y362421D01*
X884098Y362393D01*
X884028Y362365D01*
X883943Y362330D01*
X883852Y362288D01*
X883655Y362210D01*
X883641Y362203D01*
X883599Y362189D01*
X883535Y362168D01*
X883451Y362140D01*
X883353Y362112D01*
X883247Y362077D01*
X883127Y362048D01*
X883008Y362020D01*
X882930Y362161D01*
X882937D01*
X882952Y362168D01*
X882980Y362175D01*
X883015Y362189D01*
X883050Y362203D01*
X883099Y362224D01*
X883212Y362267D01*
X883345Y362316D01*
X883479Y362372D01*
X883620Y362435D01*
X883746Y362499D01*
X883754D01*
X883761Y362506D01*
X883803Y362527D01*
X883866Y362555D01*
X883936Y362597D01*
X884021Y362646D01*
X884112Y362696D01*
X884197Y362745D01*
X884274Y362801D01*
X884281Y362808D01*
X884309Y362830D01*
X884345Y362858D01*
X884387Y362900D01*
X884436Y362949D01*
X884492Y363005D01*
X884605Y363132D01*
X884619Y363125D01*
D02*
G37*
G36*
X886054Y363097D02*
X886082Y363090D01*
X886160Y363069D01*
X886251Y363048D01*
X886364Y363012D01*
X886490Y362977D01*
X886624Y362928D01*
X886765Y362879D01*
X886772D01*
X886779Y362872D01*
X886800Y362865D01*
X886828Y362851D01*
X886899Y362822D01*
X886976Y362787D01*
X887075Y362745D01*
X887166Y362703D01*
X887257Y362654D01*
X887335Y362611D01*
X887342Y362604D01*
X887363Y362590D01*
X887398Y362569D01*
X887440Y362548D01*
X887525Y362485D01*
X887560Y362457D01*
X887588Y362428D01*
X887595Y362421D01*
X887602Y362414D01*
X887630Y362372D01*
X887673Y362316D01*
X887708Y362260D01*
X887715Y362245D01*
X887729Y362217D01*
X887736Y362182D01*
X887743Y362133D01*
Y362126D01*
Y362112D01*
X887729Y362063D01*
X887715Y362034D01*
X887694Y362013D01*
X887665Y361999D01*
X887630Y361992D01*
X887623D01*
X887602Y361999D01*
X887567Y362013D01*
X887525Y362048D01*
X887518Y362056D01*
X887483Y362077D01*
X887433Y362119D01*
X887370Y362175D01*
X887363Y362182D01*
X887342Y362196D01*
X887314Y362224D01*
X887279Y362253D01*
X887180Y362330D01*
X887082Y362407D01*
X887075Y362414D01*
X887053Y362428D01*
X887011Y362449D01*
X886962Y362478D01*
X886899Y362513D01*
X886828Y362548D01*
X886751Y362590D01*
X886659Y362640D01*
X886645Y362646D01*
X886610Y362668D01*
X886554Y362703D01*
X886469Y362745D01*
X886364Y362801D01*
X886237Y362865D01*
X886089Y362935D01*
X885928Y363012D01*
X886019Y363104D01*
X886033D01*
X886054Y363097D01*
D02*
G37*
%LPC*%
G36*
X237988Y250247D02*
X235976D01*
Y249996D01*
X235724D01*
Y249744D01*
X235221D01*
Y249493D01*
X234970D01*
Y248990D01*
X234718D01*
Y248738D01*
X234467D01*
Y248235D01*
X234215D01*
Y247984D01*
X233964D01*
Y247481D01*
X233712D01*
Y246978D01*
X233461D01*
Y246726D01*
X233209D01*
Y246223D01*
X232958D01*
Y245720D01*
X232706D01*
Y245217D01*
X232455D01*
Y244966D01*
X232203D01*
Y244463D01*
X231952D01*
Y243960D01*
X231700D01*
Y243708D01*
X231449D01*
Y243205D01*
X231197D01*
Y242702D01*
X230946D01*
Y242199D01*
X230694D01*
Y241947D01*
X230443D01*
Y241444D01*
X230191D01*
Y240941D01*
X229940D01*
Y240438D01*
X229688D01*
Y240187D01*
X229437D01*
Y239684D01*
X229185D01*
Y239181D01*
X228934D01*
Y238929D01*
X228682D01*
Y238426D01*
X228431D01*
Y237923D01*
X228179D01*
Y237672D01*
X227928D01*
Y237169D01*
X227676D01*
Y236666D01*
X227425D01*
Y236163D01*
X227173D01*
Y235911D01*
X226922D01*
Y235408D01*
X226670D01*
Y234905D01*
X226419D01*
Y234402D01*
X226167D01*
Y234151D01*
X225916D01*
Y233648D01*
X225664D01*
Y233145D01*
X225413D01*
Y232642D01*
X225161D01*
Y232390D01*
X224909D01*
Y231887D01*
X224658D01*
Y231384D01*
X224407D01*
Y231133D01*
X224155D01*
Y230630D01*
X223904D01*
Y230126D01*
X223652D01*
Y229875D01*
X223400D01*
Y229372D01*
X223149D01*
Y228869D01*
X222897D01*
Y228617D01*
X222646D01*
Y228114D01*
X222394D01*
Y227611D01*
X222143D01*
Y227108D01*
X221891D01*
Y226605D01*
X221640D01*
Y226354D01*
X221388D01*
Y225851D01*
X221137D01*
Y225348D01*
X220885D01*
Y224845D01*
X220634D01*
Y224593D01*
X220382D01*
Y224090D01*
X220131D01*
Y223587D01*
X219879D01*
Y223336D01*
X219628D01*
Y222833D01*
X219376D01*
Y222330D01*
X219125D01*
Y222078D01*
X218873D01*
Y221575D01*
X218622D01*
Y221072D01*
X218370D01*
Y220821D01*
X218119D01*
Y220318D01*
X217867D01*
Y219815D01*
X217616D01*
Y219312D01*
X217364D01*
Y218809D01*
X217113D01*
Y218557D01*
X216861D01*
Y218054D01*
X216610D01*
Y217551D01*
X216358D01*
Y217299D01*
X216107D01*
Y216796D01*
X215855D01*
Y216293D01*
X215604D01*
Y215790D01*
X215352D01*
Y215539D01*
X215101D01*
Y215036D01*
X214849D01*
Y214030D01*
X214598D01*
Y213275D01*
X214849D01*
Y212521D01*
X215101D01*
Y212269D01*
X215352D01*
Y212018D01*
X215604D01*
Y211766D01*
X215855D01*
Y211515D01*
X216610D01*
Y211263D01*
X257354D01*
Y211515D01*
X257857D01*
Y211766D01*
X258360D01*
Y212018D01*
X258612D01*
Y212269D01*
X258863D01*
Y212521D01*
X259115D01*
Y213527D01*
X259366D01*
Y213778D01*
X259115D01*
Y214784D01*
X258863D01*
Y215539D01*
X258612D01*
Y215790D01*
X258360D01*
Y216293D01*
X258109D01*
Y216796D01*
X257857D01*
Y217048D01*
X257606D01*
Y217551D01*
X257354D01*
Y218054D01*
X257103D01*
Y218557D01*
X256851D01*
Y218809D01*
X256600D01*
Y219312D01*
X256348D01*
Y219815D01*
X256097D01*
Y220318D01*
X255845D01*
Y220821D01*
X255594D01*
Y221072D01*
X255342D01*
Y221575D01*
X255091D01*
Y222078D01*
X254839D01*
Y222330D01*
X254588D01*
Y222833D01*
X254336D01*
Y223336D01*
X254085D01*
Y223587D01*
X253833D01*
Y224090D01*
X253582D01*
Y224593D01*
X253330D01*
Y224845D01*
X253079D01*
Y225348D01*
X252827D01*
Y225851D01*
X252576D01*
Y226354D01*
X252324D01*
Y226605D01*
X252073D01*
Y227108D01*
X251821D01*
Y227611D01*
X251570D01*
Y228114D01*
X251318D01*
Y228366D01*
X251067D01*
Y228869D01*
X250815D01*
Y229372D01*
X250564D01*
Y229875D01*
X250312D01*
Y230126D01*
X250061D01*
Y230630D01*
X249809D01*
Y231133D01*
X249557D01*
Y231384D01*
X249306D01*
Y231887D01*
X249055D01*
Y232390D01*
X248803D01*
Y232642D01*
X248551D01*
Y233145D01*
X248300D01*
Y233648D01*
X248048D01*
Y234151D01*
X247797D01*
Y234402D01*
X247545D01*
Y234905D01*
X247294D01*
Y235408D01*
X247042D01*
Y235911D01*
X246791D01*
Y236163D01*
X246539D01*
Y236666D01*
X246288D01*
Y237169D01*
X246036D01*
Y237420D01*
X245785D01*
Y237923D01*
X245533D01*
Y238426D01*
X245282D01*
Y238929D01*
X245030D01*
Y239181D01*
X244779D01*
Y239684D01*
X244527D01*
Y240187D01*
X244276D01*
Y240438D01*
X244024D01*
Y240941D01*
X243773D01*
Y241444D01*
X243521D01*
Y241947D01*
X243270D01*
Y242199D01*
X243018D01*
Y242702D01*
X242767D01*
Y243205D01*
X242515D01*
Y243708D01*
X242264D01*
Y243960D01*
X242012D01*
Y244463D01*
X241761D01*
Y244966D01*
X241509D01*
Y245217D01*
X241258D01*
Y245720D01*
X241006D01*
Y246223D01*
X240755D01*
Y246475D01*
X240503D01*
Y246978D01*
X240252D01*
Y247481D01*
X240000D01*
Y247984D01*
X239749D01*
Y248235D01*
X239497D01*
Y248738D01*
X239246D01*
Y248990D01*
X238994D01*
Y249493D01*
X238743D01*
Y249744D01*
X238240D01*
Y249996D01*
X237988D01*
Y250247D01*
D02*
G37*
%LPD*%
G36*
X245030Y234402D02*
X244779D01*
Y234151D01*
X244276D01*
Y233899D01*
X244024D01*
Y233648D01*
X243773D01*
Y233396D01*
X243521D01*
Y233145D01*
X243270D01*
Y232893D01*
X243018D01*
Y232642D01*
X242767D01*
Y232390D01*
X242515D01*
Y232139D01*
X242264D01*
Y231887D01*
X242012D01*
Y231636D01*
X241761D01*
Y231384D01*
X241509D01*
Y231133D01*
X241258D01*
Y230881D01*
X241006D01*
Y230630D01*
X240755D01*
Y230378D01*
X240503D01*
Y230126D01*
X240252D01*
Y229875D01*
X240000D01*
Y229624D01*
X239749D01*
Y229372D01*
X239497D01*
Y229120D01*
X239246D01*
Y228869D01*
X238994D01*
Y228617D01*
X238743D01*
Y228366D01*
X238491D01*
Y228114D01*
X237988D01*
Y227611D01*
X246791D01*
Y227360D01*
X246539D01*
Y227108D01*
X246288D01*
Y226857D01*
X246036D01*
Y226605D01*
X245785D01*
Y226354D01*
X245282D01*
Y226102D01*
X245030D01*
Y225851D01*
X244779D01*
Y225599D01*
X244527D01*
Y225348D01*
X244276D01*
Y225096D01*
X244024D01*
Y224845D01*
X243521D01*
Y224593D01*
X243270D01*
Y224342D01*
X243018D01*
Y224090D01*
X242767D01*
Y223839D01*
X242515D01*
Y223587D01*
X242264D01*
Y223336D01*
X242012D01*
Y223084D01*
X241509D01*
Y222833D01*
X241258D01*
Y222581D01*
X241006D01*
Y222330D01*
X240755D01*
Y222078D01*
X240503D01*
Y221827D01*
X240000D01*
Y221575D01*
X239749D01*
Y221324D01*
X239497D01*
Y221072D01*
X239246D01*
Y220821D01*
X238994D01*
Y220569D01*
X238743D01*
Y220318D01*
X238491D01*
Y220066D01*
X237988D01*
Y219815D01*
X237736D01*
Y219563D01*
X237485D01*
Y219312D01*
X237234D01*
Y219060D01*
X236982D01*
Y218809D01*
X236730D01*
Y218557D01*
X236227D01*
Y218305D01*
X235976D01*
Y218054D01*
X235724D01*
Y217803D01*
X235473D01*
Y217551D01*
X235221D01*
Y217299D01*
X234970D01*
Y217048D01*
X234467D01*
Y216796D01*
X234215D01*
Y216545D01*
X233964D01*
Y216293D01*
X233712D01*
Y216042D01*
X233461D01*
Y215790D01*
X233209D01*
Y215539D01*
X232958D01*
Y215287D01*
X232455D01*
Y215036D01*
X232203D01*
Y214784D01*
X231952D01*
Y214533D01*
X231700D01*
Y214281D01*
X231449D01*
Y214030D01*
X230946D01*
Y213778D01*
X230694D01*
Y213527D01*
X230443D01*
Y214030D01*
X230694D01*
Y214281D01*
X230946D01*
Y214784D01*
X231197D01*
Y215287D01*
X231449D01*
Y215790D01*
X231700D01*
Y216042D01*
X231952D01*
Y216545D01*
X232203D01*
Y217048D01*
X232455D01*
Y217551D01*
X232706D01*
Y217803D01*
X232958D01*
Y218305D01*
X233209D01*
Y218809D01*
X233461D01*
Y219060D01*
X233712D01*
Y219563D01*
X233964D01*
Y220066D01*
X234215D01*
Y220569D01*
X234467D01*
Y220821D01*
X234718D01*
Y221324D01*
X234970D01*
Y221827D01*
X235221D01*
Y222330D01*
X235473D01*
Y222833D01*
X235724D01*
Y223084D01*
X235976D01*
Y223587D01*
X236227D01*
Y224090D01*
X226922D01*
Y224342D01*
X227173D01*
Y224593D01*
X227425D01*
Y224845D01*
X227676D01*
Y225096D01*
X227928D01*
Y225348D01*
X228179D01*
Y225851D01*
X228431D01*
Y226102D01*
X228682D01*
Y226354D01*
X228934D01*
Y226605D01*
X229185D01*
Y226857D01*
X229437D01*
Y227108D01*
X229688D01*
Y227611D01*
X229940D01*
Y227863D01*
X230191D01*
Y228114D01*
X230443D01*
Y228366D01*
X230694D01*
Y228617D01*
X230946D01*
Y229120D01*
X231197D01*
Y229372D01*
X231449D01*
Y229624D01*
X231700D01*
Y229875D01*
X231952D01*
Y230126D01*
X232203D01*
Y230630D01*
X232455D01*
Y230881D01*
X232706D01*
Y231133D01*
X232958D01*
Y231384D01*
X233209D01*
Y231636D01*
X233461D01*
Y231887D01*
X233712D01*
Y232139D01*
X233964D01*
Y232642D01*
X234215D01*
Y232893D01*
X234467D01*
Y233145D01*
X234718D01*
Y233396D01*
X234970D01*
Y233899D01*
X235221D01*
Y234151D01*
X235473D01*
Y234402D01*
X235724D01*
Y234654D01*
X245030D01*
Y234402D01*
D02*
G37*
G36*
X230443Y213275D02*
X230191D01*
Y213527D01*
X230443D01*
Y213275D01*
D02*
G37*
%LPC*%
G36*
X897143Y367649D02*
X895919D01*
Y366474D01*
X895932D01*
X895975Y366467D01*
X896031Y366460D01*
X896108Y366453D01*
X896193Y366439D01*
X896284Y366425D01*
X896383Y366411D01*
X896474Y366390D01*
X896488D01*
X896524Y366376D01*
X896580Y366361D01*
X896643Y366347D01*
X896784Y366298D01*
X896854Y366263D01*
X896910Y366235D01*
X896917Y366228D01*
X896939Y366221D01*
X896967Y366200D01*
X897002Y366179D01*
X897072Y366115D01*
X897101Y366080D01*
X897122Y366038D01*
X897129Y366024D01*
X897143Y365996D01*
Y367649D01*
D02*
G37*
G36*
X895919Y366277D02*
Y365609D01*
Y365602D01*
Y365588D01*
Y365559D01*
Y365524D01*
Y365482D01*
Y365433D01*
Y365306D01*
X895911Y365165D01*
X895904Y365011D01*
X895897Y364849D01*
X895890Y364687D01*
X895904D01*
X895932Y364694D01*
X895975Y364708D01*
X896031Y364722D01*
X896094Y364736D01*
X896165Y364757D01*
X896312Y364807D01*
X896320D01*
X896348Y364821D01*
X896383Y364828D01*
X896439Y364849D01*
X896495Y364870D01*
X896566Y364905D01*
X896728Y364975D01*
X896735Y364982D01*
X896763Y364990D01*
X896798Y365011D01*
X896847Y365032D01*
X896910Y365067D01*
X896981Y365102D01*
X897058Y365144D01*
X897143Y365193D01*
Y365806D01*
X897136Y365792D01*
X897122Y365770D01*
X897086Y365749D01*
X897030Y365735D01*
X897023D01*
X897009Y365742D01*
X896974Y365756D01*
X896917Y365784D01*
X896904Y365792D01*
X896868Y365820D01*
X896805Y365855D01*
X896728Y365904D01*
X896636Y365953D01*
X896538Y366017D01*
X896425Y366073D01*
X896305Y366129D01*
X896298Y366136D01*
X896270Y366143D01*
X896228Y366164D01*
X896179Y366186D01*
X896115Y366214D01*
X896052Y366235D01*
X895919Y366277D01*
D02*
G37*
G36*
X886434Y366488D02*
X884387D01*
Y365918D01*
X886434D01*
Y366488D01*
D02*
G37*
G36*
Y365735D02*
X884387D01*
Y365151D01*
X886434D01*
Y365735D01*
D02*
G37*
G36*
Y364968D02*
X884387D01*
Y364300D01*
X886434D01*
Y364968D01*
D02*
G37*
G36*
Y364117D02*
X884387D01*
Y363561D01*
X886434D01*
Y364117D01*
D02*
G37*
G36*
X848750Y365658D02*
X848708D01*
X848680Y365651D01*
X848610Y365644D01*
X848511Y365623D01*
X848406Y365588D01*
X848286Y365531D01*
X848174Y365461D01*
X848061Y365362D01*
X848047Y365348D01*
X848019Y365313D01*
X847970Y365250D01*
X847920Y365158D01*
X847871Y365053D01*
X847822Y364919D01*
X847794Y364771D01*
X847779Y364603D01*
Y364588D01*
Y364553D01*
X847786Y364490D01*
X847794Y364412D01*
X847808Y364321D01*
X847836Y364223D01*
X847864Y364117D01*
X847906Y364011D01*
X847913Y363997D01*
X847934Y363962D01*
X847962Y363913D01*
X848005Y363850D01*
X848054Y363786D01*
X848117Y363709D01*
X848188Y363646D01*
X848272Y363582D01*
X848286Y363575D01*
X848314Y363561D01*
X848363Y363533D01*
X848427Y363512D01*
X848497Y363484D01*
X848582Y363456D01*
X848673Y363442D01*
X848772Y363435D01*
X848807D01*
X848835Y363442D01*
X848905Y363449D01*
X848997Y363470D01*
X849095Y363512D01*
X849208Y363561D01*
X849320Y363639D01*
X849377Y363681D01*
X849426Y363737D01*
Y363744D01*
X849440Y363751D01*
X849468Y363793D01*
X849510Y363864D01*
X849567Y363955D01*
X849616Y364075D01*
X849658Y364216D01*
X849686Y364377D01*
X849700Y364567D01*
Y364574D01*
Y364588D01*
Y364617D01*
X849693Y364652D01*
Y364694D01*
X849686Y364743D01*
X849665Y364856D01*
X849637Y364982D01*
X849588Y365116D01*
X849517Y365243D01*
X849426Y365362D01*
X849412Y365376D01*
X849377Y365412D01*
X849320Y365454D01*
X849243Y365510D01*
X849145Y365566D01*
X849032Y365609D01*
X848898Y365644D01*
X848750Y365658D01*
D02*
G37*
G36*
X892028Y365341D02*
X890747D01*
Y364511D01*
X892028D01*
Y365341D01*
D02*
G37*
G36*
X900562Y364701D02*
X898444D01*
Y363800D01*
X900562D01*
Y364701D01*
D02*
G37*
G36*
Y363618D02*
X898444D01*
Y362604D01*
X900562D01*
Y363618D01*
D02*
G37*
G36*
X868767Y367424D02*
X868711D01*
X868648Y367410D01*
X868563Y367396D01*
X868472Y367368D01*
X868373Y367332D01*
X868282Y367276D01*
X868190Y367199D01*
X868183Y367192D01*
X868155Y367164D01*
X868120Y367114D01*
X868085Y367051D01*
X868043Y366974D01*
X868007Y366882D01*
X867979Y366784D01*
X867972Y366671D01*
Y366664D01*
Y366657D01*
X867979Y366615D01*
X867986Y366551D01*
X868000Y366474D01*
X868028Y366383D01*
X868064Y366291D01*
X868120Y366193D01*
X868190Y366108D01*
X868197Y366101D01*
X868233Y366073D01*
X868282Y366038D01*
X868345Y366003D01*
X868430Y365960D01*
X868528Y365925D01*
X868641Y365897D01*
X868767Y365890D01*
X868781D01*
X868824Y365897D01*
X868887Y365904D01*
X868971Y365918D01*
X869063Y365946D01*
X869154Y365981D01*
X869253Y366038D01*
X869337Y366108D01*
X869344Y366115D01*
X869372Y366150D01*
X869408Y366193D01*
X869450Y366256D01*
X869492Y366333D01*
X869527Y366425D01*
X869555Y366530D01*
X869562Y366643D01*
Y366650D01*
Y366657D01*
Y366699D01*
X869548Y366763D01*
X869534Y366840D01*
X869506Y366924D01*
X869464Y367016D01*
X869408Y367107D01*
X869330Y367199D01*
X869323Y367206D01*
X869288Y367234D01*
X869239Y367269D01*
X869175Y367311D01*
X869091Y367354D01*
X868999Y367389D01*
X868887Y367417D01*
X868767Y367424D01*
D02*
G37*
G36*
X868746Y365405D02*
X868704D01*
X868676Y365397D01*
X868598Y365391D01*
X868500Y365369D01*
X868387Y365334D01*
X868275Y365285D01*
X868155Y365215D01*
X868050Y365123D01*
X868036Y365109D01*
X868007Y365074D01*
X867965Y365011D01*
X867916Y364933D01*
X867860Y364828D01*
X867818Y364708D01*
X867789Y364574D01*
X867775Y364427D01*
Y364412D01*
Y364384D01*
X867782Y364335D01*
X867789Y364272D01*
X867803Y364194D01*
X867824Y364110D01*
X867853Y364026D01*
X867888Y363934D01*
X867895Y363927D01*
X867909Y363892D01*
X867937Y363850D01*
X867979Y363800D01*
X868028Y363737D01*
X868092Y363674D01*
X868162Y363618D01*
X868247Y363561D01*
X868261Y363554D01*
X868289Y363540D01*
X868338Y363519D01*
X868401Y363498D01*
X868479Y363477D01*
X868570Y363456D01*
X868669Y363442D01*
X868767Y363435D01*
X868810D01*
X868838Y363442D01*
X868922Y363449D01*
X869021Y363470D01*
X869133Y363505D01*
X869253Y363547D01*
X869365Y363618D01*
X869478Y363709D01*
X869492Y363723D01*
X869520Y363758D01*
X869569Y363821D01*
X869619Y363899D01*
X869668Y363997D01*
X869717Y364117D01*
X869745Y364258D01*
X869759Y364406D01*
Y364412D01*
Y364427D01*
Y364448D01*
X869752Y364476D01*
X869745Y364553D01*
X869724Y364659D01*
X869689Y364764D01*
X869640Y364884D01*
X869569Y365004D01*
X869471Y365116D01*
X869457Y365130D01*
X869422Y365158D01*
X869358Y365208D01*
X869274Y365264D01*
X869168Y365313D01*
X869042Y365362D01*
X868901Y365391D01*
X868746Y365405D01*
D02*
G37*
%LPD*%
D10*
X745370Y447040D02*
G03*
X745370Y447040I-7500J0D01*
G01*
X697110D02*
G03*
X697110Y447040I-7500J0D01*
G01*
X493910Y204470D02*
G03*
X493910Y204470I-7500J0D01*
G01*
X520580Y274320D02*
G03*
X520580Y274320I-7500J0D01*
G01*
X523120Y218440D02*
G03*
X523120Y218440I-7500J0D01*
G01*
X519310Y252730D02*
G03*
X519310Y252730I-7500J0D01*
G01*
X581540Y259080D02*
G03*
X581540Y259080I-7500J0D01*
G01*
X243720Y447040D02*
G03*
X243720Y447040I-7500J0D01*
G01*
X207662Y470242D02*
G03*
X207662Y470242I-7500J0D01*
G01*
X168087Y486545D02*
G03*
X168087Y486545I-7500J0D01*
G01*
X147767D02*
G03*
X147767Y486545I-7500J0D01*
G01*
X410090Y450850D02*
G03*
X410090Y450850I-7500J0D01*
G01*
X460890Y415290D02*
G03*
X460890Y415290I-7500J0D01*
G01*
X392310Y118110D02*
G03*
X392310Y118110I-7500J0D01*
G01*
X488127Y232043D02*
G03*
X488127Y232043I-7500J0D01*
G01*
X719970Y236220D02*
G03*
X719970Y236220I-7500J0D01*
G01*
X520580Y303530D02*
G03*
X520580Y303530I-7500J0D01*
G01*
X518040Y347980D02*
G03*
X518040Y347980I-7500J0D01*
G01*
X642500Y554990D02*
G03*
X642500Y554990I-7500J0D01*
G01*
X594240Y537210D02*
G03*
X594240Y537210I-7500J0D01*
G01*
X556140Y490220D02*
G03*
X556140Y490220I-7500J0D01*
G01*
X594240D02*
G03*
X594240Y490220I-7500J0D01*
G01*
X619640D02*
G03*
X619640Y490220I-7500J0D01*
G01*
X642500Y537210D02*
G03*
X642500Y537210I-7500J0D01*
G01*
X687460Y477267D02*
G03*
X687460Y477267I-7500J0D01*
G01*
X337700Y556260D02*
G03*
X337700Y556260I-7500J0D01*
G01*
X299600Y538480D02*
G03*
X299600Y538480I-7500J0D01*
G01*
X222697Y556395D02*
G03*
X222697Y556395I-7500J0D01*
G01*
X139072Y565404D02*
G03*
X139072Y565404I-7500J0D01*
G01*
X675520Y67310D02*
G03*
X675520Y67310I-7500J0D01*
G01*
X454032Y286859D02*
X494032D01*
X454032Y246859D02*
Y286859D01*
Y246859D02*
X494032D01*
Y286859D01*
X499190Y537453D02*
X539190D01*
X499190Y497452D02*
Y537453D01*
Y497452D02*
X539190D01*
Y537453D01*
D11*
X443989Y418927D02*
G03*
X443989Y418927I-1501J0D01*
G01*
X388533D02*
G03*
X388533Y418927I-1501J0D01*
G01*
X284986D02*
G03*
X284986Y418927I-1501J0D01*
G01*
X336632D02*
G03*
X336632Y418927I-1501J0D01*
G01*
D12*
X253815Y268408D02*
G03*
X253815Y268408I-1250J0D01*
G01*
X128890Y272971D02*
G03*
X128890Y272971I-1250J0D01*
G01*
X208217Y507855D02*
G03*
X208217Y507855I-1250J0D01*
G01*
X194950Y432790D02*
G03*
X194950Y432790I-1250J0D01*
G01*
X449369Y528771D02*
G03*
X449369Y528745I-99J-13D01*
G01*
X443972Y289689D02*
G03*
X443972Y289689I-1250J0D01*
G01*
X253815Y122005D02*
G03*
X253815Y122005I-1250J0D01*
G01*
X128890Y125901D02*
G03*
X128890Y125901I-1250J0D01*
G01*
X494110Y135890D02*
G03*
X494110Y135890I-1250J0D01*
G01*
X475530Y197455D02*
G03*
X475530Y197455I-1250J0D01*
G01*
X521480Y235440D02*
G03*
X521480Y235440I-1250J0D01*
G01*
X549140Y320120D02*
G03*
X549140Y320120I-1250J0D01*
G01*
X650870Y493384D02*
G03*
X650870Y493384I-1250J0D01*
G01*
D13*
X399300Y358148D02*
G03*
X402398Y355050I3098J0D01*
G01*
X410398D02*
G03*
X413496Y358148I0J3098D01*
G01*
X402456Y383005D02*
G03*
X399358Y379907I-0J-3098D01*
G01*
X413554Y379907D02*
G03*
X410456Y383005I-3098J0D01*
G01*
X226131Y88178D02*
G03*
X226131Y88178I-12751J0D01*
G01*
X548632Y391680D02*
G03*
X551730Y394778I0J3098D01*
G01*
Y402778D02*
G03*
X548632Y405876I-3098J0D01*
G01*
X523775Y394836D02*
G03*
X526873Y391738I3098J-0D01*
G01*
Y405934D02*
G03*
X523775Y402836I0J-3098D01*
G01*
X720141Y516890D02*
G03*
X720141Y516890I-12751J0D01*
G01*
X316003Y152400D02*
X363728D01*
X378968Y167640D01*
Y342138D01*
X364318Y356788D02*
X378968Y342138D01*
X119144Y356788D02*
X364318D01*
X113193Y350754D02*
X119144Y356788D01*
X113193Y350754D02*
X114554Y156210D01*
X126064Y156291D01*
X546356Y185040D02*
Y205360D01*
X597156D01*
Y185040D02*
Y205360D01*
X546356Y185040D02*
X597156D01*
X546356D02*
Y205360D01*
X571756D01*
Y185040D02*
Y205360D01*
X546356Y185040D02*
X571756D01*
X617256Y177200D02*
Y213200D01*
X526256Y177200D02*
Y213200D01*
X617256D01*
X526256Y177200D02*
X617256D01*
X625060Y174913D02*
X716060D01*
X625060Y210913D02*
X716060D01*
X625060Y174913D02*
Y210913D01*
X716060Y174913D02*
Y210913D01*
X645160Y182753D02*
X670560D01*
Y203073D01*
X645160D02*
X670560D01*
X645160Y182753D02*
Y203073D01*
Y182753D02*
X695960D01*
Y203073D01*
X645160D02*
X695960D01*
X645160Y182753D02*
Y203073D01*
X631444Y219075D02*
X635000Y215519D01*
X645160D01*
X648716Y219075D01*
Y230505D01*
X631444Y219075D02*
Y230759D01*
X648716Y236601D02*
Y251333D01*
X631444Y236601D02*
Y251333D01*
X648716D01*
X366984Y477236D02*
X370540Y480792D01*
X366984Y467076D02*
Y477236D01*
Y467076D02*
X370540Y463520D01*
X381970D01*
X370540Y480792D02*
X382224D01*
X388066Y463520D02*
X402798D01*
X388066Y480792D02*
X402798D01*
X402798Y463520D02*
X402798Y480792D01*
X352115Y504551D02*
X372435D01*
X352115D02*
Y555351D01*
X372435D01*
Y504551D02*
Y555351D01*
X352115Y504551D02*
X372435D01*
X352115D02*
Y529951D01*
X372435D01*
Y504551D02*
Y529951D01*
X344275Y575451D02*
X380275D01*
X344275Y484451D02*
X380275D01*
X344275D02*
Y575451D01*
X380275Y484451D02*
Y575451D01*
X399358Y371907D02*
X399358Y379907D01*
X402456Y383005D02*
X410456D01*
X413554Y371907D02*
X413554Y379907D01*
X399300Y358148D02*
X399300Y366148D01*
X413496Y358148D02*
X413496Y366148D01*
X402397Y355050D02*
X410398Y355050D01*
X203373Y106187D02*
X222372D01*
X231389Y97170D01*
Y79186D02*
Y97170D01*
X221381Y69179D02*
X231389Y79186D01*
X204389Y69179D02*
X221381D01*
X195372Y78196D02*
X204389Y69179D01*
X195372Y78196D02*
Y98186D01*
X203373Y106187D01*
X226131Y113680D02*
X235082Y104729D01*
X238882Y76494D02*
Y99862D01*
X226131Y62676D02*
X235082Y71627D01*
X187879Y76494D02*
Y99862D01*
X191679Y71627D02*
X200630Y62676D01*
X191679Y104729D02*
X200630Y113680D01*
Y62676D02*
X226131D01*
X200630Y113680D02*
X226131D01*
X750444Y226060D02*
Y229870D01*
X729489Y171450D02*
X735839D01*
X732664Y168910D02*
Y173990D01*
X526874Y391738D02*
X534874D01*
X523775Y394836D02*
Y402836D01*
X526874Y405934D02*
X534874D01*
X540632Y391680D02*
X548632D01*
X540632Y405876D02*
X548632D01*
X551730Y394777D02*
Y402778D01*
X513715Y587655D02*
Y599238D01*
X508711D02*
X513715D01*
X508711D02*
Y622250D01*
X527211Y583239D02*
Y587739D01*
X518715Y583251D02*
Y587739D01*
X565214Y583239D02*
Y587739D01*
X527214Y587656D02*
X565217D01*
X513715Y587655D02*
X518719D01*
X573710Y583159D02*
Y587655D01*
X578714D01*
Y600736D01*
X583714Y600754D01*
X583717Y623266D01*
Y607239D02*
Y631394D01*
X578714Y607239D02*
X583717D01*
X578714D02*
Y631394D01*
Y638912D01*
X513715D02*
X578714D01*
X513715Y630683D02*
Y638912D01*
Y607239D02*
Y630683D01*
X508711Y607239D02*
X513715D01*
X508711D02*
Y630683D01*
X508714Y644239D02*
X583714D01*
Y583239D02*
Y644239D01*
X508714Y583239D02*
X508715Y644239D01*
X508714Y583239D02*
X583714D01*
X226010Y592991D02*
Y610600D01*
X315010Y632989D02*
Y648170D01*
X226010D02*
X315010D01*
X226010Y632989D02*
Y648170D01*
X315010Y592991D02*
Y610600D01*
X694639Y491388D02*
X720141D01*
X694639Y542392D02*
X720141D01*
Y491388D02*
X729091Y500339D01*
X720141Y542392D02*
X729091Y533441D01*
X732892Y505206D02*
Y528574D01*
X685688Y533441D02*
X694639Y542392D01*
X681888Y505206D02*
Y528574D01*
X685688Y500339D02*
X694639Y491388D01*
X717398Y498881D02*
X725399Y506882D01*
Y526872D01*
X716382Y535889D02*
X725399Y526872D01*
X699389Y535889D02*
X716382D01*
X689381Y525882D02*
X699389Y535889D01*
X689381Y507898D02*
Y525882D01*
Y507898D02*
X698398Y498881D01*
X717398D01*
X164592Y384549D02*
Y369314D01*
Y376932D01*
X174749D01*
Y384549D01*
Y369314D01*
X179827D02*
X184905D01*
X182366D01*
Y379471D01*
X179827D01*
X197601Y364236D02*
X200140D01*
X202680Y366775D01*
Y379471D01*
X195062D01*
X192523Y376932D01*
Y371853D01*
X195062Y369314D01*
X202680D01*
X207758Y384549D02*
Y369314D01*
Y376932D01*
X210297Y379471D01*
X215376D01*
X217915Y376932D01*
Y369314D01*
X238228Y384549D02*
Y374393D01*
X243307Y369314D01*
X248385Y374393D01*
Y384549D01*
X256002Y369314D02*
X261081D01*
X263620Y371853D01*
Y376932D01*
X261081Y379471D01*
X256002D01*
X253463Y376932D01*
Y371853D01*
X256002Y369314D01*
X268698D02*
X273777D01*
X271238D01*
Y384549D01*
X268698D01*
X283933Y382010D02*
Y379471D01*
X281394D01*
X286473D01*
X283933D01*
Y371853D01*
X286473Y369314D01*
X296629Y379471D02*
X301708D01*
X304247Y376932D01*
Y369314D01*
X296629D01*
X294090Y371853D01*
X296629Y374393D01*
X304247D01*
X314403Y364236D02*
X316943D01*
X319482Y366775D01*
Y379471D01*
X311864D01*
X309325Y376932D01*
Y371853D01*
X311864Y369314D01*
X319482D01*
X332178D02*
X327099D01*
X324560Y371853D01*
Y376932D01*
X327099Y379471D01*
X332178D01*
X334717Y376932D01*
Y374393D01*
X324560D01*
X632973Y121410D02*
Y116331D01*
X635512Y113792D01*
X645669D01*
X648208Y116331D01*
Y121410D01*
X645669Y123949D01*
X635512D01*
X632973Y121410D01*
X648208Y129027D02*
X632973D01*
X648208Y139184D01*
X632973D01*
X708411Y115314D02*
Y110235D01*
X710950Y107696D01*
X721107D01*
X723646Y110235D01*
Y115314D01*
X721107Y117853D01*
X710950D01*
X708411Y115314D01*
Y133088D02*
Y122931D01*
X716029D01*
Y128009D01*
Y122931D01*
X723646D01*
X708411Y148323D02*
Y138166D01*
X716029D01*
Y143244D01*
Y138166D01*
X723646D01*
X566417Y130805D02*
X556260D01*
Y123188D01*
X561338Y125727D01*
X563877D01*
X566417Y123188D01*
Y118109D01*
X563877Y115570D01*
X558799D01*
X556260Y118109D01*
X571495Y125727D02*
X576573Y115570D01*
X581652Y125727D01*
X607573Y116075D02*
Y110997D01*
X610112Y108458D01*
X620269D01*
X622808Y110997D01*
Y116075D01*
X620269Y118615D01*
X610112D01*
X607573Y116075D01*
Y133850D02*
Y123693D01*
X615191D01*
Y128771D01*
Y123693D01*
X622808D01*
X607573Y149085D02*
Y138928D01*
X615191D01*
Y144007D01*
Y138928D01*
X622808D01*
X523499Y122171D02*
Y117093D01*
X526038Y114554D01*
X536195D01*
X538734Y117093D01*
Y122171D01*
X536195Y124711D01*
X526038D01*
X523499Y122171D01*
X538734Y129789D02*
X523499D01*
X538734Y139946D01*
X523499D01*
X656590Y126996D02*
X659129Y129535D01*
X664208D01*
X666747Y126996D01*
Y124457D01*
X664208Y121917D01*
X661668D01*
X664208D01*
X666747Y119378D01*
Y116839D01*
X664208Y114300D01*
X659129D01*
X656590Y116839D01*
X671825Y124457D02*
X676903Y114300D01*
X681982Y124457D01*
X687060Y126996D02*
X689599Y129535D01*
X694678D01*
X697217Y126996D01*
Y124457D01*
X694678Y121917D01*
X692139D01*
X694678D01*
X697217Y119378D01*
Y116839D01*
X694678Y114300D01*
X689599D01*
X687060Y116839D01*
X701040Y484627D02*
Y469392D01*
X708658D01*
X711197Y471931D01*
Y474470D01*
X708658Y477010D01*
X701040D01*
X708658D01*
X711197Y479549D01*
Y482088D01*
X708658Y484627D01*
X701040D01*
X723893D02*
X718814D01*
X716275Y482088D01*
Y471931D01*
X718814Y469392D01*
X723893D01*
X726432Y471931D01*
Y482088D01*
X723893Y484627D01*
X739128D02*
X734049D01*
X731510Y482088D01*
Y471931D01*
X734049Y469392D01*
X739128D01*
X741667Y471931D01*
Y482088D01*
X739128Y484627D01*
X746745D02*
X756902D01*
X751824D01*
Y469392D01*
X553466Y568960D02*
X563623D01*
X529082Y568958D02*
X539239D01*
X534160Y574037D02*
Y563880D01*
X350518Y613405D02*
X345439D01*
X342900Y610866D01*
Y600709D01*
X345439Y598170D01*
X350518D01*
X353057Y600709D01*
Y610866D01*
X350518Y613405D01*
X368292D02*
X358135D01*
Y605788D01*
X363213D01*
X358135D01*
Y598170D01*
X383527Y613405D02*
X373370D01*
Y605788D01*
X378448D01*
X373370D01*
Y598170D01*
X352549Y638804D02*
X350009Y641343D01*
X344931D01*
X342392Y638804D01*
Y628647D01*
X344931Y626108D01*
X350009D01*
X352549Y628647D01*
X357627Y641343D02*
Y626108D01*
Y633726D01*
X360166Y636265D01*
X365245D01*
X367784Y633726D01*
Y626108D01*
X375401Y636265D02*
X380480D01*
X383019Y633726D01*
Y626108D01*
X375401D01*
X372862Y628647D01*
X375401Y631187D01*
X383019D01*
X388097Y636265D02*
Y626108D01*
Y631187D01*
X390636Y633726D01*
X393176Y636265D01*
X395715D01*
X408411Y621030D02*
X410950D01*
X413489Y623569D01*
Y636265D01*
X405872D01*
X403332Y633726D01*
Y628647D01*
X405872Y626108D01*
X413489D01*
X426185D02*
X421106D01*
X418567Y628647D01*
Y633726D01*
X421106Y636265D01*
X426185D01*
X428724Y633726D01*
Y631187D01*
X418567D01*
X150111Y94991D02*
X139954D01*
Y79756D01*
X150111D01*
X139954Y87374D02*
X145032D01*
X155189Y79756D02*
Y94991D01*
X165346Y79756D01*
Y94991D01*
D14*
X449474Y398620D02*
G03*
X449474Y398620I-749J0D01*
G01*
X622995Y235785D02*
Y235884D01*
X619695Y232484D02*
X622995Y235785D01*
X616195Y235884D02*
X616295Y235884D01*
X619695Y232484D01*
X616195Y235884D02*
X622995D01*
X612194Y247585D02*
X612194Y236085D01*
X627195Y236085D02*
Y247585D01*
X612195Y247585D02*
X626994D01*
X627219Y221783D02*
Y232285D01*
X623218Y218784D02*
X624218D01*
X627219Y221783D01*
X616218Y218784D02*
X623218D01*
X615217D02*
X616218D01*
X612217Y221784D02*
X615217Y218784D01*
X612217Y221784D02*
Y232285D01*
X619695Y232484D02*
Y235884D01*
X410785Y469647D02*
Y469747D01*
X414085Y473047D01*
X417485Y469647D02*
X417585Y469647D01*
X414085Y473047D02*
X417485Y469647D01*
X410785D02*
X417585Y469647D01*
X421586Y457947D02*
Y469447D01*
X406585Y457947D02*
X406585Y469447D01*
X406786Y457947D02*
X421585D01*
X406562Y473247D02*
Y483748D01*
X409562Y486748D02*
X410562Y486748D01*
X406562Y483748D02*
X409562Y486748D01*
X410562Y486748D02*
X417562D01*
X418563D01*
X421563Y483748D01*
X421563Y473247D02*
X421563Y483748D01*
X414085Y469647D02*
Y473047D01*
X287715Y85925D02*
Y86024D01*
X284415Y82624D02*
X287715Y85925D01*
X280915Y86024D02*
X281015D01*
X284415Y82624D01*
X280915Y86024D02*
X287715D01*
X276914Y86224D02*
Y97725D01*
X291916Y86224D02*
Y97725D01*
X276915D02*
X291715D01*
X291938Y71923D02*
Y82424D01*
X287937Y68924D02*
X288938D01*
X291938Y71923D01*
X280938Y68924D02*
X287937D01*
X279937D02*
X280938D01*
X276937Y71923D02*
X279937Y68924D01*
X276937Y71923D02*
Y82424D01*
X284415Y82624D02*
Y86024D01*
D15*
X436974Y378246D02*
G03*
X438498Y376722I1524J0D01*
G01*
X445422Y376722D02*
G03*
X446946Y378246I0J1524D01*
G01*
X438498Y400096D02*
G03*
X436974Y398572I0J-1524D01*
G01*
X446946D02*
G03*
X445422Y400096I-1524J0D01*
G01*
X295907Y111666D02*
G03*
X294383Y110142I0J-1524D01*
G01*
Y103218D02*
G03*
X295907Y101694I1524J0D01*
G01*
X317757Y110142D02*
G03*
X316233Y111666I-1524J0D01*
G01*
Y101694D02*
G03*
X317757Y103218I0J1524D01*
G01*
X438160Y177022D02*
G03*
X436636Y178546I-1524J0D01*
G01*
X421612D02*
G03*
X420088Y177022I0J-1524D01*
G01*
X436636Y139274D02*
G03*
X438160Y140798I0J1524D01*
G01*
X420088D02*
G03*
X421612Y139274I1524J0D01*
G01*
X399904Y140798D02*
G03*
X401428Y139274I1524J0D01*
G01*
X416452D02*
G03*
X417976Y140798I0J1524D01*
G01*
X401428Y178546D02*
G03*
X399904Y177022I0J-1524D01*
G01*
X417976D02*
G03*
X416452Y178546I-1524J0D01*
G01*
X595724Y534667D02*
G03*
X597248Y533143I1524J0D01*
G01*
X604172D02*
G03*
X605696Y534667I0J1524D01*
G01*
X597248Y556517D02*
G03*
X595724Y554993I0J-1524D01*
G01*
X605696D02*
G03*
X604172Y556517I-1524J0D01*
G01*
X642526Y253789D02*
Y260969D01*
X632554Y253789D02*
X642526D01*
X632554D02*
Y260969D01*
X642526Y265493D02*
Y272674D01*
X632554D02*
X642526D01*
X632554Y265493D02*
Y272674D01*
X433738Y467851D02*
Y475031D01*
X423766Y467851D02*
X433738D01*
X423766D02*
Y475031D01*
X433738Y479555D02*
Y486736D01*
X423766D02*
X433738D01*
X423766Y479555D02*
Y486736D01*
X454114Y479555D02*
Y486736D01*
X464086D01*
Y479555D02*
Y486736D01*
X454114Y467851D02*
Y475031D01*
Y467851D02*
X464086D01*
Y475031D01*
X420502Y419998D02*
X438526D01*
X420502Y451222D02*
X438526D01*
X365045D02*
X383069D01*
X365045Y419998D02*
X383069D01*
X356592Y474886D02*
X363773D01*
Y464914D02*
Y474886D01*
X356592Y464914D02*
X363773D01*
X344888Y474886D02*
X352068D01*
X344888Y464914D02*
Y474886D01*
Y464914D02*
X352068D01*
X314832Y282041D02*
Y315565D01*
X297308Y282041D02*
Y315565D01*
Y292760D02*
X314832D01*
X186417Y286096D02*
Y319620D01*
X168892Y286096D02*
Y319620D01*
Y296815D02*
X186417D01*
X143007Y537637D02*
X150187D01*
X143007D02*
Y547609D01*
X150187D01*
X154711Y537637D02*
X161892D01*
Y547609D01*
X154711D02*
X161892D01*
X143007Y524871D02*
X150187D01*
X143007D02*
Y534843D01*
X150187D01*
X154711Y524871D02*
X161892D01*
Y534843D01*
X154711D02*
X161892D01*
X140173Y510802D02*
Y517983D01*
X130201Y510802D02*
X140173D01*
X130201D02*
Y517983D01*
X140173Y522507D02*
Y529687D01*
X130201D02*
X140173D01*
X130201Y522507D02*
Y529687D01*
X154711Y509311D02*
X161892D01*
Y499339D02*
Y509311D01*
X154711Y499339D02*
X161892D01*
X143007Y509311D02*
X150187D01*
X143007Y499339D02*
Y509311D01*
Y499339D02*
X150187D01*
X170841Y490077D02*
Y497257D01*
X180813D01*
Y490077D02*
Y497257D01*
X170841Y478372D02*
Y485553D01*
Y478372D02*
X180813D01*
Y485553D01*
X196053Y478372D02*
Y485553D01*
X186081Y478372D02*
X196053D01*
X186081D02*
Y485553D01*
X196053Y490077D02*
Y497257D01*
X186081D02*
X196053D01*
X186081Y490077D02*
Y497257D01*
X210289Y460009D02*
X217469D01*
Y450037D02*
Y460009D01*
X210289Y450037D02*
X217469D01*
X198584Y460009D02*
X205764D01*
X198584Y450037D02*
Y460009D01*
Y450037D02*
X205764D01*
X141444Y459646D02*
X148624D01*
Y449674D02*
Y459646D01*
X141444Y449674D02*
X148624D01*
X129739Y459646D02*
X136920D01*
X129739Y449674D02*
Y459646D01*
Y449674D02*
X136920D01*
X141444Y446946D02*
X148624D01*
Y436974D02*
Y446946D01*
X141444Y436974D02*
X148624D01*
X129739Y446946D02*
X136920D01*
X129739Y436974D02*
Y446946D01*
Y436974D02*
X136920D01*
X451736Y481037D02*
Y490626D01*
X438524D02*
X451736D01*
X438524Y481037D02*
Y490626D01*
X451736Y462924D02*
Y472513D01*
X438524Y462924D02*
X451736D01*
X438524D02*
Y472513D01*
X475836Y467851D02*
Y475031D01*
X465864Y467851D02*
X475836D01*
X465864D02*
Y475031D01*
X475836Y479555D02*
Y486736D01*
X465864D02*
X475836D01*
X465864Y479555D02*
Y486736D01*
X477614Y479555D02*
Y486736D01*
X487586D01*
Y479555D02*
Y486736D01*
X477614Y467851D02*
Y475031D01*
Y467851D02*
X487586D01*
Y475031D01*
X434621Y389732D02*
Y402581D01*
X416279D02*
X434621D01*
X416279Y389732D02*
Y402581D01*
X434621Y367359D02*
Y380208D01*
X416279Y367359D02*
X434621D01*
X416279D02*
X416279Y380208D01*
X427224Y356335D02*
X427424Y329971D01*
X427224Y356335D02*
X480792D01*
X494737Y342391D01*
X494603Y329437D02*
X494737Y342391D01*
X427219Y288817D02*
X427285Y315502D01*
X427219Y288817D02*
X480781D01*
X494742Y302778D01*
Y315721D01*
X452763Y401881D02*
X474287D01*
X452763Y380357D02*
X474287D01*
X438498Y376722D02*
X445422Y376722D01*
X446946Y378246D02*
Y386147D01*
X436974Y378246D02*
Y386147D01*
X438498Y400096D02*
X445422Y400096D01*
X446946Y398572D02*
X446946Y390671D01*
X436974D02*
Y398572D01*
X314832Y135638D02*
Y169162D01*
X297308Y135638D02*
Y169162D01*
Y146357D02*
X314832D01*
X186417Y139534D02*
Y173058D01*
X168892Y139534D02*
Y173058D01*
Y150253D02*
X186417D01*
X273016Y101694D02*
X280196D01*
X273016D02*
Y111666D01*
X280196D01*
X284720Y101694D02*
X291901D01*
Y111666D01*
X284720D02*
X291901D01*
X294383Y103218D02*
Y110142D01*
X295907Y101694D02*
X303808D01*
X295907Y111666D02*
X303808D01*
X317757Y103218D02*
Y110142D01*
X308332Y101694D02*
X316233D01*
X308332Y111666D02*
X316233D01*
X308332Y99601D02*
X315513D01*
Y89629D02*
Y99601D01*
X308332Y89629D02*
X315513D01*
X296628Y99601D02*
X303808D01*
X296628Y89629D02*
Y99601D01*
Y89629D02*
X303808D01*
X308332Y87536D02*
X315513D01*
Y77564D02*
Y87536D01*
X308332Y77564D02*
X315513D01*
X296628Y87536D02*
X303808D01*
X296628Y77564D02*
Y87536D01*
Y77564D02*
X303808D01*
X374744Y86578D02*
Y93758D01*
X384716D01*
Y86578D02*
Y93758D01*
X374744Y74873D02*
Y82054D01*
Y74873D02*
X384716D01*
Y82054D01*
X420088Y162922D02*
Y177022D01*
X438160Y162922D02*
Y177022D01*
X421612Y178546D02*
X436636D01*
X420088Y140798D02*
Y154898D01*
X438160Y140798D02*
Y154898D01*
X421612Y139274D02*
X436636D01*
X401428Y139274D02*
X416452D01*
X417976Y140798D02*
Y154898D01*
X399904Y140798D02*
Y154898D01*
X401428Y178546D02*
X416452D01*
X417976Y162922D02*
Y177022D01*
X399904Y162922D02*
Y177022D01*
X423109Y181704D02*
X430290D01*
X423109D02*
Y191676D01*
X430290D01*
X434814Y181704D02*
X441994D01*
Y191676D01*
X434814D02*
X441994D01*
X437419Y194054D02*
X447007D01*
X447007Y207266D01*
X437419D02*
X447007D01*
X419305Y194054D02*
X428894Y194054D01*
X419305Y194054D02*
Y207266D01*
X428894D01*
X449790Y201008D02*
X456970D01*
X449790D02*
Y210980D01*
X456970D01*
X461494Y201008D02*
X468674D01*
Y210980D01*
X461494D02*
X468674D01*
X757343Y181498D02*
X759716D01*
Y219822D01*
X757343D02*
X759716D01*
X757343Y222108D02*
X762002Y222108D01*
Y218428D02*
Y222108D01*
X723392Y181498D02*
X725765D01*
X723392D02*
Y219822D01*
X725765D01*
X743942Y238666D02*
X751123D01*
Y228694D02*
Y238666D01*
X743942Y228694D02*
X751123D01*
X732237Y238666D02*
X739418D01*
X732237Y228694D02*
Y238666D01*
Y228694D02*
X739418D01*
X700946Y224237D02*
Y231418D01*
X690974Y224237D02*
X700946D01*
X690974D02*
Y231418D01*
X700946Y235942D02*
Y243122D01*
X690974D02*
X700946D01*
X690974Y235942D02*
Y243122D01*
X629395Y253789D02*
Y260969D01*
X619423Y253789D02*
X629395D01*
X619423D02*
Y260969D01*
X629395Y265493D02*
Y272674D01*
X619423D02*
X629395D01*
X619423Y265493D02*
Y272674D01*
X616264Y253789D02*
Y260969D01*
X606292Y253789D02*
X616264D01*
X606292D02*
Y260969D01*
X616264Y265493D02*
Y272674D01*
X606292D02*
X616264D01*
X606292Y265493D02*
Y272674D01*
X603133Y253789D02*
Y260969D01*
X593161Y253789D02*
X603133D01*
X593161D02*
Y260969D01*
X603133Y265493D02*
Y272674D01*
X593161D02*
X603133D01*
X593161Y265493D02*
Y272674D01*
X539517Y362524D02*
X546697D01*
Y352552D02*
Y362524D01*
X539517Y352552D02*
X546697D01*
X527812Y362524D02*
X534992D01*
X527812Y352552D02*
Y362524D01*
Y352552D02*
X534992D01*
X539517Y375290D02*
X546697D01*
Y365318D02*
Y375290D01*
X539517Y365318D02*
X546697D01*
X527812Y375290D02*
X534992D01*
X527812Y365318D02*
Y375290D01*
Y365318D02*
X534992D01*
X605696Y534667D02*
Y542568D01*
X595724Y534667D02*
Y542568D01*
X597248Y533143D02*
X604172D01*
X605696Y547092D02*
Y554993D01*
X595724Y547092D02*
Y554993D01*
X597248Y556517D02*
X604172D01*
X619730Y504415D02*
Y521739D01*
X602006D02*
X619730D01*
X602006Y504415D02*
Y521739D01*
Y504415D02*
X619730D01*
X629886Y514444D02*
X637066D01*
X629886D02*
Y524416D01*
X637066D01*
X641590Y514444D02*
X648771D01*
Y524416D01*
X641590D02*
X648771D01*
X641590Y511716D02*
X648771D01*
Y501744D02*
Y511716D01*
X641590Y501744D02*
X648771D01*
X629886Y511716D02*
X637066D01*
X629886Y501744D02*
Y511716D01*
Y501744D02*
X637066D01*
X508203Y448056D02*
X523773D01*
X508203Y431495D02*
Y448056D01*
X510494Y445776D02*
X541066D01*
Y410204D02*
Y445776D01*
X510494Y410204D02*
X541066D01*
X510494D02*
Y445776D01*
X261498Y451222D02*
X279522D01*
X261498Y419998D02*
X279522D01*
X313145Y451222D02*
X331169D01*
X313145Y419998D02*
X331169D01*
X330440Y488856D02*
X337621D01*
Y478884D02*
Y488856D01*
X330440Y478884D02*
X337621D01*
X318736Y488856D02*
X325916D01*
X318736Y478884D02*
Y488856D01*
Y478884D02*
X325916D01*
X318736Y491584D02*
X325916D01*
X318736D02*
Y501556D01*
X325916D01*
X330440Y491584D02*
X337621D01*
Y501556D01*
X330440D02*
X337621D01*
X237186Y512009D02*
Y519190D01*
X227214Y512009D02*
X237186D01*
X227214D02*
Y519190D01*
X237186Y523714D02*
Y530894D01*
X227214D02*
X237186D01*
X227214Y523714D02*
Y530894D01*
X285446Y511258D02*
Y518438D01*
X275474Y511258D02*
X285446D01*
X275474D02*
Y518438D01*
X285446Y522962D02*
Y530142D01*
X275474D02*
X285446D01*
X275474Y522962D02*
Y530142D01*
X195103Y557905D02*
Y565085D01*
X205075D01*
Y557905D02*
Y565085D01*
X195103Y546200D02*
Y553381D01*
Y546200D02*
X205075D01*
Y553381D01*
X182337Y557905D02*
Y565085D01*
X192309D01*
Y557905D02*
Y565085D01*
X182337Y546200D02*
Y553381D01*
Y546200D02*
X192309D01*
Y553381D01*
X169571Y557905D02*
Y565085D01*
X179543D01*
Y557905D02*
Y565085D01*
X169571Y546200D02*
Y553381D01*
Y546200D02*
X179543D01*
Y553381D01*
D16*
X624732Y508080D02*
G03*
X624732Y508080I-1001J0D01*
G01*
X700590Y441380D02*
G03*
X700590Y441380I-1000J0D01*
G01*
X247880Y484990D02*
G03*
X247880Y484990I-1000J0D01*
G01*
X75874Y435767D02*
X76698D01*
X75874D02*
Y441377D01*
X90710Y435767D02*
X111607D01*
Y444456D01*
X90450Y587427D02*
X111434D01*
Y578079D02*
Y587427D01*
X75874Y581077D02*
Y587427D01*
X76958D01*
X87583Y464278D02*
Y553178D01*
Y464278D02*
X99013D01*
Y553178D01*
X87583D02*
X99013D01*
X289495Y321803D02*
X291780D01*
X289495Y275803D02*
X291780D01*
X251780Y321803D02*
X254065D01*
X251780Y275803D02*
X254065D01*
X291780D02*
Y321803D01*
X251780Y275803D02*
Y321803D01*
X164570Y326366D02*
X166855D01*
X164570Y280366D02*
X166855D01*
X126855Y326366D02*
X129140D01*
X126855Y280366D02*
X129140D01*
X166855D02*
Y326366D01*
X126855Y280366D02*
Y326366D01*
X197617Y537855D02*
X200467D01*
Y535005D02*
Y537855D01*
X168967D02*
X171817D01*
X168967Y535005D02*
Y537855D01*
Y506355D02*
Y509205D01*
Y506355D02*
X171817D01*
X197617D02*
X200467D01*
Y509205D01*
X184350Y462790D02*
X187200D01*
Y459940D02*
Y462790D01*
X155700D02*
X158550D01*
X155700Y459940D02*
Y462790D01*
Y431290D02*
Y434140D01*
Y431290D02*
X158550D01*
X184350D02*
X187200D01*
Y434140D01*
X464078Y542548D02*
X480802D01*
X464078Y557272D02*
X480802D01*
X441789Y544119D02*
Y572241D01*
X459911Y544119D02*
Y572241D01*
X418974Y544116D02*
Y572237D01*
X437095Y544116D02*
Y572237D01*
X437051Y504719D02*
Y532841D01*
X418929Y504719D02*
Y532841D01*
X468118Y458688D02*
X468118Y443963D01*
X481842D02*
X481842Y458688D01*
X498369Y467189D02*
X526491D01*
X498369Y485311D02*
X526491D01*
X458252Y365248D02*
X472977Y365248D01*
X458252Y378972D02*
X472977D01*
X448972Y265439D02*
Y278439D01*
X427972Y265439D02*
Y278439D01*
X289495Y175400D02*
X291780D01*
X289495Y129400D02*
X291780D01*
X251780Y175400D02*
X254065D01*
X251780Y129400D02*
X254065D01*
X291780D02*
Y175400D01*
X251780Y129400D02*
Y175400D01*
X126855Y133296D02*
Y179296D01*
X166855Y133296D02*
Y179296D01*
X126855Y133296D02*
X129140D01*
X126855Y179296D02*
X129140D01*
X164570Y133296D02*
X166855D01*
X164570Y179296D02*
X166855D01*
X336872Y98816D02*
X344872D01*
X336872Y91566D02*
Y98816D01*
Y69816D02*
X344872D01*
X336872D02*
Y77066D01*
X488860Y114390D02*
Y157390D01*
X445860D02*
X488860D01*
X445860Y114390D02*
Y157390D01*
Y114390D02*
X488860D01*
X480205Y173335D02*
Y192075D01*
X452355Y173335D02*
X480205D01*
X452355D02*
Y192075D01*
X480205D01*
X514521Y152929D02*
Y181051D01*
X496399Y152929D02*
Y181051D01*
X522980Y245190D02*
Y255190D01*
X553980Y245190D02*
Y255190D01*
X522980Y245190D02*
X553980D01*
X522980Y255190D02*
X553980D01*
X530490Y318320D02*
X544090D01*
X530490D02*
Y336920D01*
X544090D01*
Y318320D02*
Y336920D01*
X563139Y504019D02*
X591261D01*
X563139Y522141D02*
X591261D01*
X654153Y485522D02*
X654370D01*
X634370D02*
X634587D01*
X634370Y475522D02*
Y485522D01*
X654153Y475522D02*
X654370D01*
X634370D02*
X634587D01*
X654370D02*
Y485522D01*
X481349Y369370D02*
Y397491D01*
X499471Y369370D02*
X499471Y397491D01*
X483771Y414840D02*
X483771Y439422D01*
X466189Y414840D02*
Y439422D01*
D17*
X70205Y447767D02*
X73704Y445267D01*
X70104Y442667D02*
X70205Y447767D01*
X70104Y442667D02*
X70243D01*
X73704Y445267D01*
X394462Y588518D02*
Y612140D01*
X717340Y433880D02*
X767840D01*
X562840Y279880D02*
Y433880D01*
X717340Y279880D02*
X767840D01*
Y433880D01*
X271980Y502415D02*
Y518665D01*
X240680Y502415D02*
Y518665D01*
X731368Y464819D02*
X736446D01*
X733907D01*
Y457201D01*
X738985D02*
Y464819D01*
X742794D01*
X744064Y463549D01*
Y461010D01*
X742794Y459740D01*
X738985D01*
X750412Y457201D02*
Y464819D01*
X746603Y461010D01*
X751681D01*
X754221Y463549D02*
X755490Y464819D01*
X758029D01*
X759299Y463549D01*
Y462280D01*
X758029Y461010D01*
X756760D01*
X758029D01*
X759299Y459740D01*
Y458471D01*
X758029Y457201D01*
X755490D01*
X754221Y458471D01*
X698504Y454659D02*
X703583D01*
X701044D01*
Y447041D01*
X706122D02*
Y454659D01*
X709931D01*
X711200Y453389D01*
Y450850D01*
X709931Y449580D01*
X706122D01*
X717548Y447041D02*
Y454659D01*
X713740Y450850D01*
X718818D01*
X726435Y447041D02*
X721357D01*
X726435Y452120D01*
Y453389D01*
X725166Y454659D01*
X722627D01*
X721357Y453389D01*
X495304Y208279D02*
X500382D01*
X497843D01*
Y200661D01*
X502922D02*
Y208279D01*
X506730D01*
X508000Y207009D01*
Y204470D01*
X506730Y203200D01*
X502922D01*
X514348Y200661D02*
Y208279D01*
X510539Y204470D01*
X515617D01*
X518157Y200661D02*
X520696D01*
X519426D01*
Y208279D01*
X518157Y207009D01*
X119154Y500574D02*
Y508191D01*
X122963D01*
X124232Y506922D01*
Y504383D01*
X122963Y503113D01*
X119154D01*
X121693D02*
X124232Y500574D01*
X130580D02*
Y508191D01*
X126772Y504383D01*
X131850D01*
X134389Y506922D02*
X135659Y508191D01*
X138198D01*
X139467Y506922D01*
Y505652D01*
X138198Y504383D01*
X139467Y503113D01*
Y501843D01*
X138198Y500574D01*
X135659D01*
X134389Y501843D01*
Y503113D01*
X135659Y504383D01*
X134389Y505652D01*
Y506922D01*
X135659Y504383D02*
X138198D01*
X520702Y457199D02*
X525780Y449581D01*
Y457199D02*
X520702Y449581D01*
X528319D02*
X530858D01*
X529589D01*
Y457199D01*
X528319Y455929D01*
X161293Y473455D02*
Y467107D01*
X162563Y465837D01*
X165102D01*
X166372Y467107D01*
Y473455D01*
X173989Y465837D02*
X168911D01*
X173989Y470916D01*
Y472185D01*
X172720Y473455D01*
X170180D01*
X168911Y472185D01*
X176528Y473455D02*
X181607D01*
Y472185D01*
X176528Y467107D01*
Y465837D01*
X204841Y536386D02*
Y530038D01*
X206110Y528768D01*
X208650D01*
X209919Y530038D01*
Y536386D01*
X217537Y528768D02*
X212458D01*
X217537Y533847D01*
Y535116D01*
X216267Y536386D01*
X213728D01*
X212458Y535116D01*
X225154Y536386D02*
X222615Y535116D01*
X220076Y532577D01*
Y530038D01*
X221346Y528768D01*
X223885D01*
X225154Y530038D01*
Y531307D01*
X223885Y532577D01*
X220076D01*
X625428Y498153D02*
Y491805D01*
X626698Y490535D01*
X629237D01*
X630507Y491805D01*
Y498153D01*
X638124Y490535D02*
X633046D01*
X638124Y495613D01*
Y496883D01*
X636855Y498153D01*
X634315D01*
X633046Y496883D01*
X645742Y498153D02*
X640663D01*
Y494344D01*
X643203Y495613D01*
X644472D01*
X645742Y494344D01*
Y491805D01*
X644472Y490535D01*
X641933D01*
X640663Y491805D01*
X528356Y348885D02*
Y342537D01*
X529626Y341268D01*
X532165D01*
X533435Y342537D01*
Y348885D01*
X541052Y341268D02*
X535974D01*
X541052Y346346D01*
Y347616D01*
X539782Y348885D01*
X537243D01*
X535974Y347616D01*
X547400Y341268D02*
Y348885D01*
X543591Y345077D01*
X548670D01*
X628525Y446009D02*
Y439661D01*
X629794Y438391D01*
X632333D01*
X633603Y439661D01*
Y446009D01*
X641220Y438391D02*
X636142D01*
X641220Y443470D01*
Y444739D01*
X639951Y446009D01*
X637412D01*
X636142Y444739D01*
X643760D02*
X645029Y446009D01*
X647569D01*
X648838Y444739D01*
Y443470D01*
X647569Y442200D01*
X646299D01*
X647569D01*
X648838Y440931D01*
Y439661D01*
X647569Y438391D01*
X645029D01*
X643760Y439661D01*
X554369Y268342D02*
Y261994D01*
X555638Y260725D01*
X558177D01*
X559447Y261994D01*
Y268342D01*
X561986D02*
X567065D01*
Y267073D01*
X561986Y261994D01*
Y260725D01*
X476252Y170179D02*
Y163831D01*
X477522Y162561D01*
X480061D01*
X481330Y163831D01*
Y170179D01*
X488948D02*
X486409Y168909D01*
X483870Y166370D01*
Y163831D01*
X485139Y162561D01*
X487678D01*
X488948Y163831D01*
Y165100D01*
X487678Y166370D01*
X483870D01*
X409264Y275748D02*
Y269400D01*
X410533Y268130D01*
X413073D01*
X414342Y269400D01*
Y275748D01*
X421960D02*
X416881D01*
Y271939D01*
X419420Y273209D01*
X420690D01*
X421960Y271939D01*
Y269400D01*
X420690Y268130D01*
X418151D01*
X416881Y269400D01*
X463841Y411749D02*
Y405401D01*
X465110Y404132D01*
X467649D01*
X468919Y405401D01*
Y411749D01*
X475267Y404132D02*
Y411749D01*
X471458Y407940D01*
X476537D01*
X250192Y541019D02*
Y534671D01*
X251462Y533401D01*
X254001D01*
X255270Y534671D01*
Y541019D01*
X257810Y539749D02*
X259079Y541019D01*
X261618D01*
X262888Y539749D01*
Y538480D01*
X261618Y537210D01*
X260349D01*
X261618D01*
X262888Y535940D01*
Y534671D01*
X261618Y533401D01*
X259079D01*
X257810Y534671D01*
X483999Y541557D02*
Y535209D01*
X485269Y533940D01*
X487808D01*
X489077Y535209D01*
Y541557D01*
X496695Y533940D02*
X491616D01*
X496695Y539018D01*
Y540287D01*
X495425Y541557D01*
X492886D01*
X491616Y540287D01*
X608407Y532078D02*
Y525730D01*
X609677Y524461D01*
X612216D01*
X613485Y525730D01*
Y532078D01*
X616025Y524461D02*
X618564D01*
X617294D01*
Y532078D01*
X616025Y530809D01*
X224028Y560579D02*
X229106D01*
X226567D01*
Y552962D01*
X231645D02*
Y560579D01*
X235454D01*
X236724Y559310D01*
Y556771D01*
X235454Y555501D01*
X231645D01*
X239263Y559310D02*
X240532Y560579D01*
X243072D01*
X244341Y559310D01*
Y558040D01*
X243072Y556771D01*
X241802D01*
X243072D01*
X244341Y555501D01*
Y554231D01*
X243072Y552962D01*
X240532D01*
X239263Y554231D01*
X246880Y552962D02*
X249420D01*
X248150D01*
Y560579D01*
X246880Y559310D01*
X118337Y438949D02*
Y444027D01*
Y441488D01*
X125954D01*
Y446567D02*
X118337D01*
Y450375D01*
X119606Y451645D01*
X122146D01*
X123415Y450375D01*
Y446567D01*
X119606Y454184D02*
X118337Y455454D01*
Y457993D01*
X119606Y459262D01*
X120876D01*
X122146Y457993D01*
Y456723D01*
Y457993D01*
X123415Y459262D01*
X124685D01*
X125954Y457993D01*
Y455454D01*
X124685Y454184D01*
X119606Y461802D02*
X118337Y463071D01*
Y465610D01*
X119606Y466880D01*
X124685D01*
X125954Y465610D01*
Y463071D01*
X124685Y461802D01*
X119606D01*
X119865Y592511D02*
X124943D01*
X122404D01*
Y584894D01*
X127482D02*
Y592511D01*
X131291D01*
X132561Y591242D01*
Y588703D01*
X131291Y587433D01*
X127482D01*
X140178Y584894D02*
X135100D01*
X140178Y589972D01*
Y591242D01*
X138909Y592511D01*
X136369D01*
X135100Y591242D01*
X142717Y586163D02*
X143987Y584894D01*
X146526D01*
X147796Y586163D01*
Y591242D01*
X146526Y592511D01*
X143987D01*
X142717Y591242D01*
Y589972D01*
X143987Y588703D01*
X147796D01*
X212112Y473941D02*
X217190D01*
X214651D01*
Y466324D01*
X219729D02*
Y473941D01*
X223538D01*
X224808Y472672D01*
Y470133D01*
X223538Y468863D01*
X219729D01*
X232425Y466324D02*
X227347D01*
X232425Y471402D01*
Y472672D01*
X231156Y473941D01*
X228617D01*
X227347Y472672D01*
X234965D02*
X236234Y473941D01*
X238773D01*
X240043Y472672D01*
Y471402D01*
X238773Y470133D01*
X240043Y468863D01*
Y467593D01*
X238773Y466324D01*
X236234D01*
X234965Y467593D01*
Y468863D01*
X236234Y470133D01*
X234965Y471402D01*
Y472672D01*
X236234Y470133D02*
X238773D01*
X119333Y470056D02*
Y475134D01*
Y472595D01*
X126951D01*
Y477674D02*
X119333D01*
Y481482D01*
X120603Y482752D01*
X123142D01*
X124411Y481482D01*
Y477674D01*
X126951Y490369D02*
Y485291D01*
X121872Y490369D01*
X120603D01*
X119333Y489100D01*
Y486561D01*
X120603Y485291D01*
X119333Y492909D02*
Y497987D01*
X120603D01*
X125681Y492909D01*
X126951D01*
X709464Y245771D02*
Y250849D01*
Y248310D01*
X717082D01*
Y253389D02*
X709464D01*
Y257197D01*
X710734Y258467D01*
X713273D01*
X714543Y257197D01*
Y253389D01*
X717082Y266085D02*
Y261006D01*
X712004Y266085D01*
X710734D01*
X709464Y264815D01*
Y262276D01*
X710734Y261006D01*
X709464Y273702D02*
X710734Y271163D01*
X713273Y268624D01*
X715812D01*
X717082Y269893D01*
Y272433D01*
X715812Y273702D01*
X714543D01*
X713273Y272433D01*
Y268624D01*
X671072Y465327D02*
X676151D01*
X673612D01*
Y457709D01*
X678690D02*
Y465327D01*
X682499D01*
X683768Y464057D01*
Y461518D01*
X682499Y460248D01*
X678690D01*
X691386Y457709D02*
X686308D01*
X691386Y462788D01*
Y464057D01*
X690116Y465327D01*
X687577D01*
X686308Y464057D01*
X699004Y465327D02*
X693925D01*
Y461518D01*
X696464Y462788D01*
X697734D01*
X699004Y461518D01*
Y458979D01*
X697734Y457709D01*
X695195D01*
X693925Y458979D01*
X661416Y89151D02*
X666494D01*
X663955D01*
Y81534D01*
X669034D02*
Y89151D01*
X672842D01*
X674112Y87882D01*
Y85343D01*
X672842Y84073D01*
X669034D01*
X681729Y81534D02*
X676651D01*
X681729Y86612D01*
Y87882D01*
X680460Y89151D01*
X677921D01*
X676651Y87882D01*
X684269D02*
X685538Y89151D01*
X688077D01*
X689347Y87882D01*
Y82804D01*
X688077Y81534D01*
X685538D01*
X684269Y82804D01*
Y87882D01*
X371479Y134619D02*
X376558D01*
X374019D01*
Y127001D01*
X379097D02*
Y134619D01*
X382906D01*
X384175Y133349D01*
Y130810D01*
X382906Y129540D01*
X379097D01*
X386714Y127001D02*
X389254D01*
X387984D01*
Y134619D01*
X386714Y133349D01*
X393062Y128271D02*
X394332Y127001D01*
X396871D01*
X398141Y128271D01*
Y133349D01*
X396871Y134619D01*
X394332D01*
X393062Y133349D01*
Y132080D01*
X394332Y130810D01*
X398141D01*
X524044Y224856D02*
X529123D01*
X526584D01*
Y217239D01*
X531662D02*
Y224856D01*
X535471D01*
X536740Y223587D01*
Y221047D01*
X535471Y219778D01*
X531662D01*
X539280Y217239D02*
X541819D01*
X540549D01*
Y224856D01*
X539280Y223587D01*
X545628D02*
X546897Y224856D01*
X549436D01*
X550706Y223587D01*
Y222317D01*
X549436Y221047D01*
X550706Y219778D01*
Y218508D01*
X549436Y217239D01*
X546897D01*
X545628Y218508D01*
Y219778D01*
X546897Y221047D01*
X545628Y222317D01*
Y223587D01*
X546897Y221047D02*
X549436D01*
X489815Y218115D02*
Y223193D01*
Y220654D01*
X497432D01*
Y225732D02*
X489815D01*
Y229541D01*
X491084Y230811D01*
X493623D01*
X494893Y229541D01*
Y225732D01*
X497432Y233350D02*
Y235889D01*
Y234620D01*
X489815D01*
X491084Y233350D01*
X489815Y239698D02*
Y244776D01*
X491084D01*
X496163Y239698D01*
X497432D01*
X499388Y218171D02*
Y223249D01*
Y220710D01*
X507006D01*
Y225789D02*
X499388D01*
Y229597D01*
X500658Y230867D01*
X503197D01*
X504467Y229597D01*
Y225789D01*
X507006Y233406D02*
Y235945D01*
Y234676D01*
X499388D01*
X500658Y233406D01*
X499388Y244832D02*
X500658Y242293D01*
X503197Y239754D01*
X505736D01*
X507006Y241024D01*
Y243563D01*
X505736Y244832D01*
X504467D01*
X503197Y243563D01*
Y239754D01*
X521459Y315200D02*
X526537D01*
X523998D01*
Y307582D01*
X529077D02*
Y315200D01*
X532885D01*
X534155Y313930D01*
Y311391D01*
X532885Y310122D01*
X529077D01*
X536694Y307582D02*
X539233D01*
X537964D01*
Y315200D01*
X536694Y313930D01*
X548120Y315200D02*
X543042D01*
Y311391D01*
X545581Y312661D01*
X546851D01*
X548120Y311391D01*
Y308852D01*
X546851Y307582D01*
X544312D01*
X543042Y308852D01*
X560593Y278098D02*
X565672D01*
X563132D01*
Y270480D01*
X568211D02*
Y278098D01*
X572020D01*
X573289Y276828D01*
Y274289D01*
X572020Y273019D01*
X568211D01*
X575828Y270480D02*
X578367D01*
X577098D01*
Y278098D01*
X575828Y276828D01*
X585985Y270480D02*
Y278098D01*
X582176Y274289D01*
X587254D01*
X523080Y304766D02*
X528159D01*
X525619D01*
Y297148D01*
X530698D02*
Y304766D01*
X534506D01*
X535776Y303496D01*
Y300957D01*
X534506Y299687D01*
X530698D01*
X538315Y297148D02*
X540854D01*
X539585D01*
Y304766D01*
X538315Y303496D01*
X544663D02*
X545933Y304766D01*
X548472D01*
X549742Y303496D01*
Y302227D01*
X548472Y300957D01*
X547202D01*
X548472D01*
X549742Y299687D01*
Y298418D01*
X548472Y297148D01*
X545933D01*
X544663Y298418D01*
X500612Y339023D02*
X505690D01*
X503151D01*
Y331405D01*
X508229D02*
Y339023D01*
X512038D01*
X513308Y337753D01*
Y335214D01*
X512038Y333944D01*
X508229D01*
X515847Y331405D02*
X518386D01*
X517117D01*
Y339023D01*
X515847Y337753D01*
X527273Y331405D02*
X522195D01*
X527273Y336483D01*
Y337753D01*
X526004Y339023D01*
X523465D01*
X522195Y337753D01*
X450763Y425119D02*
Y430197D01*
Y427658D01*
X458380D01*
Y432737D02*
X450763D01*
Y436545D01*
X452033Y437815D01*
X454572D01*
X455841Y436545D01*
Y432737D01*
X458380Y440354D02*
Y442893D01*
Y441624D01*
X450763D01*
X452033Y440354D01*
X458380Y446702D02*
Y449241D01*
Y447972D01*
X450763D01*
X452033Y446702D01*
X222700Y464465D02*
X227779D01*
X225240D01*
Y456847D01*
X230318D02*
Y464465D01*
X234127D01*
X235396Y463195D01*
Y460656D01*
X234127Y459386D01*
X230318D01*
X237935Y456847D02*
X240475D01*
X239205D01*
Y464465D01*
X237935Y463195D01*
X244283D02*
X245553Y464465D01*
X248092D01*
X249362Y463195D01*
Y458117D01*
X248092Y456847D01*
X245553D01*
X244283Y458117D01*
Y463195D01*
X308611Y542293D02*
Y547372D01*
Y544832D01*
X316229D01*
Y549911D02*
X308611D01*
Y553720D01*
X309881Y554989D01*
X312420D01*
X313690Y553720D01*
Y549911D01*
X314959Y557528D02*
X316229Y558798D01*
Y561337D01*
X314959Y562607D01*
X309881D01*
X308611Y561337D01*
Y558798D01*
X309881Y557528D01*
X311150D01*
X312420Y558798D01*
Y562607D01*
X568963Y554989D02*
X574042D01*
X571502D01*
Y547371D01*
X576581D02*
Y554989D01*
X580390D01*
X581659Y553719D01*
Y551180D01*
X580390Y549910D01*
X576581D01*
X584198Y553719D02*
X585468Y554989D01*
X588007D01*
X589277Y553719D01*
Y552450D01*
X588007Y551180D01*
X589277Y549910D01*
Y548641D01*
X588007Y547371D01*
X585468D01*
X584198Y548641D01*
Y549910D01*
X585468Y551180D01*
X584198Y552450D01*
Y553719D01*
X585468Y551180D02*
X588007D01*
X539753Y478789D02*
X544832D01*
X542293D01*
Y471171D01*
X547371D02*
Y478789D01*
X551180D01*
X552449Y477519D01*
Y474980D01*
X551180Y473710D01*
X547371D01*
X554988Y478789D02*
X560067D01*
Y477519D01*
X554988Y472441D01*
Y471171D01*
X624563Y572292D02*
X629641D01*
X627102D01*
Y564675D01*
X632181D02*
Y572292D01*
X635989D01*
X637259Y571023D01*
Y568484D01*
X635989Y567214D01*
X632181D01*
X644876Y572292D02*
X642337Y571023D01*
X639798Y568484D01*
Y565944D01*
X641068Y564675D01*
X643607D01*
X644876Y565944D01*
Y567214D01*
X643607Y568484D01*
X639798D01*
X576329Y480059D02*
X581408D01*
X578868D01*
Y472441D01*
X583947D02*
Y480059D01*
X587756D01*
X589025Y478789D01*
Y476250D01*
X587756Y474980D01*
X583947D01*
X596643Y480059D02*
X591564D01*
Y476250D01*
X594104Y477520D01*
X595373D01*
X596643Y476250D01*
Y473711D01*
X595373Y472441D01*
X592834D01*
X591564Y473711D01*
X280673Y556259D02*
X285752D01*
X283213D01*
Y548641D01*
X288291D02*
Y556259D01*
X292100D01*
X293369Y554989D01*
Y552450D01*
X292100Y551180D01*
X288291D01*
X299717Y548641D02*
Y556259D01*
X295908Y552450D01*
X300987D01*
X598173Y480059D02*
X603252D01*
X600713D01*
Y472441D01*
X605791D02*
Y480059D01*
X609600D01*
X610869Y478789D01*
Y476250D01*
X609600Y474980D01*
X605791D01*
X613408Y478789D02*
X614678Y480059D01*
X617217D01*
X618487Y478789D01*
Y477520D01*
X617217Y476250D01*
X615948D01*
X617217D01*
X618487Y474980D01*
Y473711D01*
X617217Y472441D01*
X614678D01*
X613408Y473711D01*
X647701Y529593D02*
Y534672D01*
Y532132D01*
X655319D01*
Y537211D02*
X647701D01*
Y541020D01*
X648971Y542289D01*
X651510D01*
X652780Y541020D01*
Y537211D01*
X655319Y549907D02*
Y544828D01*
X650240Y549907D01*
X648971D01*
X647701Y548637D01*
Y546098D01*
X648971Y544828D01*
X398503Y424047D02*
Y429125D01*
Y426586D01*
X406121D01*
Y431664D02*
X398503D01*
Y435473D01*
X399773Y436743D01*
X402312D01*
X403582Y435473D01*
Y431664D01*
X406121Y439282D02*
Y441821D01*
Y440551D01*
X398503D01*
X399773Y439282D01*
X701042Y553719D02*
X699772Y554989D01*
X697233D01*
X695963Y553719D01*
Y552450D01*
X697233Y551180D01*
X699772D01*
X701042Y549910D01*
Y548641D01*
X699772Y547371D01*
X697233D01*
X695963Y548641D01*
X703581Y554989D02*
Y547371D01*
X706120Y549910D01*
X708659Y547371D01*
Y554989D01*
X716277D02*
X711198D01*
Y551180D01*
X713738Y552450D01*
X715007D01*
X716277Y551180D01*
Y548641D01*
X715007Y547371D01*
X712468D01*
X711198Y548641D01*
X210822Y107949D02*
X209552Y109219D01*
X207013D01*
X205743Y107949D01*
Y106680D01*
X207013Y105410D01*
X209552D01*
X210822Y104140D01*
Y102871D01*
X209552Y101601D01*
X207013D01*
X205743Y102871D01*
X213361Y109219D02*
Y101601D01*
X215900Y104140D01*
X218439Y101601D01*
Y109219D01*
X224787Y101601D02*
Y109219D01*
X220978Y105410D01*
X226057D01*
X563882Y147319D02*
X562612Y148589D01*
X560073D01*
X558803Y147319D01*
Y146050D01*
X560073Y144780D01*
X562612D01*
X563882Y143510D01*
Y142241D01*
X562612Y140971D01*
X560073D01*
X558803Y142241D01*
X566421Y148589D02*
Y140971D01*
X568960Y143510D01*
X571499Y140971D01*
Y148589D01*
X574038Y147319D02*
X575308Y148589D01*
X577847D01*
X579117Y147319D01*
Y146050D01*
X577847Y144780D01*
X576578D01*
X577847D01*
X579117Y143510D01*
Y142241D01*
X577847Y140971D01*
X575308D01*
X574038Y142241D01*
X666625Y146049D02*
X665356Y147319D01*
X662817D01*
X661547Y146049D01*
Y144780D01*
X662817Y143510D01*
X665356D01*
X666625Y142241D01*
Y140971D01*
X665356Y139702D01*
X662817D01*
X661547Y140971D01*
X669165Y147319D02*
Y139702D01*
X671704Y142241D01*
X674243Y139702D01*
Y147319D01*
X681861Y139702D02*
X676782D01*
X681861Y144780D01*
Y146049D01*
X680591Y147319D01*
X678052D01*
X676782Y146049D01*
X359411Y588009D02*
X358142Y589279D01*
X355602D01*
X354333Y588009D01*
Y586740D01*
X355602Y585470D01*
X358142D01*
X359411Y584200D01*
Y582931D01*
X358142Y581661D01*
X355602D01*
X354333Y582931D01*
X361950Y589279D02*
Y581661D01*
X364490Y584200D01*
X367029Y581661D01*
Y589279D01*
X369568Y581661D02*
X372107D01*
X370838D01*
Y589279D01*
X369568Y588009D01*
X204557Y568963D02*
X196939D01*
Y572772D01*
X198209Y574042D01*
X200748D01*
X202017Y572772D01*
Y568963D01*
Y571502D02*
X204557Y574042D01*
X196939Y581659D02*
X198209Y579120D01*
X200748Y576581D01*
X203287D01*
X204557Y577850D01*
Y580390D01*
X203287Y581659D01*
X202017D01*
X200748Y580390D01*
Y576581D01*
X204557Y584198D02*
Y586738D01*
Y585468D01*
X196939D01*
X198209Y584198D01*
X191628Y567694D02*
X184010D01*
Y571502D01*
X185280Y572772D01*
X187819D01*
X189089Y571502D01*
Y567694D01*
Y570233D02*
X191628Y572772D01*
X184010Y580390D02*
X185280Y577850D01*
X187819Y575311D01*
X190358D01*
X191628Y576581D01*
Y579120D01*
X190358Y580390D01*
X189089D01*
X187819Y579120D01*
Y575311D01*
X185280Y582929D02*
X184010Y584198D01*
Y586738D01*
X185280Y588007D01*
X190358D01*
X191628Y586738D01*
Y584198D01*
X190358Y582929D01*
X185280D01*
X129543Y462281D02*
Y469899D01*
X133352D01*
X134622Y468629D01*
Y466090D01*
X133352Y464820D01*
X129543D01*
X132083D02*
X134622Y462281D01*
X142239Y469899D02*
X137161D01*
Y466090D01*
X139700Y467360D01*
X140970D01*
X142239Y466090D01*
Y463551D01*
X140970Y462281D01*
X138430D01*
X137161Y463551D01*
X144778D02*
X146048Y462281D01*
X148587D01*
X149857Y463551D01*
Y468629D01*
X148587Y469899D01*
X146048D01*
X144778Y468629D01*
Y467360D01*
X146048Y466090D01*
X149857D01*
X198491Y438839D02*
Y446456D01*
X202300D01*
X203570Y445187D01*
Y442647D01*
X202300Y441378D01*
X198491D01*
X201030D02*
X203570Y438839D01*
X211187Y446456D02*
X206109D01*
Y442647D01*
X208648Y443917D01*
X209917D01*
X211187Y442647D01*
Y440108D01*
X209917Y438839D01*
X207378D01*
X206109Y440108D01*
X213726Y445187D02*
X214996Y446456D01*
X217535D01*
X218804Y445187D01*
Y443917D01*
X217535Y442647D01*
X218804Y441378D01*
Y440108D01*
X217535Y438839D01*
X214996D01*
X213726Y440108D01*
Y441378D01*
X214996Y442647D01*
X213726Y443917D01*
Y445187D01*
X214996Y442647D02*
X217535D01*
X178699Y568537D02*
X171081D01*
Y572346D01*
X172351Y573615D01*
X174890D01*
X176160Y572346D01*
Y568537D01*
Y571076D02*
X178699Y573615D01*
X171081Y581233D02*
Y576154D01*
X174890D01*
X173621Y578694D01*
Y579963D01*
X174890Y581233D01*
X177429D01*
X178699Y579963D01*
Y577424D01*
X177429Y576154D01*
X171081Y583772D02*
Y588850D01*
X172351D01*
X177429Y583772D01*
X178699D01*
X211152Y483249D02*
X203535D01*
Y487057D01*
X204804Y488327D01*
X207343D01*
X208613Y487057D01*
Y483249D01*
Y485788D02*
X211152Y488327D01*
X203535Y495945D02*
Y490866D01*
X207343D01*
X206074Y493405D01*
Y494675D01*
X207343Y495945D01*
X209883D01*
X211152Y494675D01*
Y492136D01*
X209883Y490866D01*
X203535Y503562D02*
X204804Y501023D01*
X207343Y498484D01*
X209883D01*
X211152Y499753D01*
Y502292D01*
X209883Y503562D01*
X208613D01*
X207343Y502292D01*
Y498484D01*
X222656Y482537D02*
X215038D01*
Y486346D01*
X216308Y487615D01*
X218847D01*
X220117Y486346D01*
Y482537D01*
Y485076D02*
X222656Y487615D01*
X215038Y495233D02*
Y490155D01*
X218847D01*
X217577Y492694D01*
Y493963D01*
X218847Y495233D01*
X221386D01*
X222656Y493963D01*
Y491424D01*
X221386Y490155D01*
X215038Y502850D02*
Y497772D01*
X218847D01*
X217577Y500311D01*
Y501581D01*
X218847Y502850D01*
X221386D01*
X222656Y501581D01*
Y499042D01*
X221386Y497772D01*
X142418Y571031D02*
Y578648D01*
X146227D01*
X147496Y577379D01*
Y574840D01*
X146227Y573570D01*
X142418D01*
X144957D02*
X147496Y571031D01*
X155114Y578648D02*
X150035D01*
Y574840D01*
X152575Y576109D01*
X153844D01*
X155114Y574840D01*
Y572300D01*
X153844Y571031D01*
X151305D01*
X150035Y572300D01*
X161462Y571031D02*
Y578648D01*
X157653Y574840D01*
X162731D01*
X142669Y560418D02*
Y568036D01*
X146477D01*
X147747Y566766D01*
Y564227D01*
X146477Y562957D01*
X142669D01*
X145208D02*
X147747Y560418D01*
X155365Y568036D02*
X150286D01*
Y564227D01*
X152825Y565497D01*
X154095D01*
X155365Y564227D01*
Y561688D01*
X154095Y560418D01*
X151556D01*
X150286Y561688D01*
X157904Y560418D02*
X160443D01*
X159173D01*
Y568036D01*
X157904Y566766D01*
X138433Y532343D02*
X130816D01*
Y536152D01*
X132085Y537421D01*
X134624D01*
X135894Y536152D01*
Y532343D01*
Y534882D02*
X138433Y537421D01*
X130816Y545039D02*
Y539960D01*
X134624D01*
X133355Y542500D01*
Y543769D01*
X134624Y545039D01*
X137164D01*
X138433Y543769D01*
Y541230D01*
X137164Y539960D01*
X132085Y547578D02*
X130816Y548847D01*
Y551387D01*
X132085Y552656D01*
X137164D01*
X138433Y551387D01*
Y548847D01*
X137164Y547578D01*
X132085D01*
X129543Y425451D02*
Y433069D01*
X133352D01*
X134622Y431799D01*
Y429260D01*
X133352Y427990D01*
X129543D01*
X132083D02*
X134622Y425451D01*
X140970D02*
Y433069D01*
X137161Y429260D01*
X142239D01*
X144778Y426721D02*
X146048Y425451D01*
X148587D01*
X149857Y426721D01*
Y431799D01*
X148587Y433069D01*
X146048D01*
X144778Y431799D01*
Y430530D01*
X146048Y429260D01*
X149857D01*
X652875Y256482D02*
X645257D01*
Y260291D01*
X646527Y261560D01*
X649066D01*
X650336Y260291D01*
Y256482D01*
Y259021D02*
X652875Y261560D01*
Y267908D02*
X645257D01*
X649066Y264100D01*
Y269178D01*
X645257Y271717D02*
Y276796D01*
X646527D01*
X651605Y271717D01*
X652875D01*
X595905Y229215D02*
X588288D01*
Y233024D01*
X589557Y234294D01*
X592096D01*
X593366Y233024D01*
Y229215D01*
Y231755D02*
X595905Y234294D01*
Y240642D02*
X588288D01*
X592096Y236833D01*
Y241911D01*
X588288Y249529D02*
X589557Y246990D01*
X592096Y244450D01*
X594636D01*
X595905Y245720D01*
Y248259D01*
X594636Y249529D01*
X593366D01*
X592096Y248259D01*
Y244450D01*
X525590Y353613D02*
X517972D01*
Y357422D01*
X519242Y358692D01*
X521781D01*
X523051Y357422D01*
Y353613D01*
Y356152D02*
X525590Y358692D01*
Y365040D02*
X517972D01*
X521781Y361231D01*
Y366309D01*
X517972Y373927D02*
Y368848D01*
X521781D01*
X520512Y371387D01*
Y372657D01*
X521781Y373927D01*
X524320D01*
X525590Y372657D01*
Y370118D01*
X524320Y368848D01*
X527124Y378326D02*
Y385944D01*
X530933D01*
X532202Y384674D01*
Y382135D01*
X530933Y380865D01*
X527124D01*
X529663D02*
X532202Y378326D01*
X538550D02*
Y385944D01*
X534742Y382135D01*
X539820D01*
X546168Y378326D02*
Y385944D01*
X542359Y382135D01*
X547437D01*
X298453Y67311D02*
Y74929D01*
X302262D01*
X303532Y73659D01*
Y71120D01*
X302262Y69850D01*
X298453D01*
X300993D02*
X303532Y67311D01*
X309880D02*
Y74929D01*
X306071Y71120D01*
X311149D01*
X313688Y73659D02*
X314958Y74929D01*
X317497D01*
X318767Y73659D01*
Y72390D01*
X317497Y71120D01*
X316228D01*
X317497D01*
X318767Y69850D01*
Y68581D01*
X317497Y67311D01*
X314958D01*
X313688Y68581D01*
X288547Y115063D02*
Y122681D01*
X292356D01*
X293626Y121411D01*
Y118872D01*
X292356Y117602D01*
X288547D01*
X291087D02*
X293626Y115063D01*
X299974D02*
Y122681D01*
X296165Y118872D01*
X301243D01*
X303782Y121411D02*
X305052Y122681D01*
X307591D01*
X308861Y121411D01*
Y116333D01*
X307591Y115063D01*
X305052D01*
X303782Y116333D01*
Y121411D01*
X730104Y253504D02*
Y261122D01*
X733913D01*
X735182Y259852D01*
Y257313D01*
X733913Y256043D01*
X730104D01*
X732643D02*
X735182Y253504D01*
X737721Y259852D02*
X738991Y261122D01*
X741530D01*
X742800Y259852D01*
Y258582D01*
X741530Y257313D01*
X740260D01*
X741530D01*
X742800Y256043D01*
Y254774D01*
X741530Y253504D01*
X738991D01*
X737721Y254774D01*
X745339Y259852D02*
X746608Y261122D01*
X749148D01*
X750417Y259852D01*
Y258582D01*
X749148Y257313D01*
X750417Y256043D01*
Y254774D01*
X749148Y253504D01*
X746608D01*
X745339Y254774D01*
Y256043D01*
X746608Y257313D01*
X745339Y258582D01*
Y259852D01*
X746608Y257313D02*
X749148D01*
X699747Y246719D02*
X692129D01*
Y250528D01*
X693399Y251797D01*
X695938D01*
X697208Y250528D01*
Y246719D01*
Y249258D02*
X699747Y251797D01*
X693399Y254336D02*
X692129Y255606D01*
Y258145D01*
X693399Y259415D01*
X694669D01*
X695938Y258145D01*
Y256875D01*
Y258145D01*
X697208Y259415D01*
X698477D01*
X699747Y258145D01*
Y255606D01*
X698477Y254336D01*
X692129Y261954D02*
Y267032D01*
X693399D01*
X698477Y261954D01*
X699747D01*
X675006Y256648D02*
X667389D01*
Y260457D01*
X668658Y261727D01*
X671197D01*
X672467Y260457D01*
Y256648D01*
Y259188D02*
X675006Y261727D01*
X668658Y264266D02*
X667389Y265536D01*
Y268075D01*
X668658Y269344D01*
X669928D01*
X671197Y268075D01*
Y266805D01*
Y268075D01*
X672467Y269344D01*
X673736D01*
X675006Y268075D01*
Y265536D01*
X673736Y264266D01*
X667389Y276962D02*
Y271884D01*
X671197D01*
X669928Y274423D01*
Y275692D01*
X671197Y276962D01*
X673736D01*
X675006Y275692D01*
Y273153D01*
X673736Y271884D01*
X664572Y256312D02*
X656954D01*
Y260121D01*
X658224Y261390D01*
X660763D01*
X662032Y260121D01*
Y256312D01*
Y258851D02*
X664572Y261390D01*
X658224Y263929D02*
X656954Y265199D01*
Y267738D01*
X658224Y269008D01*
X659493D01*
X660763Y267738D01*
Y266469D01*
Y267738D01*
X662032Y269008D01*
X663302D01*
X664572Y267738D01*
Y265199D01*
X663302Y263929D01*
X664572Y275356D02*
X656954D01*
X660763Y271547D01*
Y276625D01*
X372113Y97791D02*
Y105409D01*
X375922D01*
X377192Y104139D01*
Y101600D01*
X375922Y100330D01*
X372113D01*
X374652D02*
X377192Y97791D01*
X384809D02*
X379731D01*
X384809Y102870D01*
Y104139D01*
X383540Y105409D01*
X381000D01*
X379731Y104139D01*
X387348D02*
X388618Y105409D01*
X391157D01*
X392427Y104139D01*
Y102870D01*
X391157Y101600D01*
X392427Y100330D01*
Y99061D01*
X391157Y97791D01*
X388618D01*
X387348Y99061D01*
Y100330D01*
X388618Y101600D01*
X387348Y102870D01*
Y104139D01*
X388618Y101600D02*
X391157D01*
X298498Y57769D02*
Y65386D01*
X302307D01*
X303576Y64117D01*
Y61577D01*
X302307Y60308D01*
X298498D01*
X301037D02*
X303576Y57769D01*
X311194D02*
X306115D01*
X311194Y62847D01*
Y64117D01*
X309924Y65386D01*
X307385D01*
X306115Y64117D01*
X313733Y65386D02*
X318811D01*
Y64117D01*
X313733Y59038D01*
Y57769D01*
X449977Y212921D02*
Y220539D01*
X453786D01*
X455056Y219269D01*
Y216730D01*
X453786Y215460D01*
X449977D01*
X452516D02*
X455056Y212921D01*
X462673D02*
X457595D01*
X462673Y217999D01*
Y219269D01*
X461403Y220539D01*
X458864D01*
X457595Y219269D01*
X470291Y220539D02*
X467751Y219269D01*
X465212Y216730D01*
Y214191D01*
X466482Y212921D01*
X469021D01*
X470291Y214191D01*
Y215460D01*
X469021Y216730D01*
X465212D01*
X424183Y210821D02*
Y218439D01*
X427992D01*
X429262Y217169D01*
Y214630D01*
X427992Y213360D01*
X424183D01*
X426722D02*
X429262Y210821D01*
X436879D02*
X431801D01*
X436879Y215900D01*
Y217169D01*
X435610Y218439D01*
X433070D01*
X431801Y217169D01*
X444497Y218439D02*
X439418D01*
Y214630D01*
X441958Y215900D01*
X443227D01*
X444497Y214630D01*
Y212091D01*
X443227Y210821D01*
X440688D01*
X439418Y212091D01*
X399803Y183784D02*
Y191402D01*
X403612D01*
X404882Y190132D01*
Y187593D01*
X403612Y186324D01*
X399803D01*
X402343D02*
X404882Y183784D01*
X412499D02*
X407421D01*
X412499Y188863D01*
Y190132D01*
X411230Y191402D01*
X408690D01*
X407421Y190132D01*
X418847Y183784D02*
Y191402D01*
X415038Y187593D01*
X420117D01*
X403406Y405681D02*
Y413299D01*
X407215D01*
X408484Y412029D01*
Y409490D01*
X407215Y408221D01*
X403406D01*
X405945D02*
X408484Y405681D01*
X411023D02*
X413563D01*
X412293D01*
Y413299D01*
X411023Y412029D01*
X417371Y413299D02*
X422450D01*
Y412029D01*
X417371Y406951D01*
Y405681D01*
X320678Y466091D02*
Y473709D01*
X324487D01*
X325756Y472439D01*
Y469900D01*
X324487Y468630D01*
X320678D01*
X323217D02*
X325756Y466091D01*
X328296D02*
X330835D01*
X329565D01*
Y473709D01*
X328296Y472439D01*
X339722Y466091D02*
X334644D01*
X339722Y471170D01*
Y472439D01*
X338452Y473709D01*
X335913D01*
X334644Y472439D01*
X300209Y493745D02*
Y501362D01*
X304018D01*
X305287Y500093D01*
Y497554D01*
X304018Y496284D01*
X300209D01*
X302748D02*
X305287Y493745D01*
X307827D02*
X310366D01*
X309096D01*
Y501362D01*
X307827Y500093D01*
X314175Y493745D02*
X316714D01*
X315444D01*
Y501362D01*
X314175Y500093D01*
X416125Y490547D02*
Y498165D01*
X419934D01*
X421203Y496895D01*
Y494356D01*
X419934Y493087D01*
X416125D01*
X418664D02*
X421203Y490547D01*
X423742D02*
X426282D01*
X425012D01*
Y498165D01*
X423742Y496895D01*
X430090D02*
X431360Y498165D01*
X433899D01*
X435169Y496895D01*
Y491817D01*
X433899Y490547D01*
X431360D01*
X430090Y491817D01*
Y496895D01*
X302196Y479899D02*
Y487517D01*
X306004D01*
X307274Y486247D01*
Y483708D01*
X306004Y482438D01*
X302196D01*
X304735D02*
X307274Y479899D01*
X309813Y481169D02*
X311083Y479899D01*
X313622D01*
X314891Y481169D01*
Y486247D01*
X313622Y487517D01*
X311083D01*
X309813Y486247D01*
Y484977D01*
X311083Y483708D01*
X314891D01*
X497219Y470233D02*
X489602D01*
Y474041D01*
X490872Y475311D01*
X493411D01*
X494680Y474041D01*
Y470233D01*
Y472772D02*
X497219Y475311D01*
X490872Y477850D02*
X489602Y479120D01*
Y481659D01*
X490872Y482929D01*
X492141D01*
X493411Y481659D01*
X494680Y482929D01*
X495950D01*
X497219Y481659D01*
Y479120D01*
X495950Y477850D01*
X494680D01*
X493411Y479120D01*
X492141Y477850D01*
X490872D01*
X493411Y479120D02*
Y481659D01*
X496694Y491257D02*
X489076D01*
Y495066D01*
X490346Y496335D01*
X492885D01*
X494155Y495066D01*
Y491257D01*
Y493796D02*
X496694Y496335D01*
X489076Y498874D02*
Y503953D01*
X490346D01*
X495424Y498874D01*
X496694D01*
X463549Y452122D02*
X455931D01*
Y455931D01*
X457201Y457200D01*
X459740D01*
X461010Y455931D01*
Y452122D01*
Y454661D02*
X463549Y457200D01*
X455931Y464818D02*
X457201Y462279D01*
X459740Y459740D01*
X462279D01*
X463549Y461009D01*
Y463548D01*
X462279Y464818D01*
X461010D01*
X459740Y463548D01*
Y459740D01*
X236153Y533846D02*
X228535D01*
Y537655D01*
X229805Y538924D01*
X232344D01*
X233613Y537655D01*
Y533846D01*
Y536385D02*
X236153Y538924D01*
X228535Y546542D02*
Y541463D01*
X232344D01*
X231074Y544003D01*
Y545272D01*
X232344Y546542D01*
X234883D01*
X236153Y545272D01*
Y542733D01*
X234883Y541463D01*
X284479Y495302D02*
X276861D01*
Y499111D01*
X278131Y500380D01*
X280670D01*
X281940Y499111D01*
Y495302D01*
Y497841D02*
X284479Y500380D01*
Y506728D02*
X276861D01*
X280670Y502920D01*
Y507998D01*
X651235Y501942D02*
Y509560D01*
X655044D01*
X656313Y508290D01*
Y505751D01*
X655044Y504481D01*
X651235D01*
X653774D02*
X656313Y501942D01*
X658852Y508290D02*
X660122Y509560D01*
X662661D01*
X663931Y508290D01*
Y507020D01*
X662661Y505751D01*
X661392D01*
X662661D01*
X663931Y504481D01*
Y503212D01*
X662661Y501942D01*
X660122D01*
X658852Y503212D01*
X652376Y516281D02*
Y523899D01*
X656184D01*
X657454Y522629D01*
Y520090D01*
X656184Y518821D01*
X652376D01*
X654915D02*
X657454Y516281D01*
X665071D02*
X659993D01*
X665071Y521360D01*
Y522629D01*
X663802Y523899D01*
X661263D01*
X659993Y522629D01*
X439080Y493567D02*
Y501184D01*
X442888D01*
X444158Y499915D01*
Y497375D01*
X442888Y496106D01*
X439080D01*
X441619D02*
X444158Y493567D01*
X446697D02*
X449236D01*
X447967D01*
Y501184D01*
X446697Y499915D01*
X344170Y107951D02*
Y113029D01*
X342901Y114299D01*
X340362D01*
X339092Y113029D01*
Y107951D01*
X340362Y106681D01*
X342901D01*
X341631Y109220D02*
X344170Y106681D01*
X342901D02*
X344170Y107951D01*
X351788Y114299D02*
X346710D01*
Y110490D01*
X349249Y111760D01*
X350518D01*
X351788Y110490D01*
Y107951D01*
X350518Y106681D01*
X347979D01*
X346710Y107951D01*
X372110Y407671D02*
Y412749D01*
X370841Y414019D01*
X368302D01*
X367032Y412749D01*
Y407671D01*
X368302Y406401D01*
X370841D01*
X369571Y408940D02*
X372110Y406401D01*
X370841D02*
X372110Y407671D01*
X378458Y406401D02*
Y414019D01*
X374650Y410210D01*
X379728D01*
X267118Y407261D02*
Y412339D01*
X265848Y413609D01*
X263309D01*
X262040Y412339D01*
Y407261D01*
X263309Y405991D01*
X265848D01*
X264579Y408530D02*
X267118Y405991D01*
X265848D02*
X267118Y407261D01*
X269657Y412339D02*
X270927Y413609D01*
X273466D01*
X274735Y412339D01*
Y411069D01*
X273466Y409800D01*
X272196D01*
X273466D01*
X274735Y408530D01*
Y407261D01*
X273466Y405991D01*
X270927D01*
X269657Y407261D01*
X429620Y455232D02*
Y460310D01*
X428350Y461580D01*
X425811D01*
X424541Y460310D01*
Y455232D01*
X425811Y453962D01*
X428350D01*
X427080Y456501D02*
X429620Y453962D01*
X428350D02*
X429620Y455232D01*
X437237Y453962D02*
X432159D01*
X437237Y459040D01*
Y460310D01*
X435968Y461580D01*
X433428D01*
X432159Y460310D01*
X323409Y407870D02*
Y412948D01*
X322139Y414218D01*
X319600D01*
X318330Y412948D01*
Y407870D01*
X319600Y406600D01*
X322139D01*
X320869Y409140D02*
X323409Y406600D01*
X322139D02*
X323409Y407870D01*
X325948Y406600D02*
X328487D01*
X327217D01*
Y414218D01*
X325948Y412948D01*
X652410Y221367D02*
X660028D01*
Y226446D01*
X652410Y234063D02*
Y228985D01*
X660028D01*
Y234063D01*
X656219Y228985D02*
Y231524D01*
X652410Y236602D02*
X660028D01*
Y240411D01*
X658758Y241681D01*
X653680D01*
X652410Y240411D01*
Y236602D01*
Y249298D02*
X653680Y246759D01*
X656219Y244220D01*
X658758D01*
X660028Y245490D01*
Y248029D01*
X658758Y249298D01*
X657488D01*
X656219Y248029D01*
Y244220D01*
X600910Y221872D02*
X608528D01*
Y226951D01*
X600910Y234568D02*
Y229490D01*
X608528D01*
Y234568D01*
X604719Y229490D02*
Y232029D01*
X600910Y237107D02*
X608528D01*
Y240916D01*
X607258Y242186D01*
X602180D01*
X600910Y240916D01*
Y237107D01*
Y249803D02*
Y244725D01*
X604719D01*
X603450Y247264D01*
Y248534D01*
X604719Y249803D01*
X607258D01*
X608528Y248534D01*
Y245994D01*
X607258Y244725D01*
X728730Y249655D02*
Y242038D01*
X733809D01*
X741426Y249655D02*
X736348D01*
Y242038D01*
X741426D01*
X736348Y245847D02*
X738887D01*
X743965Y249655D02*
Y242038D01*
X747774D01*
X749044Y243307D01*
Y248386D01*
X747774Y249655D01*
X743965D01*
X755392Y242038D02*
Y249655D01*
X751583Y245847D01*
X756661D01*
X266888Y65073D02*
X274505D01*
Y70152D01*
X266888Y77769D02*
Y72691D01*
X274505D01*
Y77769D01*
X270696Y72691D02*
Y75230D01*
X266888Y80308D02*
X274505D01*
Y84117D01*
X273236Y85387D01*
X268157D01*
X266888Y84117D01*
Y80308D01*
X268157Y87926D02*
X266888Y89195D01*
Y91735D01*
X268157Y93004D01*
X269427D01*
X270696Y91735D01*
Y90465D01*
Y91735D01*
X271966Y93004D01*
X273236D01*
X274505Y91735D01*
Y89195D01*
X273236Y87926D01*
X358171Y460712D02*
Y453094D01*
X363249D01*
X370866Y460712D02*
X365788D01*
Y453094D01*
X370866D01*
X365788Y456903D02*
X368327D01*
X373405Y460712D02*
Y453094D01*
X377214D01*
X378484Y454364D01*
Y459442D01*
X377214Y460712D01*
X373405D01*
X386101Y453094D02*
X381023D01*
X386101Y458173D01*
Y459442D01*
X384832Y460712D01*
X382293D01*
X381023Y459442D01*
X385293Y496129D02*
Y488511D01*
X390371D01*
X397988Y496129D02*
X392910D01*
Y488511D01*
X397988D01*
X392910Y492320D02*
X395449D01*
X400528Y496129D02*
Y488511D01*
X404336D01*
X405606Y489781D01*
Y494859D01*
X404336Y496129D01*
X400528D01*
X408145Y488511D02*
X410684D01*
X409415D01*
Y496129D01*
X408145Y494859D01*
X455932Y168909D02*
Y161291D01*
X461010D01*
X463550Y167639D02*
X464819Y168909D01*
X467358D01*
X468628Y167639D01*
Y166370D01*
X467358Y165100D01*
X466089D01*
X467358D01*
X468628Y163830D01*
Y162561D01*
X467358Y161291D01*
X464819D01*
X463550Y162561D01*
X498661Y293878D02*
Y286261D01*
X503740D01*
X511357D02*
X506279D01*
X511357Y291339D01*
Y292609D01*
X510087Y293878D01*
X507548D01*
X506279Y292609D01*
X515622Y552449D02*
Y544831D01*
X520700D01*
X523239D02*
X525778D01*
X524509D01*
Y552449D01*
X523239Y551179D01*
X100487Y424827D02*
X103027D01*
X101757D01*
Y431174D01*
X103027Y432444D01*
X104296D01*
X105566Y431174D01*
X92870Y424827D02*
X97948D01*
Y428635D01*
X95409Y427366D01*
X94139D01*
X92870Y428635D01*
Y431174D01*
X94139Y432444D01*
X96678D01*
X97948Y431174D01*
X426646Y112791D02*
X424106D01*
X425376D01*
Y106443D01*
X424106Y105173D01*
X422837D01*
X421567Y106443D01*
X432994Y105173D02*
Y112791D01*
X429185Y108982D01*
X434263D01*
X496570Y637539D02*
X494031D01*
X495301D01*
Y631191D01*
X494031Y629921D01*
X492762D01*
X491492Y631191D01*
X504188Y629921D02*
X499110D01*
X504188Y635000D01*
Y636269D01*
X502918Y637539D01*
X500379D01*
X499110Y636269D01*
X209550Y624839D02*
X207011D01*
X208280D01*
Y618491D01*
X207011Y617221D01*
X205741D01*
X204472Y618491D01*
X212089Y617221D02*
X214628D01*
X213359D01*
Y624839D01*
X212089Y623569D01*
X487681Y424181D02*
Y419103D01*
X491490D01*
Y421642D01*
Y419103D01*
X495299D01*
X487681Y426720D02*
X495299D01*
Y430529D01*
X494029Y431799D01*
X492760D01*
X491490Y430529D01*
Y426720D01*
Y430529D01*
X490220Y431799D01*
X488951D01*
X487681Y430529D01*
Y426720D01*
X495299Y434338D02*
Y436877D01*
Y435608D01*
X487681D01*
X488951Y434338D01*
X143512Y200659D02*
Y193041D01*
X147321D01*
X148590Y194311D01*
Y199389D01*
X147321Y200659D01*
X143512D01*
X154938Y193041D02*
Y200659D01*
X151130Y196850D01*
X156208D01*
X266024Y340942D02*
Y333324D01*
X269833D01*
X271103Y334594D01*
Y339672D01*
X269833Y340942D01*
X266024D01*
X273642Y339672D02*
X274911Y340942D01*
X277451D01*
X278720Y339672D01*
Y338403D01*
X277451Y337133D01*
X276181D01*
X277451D01*
X278720Y335864D01*
Y334594D01*
X277451Y333324D01*
X274911D01*
X273642Y334594D01*
X139702Y345947D02*
Y338329D01*
X143511D01*
X144780Y339599D01*
Y344677D01*
X143511Y345947D01*
X139702D01*
X152398Y338329D02*
X147320D01*
X152398Y343408D01*
Y344677D01*
X151128Y345947D01*
X148589D01*
X147320Y344677D01*
X266702Y196849D02*
Y189231D01*
X270510D01*
X271780Y190501D01*
Y195579D01*
X270510Y196849D01*
X266702D01*
X274319Y189231D02*
X276858D01*
X275589D01*
Y196849D01*
X274319Y195579D01*
X213362Y187451D02*
X212092Y188721D01*
X209553D01*
X208283Y187451D01*
Y182373D01*
X209553Y181103D01*
X212092D01*
X213362Y182373D01*
X215901Y187451D02*
X217170Y188721D01*
X219710D01*
X220979Y187451D01*
Y186182D01*
X219710Y184912D01*
X220979Y183642D01*
Y182373D01*
X219710Y181103D01*
X217170D01*
X215901Y182373D01*
Y183642D01*
X217170Y184912D01*
X215901Y186182D01*
Y187451D01*
X217170Y184912D02*
X219710D01*
X228597Y181103D02*
X223518D01*
X228597Y186182D01*
Y187451D01*
X227327Y188721D01*
X224788D01*
X223518Y187451D01*
X340882Y333641D02*
X339613Y334911D01*
X337074D01*
X335804Y333641D01*
Y328563D01*
X337074Y327293D01*
X339613D01*
X340882Y328563D01*
X343422Y333641D02*
X344691Y334911D01*
X347230D01*
X348500Y333641D01*
Y332371D01*
X347230Y331102D01*
X348500Y329832D01*
Y328563D01*
X347230Y327293D01*
X344691D01*
X343422Y328563D01*
Y329832D01*
X344691Y331102D01*
X343422Y332371D01*
Y333641D01*
X344691Y331102D02*
X347230D01*
X351039Y327293D02*
X353578D01*
X352309D01*
Y334911D01*
X351039Y333641D01*
X174902Y190129D02*
X173632Y188859D01*
Y186320D01*
X174902Y185050D01*
X179980D01*
X181250Y186320D01*
Y188859D01*
X179980Y190129D01*
X173632Y192668D02*
Y197746D01*
X174902D01*
X179980Y192668D01*
X181250D01*
X174902Y200285D02*
X173632Y201555D01*
Y204094D01*
X174902Y205364D01*
X176171D01*
X177441Y204094D01*
X178710Y205364D01*
X179980D01*
X181250Y204094D01*
Y201555D01*
X179980Y200285D01*
X178710D01*
X177441Y201555D01*
X176171Y200285D01*
X174902D01*
X177441Y201555D02*
Y204094D01*
X301975Y336154D02*
X300706Y337424D01*
X298167D01*
X296897Y336154D01*
Y331076D01*
X298167Y329806D01*
X300706D01*
X301975Y331076D01*
X304515Y337424D02*
X309593D01*
Y336154D01*
X304515Y331076D01*
Y329806D01*
X312132Y337424D02*
X317211D01*
Y336154D01*
X312132Y331076D01*
Y329806D01*
X343918Y190245D02*
X342648Y191515D01*
X340109D01*
X338839Y190245D01*
Y185167D01*
X340109Y183897D01*
X342648D01*
X343918Y185167D01*
X346457Y191515D02*
X351535D01*
Y190245D01*
X346457Y185167D01*
Y183897D01*
X359153D02*
X354074D01*
X359153Y188976D01*
Y190245D01*
X357883Y191515D01*
X355344D01*
X354074Y190245D01*
X235329Y309179D02*
X234060Y310449D01*
X231521D01*
X230251Y309179D01*
Y304101D01*
X231521Y302831D01*
X234060D01*
X235329Y304101D01*
X237869Y310449D02*
X242947D01*
Y309179D01*
X237869Y304101D01*
Y302831D01*
X245486D02*
X248025D01*
X246756D01*
Y310449D01*
X245486Y309179D01*
X174064Y338835D02*
X172794Y340104D01*
X170255D01*
X168985Y338835D01*
Y333756D01*
X170255Y332487D01*
X172794D01*
X174064Y333756D01*
X181681Y340104D02*
X179142Y338835D01*
X176603Y336295D01*
Y333756D01*
X177873Y332487D01*
X180412D01*
X181681Y333756D01*
Y335026D01*
X180412Y336295D01*
X176603D01*
X184220Y338835D02*
X185490Y340104D01*
X188029D01*
X189299Y338835D01*
Y337565D01*
X188029Y336295D01*
X189299Y335026D01*
Y333756D01*
X188029Y332487D01*
X185490D01*
X184220Y333756D01*
Y335026D01*
X185490Y336295D01*
X184220Y337565D01*
Y338835D01*
X185490Y336295D02*
X188029D01*
X303532Y187959D02*
X302262Y189229D01*
X299723D01*
X298453Y187959D01*
Y182881D01*
X299723Y181611D01*
X302262D01*
X303532Y182881D01*
X311149Y189229D02*
X308610Y187959D01*
X306071Y185420D01*
Y182881D01*
X307340Y181611D01*
X309880D01*
X311149Y182881D01*
Y184150D01*
X309880Y185420D01*
X306071D01*
X313688Y189229D02*
X318767D01*
Y187959D01*
X313688Y182881D01*
Y181611D01*
X146902Y556918D02*
X145632Y558187D01*
X143093D01*
X141824Y556918D01*
Y551840D01*
X143093Y550570D01*
X145632D01*
X146902Y551840D01*
X154519Y558187D02*
X151980Y556918D01*
X149441Y554379D01*
Y551840D01*
X150711Y550570D01*
X153250D01*
X154519Y551840D01*
Y553109D01*
X153250Y554379D01*
X149441D01*
X162137Y558187D02*
X159598Y556918D01*
X157059Y554379D01*
Y551840D01*
X158328Y550570D01*
X160867D01*
X162137Y551840D01*
Y553109D01*
X160867Y554379D01*
X157059D01*
X156797Y412183D02*
X155527Y413452D01*
X152988D01*
X151718Y412183D01*
Y407105D01*
X152988Y405835D01*
X155527D01*
X156797Y407105D01*
X164414Y413452D02*
X161875Y412183D01*
X159336Y409644D01*
Y407105D01*
X160606Y405835D01*
X163145D01*
X164414Y407105D01*
Y408374D01*
X163145Y409644D01*
X159336D01*
X172032Y413452D02*
X166953D01*
Y409644D01*
X169493Y410913D01*
X170762D01*
X172032Y409644D01*
Y407105D01*
X170762Y405835D01*
X168223D01*
X166953Y407105D01*
X182091Y412404D02*
X180821Y413673D01*
X178282D01*
X177013Y412404D01*
Y407325D01*
X178282Y406056D01*
X180821D01*
X182091Y407325D01*
X189708Y413673D02*
X187169Y412404D01*
X184630Y409865D01*
Y407325D01*
X185900Y406056D01*
X188439D01*
X189708Y407325D01*
Y408595D01*
X188439Y409865D01*
X184630D01*
X192248Y412404D02*
X193517Y413673D01*
X196056D01*
X197326Y412404D01*
Y411134D01*
X196056Y409865D01*
X194787D01*
X196056D01*
X197326Y408595D01*
Y407325D01*
X196056Y406056D01*
X193517D01*
X192248Y407325D01*
X624841Y454662D02*
X623571Y453392D01*
Y450853D01*
X624841Y449583D01*
X629919D01*
X631189Y450853D01*
Y453392D01*
X629919Y454662D01*
X623571Y462279D02*
Y457201D01*
X627380D01*
X626110Y459740D01*
Y461010D01*
X627380Y462279D01*
X629919D01*
X631189Y461010D01*
Y458470D01*
X629919Y457201D01*
X624841Y464818D02*
X623571Y466088D01*
Y468627D01*
X624841Y469897D01*
X626110D01*
X627380Y468627D01*
X628650Y469897D01*
X629919D01*
X631189Y468627D01*
Y466088D01*
X629919Y464818D01*
X628650D01*
X627380Y466088D01*
X626110Y464818D01*
X624841D01*
X627380Y466088D02*
Y468627D01*
X533449Y293577D02*
X532179Y294847D01*
X529640D01*
X528370Y293577D01*
Y288499D01*
X529640Y287229D01*
X532179D01*
X533449Y288499D01*
X541066Y294847D02*
X535988D01*
Y291038D01*
X538527Y292308D01*
X539797D01*
X541066Y291038D01*
Y288499D01*
X539797Y287229D01*
X537257D01*
X535988Y288499D01*
X548684Y294847D02*
X543605D01*
Y291038D01*
X546144Y292308D01*
X547414D01*
X548684Y291038D01*
Y288499D01*
X547414Y287229D01*
X544875D01*
X543605Y288499D01*
X659131Y455932D02*
X657861Y454662D01*
Y452123D01*
X659131Y450853D01*
X664209D01*
X665479Y452123D01*
Y454662D01*
X664209Y455932D01*
X657861Y463549D02*
Y458471D01*
X661670D01*
X660400Y461010D01*
Y462280D01*
X661670Y463549D01*
X664209D01*
X665479Y462280D01*
Y459740D01*
X664209Y458471D01*
X665479Y469897D02*
X657861D01*
X661670Y466088D01*
Y471167D01*
X506355Y401128D02*
X505086Y402398D01*
X502547D01*
X501277Y401128D01*
Y396050D01*
X502547Y394780D01*
X505086D01*
X506355Y396050D01*
X513973Y402398D02*
X508895D01*
Y398589D01*
X511434Y399859D01*
X512703D01*
X513973Y398589D01*
Y396050D01*
X512703Y394780D01*
X510164D01*
X508895Y396050D01*
X521590Y394780D02*
X516512D01*
X521590Y399859D01*
Y401128D01*
X520321Y402398D01*
X517782D01*
X516512Y401128D01*
X551181Y447041D02*
X549911Y445772D01*
Y443232D01*
X551181Y441963D01*
X556259D01*
X557529Y443232D01*
Y445772D01*
X556259Y447041D01*
X549911Y454659D02*
Y449580D01*
X553720D01*
X552450Y452120D01*
Y453389D01*
X553720Y454659D01*
X556259D01*
X557529Y453389D01*
Y450850D01*
X556259Y449580D01*
X557529Y457198D02*
Y459737D01*
Y458467D01*
X549911D01*
X551181Y457198D01*
X258384Y74524D02*
X257114Y73255D01*
Y70715D01*
X258384Y69446D01*
X263462D01*
X264731Y70715D01*
Y73255D01*
X263462Y74524D01*
X257114Y82142D02*
Y77063D01*
X260923D01*
X259653Y79602D01*
Y80872D01*
X260923Y82142D01*
X263462D01*
X264731Y80872D01*
Y78333D01*
X263462Y77063D01*
X258384Y84681D02*
X257114Y85950D01*
Y88490D01*
X258384Y89759D01*
X263462D01*
X264731Y88490D01*
Y85950D01*
X263462Y84681D01*
X258384D01*
X318093Y121338D02*
X316824Y122607D01*
X314284D01*
X313015Y121338D01*
Y116259D01*
X314284Y114990D01*
X316824D01*
X318093Y116259D01*
X324441Y114990D02*
Y122607D01*
X320632Y118799D01*
X325711D01*
X328250Y116259D02*
X329520Y114990D01*
X332059D01*
X333328Y116259D01*
Y121338D01*
X332059Y122607D01*
X329520D01*
X328250Y121338D01*
Y120068D01*
X329520Y118799D01*
X333328D01*
X736602Y157479D02*
X735332Y158749D01*
X732793D01*
X731523Y157479D01*
Y152401D01*
X732793Y151131D01*
X735332D01*
X736602Y152401D01*
X742950Y151131D02*
Y158749D01*
X739141Y154940D01*
X744219D01*
X746758Y157479D02*
X748028Y158749D01*
X750567D01*
X751837Y157479D01*
Y156210D01*
X750567Y154940D01*
X751837Y153670D01*
Y152401D01*
X750567Y151131D01*
X748028D01*
X746758Y152401D01*
Y153670D01*
X748028Y154940D01*
X746758Y156210D01*
Y157479D01*
X748028Y154940D02*
X750567D01*
X406000Y121896D02*
X404731Y120626D01*
Y118087D01*
X406000Y116818D01*
X411079D01*
X412348Y118087D01*
Y120626D01*
X411079Y121896D01*
X412348Y129514D02*
Y124435D01*
X407270Y129514D01*
X406000D01*
X404731Y128244D01*
Y125705D01*
X406000Y124435D01*
Y132053D02*
X404731Y133322D01*
Y135862D01*
X406000Y137131D01*
X407270D01*
X408539Y135862D01*
Y134592D01*
Y135862D01*
X409809Y137131D01*
X411079D01*
X412348Y135862D01*
Y133322D01*
X411079Y132053D01*
X426156Y121826D02*
X424886Y120556D01*
Y118017D01*
X426156Y116748D01*
X431234D01*
X432504Y118017D01*
Y120556D01*
X431234Y121826D01*
X432504Y129444D02*
Y124365D01*
X427426Y129444D01*
X426156D01*
X424886Y128174D01*
Y125635D01*
X426156Y124365D01*
X432504Y137061D02*
Y131983D01*
X427426Y137061D01*
X426156D01*
X424886Y135792D01*
Y133252D01*
X426156Y131983D01*
X402800Y232568D02*
X401530Y233838D01*
X398991D01*
X397721Y232568D01*
Y227490D01*
X398991Y226220D01*
X401530D01*
X402800Y227490D01*
X410417Y226220D02*
X405339D01*
X410417Y231299D01*
Y232568D01*
X409148Y233838D01*
X406609D01*
X405339Y232568D01*
X412957Y226220D02*
X415496D01*
X414226D01*
Y233838D01*
X412957Y232568D01*
X401643Y252888D02*
X400374Y254158D01*
X397835D01*
X396565Y252888D01*
Y247810D01*
X397835Y246540D01*
X400374D01*
X401643Y247810D01*
X409261Y246540D02*
X404183D01*
X409261Y251619D01*
Y252888D01*
X407991Y254158D01*
X405452D01*
X404183Y252888D01*
X411800D02*
X413070Y254158D01*
X415609D01*
X416878Y252888D01*
Y247810D01*
X415609Y246540D01*
X413070D01*
X411800Y247810D01*
Y252888D01*
X502146Y192622D02*
X500876Y193892D01*
X498337D01*
X497067Y192622D01*
Y187544D01*
X498337Y186274D01*
X500876D01*
X502146Y187544D01*
X504685Y186274D02*
X507224D01*
X505954D01*
Y193892D01*
X504685Y192622D01*
X511033Y193892D02*
X516111D01*
Y192622D01*
X511033Y187544D01*
Y186274D01*
X486931Y410106D02*
X485662Y411376D01*
X483123D01*
X481853Y410106D01*
Y405028D01*
X483123Y403758D01*
X485662D01*
X486931Y405028D01*
X489470Y403758D02*
X492010D01*
X490740D01*
Y411376D01*
X489470Y410106D01*
X500897Y411376D02*
X495818D01*
Y407567D01*
X498358Y408836D01*
X499627D01*
X500897Y407567D01*
Y405028D01*
X499627Y403758D01*
X497088D01*
X495818Y405028D01*
X423144Y364302D02*
X421874Y365572D01*
X419335D01*
X418065Y364302D01*
Y359224D01*
X419335Y357954D01*
X421874D01*
X423144Y359224D01*
X425683Y357954D02*
X428222D01*
X426952D01*
Y365572D01*
X425683Y364302D01*
X435839Y357954D02*
Y365572D01*
X432031Y361763D01*
X437109D01*
X442199Y372575D02*
X440929Y373845D01*
X438390D01*
X437121Y372575D01*
Y367497D01*
X438390Y366227D01*
X440929D01*
X442199Y367497D01*
X444738Y366227D02*
X447277D01*
X446008D01*
Y373845D01*
X444738Y372575D01*
X451086D02*
X452356Y373845D01*
X454895D01*
X456165Y372575D01*
Y371306D01*
X454895Y370036D01*
X453625D01*
X454895D01*
X456165Y368767D01*
Y367497D01*
X454895Y366227D01*
X452356D01*
X451086Y367497D01*
X430806Y412151D02*
X429536Y413421D01*
X426997D01*
X425727Y412151D01*
Y407073D01*
X426997Y405804D01*
X429536D01*
X430806Y407073D01*
X433345Y405804D02*
X435884D01*
X434614D01*
Y413421D01*
X433345Y412151D01*
X444771Y405804D02*
X439693D01*
X444771Y410882D01*
Y412151D01*
X443501Y413421D01*
X440962D01*
X439693Y412151D01*
X401321Y340996D02*
X400051Y339726D01*
Y337187D01*
X401321Y335918D01*
X406399D01*
X407669Y337187D01*
Y339726D01*
X406399Y340996D01*
X407669Y343535D02*
Y346074D01*
Y344805D01*
X400051D01*
X401321Y343535D01*
X407669Y349883D02*
Y352422D01*
Y351153D01*
X400051D01*
X401321Y349883D01*
X392447Y390483D02*
X391177Y389213D01*
Y386674D01*
X392447Y385404D01*
X397525D01*
X398795Y386674D01*
Y389213D01*
X397525Y390483D01*
X398795Y393022D02*
Y395561D01*
Y394291D01*
X391177D01*
X392447Y393022D01*
Y399370D02*
X391177Y400639D01*
Y403178D01*
X392447Y404448D01*
X397525D01*
X398795Y403178D01*
Y400639D01*
X397525Y399370D01*
X392447D01*
X491091Y454765D02*
X489821Y456035D01*
X487282D01*
X486012Y454765D01*
Y449687D01*
X487282Y448417D01*
X489821D01*
X491091Y449687D01*
X493630D02*
X494899Y448417D01*
X497439D01*
X498708Y449687D01*
Y454765D01*
X497439Y456035D01*
X494899D01*
X493630Y454765D01*
Y453496D01*
X494899Y452226D01*
X498708D01*
X596900Y566419D02*
X595631Y567689D01*
X593092D01*
X591822Y566419D01*
Y561341D01*
X593092Y560071D01*
X595631D01*
X596900Y561341D01*
X599440Y566419D02*
X600709Y567689D01*
X603248D01*
X604518Y566419D01*
Y565150D01*
X603248Y563880D01*
X604518Y562610D01*
Y561341D01*
X603248Y560071D01*
X600709D01*
X599440Y561341D01*
Y562610D01*
X600709Y563880D01*
X599440Y565150D01*
Y566419D01*
X600709Y563880D02*
X603248D01*
X513080Y494029D02*
X511811Y495299D01*
X509272D01*
X508002Y494029D01*
Y488951D01*
X509272Y487681D01*
X511811D01*
X513080Y488951D01*
X515620Y495299D02*
X520698D01*
Y494029D01*
X515620Y488951D01*
Y487681D01*
X305067Y522137D02*
X303797Y520868D01*
Y518329D01*
X305067Y517059D01*
X310145D01*
X311415Y518329D01*
Y520868D01*
X310145Y522137D01*
X303797Y529755D02*
X305067Y527216D01*
X307606Y524676D01*
X310145D01*
X311415Y525946D01*
Y528485D01*
X310145Y529755D01*
X308876D01*
X307606Y528485D01*
Y524676D01*
X566420Y533399D02*
X565151Y534669D01*
X562612D01*
X561342Y533399D01*
Y528321D01*
X562612Y527051D01*
X565151D01*
X566420Y528321D01*
X574038Y534669D02*
X568960D01*
Y530860D01*
X571499Y532130D01*
X572768D01*
X574038Y530860D01*
Y528321D01*
X572768Y527051D01*
X570229D01*
X568960Y528321D01*
X473300Y568472D02*
X472030Y569742D01*
X469491D01*
X468222Y568472D01*
Y563394D01*
X469491Y562124D01*
X472030D01*
X473300Y563394D01*
X479648Y562124D02*
Y569742D01*
X475839Y565933D01*
X480917D01*
X447737Y585726D02*
X446468Y586996D01*
X443929D01*
X442659Y585726D01*
Y580648D01*
X443929Y579379D01*
X446468D01*
X447737Y580648D01*
X450277Y585726D02*
X451546Y586996D01*
X454085D01*
X455355Y585726D01*
Y584457D01*
X454085Y583187D01*
X452816D01*
X454085D01*
X455355Y581918D01*
Y580648D01*
X454085Y579379D01*
X451546D01*
X450277Y580648D01*
X407076Y529243D02*
X405806Y530512D01*
X403267D01*
X401997Y529243D01*
Y524164D01*
X403267Y522895D01*
X405806D01*
X407076Y524164D01*
X414693Y522895D02*
X409615D01*
X414693Y527973D01*
Y529243D01*
X413424Y530512D01*
X410885D01*
X409615Y529243D01*
X428281Y585506D02*
X427011Y586776D01*
X424472D01*
X423203Y585506D01*
Y580428D01*
X424472Y579158D01*
X427011D01*
X428281Y580428D01*
X430820Y579158D02*
X433359D01*
X432090D01*
Y586776D01*
X430820Y585506D01*
D18*
X394970Y50800D02*
Y101600D01*
Y50800D02*
X414020D01*
X648970D01*
Y101600D01*
X414020D02*
X648970D01*
X394970D02*
X414020D01*
D19*
X349250Y360172D02*
Y371094D01*
D20*
X640160Y232688D02*
Y234442D01*
X636270D02*
X644144D01*
X384153Y472077D02*
X385907D01*
Y468092D02*
Y475966D01*
D21*
X483870Y499371D02*
Y503929D01*
Y526814D02*
Y531371D01*
X451870Y526814D02*
Y531371D01*
Y499371D02*
X456428D01*
X451870D02*
Y503929D01*
X479313Y531371D02*
X483870D01*
X451870D02*
X456428D01*
X479313Y499371D02*
X483870D01*
D22*
X602940Y597854D02*
Y582619D01*
Y590237D01*
X613097D01*
Y597854D01*
Y582619D01*
X618175D02*
Y592776D01*
X623253Y597854D01*
X628332Y592776D01*
Y582619D01*
Y590237D01*
X618175D01*
X633410Y582619D02*
Y597854D01*
X643567Y582619D01*
Y597854D01*
X648645D02*
Y582619D01*
X656263D01*
X658802Y585158D01*
Y595315D01*
X656263Y597854D01*
X648645D01*
X663880Y580080D02*
X674037D01*
X679115Y597854D02*
Y587697D01*
X684194Y582619D01*
X689272Y587697D01*
Y597854D01*
X704507Y582619D02*
X694350D01*
X704507Y592776D01*
Y595315D01*
X701968Y597854D01*
X696890D01*
X694350Y595315D01*
X709585Y582619D02*
Y585158D01*
X712125D01*
Y582619D01*
X709585D01*
X722281Y595315D02*
X724820Y597854D01*
X729899D01*
X732438Y595315D01*
Y585158D01*
X729899Y582619D01*
X724820D01*
X722281Y585158D01*
Y595315D01*
M02*
