M48
;Layer_Color=9474304
;FILE_FORMAT=4:4
METRIC,LZ
;TYPE=PLATED
T1F00S00C0.1524
T2F00S00C0.2000
T3F00S00C0.2032
T4F00S00C0.2540
T5F00S00C0.3048
T7F00S00C1.1000
T8F00S00C3.0000
%
T01
X0073787Y001651
X0035052Y001604
Y001564
X0034652
X0034252
Y001484
X0034652
X0035052
Y001524
X0035452Y001444
X00220013Y00149291
X00216013
X00212013
Y00157291
X00216013
X00220013
Y00161291
Y00153291
X00208013Y00161291
X00213283Y00295853
X00217283
X00221283
Y00299853
Y00303853
X00217283
X00213283
X00209283Y00307853
X00221283
X00337553Y00307341
X00341553Y00303341
X00345553
X00349553
Y00299341
Y00295341
X00345553
X00341553
X00494919Y00275082
X00498348
X00501777
X00505206
Y00268351
X00501777
X00498348
X00494919
X00533281Y0043749
X00471987Y0050884
Y00515213
Y00521587
X00463986
Y00515213
Y0050884
X0052848Y0058325
Y0058817
Y0059309
X0053848
Y0058817
Y0058325
X00610869Y00513079
T02
X001667Y0044229
X001762
Y0045179
X001667
X00179967Y00517355
X00189467
Y00526855
X00179967
T03
X0044196Y0013843
Y0014986
Y0016002
Y00173366
Y00179832
X00443374Y00186894
X00448056Y00193988
X00452374Y00179324
X00464966Y00173335
Y00166604
Y00159873
X0049276Y0016002
Y0014986
Y0013843
X0050546Y00139628
Y00129628
Y00149627
X00513823Y00174244
Y00182245
X00521895Y00182272
X00529896
Y00174271
X00521895
X00518244Y00203543
X0051816Y00209138
X0052898
Y00204612
X00539882
X00574043Y00207717
X00556377Y0022812
X00547483Y00247603
X0053848Y00244742
X00574296Y00249261
X00610696Y0021209
Y0020023
X00627096Y00215685
Y00225685
X00647382Y00225171
X00657382
Y00215171
X00669546Y00204497
X0069723Y00223221
X00737352Y00239682
X00752138Y0023368
X00750454Y00228062
X00758455
X00763916
X0075946Y0018288
X00753272Y001651
X0075946Y0015748
Y0013208
Y0010668
X00725406Y00107107
Y00132507
X00727946Y00157907
X00694545Y00141553
Y00131572
Y00118863
Y00106153
X00666308
Y00118863
Y00131572
X0065532Y00143348
X00674749Y00148428
X00634245Y00152853
X00626244
Y00160854
X00634245
Y00168855
X00626244
X00638071Y00131572
Y00118863
Y00106153
X0065532Y0008382
X006985Y0006731
X00549863Y00077653
X0054991Y0013208
X0053991
X00584055Y00131553
X00594055
X00584055Y00143552
Y00151553
X00584058Y00159535
X00559468Y00157265
X00559667Y00164648
X00479552Y00191262
X00471932
X0046969Y00197993
Y00205994
X00470662Y0022606
X00462661
X0045466
Y0023495
X00462661
X00470662
X0048874Y0022606
X0041527Y00230029
X00407162Y00230124
Y00238887
Y0024765
X0041527Y00249079
X00422093Y0018669
X00429124Y00179262
X00432879Y00193988
X0040894Y00179262
Y00138558
Y00128558
X00406549Y00118604
X00429124Y00118558
Y00128558
Y00138558
X00364519Y00126379
X00350267Y00127359
Y00132185
Y00137011
X00344806Y0013409
Y00128629
X0032818Y00148195
X00323609Y00148251
X00319039
Y00156932
X00323609
X0032818
X00335191Y00171654
X00329438Y00179324
X00319024
X00307175
X00298071Y00198815
Y00208815
Y00218815
Y00228815
X0028448Y00228597
Y00218597
Y00208597
Y00198597
Y00188597
X00246619Y00174429
X00228198
Y00180619
Y00167041
Y00157786
X00226554Y00138834
X00212013Y00134981
Y0012825
Y00121519
X00204012
Y0012825
Y00134981
X00197673Y00149086
X00193102Y00149142
X00188532
Y00157823
X00193102
X00197673
X00204741Y00177021
X0018788Y00180292
X00173101Y00192493
X0016637
Y00202536
X00173101
Y00212579
X0016637
X00152557Y0021133
Y00219331
X00144556
Y0021133
Y0024133
Y00249331
X00152557
Y0024133
X0010255Y0025019
X0009038
X0007821
X0006604
Y0022479
X0007821
X0009038
X0010255
Y0019939
X0009038
X0007821
X0006604
Y0017399
X0007821
X0009038
X0010255
Y0014605
X0009038
X0007821
X0006604
X00065532Y00125984
X00077702
X00089872
X00065532Y00113284
Y00100584
X0013208Y00106299
X00137922Y00106426
Y00114427
X0013208Y001143
X0015494
X00160782Y00114427
Y00106426
X0015494Y00106299
X00168579Y00069676
X0017145Y0006096
X0019685
X0022479
X0025019
X0027559
X0030099
X0033909
X0036449
X00368705Y0008509
Y00093816
X00316528Y00094615
X00318773Y00103632
X00277144Y00091815
X002667Y00091868
X00238158Y00123719
X0014605Y0006096
X0012065
X00361496Y00159671
X00358845Y00169298
X00369325Y00176376
X00356986Y0027007
X00349691Y00269615
Y0027533
X0034296
Y00269615
Y00281045
Y0028676
X00356986Y00285477
X0036322Y00314908
Y00323988
X0035687Y00324148
X00350266Y00314908
X00335226Y00317044
X00330454Y00326644
X00319811Y00334238
X00309513
X00298695
X00290694
Y00345668
X00298695
Y00356336
X00290694
Y00367004
X00298695
Y00377004
X00290694
X00280694
Y00367004
X00247889Y00327639
X0023114
X00225148
X002032Y00324286
X00198882Y0033147
X00190881
X0018288
X00174081Y00335228
X00163746Y00339563
Y0034671
X0016383Y0035306
X00155829
X00155745Y0034671
Y00339563
X00146928
X00142429
Y0034671
X00146928
X00148149Y00310972
X00148058Y00302971
X00156059Y00302879
X0015615Y0031088
X00189802Y00304385
X00194372
X00199197
X00199197Y00295648
X00194372Y00295704
X00189802
X00214553Y00286103
Y00280651
Y002752
Y00269748
X00222554
Y002752
X00229164Y00269748
X0023241Y00287171
X00225612
X00247889Y00297866
X00318072Y00295192
X00322642
X00327213Y00295136
X00327213Y00303873
X00322642
X00318072
X00407162Y00265176
Y00256413
X0041817Y00265081
X0042867
X00426327Y00333896
X00418326
X00414202Y00375951
X00412932Y00382108
X00414163Y00455184
X00422164
X00429624
X00428398Y0044511
X00393756
X00376316Y00445999
X00370855
Y0045146
Y00456921
X00376316
Y0045146
X00385269Y00472888
X00406666Y004865
X0042799Y00493069
X00418106Y00552585
X00412645
Y00560586
X00418106
Y00568587
X00412645
Y00575539
X00418106
X00428035
X0039878Y00573385
Y00567924
X0038878
Y00573385
X0037878
Y00567924
X0036195Y0057912
X0035195
X0034195
X0035306Y0062484
X0034798Y0063881
X0037338
X0037846Y0062484
X0040386
X0039878Y0063881
X0042418
X0032766Y0062484
X0031242Y0063627
X0028702
X0026162
X0023622
X0020955
X0020828Y0061849
X0018288
X0018415Y0063627
X0015875
X0015748Y0061849
X0013208
X0013335Y0063627
X00118019Y00574329
X00119096Y00562689
Y00551809
X0012998
X00135187
X00143261
Y00560403
X00151981Y00560403
Y00551809
X00160279
X00160702Y00560403
X00174557Y00566101
X00187323
X00200089
X00191966Y00543134
X00182217Y00545535
X00143261Y00543215
X00135187
X0012998
Y00534622
X00135187
X00117006Y00538268
Y00526269
X001016Y00529269
X00101266Y00523003
X0010264Y00513688
X00097239
Y00504738
X00087441Y00499266
Y00493267
Y00487267
X00098262Y00488382
Y00481154
X00088379Y00467127
X00086614Y00451104
Y00445102
X00101982Y00445813
X00102402Y00454268
X00115736
X00123265Y00467218
X00129706Y00484268
X0012827Y0049657
X0011684
X00116698Y00489832
X00116191Y00508268
X00123915Y0050798
X00142279Y00501803
X00142205Y00517091
X00157609Y00496788
X00165129Y00501803
X00170613
X00188487
X00196719Y00508105
X0020498
X00205019Y00514605
X00211423Y00514598
X00213349Y00501803
X00223266Y00510993
X002322
X00240836Y0051075
X00246488
X00252139
X00257791
X00263442
X00274458Y00516372
X00291522Y005163
Y005251
X00303372
X00307594
X0031185Y0052514
Y00532602
X00303372Y00532284
X00304518Y00516372
X00312519
X0032052
X00323822Y00490774
X00345372Y00493988
X00357447Y00486251
X00343871Y00472888
X0035306Y0043561
X00324957Y00440527
X00302966Y00440665
Y0044511
X00297696
Y00440665
X00292425
Y0044511
X00290965Y00434594
X00297696
X0027305Y00488638
X0026583
X0025633
X0024683
X0024003
X00237026Y00505289
X00238125Y00557911
X00242062
X00246126
Y00563626
X00242062
X00238125
X0026416Y00559798
X00271739Y00565493
X00278011
X00281439Y00559798
X0027813Y00584333
X00269281Y00583597
X00263009
X0035433Y0053086
X00362331
X00370332
X00196438Y0047371
X00190228
X00180848
X0016895Y00467342
X00169062Y0048124
X0018542Y00434721
Y0042926
X00194472Y00429641
Y0042164
X00200469Y0043304
X00174498Y00412242
X00167913Y00414382
X0015113Y0042923
Y00435958
X00134854
X0012498Y00435237
X00134857Y0044863
X00096241Y00428931
X00087912Y00429143
X0006604Y0040005
X0007821Y0038735
Y0037465
X0006604
X0009038
Y0036195
X0010255
Y0034925
X0009038
X0007821
X0006604
X0007821Y0036195
Y0032385
X0009038
X0010255
Y0029845
X0009038
X0007821
X0006604
Y0027305
X0007821
X0009038
X0010255
X00149987Y00266493
Y00261239
X00157988
Y00266493
X0006604Y0032385
X00074514Y00529236
Y00535238
X00094231Y00537971
X00094176Y00544431
X00087506Y00547267
Y00553267
X00074402Y00559269
Y00565268
Y00571268
X00064078Y00570329
X00064262Y00577342
Y00589915
Y00602488
X00087506Y00577267
X00101389Y00576583
X00101389Y00568206
X00103152Y00562266
X0045085Y00575543
X0044958Y0063881
X0047498
X0049498
X0053308
X0057118
X00601872Y00638416
X0062103Y0063881
X0061849Y0061595
X0064389
X0064643Y0063881
X0067183
X0069723
X0069469Y0061595
X0066929
Y0058801
X0069469
X0068326Y0056515
X0070866
X0073406
X0075946
X00762Y0053594
Y0051054
X00762Y0048514
X00745333
X00728667
X00712
Y0045974
X00728667
X00745333
X00762
X0071009Y00434182
X0069959
X0069109
X0068259Y00419578
X00683262Y00403873
Y00395143
X0068199Y00381092
X00672488
X00665892
Y0037338
X00672488Y00371092
X0068199
X00702788Y0037388
Y0036538
Y0035688
Y0034838
Y0033988
Y0033138
Y0032288
Y0031438
Y0030588
Y0029738
X0068259Y00294182
X0067409
X0066559Y00279578
X0071009
X00675892Y00331078
X00665892
Y0034418
X00675892
X00665892Y0035688
X00667256Y00402209
Y0041021
X00632714Y00411607
Y00417322
X0063159Y00434182
Y00442682
X0061513Y00443408
X0060325Y0044323
X0061738Y00468378
X0062738
X00633782Y0048378
X00632318Y00493006
Y0049889
X00653656Y0049895
X00652386Y00493006
X0065495Y00484991
X00653998Y0047634
Y00468339
X00653656Y00512732
X00661657
Y00507271
Y00520733
X00653656
X0065278Y005334
X00643656Y00512732
X0067439
X00728588Y0051939
Y00527391
Y00535392
X00621079Y00522813
X00604524Y00523616
Y00529077
X00598762
Y00523616
X00590413
Y00529077
X00582412
Y00523616
X00559837Y0051181
X00555211Y0047625
Y00468249
X0054721
Y0047625
X0053721
X0052975
Y00468249
X0053721
X0053086Y0044958
X0054737Y0044704
X0056515Y0044958
X005715Y00459359
X00579501
Y0046736
X00587502
X005715
X00577392Y00413766
Y0040788
X00589374Y00396982
X0060214
X00604288Y00382682
Y00374881
Y00364881
Y0035688
X00594288
Y00364881
X00584288
Y0035688
Y0034038
Y00332379
X00594288
Y0034038
X00604288
Y00332379
X00614288
Y0034038
Y0035688
Y00364881
Y00374881
Y00382682
X0062309Y00396494
Y00402492
Y00408491
X00640852Y00382682
Y00331078
Y00321078
Y00311078
X0061459Y00294182
X0060609
X0059759
X0058909
X0058059
X00577392Y0030588
X00562788
X0055499Y0030734
X0053729Y0032639
X0052801
Y0032012
Y0033774
Y00343821
X0053729Y00339399
X00562788Y0036538
Y0037388
Y0039938
X0054737Y00420208
X00518279Y00409188
X00503555Y00446405
X0049657Y0045339
X0049022
X00483844Y00441124
X00468816Y0044085
Y0044704
X00462085
Y00441485
Y0043593
X00454084Y00441485
X00453627Y00455184
X00445626
X00437625
X00436259Y00472687
X00445567Y00493728
Y00511101
X00475368Y00493069
X00475972Y00472934
X00487479Y00469502
X0050416Y0048514
X00490171Y00517871
Y0052287
X0046691Y0045593
X00465882Y00397616
X00461241
Y0039131
X00465882
Y00385005
X00461241
X00461329Y00378917
X00472801
X00482409Y00366068
X0049041
X0044704Y00378917
X0045033Y00333896
X00442329
X00434328
X00448274Y00285909
Y00279339
X0047117Y0029464
X00525618Y00282956
Y0027686
X0052898Y00255638
X00536981
X0051181Y00262032
X0057023Y0027686
X0058023
X0059023
X00589374Y00373127
X00702788Y0038238
Y0039088
Y0039938
Y0040788
Y0041638
X00610869Y00503096
X00604688
X0060071Y00557533
X0062484Y0055245
X0061849Y0058801
X0064389
T04
X00135636Y00413639
X00143637
X00151638
Y0042164
X00143637
X00135636
T05
X00447228Y00155899
X00451001Y00155933
X00454845Y00156039
X0045847Y00155956
X00457891Y0016945
X00458021Y00173465
X00452355Y00173335
Y0016945
X00473202Y0016891
X00478226Y00168976
X00475908Y00173335
X00470534
X00473964Y00155702
X00477774
X00481584
X00485394
X00377126Y00167188
Y00175189
X00317813Y00123701
X00309813
X00246619Y00147759
X00238618
X00187304Y00124895
X00179303
X0018923Y00261239
Y0026924
X00247889Y0030791
Y00314641
X00308229Y00269851
X0031369
X00376813Y00296102
X00376936Y00301752
X0030988Y0056515
X00304419
X00255886Y00584333
X00229452Y00564484
X00223991
X00614172Y00536448
Y00529844
X00621538Y00530098
X00621486Y0053627
X00610814Y00523544
T07
X0043307Y000635
Y000889
X0045847
Y000635
X0048387
X0050927
Y000889
X0048387
X0053467
Y000635
X0056007
Y000889
X0058547
Y000635
X0061087
Y000889
X0063627
Y000635
X0040767
Y000889
X00533716Y00607239
X00558714
T08
X0074329Y000758
X0008469
Y00625793
X0074329Y006258
M30
