G04*
G04 #@! TF.GenerationSoftware,Altium Limited,Altium Designer,23.1.1 (15)*
G04*
G04 Layer_Color=8388736*
%FSLAX44Y44*%
%MOMM*%
G71*
G04*
G04 #@! TF.SameCoordinates,D1EA7B9B-11C4-41B5-954D-5070AA3C9977*
G04*
G04*
G04 #@! TF.FilePolarity,Positive*
G04*
G01*
G75*
%ADD16C,0.2000*%
D16*
X467440Y552410D02*
X477440D01*
Y547410D02*
Y552410D01*
X467440Y547410D02*
X477440D01*
X467440D02*
Y552410D01*
X454850Y550180D02*
Y566180D01*
X446850Y550180D02*
X454850D01*
X446850D02*
Y566180D01*
X454850D01*
X424035Y550177D02*
X432034D01*
Y566177D01*
X424035D02*
X432034D01*
X424035Y550177D02*
Y566177D01*
X423990Y526780D02*
X431990D01*
X423990Y510780D02*
Y526780D01*
Y510780D02*
X431990D01*
Y526780D01*
X472480Y446326D02*
X477480D01*
X477480Y456326D01*
X472480D02*
X477480D01*
X472480Y446326D02*
X472480Y456326D01*
X520430Y472250D02*
Y480250D01*
X504430D02*
X520430D01*
X504430Y472250D02*
Y480250D01*
Y472250D02*
X520430D01*
X470614Y369610D02*
Y374610D01*
X460614D02*
X470614D01*
X460614Y369610D02*
Y374610D01*
Y369610D02*
X470614D01*
X446972Y265439D02*
Y278439D01*
X429972Y265439D02*
X446972D01*
X429972D02*
Y278439D01*
X446972D01*
X336872Y69816D02*
X352872D01*
X336872D02*
Y98816D01*
X352872D01*
Y69816D02*
Y98816D01*
X488860Y114390D02*
Y157390D01*
X445860D02*
X488860D01*
X445860Y114390D02*
Y157390D01*
Y114390D02*
X488860D01*
X477705Y175835D02*
Y189575D01*
X454855Y175835D02*
X477705D01*
X454855D02*
Y189575D01*
X477705D01*
X501460Y174990D02*
X509460D01*
X501460Y158990D02*
Y174990D01*
Y158990D02*
X509460D01*
Y174990D01*
X530490Y318320D02*
X544090D01*
X530490D02*
Y336920D01*
X544090D01*
Y318320D02*
Y336920D01*
X585200Y509080D02*
Y517080D01*
X569200D02*
X585200D01*
X569200Y509080D02*
Y517080D01*
Y509080D02*
X585200D01*
X637370Y485522D02*
X651370D01*
X637370Y475522D02*
Y485522D01*
Y475522D02*
X651370D01*
Y485522D01*
X494410Y375430D02*
Y391430D01*
X486410Y375430D02*
X494410Y375430D01*
X486410Y391430D02*
X486410Y375430D01*
X486410Y391430D02*
X494410D01*
X470980Y435131D02*
X478980Y435131D01*
X470980Y419131D02*
X470980Y435131D01*
X470980Y419131D02*
X478980D01*
Y435131D01*
M02*
