G04*
G04 #@! TF.GenerationSoftware,Altium Limited,Altium Designer,23.1.1 (15)*
G04*
G04 Layer_Color=16711935*
%FSLAX44Y44*%
%MOMM*%
G71*
G04*
G04 #@! TF.SameCoordinates,D1EA7B9B-11C4-41B5-954D-5070AA3C9977*
G04*
G04*
G04 #@! TF.FilePolarity,Positive*
G04*
G01*
G75*
%ADD10C,0.1000*%
%ADD187C,0.0051*%
%ADD188C,0.0600*%
D10*
X198717Y524606D02*
Y528772D01*
X197884Y529605D01*
X196218D01*
X195385Y528772D01*
Y524606D01*
X190387Y529605D02*
X193719D01*
X190387Y526273D01*
Y525439D01*
X191220Y524606D01*
X192886D01*
X193719Y525439D01*
X185388Y524606D02*
X187055Y525439D01*
X188721Y527105D01*
Y528772D01*
X187888Y529605D01*
X186221D01*
X185388Y528772D01*
Y527939D01*
X186221Y527105D01*
X188721D01*
X185450Y449542D02*
Y453707D01*
X184617Y454540D01*
X182951D01*
X182118Y453707D01*
Y449542D01*
X177119Y454540D02*
X180452D01*
X177119Y451208D01*
Y450375D01*
X177952Y449542D01*
X179619D01*
X180452Y450375D01*
X175453Y449542D02*
X172121D01*
Y450375D01*
X175453Y453707D01*
Y454540D01*
D187*
X244860Y585290D02*
G03*
X244860Y585290I-3250J0D01*
G01*
X302660D02*
G03*
X302660Y585290I-3250J0D01*
G01*
D188*
X535751Y243840D02*
X539084D01*
X539750Y244506D01*
Y245839D01*
X539084Y246506D01*
X535751D01*
Y247839D02*
Y250504D01*
X536418D01*
X539084Y247839D01*
X539750D01*
M02*
