G04*
G04 #@! TF.GenerationSoftware,Altium Limited,Altium Designer,23.1.1 (15)*
G04*
G04 Layer_Color=16711935*
%FSLAX44Y44*%
%MOMM*%
G71*
G04*
G04 #@! TF.SameCoordinates,D1EA7B9B-11C4-41B5-954D-5070AA3C9977*
G04*
G04*
G04 #@! TF.FilePolarity,Positive*
G04*
G01*
G75*
%ADD10C,0.1000*%
%ADD16C,0.2000*%
%ADD193C,0.0500*%
D10*
X212283Y299853D02*
X222283D01*
X217283Y294853D02*
Y304853D01*
X345553Y294341D02*
Y304341D01*
X340553Y299341D02*
X350553D01*
X211013Y153291D02*
X221013D01*
X216013Y148291D02*
Y158291D01*
X346520Y147400D02*
Y157400D01*
X341520Y152400D02*
X351520D01*
D16*
X486858Y247728D02*
Y262453D01*
X479358Y262453D02*
X486858Y262453D01*
X479358Y247728D02*
Y262453D01*
Y247728D02*
X486858D01*
X634485Y379151D02*
X654606D01*
Y341029D02*
Y379151D01*
X634485Y341029D02*
X654606D01*
X634485D02*
Y379151D01*
D193*
X204033Y286103D02*
Y313603D01*
X230533Y286103D02*
Y313603D01*
X204033Y286103D02*
X230533D01*
X204033Y313603D02*
X230533D01*
X332303Y313091D02*
X358803D01*
X332303Y285591D02*
X358803D01*
Y313091D01*
X332303Y285591D02*
Y313091D01*
X202763Y139541D02*
Y167041D01*
X229263Y139541D02*
Y167041D01*
X202763Y139541D02*
X229263D01*
X202763Y167041D02*
X229263D01*
X333270Y166150D02*
X359770D01*
X333270Y138650D02*
X359770D01*
Y166150D01*
X333270Y138650D02*
Y166150D01*
M02*
