G04*
G04 #@! TF.GenerationSoftware,Altium Limited,Altium Designer,23.1.1 (15)*
G04*
G04 Layer_Color=16711935*
%FSLAX44Y44*%
%MOMM*%
G71*
G04*
G04 #@! TF.SameCoordinates,D1EA7B9B-11C4-41B5-954D-5070AA3C9977*
G04*
G04*
G04 #@! TF.FilePolarity,Negative*
G04*
G01*
G75*
%ADD39R,1.0121X1.1581*%
%ADD70C,1.3270*%
%ADD73R,0.6416X0.6673*%
%ADD78R,0.6673X0.6416*%
%ADD79R,0.7870X0.7470*%
%ADD82R,0.7470X0.7870*%
%ADD89R,0.9656X0.9081*%
%ADD95R,0.6416X0.8917*%
%ADD98R,0.8917X0.6416*%
%ADD100R,0.9081X0.9656*%
%ADD113C,1.8270*%
%ADD114R,1.8270X1.8270*%
%ADD115C,1.9000*%
%ADD116R,1.9000X1.9000*%
%ADD117O,1.1270X1.9270*%
%ADD118O,1.1270X2.2270*%
%ADD119C,4.1270*%
%ADD120C,0.4318*%
%ADD121C,0.5334*%
%ADD122C,0.6270*%
%ADD174R,0.4725X0.5153*%
%ADD178C,0.3000*%
%ADD179R,1.8026X1.3091*%
%ADD180R,1.8296X1.5866*%
%ADD181R,3.6270X7.1270*%
%ADD182R,1.6770X1.5770*%
%ADD183R,2.0524X0.7524*%
%ADD184R,2.9524X2.2524*%
D39*
X644545Y351820D02*
D03*
Y368360D02*
D03*
D70*
X299995Y114882D02*
D03*
X187306Y112289D02*
D03*
X195385Y275544D02*
D03*
X149908Y278522D02*
D03*
X154686Y313690D02*
D03*
X323196Y272219D02*
D03*
D73*
X238818Y162481D02*
D03*
Y171137D02*
D03*
X369325Y170246D02*
D03*
Y161590D02*
D03*
X240088Y317699D02*
D03*
Y309043D02*
D03*
X369570Y318018D02*
D03*
Y309362D02*
D03*
X483108Y280436D02*
D03*
Y271780D02*
D03*
X583372Y396982D02*
D03*
Y405638D02*
D03*
X596138Y396982D02*
D03*
Y405638D02*
D03*
D78*
X445536Y448310D02*
D03*
X436880D02*
D03*
X322814Y447040D02*
D03*
X331470D02*
D03*
D79*
X541020Y276860D02*
D03*
X532220D02*
D03*
X591230Y212090D02*
D03*
X600030Y212090D02*
D03*
D82*
X371701Y132603D02*
D03*
Y123803D02*
D03*
X357617Y132841D02*
D03*
Y124041D02*
D03*
X363836Y269769D02*
D03*
Y278569D02*
D03*
X372726Y269769D02*
D03*
Y278569D02*
D03*
X221596Y123719D02*
D03*
Y132519D02*
D03*
X231756Y123719D02*
D03*
Y132519D02*
D03*
X234296Y270281D02*
D03*
Y279081D02*
D03*
X241916Y270281D02*
D03*
Y279081D02*
D03*
X655320Y155030D02*
D03*
Y163830D02*
D03*
X672488Y355690D02*
D03*
Y364490D02*
D03*
X681990Y355690D02*
D03*
Y364490D02*
D03*
X204980Y499465D02*
D03*
Y490665D02*
D03*
X195478Y499465D02*
D03*
Y490665D02*
D03*
D89*
X499010Y260356D02*
D03*
X499010Y245289D02*
D03*
X548640Y161376D02*
D03*
Y176444D02*
D03*
X668020Y181783D02*
D03*
Y196850D02*
D03*
Y148763D02*
D03*
Y163830D02*
D03*
X659634Y395143D02*
D03*
X659634Y410210D02*
D03*
X675640Y395143D02*
D03*
X675640Y410210D02*
D03*
D95*
X556260Y258274D02*
D03*
Y247372D02*
D03*
X661354Y354639D02*
D03*
Y365541D02*
D03*
D98*
X528980Y198610D02*
D03*
X539882D02*
D03*
D100*
X588294Y200230D02*
D03*
X603362D02*
D03*
X404033Y447040D02*
D03*
X419100D02*
D03*
X345613D02*
D03*
X360680Y447040D02*
D03*
D113*
X483870Y63500D02*
D03*
X509270D02*
D03*
X407670Y88900D02*
D03*
X433070Y63500D02*
D03*
Y88900D02*
D03*
X458470Y63500D02*
D03*
Y88900D02*
D03*
X483870D02*
D03*
X509270D02*
D03*
X534670Y63500D02*
D03*
Y88900D02*
D03*
X560070Y63500D02*
D03*
Y88900D02*
D03*
X585470Y63500D02*
D03*
Y88900D02*
D03*
X610870Y63500D02*
D03*
Y88900D02*
D03*
X636270Y63500D02*
D03*
Y88900D02*
D03*
D114*
X407670Y63500D02*
D03*
D115*
X533715Y607239D02*
D03*
D116*
X558714D02*
D03*
D117*
X227310Y621795D02*
D03*
X313710D02*
D03*
D118*
X227310Y580296D02*
D03*
X313710D02*
D03*
D119*
X743290Y625800D02*
D03*
Y75800D02*
D03*
X84690D02*
D03*
Y625793D02*
D03*
D120*
X533281Y437490D02*
D03*
X737870Y165100D02*
D03*
D121*
X565150Y449580D02*
D03*
D122*
X189467Y517355D02*
D03*
Y526855D02*
D03*
X179967D02*
D03*
Y517355D02*
D03*
X176200Y442290D02*
D03*
Y451790D02*
D03*
X166700D02*
D03*
Y442290D02*
D03*
D174*
X483108Y251305D02*
D03*
Y258876D02*
D03*
D178*
X209283Y291853D02*
D03*
X213283D02*
D03*
X217283D02*
D03*
X221283D02*
D03*
X225283D02*
D03*
X209283Y295853D02*
D03*
X213283D02*
D03*
X217283D02*
D03*
X221283D02*
D03*
X225283D02*
D03*
X209283Y299853D02*
D03*
X213283D02*
D03*
X217283D02*
D03*
X221283D02*
D03*
X225283D02*
D03*
X209283Y303853D02*
D03*
X213283D02*
D03*
X217283D02*
D03*
X221283D02*
D03*
X225283D02*
D03*
X209283Y307853D02*
D03*
X213283D02*
D03*
X217283D02*
D03*
X221283D02*
D03*
X225283D02*
D03*
X353553Y307341D02*
D03*
X349553D02*
D03*
X345553D02*
D03*
X341553D02*
D03*
X337553D02*
D03*
X353553Y303341D02*
D03*
X349553D02*
D03*
X345553D02*
D03*
X341553D02*
D03*
X337553D02*
D03*
X353553Y299341D02*
D03*
X349553D02*
D03*
X345553D02*
D03*
X341553D02*
D03*
X337553D02*
D03*
X353553Y295341D02*
D03*
X349553D02*
D03*
X345553D02*
D03*
X341553D02*
D03*
X337553D02*
D03*
X353553Y291341D02*
D03*
X349553D02*
D03*
X345553D02*
D03*
X341553D02*
D03*
X337553D02*
D03*
X208013Y145291D02*
D03*
X212013D02*
D03*
X216013D02*
D03*
X220013D02*
D03*
X224013D02*
D03*
X208013Y149291D02*
D03*
X212013D02*
D03*
X216013D02*
D03*
X220013D02*
D03*
X224013D02*
D03*
X208013Y153291D02*
D03*
X212013D02*
D03*
X216013D02*
D03*
X220013D02*
D03*
X224013D02*
D03*
X208013Y157291D02*
D03*
X212013D02*
D03*
X216013D02*
D03*
X220013D02*
D03*
X224013D02*
D03*
X208013Y161291D02*
D03*
X212013D02*
D03*
X216013D02*
D03*
X220013D02*
D03*
X224013D02*
D03*
X354520Y160400D02*
D03*
X350520D02*
D03*
X346520D02*
D03*
X342520D02*
D03*
X338520D02*
D03*
X354520Y156400D02*
D03*
X350520D02*
D03*
X346520D02*
D03*
X342520D02*
D03*
X338520D02*
D03*
X354520Y152400D02*
D03*
X350520D02*
D03*
X346520D02*
D03*
X342520D02*
D03*
X338520D02*
D03*
X354520Y148400D02*
D03*
X350520D02*
D03*
X346520D02*
D03*
X342520D02*
D03*
X338520D02*
D03*
X354520Y144400D02*
D03*
X350520D02*
D03*
X346520D02*
D03*
X342520D02*
D03*
X338520D02*
D03*
D179*
X388933Y137612D02*
D03*
Y167188D02*
D03*
X258426Y138503D02*
D03*
Y168079D02*
D03*
X259696Y285065D02*
D03*
Y314641D02*
D03*
X388620Y285384D02*
D03*
Y314960D02*
D03*
D180*
X299995Y136474D02*
D03*
Y168326D02*
D03*
X174568Y137365D02*
D03*
Y169217D02*
D03*
Y283927D02*
D03*
Y315779D02*
D03*
X299028Y283415D02*
D03*
Y315267D02*
D03*
D181*
X249867Y219004D02*
D03*
X195866D02*
D03*
X380374Y217988D02*
D03*
X326373D02*
D03*
X379407Y373061D02*
D03*
X325406D02*
D03*
X251137D02*
D03*
X197136D02*
D03*
D182*
X625989Y369590D02*
D03*
Y350590D02*
D03*
D183*
X130819Y146728D02*
D03*
Y156728D02*
D03*
Y166728D02*
D03*
Y176728D02*
D03*
Y186728D02*
D03*
Y196728D02*
D03*
Y206728D02*
D03*
Y216728D02*
D03*
Y226728D02*
D03*
Y236728D02*
D03*
Y246728D02*
D03*
Y256728D02*
D03*
Y266728D02*
D03*
Y276728D02*
D03*
Y286728D02*
D03*
Y296728D02*
D03*
Y306728D02*
D03*
Y316728D02*
D03*
Y326728D02*
D03*
Y336728D02*
D03*
Y346728D02*
D03*
Y356728D02*
D03*
Y366728D02*
D03*
Y376728D02*
D03*
D184*
X107319Y115228D02*
D03*
Y408227D02*
D03*
M02*
