G04*
G04 #@! TF.GenerationSoftware,Altium Limited,Altium Designer,23.1.1 (15)*
G04*
G04 Layer_Color=32896*
%FSLAX44Y44*%
%MOMM*%
G71*
G04*
G04 #@! TF.SameCoordinates,D1EA7B9B-11C4-41B5-954D-5070AA3C9977*
G04*
G04*
G04 #@! TF.FilePolarity,Positive*
G04*
G01*
G75*
%ADD10C,0.1000*%
%ADD16C,0.2000*%
G36*
X498053Y275111D02*
X498238Y275093D01*
X498414Y275075D01*
X498571Y275056D01*
X498719Y275037D01*
X498858Y275010D01*
X498978Y274982D01*
X499080Y274954D01*
X499172Y274936D01*
X499255Y274908D01*
X499320Y274890D01*
X499366Y274871D01*
X499403Y274853D01*
X499422Y274843D01*
X499431D01*
X499653Y274732D01*
X499847Y274612D01*
X500014Y274473D01*
X500152Y274353D01*
X500254Y274233D01*
X500328Y274141D01*
X500356Y274104D01*
X500374Y274076D01*
X500392Y274067D01*
Y274057D01*
X500504Y273863D01*
X500587Y273669D01*
X500651Y273475D01*
X500688Y273299D01*
X500716Y273142D01*
X500725Y273077D01*
Y273031D01*
X500735Y272985D01*
Y272920D01*
X500725Y272763D01*
X500707Y272615D01*
X500679Y272467D01*
X500642Y272338D01*
X500541Y272088D01*
X500494Y271977D01*
X500439Y271885D01*
X500374Y271792D01*
X500328Y271718D01*
X500272Y271644D01*
X500226Y271589D01*
X500189Y271543D01*
X500161Y271515D01*
X500143Y271496D01*
X500134Y271487D01*
X500023Y271385D01*
X499893Y271302D01*
X499773Y271219D01*
X499644Y271154D01*
X499505Y271099D01*
X499375Y271053D01*
X499135Y270988D01*
X499015Y270960D01*
X498913Y270942D01*
X498811Y270932D01*
X498728Y270923D01*
X498664Y270914D01*
X498617D01*
X498580D01*
X498571D01*
X498396Y270923D01*
X498238Y270942D01*
X498081Y270960D01*
X497933Y270997D01*
X497804Y271043D01*
X497674Y271090D01*
X497563Y271136D01*
X497462Y271191D01*
X497369Y271238D01*
X497286Y271284D01*
X497221Y271330D01*
X497157Y271376D01*
X497110Y271413D01*
X497083Y271432D01*
X497064Y271450D01*
X497055Y271459D01*
X496953Y271561D01*
X496870Y271672D01*
X496787Y271783D01*
X496722Y271903D01*
X496667Y272014D01*
X496620Y272125D01*
X496556Y272338D01*
X496528Y272430D01*
X496509Y272523D01*
X496500Y272597D01*
X496491Y272671D01*
X496482Y272726D01*
Y272800D01*
X496491Y272976D01*
X496519Y273142D01*
X496556Y273290D01*
X496602Y273429D01*
X496639Y273530D01*
X496676Y273614D01*
X496704Y273669D01*
X496713Y273688D01*
X496805Y273836D01*
X496907Y273965D01*
X497009Y274076D01*
X497101Y274168D01*
X497194Y274233D01*
X497258Y274289D01*
X497304Y274326D01*
X497323Y274335D01*
X497249D01*
X497203D01*
X497175D01*
X497166D01*
X496981Y274326D01*
X496805Y274316D01*
X496648Y274298D01*
X496500Y274279D01*
X496380Y274252D01*
X496287Y274233D01*
X496250Y274224D01*
X496223D01*
X496213Y274215D01*
X496204D01*
X496038Y274168D01*
X495890Y274122D01*
X495760Y274076D01*
X495650Y274030D01*
X495566Y273993D01*
X495502Y273956D01*
X495455Y273937D01*
X495446Y273928D01*
X495344Y273854D01*
X495261Y273780D01*
X495187Y273706D01*
X495123Y273632D01*
X495067Y273577D01*
X495030Y273521D01*
X495012Y273484D01*
X495002Y273475D01*
X494947Y273373D01*
X494910Y273262D01*
X494882Y273161D01*
X494864Y273059D01*
X494854Y272976D01*
X494845Y272911D01*
Y272846D01*
X494854Y272698D01*
X494882Y272560D01*
X494919Y272439D01*
X494965Y272338D01*
X495002Y272264D01*
X495039Y272199D01*
X495067Y272162D01*
X495076Y272153D01*
X495178Y272060D01*
X495298Y271986D01*
X495428Y271922D01*
X495557Y271875D01*
X495668Y271838D01*
X495770Y271811D01*
X495807Y271801D01*
X495825D01*
X495844Y271792D01*
X495853D01*
X495788Y271034D01*
X495520Y271090D01*
X495289Y271164D01*
X495086Y271256D01*
X494919Y271348D01*
X494790Y271441D01*
X494734Y271487D01*
X494688Y271524D01*
X494660Y271552D01*
X494632Y271580D01*
X494623Y271589D01*
X494614Y271598D01*
X494540Y271691D01*
X494475Y271792D01*
X494374Y271996D01*
X494300Y272199D01*
X494254Y272393D01*
X494216Y272569D01*
X494207Y272643D01*
Y272708D01*
X494198Y272754D01*
Y272828D01*
X494216Y273087D01*
X494254Y273318D01*
X494318Y273530D01*
X494392Y273706D01*
X494420Y273780D01*
X494457Y273854D01*
X494494Y273909D01*
X494522Y273965D01*
X494540Y274002D01*
X494559Y274030D01*
X494577Y274048D01*
Y274057D01*
X494734Y274242D01*
X494910Y274409D01*
X495095Y274538D01*
X495271Y274649D01*
X495428Y274742D01*
X495502Y274779D01*
X495557Y274806D01*
X495613Y274825D01*
X495650Y274843D01*
X495668Y274853D01*
X495677D01*
X495816Y274899D01*
X495973Y274945D01*
X496287Y275010D01*
X496620Y275056D01*
X496935Y275084D01*
X497073Y275102D01*
X497212Y275111D01*
X497332D01*
X497434Y275121D01*
X497517D01*
X497582D01*
X497628D01*
X497637D01*
X497850D01*
X498053Y275111D01*
D02*
G37*
G36*
X500735Y268390D02*
X500578Y268297D01*
X500429Y268196D01*
X500282Y268076D01*
X500152Y267965D01*
X500041Y267854D01*
X499949Y267770D01*
X499921Y267733D01*
X499893Y267706D01*
X499884Y267696D01*
X499875Y267687D01*
X499718Y267493D01*
X499570Y267299D01*
X499440Y267114D01*
X499338Y266929D01*
X499246Y266772D01*
X499209Y266707D01*
X499181Y266652D01*
X499154Y266605D01*
X499144Y266569D01*
X499126Y266550D01*
Y266541D01*
X498368D01*
X498423Y266679D01*
X498488Y266818D01*
X498553Y266957D01*
X498617Y267086D01*
X498673Y267197D01*
X498719Y267290D01*
X498756Y267345D01*
X498765Y267354D01*
Y267364D01*
X498867Y267530D01*
X498969Y267678D01*
X499061Y267807D01*
X499144Y267909D01*
X499209Y268002D01*
X499265Y268057D01*
X499302Y268103D01*
X499311Y268113D01*
X494309D01*
Y268898D01*
X500735D01*
Y268390D01*
D02*
G37*
G36*
X496546Y264368D02*
X496398Y264331D01*
X496260Y264285D01*
X496130Y264239D01*
X496010Y264192D01*
X495899Y264137D01*
X495807Y264081D01*
X495714Y264017D01*
X495631Y263961D01*
X495557Y263915D01*
X495502Y263860D01*
X495446Y263813D01*
X495400Y263776D01*
X495372Y263739D01*
X495344Y263712D01*
X495335Y263702D01*
X495326Y263693D01*
X495252Y263601D01*
X495196Y263499D01*
X495095Y263296D01*
X495021Y263101D01*
X494975Y262907D01*
X494938Y262741D01*
X494928Y262676D01*
Y262611D01*
X494919Y262556D01*
Y262491D01*
X494928Y262278D01*
X494965Y262075D01*
X495012Y261890D01*
X495067Y261724D01*
X495123Y261594D01*
X495150Y261539D01*
X495169Y261493D01*
X495187Y261456D01*
X495206Y261428D01*
X495215Y261409D01*
Y261400D01*
X495344Y261224D01*
X495483Y261077D01*
X495640Y260947D01*
X495788Y260846D01*
X495918Y260762D01*
X496029Y260707D01*
X496075Y260688D01*
X496103Y260670D01*
X496121Y260661D01*
X496130D01*
X496371Y260587D01*
X496611Y260531D01*
X496852Y260485D01*
X497073Y260457D01*
X497175Y260448D01*
X497267Y260439D01*
X497351D01*
X497416Y260429D01*
X497471D01*
X497517D01*
X497545D01*
X497554D01*
X497794Y260439D01*
X498016Y260457D01*
X498220Y260494D01*
X498405Y260531D01*
X498562Y260559D01*
X498627Y260577D01*
X498682Y260596D01*
X498728Y260605D01*
X498756Y260614D01*
X498775Y260624D01*
X498784D01*
X498997Y260716D01*
X499191Y260818D01*
X499348Y260929D01*
X499487Y261049D01*
X499597Y261151D01*
X499671Y261234D01*
X499718Y261299D01*
X499736Y261308D01*
Y261317D01*
X499856Y261511D01*
X499949Y261724D01*
X500014Y261927D01*
X500051Y262121D01*
X500078Y262297D01*
X500087Y262371D01*
Y262436D01*
X500097Y262482D01*
Y262556D01*
X500087Y262787D01*
X500051Y263000D01*
X499995Y263175D01*
X499939Y263333D01*
X499875Y263453D01*
X499829Y263545D01*
X499792Y263601D01*
X499773Y263619D01*
X499634Y263767D01*
X499477Y263906D01*
X499311Y264017D01*
X499144Y264109D01*
X498997Y264183D01*
X498923Y264211D01*
X498867Y264229D01*
X498821Y264248D01*
X498784Y264266D01*
X498765Y264276D01*
X498756D01*
X498950Y265108D01*
X499117Y265052D01*
X499265Y264997D01*
X499403Y264923D01*
X499542Y264858D01*
X499662Y264784D01*
X499773Y264701D01*
X499884Y264627D01*
X499977Y264553D01*
X500051Y264479D01*
X500124Y264414D01*
X500189Y264350D01*
X500235Y264303D01*
X500282Y264257D01*
X500309Y264220D01*
X500319Y264202D01*
X500328Y264192D01*
X500411Y264063D01*
X500494Y263934D01*
X500559Y263804D01*
X500614Y263665D01*
X500698Y263388D01*
X500753Y263138D01*
X500781Y263018D01*
X500790Y262917D01*
X500799Y262815D01*
X500809Y262732D01*
X500818Y262667D01*
Y262574D01*
X500799Y262269D01*
X500753Y261973D01*
X500698Y261715D01*
X500661Y261594D01*
X500624Y261483D01*
X500587Y261382D01*
X500550Y261289D01*
X500522Y261215D01*
X500494Y261141D01*
X500466Y261095D01*
X500448Y261058D01*
X500439Y261030D01*
X500429Y261021D01*
X500272Y260772D01*
X500087Y260559D01*
X499902Y260374D01*
X499718Y260217D01*
X499551Y260097D01*
X499477Y260050D01*
X499412Y260013D01*
X499366Y259976D01*
X499329Y259958D01*
X499302Y259949D01*
X499292Y259939D01*
X499006Y259810D01*
X498710Y259718D01*
X498414Y259653D01*
X498146Y259607D01*
X498026Y259588D01*
X497906Y259579D01*
X497813Y259570D01*
X497721D01*
X497656Y259560D01*
X497600D01*
X497563D01*
X497554D01*
X497221Y259579D01*
X496898Y259616D01*
X496611Y259662D01*
X496472Y259699D01*
X496352Y259727D01*
X496241Y259755D01*
X496140Y259792D01*
X496047Y259819D01*
X495973Y259838D01*
X495918Y259865D01*
X495871Y259875D01*
X495844Y259893D01*
X495835D01*
X495557Y260032D01*
X495308Y260189D01*
X495095Y260355D01*
X495012Y260439D01*
X494928Y260513D01*
X494854Y260587D01*
X494790Y260661D01*
X494734Y260725D01*
X494697Y260781D01*
X494660Y260818D01*
X494632Y260855D01*
X494623Y260873D01*
X494614Y260882D01*
X494540Y261012D01*
X494475Y261141D01*
X494374Y261419D01*
X494300Y261696D01*
X494254Y261964D01*
X494235Y262094D01*
X494216Y262205D01*
X494207Y262306D01*
Y262390D01*
X494198Y262463D01*
Y262565D01*
X494207Y262750D01*
X494226Y262926D01*
X494244Y263092D01*
X494281Y263249D01*
X494327Y263397D01*
X494374Y263536D01*
X494420Y263665D01*
X494475Y263786D01*
X494522Y263887D01*
X494568Y263989D01*
X494614Y264063D01*
X494660Y264137D01*
X494697Y264183D01*
X494716Y264229D01*
X494734Y264248D01*
X494743Y264257D01*
X494854Y264387D01*
X494965Y264498D01*
X495095Y264599D01*
X495224Y264701D01*
X495483Y264867D01*
X495742Y264997D01*
X495862Y265052D01*
X495973Y265098D01*
X496075Y265135D01*
X496158Y265163D01*
X496232Y265191D01*
X496287Y265209D01*
X496325Y265219D01*
X496334D01*
X496546Y264368D01*
D02*
G37*
G36*
X637336Y336833D02*
X637484D01*
X637632Y336824D01*
X637761Y336806D01*
X637891Y336796D01*
X638002Y336787D01*
X638103Y336769D01*
X638196Y336759D01*
X638279Y336741D01*
X638344Y336732D01*
X638399Y336722D01*
X638445Y336713D01*
X638473Y336704D01*
X638492Y336695D01*
X638501D01*
X638704Y336639D01*
X638889Y336575D01*
X639046Y336501D01*
X639185Y336445D01*
X639305Y336380D01*
X639388Y336343D01*
X639435Y336306D01*
X639453Y336297D01*
X639592Y336195D01*
X639712Y336094D01*
X639814Y335983D01*
X639906Y335881D01*
X639971Y335789D01*
X640017Y335715D01*
X640045Y335668D01*
X640054Y335659D01*
Y335650D01*
X640128Y335502D01*
X640174Y335345D01*
X640211Y335197D01*
X640239Y335058D01*
X640257Y334938D01*
X640267Y334836D01*
Y334753D01*
X640248Y334504D01*
X640211Y334272D01*
X640146Y334078D01*
X640082Y333912D01*
X640008Y333773D01*
X639980Y333718D01*
X639943Y333671D01*
X639925Y333634D01*
X639906Y333607D01*
X639888Y333597D01*
Y333588D01*
X639740Y333422D01*
X639564Y333283D01*
X639388Y333163D01*
X639222Y333070D01*
X639065Y332996D01*
X639000Y332960D01*
X638935Y332941D01*
X638889Y332923D01*
X638852Y332904D01*
X638834Y332895D01*
X638824D01*
X638686Y332858D01*
X638547Y332821D01*
X638242Y332765D01*
X637937Y332719D01*
X637650Y332691D01*
X637511Y332682D01*
X637391Y332673D01*
X637280D01*
X637179Y332664D01*
X637105D01*
X637040D01*
X637003D01*
X636994D01*
X636670Y332673D01*
X636365Y332691D01*
X636088Y332719D01*
X635829Y332765D01*
X635588Y332812D01*
X635376Y332867D01*
X635182Y332923D01*
X635015Y332978D01*
X634867Y333033D01*
X634738Y333098D01*
X634627Y333144D01*
X634544Y333191D01*
X634470Y333237D01*
X634423Y333265D01*
X634396Y333283D01*
X634386Y333292D01*
X634276Y333394D01*
X634174Y333505D01*
X634081Y333625D01*
X634007Y333745D01*
X633943Y333866D01*
X633887Y333986D01*
X633850Y334106D01*
X633813Y334217D01*
X633786Y334328D01*
X633767Y334430D01*
X633749Y334522D01*
X633739Y334596D01*
X633730Y334661D01*
Y334753D01*
X633749Y335003D01*
X633786Y335234D01*
X633850Y335428D01*
X633915Y335594D01*
X633980Y335733D01*
X634017Y335779D01*
X634044Y335826D01*
X634063Y335863D01*
X634081Y335890D01*
X634100Y335900D01*
Y335909D01*
X634257Y336075D01*
X634423Y336214D01*
X634608Y336334D01*
X634775Y336427D01*
X634932Y336501D01*
X634997Y336538D01*
X635061Y336556D01*
X635108Y336575D01*
X635145Y336593D01*
X635163Y336602D01*
X635172D01*
X635311Y336648D01*
X635450Y336685D01*
X635746Y336741D01*
X636051Y336787D01*
X636347Y336815D01*
X636476Y336824D01*
X636596Y336833D01*
X636707D01*
X636809Y336843D01*
X636883D01*
X636948D01*
X636984D01*
X636994D01*
X637169D01*
X637336Y336833D01*
D02*
G37*
G36*
X636078Y331878D02*
X636236Y331859D01*
X636393Y331832D01*
X636531Y331804D01*
X636661Y331758D01*
X636790Y331711D01*
X636901Y331665D01*
X637003Y331610D01*
X637095Y331554D01*
X637179Y331508D01*
X637243Y331462D01*
X637308Y331415D01*
X637354Y331388D01*
X637382Y331360D01*
X637401Y331342D01*
X637410Y331332D01*
X637511Y331231D01*
X637604Y331120D01*
X637678Y330999D01*
X637743Y330888D01*
X637807Y330778D01*
X637854Y330667D01*
X637918Y330454D01*
X637946Y330361D01*
X637965Y330269D01*
X637974Y330195D01*
X637983Y330121D01*
X637992Y330066D01*
Y329992D01*
X637983Y329825D01*
X637955Y329668D01*
X637928Y329520D01*
X637891Y329391D01*
X637844Y329280D01*
X637817Y329197D01*
X637789Y329141D01*
X637780Y329132D01*
Y329123D01*
X637687Y328975D01*
X637585Y328845D01*
X637484Y328725D01*
X637373Y328633D01*
X637280Y328549D01*
X637206Y328485D01*
X637151Y328448D01*
X637142Y328438D01*
X637308D01*
X637475Y328448D01*
X637622Y328457D01*
X637770Y328475D01*
X637900Y328485D01*
X638020Y328503D01*
X638131Y328522D01*
X638233Y328549D01*
X638325Y328568D01*
X638399Y328586D01*
X638464Y328605D01*
X638519Y328614D01*
X638556Y328633D01*
X638584Y328642D01*
X638602Y328651D01*
X638612D01*
X638797Y328744D01*
X638963Y328836D01*
X639092Y328938D01*
X639203Y329030D01*
X639296Y329113D01*
X639361Y329178D01*
X639398Y329224D01*
X639407Y329243D01*
X639481Y329354D01*
X639527Y329465D01*
X639564Y329576D01*
X639592Y329687D01*
X639610Y329770D01*
X639619Y329844D01*
Y329908D01*
X639601Y330075D01*
X639564Y330232D01*
X639509Y330361D01*
X639453Y330482D01*
X639388Y330574D01*
X639333Y330639D01*
X639296Y330676D01*
X639277Y330694D01*
X639194Y330759D01*
X639092Y330824D01*
X638982Y330879D01*
X638871Y330916D01*
X638769Y330953D01*
X638686Y330981D01*
X638630Y330990D01*
X638621Y330999D01*
X638612D01*
X638676Y331785D01*
X638935Y331730D01*
X639166Y331647D01*
X639370Y331554D01*
X639536Y331452D01*
X639666Y331351D01*
X639721Y331314D01*
X639767Y331268D01*
X639795Y331240D01*
X639823Y331212D01*
X639832Y331203D01*
X639841Y331194D01*
X639915Y331101D01*
X639980Y330999D01*
X640091Y330796D01*
X640165Y330593D01*
X640211Y330398D01*
X640248Y330223D01*
X640257Y330149D01*
Y330084D01*
X640267Y330029D01*
Y329955D01*
X640257Y329770D01*
X640239Y329594D01*
X640202Y329428D01*
X640156Y329271D01*
X640091Y329132D01*
X640035Y328993D01*
X639962Y328873D01*
X639897Y328762D01*
X639832Y328670D01*
X639758Y328577D01*
X639703Y328503D01*
X639647Y328448D01*
X639592Y328401D01*
X639555Y328364D01*
X639536Y328346D01*
X639527Y328337D01*
X639361Y328217D01*
X639166Y328115D01*
X638963Y328022D01*
X638750Y327939D01*
X638529Y327874D01*
X638307Y327819D01*
X638075Y327773D01*
X637863Y327736D01*
X637650Y327708D01*
X637456Y327690D01*
X637280Y327671D01*
X637132Y327662D01*
X637003D01*
X636911Y327653D01*
X636874D01*
X636846D01*
X636837D01*
X636827D01*
X636531Y327662D01*
X636254Y327680D01*
X635995Y327708D01*
X635755Y327754D01*
X635542Y327800D01*
X635348Y327847D01*
X635172Y327902D01*
X635015Y327967D01*
X634886Y328022D01*
X634766Y328078D01*
X634673Y328124D01*
X634590Y328180D01*
X634525Y328217D01*
X634488Y328244D01*
X634460Y328263D01*
X634451Y328272D01*
X634322Y328392D01*
X634211Y328522D01*
X634118Y328651D01*
X634035Y328780D01*
X633961Y328919D01*
X633906Y329049D01*
X633859Y329178D01*
X633823Y329307D01*
X633795Y329418D01*
X633767Y329529D01*
X633749Y329622D01*
X633739Y329705D01*
Y329779D01*
X633730Y329825D01*
Y329871D01*
X633739Y330084D01*
X633776Y330278D01*
X633813Y330454D01*
X633869Y330611D01*
X633915Y330731D01*
X633961Y330824D01*
X633970Y330861D01*
X633989Y330888D01*
X633998Y330898D01*
Y330907D01*
X634109Y331064D01*
X634239Y331212D01*
X634368Y331332D01*
X634497Y331434D01*
X634618Y331517D01*
X634710Y331573D01*
X634747Y331591D01*
X634775Y331610D01*
X634784Y331619D01*
X634793D01*
X634987Y331711D01*
X635191Y331776D01*
X635376Y331822D01*
X635551Y331850D01*
X635699Y331878D01*
X635755D01*
X635810Y331887D01*
X635857D01*
X635884D01*
X635903D01*
X635912D01*
X636078Y331878D01*
D02*
G37*
G36*
Y326118D02*
X635930Y326081D01*
X635792Y326035D01*
X635662Y325988D01*
X635542Y325942D01*
X635431Y325887D01*
X635339Y325831D01*
X635246Y325766D01*
X635163Y325711D01*
X635089Y325665D01*
X635034Y325609D01*
X634978Y325563D01*
X634932Y325526D01*
X634904Y325489D01*
X634877Y325461D01*
X634867Y325452D01*
X634858Y325443D01*
X634784Y325350D01*
X634729Y325249D01*
X634627Y325045D01*
X634553Y324851D01*
X634507Y324657D01*
X634470Y324491D01*
X634460Y324426D01*
Y324361D01*
X634451Y324306D01*
Y324241D01*
X634460Y324028D01*
X634497Y323825D01*
X634544Y323640D01*
X634599Y323474D01*
X634655Y323344D01*
X634682Y323289D01*
X634701Y323242D01*
X634719Y323205D01*
X634738Y323178D01*
X634747Y323159D01*
Y323150D01*
X634877Y322974D01*
X635015Y322826D01*
X635172Y322697D01*
X635320Y322595D01*
X635450Y322512D01*
X635561Y322457D01*
X635607Y322438D01*
X635635Y322420D01*
X635653Y322410D01*
X635662D01*
X635903Y322336D01*
X636143Y322281D01*
X636384Y322235D01*
X636605Y322207D01*
X636707Y322198D01*
X636800Y322188D01*
X636883D01*
X636948Y322179D01*
X637003D01*
X637049D01*
X637077D01*
X637086D01*
X637327Y322188D01*
X637548Y322207D01*
X637752Y322244D01*
X637937Y322281D01*
X638094Y322309D01*
X638159Y322327D01*
X638214Y322346D01*
X638260Y322355D01*
X638288Y322364D01*
X638307Y322373D01*
X638316D01*
X638529Y322466D01*
X638723Y322567D01*
X638880Y322678D01*
X639019Y322799D01*
X639129Y322900D01*
X639203Y322984D01*
X639250Y323048D01*
X639268Y323057D01*
Y323067D01*
X639388Y323261D01*
X639481Y323474D01*
X639546Y323677D01*
X639582Y323871D01*
X639610Y324047D01*
X639619Y324121D01*
Y324185D01*
X639629Y324232D01*
Y324306D01*
X639619Y324537D01*
X639582Y324749D01*
X639527Y324925D01*
X639472Y325082D01*
X639407Y325202D01*
X639361Y325295D01*
X639324Y325350D01*
X639305Y325369D01*
X639166Y325517D01*
X639009Y325655D01*
X638843Y325766D01*
X638676Y325859D01*
X638529Y325933D01*
X638455Y325961D01*
X638399Y325979D01*
X638353Y325998D01*
X638316Y326016D01*
X638297Y326025D01*
X638288D01*
X638482Y326857D01*
X638649Y326802D01*
X638797Y326746D01*
X638935Y326672D01*
X639074Y326608D01*
X639194Y326534D01*
X639305Y326451D01*
X639416Y326377D01*
X639509Y326303D01*
X639582Y326229D01*
X639656Y326164D01*
X639721Y326099D01*
X639767Y326053D01*
X639814Y326007D01*
X639841Y325970D01*
X639851Y325951D01*
X639860Y325942D01*
X639943Y325813D01*
X640026Y325683D01*
X640091Y325554D01*
X640146Y325415D01*
X640230Y325138D01*
X640285Y324888D01*
X640313Y324768D01*
X640322Y324666D01*
X640331Y324565D01*
X640341Y324481D01*
X640350Y324417D01*
Y324324D01*
X640331Y324019D01*
X640285Y323723D01*
X640230Y323464D01*
X640193Y323344D01*
X640156Y323233D01*
X640119Y323131D01*
X640082Y323039D01*
X640054Y322965D01*
X640026Y322891D01*
X639999Y322845D01*
X639980Y322808D01*
X639971Y322780D01*
X639962Y322771D01*
X639804Y322521D01*
X639619Y322309D01*
X639435Y322124D01*
X639250Y321966D01*
X639083Y321846D01*
X639009Y321800D01*
X638945Y321763D01*
X638898Y321726D01*
X638861Y321708D01*
X638834Y321698D01*
X638824Y321689D01*
X638538Y321560D01*
X638242Y321467D01*
X637946Y321403D01*
X637678Y321356D01*
X637558Y321338D01*
X637438Y321329D01*
X637345Y321319D01*
X637253D01*
X637188Y321310D01*
X637132D01*
X637095D01*
X637086D01*
X636753Y321329D01*
X636430Y321366D01*
X636143Y321412D01*
X636004Y321449D01*
X635884Y321476D01*
X635773Y321504D01*
X635672Y321541D01*
X635579Y321569D01*
X635505Y321587D01*
X635450Y321615D01*
X635404Y321624D01*
X635376Y321643D01*
X635367D01*
X635089Y321782D01*
X634840Y321939D01*
X634627Y322105D01*
X634544Y322188D01*
X634460Y322262D01*
X634386Y322336D01*
X634322Y322410D01*
X634266Y322475D01*
X634229Y322530D01*
X634192Y322567D01*
X634165Y322604D01*
X634155Y322623D01*
X634146Y322632D01*
X634072Y322762D01*
X634007Y322891D01*
X633906Y323168D01*
X633832Y323446D01*
X633786Y323714D01*
X633767Y323843D01*
X633749Y323954D01*
X633739Y324056D01*
Y324139D01*
X633730Y324213D01*
Y324315D01*
X633739Y324500D01*
X633758Y324675D01*
X633776Y324842D01*
X633813Y324999D01*
X633859Y325147D01*
X633906Y325286D01*
X633952Y325415D01*
X634007Y325535D01*
X634054Y325637D01*
X634100Y325739D01*
X634146Y325813D01*
X634192Y325887D01*
X634229Y325933D01*
X634248Y325979D01*
X634266Y325998D01*
X634276Y326007D01*
X634386Y326136D01*
X634497Y326247D01*
X634627Y326349D01*
X634756Y326451D01*
X635015Y326617D01*
X635274Y326746D01*
X635394Y326802D01*
X635505Y326848D01*
X635607Y326885D01*
X635690Y326913D01*
X635764Y326941D01*
X635820Y326959D01*
X635857Y326968D01*
X635866D01*
X636078Y326118D01*
D02*
G37*
%LPC*%
G36*
X498673Y274252D02*
X498636D01*
X498617D01*
X498608D01*
X498368Y274233D01*
X498155Y274196D01*
X497979Y274141D01*
X497831Y274076D01*
X497711Y274002D01*
X497628Y273946D01*
X497573Y273909D01*
X497554Y273891D01*
X497425Y273752D01*
X497332Y273604D01*
X497267Y273456D01*
X497221Y273309D01*
X497194Y273188D01*
X497184Y273087D01*
X497175Y273050D01*
Y272994D01*
X497194Y272800D01*
X497231Y272624D01*
X497295Y272467D01*
X497369Y272328D01*
X497434Y272227D01*
X497499Y272144D01*
X497536Y272097D01*
X497554Y272079D01*
X497702Y271959D01*
X497868Y271866D01*
X498035Y271811D01*
X498192Y271765D01*
X498331Y271737D01*
X498386Y271728D01*
X498442D01*
X498488Y271718D01*
X498516D01*
X498534D01*
X498543D01*
X498784Y271737D01*
X499006Y271774D01*
X499200Y271838D01*
X499357Y271912D01*
X499487Y271977D01*
X499579Y272042D01*
X499607Y272060D01*
X499634Y272079D01*
X499644Y272097D01*
X499653D01*
X499727Y272171D01*
X499801Y272245D01*
X499902Y272402D01*
X499986Y272560D01*
X500032Y272708D01*
X500069Y272828D01*
X500078Y272929D01*
X500087Y272966D01*
Y273114D01*
X500069Y273207D01*
X500023Y273373D01*
X499958Y273521D01*
X499893Y273651D01*
X499819Y273752D01*
X499755Y273826D01*
X499708Y273873D01*
X499699Y273891D01*
X499690D01*
X499533Y274011D01*
X499357Y274104D01*
X499172Y274168D01*
X498997Y274205D01*
X498848Y274233D01*
X498784Y274242D01*
X498719D01*
X498673Y274252D01*
D02*
G37*
G36*
X637142Y336038D02*
X637058D01*
X637012D01*
X637003D01*
X636994D01*
X636707D01*
X636448Y336020D01*
X636217Y336001D01*
X635995Y335983D01*
X635810Y335955D01*
X635635Y335918D01*
X635487Y335881D01*
X635348Y335853D01*
X635237Y335816D01*
X635145Y335779D01*
X635061Y335752D01*
X634997Y335715D01*
X634950Y335696D01*
X634923Y335678D01*
X634904Y335659D01*
X634895D01*
X634803Y335585D01*
X634729Y335511D01*
X634655Y335437D01*
X634599Y335363D01*
X634507Y335206D01*
X634442Y335067D01*
X634405Y334938D01*
X634386Y334846D01*
X634377Y334809D01*
Y334753D01*
X634386Y334651D01*
X634396Y334559D01*
X634460Y334383D01*
X634544Y334226D01*
X634636Y334087D01*
X634729Y333986D01*
X634812Y333903D01*
X634877Y333856D01*
X634886Y333838D01*
X634895D01*
X635006Y333773D01*
X635135Y333718D01*
X635283Y333662D01*
X635440Y333625D01*
X635607Y333588D01*
X635783Y333560D01*
X636143Y333514D01*
X636310Y333496D01*
X636467Y333487D01*
X636615Y333477D01*
X636735D01*
X636846Y333468D01*
X636929D01*
X636975D01*
X636994D01*
X637280Y333477D01*
X637539Y333487D01*
X637780Y333505D01*
X638002Y333533D01*
X638196Y333560D01*
X638371Y333597D01*
X638529Y333634D01*
X638667Y333671D01*
X638787Y333708D01*
X638889Y333736D01*
X638972Y333773D01*
X639046Y333801D01*
X639092Y333829D01*
X639129Y333847D01*
X639148Y333866D01*
X639157D01*
X639240Y333930D01*
X639314Y333995D01*
X639370Y334069D01*
X639425Y334143D01*
X639509Y334291D01*
X639564Y334430D01*
X639592Y334550D01*
X639610Y334651D01*
X639619Y334688D01*
Y334744D01*
X639610Y334846D01*
X639601Y334947D01*
X639573Y335040D01*
X639536Y335123D01*
X639453Y335280D01*
X639361Y335419D01*
X639259Y335521D01*
X639176Y335604D01*
X639139Y335631D01*
X639111Y335650D01*
X639102Y335668D01*
X639092D01*
X638982Y335733D01*
X638852Y335789D01*
X638704Y335844D01*
X638547Y335881D01*
X638381Y335918D01*
X638205Y335946D01*
X637854Y335992D01*
X637678Y336011D01*
X637521Y336020D01*
X637373Y336029D01*
X637253D01*
X637142Y336038D01*
D02*
G37*
G36*
X635930Y331083D02*
X635894D01*
X635875D01*
X635866D01*
X635616Y331064D01*
X635404Y331027D01*
X635219Y330972D01*
X635061Y330907D01*
X634941Y330833D01*
X634849Y330778D01*
X634793Y330741D01*
X634784Y330722D01*
X634775D01*
X634701Y330657D01*
X634645Y330583D01*
X634544Y330435D01*
X634479Y330288D01*
X634423Y330158D01*
X634396Y330038D01*
X634386Y329945D01*
X634377Y329908D01*
Y329862D01*
X634386Y329733D01*
X634405Y329613D01*
X634442Y329502D01*
X634479Y329409D01*
X634507Y329326D01*
X634544Y329261D01*
X634562Y329224D01*
X634571Y329206D01*
X634655Y329095D01*
X634738Y329002D01*
X634840Y328919D01*
X634923Y328854D01*
X635006Y328799D01*
X635071Y328762D01*
X635117Y328734D01*
X635135Y328725D01*
X635274Y328670D01*
X635413Y328633D01*
X635542Y328596D01*
X635662Y328577D01*
X635764Y328568D01*
X635847Y328559D01*
X635894D01*
X635912D01*
X636134Y328577D01*
X636328Y328614D01*
X636504Y328679D01*
X636642Y328744D01*
X636763Y328808D01*
X636846Y328873D01*
X636892Y328910D01*
X636911Y328928D01*
X637040Y329076D01*
X637132Y329224D01*
X637206Y329381D01*
X637253Y329520D01*
X637280Y329650D01*
X637290Y329742D01*
X637299Y329779D01*
Y329834D01*
X637280Y330029D01*
X637234Y330204D01*
X637179Y330352D01*
X637105Y330482D01*
X637031Y330583D01*
X636975Y330657D01*
X636929Y330704D01*
X636911Y330722D01*
X636753Y330842D01*
X636587Y330935D01*
X636411Y330999D01*
X636245Y331036D01*
X636097Y331064D01*
X636032Y331073D01*
X635977D01*
X635930Y331083D01*
D02*
G37*
%LPD*%
D10*
X206633Y288603D02*
Y311103D01*
X227933Y288603D02*
Y311103D01*
X206633Y288603D02*
X227933D01*
X206633Y311103D02*
X227933D01*
X334903Y310591D02*
X356203D01*
X334903Y288091D02*
X356203D01*
Y310591D01*
X334903Y288091D02*
Y310591D01*
X205363Y142041D02*
Y164541D01*
X226663Y142041D02*
Y164541D01*
X205363Y142041D02*
X226663D01*
X205363Y164541D02*
X226663D01*
X335870Y163650D02*
X357170D01*
X335870Y141150D02*
X357170D01*
Y163650D01*
X335870Y141150D02*
Y163650D01*
D16*
X486858Y247728D02*
Y262453D01*
X479358Y262453D02*
X486858Y262453D01*
X479358Y247728D02*
Y262453D01*
Y247728D02*
X486858D01*
X634485Y379151D02*
X654606D01*
Y341029D02*
Y379151D01*
X634485Y341029D02*
X654606D01*
X634485D02*
Y379151D01*
M02*
