G04*
G04 #@! TF.GenerationSoftware,Altium Limited,Altium Designer,23.1.1 (15)*
G04*
G04 Layer_Color=32768*
%FSLAX44Y44*%
%MOMM*%
G71*
G04*
G04 #@! TF.SameCoordinates,D1EA7B9B-11C4-41B5-954D-5070AA3C9977*
G04*
G04*
G04 #@! TF.FilePolarity,Positive*
G04*
G01*
G75*
%ADD10C,0.1000*%
%ADD17C,0.1270*%
%ADD192C,0.0508*%
%ADD193C,0.0500*%
G36*
X583963Y642838D02*
X584315Y642486D01*
X584314Y642237D01*
X584314Y641989D01*
X583962Y641638D01*
X583465Y641638D01*
X583114Y641990D01*
X583115Y642238D01*
X583115Y642487D01*
X583466Y642838D01*
X583963Y642838D01*
D02*
G37*
G36*
X315210Y617794D02*
X312210D01*
Y625794D01*
X315210D01*
Y617794D01*
D02*
G37*
G36*
X228810D02*
X225810D01*
Y625794D01*
X228810D01*
Y617794D01*
D02*
G37*
G36*
X561914Y604039D02*
X555514D01*
Y610438D01*
X561914D01*
Y604039D01*
D02*
G37*
G36*
X536915D02*
X530515D01*
Y610438D01*
X536915D01*
Y604039D01*
D02*
G37*
G36*
X86705Y583667D02*
X80705D01*
Y584867D01*
X86705D01*
Y583667D01*
D02*
G37*
G36*
X82454Y576667D02*
X78954D01*
Y577867D01*
X82454D01*
Y576667D01*
D02*
G37*
G36*
X315210Y574796D02*
X312210D01*
Y585796D01*
X315210D01*
Y574796D01*
D02*
G37*
G36*
X228810D02*
X225810D01*
Y585796D01*
X228810D01*
Y574796D01*
D02*
G37*
G36*
X110955Y573667D02*
X107455D01*
Y574867D01*
X110955D01*
Y573667D01*
D02*
G37*
G36*
X82454Y570668D02*
X78954D01*
Y571868D01*
X82454D01*
Y570668D01*
D02*
G37*
G36*
X304512Y570145D02*
X300511D01*
Y577145D01*
X304512D01*
Y570145D01*
D02*
G37*
G36*
X296511D02*
X292511D01*
Y577145D01*
X296511D01*
Y570145D01*
D02*
G37*
G36*
X284009D02*
X282009D01*
Y577145D01*
X284009D01*
Y570145D01*
D02*
G37*
G36*
X279011D02*
X277011D01*
Y577145D01*
X279011D01*
Y570145D01*
D02*
G37*
G36*
X274009D02*
X272009D01*
Y577145D01*
X274009D01*
Y570145D01*
D02*
G37*
G36*
X269011D02*
X267011D01*
Y577145D01*
X269011D01*
Y570145D01*
D02*
G37*
G36*
X264009D02*
X262009D01*
Y577145D01*
X264009D01*
Y570145D01*
D02*
G37*
G36*
X259011D02*
X257011D01*
Y577145D01*
X259011D01*
Y570145D01*
D02*
G37*
G36*
X254009D02*
X252009D01*
Y577145D01*
X254009D01*
Y570145D01*
D02*
G37*
G36*
X248510D02*
X244510D01*
Y577145D01*
X248510D01*
Y570145D01*
D02*
G37*
G36*
X240511D02*
X236511D01*
Y577145D01*
X240511D01*
Y570145D01*
D02*
G37*
G36*
X289011Y570145D02*
X287011D01*
Y577145D01*
X289011D01*
Y570145D01*
D02*
G37*
G36*
X315453Y570723D02*
X315801Y570386D01*
X315810Y570144D01*
X315810Y570144D01*
X315801Y569902D01*
X315452Y569566D01*
X314967Y569566D01*
X314619Y569902D01*
X314611Y570145D01*
X314611Y570145D01*
X314619Y570387D01*
X314968Y570723D01*
X315453Y570723D01*
D02*
G37*
G36*
X110955Y567668D02*
X107455D01*
Y568868D01*
X110955D01*
Y567668D01*
D02*
G37*
G36*
X82454Y564668D02*
X78954D01*
Y565868D01*
X82454D01*
Y564668D01*
D02*
G37*
G36*
X110955Y561666D02*
X107455D01*
Y562866D01*
X110955D01*
Y561666D01*
D02*
G37*
G36*
X82454Y558666D02*
X78954D01*
Y559866D01*
X82454D01*
Y558666D01*
D02*
G37*
G36*
X197833Y561235D02*
X198172Y560886D01*
X198172Y560632D01*
X202590D01*
Y558132D01*
X197589D01*
Y560043D01*
X197589Y560043D01*
X197346Y560050D01*
X197007Y560399D01*
X197007Y560886D01*
X197347Y561235D01*
X197590Y561242D01*
X197833Y561235D01*
D02*
G37*
G36*
X185067D02*
X185406Y560886D01*
X185406Y560632D01*
X189824D01*
Y558132D01*
X184823D01*
Y560043D01*
X184823Y560043D01*
X184580Y560050D01*
X184241Y560399D01*
X184241Y560886D01*
X184581Y561235D01*
X184824Y561242D01*
X185067Y561235D01*
D02*
G37*
G36*
X172301D02*
X172640Y560886D01*
X172640Y560632D01*
X177058D01*
Y558132D01*
X172057D01*
Y560043D01*
X172057Y560043D01*
X171814Y560050D01*
X171475Y560399D01*
X171475Y560886D01*
X171815Y561235D01*
X172058Y561242D01*
X172301Y561235D01*
D02*
G37*
G36*
X110955Y555667D02*
X107455D01*
Y556866D01*
X110955D01*
Y555667D01*
D02*
G37*
G36*
X82454Y552667D02*
X78954D01*
Y553867D01*
X82454D01*
Y552667D01*
D02*
G37*
G36*
X399148Y551949D02*
X379548D01*
Y557949D01*
X399148D01*
Y551949D01*
D02*
G37*
G36*
X202590Y550628D02*
X197589D01*
Y553128D01*
X202590D01*
Y550628D01*
D02*
G37*
G36*
X189824D02*
X184823D01*
Y553128D01*
X189824D01*
Y550628D01*
D02*
G37*
G36*
X177058D02*
X172057D01*
Y553128D01*
X177058D01*
Y550628D01*
D02*
G37*
G36*
X110955Y549667D02*
X107455D01*
Y550867D01*
X110955D01*
Y549667D01*
D02*
G37*
G36*
X598211Y550431D02*
X598459Y550431D01*
X598811Y550079D01*
X598811Y549830D01*
X603210D01*
Y547330D01*
X598210D01*
Y549230D01*
X597961Y549230D01*
X597609Y549582D01*
X597610Y550080D01*
X597962Y550431D01*
X598211Y550431D01*
D02*
G37*
G36*
X82454Y546667D02*
X78954D01*
Y547867D01*
X82454D01*
Y546667D01*
D02*
G37*
G36*
X110955Y543667D02*
X107455D01*
Y544867D01*
X110955D01*
Y543667D01*
D02*
G37*
G36*
X149960Y540123D02*
X148049D01*
X148049Y540123D01*
X148042Y539880D01*
X147693Y539541D01*
X147206Y539541D01*
X146857Y539880D01*
X146850Y540123D01*
X146857Y540367D01*
X147206Y540706D01*
X147460Y540706D01*
Y545123D01*
X149960D01*
Y540123D01*
D02*
G37*
G36*
X82454Y540668D02*
X78954D01*
Y541868D01*
X82454D01*
Y540668D01*
D02*
G37*
G36*
X157464Y540123D02*
X154964D01*
Y545123D01*
X157464D01*
Y540123D01*
D02*
G37*
G36*
X603210Y539830D02*
X598210D01*
Y542330D01*
X603210D01*
Y539830D01*
D02*
G37*
G36*
X110955Y537668D02*
X107455D01*
Y538868D01*
X110955D01*
Y537668D01*
D02*
G37*
G36*
X82454Y534668D02*
X78954D01*
Y535868D01*
X82454D01*
Y534668D01*
D02*
G37*
G36*
X690383Y537897D02*
X685382Y532897D01*
X678890Y532902D01*
Y532894D01*
X674890D01*
Y537894D01*
X678783D01*
Y537901D01*
X690383Y537897D01*
D02*
G37*
G36*
X739890Y532894D02*
X735991D01*
Y532892D01*
X729391Y532888D01*
X724390Y537889D01*
X735890Y537893D01*
Y537894D01*
X739890D01*
Y532894D01*
D02*
G37*
G36*
X110955Y531666D02*
X107455D01*
Y532866D01*
X110955D01*
Y531666D01*
D02*
G37*
G36*
X453111Y530961D02*
X453447Y530612D01*
Y530128D01*
X453111Y529780D01*
X452869Y529771D01*
X452869D01*
X452627Y529780D01*
X452291Y530128D01*
Y530612D01*
X452627Y530961D01*
X452869Y530970D01*
X453111Y530961D01*
D02*
G37*
G36*
X82454Y528666D02*
X78954D01*
Y529866D01*
X82454D01*
Y528666D01*
D02*
G37*
G36*
X149960Y527357D02*
X148049D01*
X148049Y527357D01*
X148042Y527114D01*
X147693Y526775D01*
X147206Y526775D01*
X146857Y527114D01*
X146850Y527357D01*
X146857Y527601D01*
X147206Y527940D01*
X147460Y527940D01*
Y532357D01*
X149960D01*
Y527357D01*
D02*
G37*
G36*
X157464D02*
X154964D01*
Y532357D01*
X157464D01*
Y527357D01*
D02*
G37*
G36*
X344748Y526951D02*
X325148D01*
Y532951D01*
X344748D01*
Y526951D01*
D02*
G37*
G36*
X476569Y526371D02*
X474169D01*
Y530371D01*
X476569D01*
Y526371D01*
D02*
G37*
G36*
X471569D02*
X469169D01*
Y530371D01*
X471569D01*
Y526371D01*
D02*
G37*
G36*
X466569D02*
X464169D01*
Y530371D01*
X466569D01*
Y526371D01*
D02*
G37*
G36*
X461569D02*
X459169D01*
Y530371D01*
X461569D01*
Y526371D01*
D02*
G37*
G36*
X110955Y525667D02*
X107455D01*
Y526866D01*
X110955D01*
Y525667D01*
D02*
G37*
G36*
X234700Y523966D02*
X229700D01*
Y526466D01*
X234700D01*
Y523966D01*
D02*
G37*
G36*
X282960Y523215D02*
X277960D01*
Y525714D01*
X282960D01*
Y523215D01*
D02*
G37*
G36*
X137687Y522759D02*
X132687D01*
Y525259D01*
X137687D01*
Y522759D01*
D02*
G37*
G36*
X82454Y522667D02*
X78954D01*
Y523867D01*
X82454D01*
Y522667D01*
D02*
G37*
G36*
X482869Y521671D02*
X478869D01*
Y524071D01*
X482869D01*
Y521671D01*
D02*
G37*
G36*
X456869D02*
X452869D01*
Y524071D01*
X456869D01*
Y521671D01*
D02*
G37*
G36*
X644572Y522512D02*
X644921Y522173D01*
X644928Y521929D01*
X644928Y521929D01*
X644920Y521686D01*
X644571Y521347D01*
X644317Y521347D01*
Y516930D01*
X641817D01*
Y521930D01*
X643728D01*
X643735Y522173D01*
X644085Y522512D01*
X644572Y522512D01*
D02*
G37*
G36*
X110955Y519667D02*
X107455D01*
Y520867D01*
X110955D01*
Y519667D01*
D02*
G37*
G36*
X636814Y516930D02*
X634314D01*
Y521930D01*
X636814D01*
Y516930D01*
D02*
G37*
G36*
X482869Y516671D02*
X478869D01*
Y519071D01*
X482869D01*
Y516671D01*
D02*
G37*
G36*
X456869D02*
X452869D01*
Y519071D01*
X456869D01*
Y516671D01*
D02*
G37*
G36*
X82454Y516667D02*
X78954D01*
Y517867D01*
X82454D01*
Y516667D01*
D02*
G37*
G36*
X617355Y518692D02*
X617369Y518081D01*
X617355Y517470D01*
X616481Y516615D01*
X615259Y516615D01*
X614385Y517469D01*
X614371Y518080D01*
X614371Y518080D01*
X614384Y518691D01*
X615258Y519546D01*
X616480Y519546D01*
X617355Y518692D01*
D02*
G37*
G36*
X612353D02*
X612367Y518081D01*
X612354Y517470D01*
X611480Y516615D01*
X610258Y516615D01*
X609383Y517469D01*
X609369Y518080D01*
X609369Y518080D01*
X609383Y518691D01*
X610257Y519546D01*
X611479Y519546D01*
X612353Y518692D01*
D02*
G37*
G36*
X607355D02*
X607369Y518081D01*
X607355Y517470D01*
X606481Y516615D01*
X605259Y516615D01*
X604385Y517469D01*
X604371Y518080D01*
X604371Y518080D01*
X604384Y518691D01*
X605258Y519546D01*
X606480Y519546D01*
X607355Y518692D01*
D02*
G37*
G36*
X234700Y517052D02*
X234943Y517045D01*
X235282Y516695D01*
X235282Y516208D01*
X234943Y515859D01*
X234699Y515852D01*
X234456Y515860D01*
X234117Y516209D01*
X234117Y516463D01*
X229700D01*
Y518963D01*
X234700D01*
Y517052D01*
D02*
G37*
G36*
X282960Y516300D02*
X283203Y516293D01*
X283542Y515943D01*
X283542Y515457D01*
X283203Y515107D01*
X282959Y515101D01*
X282716Y515108D01*
X282377Y515457D01*
X282377Y515711D01*
X277960D01*
Y518211D01*
X282960D01*
Y516300D01*
D02*
G37*
G36*
X137687Y515845D02*
X137930Y515837D01*
X138270Y515488D01*
X138269Y515001D01*
X137930Y514652D01*
X137687Y514645D01*
X137443Y514652D01*
X137104Y515002D01*
X137105Y515256D01*
X132687D01*
Y517756D01*
X137687D01*
Y515845D01*
D02*
G37*
G36*
X110955Y513668D02*
X107455D01*
Y514867D01*
X110955D01*
Y513668D01*
D02*
G37*
G36*
X482869Y511671D02*
X478869D01*
Y514071D01*
X482869D01*
Y511671D01*
D02*
G37*
G36*
X456869D02*
X452869D01*
Y514071D01*
X456869D01*
Y511671D01*
D02*
G37*
G36*
X617355Y513691D02*
X617369Y513080D01*
X617355Y512469D01*
X616481Y511614D01*
X615259Y511614D01*
X614385Y512468D01*
X614371Y513079D01*
X614371Y513079D01*
X614384Y513690D01*
X615258Y514545D01*
X616480Y514545D01*
X617355Y513691D01*
D02*
G37*
G36*
X612353D02*
X612367Y513080D01*
X612354Y512469D01*
X611480Y511614D01*
X610258Y511614D01*
X609383Y512468D01*
X609369Y513079D01*
X609369Y513079D01*
X609383Y513690D01*
X610257Y514545D01*
X611479Y514545D01*
X612353Y513691D01*
D02*
G37*
G36*
X607355D02*
X607369Y513080D01*
X607355Y512469D01*
X606481Y511614D01*
X605259Y511614D01*
X604385Y512468D01*
X604371Y513079D01*
X604371Y513079D01*
X604384Y513690D01*
X605258Y514545D01*
X606480Y514545D01*
X607355Y513691D01*
D02*
G37*
G36*
X82454Y510668D02*
X78954D01*
Y511868D01*
X82454D01*
Y510668D01*
D02*
G37*
G36*
X110955Y507668D02*
X107455D01*
Y508868D01*
X110955D01*
Y507668D01*
D02*
G37*
G36*
X476369Y523871D02*
Y506871D01*
X459369D01*
X459369Y520371D01*
X462869Y523872D01*
X476369Y523871D01*
D02*
G37*
G36*
X482869Y506671D02*
X478869D01*
Y509071D01*
X482869D01*
Y506671D01*
D02*
G37*
G36*
X456869D02*
X452869D01*
Y509071D01*
X456869D01*
Y506671D01*
D02*
G37*
G36*
X617355Y508692D02*
X617369Y508081D01*
X617355Y507470D01*
X616481Y506615D01*
X615259Y506615D01*
X614385Y507469D01*
X614371Y508080D01*
X614371Y508080D01*
X614384Y508691D01*
X615258Y509546D01*
X616480Y509546D01*
X617355Y508692D01*
D02*
G37*
G36*
X612353D02*
X612367Y508081D01*
X612354Y507470D01*
X611480Y506615D01*
X610258Y506615D01*
X609383Y507469D01*
X609369Y508080D01*
X609369Y508080D01*
X609383Y508691D01*
X610257Y509546D01*
X611479Y509546D01*
X612353Y508692D01*
D02*
G37*
G36*
X607355D02*
X607369Y508081D01*
X607355Y507470D01*
X606481Y506615D01*
X605259Y506615D01*
X604385Y507469D01*
X604371Y508080D01*
X604371Y508080D01*
X604384Y508691D01*
X605258Y509546D01*
X606480Y509546D01*
X607355Y508692D01*
D02*
G37*
G36*
X157693Y507407D02*
X158042Y507067D01*
X158049Y506824D01*
X158049Y506824D01*
X158041Y506581D01*
X157692Y506242D01*
X157438Y506242D01*
Y501824D01*
X154938D01*
Y506825D01*
X156849D01*
X156856Y507068D01*
X157206Y507407D01*
X157693Y507407D01*
D02*
G37*
G36*
X636839Y504230D02*
X634928D01*
X634928Y504230D01*
X634921Y503987D01*
X634572Y503648D01*
X634085Y503648D01*
X633736Y503987D01*
X633729Y504231D01*
X633736Y504474D01*
X634085Y504813D01*
X634339Y504813D01*
Y509230D01*
X636839D01*
Y504230D01*
D02*
G37*
G36*
X82454Y504666D02*
X78954D01*
Y505866D01*
X82454D01*
Y504666D01*
D02*
G37*
G36*
X619563Y505425D02*
X619568Y505180D01*
X619568Y505180D01*
X619563Y504936D01*
X619214Y504593D01*
X618724Y504592D01*
X618374Y504935D01*
X618369Y505179D01*
X618369Y505179D01*
X618374Y505424D01*
X618723Y505767D01*
X619213Y505767D01*
X619563Y505425D01*
D02*
G37*
G36*
X644343Y504230D02*
X641843D01*
Y509230D01*
X644343D01*
Y504230D01*
D02*
G37*
G36*
X399148Y501952D02*
X379548D01*
Y507952D01*
X399148D01*
Y501952D01*
D02*
G37*
G36*
X149935Y501824D02*
X147435D01*
Y506825D01*
X149935D01*
Y501824D01*
D02*
G37*
G36*
X110955Y501666D02*
X107455D01*
Y502866D01*
X110955D01*
Y501666D01*
D02*
G37*
G36*
X739890Y495899D02*
X735989D01*
Y495892D01*
X724389Y495896D01*
X729389Y500896D01*
X735890Y500892D01*
Y500899D01*
X739890D01*
Y495899D01*
D02*
G37*
G36*
X476569Y500371D02*
X474169D01*
Y504371D01*
X476569D01*
Y500371D01*
D02*
G37*
G36*
X471569D02*
X469169D01*
Y504371D01*
X471569D01*
Y500371D01*
D02*
G37*
G36*
X466569D02*
X464169D01*
Y504371D01*
X466569D01*
Y500371D01*
D02*
G37*
G36*
X461569D02*
X459169D01*
Y504371D01*
X461569D01*
Y500371D01*
D02*
G37*
G36*
X82454Y498666D02*
X78954D01*
Y499866D01*
X82454D01*
Y498666D01*
D02*
G37*
G36*
X690390Y495890D02*
X678890Y495886D01*
Y495886D01*
X674890D01*
Y500886D01*
X678790D01*
X685390Y500890D01*
X690390Y495890D01*
D02*
G37*
G36*
X110955Y495667D02*
X107455D01*
Y496866D01*
X110955D01*
Y495667D01*
D02*
G37*
G36*
X325689Y494070D02*
X323778D01*
X323778Y494070D01*
X323771Y493827D01*
X323422Y493488D01*
X322935Y493488D01*
X322586Y493827D01*
X322579Y494071D01*
X322586Y494314D01*
X322935Y494653D01*
X323189Y494653D01*
Y499070D01*
X325689D01*
Y494070D01*
D02*
G37*
G36*
X333193D02*
X330693D01*
Y499070D01*
X333193D01*
Y494070D01*
D02*
G37*
G36*
X82454Y492667D02*
X78954D01*
Y493867D01*
X82454D01*
Y492667D01*
D02*
G37*
G36*
X740490Y491640D02*
Y491391D01*
Y491142D01*
X740138Y490791D01*
X739641D01*
X739290Y491142D01*
Y491391D01*
Y491640D01*
X739641Y491991D01*
X740138D01*
X740490Y491640D01*
D02*
G37*
G36*
X178327Y490329D02*
X173327D01*
Y492829D01*
X178327D01*
Y490329D01*
D02*
G37*
G36*
X188811Y493407D02*
X189150Y493058D01*
X189150Y492804D01*
X193568D01*
Y490304D01*
X188568D01*
Y492215D01*
X188567Y492215D01*
X188324Y492222D01*
X187985Y492571D01*
X187985Y493058D01*
X188325Y493407D01*
X188568Y493414D01*
X188811Y493407D01*
D02*
G37*
G36*
X110955Y489667D02*
X107455D01*
Y490867D01*
X110955D01*
Y489667D01*
D02*
G37*
G36*
X82454Y486667D02*
X78954D01*
Y487867D01*
X82454D01*
Y486667D01*
D02*
G37*
G36*
X333422Y486952D02*
X333771Y486613D01*
X333778Y486369D01*
X333778Y486369D01*
X333770Y486126D01*
X333421Y485787D01*
X333167Y485787D01*
Y481370D01*
X330667D01*
Y486370D01*
X332578D01*
X332585Y486613D01*
X332935Y486952D01*
X333422Y486952D01*
D02*
G37*
G36*
X399148Y485300D02*
X399397Y485300D01*
X399748Y484949D01*
X399748Y484452D01*
X399396Y484101D01*
X399148Y484101D01*
X398899Y484101D01*
X398548Y484452D01*
X398549Y484949D01*
X398900Y485300D01*
X399148Y485300D01*
D02*
G37*
G36*
X110955Y483668D02*
X107455D01*
Y484868D01*
X110955D01*
Y483668D01*
D02*
G37*
G36*
X193568Y482800D02*
X188568D01*
Y485300D01*
X193568D01*
Y482800D01*
D02*
G37*
G36*
X178327Y483415D02*
X178570Y483408D01*
X178909Y483058D01*
X178909Y482571D01*
X178570Y482222D01*
X178327Y482215D01*
X178083Y482223D01*
X177744Y482572D01*
X177745Y482826D01*
X173327D01*
Y485326D01*
X178327D01*
Y483415D01*
D02*
G37*
G36*
X449130Y481775D02*
X441130D01*
Y484775D01*
X449130D01*
Y481775D01*
D02*
G37*
G36*
X325664Y481370D02*
X323164D01*
Y486370D01*
X325664D01*
Y481370D01*
D02*
G37*
G36*
X82454Y480668D02*
X78954D01*
Y481868D01*
X82454D01*
Y480668D01*
D02*
G37*
G36*
X485100Y479808D02*
X480100D01*
Y482308D01*
X485100D01*
Y479808D01*
D02*
G37*
G36*
X461600D02*
X456600D01*
Y482308D01*
X461600D01*
Y479808D01*
D02*
G37*
G36*
X468594Y482886D02*
X468933Y482536D01*
X468933Y482282D01*
X473350D01*
Y479782D01*
X468350D01*
Y481693D01*
X468350Y481693D01*
X468107Y481701D01*
X467768Y482050D01*
X467768Y482537D01*
X468107Y482886D01*
X468351Y482893D01*
X468594Y482886D01*
D02*
G37*
G36*
X426496D02*
X426835Y482536D01*
X426835Y482282D01*
X431252Y482282D01*
X431252Y479782D01*
X426252D01*
Y481693D01*
X426252D01*
X426009Y481701D01*
X425670Y482050D01*
X425670Y482537D01*
X426009Y482886D01*
X426253Y482893D01*
X426496Y482886D01*
D02*
G37*
G36*
X110955Y477668D02*
X107455D01*
Y478868D01*
X110955D01*
Y477668D01*
D02*
G37*
G36*
X409985Y480446D02*
X410234Y480446D01*
X410585Y480094D01*
X410585Y479847D01*
X417985Y479847D01*
X417985Y476847D01*
X409985D01*
Y479247D01*
X409737Y479247D01*
X409386Y479598D01*
X409386Y480095D01*
X409737Y480446D01*
X409985Y480446D01*
D02*
G37*
G36*
X393740Y476401D02*
X393745Y476157D01*
Y476157D01*
Y476157D01*
Y476157D01*
X393740Y475912D01*
X393391Y475569D01*
X393145D01*
Y468156D01*
X390144D01*
X390144Y476156D01*
X392546D01*
Y476157D01*
X392551Y476401D01*
X392901Y476744D01*
X393391D01*
X393740Y476401D01*
D02*
G37*
G36*
X392546Y476157D02*
Y476157D01*
Y476157D01*
Y476157D01*
D02*
G37*
G36*
X82454Y474666D02*
X78954D01*
Y475866D01*
X82454D01*
Y474666D01*
D02*
G37*
G36*
X473350Y472279D02*
X468350D01*
Y474779D01*
X473350D01*
Y472279D01*
D02*
G37*
G36*
X431252D02*
X426252D01*
X426252Y474779D01*
X431252D01*
X431252Y472279D01*
D02*
G37*
G36*
X485100Y472893D02*
X485343Y472886D01*
X485682Y472537D01*
X485682Y472050D01*
X485343Y471701D01*
X485099Y471694D01*
X484856Y471701D01*
X484517Y472050D01*
X484517Y472304D01*
X480100D01*
Y474804D01*
X485100D01*
Y472893D01*
D02*
G37*
G36*
X461600D02*
X461843Y472886D01*
X462182Y472537D01*
X462182Y472050D01*
X461843Y471701D01*
X461599Y471694D01*
X461356Y471701D01*
X461017Y472050D01*
X461017Y472304D01*
X456600D01*
Y474804D01*
X461600D01*
Y472893D01*
D02*
G37*
G36*
X110955Y471666D02*
X107455D01*
Y472866D01*
X110955D01*
Y471666D01*
D02*
G37*
G36*
X82454Y468666D02*
X78954D01*
Y469866D01*
X82454D01*
Y468666D01*
D02*
G37*
G36*
X449130Y469374D02*
X449130D01*
X449379Y469374D01*
X449730Y469022D01*
X449730Y468526D01*
X449378Y468174D01*
X449130Y468175D01*
X448881Y468175D01*
X448530Y468526D01*
X448531Y468775D01*
X441130D01*
Y471775D01*
X449130D01*
Y469374D01*
D02*
G37*
G36*
X380145Y476156D02*
Y468156D01*
X377145Y468156D01*
Y476156D01*
X380145Y476156D01*
D02*
G37*
G36*
X351841Y472400D02*
Y467400D01*
X349930D01*
Y467400D01*
X349923Y467157D01*
X349573Y466818D01*
X349087Y466818D01*
X348738Y467157D01*
X348731Y467401D01*
X348738Y467644D01*
X349087Y467983D01*
X349341Y467983D01*
X349341Y472400D01*
X351841Y472400D01*
D02*
G37*
G36*
X359344Y467400D02*
X356845Y467400D01*
Y472400D01*
X359344Y472400D01*
Y467400D01*
D02*
G37*
G36*
X110955Y465667D02*
X107455D01*
Y466866D01*
X110955D01*
Y465667D01*
D02*
G37*
G36*
X418055Y463847D02*
X410055D01*
X410055Y466847D01*
X418055D01*
X418055Y463847D01*
D02*
G37*
G36*
X82454Y462667D02*
X78954D01*
Y463867D01*
X82454D01*
Y462667D01*
D02*
G37*
G36*
X110955Y459667D02*
X107455D01*
Y460867D01*
X110955D01*
Y459667D01*
D02*
G37*
G36*
X213270Y458105D02*
X213619Y457766D01*
X213626Y457522D01*
X213626Y457522D01*
X213619Y457279D01*
X213269Y456940D01*
X213015Y456940D01*
Y452523D01*
X210516D01*
Y457523D01*
X212426D01*
X212434Y457766D01*
X212783Y458105D01*
X213270Y458105D01*
D02*
G37*
G36*
X82454Y456667D02*
X78954D01*
Y457867D01*
X82454D01*
Y456667D01*
D02*
G37*
G36*
X144425Y457742D02*
X144774Y457403D01*
X144781Y457159D01*
X144781Y457159D01*
X144774Y456916D01*
X144425Y456577D01*
X144171Y456577D01*
Y452160D01*
X141671D01*
Y457160D01*
X143582D01*
X143589Y457403D01*
X143938Y457742D01*
X144425Y457742D01*
D02*
G37*
G36*
X110955Y453668D02*
X107455D01*
Y454868D01*
X110955D01*
Y453668D01*
D02*
G37*
G36*
X205512Y452523D02*
X203012D01*
Y457523D01*
X205512D01*
Y452523D01*
D02*
G37*
G36*
X136667Y452160D02*
X134167D01*
Y457160D01*
X136667D01*
Y452160D01*
D02*
G37*
G36*
X82454Y450668D02*
X78954D01*
Y451868D01*
X82454D01*
Y450668D01*
D02*
G37*
G36*
X110955Y447668D02*
X107455D01*
Y448868D01*
X110955D01*
Y447668D01*
D02*
G37*
G36*
X446197Y446393D02*
X446451Y446393D01*
X446800Y446054D01*
X446808Y445811D01*
X446801Y445567D01*
X446451Y445228D01*
X445965Y445228D01*
X445615Y445567D01*
X445608Y445810D01*
Y445810D01*
X443764D01*
Y443110D01*
X437014D01*
Y445810D01*
X436194D01*
Y450810D01*
X438694Y450810D01*
Y447110D01*
X443697D01*
Y450810D01*
X446197Y450810D01*
X446197Y446393D01*
D02*
G37*
G36*
X82454Y444666D02*
X78954D01*
Y445866D01*
X82454D01*
Y444666D01*
D02*
G37*
G36*
X322735Y449783D02*
X322742Y449540D01*
X324653D01*
Y444540D01*
X322153Y444540D01*
X322153Y448957D01*
X321899Y448957D01*
X321550Y449296D01*
X321542Y449539D01*
X321549Y449783D01*
X321898Y450122D01*
X322385Y450122D01*
X322735Y449783D01*
D02*
G37*
G36*
X144425Y445042D02*
X144774Y444703D01*
X144781Y444459D01*
X144781Y444459D01*
X144774Y444216D01*
X144425Y443877D01*
X144171Y443877D01*
Y439460D01*
X141671D01*
Y444460D01*
X143582D01*
X143589Y444703D01*
X143938Y445042D01*
X144425Y445042D01*
D02*
G37*
G36*
X388307Y443110D02*
X381557D01*
Y447110D01*
X388307D01*
Y443110D01*
D02*
G37*
G36*
X332156Y449540D02*
Y447110D01*
X336407D01*
Y443110D01*
X329657D01*
Y444540D01*
X329656D01*
Y449540D01*
X332156Y449540D01*
D02*
G37*
G36*
X284760Y443110D02*
X278010D01*
Y447110D01*
X284760D01*
Y443110D01*
D02*
G37*
G36*
X361146Y447110D02*
X363807D01*
Y447109D01*
X366557D01*
Y443109D01*
X363707D01*
Y443110D01*
X361747D01*
X361747Y443040D01*
X361747Y442792D01*
X361396Y442440D01*
X360899Y442440D01*
X360548Y442791D01*
X360548Y443039D01*
Y443040D01*
X358146Y443040D01*
X358146Y451040D01*
X361146D01*
Y447110D01*
D02*
G37*
G36*
X311907Y447109D02*
X314657D01*
Y443109D01*
X311807D01*
Y443110D01*
X307907D01*
Y447110D01*
X311907D01*
Y447109D01*
D02*
G37*
G36*
X260260D02*
X263010D01*
Y443109D01*
X260160D01*
Y443110D01*
X256260D01*
Y447110D01*
X260260D01*
Y447109D01*
D02*
G37*
G36*
X406566Y443040D02*
X403566D01*
Y451040D01*
X406566D01*
Y443040D01*
D02*
G37*
G36*
X348146D02*
X345146D01*
Y451040D01*
X348146D01*
X348146Y443040D01*
D02*
G37*
G36*
X419566Y447109D02*
X422014D01*
Y443109D01*
X420167D01*
X420167Y443040D01*
X420167Y442792D01*
X419816Y442440D01*
X419319Y442440D01*
X418968Y442791D01*
X418968Y443039D01*
Y443040D01*
X416566D01*
Y443110D01*
X415264D01*
Y447110D01*
X416566D01*
Y451040D01*
X419566D01*
Y447109D01*
D02*
G37*
G36*
X515780Y441089D02*
X515780D01*
X515780D01*
D01*
D02*
G37*
G36*
X136667Y439460D02*
X134167D01*
Y444460D01*
X136667D01*
Y439460D01*
D02*
G37*
G36*
X86705Y437668D02*
X80705D01*
Y438868D01*
X86705D01*
Y437668D01*
D02*
G37*
G36*
X79554Y436017D02*
X79554Y435520D01*
X79203Y435168D01*
X78954Y435168D01*
X78705Y435168D01*
X78354Y435519D01*
X78353Y436016D01*
X78705Y436368D01*
X78953Y436368D01*
X79202Y436368D01*
X79554Y436017D01*
D02*
G37*
G36*
X439864Y437610D02*
X443764D01*
Y433610D01*
X439764D01*
Y433610D01*
X437014D01*
Y437611D01*
X439864D01*
Y437610D01*
D02*
G37*
G36*
X384407D02*
X388307D01*
Y433610D01*
X384307D01*
Y433610D01*
X381557D01*
Y437611D01*
X384407D01*
Y437610D01*
D02*
G37*
G36*
X332507D02*
X336407D01*
Y433610D01*
X332407D01*
Y433610D01*
X329657D01*
Y437611D01*
X332507D01*
Y437610D01*
D02*
G37*
G36*
X280860D02*
X284760D01*
Y433610D01*
X280760D01*
Y433610D01*
X278010D01*
Y437611D01*
X280860D01*
Y437610D01*
D02*
G37*
G36*
X419264Y437609D02*
X422014D01*
Y433610D01*
X419164D01*
Y433610D01*
X415264D01*
Y437610D01*
X419264D01*
Y437609D01*
D02*
G37*
G36*
X363807D02*
X366557D01*
Y433610D01*
X363707D01*
Y433610D01*
X359807D01*
Y437610D01*
X363807D01*
Y437609D01*
D02*
G37*
G36*
X311907D02*
X314657D01*
Y433610D01*
X311807D01*
Y433610D01*
X307907D01*
Y437610D01*
X311907D01*
Y437609D01*
D02*
G37*
G36*
X260260D02*
X263010D01*
Y433610D01*
X260160D01*
Y433610D01*
X256260D01*
Y437610D01*
X260260D01*
Y437609D01*
D02*
G37*
G36*
X535780Y432491D02*
X529030D01*
Y440491D01*
X535780D01*
Y432491D01*
D02*
G37*
G36*
X516025Y441084D02*
X516367Y440734D01*
Y440491D01*
X522530D01*
Y432491D01*
X515780D01*
Y439890D01*
X515535Y439895D01*
X515193Y440244D01*
Y440734D01*
X515535Y441084D01*
X515780Y441089D01*
X516025Y441084D01*
D02*
G37*
G36*
X439864Y428110D02*
X443764D01*
Y424110D01*
X439764D01*
Y424111D01*
X437014D01*
Y428111D01*
X439864D01*
Y428110D01*
D02*
G37*
G36*
X422014Y424110D02*
X415264D01*
Y428110D01*
X422014D01*
Y424110D01*
D02*
G37*
G36*
X384407Y428110D02*
X388307D01*
Y424110D01*
X384307D01*
Y424111D01*
X381557D01*
Y428111D01*
X384407D01*
Y428110D01*
D02*
G37*
G36*
X366557Y424110D02*
X359807D01*
Y428110D01*
X366557D01*
Y424110D01*
D02*
G37*
G36*
X332507Y428110D02*
X336407D01*
Y424110D01*
X332407D01*
Y424111D01*
X329657D01*
Y428111D01*
X332507D01*
Y428110D01*
D02*
G37*
G36*
X314657Y424110D02*
X307907D01*
Y428110D01*
X314657D01*
Y424110D01*
D02*
G37*
G36*
X280860Y428110D02*
X284760D01*
Y424110D01*
X280760D01*
Y424111D01*
X278010D01*
Y428111D01*
X280860D01*
Y428110D01*
D02*
G37*
G36*
X263010Y424110D02*
X256260D01*
Y428110D01*
X263010D01*
Y424110D01*
D02*
G37*
G36*
X443763Y421361D02*
D01*
X443763D01*
X443763D01*
D02*
G37*
G36*
X388307D02*
X388307D01*
X388307D01*
D01*
D02*
G37*
G36*
X336406D02*
D01*
X336406D01*
X336406D01*
D02*
G37*
G36*
X284759D02*
X284759D01*
X284759D01*
D01*
D02*
G37*
G36*
X444008Y421356D02*
X444351Y421006D01*
Y420517D01*
X444008Y420167D01*
X443763Y420162D01*
X443519Y420167D01*
X443176Y420517D01*
Y421006D01*
X443519Y421356D01*
X443763Y421361D01*
X444008Y421356D01*
D02*
G37*
G36*
X388551D02*
X388894Y421006D01*
Y420517D01*
X388551Y420167D01*
X388307Y420162D01*
X388062Y420167D01*
X387719Y420517D01*
Y421006D01*
X388062Y421356D01*
X388307Y421361D01*
X388551Y421356D01*
D02*
G37*
G36*
X336651D02*
X336993Y421006D01*
Y420517D01*
X336651Y420167D01*
X336406Y420162D01*
X336161Y420167D01*
X335819Y420517D01*
Y421006D01*
X336161Y421356D01*
X336406Y421361D01*
X336651Y421356D01*
D02*
G37*
G36*
X285004D02*
X285347Y421006D01*
Y420517D01*
X285004Y420167D01*
X284759Y420162D01*
X284515Y420167D01*
X284172Y420517D01*
Y421006D01*
X284515Y421356D01*
X284759Y421361D01*
X285004Y421356D01*
D02*
G37*
G36*
X535780Y415489D02*
X529030D01*
Y423489D01*
X535780D01*
Y415489D01*
D02*
G37*
G36*
X522530D02*
X515780D01*
Y423489D01*
X522530D01*
Y415489D01*
D02*
G37*
G36*
X680240Y410926D02*
X680240Y410429D01*
X679889Y410078D01*
X679641Y410078D01*
X679640D01*
X679640Y407676D01*
X671640Y407676D01*
X671640Y410676D01*
X679041D01*
X679040Y410925D01*
X679392Y411277D01*
X679640Y411277D01*
X679888Y411277D01*
X680240Y410926D01*
D02*
G37*
G36*
X664234D02*
X664234Y410429D01*
X663883Y410078D01*
X663634Y410078D01*
X663634D01*
Y407676D01*
X655634Y407676D01*
X655634Y410676D01*
X663035D01*
X663034Y410925D01*
X663385Y411277D01*
X663634Y411277D01*
X663882Y411277D01*
X664234Y410926D01*
D02*
G37*
G36*
X598638Y403824D02*
X593638D01*
Y406324D01*
X598638D01*
Y403824D01*
D02*
G37*
G36*
X585872D02*
X580872D01*
Y406324D01*
X585872D01*
Y403824D01*
D02*
G37*
G36*
X454120Y401364D02*
X454125Y401119D01*
X454120Y400875D01*
X453770Y400532D01*
X453281D01*
X452931Y400875D01*
X452926Y401119D01*
X452931Y401364D01*
X453281Y401707D01*
X453770D01*
X454120Y401364D01*
D02*
G37*
G36*
X473525Y399869D02*
X473525Y397369D01*
X470525D01*
Y399869D01*
X473525Y399869D01*
D02*
G37*
G36*
X456525Y397369D02*
X453525D01*
X453525Y399869D01*
X456525D01*
X456525Y397369D01*
D02*
G37*
G36*
X598638Y396321D02*
X594221D01*
X594221Y396067D01*
X593882Y395718D01*
X593639Y395710D01*
X593395Y395717D01*
X593056Y396066D01*
X593056Y396553D01*
X593395Y396903D01*
X593638Y396910D01*
X593638Y396910D01*
Y398821D01*
X598638D01*
Y396321D01*
D02*
G37*
G36*
X585872D02*
X581455D01*
X581455Y396067D01*
X581116Y395718D01*
X580873Y395710D01*
X580629Y395717D01*
X580290Y396066D01*
X580290Y396553D01*
X580629Y396903D01*
X580872Y396910D01*
X580872Y396910D01*
Y398821D01*
X585872D01*
Y396321D01*
D02*
G37*
G36*
X545830Y394780D02*
X542830D01*
Y402780D01*
X545830D01*
Y394780D01*
D02*
G37*
G36*
X679640Y394676D02*
X671640D01*
X671640Y397676D01*
X679640Y397676D01*
X679640Y394676D01*
D02*
G37*
G36*
X663634Y397676D02*
Y394676D01*
X655634D01*
Y397676D01*
X663634Y397676D01*
D02*
G37*
G36*
X532830Y394780D02*
X530428D01*
Y394780D01*
X530429Y394531D01*
X530077Y394179D01*
X529580Y394179D01*
X529228Y394530D01*
X529228Y394779D01*
X529228Y395027D01*
X529579Y395379D01*
X529830Y395379D01*
Y402780D01*
X532830D01*
Y394780D01*
D02*
G37*
G36*
X473525Y394869D02*
X473525Y392369D01*
X470525D01*
Y394869D01*
X473525Y394869D01*
D02*
G37*
G36*
X456525Y392369D02*
X453525Y392369D01*
Y394869D01*
X456525Y394869D01*
X456525Y392369D01*
D02*
G37*
G36*
X431825Y390970D02*
X419075D01*
Y394970D01*
X431825D01*
Y390970D01*
D02*
G37*
G36*
X444460Y390909D02*
X439460D01*
Y393409D01*
X444460D01*
X444460Y390909D01*
D02*
G37*
G36*
X473525Y389869D02*
Y387369D01*
X470525Y387369D01*
Y389869D01*
X473525Y389869D01*
D02*
G37*
G36*
X456525Y387369D02*
X453525Y387369D01*
Y389869D01*
X456525Y389869D01*
X456525Y387369D01*
D02*
G37*
G36*
X444460Y384009D02*
D01*
X444709Y384009D01*
X445061Y383657D01*
X445060Y383159D01*
X444708Y382808D01*
X444459Y382808D01*
X444211Y382808D01*
X443859Y383160D01*
X443859Y383409D01*
X439460D01*
Y385909D01*
X444460D01*
X444460Y384009D01*
D02*
G37*
G36*
X468025Y399619D02*
Y382619D01*
X459025D01*
Y398719D01*
X459925Y399619D01*
X468025Y399619D01*
D02*
G37*
G36*
X456525Y382369D02*
X453525D01*
X453525Y384869D01*
X456525D01*
X456525Y382369D01*
D02*
G37*
G36*
X473525D02*
X470525Y382369D01*
Y384869D01*
X473525D01*
Y382369D01*
D02*
G37*
G36*
X431825Y375570D02*
X431825Y375570D01*
X431825Y375570D01*
X432066Y375559D01*
X432397Y375210D01*
X432397Y374730D01*
X432065Y374383D01*
X431824Y374372D01*
X431584Y374383D01*
X431253Y374731D01*
X431253Y374970D01*
X419075D01*
Y378970D01*
X431825D01*
X431825Y375570D01*
D02*
G37*
G36*
X402999Y377201D02*
X402999Y376950D01*
X410400D01*
X410400Y373950D01*
X402400Y373950D01*
X402400Y376352D01*
X402399D01*
X402151Y376351D01*
X401799Y376703D01*
X401799Y377200D01*
X402150Y377552D01*
X402398Y377552D01*
X402647Y377552D01*
X402999Y377201D01*
D02*
G37*
G36*
X542498Y373386D02*
X542847Y373047D01*
X542854Y372803D01*
X542854Y372803D01*
X542847Y372560D01*
X542497Y372221D01*
X542243Y372221D01*
Y367804D01*
X539744D01*
Y372804D01*
X541655D01*
X541662Y373047D01*
X542011Y373386D01*
X542498Y373386D01*
D02*
G37*
G36*
X534740Y367804D02*
X532240D01*
Y372804D01*
X534740D01*
Y367804D01*
D02*
G37*
G36*
X663854Y362590D02*
X658854D01*
Y365090D01*
X663854D01*
Y362590D01*
D02*
G37*
G36*
X410400Y360950D02*
X402400D01*
X402400Y363950D01*
X410400D01*
X410400Y360950D01*
D02*
G37*
G36*
X542498Y360620D02*
X542847Y360281D01*
X542854Y360037D01*
X542854Y360037D01*
X542847Y359794D01*
X542497Y359455D01*
X542243Y359455D01*
Y355038D01*
X539744D01*
Y360038D01*
X541655D01*
X541662Y360281D01*
X542011Y360620D01*
X542498Y360620D01*
D02*
G37*
G36*
X497223Y356155D02*
X497571Y355820D01*
X497580Y355578D01*
X497580Y355578D01*
X497571Y355337D01*
X497222Y355002D01*
X496739Y355003D01*
X496391Y355338D01*
X496382Y355580D01*
X496382Y355580D01*
X496391Y355821D01*
X496740Y356156D01*
X497223Y356155D01*
D02*
G37*
G36*
X534740Y355038D02*
X532240D01*
Y360038D01*
X534740D01*
Y355038D01*
D02*
G37*
G36*
X663854Y355090D02*
X659455D01*
X659455Y354841D01*
X659103Y354489D01*
X658855Y354489D01*
X658606Y354489D01*
X658254Y354840D01*
X658253Y355338D01*
X658605Y355690D01*
X658854Y355690D01*
Y357590D01*
X663854D01*
Y355090D01*
D02*
G37*
G36*
X372357Y406511D02*
X377657Y403161D01*
X380807Y399411D01*
X385407Y393861D01*
X388707Y387611D01*
X390457Y381111D01*
X391257Y376161D01*
X391057Y370011D01*
X389707Y361211D01*
X386557Y354361D01*
X383507Y349561D01*
X380357Y345811D01*
X377307Y342911D01*
X373407Y340161D01*
X369607Y338061D01*
X362406D01*
Y408061D01*
X369607D01*
X372357Y406511D01*
D02*
G37*
G36*
X342407Y338061D02*
X335207D01*
X332457Y339611D01*
X327157Y342961D01*
X324007Y346711D01*
X319407Y352261D01*
X316107Y358511D01*
X314356Y365011D01*
X313557Y369961D01*
X313757Y376111D01*
X315107Y384911D01*
X318257Y391761D01*
X321307Y396561D01*
X324456Y400311D01*
X327507Y403211D01*
X331407Y405961D01*
X335207Y408061D01*
X342407D01*
Y338061D01*
D02*
G37*
G36*
X244087Y406511D02*
X249387Y403161D01*
X252537Y399411D01*
X257137Y393861D01*
X260437Y387611D01*
X262187Y381111D01*
X262987Y376161D01*
X262787Y370011D01*
X261437Y361211D01*
X258287Y354361D01*
X255237Y349561D01*
X252087Y345811D01*
X249037Y342911D01*
X245137Y340161D01*
X241337Y338061D01*
X234136D01*
Y408061D01*
X241337D01*
X244087Y406511D01*
D02*
G37*
G36*
X214137Y338061D02*
X206937D01*
X204187Y339611D01*
X198887Y342961D01*
X195737Y346711D01*
X191136Y352261D01*
X187837Y358511D01*
X186086Y365011D01*
X185287Y369961D01*
X185487Y376111D01*
X186837Y384911D01*
X189987Y391761D01*
X193037Y396561D01*
X196187Y400311D01*
X199237Y403211D01*
X203137Y405961D01*
X206937Y408061D01*
X214137D01*
Y338061D01*
D02*
G37*
G36*
X391998Y338301D02*
X392007Y338060D01*
X391998Y337818D01*
X391649Y337483D01*
X391166Y337483D01*
X390818Y337818D01*
X390808Y338060D01*
X390808Y338060D01*
X390818Y338301D01*
X391166Y338636D01*
X391649Y338636D01*
X391998Y338301D01*
D02*
G37*
G36*
X263728D02*
X263737Y338060D01*
X263728Y337818D01*
X263379Y337483D01*
X262896Y337483D01*
X262548Y337818D01*
X262538Y338060D01*
X262538Y338060D01*
X262548Y338301D01*
X262896Y338636D01*
X263379Y338636D01*
X263728Y338301D01*
D02*
G37*
G36*
X496981Y319079D02*
X470481D01*
Y326079D01*
X496981D01*
Y319079D01*
D02*
G37*
G36*
X451481D02*
X424981D01*
Y326079D01*
X451481D01*
Y319079D01*
D02*
G37*
G36*
X372313Y319282D02*
X372652Y318933D01*
X372652Y318447D01*
X372313Y318097D01*
X372070Y318090D01*
Y316179D01*
X367070D01*
Y318679D01*
X371487D01*
X371487Y318933D01*
X371826Y319282D01*
X372069Y319289D01*
X372069Y319289D01*
X372313Y319282D01*
D02*
G37*
G36*
X242831Y318963D02*
X243170Y318614D01*
X243171Y318127D01*
X242831Y317778D01*
X242588Y317771D01*
Y315860D01*
X237588D01*
Y318360D01*
X242006D01*
X242005Y318614D01*
X242344Y318963D01*
X242588Y318970D01*
X242588Y318970D01*
X242831Y318963D01*
D02*
G37*
G36*
X396495Y311172D02*
X380745D01*
Y315672D01*
X396495D01*
Y311172D01*
D02*
G37*
G36*
X267571Y310853D02*
X251821D01*
Y315353D01*
X267571D01*
Y310853D01*
D02*
G37*
G36*
X183654Y312658D02*
X182568D01*
Y310853D01*
X166568D01*
Y315853D01*
X171654D01*
Y321158D01*
X183654D01*
Y312658D01*
D02*
G37*
G36*
X372070Y308675D02*
X367070D01*
Y311175D01*
X372070D01*
Y308675D01*
D02*
G37*
G36*
X312070Y308603D02*
X300070D01*
Y310341D01*
X291028D01*
Y315341D01*
X300070D01*
Y317103D01*
X312070D01*
Y308603D01*
D02*
G37*
G36*
X242588Y308356D02*
X237588D01*
Y310856D01*
X242588D01*
Y308356D01*
D02*
G37*
G36*
X396495Y284672D02*
X381328D01*
X381328Y284429D01*
X380988Y284081D01*
X380745Y284074D01*
X380502Y284081D01*
X380163Y284431D01*
X380163Y284917D01*
X380503Y285266D01*
X380745Y285273D01*
Y289172D01*
X396495D01*
Y284672D01*
D02*
G37*
G36*
X183654Y284558D02*
X182568D01*
Y283853D01*
X166568D01*
Y288853D01*
X171654D01*
Y293058D01*
X183654D01*
Y284558D01*
D02*
G37*
G36*
X267571Y284353D02*
X252404D01*
X252404Y284110D01*
X252064Y283762D01*
X251821Y283755D01*
X251578Y283762D01*
X251239Y284111D01*
X251240Y284598D01*
X251579Y284947D01*
X251821Y284953D01*
Y288853D01*
X267571D01*
Y284353D01*
D02*
G37*
G36*
X485851Y281701D02*
X486190Y281352D01*
X486190Y280865D01*
X485851Y280515D01*
X485608Y280508D01*
Y278597D01*
X480608D01*
X480608Y281097D01*
X485025Y281097D01*
X485025Y281351D01*
X485364Y281700D01*
X485607Y281708D01*
X485851Y281701D01*
D02*
G37*
G36*
X312070Y280503D02*
X300070D01*
Y283341D01*
X291028D01*
Y288341D01*
X300070D01*
Y289003D01*
X312070D01*
Y280503D01*
D02*
G37*
G36*
X297180Y281623D02*
X297421Y281612D01*
X297753Y281264D01*
X297753Y280782D01*
X297419Y280435D01*
X297179Y280424D01*
X296938Y280435D01*
X296606Y280783D01*
X296606Y281265D01*
X296939Y281612D01*
X297180Y281623D01*
X297180Y281623D01*
D02*
G37*
G36*
X485608Y271094D02*
X480608D01*
X480608Y273594D01*
X485608D01*
X485608Y271094D01*
D02*
G37*
G36*
X635284Y268824D02*
X635623Y268474D01*
X635623Y268220D01*
X640040D01*
Y265721D01*
X635040D01*
Y267631D01*
X635040Y267631D01*
X634797Y267638D01*
X634458Y267988D01*
X634458Y268475D01*
X634797Y268824D01*
X635041Y268831D01*
X635284Y268824D01*
D02*
G37*
G36*
X622153D02*
X622492Y268474D01*
X622492Y268220D01*
X626909D01*
Y265721D01*
X621909D01*
Y267631D01*
X621909Y267631D01*
X621666Y267638D01*
X621327Y267988D01*
X621327Y268475D01*
X621666Y268824D01*
X621910Y268831D01*
X622153Y268824D01*
D02*
G37*
G36*
X609022D02*
X609361Y268474D01*
X609361Y268220D01*
X613778D01*
Y265721D01*
X608778D01*
Y267631D01*
X608778Y267631D01*
X608535Y267638D01*
X608196Y267988D01*
X608196Y268475D01*
X608535Y268824D01*
X608779Y268831D01*
X609022Y268824D01*
D02*
G37*
G36*
X595891D02*
X596230Y268474D01*
X596230Y268220D01*
X600647D01*
Y265721D01*
X595647D01*
Y267631D01*
X595647Y267631D01*
X595404Y267638D01*
X595065Y267988D01*
X595065Y268475D01*
X595404Y268824D01*
X595648Y268831D01*
X595891Y268824D01*
D02*
G37*
G36*
X503609Y261072D02*
X503610Y260576D01*
X503259Y260224D01*
X503010Y260224D01*
X503010D01*
Y257823D01*
X495010Y257823D01*
Y260823D01*
X502410Y260823D01*
X502410Y261072D01*
X502761Y261423D01*
X503010Y261423D01*
X503258Y261424D01*
X503609Y261072D01*
D02*
G37*
G36*
X640040Y258217D02*
X635040D01*
Y260717D01*
X640040D01*
Y258217D01*
D02*
G37*
G36*
X626909D02*
X621909D01*
Y260717D01*
X626909D01*
Y258217D01*
D02*
G37*
G36*
X613778D02*
X608778D01*
Y260717D01*
X613778D01*
Y258217D01*
D02*
G37*
G36*
X600647D02*
X595647D01*
Y260717D01*
X600647D01*
Y258217D01*
D02*
G37*
G36*
X558760Y255323D02*
X553760D01*
Y257823D01*
X558760D01*
Y255323D01*
D02*
G37*
G36*
Y247823D02*
X554361D01*
X554361Y247574D01*
X554009Y247222D01*
X553761Y247222D01*
X553512Y247221D01*
X553160Y247573D01*
X553159Y248071D01*
X553511Y248423D01*
X553760Y248423D01*
Y250323D01*
X558760D01*
Y247823D01*
D02*
G37*
G36*
X503010Y244823D02*
X495010D01*
X495010Y247823D01*
X503010Y247823D01*
Y244823D01*
D02*
G37*
G36*
X623725Y238684D02*
X615725D01*
X615725Y241684D01*
X623725Y241684D01*
Y238684D01*
D02*
G37*
G36*
X636079Y242281D02*
X636324Y242276D01*
X636667Y241926D01*
Y241680D01*
X644080D01*
Y238680D01*
X636080D01*
Y241082D01*
X636079D01*
X635835Y241087D01*
X635492Y241436D01*
Y241926D01*
X635835Y242276D01*
X636079Y242281D01*
X636079D01*
X636079D01*
D01*
D02*
G37*
G36*
X698460Y236195D02*
X693460D01*
Y238694D01*
X698460D01*
Y236195D01*
D02*
G37*
G36*
X746923Y236762D02*
X747272Y236423D01*
X747279Y236179D01*
X747279Y236179D01*
X747272Y235936D01*
X746923Y235597D01*
X746669Y235597D01*
Y231180D01*
X744169D01*
Y236180D01*
X746080D01*
X746087Y236423D01*
X746437Y236762D01*
X746923Y236762D01*
D02*
G37*
G36*
X739165Y231180D02*
X736665D01*
Y236180D01*
X739165D01*
Y231180D01*
D02*
G37*
G36*
X698460Y229280D02*
X698703Y229273D01*
X699042Y228923D01*
X699042Y228437D01*
X698703Y228088D01*
X698459Y228081D01*
X698216Y228088D01*
X697877Y228437D01*
X697877Y228691D01*
X693460D01*
Y231191D01*
X698460D01*
Y229280D01*
D02*
G37*
G36*
X644080Y225680D02*
X636080D01*
Y228680D01*
X644080D01*
Y225680D01*
D02*
G37*
G36*
X623795Y228684D02*
Y226285D01*
X624043Y226285D01*
X624394Y225934D01*
X624394Y225437D01*
X624043Y225086D01*
X623795Y225086D01*
X623546Y225086D01*
X623195Y225437D01*
X623195Y225684D01*
X615795D01*
X615795Y228684D01*
X623795Y228684D01*
D02*
G37*
G36*
X574756Y222327D02*
Y212727D01*
X568756D01*
Y222327D01*
Y232327D01*
X574756D01*
Y222327D01*
D02*
G37*
G36*
X673560Y220040D02*
Y210440D01*
X667560D01*
Y220040D01*
Y230040D01*
X673560D01*
Y220040D01*
D02*
G37*
G36*
X754454Y209560D02*
X746454D01*
Y219060D01*
X754454D01*
Y209560D01*
D02*
G37*
G36*
X736654D02*
X728654D01*
Y219060D01*
X736654D01*
Y209560D01*
D02*
G37*
G36*
X464475Y209076D02*
X464824Y208737D01*
X464831Y208493D01*
X464824Y208250D01*
X464475Y207911D01*
X464221Y207911D01*
X464221Y203494D01*
X461721Y203494D01*
Y208494D01*
X463632D01*
X463639Y208737D01*
X463988Y209076D01*
X464475Y209076D01*
D02*
G37*
G36*
X441406Y205260D02*
X441757Y204908D01*
X441757Y204660D01*
X441757Y204412D01*
X441405Y204060D01*
X441156Y204060D01*
Y196660D01*
X438156Y196660D01*
X438156Y204660D01*
X440558Y204660D01*
Y204660D01*
X440558Y204909D01*
X440909Y205260D01*
X441406Y205260D01*
D02*
G37*
G36*
X456717Y203494D02*
X454217Y203494D01*
Y208494D01*
X456717Y208494D01*
Y203494D01*
D02*
G37*
G36*
X428156Y204660D02*
X428156Y196660D01*
X425156D01*
X425156Y204660D01*
X428156Y204660D01*
D02*
G37*
G36*
X590828Y196230D02*
X587828D01*
Y204230D01*
X590828D01*
Y196230D01*
D02*
G37*
G36*
X531931Y196110D02*
X529431D01*
Y201110D01*
X531931D01*
Y196110D01*
D02*
G37*
G36*
X603828Y196829D02*
X604077Y196830D01*
X604429Y196478D01*
X604429Y196230D01*
X604429Y195982D01*
X604078Y195630D01*
X603581Y195630D01*
X603229Y195981D01*
X603229Y196229D01*
Y196230D01*
X600828D01*
Y204230D01*
X603828D01*
Y196829D01*
D02*
G37*
G36*
X539431Y196711D02*
X539680Y196711D01*
X540032Y196359D01*
X540032Y196111D01*
X540032Y195862D01*
X539681Y195510D01*
X539183Y195509D01*
X538831Y195861D01*
X538831Y196110D01*
X536931D01*
Y201110D01*
X539431D01*
Y196711D01*
D02*
G37*
G36*
X672620Y197566D02*
X672620Y197069D01*
X672269Y196718D01*
X672020Y196718D01*
X672020D01*
Y194316D01*
X664020D01*
Y197316D01*
X671421D01*
X671420Y197565D01*
X671772Y197917D01*
X672020Y197917D01*
X672268Y197917D01*
X672620Y197566D01*
D02*
G37*
G36*
X437795Y189772D02*
X438144Y189433D01*
X438151Y189189D01*
X438144Y188946D01*
X437795Y188607D01*
X437541Y188607D01*
X437541Y184190D01*
X435041Y184190D01*
Y189190D01*
X436952D01*
X436959Y189433D01*
X437308Y189772D01*
X437795Y189772D01*
D02*
G37*
G36*
X430037Y184190D02*
X427537Y184190D01*
Y189190D01*
X430037Y189190D01*
Y184190D01*
D02*
G37*
G36*
X242817Y252454D02*
X248117Y249104D01*
X251267Y245354D01*
X255867Y239804D01*
X259167Y233554D01*
X260917Y227054D01*
X261717Y222104D01*
X261517Y215954D01*
X260167Y207154D01*
X257017Y200304D01*
X253967Y195504D01*
X250817Y191754D01*
X247767Y188854D01*
X243867Y186104D01*
X240067Y184004D01*
X232866D01*
Y254004D01*
X240067D01*
X242817Y252454D01*
D02*
G37*
G36*
X212867Y184004D02*
X205667D01*
X202917Y185554D01*
X197617Y188904D01*
X194467Y192654D01*
X189867Y198204D01*
X186567Y204454D01*
X184816Y210954D01*
X184017Y215904D01*
X184217Y222054D01*
X185567Y230854D01*
X188717Y237704D01*
X191767Y242504D01*
X194916Y246254D01*
X197967Y249154D01*
X201867Y251904D01*
X205667Y254004D01*
X212867D01*
Y184004D01*
D02*
G37*
G36*
X262458Y184244D02*
X262467Y184003D01*
X262458Y183761D01*
X262109Y183426D01*
X261626Y183426D01*
X261278Y183761D01*
X261268Y184002D01*
X261268Y184002D01*
X261278Y184244D01*
X261626Y184579D01*
X262109Y184579D01*
X262458Y184244D01*
D02*
G37*
G36*
X373324Y251438D02*
X378624Y248088D01*
X381774Y244338D01*
X386374Y238788D01*
X389674Y232538D01*
X391424Y226038D01*
X392224Y221088D01*
X392024Y214938D01*
X390674Y206138D01*
X387524Y199288D01*
X384474Y194488D01*
X381324Y190738D01*
X378274Y187838D01*
X374374Y185088D01*
X370574Y182988D01*
X363373D01*
Y252988D01*
X370574D01*
X373324Y251438D01*
D02*
G37*
G36*
X343374Y182988D02*
X336174D01*
X333424Y184538D01*
X328124Y187888D01*
X324974Y191638D01*
X320373Y197188D01*
X317074Y203438D01*
X315324Y209938D01*
X314524Y214888D01*
X314724Y221038D01*
X316074Y229838D01*
X319224Y236688D01*
X322274Y241488D01*
X325424Y245238D01*
X328474Y248138D01*
X332374Y250888D01*
X336174Y252988D01*
X343374D01*
Y182988D01*
D02*
G37*
G36*
X392965Y183228D02*
X392974Y182987D01*
X392965Y182745D01*
X392617Y182410D01*
X392133Y182410D01*
X391785Y182745D01*
X391775Y182987D01*
X391776Y182987D01*
X391785Y183228D01*
X392133Y183563D01*
X392616Y183563D01*
X392965Y183228D01*
D02*
G37*
G36*
X754454Y182260D02*
X746454D01*
Y191760D01*
X754454D01*
Y182260D01*
D02*
G37*
G36*
X736654D02*
X728654D01*
Y191760D01*
X736654D01*
Y182260D01*
D02*
G37*
G36*
X724400Y182855D02*
X724743Y182506D01*
X724743Y182016D01*
X724401Y181666D01*
X724156Y181661D01*
X724156Y181661D01*
X723911Y181666D01*
X723568Y182015D01*
X723568Y182505D01*
X723910Y182855D01*
X724155Y182860D01*
X724155Y182860D01*
X724400Y182855D01*
D02*
G37*
G36*
X672020Y181316D02*
X664020D01*
Y184316D01*
X672020D01*
Y181316D01*
D02*
G37*
G36*
X241561Y172401D02*
X241900Y172052D01*
X241901Y171565D01*
X241562Y171216D01*
X241318Y171209D01*
Y169298D01*
X236318D01*
Y171798D01*
X240735D01*
X240735Y172052D01*
X241074Y172401D01*
X241318Y172408D01*
X241318Y172408D01*
X241561Y172401D01*
D02*
G37*
G36*
X372068Y171510D02*
X372407Y171161D01*
X372408Y170674D01*
X372069Y170325D01*
X371825Y170318D01*
Y168407D01*
X366825D01*
Y170907D01*
X371242D01*
X371242Y171161D01*
X371581Y171510D01*
X371825Y171517D01*
X371825Y171517D01*
X372068Y171510D01*
D02*
G37*
G36*
X266301Y164291D02*
X250551D01*
Y168791D01*
X266301D01*
Y164291D01*
D02*
G37*
G36*
X183654Y166096D02*
X182568D01*
Y164291D01*
X166568D01*
Y169291D01*
X171654D01*
Y174596D01*
X183654D01*
Y166096D01*
D02*
G37*
G36*
X435374Y163910D02*
X422874D01*
Y168910D01*
X435374D01*
Y163910D01*
D02*
G37*
G36*
X415190Y163910D02*
X402690D01*
Y168910D01*
X415190D01*
Y163910D01*
D02*
G37*
G36*
X396809Y163400D02*
X381058D01*
Y167900D01*
X396809D01*
Y163400D01*
D02*
G37*
G36*
X312070Y162200D02*
X300070D01*
Y163400D01*
X291995D01*
Y168400D01*
X300070D01*
Y170700D01*
X312070D01*
Y162200D01*
D02*
G37*
G36*
X241318Y161794D02*
X236318D01*
Y164294D01*
X241318D01*
Y161794D01*
D02*
G37*
G36*
X672620Y164546D02*
X672620Y164049D01*
X672269Y163698D01*
X672020Y163698D01*
X672020D01*
Y161296D01*
X664020D01*
Y164296D01*
X671421D01*
X671420Y164545D01*
X671772Y164897D01*
X672020Y164897D01*
X672268Y164897D01*
X672620Y164546D01*
D02*
G37*
G36*
X371825Y160903D02*
X366825D01*
Y163403D01*
X371825D01*
Y160903D01*
D02*
G37*
G36*
X599755Y168227D02*
Y158327D01*
X593755D01*
Y168227D01*
Y177927D01*
X599755D01*
Y168227D01*
D02*
G37*
G36*
X549757Y176910D02*
X552041D01*
X552040Y177159D01*
X552392Y177511D01*
X552640Y177511D01*
X552888Y177511D01*
X553240Y177160D01*
X553240Y176663D01*
X552889Y176311D01*
X552640Y176311D01*
X552640D01*
Y173910D01*
X549757D01*
Y168227D01*
Y163910D01*
X552640D01*
Y160910D01*
X549757D01*
Y158327D01*
X543757D01*
Y168227D01*
Y177927D01*
X549757D01*
Y176910D01*
D02*
G37*
G36*
X526755Y158927D02*
X527106Y158575D01*
X527106Y158327D01*
X527105Y158079D01*
X526754Y157727D01*
X526257Y157728D01*
X525906Y158079D01*
X525906Y158328D01*
X525906Y158576D01*
X526258Y158927D01*
X526755Y158927D01*
D02*
G37*
G36*
X698559Y165940D02*
Y156040D01*
X692559D01*
Y165940D01*
Y175640D01*
X698559D01*
Y165940D01*
D02*
G37*
G36*
X648561D02*
Y156040D01*
X642561D01*
Y165940D01*
Y175640D01*
X648561D01*
Y165940D01*
D02*
G37*
G36*
X625559Y156640D02*
X625910Y156288D01*
X625910Y156040D01*
X625910Y155791D01*
X625558Y155440D01*
X625061Y155441D01*
X624710Y155792D01*
X624710Y156040D01*
X624710Y156289D01*
X625062Y156640D01*
X625559Y156640D01*
D02*
G37*
G36*
X435374Y149510D02*
X435375Y149510D01*
X435375Y149510D01*
X435616Y149500D01*
X435950Y149152D01*
X435951Y148670D01*
X435617Y148322D01*
X435376Y148311D01*
X435376Y148311D01*
X435135Y148321D01*
X434801Y148669D01*
X434800Y148910D01*
X422874D01*
Y153910D01*
X435374D01*
Y149510D01*
D02*
G37*
G36*
X415190Y149510D02*
X415191Y149510D01*
X415191Y149510D01*
X415432Y149500D01*
X415766Y149152D01*
X415767Y148670D01*
X415433Y148322D01*
X415192Y148311D01*
X415192Y148311D01*
X414951Y148321D01*
X414617Y148669D01*
X414617Y148910D01*
X402690D01*
Y153910D01*
X415190D01*
Y149510D01*
D02*
G37*
G36*
X672020Y148296D02*
X664020D01*
Y151296D01*
X672020D01*
Y148296D01*
D02*
G37*
G36*
X183654Y137996D02*
X182568D01*
Y137291D01*
X166568D01*
Y142291D01*
X171654D01*
Y146496D01*
X183654D01*
Y137996D01*
D02*
G37*
G36*
X266301Y137791D02*
X251134D01*
X251134Y137548D01*
X250795Y137200D01*
X250551Y137193D01*
X250308Y137200D01*
X249969Y137549D01*
X249970Y138036D01*
X250309Y138385D01*
X250551Y138392D01*
Y142291D01*
X266301D01*
Y137791D01*
D02*
G37*
G36*
X396809Y136900D02*
X381641D01*
X381641Y136657D01*
X381302Y136308D01*
X381058Y136302D01*
X380815Y136309D01*
X380476Y136658D01*
X380477Y137145D01*
X380816Y137494D01*
X381058Y137500D01*
Y141400D01*
X396809D01*
Y136900D01*
D02*
G37*
G36*
X312070Y134100D02*
X300070D01*
Y136400D01*
X291995D01*
Y141400D01*
X300070D01*
Y142600D01*
X312070D01*
Y134100D01*
D02*
G37*
G36*
X297180Y135220D02*
X297421Y135209D01*
X297753Y134861D01*
X297753Y134379D01*
X297419Y134032D01*
X297179Y134021D01*
X296938Y134032D01*
X296606Y134380D01*
X296606Y134862D01*
X296939Y135209D01*
X297180Y135220D01*
X297180Y135220D01*
D02*
G37*
G36*
X181481Y113926D02*
Y113677D01*
Y113428D01*
X181129Y113077D01*
X180632D01*
X180280Y113428D01*
Y113677D01*
Y113926D01*
X180632Y114277D01*
X181129D01*
X181481Y113926D01*
D02*
G37*
G36*
X303570Y104180D02*
X301670D01*
X301670Y103931D01*
X301318Y103580D01*
X300820Y103580D01*
X300469Y103932D01*
X300469Y104181D01*
X300469Y104429D01*
X300821Y104781D01*
X301070Y104781D01*
Y109180D01*
X303570D01*
Y104180D01*
D02*
G37*
G36*
X279969Y104180D02*
X278058D01*
X278058Y104180D01*
X278051Y103937D01*
X277702Y103598D01*
X277215Y103598D01*
X276866Y103937D01*
X276859Y104181D01*
X276866Y104424D01*
X277215Y104763D01*
X277469Y104763D01*
Y109180D01*
X279969D01*
Y104180D01*
D02*
G37*
G36*
X287473D02*
X284973D01*
Y109180D01*
X287473D01*
Y104180D01*
D02*
G37*
G36*
X311070Y104180D02*
X308570D01*
Y109180D01*
X311070D01*
Y104180D01*
D02*
G37*
G36*
X245880Y104182D02*
X241980D01*
X235380Y104178D01*
X230380Y109178D01*
X241880Y109182D01*
Y109182D01*
X245880D01*
Y104182D01*
D02*
G37*
G36*
X196382Y109172D02*
X191382Y104172D01*
X184880Y104176D01*
Y104169D01*
X180880D01*
Y109169D01*
X184781D01*
Y109176D01*
X196382Y109172D01*
D02*
G37*
G36*
X150019Y97528D02*
X48619D01*
Y425927D01*
X150019D01*
Y97528D01*
D02*
G37*
G36*
X311313Y97697D02*
X311662Y97358D01*
X311669Y97114D01*
X311669Y97114D01*
X311662Y96871D01*
X311313Y96532D01*
X311059Y96532D01*
Y92115D01*
X308559D01*
Y97115D01*
X310470D01*
X310477Y97358D01*
X310827Y97697D01*
X311313Y97697D01*
D02*
G37*
G36*
X303555Y92115D02*
X301056D01*
Y97115D01*
X303555D01*
Y92115D01*
D02*
G37*
G36*
X288445Y88824D02*
X280445D01*
Y91824D01*
X288445D01*
Y88824D01*
D02*
G37*
G36*
X382230Y86830D02*
X377230D01*
Y89330D01*
X382230D01*
Y86830D01*
D02*
G37*
G36*
X639470Y85700D02*
X633070D01*
Y92100D01*
X639470D01*
Y85700D01*
D02*
G37*
G36*
X614070D02*
X607670D01*
Y92100D01*
X614070D01*
Y85700D01*
D02*
G37*
G36*
X588670D02*
X582270D01*
Y92100D01*
X588670D01*
Y85700D01*
D02*
G37*
G36*
X563270D02*
X556870D01*
Y92100D01*
X563270D01*
Y85700D01*
D02*
G37*
G36*
X537870D02*
X531470D01*
Y92100D01*
X537870D01*
Y85700D01*
D02*
G37*
G36*
X512470D02*
X506070D01*
Y92100D01*
X512470D01*
Y85700D01*
D02*
G37*
G36*
X487070D02*
X480670D01*
Y92100D01*
X487070D01*
Y85700D01*
D02*
G37*
G36*
X461670D02*
X455270D01*
Y92100D01*
X461670D01*
Y85700D01*
D02*
G37*
G36*
X436270D02*
X429870D01*
Y92100D01*
X436270D01*
Y85700D01*
D02*
G37*
G36*
X410870D02*
X404470D01*
Y92100D01*
X410870D01*
Y85700D01*
D02*
G37*
G36*
X311313Y85632D02*
X311662Y85293D01*
X311669Y85049D01*
X311669Y85049D01*
X311662Y84806D01*
X311313Y84467D01*
X311059Y84467D01*
Y80050D01*
X308559D01*
Y85050D01*
X310470D01*
X310477Y85293D01*
X310827Y85632D01*
X311313Y85632D01*
D02*
G37*
G36*
X303555Y80050D02*
X301056D01*
Y85050D01*
X303555D01*
Y80050D01*
D02*
G37*
G36*
X382230Y79916D02*
X382473Y79908D01*
X382812Y79559D01*
X382812Y79072D01*
X382473Y78723D01*
X382229Y78716D01*
X381986Y78723D01*
X381647Y79073D01*
X381647Y79327D01*
X377230D01*
Y81826D01*
X382230D01*
Y79916D01*
D02*
G37*
G36*
X288515Y76425D02*
X288763Y76425D01*
X289114Y76073D01*
X289114Y75577D01*
X288763Y75225D01*
X288514Y75225D01*
X288266Y75226D01*
X287915Y75577D01*
X287915Y75824D01*
X280515D01*
Y78824D01*
X288515D01*
Y76425D01*
D02*
G37*
G36*
X245880Y67174D02*
X241987D01*
Y67167D01*
X230387Y67171D01*
X235389Y72171D01*
X241880Y72166D01*
Y72174D01*
X245880D01*
Y67174D01*
D02*
G37*
G36*
X196380Y67179D02*
X184880Y67174D01*
Y67174D01*
X180880D01*
Y72174D01*
X184779D01*
Y72176D01*
X191380Y72180D01*
X196380Y67179D01*
D02*
G37*
G36*
X639470Y60300D02*
X633070D01*
Y66700D01*
X639470D01*
Y60300D01*
D02*
G37*
G36*
X614070D02*
X607670D01*
Y66700D01*
X614070D01*
Y60300D01*
D02*
G37*
G36*
X588670D02*
X582270D01*
Y66700D01*
X588670D01*
Y60300D01*
D02*
G37*
G36*
X563270D02*
X556870D01*
Y66700D01*
X563270D01*
Y60300D01*
D02*
G37*
G36*
X537870D02*
X531470D01*
Y66700D01*
X537870D01*
Y60300D01*
D02*
G37*
G36*
X512470D02*
X506070D01*
Y66700D01*
X512470D01*
Y60300D01*
D02*
G37*
G36*
X487070D02*
X480670D01*
Y66700D01*
X487070D01*
Y60300D01*
D02*
G37*
G36*
X461670D02*
X455270D01*
Y66700D01*
X461670D01*
Y60300D01*
D02*
G37*
G36*
X436270D02*
X429870D01*
Y66700D01*
X436270D01*
Y60300D01*
D02*
G37*
G36*
X410870D02*
X404470D01*
Y66700D01*
X410870D01*
Y60300D01*
D02*
G37*
G36*
X395570Y51448D02*
X395570Y51200D01*
X395570Y50951D01*
X395219Y50600D01*
X394722Y50600D01*
X394370Y50951D01*
X394370Y51199D01*
X394370Y51448D01*
X394721Y51800D01*
X395218Y51800D01*
X395570Y51448D01*
D02*
G37*
D10*
X368951Y128203D02*
X374451D01*
X371701Y125453D02*
Y130953D01*
X354867Y128441D02*
X360367D01*
X357617Y125691D02*
Y131191D01*
X363836Y271419D02*
Y276919D01*
X361086Y274169D02*
X366586D01*
X372726Y271419D02*
Y276919D01*
X369976Y274169D02*
X375476D01*
X533870Y276860D02*
X539370D01*
X536620Y274110D02*
Y279610D01*
X444032Y296859D02*
X504032D01*
X444032Y236859D02*
Y296859D01*
Y236859D02*
X504032D01*
Y296859D01*
X221596Y125369D02*
Y130869D01*
X218846Y128119D02*
X224346D01*
X231756Y125369D02*
Y130869D01*
X229006Y128119D02*
X234506D01*
X234296Y271931D02*
Y277431D01*
X231546Y274681D02*
X237046D01*
X241916Y271931D02*
Y277431D01*
X239166Y274681D02*
X244666D01*
X592880Y212090D02*
X598380D01*
X595630Y209340D02*
Y214840D01*
X655320Y156680D02*
Y162180D01*
X652570Y159430D02*
X658070D01*
X672488Y357340D02*
Y362840D01*
X669738Y360090D02*
X675238D01*
X681990Y357340D02*
Y362840D01*
X679240Y360090D02*
X684740D01*
X620989Y360090D02*
X630989D01*
X625989Y355090D02*
Y365090D01*
X204980Y492315D02*
Y497815D01*
X202230Y495065D02*
X207730D01*
X195478Y492315D02*
Y497815D01*
X192728Y495065D02*
X198228D01*
X342100Y321310D02*
X347600D01*
X344850Y318560D02*
Y324060D01*
X266780Y298803D02*
X276780D01*
X271780Y293803D02*
Y303803D01*
X239820Y290620D02*
Y296120D01*
X237070Y293370D02*
X242570D01*
X141855Y303366D02*
X151855D01*
X146855Y298366D02*
Y308366D01*
X184717Y517105D02*
Y527105D01*
X179717Y522105D02*
X189717D01*
X149699Y517091D02*
X155199D01*
X152449Y514341D02*
Y519841D01*
X171450Y442040D02*
Y452040D01*
X166450Y447040D02*
X176450D01*
X163240Y418890D02*
Y424390D01*
X160490Y421640D02*
X165990D01*
X183470Y418890D02*
Y424390D01*
X180720Y421640D02*
X186220D01*
X489190Y547452D02*
X549190D01*
X489190Y487453D02*
Y547452D01*
Y487453D02*
X549190D01*
Y547452D01*
X403650Y393110D02*
X409150Y393110D01*
X406400Y390360D02*
Y395860D01*
X434662Y254079D02*
X434662Y244079D01*
X429662Y249079D02*
X439662D01*
X435322Y225029D02*
Y235029D01*
X430322Y230029D02*
X440322D01*
X344953Y174808D02*
X350453D01*
X347703Y172058D02*
Y177558D01*
X266780Y152400D02*
X276780D01*
X271780Y147400D02*
Y157400D01*
X217196Y172058D02*
Y177558D01*
X214446Y174808D02*
X219946D01*
X146855Y151296D02*
Y161296D01*
X141855Y156296D02*
X151855D01*
X266700Y100120D02*
Y105620D01*
X263950Y102870D02*
X269450D01*
X739520Y165100D02*
X745020D01*
X742270Y162350D02*
Y167850D01*
X538480Y245190D02*
Y255190D01*
X533480Y250190D02*
X543480D01*
X535050Y281940D02*
X540550D01*
X537800Y279190D02*
Y284690D01*
X624630Y479380D02*
X630130D01*
X627380Y476630D02*
Y482130D01*
X657650Y480740D02*
X663150D01*
X660400Y477990D02*
Y483490D01*
X547370Y428460D02*
Y433960D01*
X544620Y431210D02*
X550120D01*
X296970Y517950D02*
Y523450D01*
X294220Y520700D02*
X299720D01*
D17*
X48619Y97528D02*
X150019D01*
X48619D02*
Y425927D01*
X150019D01*
Y97528D02*
Y425927D01*
D192*
X79454Y586768D02*
X109454D01*
Y435768D02*
Y586768D01*
X79454Y435768D02*
X109454D01*
X79454D02*
Y586768D01*
X394970Y51200D02*
X648970D01*
Y101200D01*
X394970D02*
X648970D01*
X394970Y51200D02*
Y101200D01*
X236318Y171809D02*
X241318D01*
X236318Y161809D02*
Y171809D01*
Y161809D02*
X241318D01*
Y171809D01*
X526506Y177827D02*
X617006D01*
Y212827D01*
X526506D02*
X617006D01*
X526506Y177827D02*
Y212827D01*
X615760Y225684D02*
X623760D01*
X615760D02*
Y241684D01*
X623760D01*
Y225684D02*
Y241684D01*
X625310Y175540D02*
Y210540D01*
X715810D01*
Y175540D02*
Y210540D01*
X625310Y175540D02*
X715810D01*
X635040Y258231D02*
Y268231D01*
Y258231D02*
X640040D01*
Y268231D01*
X635040D02*
X640040D01*
X636080Y225680D02*
X644080D01*
Y241680D01*
X636080D02*
X644080D01*
X636080Y225680D02*
Y241680D01*
X377145Y468156D02*
Y476156D01*
Y468156D02*
X393145Y468156D01*
Y476156D01*
X377145D02*
X393145D01*
X379649Y484701D02*
Y575201D01*
X344649D02*
X379649D01*
X344649Y484701D02*
Y575201D01*
Y484701D02*
X379649D01*
X426252Y472293D02*
Y482293D01*
Y472293D02*
X431252Y472293D01*
Y482293D01*
X426252Y482293D02*
X431252Y482293D01*
X410020Y479847D02*
X418020D01*
Y463847D02*
Y479847D01*
X410020Y463847D02*
X418020D01*
X410020D02*
Y479847D01*
X461600Y472293D02*
Y482293D01*
X456600D02*
X461600D01*
X456600Y472293D02*
Y482293D01*
Y472293D02*
X461600D01*
X421514Y420610D02*
X437514D01*
Y450610D01*
X421514D02*
X437514D01*
X421514Y420610D02*
Y450610D01*
X366057Y420610D02*
Y450610D01*
X382057D01*
Y420610D02*
Y450610D01*
X366057Y420610D02*
X382057D01*
X349330Y467400D02*
X359330D01*
X359330Y472400D02*
X359330Y467400D01*
X349330Y472400D02*
X359330D01*
X349330Y467400D02*
X349330Y472400D01*
X381058Y136900D02*
Y167900D01*
X396809D01*
Y136900D02*
Y167900D01*
X381058Y136900D02*
X396809D01*
X371825Y160918D02*
Y170918D01*
X366825Y160918D02*
X371825D01*
X366825D02*
Y170918D01*
X371825D01*
X291995Y168400D02*
X307995D01*
X291995Y136400D02*
Y168400D01*
Y136400D02*
X307995D01*
Y168400D01*
X250551Y137791D02*
Y168791D01*
X266301D01*
Y137791D02*
Y168791D01*
X250551Y137791D02*
X266301D01*
X166568Y169291D02*
X182568D01*
X166568Y137291D02*
Y169291D01*
Y137291D02*
X182568D01*
Y169291D01*
X201866Y251904D02*
X205667Y254004D01*
X205716D01*
X209266D01*
X221866D01*
X223866D01*
X240067D01*
X242817Y252454D01*
X248116Y249104D01*
X251267Y245354D01*
X255866Y239804D01*
X259166Y233554D01*
X260917Y227054D01*
X261716Y222104D01*
X261517Y215954D02*
X261716Y222104D01*
X260166Y207154D02*
X261517Y215954D01*
X257017Y200304D02*
X260166Y207154D01*
X253966Y195504D02*
X257017Y200304D01*
X250817Y191754D02*
X253966Y195504D01*
X247766Y188854D02*
X250817Y191754D01*
X245566Y187304D02*
X247766Y188854D01*
X243866Y186104D02*
X245566Y187304D01*
X240067Y184004D02*
X243866Y186104D01*
X240016Y184004D02*
X240067D01*
X236467D02*
X240016D01*
X223866D02*
X236467D01*
X221866D02*
X223866D01*
X205667D02*
X221866D01*
X202917Y185554D02*
X205667Y184004D01*
X197617Y188904D02*
X202917Y185554D01*
X194466Y192654D02*
X197617Y188904D01*
X189867Y198204D02*
X194466Y192654D01*
X186567Y204454D02*
X189867Y198204D01*
X184816Y210954D02*
X186567Y204454D01*
X184017Y215904D02*
X184816Y210954D01*
X184017Y215904D02*
X184216Y222054D01*
X185567Y230854D01*
X188716Y237704D01*
X191766Y242504D01*
X194916Y246254D01*
X197966Y249154D01*
X200166Y250704D01*
X201866Y251904D01*
X166568Y315853D02*
X182568D01*
X166568Y283853D02*
Y315853D01*
Y283853D02*
X182568D01*
Y315853D01*
X242588Y308371D02*
Y318371D01*
X237588Y308371D02*
X242588D01*
X237588D02*
Y318371D01*
X242588D01*
X251821Y284353D02*
Y315353D01*
X267571D01*
Y284353D02*
Y315353D01*
X251821Y284353D02*
X267571D01*
X380745Y284672D02*
Y315672D01*
X396495D01*
Y284672D02*
Y315672D01*
X380745Y284672D02*
X396495D01*
X372070Y308690D02*
Y318690D01*
X367070Y308690D02*
X372070D01*
X367070D02*
Y318690D01*
X372070D01*
X291028Y315341D02*
X307028D01*
X291028Y283341D02*
Y315341D01*
Y283341D02*
X307028D01*
Y315341D01*
X332374Y250888D02*
X336174Y252988D01*
X336223D01*
X339773D01*
X352374D01*
X354374D01*
X370574D01*
X373324Y251438D01*
X378624Y248088D01*
X381774Y244338D01*
X386373Y238788D01*
X389673Y232538D01*
X391424Y226038D01*
X392224Y221088D01*
X392024Y214938D02*
X392224Y221088D01*
X390673Y206138D02*
X392024Y214938D01*
X387524Y199288D02*
X390673Y206138D01*
X384473Y194488D02*
X387524Y199288D01*
X381324Y190738D02*
X384473Y194488D01*
X378274Y187838D02*
X381324Y190738D01*
X376073Y186288D02*
X378274Y187838D01*
X374373Y185088D02*
X376073Y186288D01*
X370574Y182988D02*
X374373Y185088D01*
X370523Y182988D02*
X370574D01*
X366974D02*
X370523D01*
X354374D02*
X366974D01*
X352374D02*
X354374D01*
X336174D02*
X352374D01*
X333424Y184538D02*
X336174Y182988D01*
X328124Y187888D02*
X333424Y184538D01*
X324973Y191638D02*
X328124Y187888D01*
X320373Y197188D02*
X324973Y191638D01*
X317074Y203438D02*
X320373Y197188D01*
X315324Y209938D02*
X317074Y203438D01*
X314524Y214888D02*
X315324Y209938D01*
X314524Y214888D02*
X314724Y221038D01*
X316074Y229838D01*
X319223Y236688D01*
X322273Y241488D01*
X325424Y245238D01*
X328474Y248138D01*
X330673Y249688D01*
X332374Y250888D01*
X485608Y271108D02*
Y281108D01*
X480608Y271108D02*
X485608Y271108D01*
X480608Y271108D02*
Y281108D01*
X485608Y281108D01*
X503010Y244823D02*
Y260823D01*
X495010Y244823D02*
X503010D01*
X495010D02*
X495010Y260823D01*
X503010Y260823D01*
X553760Y247823D02*
X558760D01*
Y257823D01*
X553760D02*
X558760D01*
X553760Y247823D02*
Y257823D01*
X539431Y196110D02*
Y201110D01*
X529431D02*
X539431D01*
X529431Y196110D02*
Y201110D01*
Y196110D02*
X539431D01*
X544640Y176910D02*
X552640D01*
X544640Y160910D02*
Y176910D01*
Y160910D02*
X552640D01*
Y176910D01*
X603828Y196230D02*
Y204230D01*
X587828D02*
X603828D01*
X587828Y196230D02*
Y204230D01*
Y196230D02*
X603828D01*
X664020Y197316D02*
X672020D01*
X664020Y181316D02*
Y197316D01*
Y181316D02*
X672020D01*
Y197316D01*
X664020Y164296D02*
X672020D01*
X664020Y148296D02*
Y164296D01*
Y148296D02*
X672020D01*
Y164296D01*
X655634Y410676D02*
X663634D01*
X655634D02*
X655634Y394676D01*
X663634D01*
Y410676D01*
X671640Y410676D02*
X679640D01*
X671640Y394676D02*
X671640Y410676D01*
X671640Y394676D02*
X679640D01*
Y410676D01*
X658854Y355090D02*
Y365090D01*
X663854D01*
Y355090D02*
Y365090D01*
X658854Y355090D02*
X663854D01*
X580872Y396310D02*
Y406310D01*
X585872D01*
Y396310D02*
Y406310D01*
X580872Y396310D02*
X585872D01*
X593638D02*
Y406310D01*
X598638D01*
Y396310D02*
Y406310D01*
X593638Y396310D02*
X598638D01*
X331406Y405961D02*
X335206Y408061D01*
X335256D01*
X338806D01*
X351406D01*
X353406D01*
X369607D01*
X372357Y406511D01*
X377657Y403161D01*
X380807Y399411D01*
X385406Y393861D01*
X388706Y387611D01*
X390457Y381111D01*
X391256Y376161D01*
X391057Y370011D02*
X391256Y376161D01*
X389706Y361211D02*
X391057Y370011D01*
X386557Y354361D02*
X389706Y361211D01*
X383506Y349561D02*
X386557Y354361D01*
X380357Y345811D02*
X383506Y349561D01*
X377307Y342911D02*
X380357Y345811D01*
X375106Y341361D02*
X377307Y342911D01*
X373406Y340161D02*
X375106Y341361D01*
X369607Y338061D02*
X373406Y340161D01*
X369557Y338061D02*
X369607D01*
X366007D02*
X369557D01*
X353406D02*
X366007D01*
X351406D02*
X353406D01*
X335206D02*
X351406D01*
X332457Y339611D02*
X335206Y338061D01*
X327156Y342961D02*
X332457Y339611D01*
X324006Y346711D02*
X327156Y342961D01*
X319407Y352261D02*
X324006Y346711D01*
X316106Y358511D02*
X319407Y352261D01*
X314356Y365011D02*
X316106Y358511D01*
X313557Y369961D02*
X314356Y365011D01*
X313557Y369961D02*
X313757Y376111D01*
X315107Y384911D01*
X318256Y391761D01*
X321306Y396561D01*
X324456Y400311D01*
X327506Y403211D01*
X329706Y404761D01*
X331406Y405961D01*
X436208Y445810D02*
X446208D01*
X436208D02*
X436208Y450810D01*
X446208D01*
X446208Y445810D01*
X419566Y443040D02*
Y451040D01*
X403566D02*
X419566D01*
X403566Y443040D02*
Y451040D01*
Y443040D02*
X419566D01*
X361146Y443040D02*
Y451040D01*
X345146D02*
X361146D01*
X345146Y443040D02*
Y451040D01*
Y443040D02*
X361146Y443040D01*
X322142Y449540D02*
X332142D01*
X332142Y444540D02*
X332142Y449540D01*
X322142Y444540D02*
X332142D01*
X322142Y449540D02*
X322142Y444540D01*
X203136Y405961D02*
X206936Y408061D01*
X206986D01*
X210536D01*
X223136D01*
X225136D01*
X241336D01*
X244087Y406511D01*
X249387Y403161D01*
X252537Y399411D01*
X257136Y393861D01*
X260436Y387611D01*
X262187Y381111D01*
X262987Y376161D01*
X262787Y370011D02*
X262987Y376161D01*
X261436Y361211D02*
X262787Y370011D01*
X258287Y354361D02*
X261436Y361211D01*
X255236Y349561D02*
X258287Y354361D01*
X252087Y345811D02*
X255236Y349561D01*
X249037Y342911D02*
X252087Y345811D01*
X246836Y341361D02*
X249037Y342911D01*
X245136Y340161D02*
X246836Y341361D01*
X241336Y338061D02*
X245136Y340161D01*
X241287Y338061D02*
X241336D01*
X237737D02*
X241287D01*
X225136D02*
X237737D01*
X223136D02*
X225136D01*
X206936D02*
X223136D01*
X204186Y339611D02*
X206936Y338061D01*
X198887Y342961D02*
X204186Y339611D01*
X195736Y346711D02*
X198887Y342961D01*
X191136Y352261D02*
X195736Y346711D01*
X187836Y358511D02*
X191136Y352261D01*
X186086Y365011D02*
X187836Y358511D01*
X185287Y369961D02*
X186086Y365011D01*
X185287Y369961D02*
X185487Y376111D01*
X186836Y384911D01*
X189986Y391761D01*
X193036Y396561D01*
X196187Y400311D01*
X199237Y403211D01*
X201436Y404761D01*
X203136Y405961D01*
X298070Y314803D02*
X314070D01*
Y282803D02*
Y314803D01*
X298070Y282803D02*
X314070D01*
X298070D02*
Y314803D01*
X169654Y318858D02*
X185654D01*
Y286858D02*
Y318858D01*
X169654Y286858D02*
X185654D01*
X169654D02*
Y318858D01*
X147449Y540123D02*
Y545123D01*
X157449D01*
Y540123D02*
Y545123D01*
X147449Y540123D02*
X157449D01*
X147449Y527357D02*
Y532357D01*
X157449D01*
Y527357D02*
Y532357D01*
X147449Y527357D02*
X157449D01*
X132687Y515245D02*
X137687D01*
X132687D02*
Y525245D01*
X137687D01*
Y515245D02*
Y525245D01*
X157449Y501825D02*
Y506825D01*
X147449Y501825D02*
X157449D01*
X147449D02*
Y506825D01*
X157449D01*
X178327Y482815D02*
Y492815D01*
X173327D02*
X178327D01*
X173327Y482815D02*
Y492815D01*
Y482815D02*
X178327D01*
X188568D02*
Y492815D01*
Y482815D02*
X193568D01*
Y492815D01*
X188568D02*
X193568D01*
X213026Y452523D02*
Y457523D01*
X203026Y452523D02*
X213026D01*
X203026D02*
Y457523D01*
X213026D01*
X144182Y452160D02*
Y457160D01*
X134182Y452160D02*
X144182D01*
X134182D02*
Y457160D01*
X144182D01*
Y439460D02*
Y444460D01*
X134182Y439460D02*
X144182D01*
X134182D02*
Y444460D01*
X144182D01*
X482869Y500371D02*
Y530371D01*
X452869Y500371D02*
X482869D01*
X452869D02*
Y530371D01*
X482869D01*
X441130Y468775D02*
X449130D01*
X441130D02*
Y484775D01*
X449130D01*
Y468775D02*
Y484775D01*
X468350Y472293D02*
Y482293D01*
Y472293D02*
X473350D01*
Y482293D01*
X468350D02*
X473350D01*
X485100Y472293D02*
Y482293D01*
X480100D02*
X485100D01*
X480100Y472293D02*
Y482293D01*
Y472293D02*
X485100D01*
X419075Y374970D02*
X431825D01*
X419075D02*
Y394970D01*
X431825D01*
X431825Y374970D01*
X427980Y289579D02*
Y355579D01*
X480780D01*
X493980Y342379D01*
Y302779D02*
Y342379D01*
X480780Y289579D02*
X493980Y302779D01*
X427980Y289579D02*
X480780D01*
X402400Y360950D02*
X402400Y376950D01*
X402400Y360950D02*
X410400D01*
X410400Y376950D01*
X402400D02*
X410400D01*
X453525Y401119D02*
X473525Y401119D01*
X473525Y381119D01*
X453525D02*
X473525D01*
X453525D02*
Y401119D01*
X444460Y383409D02*
Y393409D01*
X439460D02*
X444460D01*
X439460Y383409D02*
Y393409D01*
Y383409D02*
X444460D01*
X298070Y168400D02*
X314070D01*
Y136400D02*
Y168400D01*
X298070Y136400D02*
X314070D01*
X298070D02*
Y168400D01*
X169654Y172296D02*
X185654D01*
Y140296D02*
Y172296D01*
X169654Y140296D02*
X185654D01*
X169654D02*
Y172296D01*
X187880Y101178D02*
X200380Y113678D01*
X226380Y113677D01*
X238880Y101178D01*
Y75178D02*
Y101178D01*
X226380Y62677D02*
X238880Y75178D01*
X200380Y62677D02*
X226380D01*
X187880Y75178D02*
X200380Y62677D01*
X187880Y101178D02*
X187880Y75178D01*
X277458Y104180D02*
Y109180D01*
X287458D01*
Y104180D02*
Y109180D01*
X277458Y104180D02*
X287458D01*
X301070Y104180D02*
X311070D01*
Y109180D01*
X301070D02*
X311070D01*
X301070Y104180D02*
Y109180D01*
X280480Y75824D02*
X288480D01*
X280480D02*
Y91824D01*
X288480D01*
Y75824D02*
Y91824D01*
X311070Y92115D02*
Y97115D01*
X301070Y92115D02*
X311070D01*
X301070D02*
Y97115D01*
X311070D01*
Y80050D02*
Y85050D01*
X301070Y80050D02*
X311070D01*
X301070D02*
Y85050D01*
X311070D01*
X382230Y79316D02*
Y89316D01*
X377230D02*
X382230D01*
X377230Y79316D02*
Y89316D01*
Y79316D02*
X382230D01*
X422874Y148910D02*
X435374D01*
X422874D02*
Y168910D01*
X435374D01*
Y148910D02*
Y168910D01*
X415190Y148910D02*
Y168910D01*
X402690D02*
X415190D01*
X402690Y148910D02*
Y168910D01*
Y148910D02*
X415190D01*
X427552Y189190D02*
X437552D01*
X427552D02*
X427552Y184190D01*
X437552D01*
X437552Y189190D01*
X425156Y204660D02*
X441156D01*
X425156Y196660D02*
X425156Y204660D01*
X425156Y196660D02*
X441156Y196660D01*
Y204660D01*
X454232Y208494D02*
X464232D01*
X454232D02*
X454232Y203494D01*
X464232D01*
X464232Y208494D01*
X724154Y182260D02*
Y219060D01*
X758954D01*
Y182260D02*
Y219060D01*
X724154Y182260D02*
X758954D01*
X746680Y231180D02*
Y236180D01*
X736680Y231180D02*
X746680D01*
X736680D02*
Y236180D01*
X746680D01*
X693460Y228680D02*
X698460D01*
X693460D02*
Y238680D01*
X698460D01*
Y228680D02*
Y238680D01*
X621909Y258231D02*
Y268231D01*
Y258231D02*
X626909D01*
Y268231D01*
X621909D02*
X626909D01*
X608778Y258231D02*
Y268231D01*
Y258231D02*
X613778D01*
Y268231D01*
X608778D02*
X613778D01*
X595647Y258231D02*
Y268231D01*
Y258231D02*
X600647D01*
Y268231D01*
X595647D02*
X600647D01*
X542254Y355038D02*
Y360038D01*
X532254Y355038D02*
X542254D01*
X532254D02*
Y360038D01*
X542254D01*
Y367804D02*
Y372804D01*
X532254Y367804D02*
X542254D01*
X532254D02*
Y372804D01*
X542254D01*
X529830Y394780D02*
X545830D01*
Y402780D01*
X529830D02*
X545830D01*
X529830Y394780D02*
Y402780D01*
X583714Y583239D02*
Y642238D01*
X508714D02*
X583714D01*
X508714Y583239D02*
Y642238D01*
Y583239D02*
X583714D01*
X598210Y549830D02*
X603210D01*
Y539830D02*
Y549830D01*
X598210Y539830D02*
X603210D01*
X598210D02*
Y549830D01*
X618968Y505177D02*
Y520977D01*
X602768D02*
X618968D01*
X602768Y505177D02*
Y520977D01*
Y505177D02*
X618968D01*
X634328Y521930D02*
X644328D01*
X634328Y516930D02*
Y521930D01*
Y516930D02*
X644328D01*
Y521930D01*
X634328Y504230D02*
X644328D01*
Y509230D01*
X634328D02*
X644328D01*
X634328Y504230D02*
Y509230D01*
X515780Y440490D02*
X535780D01*
Y415490D02*
Y440490D01*
X515780Y415490D02*
X535780D01*
X515780D02*
Y440490D01*
X262510Y420610D02*
Y450610D01*
X278510D01*
Y420610D02*
Y450610D01*
X262510Y420610D02*
X278510D01*
X314157D02*
Y450610D01*
X330157D01*
Y420610D02*
Y450610D01*
X314157Y420610D02*
X330157D01*
X333178Y481370D02*
Y486370D01*
X323178Y481370D02*
X333178D01*
X323178D02*
Y486370D01*
X333178D01*
X323178Y494070D02*
Y499070D01*
X333178D01*
Y494070D02*
Y499070D01*
X323178Y494070D02*
X333178D01*
X229700Y516452D02*
X234700D01*
X229700D02*
Y526452D01*
X234700D01*
Y516452D02*
Y526452D01*
X277960Y515700D02*
X282960D01*
X277960D02*
Y525700D01*
X282960D01*
Y515700D02*
Y525700D01*
X197589Y560643D02*
X202589D01*
Y550643D02*
Y560643D01*
X197589Y550643D02*
X202589D01*
X197589D02*
Y560643D01*
X184823D02*
X189823D01*
Y550643D02*
Y560643D01*
X184823Y550643D02*
X189823D01*
X184823D02*
Y560643D01*
X172057D02*
X177057D01*
Y550643D02*
Y560643D01*
X172057Y550643D02*
X177057D01*
X172057D02*
Y560643D01*
X315210Y574788D02*
Y648288D01*
X225810Y574788D02*
X315210D01*
X225810D02*
Y648288D01*
X315210D01*
X732890Y529890D02*
X732890Y503890D01*
X720390Y542390D02*
X732890Y529890D01*
X694390Y542390D02*
X720390D01*
X681890Y529890D02*
X694390Y542390D01*
X681890Y503890D02*
Y529890D01*
Y503890D02*
X694390Y491390D01*
X720390Y491390D01*
X732890Y503890D01*
D193*
X366701Y118703D02*
Y137703D01*
X376701Y118703D02*
Y137703D01*
X366701D02*
X376701D01*
X366701Y118703D02*
X376701D01*
X352617Y118941D02*
Y137941D01*
X362617Y118941D02*
Y137941D01*
X352617D02*
X362617D01*
X352617Y118941D02*
X362617D01*
X358836Y264669D02*
X368836D01*
X358836Y283669D02*
X368836D01*
Y264669D02*
Y283669D01*
X358836Y264669D02*
Y283669D01*
X367726Y264669D02*
X377726D01*
X367726Y283669D02*
X377726D01*
Y264669D02*
Y283669D01*
X367726Y264669D02*
Y283669D01*
X546120Y271860D02*
Y281860D01*
X527120Y271860D02*
Y281860D01*
X546120D01*
X527120Y271860D02*
X546120D01*
X216596Y118619D02*
X226596D01*
X216596Y137619D02*
X226596D01*
Y118619D02*
Y137619D01*
X216596Y118619D02*
Y137619D01*
X226756Y118619D02*
X236756D01*
X226756Y137619D02*
X236756D01*
Y118619D02*
Y137619D01*
X226756Y118619D02*
Y137619D01*
X229296Y265181D02*
X239296D01*
X229296Y284181D02*
X239296D01*
Y265181D02*
Y284181D01*
X229296Y265181D02*
Y284181D01*
X236916Y265181D02*
X246916D01*
X236916Y284181D02*
X246916D01*
Y265181D02*
Y284181D01*
X236916Y265181D02*
Y284181D01*
X586130Y207090D02*
Y217090D01*
X605130Y207090D02*
Y217090D01*
X586130Y207090D02*
X605130Y207090D01*
X586130Y217090D02*
X605130D01*
X650320Y149930D02*
X660320D01*
X650320Y168930D02*
X660320D01*
Y149930D02*
Y168930D01*
X650320Y149930D02*
Y168930D01*
X667488Y350590D02*
X677488D01*
X667488Y369590D02*
X677488D01*
Y350590D02*
Y369590D01*
X667488Y350590D02*
Y369590D01*
X676990Y350590D02*
X686990D01*
X676990Y369590D02*
X686990D01*
Y350590D02*
Y369590D01*
X676990Y350590D02*
Y369590D01*
X612989Y338590D02*
Y381590D01*
X638989Y338590D02*
Y381590D01*
X612989D02*
X638989D01*
X612989Y338590D02*
X638989D01*
X199980Y504565D02*
X209980Y504565D01*
X199980Y485565D02*
X209980Y485565D01*
X199980Y485565D02*
Y504565D01*
X209980Y485565D02*
Y504565D01*
X190478D02*
X200478Y504565D01*
X190478Y485565D02*
X200478Y485565D01*
X190478Y485565D02*
Y504565D01*
X200478Y485565D02*
Y504565D01*
X335350Y316310D02*
Y326310D01*
X354350Y316310D02*
Y326310D01*
X335350D02*
X354350D01*
X335350Y316310D02*
X354350D01*
X292780Y264908D02*
Y332698D01*
X250780Y264908D02*
Y332698D01*
X292780D01*
X250780Y264908D02*
X292780D01*
X234820Y283870D02*
X244820Y283870D01*
X234820Y302870D02*
X244820D01*
X234820Y283870D02*
Y302870D01*
X244820Y283870D02*
Y302870D01*
X167855Y269471D02*
Y337261D01*
X125855Y269471D02*
Y337261D01*
X167855D01*
X125855Y269471D02*
X167855D01*
X164717Y542105D02*
X204717D01*
X164717Y502105D02*
X204717D01*
X164717D02*
Y542105D01*
X204717Y502105D02*
Y542105D01*
X142949Y512091D02*
Y522091D01*
X161949Y512091D02*
Y522091D01*
X142949D02*
X161949D01*
X142949Y512091D02*
X161949D01*
X151450Y467040D02*
X191450D01*
X151450Y427040D02*
X191450D01*
X151450D02*
Y467040D01*
X191450Y427040D02*
Y467040D01*
X153740Y426640D02*
X172740D01*
X153740Y416640D02*
X172740D01*
X153740D02*
Y426640D01*
X172740Y416640D02*
Y426640D01*
X173970Y416640D02*
X192970D01*
X173970Y426640D02*
X192970D01*
Y416640D02*
Y426640D01*
X173970Y416640D02*
Y426640D01*
X411400Y383610D02*
Y402610D01*
X401400Y383610D02*
Y402610D01*
X411400D01*
X401400Y383610D02*
X411400D01*
X413162Y236079D02*
X456162D01*
X413162Y262079D02*
X456162D01*
Y236079D02*
Y262079D01*
X413162Y236079D02*
Y262079D01*
X413822Y217029D02*
X456822Y217029D01*
X413822Y243029D02*
X456822Y243029D01*
Y217029D02*
Y243029D01*
X413822Y217029D02*
Y243029D01*
X338204Y169808D02*
Y179808D01*
X357203Y169808D02*
Y179808D01*
X338204D02*
X357203D01*
X338204Y169808D02*
X357203D01*
X292780Y118505D02*
Y186295D01*
X250780Y118505D02*
Y186295D01*
X292780D01*
X250780Y118505D02*
X292780D01*
X207696Y169808D02*
X226696D01*
X207696Y179808D02*
X226696D01*
Y169808D02*
Y179808D01*
X207696Y169808D02*
Y179808D01*
X125855Y122401D02*
X167855D01*
X125855Y190191D02*
X167855D01*
X125855Y122401D02*
Y190191D01*
X167855Y122401D02*
Y190191D01*
X261700Y112370D02*
X271700D01*
X261700Y93370D02*
X271700D01*
Y112370D01*
X261700Y93370D02*
Y112370D01*
X751770Y160100D02*
Y170100D01*
X732770Y160100D02*
Y170100D01*
Y160100D02*
X751770D01*
X732770Y170100D02*
X751770D01*
X517980Y224690D02*
X558980D01*
X517980Y275690D02*
X558980D01*
X517980Y224690D02*
Y275690D01*
X558980Y224690D02*
Y275690D01*
X547300Y276940D02*
Y286940D01*
X528300Y276940D02*
Y286940D01*
Y276940D02*
X547300D01*
X528300Y286940D02*
X547300D01*
X632380Y469880D02*
Y488880D01*
X622380Y469880D02*
Y488880D01*
X632380D01*
X622380Y469880D02*
X632380D01*
X655400Y471240D02*
Y490240D01*
X665400Y471240D02*
Y490240D01*
X655400Y471240D02*
X665400D01*
X655400Y490240D02*
X665400D01*
X770340Y277380D02*
Y436380D01*
X560340Y277380D02*
X770340D01*
X560340D02*
Y436380D01*
X770340D01*
X542370Y421710D02*
X552370Y421710D01*
X542370Y440710D02*
X552370D01*
X542370Y421710D02*
Y440710D01*
X552370Y421710D02*
Y440710D01*
X239205Y489440D02*
Y531640D01*
X273455D01*
Y489440D02*
Y531640D01*
X239205Y489440D02*
X273455D01*
X291970Y511200D02*
X301970D01*
X291970Y530200D02*
X301970D01*
X291970Y511200D02*
Y530200D01*
X301970Y511200D02*
Y530200D01*
M02*
