G04*
G04 #@! TF.GenerationSoftware,Altium Limited,Altium Designer,23.1.1 (15)*
G04*
G04 Layer_Color=16711935*
%FSLAX44Y44*%
%MOMM*%
G71*
G04*
G04 #@! TF.SameCoordinates,D1EA7B9B-11C4-41B5-954D-5070AA3C9977*
G04*
G04*
G04 #@! TF.FilePolarity,Positive*
G04*
G01*
G75*
%ADD16C,0.2000*%
G36*
X475611Y556521D02*
X475694Y556511D01*
X475796Y556502D01*
X475898Y556493D01*
X476018Y556465D01*
X476268Y556409D01*
X476545Y556326D01*
X476684Y556271D01*
X476813Y556206D01*
X476942Y556123D01*
X477072Y556040D01*
X477081Y556031D01*
X477100Y556021D01*
X477137Y555993D01*
X477183Y555947D01*
X477229Y555901D01*
X477294Y555836D01*
X477359Y555762D01*
X477433Y555688D01*
X477506Y555596D01*
X477580Y555485D01*
X477664Y555374D01*
X477738Y555254D01*
X477802Y555115D01*
X477876Y554977D01*
X477932Y554828D01*
X477987Y554662D01*
X477155Y554468D01*
Y554477D01*
X477146Y554496D01*
X477127Y554533D01*
X477109Y554579D01*
X477090Y554634D01*
X477063Y554708D01*
X476989Y554856D01*
X476896Y555023D01*
X476785Y555189D01*
X476647Y555346D01*
X476499Y555485D01*
X476480Y555504D01*
X476425Y555540D01*
X476332Y555587D01*
X476212Y555651D01*
X476055Y555707D01*
X475879Y555762D01*
X475667Y555799D01*
X475435Y555809D01*
X475362D01*
X475315Y555799D01*
X475251D01*
X475177Y555790D01*
X475001Y555762D01*
X474807Y555725D01*
X474603Y555661D01*
X474391Y555568D01*
X474197Y555448D01*
X474187D01*
X474178Y555429D01*
X474113Y555383D01*
X474030Y555309D01*
X473928Y555198D01*
X473808Y555060D01*
X473697Y554902D01*
X473596Y554708D01*
X473503Y554496D01*
Y554486D01*
X473494Y554468D01*
X473485Y554440D01*
X473475Y554394D01*
X473457Y554338D01*
X473438Y554274D01*
X473411Y554117D01*
X473374Y553932D01*
X473337Y553728D01*
X473318Y553506D01*
X473309Y553266D01*
Y553257D01*
Y553229D01*
Y553183D01*
Y553127D01*
X473318Y553063D01*
Y552979D01*
X473327Y552887D01*
X473337Y552785D01*
X473364Y552563D01*
X473411Y552323D01*
X473466Y552083D01*
X473540Y551842D01*
Y551833D01*
X473549Y551814D01*
X473568Y551787D01*
X473586Y551740D01*
X473642Y551630D01*
X473725Y551500D01*
X473827Y551352D01*
X473956Y551195D01*
X474104Y551056D01*
X474280Y550927D01*
X474289D01*
X474308Y550918D01*
X474335Y550899D01*
X474372Y550881D01*
X474418Y550862D01*
X474474Y550834D01*
X474603Y550779D01*
X474770Y550723D01*
X474955Y550677D01*
X475158Y550640D01*
X475371Y550631D01*
X475435D01*
X475491Y550640D01*
X475556D01*
X475620Y550649D01*
X475787Y550686D01*
X475981Y550733D01*
X476175Y550807D01*
X476379Y550908D01*
X476480Y550964D01*
X476573Y551038D01*
X476582Y551047D01*
X476591Y551056D01*
X476619Y551084D01*
X476656Y551112D01*
X476693Y551158D01*
X476739Y551213D01*
X476795Y551269D01*
X476841Y551343D01*
X476896Y551426D01*
X476961Y551519D01*
X477016Y551611D01*
X477072Y551722D01*
X477118Y551842D01*
X477164Y551972D01*
X477211Y552110D01*
X477248Y552258D01*
X478098Y552046D01*
Y552036D01*
X478089Y551999D01*
X478070Y551944D01*
X478043Y551870D01*
X478015Y551787D01*
X477978Y551685D01*
X477932Y551574D01*
X477876Y551454D01*
X477747Y551195D01*
X477580Y550936D01*
X477479Y550807D01*
X477377Y550677D01*
X477266Y550566D01*
X477137Y550455D01*
X477127Y550446D01*
X477109Y550428D01*
X477063Y550409D01*
X477016Y550372D01*
X476942Y550326D01*
X476869Y550280D01*
X476767Y550233D01*
X476665Y550187D01*
X476545Y550132D01*
X476415Y550085D01*
X476277Y550039D01*
X476129Y549993D01*
X475972Y549956D01*
X475805Y549938D01*
X475630Y549919D01*
X475445Y549910D01*
X475343D01*
X475269Y549919D01*
X475186D01*
X475084Y549928D01*
X474973Y549947D01*
X474844Y549965D01*
X474576Y550012D01*
X474298Y550085D01*
X474021Y550187D01*
X473891Y550252D01*
X473762Y550326D01*
X473753Y550335D01*
X473734Y550344D01*
X473697Y550372D01*
X473660Y550409D01*
X473605Y550446D01*
X473540Y550502D01*
X473466Y550566D01*
X473392Y550640D01*
X473318Y550723D01*
X473235Y550807D01*
X473069Y551019D01*
X472911Y551269D01*
X472773Y551546D01*
Y551556D01*
X472754Y551583D01*
X472745Y551630D01*
X472717Y551685D01*
X472699Y551759D01*
X472671Y551851D01*
X472634Y551953D01*
X472606Y552064D01*
X472579Y552184D01*
X472542Y552323D01*
X472495Y552610D01*
X472458Y552933D01*
X472440Y553266D01*
Y553275D01*
Y553312D01*
Y553368D01*
X472449Y553432D01*
Y553525D01*
X472458Y553617D01*
X472468Y553738D01*
X472486Y553858D01*
X472532Y554126D01*
X472597Y554422D01*
X472690Y554718D01*
X472819Y555004D01*
X472828Y555013D01*
X472837Y555041D01*
X472856Y555078D01*
X472893Y555124D01*
X472930Y555189D01*
X472976Y555263D01*
X473096Y555429D01*
X473254Y555614D01*
X473438Y555799D01*
X473651Y555984D01*
X473901Y556141D01*
X473910Y556151D01*
X473938Y556160D01*
X473975Y556178D01*
X474021Y556206D01*
X474095Y556234D01*
X474169Y556262D01*
X474261Y556299D01*
X474363Y556336D01*
X474474Y556372D01*
X474594Y556409D01*
X474853Y556465D01*
X475149Y556511D01*
X475454Y556530D01*
X475546D01*
X475611Y556521D01*
D02*
G37*
G36*
X482120Y552277D02*
X482989D01*
Y551556D01*
X482120D01*
Y550021D01*
X481334D01*
Y551556D01*
X478551D01*
Y552277D01*
X481482Y556419D01*
X482120D01*
Y552277D01*
D02*
G37*
G36*
X454372Y558171D02*
X454465D01*
X454557Y558162D01*
X454678Y558152D01*
X454798Y558134D01*
X455066Y558088D01*
X455362Y558023D01*
X455658Y557930D01*
X455944Y557801D01*
X455953Y557792D01*
X455981Y557783D01*
X456018Y557764D01*
X456064Y557727D01*
X456129Y557690D01*
X456203Y557644D01*
X456370Y557524D01*
X456554Y557366D01*
X456739Y557182D01*
X456924Y556969D01*
X457081Y556719D01*
X457091Y556710D01*
X457100Y556682D01*
X457118Y556645D01*
X457146Y556599D01*
X457174Y556525D01*
X457202Y556451D01*
X457239Y556359D01*
X457276Y556257D01*
X457313Y556146D01*
X457350Y556026D01*
X457405Y555767D01*
X457451Y555471D01*
X457470Y555166D01*
Y555074D01*
X457461Y555009D01*
X457451Y554926D01*
X457442Y554824D01*
X457433Y554722D01*
X457405Y554602D01*
X457350Y554352D01*
X457266Y554075D01*
X457211Y553936D01*
X457146Y553807D01*
X457063Y553677D01*
X456980Y553548D01*
X456970Y553539D01*
X456961Y553520D01*
X456934Y553483D01*
X456887Y553437D01*
X456841Y553391D01*
X456776Y553326D01*
X456702Y553261D01*
X456628Y553187D01*
X456536Y553113D01*
X456425Y553040D01*
X456314Y552956D01*
X456194Y552882D01*
X456055Y552818D01*
X455916Y552744D01*
X455769Y552688D01*
X455602Y552633D01*
X455408Y553465D01*
X455417D01*
X455436Y553474D01*
X455473Y553493D01*
X455519Y553511D01*
X455574Y553530D01*
X455648Y553557D01*
X455796Y553631D01*
X455963Y553724D01*
X456129Y553835D01*
X456286Y553973D01*
X456425Y554121D01*
X456443Y554140D01*
X456480Y554195D01*
X456527Y554288D01*
X456591Y554408D01*
X456647Y554565D01*
X456702Y554741D01*
X456739Y554953D01*
X456749Y555184D01*
Y555258D01*
X456739Y555305D01*
Y555369D01*
X456730Y555443D01*
X456702Y555619D01*
X456665Y555813D01*
X456601Y556017D01*
X456508Y556229D01*
X456388Y556423D01*
Y556433D01*
X456370Y556442D01*
X456323Y556507D01*
X456249Y556590D01*
X456138Y556692D01*
X456000Y556812D01*
X455843Y556923D01*
X455648Y557024D01*
X455436Y557117D01*
X455426D01*
X455408Y557126D01*
X455380Y557135D01*
X455334Y557145D01*
X455279Y557163D01*
X455214Y557182D01*
X455057Y557209D01*
X454872Y557246D01*
X454668Y557283D01*
X454446Y557302D01*
X454206Y557311D01*
X454197D01*
X454169D01*
X454123D01*
X454067D01*
X454003Y557302D01*
X453919D01*
X453827Y557292D01*
X453725Y557283D01*
X453503Y557256D01*
X453263Y557209D01*
X453023Y557154D01*
X452782Y557080D01*
X452773D01*
X452755Y557071D01*
X452727Y557052D01*
X452681Y557034D01*
X452570Y556978D01*
X452440Y556895D01*
X452292Y556793D01*
X452135Y556664D01*
X451996Y556516D01*
X451867Y556340D01*
Y556331D01*
X451858Y556312D01*
X451839Y556285D01*
X451821Y556248D01*
X451802Y556202D01*
X451774Y556146D01*
X451719Y556017D01*
X451664Y555850D01*
X451617Y555665D01*
X451580Y555462D01*
X451571Y555249D01*
Y555184D01*
X451580Y555129D01*
Y555064D01*
X451590Y555000D01*
X451627Y554833D01*
X451673Y554639D01*
X451747Y554445D01*
X451848Y554241D01*
X451904Y554140D01*
X451978Y554047D01*
X451987Y554038D01*
X451996Y554029D01*
X452024Y554001D01*
X452052Y553964D01*
X452098Y553927D01*
X452154Y553881D01*
X452209Y553825D01*
X452283Y553779D01*
X452366Y553724D01*
X452459Y553659D01*
X452551Y553603D01*
X452662Y553548D01*
X452782Y553502D01*
X452912Y553456D01*
X453050Y553409D01*
X453198Y553372D01*
X452986Y552522D01*
X452976D01*
X452939Y552531D01*
X452884Y552549D01*
X452810Y552577D01*
X452727Y552605D01*
X452625Y552642D01*
X452514Y552688D01*
X452394Y552744D01*
X452135Y552873D01*
X451876Y553040D01*
X451747Y553141D01*
X451617Y553243D01*
X451506Y553354D01*
X451395Y553483D01*
X451386Y553493D01*
X451368Y553511D01*
X451349Y553557D01*
X451312Y553603D01*
X451266Y553677D01*
X451220Y553751D01*
X451174Y553853D01*
X451127Y553955D01*
X451072Y554075D01*
X451026Y554204D01*
X450979Y554343D01*
X450933Y554491D01*
X450896Y554648D01*
X450878Y554815D01*
X450859Y554990D01*
X450850Y555175D01*
Y555277D01*
X450859Y555351D01*
Y555434D01*
X450868Y555536D01*
X450887Y555647D01*
X450905Y555776D01*
X450952Y556044D01*
X451026Y556322D01*
X451127Y556599D01*
X451192Y556729D01*
X451266Y556858D01*
X451275Y556867D01*
X451284Y556886D01*
X451312Y556923D01*
X451349Y556960D01*
X451386Y557015D01*
X451442Y557080D01*
X451506Y557154D01*
X451580Y557228D01*
X451664Y557302D01*
X451747Y557385D01*
X451959Y557551D01*
X452209Y557709D01*
X452486Y557847D01*
X452496D01*
X452523Y557866D01*
X452570Y557875D01*
X452625Y557903D01*
X452699Y557921D01*
X452791Y557949D01*
X452893Y557986D01*
X453004Y558014D01*
X453124Y558041D01*
X453263Y558078D01*
X453550Y558125D01*
X453873Y558162D01*
X454206Y558180D01*
X454215D01*
X454252D01*
X454308D01*
X454372Y558171D01*
D02*
G37*
G36*
X452755Y551005D02*
X452745D01*
X452727Y550996D01*
X452690Y550987D01*
X452644Y550978D01*
X452588Y550968D01*
X452523Y550950D01*
X452385Y550904D01*
X452218Y550839D01*
X452061Y550756D01*
X451913Y550663D01*
X451784Y550552D01*
X451774Y550534D01*
X451738Y550497D01*
X451691Y550423D01*
X451645Y550331D01*
X451590Y550219D01*
X451543Y550081D01*
X451506Y549924D01*
X451497Y549757D01*
Y549702D01*
X451506Y549665D01*
X451516Y549563D01*
X451543Y549434D01*
X451590Y549286D01*
X451654Y549129D01*
X451747Y548971D01*
X451876Y548824D01*
X451895Y548805D01*
X451950Y548759D01*
X452033Y548703D01*
X452144Y548629D01*
X452283Y548555D01*
X452440Y548500D01*
X452625Y548454D01*
X452828Y548435D01*
X452838D01*
X452856D01*
X452884D01*
X452921Y548444D01*
X453023Y548454D01*
X453143Y548481D01*
X453291Y548518D01*
X453439Y548583D01*
X453587Y548675D01*
X453725Y548796D01*
X453744Y548814D01*
X453781Y548860D01*
X453836Y548934D01*
X453901Y549036D01*
X453966Y549166D01*
X454021Y549323D01*
X454058Y549498D01*
X454077Y549693D01*
Y549776D01*
X454067Y549841D01*
X454058Y549924D01*
X454040Y550016D01*
X454021Y550127D01*
X453993Y550247D01*
X454687Y550155D01*
Y550109D01*
X454678Y550072D01*
Y549951D01*
X454696Y549850D01*
X454715Y549729D01*
X454742Y549591D01*
X454789Y549434D01*
X454853Y549286D01*
X454936Y549129D01*
Y549119D01*
X454946Y549110D01*
X454983Y549064D01*
X455047Y548999D01*
X455131Y548925D01*
X455251Y548851D01*
X455390Y548787D01*
X455547Y548740D01*
X455639Y548722D01*
X455741D01*
X455750D01*
X455759D01*
X455815D01*
X455889Y548740D01*
X455990Y548759D01*
X456101Y548796D01*
X456222Y548842D01*
X456342Y548916D01*
X456453Y549018D01*
X456462Y549027D01*
X456499Y549073D01*
X456545Y549138D01*
X456601Y549221D01*
X456647Y549332D01*
X456693Y549461D01*
X456730Y549609D01*
X456739Y549776D01*
Y549850D01*
X456721Y549933D01*
X456702Y550044D01*
X456665Y550164D01*
X456619Y550284D01*
X456545Y550414D01*
X456453Y550534D01*
X456443Y550543D01*
X456397Y550580D01*
X456333Y550636D01*
X456240Y550700D01*
X456120Y550765D01*
X455972Y550830D01*
X455796Y550885D01*
X455593Y550922D01*
X455732Y551708D01*
X455741D01*
X455769Y551699D01*
X455806Y551690D01*
X455861Y551680D01*
X455926Y551662D01*
X456000Y551634D01*
X456175Y551579D01*
X456379Y551486D01*
X456582Y551375D01*
X456776Y551237D01*
X456952Y551061D01*
X456961Y551052D01*
X456970Y551033D01*
X456989Y551005D01*
X457017Y550968D01*
X457054Y550922D01*
X457091Y550858D01*
X457128Y550793D01*
X457174Y550710D01*
X457248Y550525D01*
X457322Y550312D01*
X457368Y550062D01*
X457387Y549933D01*
Y549702D01*
X457377Y549600D01*
X457359Y549480D01*
X457331Y549332D01*
X457285Y549166D01*
X457229Y548999D01*
X457155Y548833D01*
Y548824D01*
X457146Y548814D01*
X457118Y548759D01*
X457063Y548675D01*
X456998Y548583D01*
X456906Y548472D01*
X456804Y548361D01*
X456684Y548250D01*
X456545Y548158D01*
X456527Y548148D01*
X456480Y548121D01*
X456397Y548084D01*
X456296Y548038D01*
X456175Y547991D01*
X456037Y547954D01*
X455880Y547927D01*
X455722Y547917D01*
X455704D01*
X455648D01*
X455574Y547927D01*
X455473Y547945D01*
X455353Y547973D01*
X455223Y548019D01*
X455094Y548075D01*
X454964Y548148D01*
X454946Y548158D01*
X454909Y548186D01*
X454844Y548241D01*
X454770Y548315D01*
X454687Y548407D01*
X454594Y548518D01*
X454511Y548648D01*
X454428Y548805D01*
Y548796D01*
X454419Y548777D01*
X454409Y548750D01*
X454400Y548713D01*
X454363Y548611D01*
X454308Y548481D01*
X454234Y548333D01*
X454141Y548186D01*
X454021Y548047D01*
X453882Y547917D01*
X453864Y547908D01*
X453809Y547871D01*
X453716Y547816D01*
X453596Y547760D01*
X453448Y547705D01*
X453272Y547649D01*
X453069Y547612D01*
X452847Y547603D01*
X452838D01*
X452810D01*
X452764D01*
X452708Y547612D01*
X452634Y547621D01*
X452551Y547640D01*
X452459Y547659D01*
X452357Y547677D01*
X452135Y547751D01*
X452015Y547806D01*
X451904Y547862D01*
X451784Y547936D01*
X451664Y548019D01*
X451543Y548112D01*
X451432Y548223D01*
X451423Y548232D01*
X451405Y548250D01*
X451377Y548287D01*
X451340Y548333D01*
X451294Y548389D01*
X451247Y548463D01*
X451192Y548546D01*
X451146Y548648D01*
X451090Y548750D01*
X451035Y548870D01*
X450989Y548990D01*
X450942Y549129D01*
X450905Y549277D01*
X450878Y549434D01*
X450859Y549591D01*
X450850Y549767D01*
Y549850D01*
X450859Y549905D01*
X450868Y549979D01*
X450878Y550062D01*
X450896Y550155D01*
X450915Y550257D01*
X450970Y550478D01*
X451063Y550710D01*
X451118Y550830D01*
X451183Y550941D01*
X451266Y551052D01*
X451349Y551163D01*
X451358Y551172D01*
X451377Y551190D01*
X451405Y551218D01*
X451442Y551246D01*
X451488Y551292D01*
X451553Y551338D01*
X451617Y551394D01*
X451701Y551449D01*
X451793Y551505D01*
X451885Y551560D01*
X452107Y551662D01*
X452366Y551745D01*
X452505Y551773D01*
X452653Y551791D01*
X452755Y551005D01*
D02*
G37*
G36*
X427924Y566729D02*
X422922D01*
X422931Y566719D01*
X422968Y566673D01*
X423023Y566618D01*
X423088Y566525D01*
X423171Y566423D01*
X423264Y566294D01*
X423366Y566146D01*
X423467Y565980D01*
Y565970D01*
X423476Y565961D01*
X423513Y565906D01*
X423560Y565813D01*
X423615Y565702D01*
X423680Y565573D01*
X423745Y565434D01*
X423809Y565296D01*
X423865Y565157D01*
X423107D01*
Y565166D01*
X423088Y565185D01*
X423079Y565222D01*
X423051Y565268D01*
X423023Y565323D01*
X422986Y565388D01*
X422894Y565545D01*
X422792Y565730D01*
X422663Y565915D01*
X422515Y566109D01*
X422358Y566303D01*
X422349Y566313D01*
X422339Y566322D01*
X422312Y566350D01*
X422284Y566386D01*
X422191Y566470D01*
X422080Y566581D01*
X421951Y566692D01*
X421803Y566812D01*
X421655Y566913D01*
X421498Y567006D01*
Y567514D01*
X427924D01*
Y566729D01*
D02*
G37*
G36*
X425945Y563825D02*
X426001Y563807D01*
X426074Y563779D01*
X426158Y563752D01*
X426259Y563715D01*
X426370Y563668D01*
X426491Y563613D01*
X426749Y563483D01*
X427008Y563317D01*
X427138Y563215D01*
X427267Y563114D01*
X427378Y563003D01*
X427489Y562873D01*
X427498Y562864D01*
X427517Y562845D01*
X427535Y562799D01*
X427572Y562753D01*
X427618Y562679D01*
X427665Y562605D01*
X427711Y562503D01*
X427757Y562402D01*
X427813Y562281D01*
X427859Y562152D01*
X427905Y562013D01*
X427951Y561865D01*
X427988Y561708D01*
X428007Y561542D01*
X428025Y561366D01*
X428035Y561181D01*
Y561080D01*
X428025Y561006D01*
Y560922D01*
X428016Y560821D01*
X427998Y560710D01*
X427979Y560580D01*
X427933Y560312D01*
X427859Y560035D01*
X427757Y559757D01*
X427692Y559628D01*
X427618Y559499D01*
X427609Y559489D01*
X427600Y559471D01*
X427572Y559434D01*
X427535Y559397D01*
X427498Y559341D01*
X427443Y559277D01*
X427378Y559203D01*
X427304Y559129D01*
X427221Y559055D01*
X427138Y558972D01*
X426925Y558805D01*
X426675Y558648D01*
X426398Y558509D01*
X426389D01*
X426361Y558491D01*
X426315Y558482D01*
X426259Y558454D01*
X426185Y558435D01*
X426093Y558408D01*
X425991Y558371D01*
X425880Y558343D01*
X425760Y558315D01*
X425621Y558278D01*
X425335Y558232D01*
X425011Y558195D01*
X424678Y558176D01*
X424669D01*
X424632D01*
X424577D01*
X424512Y558186D01*
X424420D01*
X424327Y558195D01*
X424207Y558204D01*
X424087Y558223D01*
X423819Y558269D01*
X423523Y558334D01*
X423227Y558426D01*
X422940Y558555D01*
X422931Y558565D01*
X422903Y558574D01*
X422866Y558592D01*
X422820Y558629D01*
X422755Y558666D01*
X422681Y558713D01*
X422515Y558833D01*
X422330Y558990D01*
X422145Y559175D01*
X421960Y559388D01*
X421803Y559637D01*
X421794Y559646D01*
X421785Y559674D01*
X421766Y559711D01*
X421738Y559757D01*
X421711Y559831D01*
X421683Y559905D01*
X421646Y559998D01*
X421609Y560099D01*
X421572Y560210D01*
X421535Y560331D01*
X421479Y560590D01*
X421433Y560885D01*
X421415Y561190D01*
Y561283D01*
X421424Y561348D01*
X421433Y561431D01*
X421442Y561533D01*
X421452Y561634D01*
X421479Y561754D01*
X421535Y562004D01*
X421618Y562281D01*
X421674Y562420D01*
X421738Y562550D01*
X421822Y562679D01*
X421905Y562808D01*
X421914Y562818D01*
X421923Y562836D01*
X421951Y562873D01*
X421997Y562919D01*
X422043Y562966D01*
X422108Y563030D01*
X422182Y563095D01*
X422256Y563169D01*
X422349Y563243D01*
X422459Y563317D01*
X422570Y563400D01*
X422691Y563474D01*
X422829Y563539D01*
X422968Y563613D01*
X423116Y563668D01*
X423282Y563724D01*
X423476Y562892D01*
X423467D01*
X423449Y562882D01*
X423412Y562864D01*
X423366Y562845D01*
X423310Y562827D01*
X423236Y562799D01*
X423088Y562725D01*
X422922Y562633D01*
X422755Y562522D01*
X422598Y562383D01*
X422459Y562235D01*
X422441Y562217D01*
X422404Y562161D01*
X422358Y562069D01*
X422293Y561949D01*
X422238Y561791D01*
X422182Y561616D01*
X422145Y561403D01*
X422136Y561172D01*
Y561098D01*
X422145Y561052D01*
Y560987D01*
X422154Y560913D01*
X422182Y560737D01*
X422219Y560543D01*
X422284Y560340D01*
X422376Y560127D01*
X422496Y559933D01*
Y559924D01*
X422515Y559915D01*
X422561Y559850D01*
X422635Y559767D01*
X422746Y559665D01*
X422885Y559545D01*
X423042Y559434D01*
X423236Y559332D01*
X423449Y559240D01*
X423458D01*
X423476Y559230D01*
X423504Y559221D01*
X423550Y559212D01*
X423606Y559193D01*
X423671Y559175D01*
X423828Y559147D01*
X424013Y559110D01*
X424216Y559073D01*
X424438Y559055D01*
X424678Y559045D01*
X424688D01*
X424715D01*
X424762D01*
X424817D01*
X424882Y559055D01*
X424965D01*
X425057Y559064D01*
X425159Y559073D01*
X425381Y559101D01*
X425621Y559147D01*
X425862Y559203D01*
X426102Y559277D01*
X426111D01*
X426130Y559286D01*
X426158Y559304D01*
X426204Y559323D01*
X426315Y559378D01*
X426444Y559462D01*
X426592Y559563D01*
X426749Y559693D01*
X426888Y559841D01*
X427018Y560016D01*
Y560026D01*
X427027Y560044D01*
X427045Y560072D01*
X427064Y560109D01*
X427082Y560155D01*
X427110Y560210D01*
X427165Y560340D01*
X427221Y560506D01*
X427267Y560691D01*
X427304Y560895D01*
X427313Y561107D01*
Y561172D01*
X427304Y561227D01*
Y561292D01*
X427295Y561357D01*
X427258Y561523D01*
X427212Y561717D01*
X427138Y561912D01*
X427036Y562115D01*
X426981Y562217D01*
X426907Y562309D01*
X426897Y562318D01*
X426888Y562328D01*
X426860Y562355D01*
X426833Y562392D01*
X426786Y562429D01*
X426731Y562476D01*
X426675Y562531D01*
X426601Y562577D01*
X426518Y562633D01*
X426426Y562698D01*
X426333Y562753D01*
X426222Y562808D01*
X426102Y562855D01*
X425973Y562901D01*
X425834Y562947D01*
X425686Y562984D01*
X425899Y563835D01*
X425908D01*
X425945Y563825D01*
D02*
G37*
G36*
X431512Y518771D02*
X431605D01*
X431697Y518762D01*
X431818Y518752D01*
X431938Y518734D01*
X432206Y518688D01*
X432502Y518623D01*
X432798Y518531D01*
X433084Y518401D01*
X433093Y518392D01*
X433121Y518383D01*
X433158Y518364D01*
X433204Y518327D01*
X433269Y518290D01*
X433343Y518244D01*
X433509Y518124D01*
X433694Y517966D01*
X433879Y517782D01*
X434064Y517569D01*
X434221Y517319D01*
X434231Y517310D01*
X434240Y517282D01*
X434258Y517245D01*
X434286Y517199D01*
X434314Y517125D01*
X434342Y517051D01*
X434379Y516959D01*
X434416Y516857D01*
X434453Y516746D01*
X434490Y516626D01*
X434545Y516367D01*
X434591Y516071D01*
X434610Y515766D01*
Y515674D01*
X434600Y515609D01*
X434591Y515526D01*
X434582Y515424D01*
X434573Y515322D01*
X434545Y515202D01*
X434490Y514953D01*
X434406Y514675D01*
X434351Y514536D01*
X434286Y514407D01*
X434203Y514277D01*
X434120Y514148D01*
X434110Y514139D01*
X434101Y514120D01*
X434073Y514083D01*
X434027Y514037D01*
X433981Y513991D01*
X433916Y513926D01*
X433842Y513862D01*
X433768Y513787D01*
X433676Y513714D01*
X433565Y513640D01*
X433454Y513556D01*
X433334Y513482D01*
X433195Y513418D01*
X433056Y513344D01*
X432909Y513288D01*
X432742Y513233D01*
X432548Y514065D01*
X432557D01*
X432576Y514074D01*
X432613Y514093D01*
X432659Y514111D01*
X432714Y514130D01*
X432788Y514157D01*
X432936Y514231D01*
X433103Y514324D01*
X433269Y514435D01*
X433426Y514573D01*
X433565Y514721D01*
X433583Y514740D01*
X433620Y514795D01*
X433667Y514888D01*
X433731Y515008D01*
X433787Y515165D01*
X433842Y515341D01*
X433879Y515553D01*
X433889Y515785D01*
Y515858D01*
X433879Y515905D01*
Y515970D01*
X433870Y516043D01*
X433842Y516219D01*
X433805Y516413D01*
X433741Y516617D01*
X433648Y516829D01*
X433528Y517024D01*
Y517033D01*
X433509Y517042D01*
X433463Y517107D01*
X433389Y517190D01*
X433278Y517292D01*
X433140Y517412D01*
X432982Y517523D01*
X432788Y517624D01*
X432576Y517717D01*
X432566D01*
X432548Y517726D01*
X432520Y517735D01*
X432474Y517745D01*
X432419Y517763D01*
X432354Y517782D01*
X432197Y517809D01*
X432012Y517846D01*
X431808Y517883D01*
X431586Y517902D01*
X431346Y517911D01*
X431337D01*
X431309D01*
X431263D01*
X431207D01*
X431143Y517902D01*
X431059D01*
X430967Y517893D01*
X430865Y517883D01*
X430643Y517856D01*
X430403Y517809D01*
X430163Y517754D01*
X429922Y517680D01*
X429913D01*
X429894Y517671D01*
X429867Y517652D01*
X429821Y517634D01*
X429710Y517578D01*
X429580Y517495D01*
X429432Y517393D01*
X429275Y517264D01*
X429136Y517116D01*
X429007Y516940D01*
Y516931D01*
X428998Y516912D01*
X428979Y516885D01*
X428961Y516848D01*
X428942Y516802D01*
X428914Y516746D01*
X428859Y516617D01*
X428803Y516450D01*
X428757Y516265D01*
X428720Y516062D01*
X428711Y515849D01*
Y515785D01*
X428720Y515729D01*
Y515664D01*
X428730Y515600D01*
X428767Y515433D01*
X428813Y515239D01*
X428887Y515045D01*
X428988Y514841D01*
X429044Y514740D01*
X429118Y514647D01*
X429127Y514638D01*
X429136Y514629D01*
X429164Y514601D01*
X429192Y514564D01*
X429238Y514527D01*
X429294Y514481D01*
X429349Y514426D01*
X429423Y514379D01*
X429506Y514324D01*
X429599Y514259D01*
X429691Y514204D01*
X429802Y514148D01*
X429922Y514102D01*
X430052Y514056D01*
X430190Y514009D01*
X430338Y513972D01*
X430126Y513122D01*
X430116D01*
X430079Y513131D01*
X430024Y513150D01*
X429950Y513177D01*
X429867Y513205D01*
X429765Y513242D01*
X429654Y513288D01*
X429534Y513344D01*
X429275Y513473D01*
X429016Y513640D01*
X428887Y513741D01*
X428757Y513843D01*
X428646Y513954D01*
X428535Y514083D01*
X428526Y514093D01*
X428508Y514111D01*
X428489Y514157D01*
X428452Y514204D01*
X428406Y514277D01*
X428360Y514352D01*
X428313Y514453D01*
X428267Y514555D01*
X428212Y514675D01*
X428166Y514804D01*
X428119Y514943D01*
X428073Y515091D01*
X428036Y515248D01*
X428018Y515415D01*
X427999Y515590D01*
X427990Y515775D01*
Y515877D01*
X427999Y515951D01*
Y516034D01*
X428008Y516136D01*
X428027Y516247D01*
X428045Y516376D01*
X428092Y516644D01*
X428166Y516922D01*
X428267Y517199D01*
X428332Y517329D01*
X428406Y517458D01*
X428415Y517467D01*
X428424Y517486D01*
X428452Y517523D01*
X428489Y517560D01*
X428526Y517615D01*
X428582Y517680D01*
X428646Y517754D01*
X428720Y517828D01*
X428803Y517902D01*
X428887Y517985D01*
X429099Y518151D01*
X429349Y518309D01*
X429626Y518447D01*
X429636D01*
X429663Y518466D01*
X429710Y518475D01*
X429765Y518503D01*
X429839Y518521D01*
X429931Y518549D01*
X430033Y518586D01*
X430144Y518614D01*
X430264Y518642D01*
X430403Y518678D01*
X430690Y518725D01*
X431013Y518762D01*
X431346Y518780D01*
X431355D01*
X431392D01*
X431448D01*
X431512Y518771D01*
D02*
G37*
G36*
X428276Y512502D02*
X428360Y512493D01*
X428452Y512475D01*
X428545Y512456D01*
X428646Y512419D01*
X428656D01*
X428665Y512410D01*
X428720Y512391D01*
X428803Y512354D01*
X428914Y512299D01*
X429044Y512225D01*
X429192Y512133D01*
X429340Y512031D01*
X429497Y511901D01*
X429506D01*
X429515Y511883D01*
X429571Y511837D01*
X429654Y511754D01*
X429774Y511633D01*
X429913Y511495D01*
X430079Y511319D01*
X430264Y511106D01*
X430458Y510875D01*
X430468Y510866D01*
X430495Y510829D01*
X430542Y510774D01*
X430597Y510709D01*
X430671Y510625D01*
X430754Y510524D01*
X430847Y510422D01*
X430948Y510302D01*
X431170Y510071D01*
X431392Y509840D01*
X431503Y509729D01*
X431614Y509627D01*
X431716Y509534D01*
X431818Y509461D01*
X431827D01*
X431836Y509442D01*
X431864Y509424D01*
X431901Y509405D01*
X432002Y509340D01*
X432123Y509266D01*
X432271Y509202D01*
X432428Y509137D01*
X432603Y509100D01*
X432770Y509081D01*
X432779D01*
X432788D01*
X432844Y509091D01*
X432936Y509100D01*
X433038Y509128D01*
X433167Y509165D01*
X433297Y509229D01*
X433426Y509313D01*
X433556Y509424D01*
X433574Y509442D01*
X433611Y509488D01*
X433657Y509553D01*
X433722Y509655D01*
X433778Y509784D01*
X433833Y509932D01*
X433870Y510108D01*
X433879Y510302D01*
Y510357D01*
X433870Y510394D01*
X433861Y510505D01*
X433833Y510635D01*
X433796Y510774D01*
X433731Y510931D01*
X433648Y511079D01*
X433537Y511217D01*
X433519Y511236D01*
X433473Y511273D01*
X433399Y511328D01*
X433288Y511384D01*
X433158Y511448D01*
X432992Y511504D01*
X432807Y511541D01*
X432594Y511559D01*
X432677Y512364D01*
X432687D01*
X432714Y512354D01*
X432761D01*
X432825Y512345D01*
X432899Y512327D01*
X432982Y512308D01*
X433084Y512281D01*
X433186Y512253D01*
X433408Y512179D01*
X433630Y512068D01*
X433741Y512003D01*
X433852Y511920D01*
X433953Y511837D01*
X434046Y511744D01*
X434055Y511735D01*
X434064Y511716D01*
X434092Y511689D01*
X434120Y511642D01*
X434157Y511587D01*
X434194Y511522D01*
X434240Y511448D01*
X434286Y511356D01*
X434332Y511254D01*
X434379Y511143D01*
X434416Y511023D01*
X434453Y510894D01*
X434480Y510755D01*
X434508Y510607D01*
X434517Y510450D01*
X434526Y510283D01*
Y510191D01*
X434517Y510126D01*
X434508Y510052D01*
X434499Y509960D01*
X434480Y509858D01*
X434462Y509756D01*
X434397Y509516D01*
X434305Y509276D01*
X434249Y509156D01*
X434184Y509035D01*
X434101Y508924D01*
X434009Y508823D01*
X433999Y508813D01*
X433990Y508795D01*
X433953Y508776D01*
X433916Y508739D01*
X433870Y508693D01*
X433805Y508647D01*
X433741Y508601D01*
X433657Y508545D01*
X433482Y508453D01*
X433260Y508360D01*
X433149Y508323D01*
X433019Y508305D01*
X432890Y508286D01*
X432751Y508277D01*
X432733D01*
X432687D01*
X432613Y508286D01*
X432511Y508296D01*
X432400Y508314D01*
X432271Y508351D01*
X432132Y508388D01*
X431993Y508444D01*
X431975Y508453D01*
X431928Y508471D01*
X431855Y508508D01*
X431753Y508564D01*
X431642Y508638D01*
X431503Y508730D01*
X431365Y508841D01*
X431207Y508971D01*
X431189Y508989D01*
X431133Y509035D01*
X431087Y509081D01*
X431041Y509128D01*
X430985Y509183D01*
X430911Y509257D01*
X430838Y509331D01*
X430754Y509424D01*
X430662Y509516D01*
X430560Y509627D01*
X430458Y509747D01*
X430338Y509877D01*
X430218Y510025D01*
X430089Y510173D01*
X430079Y510182D01*
X430061Y510200D01*
X430033Y510237D01*
X429996Y510283D01*
X429941Y510339D01*
X429885Y510404D01*
X429765Y510552D01*
X429626Y510709D01*
X429488Y510857D01*
X429367Y510986D01*
X429321Y511042D01*
X429275Y511088D01*
X429266Y511097D01*
X429238Y511125D01*
X429201Y511162D01*
X429146Y511208D01*
X429081Y511254D01*
X429016Y511310D01*
X428859Y511421D01*
Y508268D01*
X428101D01*
Y512512D01*
X428110D01*
X428147D01*
X428203D01*
X428276Y512502D01*
D02*
G37*
G36*
X473728Y461903D02*
X473848D01*
X473987Y461893D01*
X474126Y461875D01*
X474440Y461847D01*
X474773Y461801D01*
X475087Y461736D01*
X475244Y461690D01*
X475383Y461644D01*
X475392D01*
X475411Y461634D01*
X475448Y461616D01*
X475503Y461597D01*
X475559Y461570D01*
X475633Y461533D01*
X475790Y461440D01*
X475966Y461329D01*
X476151Y461200D01*
X476326Y461033D01*
X476483Y460849D01*
Y460839D01*
X476502Y460821D01*
X476520Y460793D01*
X476539Y460756D01*
X476567Y460701D01*
X476604Y460645D01*
X476641Y460571D01*
X476668Y460497D01*
X476742Y460322D01*
X476807Y460109D01*
X476844Y459878D01*
X476862Y459619D01*
Y459545D01*
X476853Y459499D01*
Y459434D01*
X476844Y459360D01*
X476807Y459184D01*
X476761Y458990D01*
X476687Y458787D01*
X476585Y458583D01*
X476520Y458482D01*
X476446Y458389D01*
X476437Y458380D01*
X476428Y458371D01*
X476400Y458343D01*
X476372Y458315D01*
X476326Y458278D01*
X476271Y458232D01*
X476141Y458140D01*
X475975Y458047D01*
X475771Y457955D01*
X475540Y457881D01*
X475272Y457825D01*
X475207Y458583D01*
X475217D01*
X475235Y458593D01*
X475254D01*
X475291Y458602D01*
X475392Y458630D01*
X475503Y458667D01*
X475633Y458713D01*
X475762Y458778D01*
X475882Y458852D01*
X475984Y458944D01*
X475993Y458953D01*
X476021Y458990D01*
X476058Y459055D01*
X476095Y459129D01*
X476141Y459231D01*
X476178Y459351D01*
X476206Y459489D01*
X476215Y459637D01*
Y459702D01*
X476206Y459767D01*
X476197Y459850D01*
X476178Y459952D01*
X476151Y460053D01*
X476114Y460164D01*
X476058Y460266D01*
X476049Y460275D01*
X476030Y460312D01*
X475993Y460368D01*
X475938Y460423D01*
X475873Y460497D01*
X475799Y460571D01*
X475716Y460645D01*
X475614Y460719D01*
X475605Y460728D01*
X475559Y460747D01*
X475494Y460784D01*
X475411Y460821D01*
X475300Y460867D01*
X475171Y460913D01*
X475023Y460960D01*
X474856Y461006D01*
X474847D01*
X474838Y461015D01*
X474810D01*
X474773Y461024D01*
X474680Y461043D01*
X474560Y461070D01*
X474412Y461089D01*
X474255Y461107D01*
X474080Y461117D01*
X473895Y461126D01*
X473885D01*
X473858D01*
X473811D01*
X473737D01*
X473756Y461117D01*
X473802Y461080D01*
X473867Y461024D01*
X473959Y460960D01*
X474052Y460867D01*
X474154Y460756D01*
X474255Y460627D01*
X474348Y460479D01*
X474357Y460460D01*
X474385Y460405D01*
X474422Y460322D01*
X474459Y460220D01*
X474505Y460081D01*
X474542Y459933D01*
X474570Y459767D01*
X474579Y459591D01*
Y459517D01*
X474570Y459462D01*
X474560Y459388D01*
X474551Y459314D01*
X474533Y459221D01*
X474505Y459129D01*
X474440Y458916D01*
X474394Y458805D01*
X474338Y458694D01*
X474274Y458574D01*
X474190Y458463D01*
X474107Y458352D01*
X474006Y458251D01*
X473996Y458241D01*
X473978Y458223D01*
X473950Y458204D01*
X473904Y458167D01*
X473839Y458121D01*
X473774Y458075D01*
X473691Y458029D01*
X473599Y457982D01*
X473497Y457927D01*
X473386Y457881D01*
X473257Y457835D01*
X473127Y457788D01*
X472979Y457751D01*
X472822Y457733D01*
X472665Y457714D01*
X472489Y457705D01*
X472480D01*
X472443D01*
X472397D01*
X472332Y457714D01*
X472249Y457724D01*
X472147Y457733D01*
X472046Y457751D01*
X471925Y457779D01*
X471685Y457844D01*
X471555Y457890D01*
X471417Y457945D01*
X471287Y458010D01*
X471167Y458093D01*
X471038Y458177D01*
X470927Y458278D01*
X470918Y458288D01*
X470899Y458306D01*
X470871Y458334D01*
X470834Y458380D01*
X470788Y458435D01*
X470733Y458509D01*
X470686Y458583D01*
X470622Y458676D01*
X470566Y458768D01*
X470520Y458879D01*
X470418Y459129D01*
X470381Y459258D01*
X470354Y459406D01*
X470335Y459554D01*
X470326Y459711D01*
Y459776D01*
X470335Y459822D01*
Y459869D01*
X470344Y459933D01*
X470372Y460090D01*
X470409Y460266D01*
X470474Y460460D01*
X470557Y460654D01*
X470668Y460849D01*
Y460858D01*
X470686Y460867D01*
X470705Y460895D01*
X470733Y460932D01*
X470807Y461024D01*
X470908Y461144D01*
X471047Y461265D01*
X471213Y461403D01*
X471408Y461524D01*
X471629Y461634D01*
X471639D01*
X471657Y461644D01*
X471694Y461662D01*
X471740Y461681D01*
X471805Y461699D01*
X471888Y461727D01*
X471981Y461745D01*
X472082Y461773D01*
X472203Y461801D01*
X472341Y461829D01*
X472489Y461847D01*
X472646Y461866D01*
X472822Y461884D01*
X473007Y461903D01*
X473210Y461912D01*
X473423D01*
X473432D01*
X473479D01*
X473543D01*
X473627D01*
X473728Y461903D01*
D02*
G37*
G36*
X474773Y456975D02*
X474828Y456956D01*
X474902Y456928D01*
X474986Y456901D01*
X475087Y456864D01*
X475198Y456818D01*
X475318Y456762D01*
X475577Y456632D01*
X475836Y456466D01*
X475966Y456364D01*
X476095Y456263D01*
X476206Y456152D01*
X476317Y456022D01*
X476326Y456013D01*
X476345Y455995D01*
X476363Y455948D01*
X476400Y455902D01*
X476446Y455828D01*
X476493Y455754D01*
X476539Y455653D01*
X476585Y455551D01*
X476641Y455431D01*
X476687Y455301D01*
X476733Y455163D01*
X476779Y455015D01*
X476816Y454857D01*
X476835Y454691D01*
X476853Y454515D01*
X476862Y454330D01*
Y454229D01*
X476853Y454155D01*
Y454072D01*
X476844Y453970D01*
X476825Y453859D01*
X476807Y453729D01*
X476761Y453461D01*
X476687Y453184D01*
X476585Y452907D01*
X476520Y452777D01*
X476446Y452648D01*
X476437Y452638D01*
X476428Y452620D01*
X476400Y452583D01*
X476363Y452546D01*
X476326Y452491D01*
X476271Y452426D01*
X476206Y452352D01*
X476132Y452278D01*
X476049Y452204D01*
X475966Y452121D01*
X475753Y451954D01*
X475503Y451797D01*
X475226Y451658D01*
X475217D01*
X475189Y451640D01*
X475143Y451631D01*
X475087Y451603D01*
X475013Y451584D01*
X474921Y451557D01*
X474819Y451520D01*
X474708Y451492D01*
X474588Y451464D01*
X474449Y451427D01*
X474163Y451381D01*
X473839Y451344D01*
X473506Y451326D01*
X473497D01*
X473460D01*
X473405D01*
X473340Y451335D01*
X473247D01*
X473155Y451344D01*
X473035Y451353D01*
X472915Y451372D01*
X472646Y451418D01*
X472351Y451483D01*
X472055Y451575D01*
X471768Y451705D01*
X471759Y451714D01*
X471731Y451723D01*
X471694Y451742D01*
X471648Y451779D01*
X471583Y451816D01*
X471509Y451862D01*
X471343Y451982D01*
X471158Y452139D01*
X470973Y452324D01*
X470788Y452537D01*
X470631Y452786D01*
X470622Y452796D01*
X470612Y452823D01*
X470594Y452860D01*
X470566Y452907D01*
X470538Y452980D01*
X470511Y453055D01*
X470474Y453147D01*
X470437Y453249D01*
X470400Y453360D01*
X470363Y453480D01*
X470307Y453739D01*
X470261Y454035D01*
X470243Y454340D01*
Y454432D01*
X470252Y454497D01*
X470261Y454580D01*
X470270Y454682D01*
X470280Y454783D01*
X470307Y454904D01*
X470363Y455153D01*
X470446Y455431D01*
X470502Y455569D01*
X470566Y455699D01*
X470649Y455828D01*
X470733Y455958D01*
X470742Y455967D01*
X470751Y455985D01*
X470779Y456022D01*
X470825Y456069D01*
X470871Y456115D01*
X470936Y456180D01*
X471010Y456244D01*
X471084Y456318D01*
X471176Y456392D01*
X471287Y456466D01*
X471398Y456549D01*
X471519Y456623D01*
X471657Y456688D01*
X471796Y456762D01*
X471944Y456818D01*
X472110Y456873D01*
X472304Y456041D01*
X472295D01*
X472277Y456032D01*
X472240Y456013D01*
X472193Y455995D01*
X472138Y455976D01*
X472064Y455948D01*
X471916Y455874D01*
X471750Y455782D01*
X471583Y455671D01*
X471426Y455532D01*
X471287Y455384D01*
X471269Y455366D01*
X471232Y455310D01*
X471186Y455218D01*
X471121Y455098D01*
X471065Y454941D01*
X471010Y454765D01*
X470973Y454552D01*
X470964Y454321D01*
Y454247D01*
X470973Y454201D01*
Y454136D01*
X470982Y454062D01*
X471010Y453887D01*
X471047Y453692D01*
X471112Y453489D01*
X471204Y453276D01*
X471324Y453082D01*
Y453073D01*
X471343Y453064D01*
X471389Y452999D01*
X471463Y452916D01*
X471574Y452814D01*
X471713Y452694D01*
X471870Y452583D01*
X472064Y452481D01*
X472277Y452389D01*
X472286D01*
X472304Y452380D01*
X472332Y452370D01*
X472378Y452361D01*
X472434Y452343D01*
X472499Y452324D01*
X472656Y452296D01*
X472841Y452259D01*
X473044Y452222D01*
X473266Y452204D01*
X473506Y452195D01*
X473516D01*
X473543D01*
X473590D01*
X473645D01*
X473710Y452204D01*
X473793D01*
X473885Y452213D01*
X473987Y452222D01*
X474209Y452250D01*
X474449Y452296D01*
X474690Y452352D01*
X474930Y452426D01*
X474939D01*
X474958Y452435D01*
X474986Y452453D01*
X475032Y452472D01*
X475143Y452528D01*
X475272Y452611D01*
X475420Y452712D01*
X475577Y452842D01*
X475716Y452990D01*
X475845Y453165D01*
Y453175D01*
X475855Y453193D01*
X475873Y453221D01*
X475892Y453258D01*
X475910Y453304D01*
X475938Y453360D01*
X475993Y453489D01*
X476049Y453656D01*
X476095Y453840D01*
X476132Y454044D01*
X476141Y454256D01*
Y454321D01*
X476132Y454377D01*
Y454441D01*
X476123Y454506D01*
X476086Y454673D01*
X476040Y454867D01*
X475966Y455061D01*
X475864Y455264D01*
X475808Y455366D01*
X475734Y455458D01*
X475725Y455468D01*
X475716Y455477D01*
X475688Y455505D01*
X475661Y455542D01*
X475614Y455578D01*
X475559Y455625D01*
X475503Y455680D01*
X475429Y455727D01*
X475346Y455782D01*
X475254Y455847D01*
X475161Y455902D01*
X475050Y455958D01*
X474930Y456004D01*
X474801Y456050D01*
X474662Y456096D01*
X474514Y456133D01*
X474727Y456984D01*
X474736D01*
X474773Y456975D01*
D02*
G37*
G36*
X509601Y476241D02*
X509684D01*
X509786Y476232D01*
X509897Y476213D01*
X510026Y476195D01*
X510294Y476148D01*
X510572Y476074D01*
X510849Y475973D01*
X510979Y475908D01*
X511108Y475834D01*
X511117Y475825D01*
X511136Y475816D01*
X511173Y475788D01*
X511210Y475751D01*
X511265Y475714D01*
X511330Y475658D01*
X511404Y475594D01*
X511478Y475520D01*
X511552Y475437D01*
X511635Y475353D01*
X511801Y475141D01*
X511959Y474891D01*
X512097Y474614D01*
Y474604D01*
X512116Y474577D01*
X512125Y474530D01*
X512153Y474475D01*
X512171Y474401D01*
X512199Y474309D01*
X512236Y474207D01*
X512264Y474096D01*
X512291Y473976D01*
X512328Y473837D01*
X512375Y473550D01*
X512412Y473227D01*
X512430Y472894D01*
Y472885D01*
Y472848D01*
Y472792D01*
X512421Y472728D01*
Y472635D01*
X512412Y472543D01*
X512402Y472422D01*
X512384Y472302D01*
X512338Y472034D01*
X512273Y471738D01*
X512180Y471442D01*
X512051Y471156D01*
X512042Y471147D01*
X512033Y471119D01*
X512014Y471082D01*
X511977Y471036D01*
X511940Y470971D01*
X511894Y470897D01*
X511774Y470731D01*
X511617Y470546D01*
X511432Y470361D01*
X511219Y470176D01*
X510969Y470019D01*
X510960Y470009D01*
X510932Y470000D01*
X510895Y469982D01*
X510849Y469954D01*
X510775Y469926D01*
X510701Y469898D01*
X510609Y469861D01*
X510507Y469824D01*
X510396Y469787D01*
X510276Y469750D01*
X510017Y469695D01*
X509721Y469649D01*
X509416Y469630D01*
X509324D01*
X509259Y469640D01*
X509176Y469649D01*
X509074Y469658D01*
X508972Y469667D01*
X508852Y469695D01*
X508602Y469750D01*
X508325Y469834D01*
X508186Y469889D01*
X508057Y469954D01*
X507928Y470037D01*
X507798Y470120D01*
X507789Y470130D01*
X507770Y470139D01*
X507733Y470167D01*
X507687Y470213D01*
X507641Y470259D01*
X507576Y470324D01*
X507511Y470398D01*
X507438Y470472D01*
X507364Y470564D01*
X507290Y470675D01*
X507206Y470786D01*
X507132Y470906D01*
X507068Y471045D01*
X506994Y471184D01*
X506938Y471331D01*
X506883Y471498D01*
X507715Y471692D01*
Y471683D01*
X507724Y471664D01*
X507743Y471627D01*
X507761Y471581D01*
X507780Y471526D01*
X507807Y471452D01*
X507881Y471304D01*
X507974Y471137D01*
X508085Y470971D01*
X508223Y470814D01*
X508371Y470675D01*
X508390Y470657D01*
X508445Y470620D01*
X508538Y470573D01*
X508658Y470509D01*
X508815Y470453D01*
X508991Y470398D01*
X509203Y470361D01*
X509435Y470351D01*
X509509D01*
X509555Y470361D01*
X509619D01*
X509693Y470370D01*
X509869Y470398D01*
X510063Y470435D01*
X510267Y470499D01*
X510479Y470592D01*
X510673Y470712D01*
X510683D01*
X510692Y470731D01*
X510757Y470777D01*
X510840Y470851D01*
X510942Y470962D01*
X511062Y471100D01*
X511173Y471258D01*
X511274Y471452D01*
X511367Y471664D01*
Y471674D01*
X511376Y471692D01*
X511385Y471720D01*
X511395Y471766D01*
X511413Y471821D01*
X511432Y471886D01*
X511459Y472043D01*
X511496Y472228D01*
X511533Y472432D01*
X511552Y472654D01*
X511561Y472894D01*
Y472903D01*
Y472931D01*
Y472977D01*
Y473033D01*
X511552Y473097D01*
Y473181D01*
X511543Y473273D01*
X511533Y473375D01*
X511506Y473597D01*
X511459Y473837D01*
X511404Y474077D01*
X511330Y474318D01*
Y474327D01*
X511321Y474346D01*
X511302Y474373D01*
X511284Y474419D01*
X511228Y474530D01*
X511145Y474660D01*
X511043Y474808D01*
X510914Y474965D01*
X510766Y475104D01*
X510590Y475233D01*
X510581D01*
X510563Y475242D01*
X510535Y475261D01*
X510498Y475279D01*
X510452Y475298D01*
X510396Y475326D01*
X510267Y475381D01*
X510100Y475437D01*
X509915Y475483D01*
X509712Y475520D01*
X509499Y475529D01*
X509435D01*
X509379Y475520D01*
X509314D01*
X509250Y475510D01*
X509083Y475473D01*
X508889Y475427D01*
X508695Y475353D01*
X508492Y475252D01*
X508390Y475196D01*
X508297Y475122D01*
X508288Y475113D01*
X508279Y475104D01*
X508251Y475076D01*
X508214Y475048D01*
X508177Y475002D01*
X508131Y474946D01*
X508075Y474891D01*
X508029Y474817D01*
X507974Y474734D01*
X507909Y474641D01*
X507854Y474549D01*
X507798Y474438D01*
X507752Y474318D01*
X507706Y474188D01*
X507659Y474050D01*
X507622Y473902D01*
X506772Y474114D01*
Y474124D01*
X506781Y474161D01*
X506800Y474216D01*
X506827Y474290D01*
X506855Y474373D01*
X506892Y474475D01*
X506938Y474586D01*
X506994Y474706D01*
X507123Y474965D01*
X507290Y475224D01*
X507391Y475353D01*
X507493Y475483D01*
X507604Y475594D01*
X507733Y475705D01*
X507743Y475714D01*
X507761Y475732D01*
X507807Y475751D01*
X507854Y475788D01*
X507928Y475834D01*
X508002Y475880D01*
X508103Y475927D01*
X508205Y475973D01*
X508325Y476028D01*
X508455Y476074D01*
X508593Y476121D01*
X508741Y476167D01*
X508898Y476204D01*
X509065Y476222D01*
X509240Y476241D01*
X509425Y476250D01*
X509527D01*
X509601Y476241D01*
D02*
G37*
G36*
X505098Y476130D02*
Y476102D01*
Y476065D01*
X505089Y476010D01*
Y475936D01*
X505080Y475843D01*
X505071Y475742D01*
X505061Y475631D01*
X505043Y475501D01*
X505024Y475372D01*
X504997Y475215D01*
X504969Y475057D01*
X504941Y474891D01*
X504904Y474706D01*
X504812Y474327D01*
Y474318D01*
X504803Y474281D01*
X504784Y474225D01*
X504756Y474142D01*
X504729Y474050D01*
X504692Y473939D01*
X504655Y473809D01*
X504599Y473671D01*
X504544Y473513D01*
X504488Y473356D01*
X504350Y473005D01*
X504183Y472635D01*
X503998Y472265D01*
X503989Y472256D01*
X503970Y472219D01*
X503943Y472173D01*
X503906Y472099D01*
X503859Y472016D01*
X503795Y471914D01*
X503730Y471803D01*
X503656Y471683D01*
X503480Y471415D01*
X503296Y471137D01*
X503083Y470851D01*
X502861Y470583D01*
X505995D01*
Y469824D01*
X501853D01*
Y470444D01*
X501862Y470453D01*
X501881Y470472D01*
X501918Y470509D01*
X501955Y470564D01*
X502010Y470629D01*
X502084Y470703D01*
X502158Y470795D01*
X502242Y470906D01*
X502325Y471017D01*
X502426Y471147D01*
X502528Y471294D01*
X502630Y471442D01*
X502741Y471609D01*
X502852Y471785D01*
X502963Y471979D01*
X503074Y472173D01*
X503083Y472182D01*
X503101Y472219D01*
X503129Y472275D01*
X503175Y472358D01*
X503222Y472459D01*
X503277Y472570D01*
X503342Y472700D01*
X503406Y472848D01*
X503480Y473014D01*
X503564Y473181D01*
X503638Y473365D01*
X503712Y473560D01*
X503859Y473957D01*
X503998Y474383D01*
Y474392D01*
X504007Y474419D01*
X504017Y474466D01*
X504035Y474521D01*
X504054Y474595D01*
X504072Y474688D01*
X504100Y474789D01*
X504118Y474900D01*
X504146Y475030D01*
X504174Y475168D01*
X504220Y475464D01*
X504266Y475788D01*
X504294Y476139D01*
X505098D01*
Y476130D01*
D02*
G37*
G36*
X452365Y373983D02*
X452439Y373974D01*
X452523Y373965D01*
X452615Y373946D01*
X452717Y373928D01*
X452939Y373872D01*
X453170Y373780D01*
X453290Y373724D01*
X453401Y373660D01*
X453512Y373576D01*
X453623Y373493D01*
X453632Y373484D01*
X453651Y373465D01*
X453678Y373438D01*
X453706Y373401D01*
X453752Y373354D01*
X453798Y373290D01*
X453854Y373225D01*
X453909Y373142D01*
X453965Y373049D01*
X454020Y372957D01*
X454122Y372735D01*
X454205Y372476D01*
X454233Y372337D01*
X454252Y372190D01*
X453466Y372088D01*
Y372097D01*
X453456Y372116D01*
X453447Y372153D01*
X453438Y372199D01*
X453429Y372254D01*
X453410Y372319D01*
X453364Y372458D01*
X453299Y372624D01*
X453216Y372781D01*
X453124Y372929D01*
X453013Y373059D01*
X452994Y373068D01*
X452957Y373105D01*
X452883Y373151D01*
X452791Y373197D01*
X452680Y373253D01*
X452541Y373299D01*
X452384Y373336D01*
X452217Y373345D01*
X452162D01*
X452125Y373336D01*
X452023Y373327D01*
X451894Y373299D01*
X451746Y373253D01*
X451589Y373188D01*
X451432Y373096D01*
X451284Y372966D01*
X451265Y372948D01*
X451219Y372892D01*
X451163Y372809D01*
X451090Y372698D01*
X451016Y372559D01*
X450960Y372402D01*
X450914Y372217D01*
X450895Y372014D01*
Y372005D01*
Y371986D01*
Y371958D01*
X450905Y371921D01*
X450914Y371820D01*
X450942Y371699D01*
X450979Y371552D01*
X451043Y371404D01*
X451136Y371256D01*
X451256Y371117D01*
X451274Y371099D01*
X451321Y371062D01*
X451395Y371006D01*
X451496Y370941D01*
X451626Y370877D01*
X451783Y370821D01*
X451959Y370784D01*
X452153Y370766D01*
X452236D01*
X452301Y370775D01*
X452384Y370784D01*
X452476Y370803D01*
X452587Y370821D01*
X452707Y370849D01*
X452615Y370155D01*
X452569D01*
X452532Y370165D01*
X452412D01*
X452310Y370146D01*
X452190Y370128D01*
X452051Y370100D01*
X451894Y370054D01*
X451746Y369989D01*
X451589Y369906D01*
X451580D01*
X451570Y369897D01*
X451524Y369860D01*
X451459Y369795D01*
X451385Y369712D01*
X451311Y369591D01*
X451247Y369453D01*
X451200Y369296D01*
X451182Y369203D01*
Y369101D01*
Y369092D01*
Y369083D01*
Y369028D01*
X451200Y368954D01*
X451219Y368852D01*
X451256Y368741D01*
X451302Y368621D01*
X451376Y368501D01*
X451478Y368390D01*
X451487Y368380D01*
X451533Y368343D01*
X451598Y368297D01*
X451681Y368242D01*
X451792Y368195D01*
X451922Y368149D01*
X452070Y368112D01*
X452236Y368103D01*
X452310D01*
X452393Y368121D01*
X452504Y368140D01*
X452624Y368177D01*
X452744Y368223D01*
X452874Y368297D01*
X452994Y368390D01*
X453003Y368399D01*
X453040Y368445D01*
X453096Y368510D01*
X453161Y368602D01*
X453225Y368722D01*
X453290Y368870D01*
X453345Y369046D01*
X453382Y369249D01*
X454168Y369111D01*
Y369101D01*
X454159Y369074D01*
X454150Y369037D01*
X454141Y368981D01*
X454122Y368917D01*
X454094Y368843D01*
X454039Y368667D01*
X453946Y368464D01*
X453835Y368260D01*
X453697Y368066D01*
X453521Y367890D01*
X453512Y367881D01*
X453493Y367872D01*
X453466Y367853D01*
X453429Y367826D01*
X453382Y367789D01*
X453318Y367752D01*
X453253Y367715D01*
X453170Y367668D01*
X452985Y367594D01*
X452772Y367520D01*
X452523Y367474D01*
X452393Y367456D01*
X452162D01*
X452060Y367465D01*
X451940Y367483D01*
X451792Y367511D01*
X451626Y367557D01*
X451459Y367613D01*
X451293Y367687D01*
X451284D01*
X451274Y367696D01*
X451219Y367724D01*
X451136Y367779D01*
X451043Y367844D01*
X450932Y367937D01*
X450821Y368038D01*
X450710Y368158D01*
X450618Y368297D01*
X450609Y368316D01*
X450581Y368362D01*
X450544Y368445D01*
X450498Y368547D01*
X450452Y368667D01*
X450415Y368806D01*
X450387Y368963D01*
X450378Y369120D01*
Y369138D01*
Y369194D01*
X450387Y369268D01*
X450405Y369370D01*
X450433Y369490D01*
X450479Y369619D01*
X450535Y369749D01*
X450609Y369878D01*
X450618Y369897D01*
X450646Y369934D01*
X450701Y369998D01*
X450775Y370072D01*
X450868Y370155D01*
X450979Y370248D01*
X451108Y370331D01*
X451265Y370414D01*
X451256D01*
X451237Y370424D01*
X451210Y370433D01*
X451173Y370442D01*
X451071Y370479D01*
X450942Y370535D01*
X450794Y370609D01*
X450646Y370701D01*
X450507Y370821D01*
X450378Y370960D01*
X450368Y370978D01*
X450331Y371034D01*
X450276Y371126D01*
X450220Y371246D01*
X450165Y371394D01*
X450109Y371570D01*
X450073Y371773D01*
X450063Y371995D01*
Y372005D01*
Y372032D01*
Y372079D01*
X450073Y372134D01*
X450082Y372208D01*
X450100Y372291D01*
X450119Y372384D01*
X450137Y372485D01*
X450211Y372707D01*
X450267Y372827D01*
X450322Y372938D01*
X450396Y373059D01*
X450479Y373179D01*
X450572Y373299D01*
X450683Y373410D01*
X450692Y373419D01*
X450710Y373438D01*
X450747Y373465D01*
X450794Y373502D01*
X450849Y373549D01*
X450923Y373595D01*
X451006Y373650D01*
X451108Y373697D01*
X451210Y373752D01*
X451330Y373807D01*
X451450Y373854D01*
X451589Y373900D01*
X451737Y373937D01*
X451894Y373965D01*
X452051Y373983D01*
X452227Y373992D01*
X452310D01*
X452365Y373983D01*
D02*
G37*
G36*
X462785D02*
X462868D01*
X462970Y373974D01*
X463081Y373955D01*
X463210Y373937D01*
X463479Y373891D01*
X463756Y373817D01*
X464033Y373715D01*
X464163Y373650D01*
X464292Y373576D01*
X464301Y373567D01*
X464320Y373558D01*
X464357Y373530D01*
X464394Y373493D01*
X464449Y373456D01*
X464514Y373401D01*
X464588Y373336D01*
X464662Y373262D01*
X464736Y373179D01*
X464819Y373096D01*
X464986Y372883D01*
X465143Y372633D01*
X465281Y372356D01*
Y372347D01*
X465300Y372319D01*
X465309Y372273D01*
X465337Y372217D01*
X465355Y372143D01*
X465383Y372051D01*
X465420Y371949D01*
X465448Y371838D01*
X465476Y371718D01*
X465513Y371579D01*
X465559Y371293D01*
X465596Y370969D01*
X465614Y370636D01*
Y370627D01*
Y370590D01*
Y370535D01*
X465605Y370470D01*
Y370377D01*
X465596Y370285D01*
X465587Y370165D01*
X465568Y370045D01*
X465522Y369776D01*
X465457Y369481D01*
X465365Y369185D01*
X465235Y368898D01*
X465226Y368889D01*
X465217Y368861D01*
X465198Y368824D01*
X465161Y368778D01*
X465124Y368713D01*
X465078Y368639D01*
X464958Y368473D01*
X464801Y368288D01*
X464616Y368103D01*
X464403Y367918D01*
X464154Y367761D01*
X464144Y367752D01*
X464117Y367742D01*
X464080Y367724D01*
X464033Y367696D01*
X463959Y367668D01*
X463885Y367641D01*
X463793Y367604D01*
X463691Y367567D01*
X463580Y367530D01*
X463460Y367493D01*
X463201Y367437D01*
X462905Y367391D01*
X462600Y367373D01*
X462508D01*
X462443Y367382D01*
X462360Y367391D01*
X462258Y367400D01*
X462156Y367410D01*
X462036Y367437D01*
X461787Y367493D01*
X461509Y367576D01*
X461371Y367631D01*
X461241Y367696D01*
X461112Y367779D01*
X460982Y367863D01*
X460973Y367872D01*
X460955Y367881D01*
X460918Y367909D01*
X460871Y367955D01*
X460825Y368001D01*
X460760Y368066D01*
X460696Y368140D01*
X460622Y368214D01*
X460548Y368306D01*
X460474Y368417D01*
X460391Y368528D01*
X460317Y368648D01*
X460252Y368787D01*
X460178Y368926D01*
X460122Y369074D01*
X460067Y369240D01*
X460899Y369434D01*
Y369425D01*
X460908Y369407D01*
X460927Y369370D01*
X460945Y369323D01*
X460964Y369268D01*
X460992Y369194D01*
X461065Y369046D01*
X461158Y368880D01*
X461269Y368713D01*
X461408Y368556D01*
X461555Y368417D01*
X461574Y368399D01*
X461629Y368362D01*
X461722Y368316D01*
X461842Y368251D01*
X461999Y368195D01*
X462175Y368140D01*
X462388Y368103D01*
X462619Y368094D01*
X462693D01*
X462739Y368103D01*
X462804D01*
X462878Y368112D01*
X463053Y368140D01*
X463247Y368177D01*
X463451Y368242D01*
X463663Y368334D01*
X463858Y368454D01*
X463867D01*
X463876Y368473D01*
X463941Y368519D01*
X464024Y368593D01*
X464126Y368704D01*
X464246Y368843D01*
X464357Y369000D01*
X464459Y369194D01*
X464551Y369407D01*
Y369416D01*
X464560Y369434D01*
X464570Y369462D01*
X464579Y369508D01*
X464597Y369564D01*
X464616Y369628D01*
X464644Y369786D01*
X464680Y369971D01*
X464717Y370174D01*
X464736Y370396D01*
X464745Y370636D01*
Y370645D01*
Y370673D01*
Y370719D01*
Y370775D01*
X464736Y370840D01*
Y370923D01*
X464727Y371015D01*
X464717Y371117D01*
X464690Y371339D01*
X464644Y371579D01*
X464588Y371820D01*
X464514Y372060D01*
Y372069D01*
X464505Y372088D01*
X464486Y372116D01*
X464468Y372162D01*
X464412Y372273D01*
X464329Y372402D01*
X464227Y372550D01*
X464098Y372707D01*
X463950Y372846D01*
X463774Y372975D01*
X463765D01*
X463747Y372985D01*
X463719Y373003D01*
X463682Y373022D01*
X463636Y373040D01*
X463580Y373068D01*
X463451Y373123D01*
X463284Y373179D01*
X463100Y373225D01*
X462896Y373262D01*
X462683Y373271D01*
X462619D01*
X462563Y373262D01*
X462499D01*
X462434Y373253D01*
X462267Y373216D01*
X462073Y373170D01*
X461879Y373096D01*
X461676Y372994D01*
X461574Y372938D01*
X461482Y372864D01*
X461472Y372855D01*
X461463Y372846D01*
X461435Y372818D01*
X461398Y372790D01*
X461361Y372744D01*
X461315Y372689D01*
X461260Y372633D01*
X461213Y372559D01*
X461158Y372476D01*
X461093Y372384D01*
X461038Y372291D01*
X460982Y372180D01*
X460936Y372060D01*
X460890Y371931D01*
X460844Y371792D01*
X460807Y371644D01*
X459956Y371857D01*
Y371866D01*
X459965Y371903D01*
X459984Y371958D01*
X460011Y372032D01*
X460039Y372116D01*
X460076Y372217D01*
X460122Y372328D01*
X460178Y372448D01*
X460307Y372707D01*
X460474Y372966D01*
X460575Y373096D01*
X460677Y373225D01*
X460788Y373336D01*
X460918Y373447D01*
X460927Y373456D01*
X460945Y373475D01*
X460992Y373493D01*
X461038Y373530D01*
X461112Y373576D01*
X461186Y373623D01*
X461287Y373669D01*
X461389Y373715D01*
X461509Y373771D01*
X461639Y373817D01*
X461777Y373863D01*
X461925Y373909D01*
X462082Y373946D01*
X462249Y373965D01*
X462425Y373983D01*
X462609Y373992D01*
X462711D01*
X462785Y373983D01*
D02*
G37*
G36*
X457062Y368880D02*
X457071Y368889D01*
X457118Y368926D01*
X457173Y368981D01*
X457266Y369046D01*
X457367Y369129D01*
X457497Y369222D01*
X457645Y369323D01*
X457811Y369425D01*
X457820D01*
X457830Y369434D01*
X457885Y369471D01*
X457977Y369518D01*
X458088Y369573D01*
X458218Y369638D01*
X458357Y369702D01*
X458495Y369767D01*
X458634Y369823D01*
Y369064D01*
X458625D01*
X458606Y369046D01*
X458569Y369037D01*
X458523Y369009D01*
X458467Y368981D01*
X458403Y368944D01*
X458246Y368852D01*
X458061Y368750D01*
X457876Y368621D01*
X457682Y368473D01*
X457487Y368316D01*
X457478Y368306D01*
X457469Y368297D01*
X457441Y368269D01*
X457404Y368242D01*
X457321Y368149D01*
X457210Y368038D01*
X457099Y367909D01*
X456979Y367761D01*
X456877Y367613D01*
X456785Y367456D01*
X456276D01*
Y373881D01*
X457062D01*
Y368880D01*
D02*
G37*
G36*
X444980Y271089D02*
X441282D01*
X441273D01*
X441245D01*
X441199D01*
X441143D01*
X441079Y271079D01*
X440995D01*
X440820Y271070D01*
X440616Y271052D01*
X440413Y271024D01*
X440219Y270987D01*
X440136Y270968D01*
X440052Y270941D01*
X440034Y270931D01*
X439988Y270913D01*
X439923Y270867D01*
X439831Y270811D01*
X439738Y270746D01*
X439636Y270654D01*
X439535Y270543D01*
X439451Y270414D01*
X439442Y270395D01*
X439414Y270349D01*
X439387Y270266D01*
X439350Y270155D01*
X439304Y270025D01*
X439276Y269859D01*
X439248Y269683D01*
X439239Y269489D01*
Y269396D01*
X439248Y269341D01*
Y269258D01*
X439257Y269175D01*
X439294Y268971D01*
X439341Y268749D01*
X439414Y268537D01*
X439516Y268333D01*
X439581Y268241D01*
X439655Y268158D01*
X439664Y268148D01*
X439673Y268139D01*
X439701Y268121D01*
X439738Y268093D01*
X439794Y268065D01*
X439849Y268028D01*
X439932Y267991D01*
X440015Y267954D01*
X440117Y267917D01*
X440237Y267889D01*
X440376Y267852D01*
X440524Y267825D01*
X440690Y267797D01*
X440866Y267779D01*
X441069Y267760D01*
X441282D01*
X444980D01*
Y266910D01*
X441282D01*
X441273D01*
X441236D01*
X441190D01*
X441125D01*
X441042Y266919D01*
X440949D01*
X440838Y266928D01*
X440727Y266937D01*
X440478Y266965D01*
X440219Y267002D01*
X439969Y267057D01*
X439849Y267094D01*
X439738Y267131D01*
X439729D01*
X439710Y267141D01*
X439683Y267159D01*
X439646Y267178D01*
X439544Y267233D01*
X439414Y267316D01*
X439267Y267427D01*
X439119Y267557D01*
X438961Y267723D01*
X438823Y267927D01*
Y267936D01*
X438804Y267954D01*
X438795Y267982D01*
X438767Y268028D01*
X438740Y268084D01*
X438712Y268158D01*
X438684Y268232D01*
X438647Y268324D01*
X438610Y268426D01*
X438582Y268537D01*
X438555Y268657D01*
X438527Y268796D01*
X438508Y268934D01*
X438490Y269082D01*
X438471Y269415D01*
Y269498D01*
X438481Y269563D01*
Y269637D01*
X438490Y269729D01*
X438499Y269831D01*
X438508Y269933D01*
X438545Y270164D01*
X438601Y270414D01*
X438675Y270654D01*
X438777Y270885D01*
Y270894D01*
X438795Y270913D01*
X438814Y270941D01*
X438832Y270977D01*
X438906Y271079D01*
X439008Y271199D01*
X439137Y271338D01*
X439285Y271468D01*
X439470Y271597D01*
X439673Y271699D01*
X439683D01*
X439701Y271708D01*
X439738Y271717D01*
X439784Y271736D01*
X439840Y271754D01*
X439914Y271773D01*
X439997Y271800D01*
X440099Y271819D01*
X440210Y271837D01*
X440330Y271865D01*
X440459Y271884D01*
X440598Y271902D01*
X440755Y271921D01*
X440922Y271930D01*
X441097Y271939D01*
X441282D01*
X444980D01*
Y271089D01*
D02*
G37*
G36*
X440321Y264996D02*
X440311D01*
X440293D01*
X440265Y264986D01*
X440219Y264977D01*
X440117Y264949D01*
X439978Y264912D01*
X439840Y264857D01*
X439683Y264783D01*
X439544Y264690D01*
X439414Y264580D01*
X439405Y264561D01*
X439368Y264524D01*
X439322Y264450D01*
X439267Y264348D01*
X439211Y264237D01*
X439165Y264099D01*
X439128Y263942D01*
X439119Y263766D01*
Y263710D01*
X439128Y263673D01*
X439137Y263563D01*
X439174Y263433D01*
X439220Y263276D01*
X439294Y263119D01*
X439405Y262952D01*
X439470Y262878D01*
X439544Y262804D01*
X439553Y262795D01*
X439562Y262786D01*
X439590Y262767D01*
X439618Y262740D01*
X439720Y262675D01*
X439849Y262601D01*
X440006Y262536D01*
X440200Y262472D01*
X440432Y262425D01*
X440552Y262407D01*
X440681D01*
X440690D01*
X440709D01*
X440746D01*
X440792Y262416D01*
X440848D01*
X440912Y262425D01*
X441060Y262453D01*
X441236Y262499D01*
X441412Y262564D01*
X441578Y262656D01*
X441735Y262786D01*
X441744D01*
X441754Y262804D01*
X441800Y262851D01*
X441865Y262934D01*
X441939Y263045D01*
X442003Y263193D01*
X442068Y263359D01*
X442114Y263553D01*
X442133Y263664D01*
Y263840D01*
X442123Y263914D01*
X442114Y264006D01*
X442086Y264117D01*
X442059Y264228D01*
X442013Y264348D01*
X441957Y264469D01*
X441948Y264478D01*
X441929Y264515D01*
X441883Y264570D01*
X441837Y264644D01*
X441772Y264718D01*
X441689Y264792D01*
X441606Y264875D01*
X441504Y264940D01*
X441606Y265680D01*
X444897Y265060D01*
Y261880D01*
X444148D01*
Y264441D01*
X442419Y264783D01*
X442429Y264774D01*
X442438Y264755D01*
X442456Y264727D01*
X442484Y264681D01*
X442512Y264626D01*
X442549Y264561D01*
X442623Y264413D01*
X442697Y264228D01*
X442761Y264025D01*
X442808Y263803D01*
X442826Y263692D01*
Y263489D01*
X442817Y263433D01*
X442808Y263359D01*
X442798Y263276D01*
X442780Y263183D01*
X442752Y263082D01*
X442687Y262860D01*
X442641Y262740D01*
X442576Y262619D01*
X442512Y262499D01*
X442438Y262379D01*
X442345Y262268D01*
X442244Y262157D01*
X442234Y262148D01*
X442216Y262129D01*
X442188Y262102D01*
X442142Y262065D01*
X442077Y262019D01*
X442013Y261972D01*
X441929Y261917D01*
X441837Y261861D01*
X441735Y261815D01*
X441624Y261760D01*
X441495Y261713D01*
X441365Y261667D01*
X441227Y261630D01*
X441069Y261602D01*
X440912Y261584D01*
X440746Y261575D01*
X440737D01*
X440709D01*
X440663D01*
X440598Y261584D01*
X440524Y261593D01*
X440441Y261602D01*
X440339Y261621D01*
X440237Y261639D01*
X439997Y261695D01*
X439747Y261787D01*
X439618Y261843D01*
X439498Y261917D01*
X439368Y261991D01*
X439248Y262083D01*
X439239Y262092D01*
X439211Y262111D01*
X439174Y262148D01*
X439128Y262194D01*
X439072Y262259D01*
X438998Y262333D01*
X438934Y262425D01*
X438860Y262527D01*
X438786Y262638D01*
X438721Y262767D01*
X438656Y262906D01*
X438592Y263054D01*
X438545Y263211D01*
X438508Y263387D01*
X438481Y263572D01*
X438471Y263766D01*
Y263849D01*
X438481Y263914D01*
X438490Y263988D01*
X438499Y264071D01*
X438508Y264173D01*
X438536Y264275D01*
X438592Y264506D01*
X438675Y264737D01*
X438730Y264857D01*
X438795Y264977D01*
X438869Y265088D01*
X438952Y265199D01*
X438961Y265208D01*
X438971Y265227D01*
X439008Y265245D01*
X439045Y265282D01*
X439091Y265329D01*
X439146Y265375D01*
X439220Y265430D01*
X439304Y265476D01*
X439387Y265532D01*
X439488Y265587D01*
X439710Y265689D01*
X439969Y265772D01*
X440108Y265800D01*
X440256Y265819D01*
X440321Y264996D01*
D02*
G37*
G36*
X336033Y85801D02*
X336107Y85791D01*
X336190Y85782D01*
X336292Y85773D01*
X336393Y85745D01*
X336624Y85690D01*
X336856Y85606D01*
X336976Y85551D01*
X337096Y85486D01*
X337207Y85412D01*
X337318Y85329D01*
X337327Y85320D01*
X337346Y85310D01*
X337364Y85274D01*
X337401Y85237D01*
X337447Y85190D01*
X337494Y85135D01*
X337549Y85061D01*
X337595Y84978D01*
X337651Y84894D01*
X337706Y84793D01*
X337808Y84571D01*
X337891Y84312D01*
X337919Y84173D01*
X337937Y84025D01*
X337114Y83961D01*
Y83970D01*
Y83988D01*
X337105Y84016D01*
X337096Y84062D01*
X337068Y84164D01*
X337031Y84303D01*
X336976Y84441D01*
X336902Y84599D01*
X336809Y84737D01*
X336698Y84867D01*
X336680Y84876D01*
X336643Y84913D01*
X336569Y84959D01*
X336467Y85015D01*
X336356Y85070D01*
X336218Y85116D01*
X336060Y85153D01*
X335885Y85163D01*
X335829D01*
X335792Y85153D01*
X335681Y85144D01*
X335552Y85107D01*
X335395Y85061D01*
X335238Y84987D01*
X335071Y84876D01*
X334997Y84811D01*
X334923Y84737D01*
X334914Y84728D01*
X334905Y84719D01*
X334886Y84691D01*
X334859Y84663D01*
X334794Y84562D01*
X334720Y84432D01*
X334655Y84275D01*
X334590Y84081D01*
X334544Y83850D01*
X334526Y83729D01*
Y83600D01*
Y83591D01*
Y83572D01*
Y83535D01*
X334535Y83489D01*
Y83434D01*
X334544Y83369D01*
X334572Y83221D01*
X334618Y83045D01*
X334683Y82870D01*
X334775Y82703D01*
X334905Y82546D01*
Y82537D01*
X334923Y82528D01*
X334969Y82481D01*
X335053Y82417D01*
X335164Y82343D01*
X335312Y82278D01*
X335478Y82213D01*
X335672Y82167D01*
X335783Y82149D01*
X335959D01*
X336033Y82158D01*
X336125Y82167D01*
X336236Y82195D01*
X336347Y82222D01*
X336467Y82269D01*
X336587Y82324D01*
X336597Y82333D01*
X336634Y82352D01*
X336689Y82398D01*
X336763Y82444D01*
X336837Y82509D01*
X336911Y82592D01*
X336994Y82676D01*
X337059Y82777D01*
X337799Y82676D01*
X337179Y79384D01*
X333999D01*
Y80133D01*
X336560D01*
X336902Y81862D01*
X336893Y81853D01*
X336874Y81843D01*
X336846Y81825D01*
X336800Y81797D01*
X336745Y81769D01*
X336680Y81733D01*
X336532Y81658D01*
X336347Y81585D01*
X336144Y81520D01*
X335922Y81474D01*
X335811Y81455D01*
X335607D01*
X335552Y81464D01*
X335478Y81474D01*
X335395Y81483D01*
X335302Y81501D01*
X335201Y81529D01*
X334979Y81594D01*
X334859Y81640D01*
X334738Y81705D01*
X334618Y81769D01*
X334498Y81843D01*
X334387Y81936D01*
X334276Y82038D01*
X334267Y82047D01*
X334248Y82065D01*
X334221Y82093D01*
X334184Y82139D01*
X334137Y82204D01*
X334091Y82269D01*
X334036Y82352D01*
X333980Y82444D01*
X333934Y82546D01*
X333879Y82657D01*
X333832Y82786D01*
X333786Y82916D01*
X333749Y83055D01*
X333721Y83212D01*
X333703Y83369D01*
X333694Y83535D01*
Y83545D01*
Y83572D01*
Y83619D01*
X333703Y83683D01*
X333712Y83757D01*
X333721Y83840D01*
X333740Y83942D01*
X333758Y84044D01*
X333814Y84284D01*
X333906Y84534D01*
X333962Y84663D01*
X334036Y84783D01*
X334110Y84913D01*
X334202Y85033D01*
X334211Y85042D01*
X334230Y85070D01*
X334267Y85107D01*
X334313Y85153D01*
X334378Y85209D01*
X334452Y85283D01*
X334544Y85347D01*
X334646Y85421D01*
X334757Y85495D01*
X334886Y85560D01*
X335025Y85625D01*
X335173Y85690D01*
X335330Y85736D01*
X335506Y85773D01*
X335691Y85801D01*
X335885Y85810D01*
X335968D01*
X336033Y85801D01*
D02*
G37*
G36*
X338908Y86189D02*
X338945Y86170D01*
X339001Y86152D01*
X339065Y86124D01*
X339139Y86087D01*
X339222Y86050D01*
X339315Y86004D01*
X339518Y85893D01*
X339749Y85764D01*
X339999Y85597D01*
X340258Y85412D01*
X340267D01*
X340286Y85431D01*
X340332Y85449D01*
X340378Y85477D01*
X340452Y85505D01*
X340526Y85542D01*
X340619Y85569D01*
X340720Y85606D01*
X340831Y85643D01*
X340951Y85680D01*
X341219Y85745D01*
X341515Y85791D01*
X341673Y85801D01*
X341830Y85810D01*
X341913D01*
X341978Y85801D01*
X342052D01*
X342144Y85791D01*
X342246Y85773D01*
X342357Y85754D01*
X342597Y85708D01*
X342865Y85634D01*
X343143Y85532D01*
X343272Y85468D01*
X343411Y85394D01*
X343420Y85385D01*
X343438Y85375D01*
X343475Y85347D01*
X343522Y85320D01*
X343586Y85274D01*
X343651Y85218D01*
X343808Y85089D01*
X343984Y84922D01*
X344160Y84719D01*
X344335Y84488D01*
X344492Y84220D01*
Y84210D01*
X344511Y84183D01*
X344529Y84146D01*
X344548Y84090D01*
X344576Y84016D01*
X344613Y83933D01*
X344650Y83831D01*
X344677Y83720D01*
X344714Y83600D01*
X344751Y83471D01*
X344779Y83332D01*
X344816Y83175D01*
X344853Y82851D01*
X344871Y82509D01*
Y82500D01*
Y82463D01*
Y82417D01*
X344862Y82352D01*
Y82269D01*
X344853Y82167D01*
X344844Y82056D01*
X344825Y81936D01*
X344779Y81668D01*
X344714Y81381D01*
X344622Y81076D01*
X344492Y80780D01*
X344483Y80771D01*
X344474Y80743D01*
X344455Y80706D01*
X344418Y80651D01*
X344381Y80586D01*
X344335Y80512D01*
X344206Y80336D01*
X344058Y80152D01*
X343864Y79957D01*
X343651Y79763D01*
X343401Y79597D01*
X343392Y79587D01*
X343364Y79578D01*
X343327Y79560D01*
X343272Y79532D01*
X343207Y79504D01*
X343133Y79467D01*
X343041Y79430D01*
X342939Y79393D01*
X342819Y79356D01*
X342699Y79319D01*
X342431Y79255D01*
X342135Y79208D01*
X341978Y79190D01*
X341728D01*
X341663Y79199D01*
X341580D01*
X341497Y79208D01*
X341386Y79227D01*
X341275Y79245D01*
X341035Y79292D01*
X340757Y79366D01*
X340489Y79476D01*
X340350Y79541D01*
X340212Y79615D01*
X340202Y79625D01*
X340184Y79634D01*
X340147Y79661D01*
X340092Y79689D01*
X340036Y79735D01*
X339962Y79791D01*
X339805Y79920D01*
X339638Y80087D01*
X339454Y80290D01*
X339278Y80531D01*
X339130Y80799D01*
Y80808D01*
X339112Y80836D01*
X339093Y80873D01*
X339075Y80928D01*
X339038Y81002D01*
X339010Y81085D01*
X338973Y81187D01*
X338936Y81298D01*
X338908Y81418D01*
X338871Y81547D01*
X338834Y81686D01*
X338806Y81834D01*
X338769Y82158D01*
X338751Y82500D01*
Y82509D01*
Y82537D01*
Y82574D01*
Y82629D01*
X338760Y82703D01*
Y82786D01*
X338769Y82879D01*
X338779Y82971D01*
X338806Y83193D01*
X338853Y83434D01*
X338908Y83683D01*
X338991Y83924D01*
Y83933D01*
X339001Y83951D01*
X339019Y83988D01*
X339038Y84025D01*
X339065Y84081D01*
X339093Y84146D01*
X339167Y84293D01*
X339269Y84469D01*
X339398Y84654D01*
X339546Y84839D01*
X339712Y85024D01*
X339703D01*
X339685Y85042D01*
X339657Y85061D01*
X339611Y85089D01*
X339565Y85126D01*
X339500Y85163D01*
X339361Y85246D01*
X339195Y85347D01*
X339010Y85449D01*
X338816Y85532D01*
X338631Y85616D01*
X338880Y86198D01*
X338890D01*
X338908Y86189D01*
D02*
G37*
G36*
X460777Y135881D02*
X460851Y135872D01*
X460934Y135862D01*
X461027Y135844D01*
X461129Y135825D01*
X461350Y135770D01*
X461582Y135677D01*
X461702Y135622D01*
X461813Y135557D01*
X461924Y135474D01*
X462035Y135391D01*
X462044Y135382D01*
X462062Y135363D01*
X462090Y135335D01*
X462118Y135298D01*
X462164Y135252D01*
X462210Y135187D01*
X462266Y135123D01*
X462321Y135040D01*
X462377Y134947D01*
X462432Y134855D01*
X462534Y134633D01*
X462617Y134374D01*
X462645Y134235D01*
X462663Y134087D01*
X461877Y133986D01*
Y133995D01*
X461868Y134013D01*
X461859Y134050D01*
X461850Y134096D01*
X461841Y134152D01*
X461822Y134217D01*
X461776Y134355D01*
X461711Y134522D01*
X461628Y134679D01*
X461535Y134827D01*
X461424Y134956D01*
X461406Y134965D01*
X461369Y135002D01*
X461295Y135049D01*
X461203Y135095D01*
X461092Y135150D01*
X460953Y135197D01*
X460796Y135234D01*
X460629Y135243D01*
X460574D01*
X460537Y135234D01*
X460435Y135224D01*
X460306Y135197D01*
X460158Y135150D01*
X460001Y135086D01*
X459843Y134993D01*
X459696Y134864D01*
X459677Y134845D01*
X459631Y134790D01*
X459575Y134707D01*
X459501Y134596D01*
X459427Y134457D01*
X459372Y134300D01*
X459326Y134115D01*
X459307Y133912D01*
Y133902D01*
Y133884D01*
Y133856D01*
X459316Y133819D01*
X459326Y133717D01*
X459353Y133597D01*
X459390Y133449D01*
X459455Y133301D01*
X459548Y133153D01*
X459668Y133015D01*
X459686Y132996D01*
X459733Y132959D01*
X459806Y132904D01*
X459908Y132839D01*
X460038Y132774D01*
X460195Y132719D01*
X460370Y132682D01*
X460565Y132663D01*
X460648D01*
X460713Y132673D01*
X460796Y132682D01*
X460888Y132700D01*
X460999Y132719D01*
X461119Y132747D01*
X461027Y132053D01*
X460981D01*
X460944Y132062D01*
X460823D01*
X460722Y132044D01*
X460602Y132025D01*
X460463Y131998D01*
X460306Y131952D01*
X460158Y131887D01*
X460001Y131804D01*
X459991D01*
X459982Y131794D01*
X459936Y131757D01*
X459871Y131693D01*
X459797Y131609D01*
X459723Y131489D01*
X459659Y131350D01*
X459612Y131193D01*
X459594Y131101D01*
Y130999D01*
Y130990D01*
Y130981D01*
Y130925D01*
X459612Y130851D01*
X459631Y130750D01*
X459668Y130639D01*
X459714Y130518D01*
X459788Y130398D01*
X459890Y130287D01*
X459899Y130278D01*
X459945Y130241D01*
X460010Y130195D01*
X460093Y130139D01*
X460204Y130093D01*
X460333Y130047D01*
X460481Y130010D01*
X460648Y130001D01*
X460722D01*
X460805Y130019D01*
X460916Y130038D01*
X461036Y130075D01*
X461156Y130121D01*
X461286Y130195D01*
X461406Y130287D01*
X461415Y130296D01*
X461452Y130343D01*
X461508Y130407D01*
X461572Y130500D01*
X461637Y130620D01*
X461702Y130768D01*
X461757Y130944D01*
X461794Y131147D01*
X462580Y131008D01*
Y130999D01*
X462571Y130971D01*
X462562Y130934D01*
X462552Y130879D01*
X462534Y130814D01*
X462506Y130740D01*
X462451Y130565D01*
X462358Y130361D01*
X462247Y130158D01*
X462109Y129964D01*
X461933Y129788D01*
X461924Y129779D01*
X461905Y129769D01*
X461877Y129751D01*
X461841Y129723D01*
X461794Y129686D01*
X461730Y129649D01*
X461665Y129612D01*
X461582Y129566D01*
X461397Y129492D01*
X461184Y129418D01*
X460934Y129372D01*
X460805Y129353D01*
X460574D01*
X460472Y129363D01*
X460352Y129381D01*
X460204Y129409D01*
X460038Y129455D01*
X459871Y129511D01*
X459705Y129585D01*
X459696D01*
X459686Y129594D01*
X459631Y129622D01*
X459548Y129677D01*
X459455Y129742D01*
X459344Y129834D01*
X459233Y129936D01*
X459122Y130056D01*
X459030Y130195D01*
X459021Y130213D01*
X458993Y130260D01*
X458956Y130343D01*
X458910Y130444D01*
X458863Y130565D01*
X458826Y130703D01*
X458799Y130861D01*
X458789Y131018D01*
Y131036D01*
Y131092D01*
X458799Y131166D01*
X458817Y131267D01*
X458845Y131388D01*
X458891Y131517D01*
X458947Y131646D01*
X459021Y131776D01*
X459030Y131794D01*
X459058Y131831D01*
X459113Y131896D01*
X459187Y131970D01*
X459279Y132053D01*
X459390Y132146D01*
X459520Y132229D01*
X459677Y132312D01*
X459668D01*
X459649Y132321D01*
X459622Y132331D01*
X459585Y132340D01*
X459483Y132377D01*
X459353Y132432D01*
X459206Y132506D01*
X459058Y132599D01*
X458919Y132719D01*
X458789Y132858D01*
X458780Y132876D01*
X458743Y132931D01*
X458688Y133024D01*
X458632Y133144D01*
X458577Y133292D01*
X458521Y133468D01*
X458484Y133671D01*
X458475Y133893D01*
Y133902D01*
Y133930D01*
Y133976D01*
X458484Y134032D01*
X458493Y134106D01*
X458512Y134189D01*
X458531Y134281D01*
X458549Y134383D01*
X458623Y134605D01*
X458679Y134725D01*
X458734Y134836D01*
X458808Y134956D01*
X458891Y135077D01*
X458984Y135197D01*
X459095Y135308D01*
X459104Y135317D01*
X459122Y135335D01*
X459159Y135363D01*
X459206Y135400D01*
X459261Y135446D01*
X459335Y135492D01*
X459418Y135548D01*
X459520Y135594D01*
X459622Y135650D01*
X459742Y135705D01*
X459862Y135751D01*
X460001Y135798D01*
X460149Y135835D01*
X460306Y135862D01*
X460463Y135881D01*
X460639Y135890D01*
X460722D01*
X460777Y135881D01*
D02*
G37*
G36*
X467360Y129381D02*
X466510D01*
Y135021D01*
X463357D01*
Y135779D01*
X467360D01*
Y129381D01*
D02*
G37*
G36*
X472789Y181854D02*
X469090D01*
X469081D01*
X469053D01*
X469007D01*
X468952D01*
X468887Y181845D01*
X468804D01*
X468628Y181836D01*
X468425Y181817D01*
X468221Y181790D01*
X468027Y181753D01*
X467944Y181734D01*
X467861Y181707D01*
X467842Y181697D01*
X467796Y181679D01*
X467731Y181632D01*
X467639Y181577D01*
X467547Y181512D01*
X467445Y181420D01*
X467343Y181309D01*
X467260Y181180D01*
X467251Y181161D01*
X467223Y181115D01*
X467195Y181032D01*
X467158Y180921D01*
X467112Y180791D01*
X467084Y180625D01*
X467057Y180449D01*
X467047Y180255D01*
Y180163D01*
X467057Y180107D01*
Y180024D01*
X467066Y179941D01*
X467103Y179737D01*
X467149Y179515D01*
X467223Y179303D01*
X467325Y179099D01*
X467389Y179007D01*
X467463Y178924D01*
X467472Y178914D01*
X467482Y178905D01*
X467509Y178887D01*
X467547Y178859D01*
X467602Y178831D01*
X467658Y178794D01*
X467741Y178757D01*
X467824Y178720D01*
X467926Y178683D01*
X468046Y178655D01*
X468185Y178619D01*
X468332Y178591D01*
X468499Y178563D01*
X468675Y178545D01*
X468878Y178526D01*
X469090D01*
X472789D01*
Y177675D01*
X469090D01*
X469081D01*
X469044D01*
X468998D01*
X468933D01*
X468850Y177685D01*
X468758D01*
X468647Y177694D01*
X468536Y177703D01*
X468286Y177731D01*
X468027Y177768D01*
X467778Y177823D01*
X467658Y177860D01*
X467547Y177897D01*
X467537D01*
X467519Y177907D01*
X467491Y177925D01*
X467454Y177943D01*
X467352Y177999D01*
X467223Y178082D01*
X467075Y178193D01*
X466927Y178323D01*
X466770Y178489D01*
X466631Y178692D01*
Y178702D01*
X466613Y178720D01*
X466604Y178748D01*
X466576Y178794D01*
X466548Y178850D01*
X466520Y178924D01*
X466493Y178997D01*
X466455Y179090D01*
X466418Y179192D01*
X466391Y179303D01*
X466363Y179423D01*
X466335Y179562D01*
X466317Y179700D01*
X466298Y179848D01*
X466280Y180181D01*
Y180264D01*
X466289Y180329D01*
Y180403D01*
X466298Y180495D01*
X466308Y180597D01*
X466317Y180699D01*
X466354Y180930D01*
X466409Y181180D01*
X466483Y181420D01*
X466585Y181651D01*
Y181660D01*
X466604Y181679D01*
X466622Y181707D01*
X466640Y181744D01*
X466714Y181845D01*
X466816Y181965D01*
X466945Y182104D01*
X467094Y182234D01*
X467278Y182363D01*
X467482Y182465D01*
X467491D01*
X467509Y182474D01*
X467547Y182483D01*
X467593Y182502D01*
X467648Y182520D01*
X467722Y182539D01*
X467805Y182566D01*
X467907Y182585D01*
X468018Y182603D01*
X468138Y182631D01*
X468268Y182649D01*
X468406Y182668D01*
X468563Y182687D01*
X468730Y182696D01*
X468906Y182705D01*
X469090D01*
X472789D01*
Y181854D01*
D02*
G37*
G36*
X469553Y176612D02*
X469682D01*
X469830Y176603D01*
X470006Y176584D01*
X470200Y176566D01*
X470413Y176538D01*
X470625Y176501D01*
X470856Y176455D01*
X471078Y176399D01*
X471300Y176335D01*
X471513Y176252D01*
X471716Y176159D01*
X471910Y176057D01*
X472077Y175937D01*
X472086Y175928D01*
X472105Y175910D01*
X472142Y175872D01*
X472197Y175826D01*
X472253Y175771D01*
X472308Y175697D01*
X472382Y175604D01*
X472447Y175512D01*
X472511Y175401D01*
X472585Y175281D01*
X472641Y175142D01*
X472706Y175003D01*
X472752Y174846D01*
X472789Y174680D01*
X472807Y174504D01*
X472817Y174319D01*
Y174245D01*
X472807Y174190D01*
Y174125D01*
X472798Y174051D01*
X472761Y173876D01*
X472715Y173681D01*
X472641Y173478D01*
X472530Y173274D01*
X472465Y173173D01*
X472391Y173080D01*
X472382Y173071D01*
X472373Y173062D01*
X472345Y173034D01*
X472317Y173006D01*
X472271Y172960D01*
X472215Y172923D01*
X472086Y172822D01*
X471920Y172720D01*
X471716Y172627D01*
X471485Y172544D01*
X471226Y172489D01*
X471161Y173274D01*
X471171D01*
X471180Y173284D01*
X471236Y173293D01*
X471319Y173321D01*
X471420Y173358D01*
X471531Y173395D01*
X471642Y173450D01*
X471744Y173515D01*
X471827Y173580D01*
X471846Y173598D01*
X471883Y173635D01*
X471938Y173700D01*
X472003Y173792D01*
X472058Y173913D01*
X472114Y174042D01*
X472151Y174199D01*
X472169Y174366D01*
Y174430D01*
X472160Y174504D01*
X472142Y174587D01*
X472114Y174698D01*
X472077Y174809D01*
X472031Y174920D01*
X471957Y175031D01*
X471947Y175050D01*
X471910Y175096D01*
X471846Y175161D01*
X471753Y175244D01*
X471642Y175336D01*
X471513Y175438D01*
X471347Y175530D01*
X471161Y175623D01*
X471152D01*
X471134Y175632D01*
X471106Y175641D01*
X471069Y175660D01*
X471014Y175669D01*
X470949Y175688D01*
X470875Y175706D01*
X470783Y175725D01*
X470681Y175752D01*
X470570Y175771D01*
X470450Y175789D01*
X470320Y175799D01*
X470172Y175817D01*
X470024Y175826D01*
X469858Y175835D01*
X469692D01*
X469701Y175826D01*
X469756Y175789D01*
X469830Y175725D01*
X469923Y175641D01*
X470034Y175549D01*
X470135Y175429D01*
X470237Y175299D01*
X470329Y175151D01*
Y175142D01*
X470339Y175133D01*
X470366Y175077D01*
X470394Y174994D01*
X470440Y174883D01*
X470477Y174754D01*
X470505Y174606D01*
X470533Y174449D01*
X470542Y174282D01*
Y174208D01*
X470533Y174153D01*
X470524Y174079D01*
X470514Y174005D01*
X470496Y173913D01*
X470468Y173820D01*
X470403Y173607D01*
X470357Y173496D01*
X470293Y173386D01*
X470228Y173274D01*
X470154Y173154D01*
X470061Y173043D01*
X469960Y172942D01*
X469950Y172932D01*
X469932Y172914D01*
X469904Y172886D01*
X469858Y172859D01*
X469793Y172812D01*
X469729Y172766D01*
X469645Y172720D01*
X469553Y172664D01*
X469451Y172609D01*
X469340Y172563D01*
X469211Y172516D01*
X469081Y172470D01*
X468943Y172442D01*
X468785Y172415D01*
X468628Y172396D01*
X468462Y172387D01*
X468453D01*
X468434D01*
X468406D01*
X468360D01*
X468305Y172396D01*
X468249D01*
X468101Y172424D01*
X467926Y172452D01*
X467741Y172498D01*
X467537Y172563D01*
X467343Y172655D01*
X467334D01*
X467325Y172664D01*
X467297Y172683D01*
X467260Y172701D01*
X467167Y172757D01*
X467047Y172840D01*
X466918Y172942D01*
X466788Y173062D01*
X466659Y173210D01*
X466548Y173367D01*
Y173376D01*
X466539Y173386D01*
X466520Y173413D01*
X466511Y173450D01*
X466465Y173543D01*
X466418Y173663D01*
X466363Y173820D01*
X466326Y173996D01*
X466289Y174190D01*
X466280Y174403D01*
Y174449D01*
X466289Y174495D01*
Y174569D01*
X466298Y174652D01*
X466317Y174745D01*
X466345Y174855D01*
X466372Y174967D01*
X466409Y175096D01*
X466455Y175225D01*
X466511Y175355D01*
X466585Y175494D01*
X466668Y175623D01*
X466761Y175752D01*
X466872Y175882D01*
X467001Y176002D01*
X467010Y176011D01*
X467038Y176030D01*
X467075Y176057D01*
X467140Y176094D01*
X467223Y176150D01*
X467315Y176196D01*
X467436Y176252D01*
X467565Y176307D01*
X467722Y176372D01*
X467898Y176427D01*
X468092Y176474D01*
X468305Y176520D01*
X468545Y176566D01*
X468804Y176594D01*
X469081Y176612D01*
X469377Y176621D01*
X469386D01*
X469396D01*
X469423D01*
X469460D01*
X469553Y176612D01*
D02*
G37*
G36*
X508982Y166981D02*
X509075D01*
X509167Y166972D01*
X509287Y166962D01*
X509408Y166944D01*
X509676Y166898D01*
X509972Y166833D01*
X510267Y166740D01*
X510554Y166611D01*
X510563Y166602D01*
X510591Y166593D01*
X510628Y166574D01*
X510674Y166537D01*
X510739Y166500D01*
X510813Y166454D01*
X510979Y166334D01*
X511164Y166177D01*
X511349Y165992D01*
X511534Y165779D01*
X511691Y165529D01*
X511701Y165520D01*
X511710Y165492D01*
X511728Y165455D01*
X511756Y165409D01*
X511784Y165335D01*
X511811Y165261D01*
X511848Y165169D01*
X511885Y165067D01*
X511922Y164956D01*
X511959Y164836D01*
X512015Y164577D01*
X512061Y164281D01*
X512080Y163976D01*
Y163884D01*
X512070Y163819D01*
X512061Y163736D01*
X512052Y163634D01*
X512043Y163532D01*
X512015Y163412D01*
X511959Y163162D01*
X511876Y162885D01*
X511821Y162746D01*
X511756Y162617D01*
X511673Y162488D01*
X511590Y162358D01*
X511580Y162349D01*
X511571Y162330D01*
X511543Y162293D01*
X511497Y162247D01*
X511451Y162201D01*
X511386Y162136D01*
X511312Y162071D01*
X511238Y161998D01*
X511146Y161924D01*
X511035Y161850D01*
X510924Y161766D01*
X510804Y161692D01*
X510665Y161628D01*
X510526Y161554D01*
X510378Y161498D01*
X510212Y161443D01*
X510018Y162275D01*
X510027D01*
X510046Y162284D01*
X510083Y162303D01*
X510129Y162321D01*
X510184Y162340D01*
X510258Y162367D01*
X510406Y162441D01*
X510573Y162534D01*
X510739Y162645D01*
X510896Y162783D01*
X511035Y162931D01*
X511053Y162950D01*
X511090Y163005D01*
X511137Y163098D01*
X511201Y163218D01*
X511257Y163375D01*
X511312Y163551D01*
X511349Y163764D01*
X511358Y163995D01*
Y164069D01*
X511349Y164115D01*
Y164179D01*
X511340Y164254D01*
X511312Y164429D01*
X511275Y164623D01*
X511211Y164827D01*
X511118Y165039D01*
X510998Y165233D01*
Y165243D01*
X510979Y165252D01*
X510933Y165317D01*
X510859Y165400D01*
X510748Y165502D01*
X510610Y165622D01*
X510452Y165733D01*
X510258Y165835D01*
X510046Y165927D01*
X510036D01*
X510018Y165936D01*
X509990Y165945D01*
X509944Y165955D01*
X509888Y165973D01*
X509824Y165992D01*
X509667Y166019D01*
X509482Y166056D01*
X509278Y166093D01*
X509056Y166112D01*
X508816Y166121D01*
X508807D01*
X508779D01*
X508733D01*
X508677D01*
X508613Y166112D01*
X508529D01*
X508437Y166103D01*
X508335Y166093D01*
X508113Y166066D01*
X507873Y166019D01*
X507632Y165964D01*
X507392Y165890D01*
X507383D01*
X507364Y165881D01*
X507337Y165862D01*
X507290Y165844D01*
X507179Y165788D01*
X507050Y165705D01*
X506902Y165603D01*
X506745Y165474D01*
X506606Y165326D01*
X506477Y165150D01*
Y165141D01*
X506468Y165123D01*
X506449Y165095D01*
X506431Y165058D01*
X506412Y165012D01*
X506384Y164956D01*
X506329Y164827D01*
X506273Y164660D01*
X506227Y164475D01*
X506190Y164272D01*
X506181Y164059D01*
Y163995D01*
X506190Y163939D01*
Y163874D01*
X506199Y163810D01*
X506236Y163643D01*
X506283Y163449D01*
X506357Y163255D01*
X506458Y163051D01*
X506514Y162950D01*
X506588Y162857D01*
X506597Y162848D01*
X506606Y162839D01*
X506634Y162811D01*
X506662Y162774D01*
X506708Y162737D01*
X506763Y162691D01*
X506819Y162635D01*
X506893Y162589D01*
X506976Y162534D01*
X507069Y162469D01*
X507161Y162414D01*
X507272Y162358D01*
X507392Y162312D01*
X507522Y162266D01*
X507660Y162219D01*
X507808Y162183D01*
X507596Y161332D01*
X507586D01*
X507549Y161341D01*
X507494Y161360D01*
X507420Y161387D01*
X507337Y161415D01*
X507235Y161452D01*
X507124Y161498D01*
X507004Y161554D01*
X506745Y161683D01*
X506486Y161850D01*
X506357Y161951D01*
X506227Y162053D01*
X506116Y162164D01*
X506005Y162293D01*
X505996Y162303D01*
X505978Y162321D01*
X505959Y162367D01*
X505922Y162414D01*
X505876Y162488D01*
X505830Y162561D01*
X505783Y162663D01*
X505737Y162765D01*
X505682Y162885D01*
X505635Y163015D01*
X505589Y163153D01*
X505543Y163301D01*
X505506Y163458D01*
X505488Y163625D01*
X505469Y163800D01*
X505460Y163985D01*
Y164087D01*
X505469Y164161D01*
Y164244D01*
X505478Y164346D01*
X505497Y164457D01*
X505515Y164586D01*
X505561Y164854D01*
X505635Y165132D01*
X505737Y165409D01*
X505802Y165539D01*
X505876Y165668D01*
X505885Y165677D01*
X505894Y165696D01*
X505922Y165733D01*
X505959Y165770D01*
X505996Y165825D01*
X506051Y165890D01*
X506116Y165964D01*
X506190Y166038D01*
X506273Y166112D01*
X506357Y166195D01*
X506569Y166362D01*
X506819Y166519D01*
X507096Y166657D01*
X507105D01*
X507133Y166676D01*
X507179Y166685D01*
X507235Y166713D01*
X507309Y166731D01*
X507401Y166759D01*
X507503Y166796D01*
X507614Y166824D01*
X507734Y166852D01*
X507873Y166889D01*
X508159Y166935D01*
X508483Y166972D01*
X508816Y166990D01*
X508825D01*
X508862D01*
X508918D01*
X508982Y166981D01*
D02*
G37*
G36*
X510388Y160000D02*
X510406Y159982D01*
X510415Y159945D01*
X510443Y159899D01*
X510471Y159843D01*
X510508Y159779D01*
X510600Y159621D01*
X510702Y159437D01*
X510831Y159252D01*
X510979Y159057D01*
X511137Y158863D01*
X511146Y158854D01*
X511155Y158845D01*
X511183Y158817D01*
X511211Y158780D01*
X511303Y158697D01*
X511414Y158586D01*
X511543Y158475D01*
X511691Y158355D01*
X511839Y158253D01*
X511996Y158161D01*
Y157652D01*
X505571D01*
Y158438D01*
X510573D01*
X510563Y158447D01*
X510526Y158493D01*
X510471Y158549D01*
X510406Y158641D01*
X510323Y158743D01*
X510231Y158872D01*
X510129Y159021D01*
X510027Y159187D01*
Y159196D01*
X510018Y159205D01*
X509981Y159261D01*
X509935Y159353D01*
X509879Y159464D01*
X509814Y159594D01*
X509750Y159732D01*
X509685Y159871D01*
X509630Y160010D01*
X510388D01*
Y160000D01*
D02*
G37*
G36*
X511885Y151439D02*
X511266D01*
X511257Y151448D01*
X511238Y151467D01*
X511201Y151504D01*
X511146Y151541D01*
X511081Y151596D01*
X511007Y151670D01*
X510915Y151744D01*
X510804Y151827D01*
X510693Y151911D01*
X510563Y152012D01*
X510415Y152114D01*
X510267Y152216D01*
X510101Y152327D01*
X509925Y152438D01*
X509731Y152549D01*
X509537Y152660D01*
X509528Y152669D01*
X509491Y152687D01*
X509435Y152715D01*
X509352Y152761D01*
X509250Y152807D01*
X509140Y152863D01*
X509010Y152928D01*
X508862Y152992D01*
X508696Y153066D01*
X508529Y153149D01*
X508344Y153223D01*
X508150Y153297D01*
X507753Y153445D01*
X507327Y153584D01*
X507318D01*
X507290Y153593D01*
X507244Y153603D01*
X507189Y153621D01*
X507115Y153639D01*
X507022Y153658D01*
X506921Y153686D01*
X506810Y153704D01*
X506680Y153732D01*
X506542Y153760D01*
X506246Y153806D01*
X505922Y153852D01*
X505571Y153880D01*
Y154684D01*
X505580D01*
X505608D01*
X505645D01*
X505700Y154675D01*
X505774D01*
X505867Y154666D01*
X505968Y154656D01*
X506079Y154647D01*
X506209Y154629D01*
X506338Y154610D01*
X506495Y154583D01*
X506652Y154555D01*
X506819Y154527D01*
X507004Y154490D01*
X507383Y154398D01*
X507392D01*
X507429Y154388D01*
X507485Y154370D01*
X507568Y154342D01*
X507660Y154314D01*
X507771Y154277D01*
X507901Y154241D01*
X508039Y154185D01*
X508196Y154129D01*
X508354Y154074D01*
X508705Y153935D01*
X509075Y153769D01*
X509445Y153584D01*
X509454Y153575D01*
X509491Y153556D01*
X509537Y153529D01*
X509611Y153492D01*
X509694Y153445D01*
X509796Y153381D01*
X509907Y153316D01*
X510027Y153242D01*
X510295Y153066D01*
X510573Y152881D01*
X510859Y152669D01*
X511127Y152447D01*
Y155581D01*
X511885D01*
Y151439D01*
D02*
G37*
G36*
X534914Y327611D02*
X534988D01*
X535080Y327602D01*
X535182Y327592D01*
X535284Y327583D01*
X535515Y327546D01*
X535765Y327491D01*
X536005Y327417D01*
X536236Y327315D01*
X536245D01*
X536264Y327296D01*
X536292Y327278D01*
X536329Y327259D01*
X536430Y327186D01*
X536550Y327084D01*
X536689Y326954D01*
X536819Y326806D01*
X536948Y326622D01*
X537050Y326418D01*
Y326409D01*
X537059Y326390D01*
X537068Y326353D01*
X537087Y326307D01*
X537105Y326252D01*
X537124Y326178D01*
X537151Y326095D01*
X537170Y325993D01*
X537188Y325882D01*
X537216Y325762D01*
X537235Y325632D01*
X537253Y325494D01*
X537272Y325336D01*
X537281Y325170D01*
X537290Y324994D01*
Y324809D01*
Y321111D01*
X536440D01*
Y324809D01*
Y324819D01*
Y324846D01*
Y324893D01*
Y324948D01*
X536430Y325013D01*
Y325096D01*
X536421Y325272D01*
X536403Y325475D01*
X536375Y325678D01*
X536338Y325873D01*
X536319Y325956D01*
X536292Y326039D01*
X536282Y326058D01*
X536264Y326104D01*
X536218Y326169D01*
X536162Y326261D01*
X536097Y326353D01*
X536005Y326455D01*
X535894Y326557D01*
X535765Y326640D01*
X535746Y326649D01*
X535700Y326677D01*
X535617Y326705D01*
X535506Y326742D01*
X535376Y326788D01*
X535210Y326816D01*
X535034Y326843D01*
X534840Y326853D01*
X534748D01*
X534692Y326843D01*
X534609D01*
X534526Y326834D01*
X534322Y326797D01*
X534100Y326751D01*
X533888Y326677D01*
X533684Y326575D01*
X533592Y326511D01*
X533509Y326437D01*
X533499Y326427D01*
X533490Y326418D01*
X533472Y326390D01*
X533444Y326353D01*
X533416Y326298D01*
X533379Y326242D01*
X533342Y326159D01*
X533305Y326076D01*
X533268Y325974D01*
X533241Y325854D01*
X533204Y325715D01*
X533176Y325568D01*
X533148Y325401D01*
X533130Y325225D01*
X533111Y325022D01*
Y324809D01*
Y321111D01*
X532261D01*
Y324809D01*
Y324819D01*
Y324856D01*
Y324902D01*
Y324967D01*
X532270Y325050D01*
Y325142D01*
X532279Y325253D01*
X532288Y325364D01*
X532316Y325614D01*
X532353Y325873D01*
X532408Y326122D01*
X532445Y326242D01*
X532482Y326353D01*
Y326363D01*
X532492Y326381D01*
X532510Y326409D01*
X532529Y326446D01*
X532584Y326548D01*
X532667Y326677D01*
X532778Y326825D01*
X532908Y326973D01*
X533074Y327130D01*
X533278Y327269D01*
X533287D01*
X533305Y327287D01*
X533333Y327296D01*
X533379Y327324D01*
X533435Y327352D01*
X533509Y327380D01*
X533583Y327407D01*
X533675Y327444D01*
X533777Y327481D01*
X533888Y327509D01*
X534008Y327537D01*
X534147Y327565D01*
X534285Y327583D01*
X534433Y327602D01*
X534766Y327620D01*
X534849D01*
X534914Y327611D01*
D02*
G37*
G36*
X523681Y325974D02*
X526464D01*
Y325253D01*
X523533Y321111D01*
X522895D01*
Y325253D01*
X522026D01*
Y325974D01*
X522895D01*
Y327509D01*
X523681D01*
Y325974D01*
D02*
G37*
G36*
X531280Y327500D02*
Y327463D01*
Y327407D01*
X531271Y327333D01*
X531262Y327250D01*
X531244Y327158D01*
X531225Y327065D01*
X531188Y326964D01*
Y326954D01*
X531179Y326945D01*
X531160Y326890D01*
X531123Y326806D01*
X531068Y326696D01*
X530994Y326566D01*
X530901Y326418D01*
X530800Y326270D01*
X530670Y326113D01*
Y326104D01*
X530652Y326095D01*
X530606Y326039D01*
X530522Y325956D01*
X530402Y325836D01*
X530263Y325697D01*
X530088Y325531D01*
X529875Y325346D01*
X529644Y325151D01*
X529635Y325142D01*
X529598Y325115D01*
X529542Y325068D01*
X529478Y325013D01*
X529394Y324939D01*
X529293Y324856D01*
X529191Y324763D01*
X529071Y324661D01*
X528840Y324440D01*
X528609Y324218D01*
X528498Y324107D01*
X528396Y323996D01*
X528303Y323894D01*
X528229Y323792D01*
Y323783D01*
X528211Y323774D01*
X528192Y323746D01*
X528174Y323709D01*
X528109Y323607D01*
X528035Y323487D01*
X527971Y323339D01*
X527906Y323182D01*
X527869Y323007D01*
X527850Y322840D01*
Y322831D01*
Y322822D01*
X527860Y322766D01*
X527869Y322674D01*
X527897Y322572D01*
X527934Y322443D01*
X527998Y322313D01*
X528082Y322184D01*
X528192Y322054D01*
X528211Y322036D01*
X528257Y321999D01*
X528322Y321953D01*
X528424Y321888D01*
X528553Y321832D01*
X528701Y321777D01*
X528877Y321740D01*
X529071Y321731D01*
X529126D01*
X529163Y321740D01*
X529274Y321749D01*
X529404Y321777D01*
X529542Y321814D01*
X529699Y321879D01*
X529847Y321962D01*
X529986Y322073D01*
X530005Y322091D01*
X530042Y322137D01*
X530097Y322211D01*
X530153Y322322D01*
X530217Y322452D01*
X530273Y322618D01*
X530310Y322803D01*
X530328Y323016D01*
X531133Y322933D01*
Y322923D01*
X531123Y322896D01*
Y322849D01*
X531114Y322785D01*
X531096Y322711D01*
X531077Y322627D01*
X531049Y322526D01*
X531022Y322424D01*
X530948Y322202D01*
X530837Y321980D01*
X530772Y321869D01*
X530689Y321758D01*
X530606Y321657D01*
X530513Y321564D01*
X530504Y321555D01*
X530485Y321546D01*
X530458Y321518D01*
X530411Y321490D01*
X530356Y321453D01*
X530291Y321416D01*
X530217Y321370D01*
X530125Y321324D01*
X530023Y321278D01*
X529912Y321231D01*
X529792Y321194D01*
X529663Y321157D01*
X529524Y321130D01*
X529376Y321102D01*
X529219Y321093D01*
X529052Y321083D01*
X528960D01*
X528895Y321093D01*
X528821Y321102D01*
X528729Y321111D01*
X528627Y321130D01*
X528525Y321148D01*
X528285Y321213D01*
X528045Y321305D01*
X527924Y321361D01*
X527804Y321426D01*
X527693Y321509D01*
X527592Y321601D01*
X527582Y321610D01*
X527564Y321620D01*
X527545Y321657D01*
X527508Y321694D01*
X527462Y321740D01*
X527416Y321805D01*
X527370Y321869D01*
X527314Y321953D01*
X527222Y322128D01*
X527129Y322350D01*
X527092Y322461D01*
X527074Y322590D01*
X527055Y322720D01*
X527046Y322859D01*
Y322877D01*
Y322923D01*
X527055Y322997D01*
X527065Y323099D01*
X527083Y323210D01*
X527120Y323339D01*
X527157Y323478D01*
X527212Y323617D01*
X527222Y323635D01*
X527240Y323681D01*
X527277Y323755D01*
X527333Y323857D01*
X527407Y323968D01*
X527499Y324107D01*
X527610Y324245D01*
X527739Y324403D01*
X527758Y324421D01*
X527804Y324477D01*
X527850Y324523D01*
X527897Y324569D01*
X527952Y324624D01*
X528026Y324698D01*
X528100Y324772D01*
X528192Y324856D01*
X528285Y324948D01*
X528396Y325050D01*
X528516Y325151D01*
X528646Y325272D01*
X528793Y325392D01*
X528941Y325521D01*
X528951Y325531D01*
X528969Y325549D01*
X529006Y325577D01*
X529052Y325614D01*
X529108Y325669D01*
X529172Y325725D01*
X529320Y325845D01*
X529478Y325984D01*
X529626Y326122D01*
X529755Y326242D01*
X529810Y326289D01*
X529857Y326335D01*
X529866Y326344D01*
X529894Y326372D01*
X529931Y326409D01*
X529977Y326464D01*
X530023Y326529D01*
X530079Y326594D01*
X530190Y326751D01*
X527037D01*
Y327509D01*
X531280D01*
Y327500D01*
D02*
G37*
G36*
X568916Y513071D02*
X568990Y513062D01*
X569073Y513052D01*
X569175Y513043D01*
X569277Y513015D01*
X569508Y512960D01*
X569739Y512877D01*
X569859Y512821D01*
X569979Y512757D01*
X570090Y512682D01*
X570201Y512599D01*
X570210Y512590D01*
X570229Y512581D01*
X570247Y512544D01*
X570284Y512507D01*
X570331Y512461D01*
X570377Y512405D01*
X570432Y512331D01*
X570479Y512248D01*
X570534Y512165D01*
X570589Y512063D01*
X570691Y511841D01*
X570774Y511582D01*
X570802Y511444D01*
X570821Y511296D01*
X569998Y511231D01*
Y511240D01*
Y511259D01*
X569989Y511286D01*
X569979Y511333D01*
X569952Y511434D01*
X569915Y511573D01*
X569859Y511712D01*
X569785Y511869D01*
X569693Y512008D01*
X569582Y512137D01*
X569563Y512146D01*
X569526Y512183D01*
X569452Y512229D01*
X569351Y512285D01*
X569240Y512340D01*
X569101Y512387D01*
X568944Y512424D01*
X568768Y512433D01*
X568713D01*
X568676Y512424D01*
X568565Y512414D01*
X568435Y512377D01*
X568278Y512331D01*
X568121Y512257D01*
X567954Y512146D01*
X567881Y512082D01*
X567807Y512008D01*
X567797Y511998D01*
X567788Y511989D01*
X567770Y511961D01*
X567742Y511934D01*
X567677Y511832D01*
X567603Y511702D01*
X567538Y511545D01*
X567474Y511351D01*
X567427Y511120D01*
X567409Y511000D01*
Y510870D01*
Y510861D01*
Y510843D01*
Y510806D01*
X567418Y510759D01*
Y510704D01*
X567427Y510639D01*
X567455Y510491D01*
X567501Y510316D01*
X567566Y510140D01*
X567659Y509974D01*
X567788Y509816D01*
Y509807D01*
X567807Y509798D01*
X567853Y509752D01*
X567936Y509687D01*
X568047Y509613D01*
X568195Y509548D01*
X568361Y509483D01*
X568555Y509437D01*
X568666Y509419D01*
X568842D01*
X568916Y509428D01*
X569008Y509437D01*
X569119Y509465D01*
X569230Y509493D01*
X569351Y509539D01*
X569471Y509594D01*
X569480Y509604D01*
X569517Y509622D01*
X569572Y509668D01*
X569646Y509715D01*
X569720Y509779D01*
X569794Y509863D01*
X569878Y509946D01*
X569942Y510047D01*
X570682Y509946D01*
X570062Y506654D01*
X566882D01*
Y507403D01*
X569443D01*
X569785Y509132D01*
X569776Y509123D01*
X569757Y509114D01*
X569730Y509095D01*
X569683Y509067D01*
X569628Y509040D01*
X569563Y509003D01*
X569415Y508929D01*
X569230Y508855D01*
X569027Y508790D01*
X568805Y508744D01*
X568694Y508725D01*
X568491D01*
X568435Y508735D01*
X568361Y508744D01*
X568278Y508753D01*
X568186Y508772D01*
X568084Y508799D01*
X567862Y508864D01*
X567742Y508910D01*
X567622Y508975D01*
X567501Y509040D01*
X567381Y509114D01*
X567270Y509206D01*
X567159Y509308D01*
X567150Y509317D01*
X567132Y509336D01*
X567104Y509363D01*
X567067Y509410D01*
X567021Y509474D01*
X566974Y509539D01*
X566919Y509622D01*
X566864Y509715D01*
X566817Y509816D01*
X566762Y509927D01*
X566716Y510057D01*
X566669Y510186D01*
X566632Y510325D01*
X566605Y510482D01*
X566586Y510639D01*
X566577Y510806D01*
Y510815D01*
Y510843D01*
Y510889D01*
X566586Y510954D01*
X566595Y511028D01*
X566605Y511111D01*
X566623Y511213D01*
X566642Y511314D01*
X566697Y511555D01*
X566790Y511804D01*
X566845Y511934D01*
X566919Y512054D01*
X566993Y512183D01*
X567085Y512303D01*
X567095Y512313D01*
X567113Y512340D01*
X567150Y512377D01*
X567196Y512424D01*
X567261Y512479D01*
X567335Y512553D01*
X567427Y512618D01*
X567529Y512692D01*
X567640Y512766D01*
X567770Y512830D01*
X567908Y512895D01*
X568056Y512960D01*
X568213Y513006D01*
X568389Y513043D01*
X568574Y513071D01*
X568768Y513080D01*
X568851D01*
X568916Y513071D01*
D02*
G37*
G36*
X574371D02*
X574454D01*
X574556Y513062D01*
X574667Y513043D01*
X574796Y513025D01*
X575064Y512978D01*
X575342Y512904D01*
X575619Y512803D01*
X575749Y512738D01*
X575878Y512664D01*
X575887Y512655D01*
X575906Y512645D01*
X575943Y512618D01*
X575980Y512581D01*
X576035Y512544D01*
X576100Y512488D01*
X576174Y512424D01*
X576248Y512350D01*
X576322Y512267D01*
X576405Y512183D01*
X576571Y511971D01*
X576729Y511721D01*
X576867Y511444D01*
Y511434D01*
X576886Y511407D01*
X576895Y511360D01*
X576923Y511305D01*
X576941Y511231D01*
X576969Y511138D01*
X577006Y511037D01*
X577034Y510926D01*
X577062Y510806D01*
X577098Y510667D01*
X577145Y510380D01*
X577182Y510057D01*
X577200Y509724D01*
Y509715D01*
Y509678D01*
Y509622D01*
X577191Y509557D01*
Y509465D01*
X577182Y509373D01*
X577172Y509252D01*
X577154Y509132D01*
X577108Y508864D01*
X577043Y508568D01*
X576950Y508272D01*
X576821Y507986D01*
X576812Y507976D01*
X576803Y507949D01*
X576784Y507912D01*
X576747Y507866D01*
X576710Y507801D01*
X576664Y507727D01*
X576544Y507561D01*
X576386Y507375D01*
X576202Y507191D01*
X575989Y507006D01*
X575739Y506848D01*
X575730Y506839D01*
X575702Y506830D01*
X575665Y506812D01*
X575619Y506784D01*
X575545Y506756D01*
X575471Y506728D01*
X575379Y506691D01*
X575277Y506654D01*
X575166Y506617D01*
X575046Y506580D01*
X574787Y506525D01*
X574491Y506479D01*
X574186Y506460D01*
X574094D01*
X574029Y506469D01*
X573946Y506479D01*
X573844Y506488D01*
X573742Y506497D01*
X573622Y506525D01*
X573372Y506580D01*
X573095Y506664D01*
X572956Y506719D01*
X572827Y506784D01*
X572697Y506867D01*
X572568Y506950D01*
X572559Y506959D01*
X572540Y506969D01*
X572503Y506996D01*
X572457Y507043D01*
X572411Y507089D01*
X572346Y507154D01*
X572281Y507228D01*
X572207Y507302D01*
X572134Y507394D01*
X572060Y507505D01*
X571976Y507616D01*
X571902Y507736D01*
X571838Y507875D01*
X571764Y508013D01*
X571708Y508161D01*
X571653Y508328D01*
X572485Y508522D01*
Y508513D01*
X572494Y508494D01*
X572513Y508457D01*
X572531Y508411D01*
X572550Y508356D01*
X572577Y508282D01*
X572651Y508134D01*
X572744Y507967D01*
X572855Y507801D01*
X572993Y507644D01*
X573141Y507505D01*
X573160Y507486D01*
X573215Y507449D01*
X573308Y507403D01*
X573428Y507339D01*
X573585Y507283D01*
X573761Y507228D01*
X573973Y507191D01*
X574205Y507181D01*
X574278D01*
X574325Y507191D01*
X574389D01*
X574463Y507200D01*
X574639Y507228D01*
X574833Y507265D01*
X575037Y507329D01*
X575249Y507422D01*
X575443Y507542D01*
X575453D01*
X575462Y507561D01*
X575527Y507607D01*
X575610Y507681D01*
X575712Y507792D01*
X575832Y507930D01*
X575943Y508088D01*
X576044Y508282D01*
X576137Y508494D01*
Y508503D01*
X576146Y508522D01*
X576155Y508550D01*
X576165Y508596D01*
X576183Y508651D01*
X576202Y508716D01*
X576229Y508873D01*
X576266Y509058D01*
X576303Y509262D01*
X576322Y509483D01*
X576331Y509724D01*
Y509733D01*
Y509761D01*
Y509807D01*
Y509863D01*
X576322Y509927D01*
Y510010D01*
X576313Y510103D01*
X576303Y510205D01*
X576276Y510427D01*
X576229Y510667D01*
X576174Y510907D01*
X576100Y511148D01*
Y511157D01*
X576091Y511175D01*
X576072Y511203D01*
X576054Y511249D01*
X575998Y511360D01*
X575915Y511490D01*
X575813Y511638D01*
X575684Y511795D01*
X575536Y511934D01*
X575360Y512063D01*
X575351D01*
X575332Y512072D01*
X575305Y512091D01*
X575268Y512109D01*
X575222Y512128D01*
X575166Y512155D01*
X575037Y512211D01*
X574870Y512267D01*
X574685Y512313D01*
X574482Y512350D01*
X574269Y512359D01*
X574205D01*
X574149Y512350D01*
X574084D01*
X574020Y512340D01*
X573853Y512303D01*
X573659Y512257D01*
X573465Y512183D01*
X573261Y512082D01*
X573160Y512026D01*
X573067Y511952D01*
X573058Y511943D01*
X573049Y511934D01*
X573021Y511906D01*
X572984Y511878D01*
X572947Y511832D01*
X572901Y511776D01*
X572845Y511721D01*
X572799Y511647D01*
X572744Y511564D01*
X572679Y511471D01*
X572624Y511379D01*
X572568Y511268D01*
X572522Y511148D01*
X572476Y511018D01*
X572429Y510880D01*
X572392Y510732D01*
X571542Y510944D01*
Y510954D01*
X571551Y510991D01*
X571570Y511046D01*
X571597Y511120D01*
X571625Y511203D01*
X571662Y511305D01*
X571708Y511416D01*
X571764Y511536D01*
X571893Y511795D01*
X572060Y512054D01*
X572161Y512183D01*
X572263Y512313D01*
X572374Y512424D01*
X572503Y512535D01*
X572513Y512544D01*
X572531Y512562D01*
X572577Y512581D01*
X572624Y512618D01*
X572697Y512664D01*
X572771Y512710D01*
X572873Y512757D01*
X572975Y512803D01*
X573095Y512858D01*
X573224Y512904D01*
X573363Y512951D01*
X573511Y512997D01*
X573668Y513034D01*
X573835Y513052D01*
X574010Y513071D01*
X574195Y513080D01*
X574297D01*
X574371Y513071D01*
D02*
G37*
G36*
X650879Y479671D02*
X647181D01*
X647171D01*
X647144D01*
X647097D01*
X647042D01*
X646977Y479662D01*
X646894D01*
X646718Y479652D01*
X646515Y479634D01*
X646311Y479606D01*
X646117Y479569D01*
X646034Y479551D01*
X645951Y479523D01*
X645932Y479514D01*
X645886Y479495D01*
X645822Y479449D01*
X645729Y479394D01*
X645637Y479329D01*
X645535Y479236D01*
X645433Y479126D01*
X645350Y478996D01*
X645341Y478978D01*
X645313Y478931D01*
X645285Y478848D01*
X645248Y478737D01*
X645202Y478608D01*
X645174Y478441D01*
X645146Y478266D01*
X645137Y478072D01*
Y477979D01*
X645146Y477924D01*
Y477840D01*
X645156Y477757D01*
X645193Y477554D01*
X645239Y477332D01*
X645313Y477119D01*
X645415Y476916D01*
X645479Y476823D01*
X645553Y476740D01*
X645563Y476731D01*
X645572Y476722D01*
X645600Y476703D01*
X645637Y476675D01*
X645692Y476648D01*
X645748Y476611D01*
X645831Y476574D01*
X645914Y476537D01*
X646016Y476500D01*
X646136Y476472D01*
X646274Y476435D01*
X646422Y476407D01*
X646589Y476380D01*
X646765Y476361D01*
X646968Y476343D01*
X647181D01*
X650879D01*
Y475492D01*
X647181D01*
X647171D01*
X647134D01*
X647088D01*
X647023D01*
X646940Y475501D01*
X646848D01*
X646737Y475510D01*
X646626Y475520D01*
X646376Y475547D01*
X646117Y475584D01*
X645868Y475640D01*
X645748Y475677D01*
X645637Y475714D01*
X645627D01*
X645609Y475723D01*
X645581Y475742D01*
X645544Y475760D01*
X645442Y475816D01*
X645313Y475899D01*
X645165Y476010D01*
X645017Y476139D01*
X644860Y476306D01*
X644721Y476509D01*
Y476518D01*
X644703Y476537D01*
X644694Y476564D01*
X644666Y476611D01*
X644638Y476666D01*
X644610Y476740D01*
X644583Y476814D01*
X644546Y476907D01*
X644509Y477008D01*
X644481Y477119D01*
X644453Y477239D01*
X644425Y477378D01*
X644407Y477517D01*
X644388Y477665D01*
X644370Y477998D01*
Y478081D01*
X644379Y478145D01*
Y478219D01*
X644388Y478312D01*
X644398Y478414D01*
X644407Y478515D01*
X644444Y478746D01*
X644499Y478996D01*
X644573Y479236D01*
X644675Y479468D01*
Y479477D01*
X644694Y479495D01*
X644712Y479523D01*
X644731Y479560D01*
X644805Y479662D01*
X644906Y479782D01*
X645036Y479921D01*
X645183Y480050D01*
X645368Y480179D01*
X645572Y480281D01*
X645581D01*
X645600Y480290D01*
X645637Y480300D01*
X645683Y480318D01*
X645738Y480337D01*
X645812Y480355D01*
X645895Y480383D01*
X645997Y480401D01*
X646108Y480420D01*
X646228Y480448D01*
X646358Y480466D01*
X646496Y480485D01*
X646654Y480503D01*
X646820Y480512D01*
X646996Y480522D01*
X647181D01*
X650879D01*
Y479671D01*
D02*
G37*
G36*
X644657Y474503D02*
X644740Y474493D01*
X644832Y474475D01*
X644925Y474456D01*
X645026Y474420D01*
X645036D01*
X645045Y474410D01*
X645100Y474392D01*
X645183Y474355D01*
X645294Y474299D01*
X645424Y474225D01*
X645572Y474133D01*
X645720Y474031D01*
X645877Y473902D01*
X645886D01*
X645895Y473883D01*
X645951Y473837D01*
X646034Y473754D01*
X646154Y473634D01*
X646293Y473495D01*
X646459Y473319D01*
X646644Y473107D01*
X646839Y472876D01*
X646848Y472866D01*
X646876Y472829D01*
X646922Y472774D01*
X646977Y472709D01*
X647051Y472626D01*
X647134Y472524D01*
X647227Y472422D01*
X647328Y472302D01*
X647550Y472071D01*
X647772Y471840D01*
X647883Y471729D01*
X647994Y471627D01*
X648096Y471535D01*
X648198Y471461D01*
X648207D01*
X648216Y471442D01*
X648244Y471424D01*
X648281Y471405D01*
X648382Y471341D01*
X648503Y471267D01*
X648651Y471202D01*
X648808Y471137D01*
X648984Y471100D01*
X649150Y471082D01*
X649159D01*
X649168D01*
X649224Y471091D01*
X649316Y471100D01*
X649418Y471128D01*
X649547Y471165D01*
X649677Y471230D01*
X649806Y471313D01*
X649936Y471424D01*
X649954Y471442D01*
X649991Y471489D01*
X650038Y471553D01*
X650102Y471655D01*
X650158Y471785D01*
X650213Y471932D01*
X650250Y472108D01*
X650259Y472302D01*
Y472358D01*
X650250Y472395D01*
X650241Y472506D01*
X650213Y472635D01*
X650176Y472774D01*
X650111Y472931D01*
X650028Y473079D01*
X649917Y473218D01*
X649899Y473236D01*
X649853Y473273D01*
X649779Y473329D01*
X649668Y473384D01*
X649538Y473449D01*
X649372Y473504D01*
X649187Y473541D01*
X648974Y473560D01*
X649057Y474364D01*
X649067D01*
X649094Y474355D01*
X649141D01*
X649205Y474346D01*
X649279Y474327D01*
X649362Y474309D01*
X649464Y474281D01*
X649566Y474253D01*
X649788Y474179D01*
X650010Y474068D01*
X650121Y474003D01*
X650232Y473920D01*
X650333Y473837D01*
X650426Y473745D01*
X650435Y473735D01*
X650444Y473717D01*
X650472Y473689D01*
X650500Y473643D01*
X650537Y473587D01*
X650574Y473523D01*
X650620Y473449D01*
X650666Y473356D01*
X650712Y473255D01*
X650759Y473144D01*
X650796Y473023D01*
X650833Y472894D01*
X650860Y472755D01*
X650888Y472607D01*
X650897Y472450D01*
X650907Y472284D01*
Y472191D01*
X650897Y472127D01*
X650888Y472053D01*
X650879Y471960D01*
X650860Y471858D01*
X650842Y471757D01*
X650777Y471516D01*
X650685Y471276D01*
X650629Y471156D01*
X650564Y471036D01*
X650481Y470925D01*
X650389Y470823D01*
X650379Y470814D01*
X650370Y470795D01*
X650333Y470777D01*
X650296Y470740D01*
X650250Y470694D01*
X650185Y470647D01*
X650121Y470601D01*
X650038Y470546D01*
X649862Y470453D01*
X649640Y470361D01*
X649529Y470324D01*
X649399Y470305D01*
X649270Y470287D01*
X649131Y470277D01*
X649113D01*
X649067D01*
X648993Y470287D01*
X648891Y470296D01*
X648780Y470314D01*
X648651Y470351D01*
X648512Y470388D01*
X648373Y470444D01*
X648355Y470453D01*
X648308Y470472D01*
X648235Y470509D01*
X648133Y470564D01*
X648022Y470638D01*
X647883Y470731D01*
X647745Y470841D01*
X647587Y470971D01*
X647569Y470989D01*
X647513Y471036D01*
X647467Y471082D01*
X647421Y471128D01*
X647365Y471184D01*
X647291Y471258D01*
X647218Y471331D01*
X647134Y471424D01*
X647042Y471516D01*
X646940Y471627D01*
X646839Y471748D01*
X646718Y471877D01*
X646598Y472025D01*
X646469Y472173D01*
X646459Y472182D01*
X646441Y472201D01*
X646413Y472238D01*
X646376Y472284D01*
X646321Y472339D01*
X646265Y472404D01*
X646145Y472552D01*
X646006Y472709D01*
X645868Y472857D01*
X645748Y472986D01*
X645701Y473042D01*
X645655Y473088D01*
X645646Y473097D01*
X645618Y473125D01*
X645581Y473162D01*
X645526Y473208D01*
X645461Y473255D01*
X645396Y473310D01*
X645239Y473421D01*
Y470268D01*
X644481D01*
Y474512D01*
X644490D01*
X644527D01*
X644583D01*
X644657Y474503D01*
D02*
G37*
G36*
X646219Y468604D02*
X646210D01*
X646191D01*
X646164Y468595D01*
X646117Y468586D01*
X646016Y468558D01*
X645877Y468521D01*
X645738Y468465D01*
X645581Y468391D01*
X645442Y468299D01*
X645313Y468188D01*
X645304Y468170D01*
X645267Y468133D01*
X645220Y468059D01*
X645165Y467957D01*
X645110Y467846D01*
X645063Y467707D01*
X645026Y467550D01*
X645017Y467374D01*
Y467319D01*
X645026Y467282D01*
X645036Y467171D01*
X645073Y467042D01*
X645119Y466884D01*
X645193Y466727D01*
X645304Y466561D01*
X645368Y466487D01*
X645442Y466413D01*
X645452Y466404D01*
X645461Y466394D01*
X645489Y466376D01*
X645516Y466348D01*
X645618Y466283D01*
X645748Y466209D01*
X645905Y466145D01*
X646099Y466080D01*
X646330Y466034D01*
X646450Y466015D01*
X646580D01*
X646589D01*
X646607D01*
X646644D01*
X646691Y466025D01*
X646746D01*
X646811Y466034D01*
X646959Y466062D01*
X647134Y466108D01*
X647310Y466172D01*
X647476Y466265D01*
X647634Y466394D01*
X647643D01*
X647652Y466413D01*
X647698Y466459D01*
X647763Y466542D01*
X647837Y466653D01*
X647902Y466801D01*
X647966Y466968D01*
X648013Y467162D01*
X648031Y467273D01*
Y467448D01*
X648022Y467522D01*
X648013Y467615D01*
X647985Y467726D01*
X647957Y467837D01*
X647911Y467957D01*
X647856Y468077D01*
X647846Y468086D01*
X647828Y468123D01*
X647782Y468179D01*
X647735Y468253D01*
X647671Y468327D01*
X647587Y468401D01*
X647504Y468484D01*
X647402Y468549D01*
X647504Y469288D01*
X650796Y468669D01*
Y465488D01*
X650047D01*
Y468049D01*
X648318Y468391D01*
X648327Y468382D01*
X648336Y468364D01*
X648355Y468336D01*
X648382Y468290D01*
X648410Y468234D01*
X648447Y468170D01*
X648521Y468022D01*
X648595Y467837D01*
X648660Y467633D01*
X648706Y467411D01*
X648725Y467300D01*
Y467097D01*
X648715Y467042D01*
X648706Y466968D01*
X648697Y466884D01*
X648678Y466792D01*
X648651Y466690D01*
X648586Y466468D01*
X648540Y466348D01*
X648475Y466228D01*
X648410Y466108D01*
X648336Y465988D01*
X648244Y465877D01*
X648142Y465766D01*
X648133Y465756D01*
X648114Y465738D01*
X648087Y465710D01*
X648040Y465673D01*
X647976Y465627D01*
X647911Y465581D01*
X647828Y465525D01*
X647735Y465470D01*
X647634Y465424D01*
X647523Y465368D01*
X647393Y465322D01*
X647264Y465276D01*
X647125Y465239D01*
X646968Y465211D01*
X646811Y465192D01*
X646644Y465183D01*
X646635D01*
X646607D01*
X646561D01*
X646496Y465192D01*
X646422Y465202D01*
X646339Y465211D01*
X646237Y465229D01*
X646136Y465248D01*
X645895Y465303D01*
X645646Y465396D01*
X645516Y465451D01*
X645396Y465525D01*
X645267Y465599D01*
X645146Y465692D01*
X645137Y465701D01*
X645110Y465719D01*
X645073Y465756D01*
X645026Y465803D01*
X644971Y465867D01*
X644897Y465941D01*
X644832Y466034D01*
X644758Y466135D01*
X644684Y466246D01*
X644620Y466376D01*
X644555Y466515D01*
X644490Y466662D01*
X644444Y466820D01*
X644407Y466995D01*
X644379Y467180D01*
X644370Y467374D01*
Y467458D01*
X644379Y467522D01*
X644388Y467596D01*
X644398Y467679D01*
X644407Y467781D01*
X644435Y467883D01*
X644490Y468114D01*
X644573Y468345D01*
X644629Y468465D01*
X644694Y468586D01*
X644768Y468697D01*
X644851Y468807D01*
X644860Y468817D01*
X644869Y468835D01*
X644906Y468854D01*
X644943Y468891D01*
X644989Y468937D01*
X645045Y468983D01*
X645119Y469039D01*
X645202Y469085D01*
X645285Y469140D01*
X645387Y469196D01*
X645609Y469297D01*
X645868Y469381D01*
X646006Y469408D01*
X646154Y469427D01*
X646219Y468604D01*
D02*
G37*
G36*
X500552Y383421D02*
X500645D01*
X500737Y383412D01*
X500857Y383403D01*
X500978Y383384D01*
X501246Y383338D01*
X501542Y383273D01*
X501837Y383181D01*
X502124Y383051D01*
X502133Y383042D01*
X502161Y383033D01*
X502198Y383014D01*
X502244Y382977D01*
X502309Y382940D01*
X502383Y382894D01*
X502549Y382774D01*
X502734Y382617D01*
X502919Y382432D01*
X503104Y382219D01*
X503261Y381970D01*
X503270Y381960D01*
X503280Y381933D01*
X503298Y381896D01*
X503326Y381850D01*
X503354Y381776D01*
X503381Y381702D01*
X503418Y381609D01*
X503455Y381507D01*
X503492Y381396D01*
X503529Y381276D01*
X503585Y381017D01*
X503631Y380722D01*
X503650Y380416D01*
Y380324D01*
X503640Y380259D01*
X503631Y380176D01*
X503622Y380074D01*
X503613Y379973D01*
X503585Y379852D01*
X503529Y379603D01*
X503446Y379325D01*
X503391Y379187D01*
X503326Y379057D01*
X503243Y378928D01*
X503159Y378798D01*
X503150Y378789D01*
X503141Y378771D01*
X503113Y378734D01*
X503067Y378688D01*
X503021Y378641D01*
X502956Y378577D01*
X502882Y378512D01*
X502808Y378438D01*
X502716Y378364D01*
X502605Y378290D01*
X502494Y378207D01*
X502374Y378133D01*
X502235Y378068D01*
X502096Y377994D01*
X501948Y377939D01*
X501782Y377883D01*
X501588Y378715D01*
X501597D01*
X501615Y378725D01*
X501652Y378743D01*
X501699Y378761D01*
X501754Y378780D01*
X501828Y378808D01*
X501976Y378882D01*
X502142Y378974D01*
X502309Y379085D01*
X502466Y379224D01*
X502605Y379372D01*
X502623Y379390D01*
X502660Y379446D01*
X502706Y379538D01*
X502771Y379658D01*
X502827Y379815D01*
X502882Y379991D01*
X502919Y380204D01*
X502928Y380435D01*
Y380509D01*
X502919Y380555D01*
Y380620D01*
X502910Y380694D01*
X502882Y380869D01*
X502845Y381064D01*
X502780Y381267D01*
X502688Y381480D01*
X502568Y381674D01*
Y381683D01*
X502549Y381692D01*
X502503Y381757D01*
X502429Y381840D01*
X502318Y381942D01*
X502179Y382062D01*
X502022Y382173D01*
X501828Y382275D01*
X501615Y382367D01*
X501606D01*
X501588Y382377D01*
X501560Y382386D01*
X501514Y382395D01*
X501458Y382413D01*
X501394Y382432D01*
X501236Y382460D01*
X501052Y382497D01*
X500848Y382534D01*
X500626Y382552D01*
X500386Y382561D01*
X500377D01*
X500349D01*
X500303D01*
X500247D01*
X500182Y382552D01*
X500099D01*
X500007Y382543D01*
X499905Y382534D01*
X499683Y382506D01*
X499443Y382460D01*
X499202Y382404D01*
X498962Y382330D01*
X498953D01*
X498934Y382321D01*
X498907Y382303D01*
X498860Y382284D01*
X498749Y382229D01*
X498620Y382145D01*
X498472Y382044D01*
X498315Y381914D01*
X498176Y381766D01*
X498047Y381591D01*
Y381581D01*
X498037Y381563D01*
X498019Y381535D01*
X498000Y381498D01*
X497982Y381452D01*
X497954Y381396D01*
X497899Y381267D01*
X497843Y381101D01*
X497797Y380916D01*
X497760Y380712D01*
X497751Y380500D01*
Y380435D01*
X497760Y380379D01*
Y380315D01*
X497769Y380250D01*
X497806Y380084D01*
X497853Y379889D01*
X497926Y379695D01*
X498028Y379492D01*
X498084Y379390D01*
X498158Y379298D01*
X498167Y379288D01*
X498176Y379279D01*
X498204Y379252D01*
X498232Y379215D01*
X498278Y379178D01*
X498333Y379131D01*
X498389Y379076D01*
X498463Y379030D01*
X498546Y378974D01*
X498638Y378909D01*
X498731Y378854D01*
X498842Y378798D01*
X498962Y378752D01*
X499091Y378706D01*
X499230Y378660D01*
X499378Y378623D01*
X499165Y377772D01*
X499156D01*
X499119Y377781D01*
X499064Y377800D01*
X498990Y377828D01*
X498907Y377855D01*
X498805Y377892D01*
X498694Y377939D01*
X498574Y377994D01*
X498315Y378124D01*
X498056Y378290D01*
X497926Y378392D01*
X497797Y378493D01*
X497686Y378604D01*
X497575Y378734D01*
X497566Y378743D01*
X497547Y378761D01*
X497529Y378808D01*
X497492Y378854D01*
X497446Y378928D01*
X497399Y379002D01*
X497353Y379104D01*
X497307Y379205D01*
X497252Y379325D01*
X497205Y379455D01*
X497159Y379594D01*
X497113Y379742D01*
X497076Y379899D01*
X497057Y380065D01*
X497039Y380241D01*
X497030Y380426D01*
Y380527D01*
X497039Y380601D01*
Y380685D01*
X497048Y380786D01*
X497067Y380897D01*
X497085Y381027D01*
X497131Y381295D01*
X497205Y381572D01*
X497307Y381850D01*
X497372Y381979D01*
X497446Y382108D01*
X497455Y382118D01*
X497464Y382136D01*
X497492Y382173D01*
X497529Y382210D01*
X497566Y382266D01*
X497621Y382330D01*
X497686Y382404D01*
X497760Y382478D01*
X497843Y382552D01*
X497926Y382635D01*
X498139Y382802D01*
X498389Y382959D01*
X498666Y383098D01*
X498675D01*
X498703Y383116D01*
X498749Y383125D01*
X498805Y383153D01*
X498879Y383172D01*
X498971Y383199D01*
X499073Y383236D01*
X499184Y383264D01*
X499304Y383292D01*
X499443Y383329D01*
X499729Y383375D01*
X500053Y383412D01*
X500386Y383430D01*
X500395D01*
X500432D01*
X500488D01*
X500552Y383421D01*
D02*
G37*
G36*
X501958Y376441D02*
X501976Y376422D01*
X501985Y376385D01*
X502013Y376339D01*
X502041Y376284D01*
X502078Y376219D01*
X502170Y376062D01*
X502272Y375877D01*
X502401Y375692D01*
X502549Y375498D01*
X502706Y375304D01*
X502716Y375294D01*
X502725Y375285D01*
X502753Y375257D01*
X502780Y375220D01*
X502873Y375137D01*
X502984Y375026D01*
X503113Y374915D01*
X503261Y374795D01*
X503409Y374693D01*
X503566Y374601D01*
Y374092D01*
X497141D01*
Y374878D01*
X502142D01*
X502133Y374888D01*
X502096Y374934D01*
X502041Y374989D01*
X501976Y375082D01*
X501893Y375183D01*
X501800Y375313D01*
X501699Y375461D01*
X501597Y375627D01*
Y375636D01*
X501588Y375646D01*
X501551Y375701D01*
X501505Y375794D01*
X501449Y375905D01*
X501384Y376034D01*
X501320Y376173D01*
X501255Y376311D01*
X501199Y376450D01*
X501958D01*
Y376441D01*
D02*
G37*
G36*
X498879Y371254D02*
X498870D01*
X498851D01*
X498823Y371245D01*
X498777Y371236D01*
X498675Y371208D01*
X498537Y371171D01*
X498398Y371115D01*
X498241Y371041D01*
X498102Y370949D01*
X497973Y370838D01*
X497963Y370820D01*
X497926Y370783D01*
X497880Y370709D01*
X497825Y370607D01*
X497769Y370496D01*
X497723Y370357D01*
X497686Y370200D01*
X497677Y370024D01*
Y369969D01*
X497686Y369932D01*
X497695Y369821D01*
X497732Y369692D01*
X497779Y369534D01*
X497853Y369377D01*
X497963Y369211D01*
X498028Y369137D01*
X498102Y369063D01*
X498111Y369054D01*
X498121Y369044D01*
X498148Y369026D01*
X498176Y368998D01*
X498278Y368933D01*
X498407Y368859D01*
X498564Y368795D01*
X498759Y368730D01*
X498990Y368684D01*
X499110Y368665D01*
X499239D01*
X499249D01*
X499267D01*
X499304D01*
X499350Y368675D01*
X499406D01*
X499471Y368684D01*
X499618Y368712D01*
X499794Y368758D01*
X499970Y368823D01*
X500136Y368915D01*
X500293Y369044D01*
X500303D01*
X500312Y369063D01*
X500358Y369109D01*
X500423Y369192D01*
X500497Y369303D01*
X500561Y369451D01*
X500626Y369618D01*
X500672Y369812D01*
X500691Y369923D01*
Y370098D01*
X500682Y370172D01*
X500672Y370265D01*
X500645Y370376D01*
X500617Y370487D01*
X500571Y370607D01*
X500515Y370727D01*
X500506Y370736D01*
X500488Y370773D01*
X500441Y370829D01*
X500395Y370903D01*
X500330Y370977D01*
X500247Y371051D01*
X500164Y371134D01*
X500062Y371199D01*
X500164Y371938D01*
X503455Y371319D01*
Y368138D01*
X502706D01*
Y370699D01*
X500978Y371041D01*
X500987Y371032D01*
X500996Y371014D01*
X501015Y370986D01*
X501042Y370940D01*
X501070Y370884D01*
X501107Y370820D01*
X501181Y370672D01*
X501255Y370487D01*
X501320Y370283D01*
X501366Y370061D01*
X501384Y369950D01*
Y369747D01*
X501375Y369692D01*
X501366Y369618D01*
X501357Y369534D01*
X501338Y369442D01*
X501310Y369340D01*
X501246Y369118D01*
X501199Y368998D01*
X501135Y368878D01*
X501070Y368758D01*
X500996Y368638D01*
X500904Y368527D01*
X500802Y368416D01*
X500793Y368406D01*
X500774Y368388D01*
X500746Y368360D01*
X500700Y368323D01*
X500635Y368277D01*
X500571Y368231D01*
X500488Y368175D01*
X500395Y368120D01*
X500293Y368074D01*
X500182Y368018D01*
X500053Y367972D01*
X499924Y367926D01*
X499785Y367889D01*
X499628Y367861D01*
X499471Y367842D01*
X499304Y367833D01*
X499295D01*
X499267D01*
X499221D01*
X499156Y367842D01*
X499082Y367852D01*
X498999Y367861D01*
X498897Y367879D01*
X498796Y367898D01*
X498555Y367953D01*
X498306Y368046D01*
X498176Y368101D01*
X498056Y368175D01*
X497926Y368249D01*
X497806Y368342D01*
X497797Y368351D01*
X497769Y368369D01*
X497732Y368406D01*
X497686Y368453D01*
X497631Y368517D01*
X497557Y368591D01*
X497492Y368684D01*
X497418Y368786D01*
X497344Y368896D01*
X497279Y369026D01*
X497215Y369165D01*
X497150Y369313D01*
X497104Y369470D01*
X497067Y369645D01*
X497039Y369830D01*
X497030Y370024D01*
Y370108D01*
X497039Y370172D01*
X497048Y370246D01*
X497057Y370330D01*
X497067Y370431D01*
X497094Y370533D01*
X497150Y370764D01*
X497233Y370995D01*
X497289Y371115D01*
X497353Y371236D01*
X497427Y371347D01*
X497510Y371457D01*
X497520Y371467D01*
X497529Y371485D01*
X497566Y371504D01*
X497603Y371541D01*
X497649Y371587D01*
X497705Y371633D01*
X497779Y371689D01*
X497862Y371735D01*
X497945Y371790D01*
X498047Y371846D01*
X498269Y371948D01*
X498527Y372031D01*
X498666Y372058D01*
X498814Y372077D01*
X498879Y371254D01*
D02*
G37*
G36*
X481378Y422804D02*
X480620D01*
Y426280D01*
X478641D01*
Y423275D01*
X477883D01*
Y426280D01*
X474980D01*
Y427131D01*
X481378D01*
Y422804D01*
D02*
G37*
G36*
Y419226D02*
X481369Y419161D01*
Y419087D01*
X481350Y418921D01*
X481332Y418736D01*
X481295Y418542D01*
X481248Y418348D01*
X481184Y418172D01*
Y418163D01*
X481175Y418153D01*
X481147Y418098D01*
X481101Y418015D01*
X481036Y417922D01*
X480953Y417811D01*
X480851Y417691D01*
X480721Y417580D01*
X480583Y417478D01*
X480564Y417469D01*
X480509Y417441D01*
X480435Y417395D01*
X480324Y417349D01*
X480194Y417303D01*
X480056Y417257D01*
X479899Y417229D01*
X479741Y417220D01*
X479723D01*
X479677D01*
X479594Y417229D01*
X479492Y417247D01*
X479372Y417275D01*
X479242Y417321D01*
X479113Y417377D01*
X478974Y417451D01*
X478955Y417460D01*
X478918Y417488D01*
X478845Y417543D01*
X478771Y417617D01*
X478678Y417710D01*
X478576Y417821D01*
X478484Y417959D01*
X478391Y418116D01*
Y418107D01*
X478382Y418089D01*
X478373Y418061D01*
X478354Y418024D01*
X478318Y417913D01*
X478253Y417784D01*
X478170Y417645D01*
X478068Y417488D01*
X477948Y417349D01*
X477800Y417220D01*
X477781Y417210D01*
X477726Y417173D01*
X477643Y417118D01*
X477532Y417062D01*
X477384Y417007D01*
X477227Y416951D01*
X477042Y416914D01*
X476838Y416905D01*
X476829D01*
X476820D01*
X476764D01*
X476672Y416914D01*
X476561Y416933D01*
X476432Y416951D01*
X476293Y416988D01*
X476145Y417035D01*
X475997Y417099D01*
X475978Y417109D01*
X475932Y417136D01*
X475868Y417173D01*
X475775Y417229D01*
X475683Y417303D01*
X475581Y417377D01*
X475479Y417469D01*
X475396Y417571D01*
X475387Y417580D01*
X475359Y417617D01*
X475322Y417682D01*
X475285Y417765D01*
X475229Y417867D01*
X475174Y417987D01*
X475128Y418116D01*
X475082Y418274D01*
Y418292D01*
X475063Y418348D01*
X475054Y418440D01*
X475035Y418560D01*
X475017Y418708D01*
X474998Y418884D01*
X474989Y419078D01*
X474980Y419300D01*
Y421741D01*
X481378D01*
Y419226D01*
D02*
G37*
G36*
X479797Y415454D02*
X479815Y415435D01*
X479825Y415398D01*
X479852Y415352D01*
X479880Y415297D01*
X479917Y415232D01*
X480009Y415075D01*
X480111Y414890D01*
X480241Y414705D01*
X480389Y414511D01*
X480546Y414316D01*
X480555Y414307D01*
X480564Y414298D01*
X480592Y414270D01*
X480620Y414233D01*
X480712Y414150D01*
X480823Y414039D01*
X480953Y413928D01*
X481101Y413808D01*
X481248Y413706D01*
X481406Y413614D01*
Y413105D01*
X474980D01*
Y413891D01*
X479982D01*
X479972Y413900D01*
X479935Y413947D01*
X479880Y414002D01*
X479815Y414095D01*
X479732Y414196D01*
X479640Y414326D01*
X479538Y414474D01*
X479436Y414640D01*
Y414649D01*
X479427Y414659D01*
X479390Y414714D01*
X479344Y414807D01*
X479288Y414917D01*
X479224Y415047D01*
X479159Y415186D01*
X479094Y415324D01*
X479039Y415463D01*
X479797D01*
Y415454D01*
D02*
G37*
%LPC*%
G36*
X481334Y555143D02*
X479319Y552277D01*
X481334D01*
Y555143D01*
D02*
G37*
G36*
X472452Y461043D02*
X472443D01*
X472425D01*
X472388D01*
X472341Y461033D01*
X472277D01*
X472212Y461024D01*
X472064Y460997D01*
X471888Y460960D01*
X471703Y460895D01*
X471528Y460802D01*
X471371Y460682D01*
X471361D01*
X471352Y460664D01*
X471306Y460617D01*
X471241Y460543D01*
X471167Y460442D01*
X471102Y460312D01*
X471038Y460164D01*
X470992Y459998D01*
X470973Y459906D01*
Y459758D01*
X470982Y459721D01*
X470992Y459619D01*
X471029Y459499D01*
X471075Y459351D01*
X471158Y459194D01*
X471260Y459036D01*
X471334Y458962D01*
X471408Y458889D01*
X471417D01*
X471426Y458870D01*
X471454Y458852D01*
X471482Y458833D01*
X471574Y458768D01*
X471703Y458704D01*
X471861Y458630D01*
X472055Y458565D01*
X472277Y458528D01*
X472517Y458509D01*
X472526D01*
X472545D01*
X472573D01*
X472619Y458519D01*
X472674D01*
X472730Y458528D01*
X472868Y458556D01*
X473026Y458602D01*
X473192Y458657D01*
X473358Y458750D01*
X473506Y458870D01*
X473525Y458889D01*
X473562Y458935D01*
X473627Y459018D01*
X473691Y459120D01*
X473765Y459258D01*
X473830Y459416D01*
X473867Y459591D01*
X473885Y459785D01*
Y459841D01*
X473876Y459878D01*
X473867Y459979D01*
X473839Y460100D01*
X473793Y460248D01*
X473728Y460396D01*
X473636Y460543D01*
X473506Y460682D01*
X473488Y460701D01*
X473432Y460738D01*
X473349Y460793D01*
X473229Y460867D01*
X473081Y460932D01*
X472905Y460987D01*
X472693Y461024D01*
X472452Y461043D01*
D02*
G37*
G36*
X341811Y85089D02*
X341728D01*
X341645Y85079D01*
X341534Y85070D01*
X341395Y85052D01*
X341256Y85015D01*
X341099Y84978D01*
X340951Y84922D01*
X340970Y84913D01*
X341016Y84876D01*
X341099Y84830D01*
X341201Y84774D01*
X341330Y84719D01*
X341469Y84654D01*
X341626Y84599D01*
X341793Y84552D01*
X341580Y83942D01*
X341571D01*
X341543Y83951D01*
X341506Y83961D01*
X341460Y83979D01*
X341395Y83998D01*
X341321Y84025D01*
X341155Y84090D01*
X340961Y84183D01*
X340757Y84284D01*
X340563Y84404D01*
X340369Y84552D01*
X340360Y84543D01*
X340332Y84525D01*
X340295Y84478D01*
X340249Y84423D01*
X340193Y84349D01*
X340129Y84266D01*
X340064Y84164D01*
X339990Y84044D01*
X339925Y83905D01*
X339860Y83748D01*
X339796Y83582D01*
X339740Y83406D01*
X339685Y83202D01*
X339648Y82990D01*
X339629Y82759D01*
X339620Y82509D01*
Y82500D01*
Y82472D01*
Y82435D01*
Y82380D01*
X339629Y82306D01*
Y82232D01*
X339638Y82139D01*
X339657Y82047D01*
X339685Y81834D01*
X339731Y81603D01*
X339796Y81372D01*
X339888Y81150D01*
Y81141D01*
X339897Y81122D01*
X339916Y81095D01*
X339934Y81058D01*
X339999Y80947D01*
X340082Y80817D01*
X340193Y80669D01*
X340332Y80521D01*
X340489Y80373D01*
X340665Y80244D01*
X340674D01*
X340683Y80225D01*
X340711Y80216D01*
X340757Y80188D01*
X340803Y80170D01*
X340859Y80142D01*
X340998Y80077D01*
X341164Y80022D01*
X341358Y79967D01*
X341580Y79930D01*
X341811Y79920D01*
X341904D01*
X341968Y79930D01*
X342052Y79939D01*
X342144Y79957D01*
X342246Y79976D01*
X342357Y80003D01*
X342486Y80041D01*
X342606Y80077D01*
X342736Y80133D01*
X342874Y80198D01*
X343004Y80272D01*
X343133Y80364D01*
X343263Y80457D01*
X343383Y80577D01*
X343392Y80586D01*
X343411Y80604D01*
X343438Y80641D01*
X343475Y80697D01*
X343531Y80762D01*
X343577Y80845D01*
X343633Y80947D01*
X343688Y81058D01*
X343753Y81187D01*
X343808Y81335D01*
X343854Y81492D01*
X343901Y81668D01*
X343947Y81853D01*
X343975Y82056D01*
X343993Y82278D01*
X344002Y82509D01*
Y82528D01*
Y82565D01*
Y82629D01*
X343993Y82712D01*
X343984Y82814D01*
X343965Y82934D01*
X343947Y83073D01*
X343928Y83212D01*
X343854Y83526D01*
X343808Y83683D01*
X343744Y83840D01*
X343679Y83998D01*
X343596Y84146D01*
X343503Y84293D01*
X343392Y84423D01*
X343383Y84432D01*
X343364Y84451D01*
X343327Y84488D01*
X343281Y84525D01*
X343217Y84580D01*
X343143Y84636D01*
X343059Y84691D01*
X342958Y84756D01*
X342856Y84820D01*
X342736Y84876D01*
X342606Y84931D01*
X342468Y84987D01*
X342310Y85024D01*
X342153Y85061D01*
X341987Y85079D01*
X341811Y85089D01*
D02*
G37*
G36*
X468462Y175715D02*
X468443D01*
X468397D01*
X468314Y175706D01*
X468212Y175697D01*
X468092Y175678D01*
X467963Y175641D01*
X467824Y175604D01*
X467685Y175549D01*
X467667Y175540D01*
X467621Y175512D01*
X467556Y175475D01*
X467472Y175420D01*
X467389Y175355D01*
X467288Y175272D01*
X467204Y175179D01*
X467121Y175068D01*
X467112Y175050D01*
X467094Y175013D01*
X467057Y174948D01*
X467029Y174865D01*
X466992Y174772D01*
X466955Y174661D01*
X466936Y174541D01*
X466927Y174412D01*
Y174366D01*
X466936Y174328D01*
X466945Y174236D01*
X466973Y174116D01*
X467029Y173986D01*
X467094Y173839D01*
X467195Y173691D01*
X467251Y173617D01*
X467325Y173552D01*
X467334D01*
X467343Y173533D01*
X467399Y173496D01*
X467491Y173441D01*
X467611Y173367D01*
X467768Y173302D01*
X467953Y173247D01*
X468166Y173210D01*
X468416Y173191D01*
X468425D01*
X468443D01*
X468480D01*
X468526Y173200D01*
X468582D01*
X468647Y173210D01*
X468795Y173237D01*
X468961Y173274D01*
X469137Y173339D01*
X469303Y173432D01*
X469460Y173552D01*
X469479Y173570D01*
X469525Y173617D01*
X469580Y173691D01*
X469655Y173792D01*
X469729Y173922D01*
X469784Y174070D01*
X469830Y174245D01*
X469849Y174440D01*
Y174495D01*
X469839Y174532D01*
X469830Y174624D01*
X469802Y174754D01*
X469756Y174893D01*
X469682Y175050D01*
X469590Y175198D01*
X469460Y175345D01*
X469442Y175364D01*
X469396Y175401D01*
X469312Y175466D01*
X469192Y175530D01*
X469053Y175595D01*
X468878Y175660D01*
X468684Y175697D01*
X468462Y175715D01*
D02*
G37*
G36*
X525696Y325253D02*
X523681D01*
Y322387D01*
X525696Y325253D01*
D02*
G37*
G36*
X480620Y420890D02*
X478697D01*
Y419318D01*
X478706Y419198D01*
X478715Y419069D01*
X478724Y418939D01*
X478743Y418810D01*
X478761Y418708D01*
X478771Y418690D01*
X478780Y418653D01*
X478808Y418597D01*
X478845Y418523D01*
X478881Y418449D01*
X478937Y418366D01*
X479011Y418283D01*
X479085Y418218D01*
X479094Y418209D01*
X479122Y418190D01*
X479177Y418163D01*
X479242Y418135D01*
X479316Y418107D01*
X479408Y418079D01*
X479520Y418061D01*
X479640Y418052D01*
X479658D01*
X479695D01*
X479751Y418061D01*
X479825Y418070D01*
X479917Y418089D01*
X480009Y418116D01*
X480102Y418153D01*
X480194Y418209D01*
X480204Y418218D01*
X480231Y418237D01*
X480278Y418274D01*
X480324Y418320D01*
X480379Y418385D01*
X480435Y418459D01*
X480490Y418551D01*
X480527Y418653D01*
Y418662D01*
X480546Y418708D01*
X480555Y418773D01*
X480574Y418875D01*
X480592Y419013D01*
X480601Y419170D01*
X480620Y419374D01*
Y420890D01*
D02*
G37*
G36*
X477938D02*
X475738D01*
Y419069D01*
X475747Y418875D01*
X475756Y418791D01*
X475766Y418717D01*
Y418708D01*
X475775Y418671D01*
X475784Y418616D01*
X475803Y418551D01*
X475858Y418394D01*
X475932Y418237D01*
X475941Y418227D01*
X475960Y418200D01*
X475988Y418163D01*
X476025Y418116D01*
X476080Y418070D01*
X476136Y418005D01*
X476210Y417959D01*
X476293Y417904D01*
X476302Y417895D01*
X476330Y417885D01*
X476385Y417867D01*
X476450Y417839D01*
X476524Y417811D01*
X476616Y417793D01*
X476727Y417784D01*
X476838Y417774D01*
X476857D01*
X476894D01*
X476968Y417784D01*
X477051Y417802D01*
X477143Y417821D01*
X477245Y417858D01*
X477347Y417904D01*
X477449Y417968D01*
X477458Y417978D01*
X477495Y418005D01*
X477541Y418042D01*
X477596Y418098D01*
X477661Y418172D01*
X477726Y418264D01*
X477781Y418366D01*
X477827Y418486D01*
X477837Y418505D01*
X477846Y418542D01*
X477864Y418625D01*
X477883Y418727D01*
X477901Y418856D01*
X477920Y419013D01*
X477938Y419207D01*
Y420890D01*
D02*
G37*
%LPD*%
D16*
X462078Y555272D02*
X482802D01*
Y544548D02*
Y555272D01*
X462078Y544548D02*
X482802D01*
X462078D02*
Y555272D01*
X460911Y539119D02*
Y577241D01*
X440789Y539119D02*
X460911D01*
X440789D02*
Y577241D01*
X460911D01*
X417974Y539116D02*
X438095D01*
Y577237D01*
X417974D02*
X438095D01*
X417974Y539116D02*
Y577237D01*
X417929Y537841D02*
X438051D01*
X417929Y499719D02*
Y537841D01*
Y499719D02*
X438051D01*
Y537841D01*
X470618Y442463D02*
X479342D01*
X479342Y460188D02*
X479342Y442463D01*
X470618Y460188D02*
X479342D01*
X470618D02*
X470618Y442463D01*
X531491Y466189D02*
Y486311D01*
X493369D02*
X531491D01*
X493369Y466189D02*
Y486311D01*
Y466189D02*
X531491D01*
X474477Y367748D02*
Y376472D01*
X456752D02*
X474477D01*
X456752Y367748D02*
Y376472D01*
Y367748D02*
X474477D01*
X449472Y260189D02*
Y283689D01*
X427472Y260189D02*
X449472D01*
X427472D02*
Y283689D01*
X449472D01*
X319341Y64816D02*
X370403D01*
X319341D02*
Y103816D01*
X370403D01*
Y64816D02*
Y103816D01*
X489860Y113390D02*
Y158390D01*
X444860D02*
X489860D01*
X444860Y113390D02*
Y158390D01*
Y113390D02*
X489860D01*
X482705Y170835D02*
Y194575D01*
X449855Y170835D02*
X482705D01*
X449855D02*
Y194575D01*
X482705D01*
X495399Y186051D02*
X515521D01*
X495399Y147929D02*
Y186051D01*
Y147929D02*
X515521D01*
Y186051D01*
X527990Y315820D02*
X546590D01*
X527990D02*
Y339420D01*
X546590D01*
Y315820D02*
Y339420D01*
X596261Y503019D02*
Y523141D01*
X558139D02*
X596261D01*
X558139Y503019D02*
Y523141D01*
Y503019D02*
X596261D01*
X636370Y488884D02*
X652370D01*
X636370Y472159D02*
Y488884D01*
Y472159D02*
X652370D01*
Y488884D01*
X500471Y364370D02*
X500471Y402491D01*
X480349Y364370D02*
X500471Y364370D01*
X480349Y402491D02*
X480349Y364370D01*
X480349Y402491D02*
X500471D01*
X467689Y441922D02*
X482271D01*
X467689Y412340D02*
Y441922D01*
Y412340D02*
X482271D01*
Y441922D01*
M02*
