G04*
G04 #@! TF.GenerationSoftware,Altium Limited,Altium Designer,23.1.1 (15)*
G04*
G04 Layer_Physical_Order=4*
G04 Layer_Color=6736896*
%FSLAX44Y44*%
%MOMM*%
G71*
G04*
G04 #@! TF.SameCoordinates,D1EA7B9B-11C4-41B5-954D-5070AA3C9977*
G04*
G04*
G04 #@! TF.FilePolarity,Positive*
G04*
G01*
G75*
%ADD13C,0.2540*%
%ADD21C,0.1016*%
%ADD141C,0.1565*%
%ADD143C,0.5080*%
%ADD144C,1.0160*%
%ADD152C,1.7000*%
%ADD153R,1.7000X1.7000*%
%ADD154C,1.8000*%
%ADD155R,1.8000X1.8000*%
%ADD156O,1.0000X1.8000*%
%ADD157O,1.0000X2.1000*%
%ADD158C,4.0000*%
%ADD159C,0.4064*%
%ADD160C,0.3048*%
%ADD161C,0.5080*%
%ADD162C,0.2540*%
%ADD163C,0.5000*%
%ADD166C,0.1425*%
%ADD168C,1.5240*%
%ADD169R,1.9304X1.5494*%
G36*
X543560Y622300D02*
Y582930D01*
X539022Y578392D01*
X493236D01*
X491247Y578130D01*
X490571Y577850D01*
X453212D01*
X452720Y578342D01*
X451507Y578845D01*
X451125D01*
X440690Y589280D01*
X381000D01*
X351790Y560070D01*
Y532990D01*
X351531Y532730D01*
X351028Y531517D01*
Y530203D01*
X351531Y528990D01*
X351790Y528730D01*
Y527050D01*
X337820Y513080D01*
X323694D01*
X323168Y514350D01*
X323320Y514501D01*
X323822Y515715D01*
Y517029D01*
X323320Y518242D01*
X322391Y519171D01*
X321177Y519674D01*
X319863D01*
X318650Y519171D01*
X317721Y518242D01*
X317218Y517029D01*
Y515715D01*
X317721Y514501D01*
X317872Y514350D01*
X317346Y513080D01*
X315693D01*
X315167Y514350D01*
X315319Y514501D01*
X315821Y515715D01*
Y517029D01*
X315319Y518242D01*
X314390Y519171D01*
X313176Y519674D01*
X311862D01*
X310649Y519171D01*
X309720Y518242D01*
X309217Y517029D01*
Y515715D01*
X309720Y514501D01*
X309871Y514350D01*
X309345Y513080D01*
X307692D01*
X307166Y514350D01*
X307318Y514501D01*
X307820Y515715D01*
Y517029D01*
X307318Y518242D01*
X306389Y519171D01*
X305175Y519674D01*
X303861D01*
X302648Y519171D01*
X301719Y518242D01*
X301216Y517029D01*
Y515715D01*
X301719Y514501D01*
X301870Y514350D01*
X301344Y513080D01*
X294767D01*
X294241Y514350D01*
X294321Y514430D01*
X294824Y515643D01*
Y516957D01*
X294321Y518170D01*
X293392Y519099D01*
X292178Y519602D01*
X290865D01*
X289651Y519099D01*
X288722Y518170D01*
X288220Y516957D01*
Y515643D01*
X288722Y514430D01*
X288802Y514350D01*
X288276Y513080D01*
X277632D01*
X277106Y514350D01*
X277257Y514501D01*
X277760Y515715D01*
Y517029D01*
X277257Y518242D01*
X276328Y519171D01*
X275115Y519674D01*
X273801D01*
X272588Y519171D01*
X271659Y518242D01*
X271156Y517029D01*
Y515715D01*
X271659Y514501D01*
X271810Y514350D01*
X271284Y513080D01*
X265782D01*
X265312Y513549D01*
X264099Y514052D01*
X262785D01*
X261572Y513549D01*
X261102Y513080D01*
X260130D01*
X259661Y513549D01*
X258447Y514052D01*
X257134D01*
X255920Y513549D01*
X255451Y513080D01*
X254479D01*
X254009Y513549D01*
X252796Y514052D01*
X251482D01*
X250269Y513549D01*
X249799Y513080D01*
X248827D01*
X248358Y513549D01*
X247144Y514052D01*
X245831D01*
X244617Y513549D01*
X244148Y513080D01*
X243176D01*
X242706Y513549D01*
X241493Y514052D01*
X240179D01*
X238966Y513549D01*
X238496Y513080D01*
X234783D01*
X234070Y513793D01*
X232857Y514295D01*
X231543D01*
X230330Y513793D01*
X229617Y513080D01*
X225849D01*
X225136Y513793D01*
X223923Y514295D01*
X222609D01*
X221396Y513793D01*
X220683Y513080D01*
X217731D01*
X213818Y516993D01*
X213454Y517236D01*
X213293Y517397D01*
X213083Y517484D01*
X212719Y517727D01*
X212290Y517813D01*
X212080Y517900D01*
X211852D01*
X211423Y517985D01*
X210993Y517900D01*
X210766D01*
X210556Y517813D01*
X210127Y517727D01*
X209763Y517484D01*
X209552Y517397D01*
X209392Y517236D01*
X209028Y516993D01*
X208997Y516948D01*
X208682Y516821D01*
X207866Y516725D01*
X207418Y516876D01*
X206890Y517404D01*
X205676Y517907D01*
X204363D01*
X203149Y517404D01*
X202220Y516475D01*
X202021Y515995D01*
X200544Y515676D01*
X192980Y523240D01*
X192454Y524510D01*
X192663Y524719D01*
X193237Y526105D01*
Y527605D01*
X192663Y528990D01*
X191603Y530051D01*
X190217Y530625D01*
X188717D01*
X187332Y530051D01*
X186271Y528990D01*
X185697Y527605D01*
Y526105D01*
X186271Y524719D01*
X186481Y524510D01*
X185954Y523240D01*
X183480D01*
X182954Y524510D01*
X183163Y524719D01*
X183737Y526105D01*
Y527605D01*
X183163Y528990D01*
X182103Y530051D01*
X180717Y530625D01*
X179217D01*
X177832Y530051D01*
X176771Y528990D01*
X176197Y527605D01*
Y526105D01*
X176771Y524719D01*
X176980Y524510D01*
X176454Y523240D01*
X175260D01*
X167894Y530860D01*
X129104D01*
X123952Y536012D01*
Y593852D01*
X129540Y599440D01*
X201930D01*
X213360Y588010D01*
Y569595D01*
X219075Y563880D01*
X220689D01*
Y563827D01*
X221192Y562613D01*
X222120Y561685D01*
X223334Y561182D01*
X224648D01*
X225861Y561685D01*
X226721Y562545D01*
X227581Y561685D01*
X228795Y561182D01*
X230109D01*
X231322Y561685D01*
X232251Y562613D01*
X232754Y563827D01*
Y563880D01*
X234823D01*
Y562969D01*
X235326Y561756D01*
X235483Y561598D01*
X236204Y560769D01*
X235483Y559939D01*
X235326Y559781D01*
X234823Y558568D01*
Y557254D01*
X235326Y556041D01*
X236255Y555112D01*
X237468Y554609D01*
X238782D01*
X239995Y555112D01*
X240093Y555210D01*
X240192Y555112D01*
X241405Y554609D01*
X242719D01*
X243932Y555112D01*
X244094Y555273D01*
X244256Y555112D01*
X245469Y554609D01*
X246783D01*
X247996Y555112D01*
X248925Y556041D01*
X249428Y557254D01*
Y558568D01*
X248925Y559781D01*
X248768Y559939D01*
X248047Y560769D01*
X248768Y561598D01*
X248925Y561756D01*
X249428Y562969D01*
Y563880D01*
X262067D01*
X262319Y562610D01*
X262290Y562598D01*
X261361Y561669D01*
X260858Y560455D01*
Y559142D01*
X261361Y557928D01*
X262290Y556999D01*
X263503Y556496D01*
X264817D01*
X266030Y556999D01*
X266959Y557928D01*
X267462Y559142D01*
Y560455D01*
X266959Y561669D01*
X266030Y562598D01*
X266001Y562610D01*
X266253Y563880D01*
X268834D01*
X268940Y563623D01*
X269869Y562694D01*
X271082Y562191D01*
X272396D01*
X273610Y562694D01*
X274045Y563130D01*
X274875Y563481D01*
X275705Y563130D01*
X276140Y562694D01*
X277354Y562191D01*
X277503D01*
X278330Y560921D01*
X278137Y560455D01*
Y559142D01*
X278640Y557928D01*
X279569Y556999D01*
X280783Y556496D01*
X282096D01*
X283310Y556999D01*
X284239Y557928D01*
X284741Y559142D01*
Y560455D01*
X284239Y561669D01*
X283310Y562598D01*
X283280Y562610D01*
X283533Y563880D01*
X301371D01*
X301620Y563280D01*
X302549Y562351D01*
X303762Y561848D01*
X305076D01*
X306289Y562351D01*
X307150Y563211D01*
X308010Y562351D01*
X309223Y561848D01*
X310537D01*
X311750Y562351D01*
X312679Y563280D01*
X313182Y564493D01*
Y565807D01*
X313151Y565881D01*
X314575Y567305D01*
X315679Y567450D01*
X317513Y568210D01*
X319088Y569418D01*
X320297Y570993D01*
X321056Y572828D01*
X321202Y573932D01*
X328930Y581660D01*
Y613410D01*
X341630Y626110D01*
X349348D01*
X349758Y625497D01*
Y624183D01*
X350261Y622970D01*
X351190Y622041D01*
X352403Y621538D01*
X353717D01*
X354930Y622041D01*
X355859Y622970D01*
X356362Y624183D01*
Y625497D01*
X356772Y626110D01*
X374748D01*
X375158Y625497D01*
Y624183D01*
X375661Y622970D01*
X376590Y622041D01*
X377803Y621538D01*
X379117D01*
X380331Y622041D01*
X381259Y622970D01*
X381762Y624183D01*
Y625497D01*
X382172Y626110D01*
X400148D01*
X400558Y625497D01*
Y624183D01*
X401061Y622970D01*
X401990Y622041D01*
X403203Y621538D01*
X404517D01*
X405730Y622041D01*
X406659Y622970D01*
X407162Y624183D01*
Y625497D01*
X407572Y626110D01*
X539750D01*
X543560Y622300D01*
D02*
G37*
G36*
X746760Y575310D02*
Y488956D01*
X745990Y488442D01*
X744677D01*
X743463Y487939D01*
X742534Y487010D01*
X742031Y485797D01*
Y484483D01*
X742534Y483270D01*
X743463Y482341D01*
X744677Y481838D01*
X745990D01*
X746760Y481324D01*
Y472440D01*
X733142Y458822D01*
X733051Y458842D01*
X731969Y459445D01*
Y460397D01*
X731466Y461610D01*
X730537Y462539D01*
X729324Y463042D01*
X728010D01*
X726796Y462539D01*
X725867Y461610D01*
X725365Y460397D01*
Y459083D01*
X725867Y457870D01*
X726796Y456941D01*
X728010Y456438D01*
X728962D01*
X729564Y455356D01*
X729585Y455265D01*
X711494Y437174D01*
X710747Y437484D01*
X709433D01*
X708220Y436981D01*
X707291Y436052D01*
X706788Y434839D01*
Y433525D01*
X707098Y432778D01*
X699770Y425450D01*
Y417722D01*
X699486Y417037D01*
Y415723D01*
X699770Y415038D01*
Y409222D01*
X699486Y408537D01*
Y407223D01*
X699770Y406538D01*
Y400722D01*
X699486Y400037D01*
Y398723D01*
X699770Y398038D01*
Y392222D01*
X699486Y391537D01*
Y390223D01*
X699770Y389538D01*
Y383722D01*
X699486Y383037D01*
Y381723D01*
X699770Y381038D01*
Y375222D01*
X699486Y374537D01*
Y373223D01*
X699770Y372538D01*
Y366722D01*
X699486Y366037D01*
Y364723D01*
X699770Y364038D01*
Y358222D01*
X699486Y357537D01*
Y356223D01*
X699770Y355538D01*
Y349722D01*
X699486Y349037D01*
Y347723D01*
X699770Y347038D01*
Y341222D01*
X699486Y340537D01*
Y339223D01*
X699770Y338538D01*
Y332722D01*
X699486Y332037D01*
Y330723D01*
X699770Y330038D01*
Y324222D01*
X699486Y323537D01*
Y322223D01*
X699770Y321538D01*
Y315722D01*
X699486Y315037D01*
Y313723D01*
X699770Y313038D01*
Y307222D01*
X699486Y306537D01*
Y305223D01*
X699770Y304538D01*
Y298722D01*
X699486Y298037D01*
Y296723D01*
X699770Y296038D01*
X699770Y227011D01*
X698500Y226270D01*
X697887Y226524D01*
X696573D01*
X695360Y226021D01*
X694431Y225092D01*
X693928Y223878D01*
Y222565D01*
X694431Y221351D01*
X695360Y220422D01*
X696573Y219919D01*
X697887D01*
X698500Y220173D01*
X699770Y219433D01*
Y125730D01*
X695911Y121871D01*
X695201Y122165D01*
X693888D01*
X692674Y121662D01*
X691745Y120733D01*
X691243Y119520D01*
Y118206D01*
X691536Y117497D01*
X676910Y102870D01*
X669491D01*
X668964Y104140D01*
X669107Y104283D01*
X669610Y105497D01*
Y106810D01*
X669107Y108024D01*
X668178Y108953D01*
X666965Y109455D01*
X665651D01*
X664438Y108953D01*
X663509Y108024D01*
X663006Y106810D01*
Y105497D01*
X663509Y104283D01*
X663652Y104140D01*
X663126Y102870D01*
X641254D01*
X640728Y104140D01*
X640871Y104283D01*
X641373Y105497D01*
Y106810D01*
X640871Y108024D01*
X639942Y108953D01*
X638728Y109455D01*
X637415D01*
X636201Y108953D01*
X635272Y108024D01*
X634769Y106810D01*
Y105497D01*
X635272Y104283D01*
X635415Y104140D01*
X635000Y102870D01*
X630374Y98244D01*
X629491Y97734D01*
X627436Y95679D01*
X626926Y94796D01*
X626110Y93980D01*
Y93382D01*
X625982Y93161D01*
X625230Y90353D01*
Y87447D01*
X625982Y84639D01*
X626110Y84418D01*
Y82550D01*
X623645Y80085D01*
X603175D01*
X599440Y83820D01*
Y93980D01*
X610870Y105410D01*
Y106430D01*
X610920Y106680D01*
Y196928D01*
X611353D01*
X612567Y197431D01*
X613495Y198360D01*
X613998Y199573D01*
Y200887D01*
X613495Y202100D01*
X612567Y203029D01*
X611353Y203532D01*
X610920D01*
Y208788D01*
X611353D01*
X612567Y209291D01*
X613495Y210220D01*
X613998Y211433D01*
Y212747D01*
X613495Y213960D01*
X612567Y214889D01*
X611353Y215392D01*
X610920D01*
Y248970D01*
X651510Y289560D01*
Y404342D01*
X651576Y404841D01*
X651576Y404841D01*
Y425516D01*
X692150Y466090D01*
Y468597D01*
X692200Y468847D01*
X692200Y521970D01*
X692003Y522961D01*
X691441Y523801D01*
X687123Y528119D01*
X686283Y528681D01*
X685292Y528878D01*
X685242D01*
X667766Y546354D01*
X609092D01*
X593607Y530869D01*
X593212Y530948D01*
X592283Y531877D01*
X591070Y532379D01*
X589756D01*
X588543Y531877D01*
X587614Y530948D01*
X587111Y529734D01*
Y528420D01*
X587614Y527207D01*
X588474Y526347D01*
X587614Y525487D01*
X587182Y524444D01*
X586887Y524149D01*
X585568Y524626D01*
X585211Y525487D01*
X584351Y526347D01*
X585211Y527207D01*
X585714Y528420D01*
Y529734D01*
X585211Y530948D01*
X584282Y531877D01*
X583069Y532379D01*
X581755D01*
X580541Y531877D01*
X579613Y530948D01*
X579110Y529734D01*
Y528420D01*
X579613Y527207D01*
X580473Y526347D01*
X579613Y525487D01*
X579110Y524273D01*
Y522960D01*
X579613Y521746D01*
X580541Y520817D01*
X580824Y520700D01*
X580571Y519430D01*
X493136D01*
X493059Y519527D01*
X492970Y519742D01*
X492571Y520141D01*
X492368Y520397D01*
X492970Y521000D01*
X493473Y522213D01*
Y523527D01*
X492970Y524740D01*
X492041Y525669D01*
X490828Y526172D01*
X489514D01*
X488301Y525669D01*
X487372Y524740D01*
X486869Y523527D01*
Y522213D01*
X487372Y521000D01*
X487975Y520397D01*
X487771Y520141D01*
X487372Y519742D01*
X487283Y519527D01*
X487206Y519430D01*
X475112D01*
X475059Y519470D01*
X474369Y520700D01*
X474527Y521082D01*
Y522093D01*
X474140Y523026D01*
X473425Y523741D01*
X472492Y524127D01*
X471482D01*
X470548Y523741D01*
X469833Y523026D01*
X469447Y522093D01*
Y521082D01*
X469605Y520700D01*
X468915Y519470D01*
X468861Y519430D01*
X467111D01*
X467058Y519470D01*
X466367Y520700D01*
X466526Y521082D01*
Y522093D01*
X466139Y523026D01*
X465424Y523741D01*
X464491Y524127D01*
X463480D01*
X462547Y523741D01*
X461832Y523026D01*
X461446Y522093D01*
Y521082D01*
X461604Y520700D01*
X460914Y519470D01*
X460860Y519430D01*
X429260D01*
X410464Y538226D01*
Y578152D01*
X413004Y580692D01*
X425672D01*
X426509Y579756D01*
X426233Y578367D01*
X426164Y578339D01*
X425235Y577410D01*
X424733Y576196D01*
Y574882D01*
X425235Y573669D01*
X426164Y572740D01*
X427378Y572237D01*
X428691D01*
X429905Y572740D01*
X430834Y573669D01*
X430862Y573738D01*
X432356Y574040D01*
X447898D01*
X448051Y573672D01*
X448980Y572743D01*
X450193Y572241D01*
X451507D01*
X452720Y572743D01*
X453649Y573672D01*
X453802Y574040D01*
X547370D01*
X569029Y595699D01*
X570254D01*
Y596924D01*
X590550Y617220D01*
X614778D01*
X615188Y616607D01*
Y615293D01*
X615691Y614080D01*
X616620Y613151D01*
X617833Y612648D01*
X619147D01*
X620360Y613151D01*
X621289Y614080D01*
X621792Y615293D01*
Y616607D01*
X622202Y617220D01*
X640178D01*
X640588Y616607D01*
Y615293D01*
X641091Y614080D01*
X642020Y613151D01*
X643233Y612648D01*
X644547D01*
X645760Y613151D01*
X646689Y614080D01*
X647192Y615293D01*
Y616607D01*
X647602Y617220D01*
X665578D01*
X665988Y616607D01*
Y615293D01*
X666491Y614080D01*
X667420Y613151D01*
X668633Y612648D01*
X669947D01*
X671161Y613151D01*
X672089Y614080D01*
X672592Y615293D01*
Y616607D01*
X673002Y617220D01*
X690978D01*
X691388Y616607D01*
Y615293D01*
X691891Y614080D01*
X692820Y613151D01*
X694033Y612648D01*
X695347D01*
X696560Y613151D01*
X697489Y614080D01*
X697992Y615293D01*
Y616607D01*
X698402Y617220D01*
X704850D01*
X746760Y575310D01*
D02*
G37*
G36*
X628650Y534670D02*
Y488950D01*
X622300Y482600D01*
X608330D01*
X591977Y466247D01*
X591244Y466532D01*
X590804Y466870D01*
Y468017D01*
X590301Y469230D01*
X589372Y470159D01*
X588159Y470662D01*
X586845D01*
X585632Y470159D01*
X584703Y469230D01*
X584200Y468017D01*
Y466703D01*
X584703Y465490D01*
X585632Y464561D01*
X586845Y464058D01*
X587992D01*
X588330Y463618D01*
X588615Y462885D01*
X583976Y458246D01*
X583243Y458531D01*
X582803Y458869D01*
Y460016D01*
X582300Y461229D01*
X581371Y462158D01*
X580158Y462661D01*
X578844D01*
X577631Y462158D01*
X576702Y461229D01*
X576199Y460016D01*
Y458702D01*
X575658Y458485D01*
X574802Y459475D01*
Y460016D01*
X574299Y461229D01*
X573370Y462158D01*
X572157Y462661D01*
X570843D01*
X569630Y462158D01*
X568701Y461229D01*
X568198Y460016D01*
Y458702D01*
X568294Y458470D01*
X567446Y457200D01*
X469958D01*
X469710Y457800D01*
X468781Y458729D01*
X467567Y459232D01*
X466254D01*
X465040Y458729D01*
X464111Y457800D01*
X463862Y457200D01*
X461010D01*
X457250Y453440D01*
X456440D01*
X456440Y453440D01*
X456185Y453440D01*
X455934Y453390D01*
X455679Y453390D01*
X455444Y453292D01*
X455194Y453243D01*
X455182Y453234D01*
X455182Y453234D01*
X454932Y453131D01*
X454773Y453065D01*
X454773Y453065D01*
X454758Y453062D01*
X454548Y452921D01*
X454313Y452824D01*
X454132Y452643D01*
X453918Y452501D01*
X453738Y452321D01*
X453738Y452321D01*
X453587Y452170D01*
X430197D01*
X429947Y452120D01*
X429692D01*
X429692Y452120D01*
X427169D01*
X427168Y452120D01*
X426913D01*
X426663Y452170D01*
X412700D01*
X410210Y454660D01*
Y501650D01*
X417830Y509270D01*
X442751D01*
X442768Y509231D01*
X443697Y508302D01*
X444910Y507799D01*
X446224D01*
X447438Y508302D01*
X448366Y509231D01*
X448383Y509270D01*
X461446D01*
Y508334D01*
X461832Y507401D01*
X462547Y506686D01*
X463480Y506300D01*
X464491D01*
X465424Y506686D01*
X466139Y507401D01*
X466526Y508334D01*
Y509270D01*
X469447D01*
Y508334D01*
X469833Y507401D01*
X470548Y506686D01*
X471482Y506300D01*
X472492D01*
X473425Y506686D01*
X474140Y507401D01*
X474527Y508334D01*
Y509270D01*
X557708D01*
X557967Y509011D01*
X559181Y508508D01*
X560494D01*
X561708Y509011D01*
X561967Y509270D01*
X583024D01*
X595576Y521823D01*
X595963Y521746D01*
X596892Y520817D01*
X598105Y520314D01*
X599419D01*
X600632Y520817D01*
X600813Y520998D01*
X601643Y521679D01*
X602472Y520998D01*
X602653Y520817D01*
X603867Y520314D01*
X605181D01*
X606394Y520817D01*
X607323Y521746D01*
X607826Y522960D01*
Y524273D01*
X607323Y525487D01*
X606463Y526347D01*
X607323Y527207D01*
X607826Y528420D01*
Y529734D01*
X607323Y530948D01*
X606394Y531877D01*
X606267Y532514D01*
X613504Y539750D01*
X623570D01*
X628650Y534670D01*
D02*
G37*
G36*
X586007Y521714D02*
X586449Y521647D01*
X586887Y521559D01*
X586947Y521571D01*
X587006Y521562D01*
X587440Y521670D01*
X587649Y521711D01*
X588543Y520817D01*
X588945Y520650D01*
X589243Y519152D01*
X581951Y511860D01*
X561967D01*
X560976Y511663D01*
X560378Y511263D01*
X559979Y511098D01*
X559696D01*
X559297Y511263D01*
X558699Y511663D01*
X557708Y511860D01*
X474527D01*
X473536Y511663D01*
X472696Y511101D01*
X471278D01*
X470438Y511663D01*
X469447Y511860D01*
X466526D01*
X465535Y511663D01*
X464695Y511101D01*
X463277D01*
X462437Y511663D01*
X461446Y511860D01*
X457200D01*
Y515620D01*
X457153Y515667D01*
X457639Y516840D01*
X460860D01*
X461169Y516902D01*
X461484Y516917D01*
X461612Y516977D01*
X461615Y516977D01*
X461651Y516995D01*
X461660Y516999D01*
X461851Y517037D01*
X462113Y517213D01*
X462399Y517347D01*
X462453Y517387D01*
X462480Y517417D01*
X462516Y517435D01*
X462609Y517544D01*
X462691Y517599D01*
X462817Y517788D01*
X462819Y517789D01*
X463133Y518134D01*
X463146Y518172D01*
X463172Y518203D01*
X463258Y518354D01*
X464714D01*
X464799Y518203D01*
X464825Y518172D01*
X464839Y518134D01*
X465153Y517789D01*
X465154Y517788D01*
X465280Y517599D01*
X465363Y517544D01*
X465456Y517435D01*
X465492Y517416D01*
X465519Y517387D01*
X465573Y517347D01*
X465858Y517213D01*
X466120Y517037D01*
X466311Y516999D01*
X466320Y516995D01*
X466356Y516977D01*
X466360Y516977D01*
X466487Y516917D01*
X466802Y516902D01*
X467111Y516840D01*
X468861D01*
X469170Y516902D01*
X469485Y516917D01*
X469613Y516977D01*
X469616Y516977D01*
X469652Y516995D01*
X469661Y516999D01*
X469852Y517037D01*
X470114Y517213D01*
X470400Y517347D01*
X470454Y517387D01*
X470481Y517417D01*
X470517Y517435D01*
X470610Y517544D01*
X470692Y517599D01*
X470818Y517788D01*
X470820Y517789D01*
X471134Y518134D01*
X471147Y518172D01*
X471174Y518203D01*
X471259Y518354D01*
X472715D01*
X472800Y518203D01*
X472826Y518172D01*
X472840Y518134D01*
X473153Y517789D01*
X473155Y517788D01*
X473281Y517599D01*
X473364Y517544D01*
X473457Y517435D01*
X473493Y517416D01*
X473520Y517387D01*
X473574Y517347D01*
X473859Y517213D01*
X474121Y517037D01*
X474312Y516999D01*
X474321Y516995D01*
X474357Y516977D01*
X474361Y516977D01*
X474488Y516917D01*
X474803Y516902D01*
X475112Y516840D01*
X487206D01*
X487351Y516869D01*
X487499Y516857D01*
X487843Y516967D01*
X488197Y517037D01*
X488320Y517120D01*
X488461Y517165D01*
X488737Y517398D01*
X489037Y517599D01*
X489092Y517681D01*
X489114Y517696D01*
X489148Y517746D01*
X489232Y517818D01*
X489310Y517915D01*
X489349Y517991D01*
X489911Y518245D01*
X490171Y518265D01*
X490431Y518245D01*
X490993Y517991D01*
X491032Y517915D01*
X491110Y517818D01*
X491194Y517746D01*
X491228Y517696D01*
X491250Y517681D01*
X491305Y517599D01*
X491605Y517398D01*
X491881Y517165D01*
X492022Y517120D01*
X492145Y517037D01*
X492499Y516967D01*
X492843Y516857D01*
X492991Y516869D01*
X493136Y516840D01*
X580571D01*
X580821Y516890D01*
X581077D01*
X581312Y516988D01*
X581562Y517037D01*
X581774Y517179D01*
X582010Y517277D01*
X582191Y517457D01*
X582403Y517599D01*
X582544Y517811D01*
X582725Y517991D01*
X582822Y518227D01*
X582964Y518439D01*
X583014Y518689D01*
X583111Y518925D01*
X583364Y520195D01*
Y520437D01*
X584282Y520817D01*
X585211Y521746D01*
X585303Y521968D01*
X586007Y521714D01*
D02*
G37*
G36*
X655574Y501142D02*
Y491490D01*
X645414Y481330D01*
X641604D01*
X637794Y485140D01*
Y499618D01*
X640334Y502158D01*
X641350Y502920D01*
X653796D01*
X655574Y501142D01*
D02*
G37*
G36*
X685273Y526241D02*
X685472Y526108D01*
X689430Y522150D01*
X689563Y521951D01*
X689610Y521715D01*
X689610Y468847D01*
X650975Y430212D01*
X650260Y429280D01*
X648970Y427990D01*
Y426646D01*
X648724Y424777D01*
Y397264D01*
X645719Y394259D01*
X638810Y387350D01*
Y385565D01*
X638763Y385329D01*
X638630Y385129D01*
X638053Y384552D01*
X637550Y383339D01*
Y382025D01*
X638053Y380812D01*
X638630Y380235D01*
X638763Y380035D01*
X638810Y379799D01*
Y333961D01*
X638763Y333725D01*
X638630Y333525D01*
X638053Y332948D01*
X637550Y331735D01*
Y330421D01*
X638053Y329208D01*
X638630Y328631D01*
X638763Y328431D01*
X638810Y328195D01*
Y323961D01*
X638763Y323725D01*
X638630Y323525D01*
X638053Y322948D01*
X637550Y321735D01*
Y320421D01*
X638053Y319208D01*
X638630Y318631D01*
X638763Y318431D01*
X638810Y318195D01*
Y313961D01*
X638763Y313725D01*
X638630Y313525D01*
X638053Y312948D01*
X637550Y311735D01*
Y310421D01*
X638053Y309208D01*
X638630Y308631D01*
X638763Y308431D01*
X638810Y308195D01*
Y284772D01*
Y280670D01*
X608330Y250190D01*
Y248970D01*
Y214394D01*
X607897Y213960D01*
X607394Y212747D01*
Y211433D01*
X607897Y210220D01*
X608330Y209786D01*
Y202534D01*
X607897Y202100D01*
X607394Y200887D01*
Y199573D01*
X607897Y198360D01*
X608330Y197926D01*
Y196928D01*
Y106680D01*
X594360Y92710D01*
Y81280D01*
X591820Y78740D01*
X579120D01*
X577925Y79935D01*
Y93980D01*
X577629Y95467D01*
X576787Y96727D01*
X566627Y106887D01*
X565380Y107720D01*
X552630Y120470D01*
X552497Y120669D01*
X552450Y120905D01*
Y129695D01*
X552497Y129931D01*
X552610Y130101D01*
X552617Y130118D01*
X552709Y130210D01*
X553212Y131423D01*
Y132737D01*
X552850Y133611D01*
X552850Y133612D01*
X552709Y133950D01*
X552617Y134042D01*
X552610Y134059D01*
X552497Y134229D01*
X552450Y134465D01*
Y163402D01*
Y225718D01*
X553050Y226001D01*
X553720Y226107D01*
X554506Y225321D01*
X555720Y224818D01*
X557034D01*
X558247Y225321D01*
X559176Y226250D01*
X559679Y227463D01*
Y228777D01*
X559176Y229991D01*
X558247Y230919D01*
X557034Y231422D01*
X555720D01*
X554506Y230919D01*
X553720Y230133D01*
X553050Y230239D01*
X552450Y230522D01*
Y303551D01*
X553720Y304292D01*
X554333Y304038D01*
X555647D01*
X556860Y304541D01*
X557789Y305470D01*
X558292Y306683D01*
X559486Y306500D01*
X559486Y305223D01*
X559989Y304010D01*
X560918Y303081D01*
X562131Y302578D01*
X563445D01*
X564658Y303081D01*
X565587Y304010D01*
X566090Y305223D01*
Y306537D01*
X565587Y307750D01*
X564658Y308679D01*
X563445Y309182D01*
X562131D01*
X560918Y308679D01*
X559989Y307750D01*
X559486Y306537D01*
X558292Y306720D01*
X558292Y307997D01*
X557789Y309210D01*
X556860Y310139D01*
X555647Y310642D01*
X554333D01*
X553720Y310388D01*
X552450Y311129D01*
Y322580D01*
X560070Y330200D01*
Y361769D01*
X561340Y362406D01*
X562131Y362078D01*
X563445D01*
X564658Y362581D01*
X565587Y363510D01*
X566090Y364723D01*
Y366037D01*
X565587Y367250D01*
X564658Y368179D01*
X563445Y368682D01*
X562131D01*
X561340Y368354D01*
X560070Y368991D01*
Y370269D01*
X561340Y370906D01*
X562131Y370578D01*
X563445D01*
X564658Y371081D01*
X565587Y372010D01*
X566090Y373223D01*
Y374537D01*
X565587Y375750D01*
X564658Y376679D01*
X563445Y377182D01*
X562131D01*
X561340Y376854D01*
X560070Y377491D01*
Y395769D01*
X561340Y396406D01*
X562131Y396078D01*
X563445D01*
X564658Y396581D01*
X565587Y397510D01*
X566090Y398723D01*
Y400037D01*
X565587Y401250D01*
X564658Y402179D01*
X563445Y402682D01*
X562131D01*
X561340Y402354D01*
X560070Y402991D01*
Y407670D01*
X610870Y458470D01*
X637540D01*
X652469Y473399D01*
X653341Y473038D01*
X654655D01*
X655868Y473541D01*
X656797Y474470D01*
X657300Y475683D01*
Y476997D01*
X656939Y477869D01*
X660400Y481330D01*
Y504240D01*
X655370Y509270D01*
X642192Y509270D01*
X637540Y513922D01*
Y522478D01*
X641350Y526288D01*
X685037D01*
X685273Y526241D01*
D02*
G37*
G36*
X733847Y646286D02*
X732613Y645775D01*
X728922Y643308D01*
X725782Y640168D01*
X723315Y636477D01*
X721616Y632375D01*
X720750Y628020D01*
Y623580D01*
X721616Y619225D01*
X723315Y615123D01*
X725782Y611432D01*
X728922Y608292D01*
X732613Y605825D01*
X736715Y604126D01*
X741070Y603260D01*
X745510D01*
X749865Y604126D01*
X753967Y605825D01*
X757658Y608292D01*
X760798Y611432D01*
X763265Y615123D01*
X763783Y616374D01*
X765053Y616121D01*
Y436470D01*
X717340D01*
X716349Y436273D01*
X715509Y435711D01*
X714947Y434871D01*
X714750Y433880D01*
Y279880D01*
X714947Y278889D01*
X715509Y278049D01*
X716349Y277487D01*
X717340Y277290D01*
X765053D01*
Y85478D01*
X763783Y85226D01*
X763265Y86477D01*
X760798Y90168D01*
X757658Y93308D01*
X753967Y95775D01*
X749865Y97474D01*
X745510Y98340D01*
X741070D01*
X736715Y97474D01*
X732613Y95775D01*
X728922Y93308D01*
X725782Y90168D01*
X723315Y86477D01*
X721616Y82375D01*
X720750Y78020D01*
Y73580D01*
X721616Y69225D01*
X723315Y65123D01*
X725782Y61432D01*
X728922Y58292D01*
X732613Y55825D01*
X733864Y55307D01*
X733612Y54037D01*
X644216D01*
X643690Y55307D01*
X645104Y56721D01*
X646558Y59239D01*
X647310Y62047D01*
Y64953D01*
X646558Y67761D01*
X645104Y70279D01*
X644241Y71142D01*
X644727Y72315D01*
X647700D01*
X649187Y72611D01*
X650447Y73453D01*
X658067Y81073D01*
X658909Y82333D01*
X659205Y83820D01*
X658909Y85307D01*
X658067Y86567D01*
X656807Y87409D01*
X655320Y87705D01*
X653833Y87409D01*
X652573Y86567D01*
X646091Y80085D01*
X629045D01*
X628366Y81355D01*
X628503Y81559D01*
X628700Y82550D01*
Y84418D01*
X628666Y84585D01*
X628678Y84756D01*
X628569Y85076D01*
X628503Y85409D01*
X628427Y85522D01*
X627820Y87788D01*
Y90013D01*
X628427Y92278D01*
X628503Y92391D01*
X628569Y92724D01*
X628596Y92803D01*
X628758Y92965D01*
X628946Y93247D01*
X629169Y93502D01*
X629508Y94089D01*
X631081Y95662D01*
X631669Y96001D01*
X631923Y96224D01*
X632205Y96412D01*
X636831Y101039D01*
X636887Y101123D01*
X636966Y101185D01*
X637166Y101540D01*
X637393Y101879D01*
X637412Y101978D01*
X637431Y102012D01*
X637633Y102063D01*
X638792Y102047D01*
X638861Y101879D01*
X639423Y101039D01*
X640263Y100477D01*
X641254Y100280D01*
X663126D01*
X664117Y100477D01*
X664957Y101039D01*
X665518Y101879D01*
X665621Y102126D01*
X666995Y102126D01*
X667098Y101879D01*
X667659Y101039D01*
X668500Y100477D01*
X669491Y100280D01*
X676910D01*
X677901Y100477D01*
X678741Y101039D01*
X693368Y115665D01*
X693929Y116505D01*
X694126Y117497D01*
X693929Y118488D01*
X693962Y118564D01*
X694315Y119092D01*
X694843Y119445D01*
X694920Y119478D01*
X695911Y119281D01*
X696902Y119478D01*
X697742Y120040D01*
X701601Y123899D01*
X702163Y124739D01*
X702360Y125730D01*
Y219433D01*
X702295Y219759D01*
X702275Y220091D01*
X702197Y220250D01*
X702163Y220424D01*
X701978Y220700D01*
X701832Y221000D01*
X701700Y221117D01*
X701601Y221264D01*
X701324Y221449D01*
X701075Y221669D01*
X699805Y222410D01*
X699638Y222468D01*
X699491Y222566D01*
X699463Y222572D01*
X699451Y222623D01*
Y223821D01*
X699463Y223871D01*
X699491Y223877D01*
X699638Y223975D01*
X699805Y224033D01*
X701075Y224774D01*
X701324Y224995D01*
X701601Y225179D01*
X701699Y225326D01*
X701832Y225444D01*
X701978Y225743D01*
X702163Y226020D01*
X702197Y226193D01*
X702275Y226352D01*
X702295Y226684D01*
X702360Y227011D01*
X702360Y296038D01*
X702163Y297029D01*
X702076Y297238D01*
Y297522D01*
X702163Y297731D01*
X702360Y298722D01*
Y304538D01*
X702163Y305529D01*
X702076Y305738D01*
Y306022D01*
X702163Y306231D01*
X702360Y307222D01*
Y313038D01*
X702163Y314029D01*
X702076Y314238D01*
Y314522D01*
X702163Y314731D01*
X702360Y315722D01*
Y321538D01*
X702163Y322529D01*
X702076Y322738D01*
Y323022D01*
X702163Y323231D01*
X702360Y324222D01*
Y330038D01*
X702163Y331029D01*
X702076Y331238D01*
Y331522D01*
X702163Y331731D01*
X702360Y332722D01*
Y338538D01*
X702163Y339529D01*
X702076Y339738D01*
Y340022D01*
X702163Y340231D01*
X702360Y341222D01*
Y347038D01*
X702163Y348029D01*
X702076Y348238D01*
Y348522D01*
X702163Y348731D01*
X702360Y349722D01*
Y355538D01*
X702163Y356529D01*
X702076Y356738D01*
Y357022D01*
X702163Y357231D01*
X702360Y358222D01*
Y364038D01*
X702163Y365029D01*
X702076Y365238D01*
Y365522D01*
X702163Y365731D01*
X702360Y366722D01*
Y372538D01*
X702163Y373529D01*
X702076Y373738D01*
Y374022D01*
X702163Y374231D01*
X702360Y375222D01*
Y381038D01*
X702163Y382029D01*
X702076Y382238D01*
Y382522D01*
X702163Y382731D01*
X702360Y383722D01*
Y389538D01*
X702163Y390529D01*
X702076Y390738D01*
Y391022D01*
X702163Y391231D01*
X702360Y392222D01*
Y398038D01*
X702163Y399029D01*
X702076Y399238D01*
Y399522D01*
X702163Y399731D01*
X702360Y400722D01*
Y406538D01*
X702163Y407529D01*
X702076Y407738D01*
Y408022D01*
X702163Y408231D01*
X702360Y409222D01*
Y415038D01*
X702163Y416029D01*
X702076Y416238D01*
Y416522D01*
X702163Y416731D01*
X702360Y417722D01*
Y424377D01*
X708929Y430946D01*
X709490Y431787D01*
X709687Y432778D01*
X709490Y433769D01*
X709582Y433995D01*
X709861Y434411D01*
X710277Y434690D01*
X710503Y434782D01*
X711494Y434585D01*
X712485Y434782D01*
X713326Y435343D01*
X731416Y453433D01*
X731574Y453670D01*
X731770Y453875D01*
X731852Y454086D01*
X731977Y454274D01*
X732033Y454552D01*
X732135Y454817D01*
X732130Y455043D01*
X732146Y455121D01*
X732200Y455268D01*
X732282Y455416D01*
X732467Y455678D01*
X732729Y455939D01*
X732990Y456125D01*
X733139Y456207D01*
X733286Y456261D01*
X733364Y456276D01*
X733590Y456271D01*
X733854Y456374D01*
X734133Y456429D01*
X734321Y456555D01*
X734532Y456637D01*
X734737Y456833D01*
X734973Y456991D01*
X748591Y470609D01*
X749153Y471449D01*
X749350Y472440D01*
Y481324D01*
X749300Y481574D01*
Y481829D01*
X749202Y482065D01*
X749153Y482315D01*
X749011Y482527D01*
X748913Y482762D01*
X748733Y482943D01*
X748591Y483155D01*
X748379Y483297D01*
X748199Y483477D01*
X747429Y483991D01*
X747193Y484089D01*
X746981Y484231D01*
X746731Y484280D01*
X746495Y484378D01*
X746448D01*
X745997Y484980D01*
X745932Y485140D01*
X745997Y485300D01*
X746448Y485902D01*
X746495D01*
X746731Y486000D01*
X746981Y486049D01*
X747193Y486191D01*
X747429Y486289D01*
X748199Y486803D01*
X748379Y486983D01*
X748591Y487125D01*
X748733Y487337D01*
X748913Y487518D01*
X749011Y487753D01*
X749153Y487965D01*
X749202Y488215D01*
X749300Y488451D01*
Y488706D01*
X749350Y488956D01*
Y575310D01*
X749153Y576301D01*
X748591Y577141D01*
X706681Y619051D01*
X705841Y619613D01*
X704850Y619810D01*
X698402D01*
X698152Y619760D01*
X697896D01*
X697661Y619662D01*
X697411Y619613D01*
X697198Y619471D01*
X696963Y619373D01*
X696783Y619193D01*
X696571Y619051D01*
X696429Y618839D01*
X696248Y618659D01*
X695839Y618046D01*
X695741Y617810D01*
X695599Y617598D01*
X695550Y617348D01*
X695452Y617112D01*
Y617065D01*
X694850Y616614D01*
X694690Y616549D01*
X694530Y616614D01*
X693928Y617065D01*
Y617112D01*
X693830Y617348D01*
X693781Y617598D01*
X693639Y617810D01*
X693541Y618046D01*
X693132Y618659D01*
X692951Y618839D01*
X692810Y619051D01*
X692597Y619193D01*
X692417Y619373D01*
X692181Y619471D01*
X691969Y619613D01*
X691719Y619662D01*
X691484Y619760D01*
X691228D01*
X690978Y619810D01*
X673002D01*
X672752Y619760D01*
X672496D01*
X672261Y619662D01*
X672011Y619613D01*
X671799Y619471D01*
X671563Y619373D01*
X671383Y619193D01*
X671171Y619051D01*
X671029Y618839D01*
X670848Y618659D01*
X670439Y618046D01*
X670341Y617810D01*
X670199Y617598D01*
X670150Y617348D01*
X670052Y617112D01*
Y617065D01*
X669450Y616614D01*
X669290Y616549D01*
X669130Y616614D01*
X668528Y617065D01*
Y617112D01*
X668430Y617348D01*
X668381Y617598D01*
X668239Y617810D01*
X668141Y618046D01*
X667732Y618659D01*
X667551Y618839D01*
X667410Y619051D01*
X667197Y619193D01*
X667017Y619373D01*
X666781Y619471D01*
X666569Y619613D01*
X666319Y619662D01*
X666084Y619760D01*
X665828D01*
X665578Y619810D01*
X647602D01*
X647352Y619760D01*
X647096D01*
X646861Y619662D01*
X646611Y619613D01*
X646398Y619471D01*
X646163Y619373D01*
X645983Y619193D01*
X645770Y619051D01*
X645629Y618839D01*
X645448Y618659D01*
X645039Y618046D01*
X644941Y617810D01*
X644799Y617598D01*
X644750Y617348D01*
X644652Y617112D01*
Y617065D01*
X644050Y616614D01*
X643890Y616549D01*
X643730Y616614D01*
X643128Y617065D01*
Y617112D01*
X643030Y617348D01*
X642981Y617598D01*
X642839Y617810D01*
X642741Y618046D01*
X642332Y618659D01*
X642151Y618839D01*
X642010Y619051D01*
X641797Y619193D01*
X641617Y619373D01*
X641381Y619471D01*
X641169Y619613D01*
X640919Y619662D01*
X640684Y619760D01*
X640428D01*
X640178Y619810D01*
X622202D01*
X621952Y619760D01*
X621697D01*
X621461Y619662D01*
X621211Y619613D01*
X620998Y619471D01*
X620763Y619373D01*
X620583Y619193D01*
X620370Y619051D01*
X620229Y618839D01*
X620048Y618659D01*
X619639Y618046D01*
X619541Y617810D01*
X619399Y617598D01*
X619350Y617348D01*
X619252Y617112D01*
Y617065D01*
X618650Y616614D01*
X618490Y616549D01*
X618330Y616614D01*
X617728Y617065D01*
Y617112D01*
X617630Y617348D01*
X617581Y617598D01*
X617439Y617810D01*
X617341Y618046D01*
X616932Y618659D01*
X616751Y618839D01*
X616609Y619051D01*
X616397Y619193D01*
X616217Y619373D01*
X615981Y619471D01*
X615769Y619613D01*
X615519Y619662D01*
X615284Y619760D01*
X615028D01*
X614778Y619810D01*
X590550D01*
X589559Y619613D01*
X588719Y619051D01*
X568423Y598755D01*
X567932Y598021D01*
X567197Y597530D01*
X548059Y578392D01*
X544344D01*
X543858Y579565D01*
X545391Y581099D01*
X545953Y581939D01*
X546150Y582930D01*
Y622300D01*
X545953Y623291D01*
X545391Y624131D01*
X541581Y627941D01*
X540741Y628503D01*
X539750Y628700D01*
X407572D01*
X407322Y628650D01*
X407066D01*
X406831Y628552D01*
X406581Y628503D01*
X406368Y628361D01*
X406133Y628263D01*
X405953Y628083D01*
X405741Y627941D01*
X405599Y627729D01*
X405418Y627549D01*
X405009Y626936D01*
X404911Y626700D01*
X404769Y626488D01*
X404720Y626238D01*
X404622Y626002D01*
Y625955D01*
X404020Y625504D01*
X403860Y625439D01*
X403700Y625504D01*
X403098Y625955D01*
Y626002D01*
X403000Y626238D01*
X402951Y626488D01*
X402809Y626700D01*
X402711Y626936D01*
X402302Y627549D01*
X402121Y627729D01*
X401979Y627941D01*
X401767Y628083D01*
X401587Y628263D01*
X401351Y628361D01*
X401139Y628503D01*
X400889Y628552D01*
X400653Y628650D01*
X400398D01*
X400148Y628700D01*
X382172D01*
X381922Y628650D01*
X381666D01*
X381431Y628552D01*
X381181Y628503D01*
X380969Y628361D01*
X380733Y628263D01*
X380553Y628083D01*
X380340Y627941D01*
X380199Y627729D01*
X380018Y627549D01*
X379609Y626936D01*
X379511Y626700D01*
X379369Y626488D01*
X379320Y626238D01*
X379222Y626002D01*
Y625955D01*
X378620Y625504D01*
X378460Y625439D01*
X378300Y625504D01*
X377698Y625955D01*
Y626002D01*
X377600Y626238D01*
X377551Y626488D01*
X377409Y626700D01*
X377311Y626936D01*
X376902Y627549D01*
X376721Y627729D01*
X376580Y627941D01*
X376367Y628083D01*
X376187Y628263D01*
X375951Y628361D01*
X375739Y628503D01*
X375489Y628552D01*
X375254Y628650D01*
X374999D01*
X374748Y628700D01*
X356772D01*
X356522Y628650D01*
X356267D01*
X356031Y628552D01*
X355781Y628503D01*
X355569Y628361D01*
X355333Y628263D01*
X355153Y628083D01*
X354940Y627941D01*
X354799Y627729D01*
X354618Y627549D01*
X354209Y626936D01*
X354111Y626700D01*
X353969Y626488D01*
X353920Y626238D01*
X353822Y626002D01*
Y625955D01*
X353220Y625504D01*
X353060Y625439D01*
X352900Y625504D01*
X352298Y625955D01*
Y626002D01*
X352200Y626238D01*
X352151Y626488D01*
X352009Y626700D01*
X351911Y626936D01*
X351502Y627549D01*
X351321Y627729D01*
X351180Y627941D01*
X350967Y628083D01*
X350787Y628263D01*
X350551Y628361D01*
X350339Y628503D01*
X350089Y628552D01*
X349854Y628650D01*
X349598D01*
X349348Y628700D01*
X341630D01*
X340639Y628503D01*
X339799Y627941D01*
X327099Y615241D01*
X326537Y614401D01*
X326340Y613410D01*
Y582733D01*
X322489Y578881D01*
X321315Y579367D01*
Y585796D01*
X321056Y587764D01*
X320297Y589599D01*
X319088Y591174D01*
X317513Y592382D01*
X315679Y593142D01*
X313710Y593401D01*
X311742Y593142D01*
X309908Y592382D01*
X308333Y591174D01*
X307124Y589599D01*
X306364Y587764D01*
X306317Y587406D01*
X305031Y587364D01*
X304984Y587598D01*
X303676Y589556D01*
X301719Y590864D01*
X299410Y591323D01*
X297101Y590864D01*
X295144Y589556D01*
X293836Y587598D01*
X293377Y585290D01*
X293836Y582981D01*
X295144Y581023D01*
X297101Y579716D01*
X299410Y579256D01*
X301719Y579716D01*
X303676Y581023D01*
X304835Y582758D01*
X305893Y582629D01*
X306105Y582547D01*
Y574796D01*
X306364Y572828D01*
X307124Y570993D01*
X308333Y569418D01*
X309908Y568210D01*
X310149Y568110D01*
X310758Y566873D01*
X310758Y566872D01*
X310668Y566419D01*
X310561Y565881D01*
Y565881D01*
X310267Y565469D01*
X308981Y565042D01*
X308141Y565603D01*
X307150Y565801D01*
X306158Y565603D01*
X305318Y565042D01*
X304991Y564715D01*
X303716Y564942D01*
X303202Y565711D01*
X302362Y566273D01*
X301371Y566470D01*
X283533D01*
X283282Y566420D01*
X283027D01*
X282792Y566322D01*
X282541Y566273D01*
X282534Y566268D01*
X282394Y566254D01*
X281550Y566425D01*
X281071Y566770D01*
X281044Y566799D01*
X280810Y567364D01*
X279881Y568293D01*
X278667Y568795D01*
X277354D01*
X276140Y568293D01*
X275705Y567857D01*
X274875Y567506D01*
X274045Y567857D01*
X273610Y568293D01*
X272396Y568795D01*
X271082D01*
X269869Y568293D01*
X268940Y567364D01*
X268570Y566470D01*
X266253D01*
X266003Y566420D01*
X265748D01*
X265512Y566322D01*
X265262Y566273D01*
X265103Y566166D01*
X264854Y566050D01*
X264814Y566033D01*
X263506D01*
X263466Y566050D01*
X263217Y566166D01*
X263058Y566273D01*
X262808Y566322D01*
X262572Y566420D01*
X262317D01*
X262067Y566470D01*
X249428D01*
X248437Y566273D01*
X248264Y566157D01*
X247996Y566425D01*
X246783Y566928D01*
X245469D01*
X244256Y566425D01*
X244094Y566264D01*
X243932Y566425D01*
X242719Y566928D01*
X241405D01*
X240192Y566425D01*
X240093Y566327D01*
X239995Y566425D01*
X238782Y566928D01*
X237468D01*
X236255Y566425D01*
X235987Y566157D01*
X235814Y566273D01*
X234823Y566470D01*
X232754D01*
X231763Y566273D01*
X230923Y565711D01*
X230361Y564871D01*
X230341Y564769D01*
X230145Y564297D01*
X228882Y564046D01*
X228553Y564376D01*
X227712Y564937D01*
X226721Y565134D01*
X225730Y564937D01*
X224890Y564376D01*
X224560Y564046D01*
X223794Y564199D01*
X223210Y564508D01*
X223102Y564769D01*
X223081Y564871D01*
X222520Y565711D01*
X221680Y566273D01*
X220689Y566470D01*
X220148D01*
X215950Y570668D01*
Y588010D01*
X215753Y589001D01*
X215191Y589841D01*
X203761Y601271D01*
X202921Y601833D01*
X201930Y602030D01*
X129540D01*
X128549Y601833D01*
X127709Y601271D01*
X122121Y595683D01*
X121559Y594843D01*
X121362Y593852D01*
Y566699D01*
X120092Y565850D01*
X119753Y565991D01*
X118439D01*
X117226Y565488D01*
X116297Y564560D01*
X115794Y563346D01*
Y562032D01*
X116297Y560819D01*
X117226Y559890D01*
X118439Y559387D01*
X119753D01*
X120092Y559528D01*
X121362Y558679D01*
Y555819D01*
X120092Y554971D01*
X119753Y555111D01*
X118439D01*
X117226Y554608D01*
X116297Y553680D01*
X115794Y552466D01*
Y551152D01*
X116297Y549939D01*
X117226Y549010D01*
X118439Y548507D01*
X119753D01*
X120092Y548648D01*
X121362Y547799D01*
Y540261D01*
X120189Y539775D01*
X119351Y540613D01*
X119290Y540653D01*
X118876Y541067D01*
X118336Y541291D01*
X118275Y541332D01*
X118204Y541346D01*
X117663Y541570D01*
X117077D01*
X117006Y541584D01*
X116935Y541570D01*
X116349D01*
X115808Y541346D01*
X115737Y541332D01*
X115676Y541291D01*
X115136Y541067D01*
X114722Y540653D01*
X114661Y540613D01*
X114621Y540552D01*
X114207Y540138D01*
X113983Y539598D01*
X113942Y539537D01*
X113928Y539466D01*
X113704Y538925D01*
Y538339D01*
X113690Y538268D01*
X113704Y538197D01*
Y537611D01*
X113928Y537070D01*
X113942Y536999D01*
X113983Y536938D01*
X114207Y536398D01*
X114621Y535984D01*
X114661Y535923D01*
X123198Y527386D01*
X122743Y526045D01*
X122104Y525961D01*
X119401Y528664D01*
X119037Y528908D01*
X118876Y529068D01*
X118666Y529155D01*
X118302Y529399D01*
X117873Y529484D01*
X117663Y529571D01*
X117435D01*
X117006Y529656D01*
X116577Y529571D01*
X116349D01*
X116139Y529484D01*
X114824Y529589D01*
X114105Y530665D01*
X108630Y536139D01*
X107554Y536858D01*
X106285Y537111D01*
X97669D01*
X97533Y537314D01*
Y538627D01*
X97030Y539841D01*
X96448Y540424D01*
X96203Y541160D01*
X96425Y542011D01*
X96975Y542561D01*
X97478Y543775D01*
Y545088D01*
X96975Y546302D01*
X96046Y547231D01*
X94832Y547733D01*
X93519D01*
X92305Y547231D01*
X92078Y547003D01*
X90808Y547529D01*
Y547924D01*
X90305Y549138D01*
X90006Y549437D01*
X89499Y550267D01*
X90006Y551097D01*
X90305Y551396D01*
X90808Y552610D01*
Y553923D01*
X90305Y555137D01*
X89376Y556066D01*
X88163Y556569D01*
X86849D01*
X85635Y556066D01*
X84706Y555137D01*
X84204Y553923D01*
Y552610D01*
X84706Y551396D01*
X85006Y551097D01*
X85513Y550267D01*
X85006Y549437D01*
X84706Y549138D01*
X84204Y547924D01*
Y546610D01*
X84706Y545397D01*
X85635Y544468D01*
X86849Y543965D01*
X88163D01*
X89376Y544468D01*
X89604Y544695D01*
X90874Y544169D01*
Y543775D01*
X91376Y542561D01*
X91959Y541978D01*
X92204Y541242D01*
X91982Y540391D01*
X91432Y539841D01*
X90929Y538627D01*
Y537314D01*
X90794Y537111D01*
X77331D01*
X76859Y537583D01*
X76799Y537623D01*
X76385Y538037D01*
X75844Y538261D01*
X75783Y538302D01*
X75712Y538316D01*
X75171Y538540D01*
X74586D01*
X74514Y538554D01*
X74443Y538540D01*
X73857D01*
X73317Y538316D01*
X73245Y538302D01*
X73185Y538261D01*
X72644Y538037D01*
X72230Y537623D01*
X72169Y537583D01*
X72129Y537522D01*
X71715Y537108D01*
X71491Y536567D01*
X71451Y536507D01*
X71436Y536436D01*
X71212Y535895D01*
Y535309D01*
X71198Y535238D01*
X71212Y535167D01*
Y534581D01*
X71436Y534040D01*
X71451Y533969D01*
X71491Y533908D01*
X71715Y533368D01*
X72016Y533067D01*
X72236Y532706D01*
X72169Y531581D01*
X72129Y531520D01*
X71715Y531106D01*
X71491Y530565D01*
X71451Y530505D01*
X71436Y530434D01*
X71212Y529893D01*
Y529307D01*
X71198Y529236D01*
Y521116D01*
X71451Y519847D01*
X72169Y518771D01*
X84302Y506639D01*
X85378Y505920D01*
X86646Y505667D01*
X93755D01*
X93937Y505395D01*
Y504081D01*
X94440Y502867D01*
X95369Y501939D01*
X96582Y501436D01*
X97896D01*
X99110Y501939D01*
X100039Y502867D01*
X100541Y504081D01*
Y505395D01*
X100723Y505667D01*
X109589D01*
X110858Y505920D01*
X111934Y506639D01*
X112086Y506791D01*
X113332Y506543D01*
X113392Y506398D01*
X114321Y505469D01*
X115534Y504966D01*
X116848D01*
X118062Y505469D01*
X118991Y506398D01*
X119359Y507286D01*
X120170Y507310D01*
X120667Y507194D01*
X121116Y506110D01*
X122044Y505181D01*
X123258Y504678D01*
X124572D01*
X125785Y505181D01*
X126714Y506110D01*
X127168Y507206D01*
X127724Y507467D01*
X128487Y507683D01*
X130760Y505410D01*
X131836Y504691D01*
X133105Y504439D01*
X138586D01*
X139271Y503169D01*
X138977Y502459D01*
Y501146D01*
X139480Y499932D01*
X140409Y499003D01*
X141622Y498501D01*
X142936D01*
X144149Y499003D01*
X145078Y499932D01*
X145581Y501146D01*
Y502459D01*
X145287Y503169D01*
X145972Y504439D01*
X161377D01*
X161482Y504355D01*
X162121Y503169D01*
X162106Y503132D01*
X162066Y503072D01*
X162051Y503000D01*
X161827Y502459D01*
Y501874D01*
X161813Y501803D01*
Y498896D01*
X161681Y498837D01*
X160408Y498659D01*
X159480Y499588D01*
X158266Y500090D01*
X156952D01*
X155739Y499588D01*
X154810Y498659D01*
X154307Y497445D01*
Y496131D01*
X154810Y494918D01*
X155739Y493989D01*
X155978Y493890D01*
X156276Y492392D01*
X154354Y490470D01*
X153635Y489394D01*
X153383Y488125D01*
Y441353D01*
X151304Y439274D01*
X151130D01*
X151059Y439260D01*
X150473D01*
X149932Y439036D01*
X149861Y439022D01*
X149800Y438981D01*
X149260Y438757D01*
X148846Y438343D01*
X148785Y438303D01*
X148745Y438242D01*
X148331Y437828D01*
X148107Y437288D01*
X148066Y437227D01*
X148052Y437156D01*
X147828Y436615D01*
Y436029D01*
X147814Y435958D01*
X147828Y435887D01*
Y435301D01*
X148052Y434760D01*
X148066Y434689D01*
X148107Y434628D01*
X148331Y434087D01*
X148531Y433887D01*
X148316Y432988D01*
X148236Y432880D01*
X148005Y432617D01*
X137979D01*
X137453Y433887D01*
X137653Y434087D01*
X138156Y435301D01*
Y436615D01*
X137653Y437828D01*
X136724Y438757D01*
X135511Y439260D01*
X134197D01*
X132983Y438757D01*
X132054Y437828D01*
X131552Y436615D01*
Y435301D01*
X132054Y434087D01*
X132254Y433887D01*
X131728Y432617D01*
X128690D01*
X127995Y433887D01*
X128282Y434580D01*
Y435894D01*
X127779Y437107D01*
X126850Y438036D01*
X125637Y438539D01*
X124323D01*
X123109Y438036D01*
X122181Y437107D01*
X121678Y435894D01*
Y434580D01*
X122181Y433366D01*
X122759Y432788D01*
X123053Y432162D01*
X122850Y431170D01*
X120517Y428837D01*
X111893D01*
X96097Y444633D01*
Y455930D01*
X95840Y457226D01*
X95105Y458325D01*
X91767Y461664D01*
Y467127D01*
X91681Y467556D01*
Y467783D01*
X91594Y467994D01*
X91509Y468423D01*
X91265Y468787D01*
X91179Y468997D01*
X91018Y469158D01*
X90774Y469522D01*
X90410Y469765D01*
X90250Y469926D01*
X90040Y470013D01*
X89676Y470256D01*
X89246Y470341D01*
X89036Y470429D01*
X88809D01*
X88379Y470514D01*
X87950Y470429D01*
X87722D01*
X87512Y470341D01*
X87083Y470256D01*
X86719Y470013D01*
X86509Y469926D01*
X86348Y469765D01*
X85984Y469522D01*
X85741Y469158D01*
X85580Y468997D01*
X85493Y468787D01*
X85250Y468423D01*
X85164Y467994D01*
X85077Y467783D01*
Y467556D01*
X84992Y467127D01*
Y460261D01*
X85250Y458965D01*
X85984Y457865D01*
X88633Y455216D01*
X87914Y454140D01*
X87271Y454406D01*
X85957D01*
X84744Y453903D01*
X83815Y452974D01*
X83312Y451761D01*
Y450447D01*
X83815Y449234D01*
X84744Y448305D01*
X85957Y447802D01*
X87271D01*
X88053Y448126D01*
X89323Y447483D01*
Y443230D01*
X89580Y441934D01*
X90315Y440835D01*
X97996Y433153D01*
X97277Y432077D01*
X96898Y432233D01*
X95585D01*
X94371Y431731D01*
X93442Y430802D01*
X92939Y429588D01*
Y428275D01*
X93442Y427061D01*
X94371Y426132D01*
X95585Y425629D01*
X96898D01*
X98112Y426132D01*
X99041Y427061D01*
X99543Y428275D01*
Y429588D01*
X99387Y429967D01*
X100463Y430686D01*
X108095Y423055D01*
X109194Y422320D01*
X110490Y422063D01*
X121920D01*
X123216Y422320D01*
X124315Y423055D01*
X127103Y425843D01*
X151130D01*
X151559Y425928D01*
X151787D01*
X151963Y426001D01*
X152400Y425914D01*
X153903D01*
X155172Y426166D01*
X156248Y426885D01*
X163230Y433868D01*
X163949Y434943D01*
X164202Y436213D01*
Y483567D01*
X170770Y490136D01*
X171944Y489650D01*
Y488678D01*
X172196Y487409D01*
X172915Y486333D01*
X180937Y478311D01*
X180924Y478136D01*
X180437Y477016D01*
X180419Y477012D01*
X180191D01*
X179981Y476925D01*
X179552Y476840D01*
X179188Y476596D01*
X178978Y476509D01*
X178817Y476348D01*
X178453Y476105D01*
X178209Y475741D01*
X178049Y475580D01*
X177962Y475370D01*
X177718Y475006D01*
X177633Y474577D01*
X177546Y474367D01*
Y474139D01*
X177461Y473710D01*
X177546Y473281D01*
Y473053D01*
X177633Y472843D01*
X177718Y472414D01*
X177962Y472050D01*
X178049Y471840D01*
X178209Y471679D01*
X178453Y471315D01*
X183533Y466235D01*
X184632Y465500D01*
X185928Y465243D01*
X198120D01*
X199416Y465500D01*
X199752Y465725D01*
X201022Y465046D01*
Y438283D01*
X198124Y435385D01*
X198084Y435324D01*
X197670Y434910D01*
X197446Y434370D01*
X197405Y434309D01*
X197391Y434238D01*
X197167Y433697D01*
Y433111D01*
X197153Y433040D01*
X197167Y432969D01*
Y432383D01*
X197391Y431842D01*
X197405Y431771D01*
X197446Y431710D01*
X197670Y431170D01*
X198084Y430756D01*
X198124Y430695D01*
X198185Y430655D01*
X198599Y430241D01*
X199139Y430017D01*
X199200Y429976D01*
X199271Y429962D01*
X199812Y429738D01*
X200398D01*
X200469Y429724D01*
X200540Y429738D01*
X201126D01*
X201667Y429962D01*
X201738Y429976D01*
X201799Y430017D01*
X202339Y430241D01*
X202753Y430655D01*
X202814Y430695D01*
X206683Y434564D01*
X207402Y435640D01*
X207654Y436909D01*
Y486719D01*
X207402Y487988D01*
X206683Y489064D01*
X197715Y498032D01*
Y502831D01*
X197463Y504100D01*
X196744Y505176D01*
X188946Y512974D01*
X187870Y513693D01*
X186601Y513945D01*
X180955D01*
X175520Y519380D01*
X176046Y520650D01*
X176454D01*
X177446Y520847D01*
X178286Y521409D01*
X178847Y522249D01*
X179301Y523345D01*
X179967Y523479D01*
X180634Y523345D01*
X181088Y522249D01*
X181649Y521409D01*
X182489Y520847D01*
X183480Y520650D01*
X185954D01*
X186945Y520847D01*
X187786Y521409D01*
X188347Y522249D01*
X188801Y523345D01*
X189467Y523479D01*
X190133Y523345D01*
X190588Y522249D01*
X191149Y521409D01*
X198713Y513845D01*
X198942Y513692D01*
X199140Y513500D01*
X199358Y513414D01*
X199553Y513284D01*
X199824Y513230D01*
X200080Y513128D01*
X200314Y513132D01*
X200544Y513087D01*
X200815Y513140D01*
X201091Y513145D01*
X201971Y513335D01*
X202220Y512734D01*
X202803Y512152D01*
X203006Y511324D01*
X202786Y510581D01*
X202181Y509975D01*
X201678Y508761D01*
Y507448D01*
X202181Y506234D01*
X203110Y505305D01*
X204323Y504803D01*
X205637D01*
X206850Y505305D01*
X207779Y506234D01*
X208282Y507448D01*
Y508761D01*
X207779Y509975D01*
X207197Y510558D01*
X206993Y511386D01*
X207213Y512128D01*
X207414Y512329D01*
X207873Y512480D01*
X208684Y512380D01*
X208994Y512253D01*
X209028Y512202D01*
X213783Y507448D01*
Y505460D01*
X214040Y504164D01*
X214775Y503065D01*
X217593Y500247D01*
Y490220D01*
X217850Y488924D01*
X218585Y487825D01*
X355745Y350665D01*
X356844Y349930D01*
X358140Y349673D01*
X501650D01*
X502946Y349930D01*
X504045Y350665D01*
X530715Y377335D01*
X531450Y378434D01*
X531707Y379730D01*
Y411347D01*
X567545Y447185D01*
X567789Y447549D01*
X567949Y447710D01*
X568036Y447920D01*
X568280Y448284D01*
X568365Y448713D01*
X568452Y448923D01*
Y449151D01*
X568537Y449580D01*
X568452Y450009D01*
Y450237D01*
X568365Y450447D01*
X568280Y450876D01*
X568036Y451240D01*
X567949Y451450D01*
X567789Y451611D01*
X567545Y451975D01*
X567181Y452219D01*
X567020Y452379D01*
X566810Y452466D01*
X566446Y452710D01*
X566017Y452795D01*
X565807Y452882D01*
X565579D01*
X565150Y452967D01*
X564721Y452882D01*
X564493D01*
X564283Y452795D01*
X563854Y452710D01*
X563490Y452466D01*
X563280Y452379D01*
X563119Y452219D01*
X562755Y451975D01*
X525925Y415145D01*
X525190Y414046D01*
X524933Y412750D01*
Y381133D01*
X500247Y356447D01*
X359543D01*
X224367Y491623D01*
Y501650D01*
X224110Y502946D01*
X223375Y504045D01*
X221109Y506311D01*
X221229Y506955D01*
X222604Y507694D01*
X222609Y507691D01*
X223923D01*
X225136Y508194D01*
X226065Y509123D01*
X226568Y510337D01*
Y510490D01*
X229617D01*
X230608Y510687D01*
X231448Y511249D01*
X231797Y511597D01*
X232058Y511706D01*
X232342D01*
X232603Y511597D01*
X232952Y511249D01*
X233792Y510687D01*
X234783Y510490D01*
X236523D01*
X236882Y509820D01*
X236552Y509029D01*
X236203Y508522D01*
X235156Y508088D01*
X234227Y507159D01*
X233724Y505946D01*
Y504632D01*
X234227Y503419D01*
X235156Y502490D01*
X236369Y501987D01*
X237683D01*
X238896Y502490D01*
X239825Y503419D01*
X240328Y504632D01*
Y505946D01*
X240232Y506178D01*
X241080Y507448D01*
X241493D01*
X242706Y507951D01*
X242832Y508076D01*
X243662Y508855D01*
X244491Y508076D01*
X244617Y507951D01*
X245831Y507448D01*
X247144D01*
X248358Y507951D01*
X248484Y508076D01*
X249313Y508855D01*
X250143Y508076D01*
X250269Y507951D01*
X251482Y507448D01*
X252796D01*
X254009Y507951D01*
X254135Y508076D01*
X254965Y508855D01*
X255794Y508076D01*
X255920Y507951D01*
X257134Y507448D01*
X258447D01*
X259661Y507951D01*
X259787Y508076D01*
X260616Y508855D01*
X261446Y508076D01*
X261572Y507951D01*
X262785Y507448D01*
X264099D01*
X265312Y507951D01*
X266241Y508880D01*
X266744Y510093D01*
Y510490D01*
X271284D01*
X272275Y510687D01*
X273115Y511249D01*
X273677Y512089D01*
X273771Y512316D01*
X275145D01*
X275239Y512089D01*
X275801Y511249D01*
X276641Y510687D01*
X277632Y510490D01*
X288276D01*
X289267Y510687D01*
X290107Y511249D01*
X290669Y512089D01*
X290834Y512489D01*
X292209D01*
X292375Y512089D01*
X292936Y511249D01*
X293776Y510687D01*
X294767Y510490D01*
X301344D01*
X302335Y510687D01*
X303175Y511249D01*
X303737Y512089D01*
X303831Y512316D01*
X305205D01*
X305299Y512089D01*
X305861Y511249D01*
X306701Y510687D01*
X307692Y510490D01*
X309345D01*
X310336Y510687D01*
X311176Y511249D01*
X311738Y512089D01*
X311832Y512316D01*
X313207D01*
X313300Y512089D01*
X313862Y511249D01*
X314702Y510687D01*
X315693Y510490D01*
X317346D01*
X318337Y510687D01*
X319177Y511249D01*
X319739Y512089D01*
X319833Y512316D01*
X321208D01*
X321301Y512089D01*
X321863Y511249D01*
X322703Y510687D01*
X323694Y510490D01*
X337623D01*
X337820Y510490D01*
X338839Y510659D01*
X342768Y506730D01*
X358140D01*
X359457Y508047D01*
X360630Y507561D01*
Y455930D01*
Y420370D01*
X360827Y419379D01*
X361389Y418539D01*
X374089Y405839D01*
X374929Y405277D01*
X375920Y405080D01*
X469900D01*
X470891Y405277D01*
X471731Y405839D01*
X479351Y413459D01*
X479913Y414299D01*
X480110Y415290D01*
Y448310D01*
X479913Y449301D01*
X479351Y450141D01*
X476811Y452681D01*
X475971Y453243D01*
X475480Y453340D01*
X475605Y454610D01*
X486541D01*
X486918Y454047D01*
Y452733D01*
X487421Y451520D01*
X488350Y450591D01*
X489563Y450088D01*
X490877D01*
X492090Y450591D01*
X492579Y451079D01*
X493395Y451381D01*
X494211Y451079D01*
X494700Y450591D01*
X495913Y450088D01*
X497227D01*
X498440Y450591D01*
X499369Y451520D01*
X499872Y452733D01*
Y454047D01*
X500248Y454610D01*
X567446D01*
X567696Y454660D01*
X567951D01*
X568186Y454758D01*
X568437Y454807D01*
X568649Y454949D01*
X568884Y455047D01*
X569065Y455227D01*
X569277Y455369D01*
X569419Y455581D01*
X569599Y455761D01*
X570448Y457031D01*
X570545Y457267D01*
X570687Y457479D01*
X570737Y457729D01*
X570834Y457965D01*
Y458220D01*
X570884Y458470D01*
X570882Y458480D01*
X571172Y458691D01*
X571783Y458793D01*
X571925Y458752D01*
X572409Y458484D01*
X572639Y458140D01*
X572843Y457781D01*
X573698Y456791D01*
X573762Y456742D01*
X573806Y456674D01*
X574159Y456432D01*
X574495Y456171D01*
X574574Y456149D01*
X574641Y456103D01*
X575058Y456015D01*
X575470Y455902D01*
X575550Y455912D01*
X575629Y455895D01*
X576049Y455974D01*
X576472Y456026D01*
X576543Y456067D01*
X576623Y456082D01*
X577164Y456299D01*
X577176Y456307D01*
X577190Y456310D01*
X577598Y456582D01*
X578010Y456851D01*
X578018Y456863D01*
X578030Y456871D01*
X578303Y457279D01*
X578581Y457685D01*
X578584Y457699D01*
X578592Y457711D01*
X578688Y458193D01*
X578716Y458328D01*
X579466Y458745D01*
X580318Y458288D01*
X580344Y458211D01*
X580410Y457878D01*
X580505Y457736D01*
X580560Y457575D01*
X580783Y457320D01*
X580972Y457038D01*
X581114Y456943D01*
X581226Y456815D01*
X581666Y456477D01*
X581995Y456315D01*
X582305Y456117D01*
X583038Y455832D01*
X583074Y455826D01*
X583503Y454833D01*
X583501Y454456D01*
X541935Y412891D01*
X540714Y411299D01*
X539946Y409446D01*
X539684Y407456D01*
Y339654D01*
X531855Y331825D01*
X530634Y330233D01*
X530594Y330136D01*
X528981Y329562D01*
X528667Y329692D01*
X527354D01*
X526140Y329189D01*
X525211Y328260D01*
X524709Y327047D01*
Y325733D01*
X525211Y324520D01*
X525646Y324085D01*
X525998Y323255D01*
X525646Y322425D01*
X525211Y321990D01*
X524709Y320777D01*
Y319463D01*
X525211Y318250D01*
X526140Y317321D01*
X527354Y316818D01*
X528667D01*
X529045Y316975D01*
X530315Y316126D01*
Y273100D01*
X524510D01*
X523519Y272903D01*
X522679Y272341D01*
X518869Y268531D01*
X518307Y267691D01*
X518110Y266700D01*
Y255698D01*
X516840Y255172D01*
X515670Y256343D01*
Y258320D01*
X515620Y258570D01*
Y258825D01*
X515522Y259061D01*
X515473Y259311D01*
X515331Y259524D01*
X515233Y259759D01*
X515053Y259939D01*
X514911Y260152D01*
X514699Y260293D01*
X514674Y260318D01*
X515112Y261375D01*
Y262689D01*
X514674Y263746D01*
X514699Y263771D01*
X514911Y263913D01*
X515053Y264125D01*
X515233Y264305D01*
X515331Y264541D01*
X515473Y264753D01*
X515522Y265003D01*
X515620Y265238D01*
Y265494D01*
X515670Y265744D01*
Y275590D01*
X515473Y276581D01*
X514911Y277421D01*
X511101Y281231D01*
X510261Y281793D01*
X509270Y281990D01*
X487426Y281990D01*
X487370Y281979D01*
X487313Y281987D01*
X486876Y281880D01*
X486435Y281793D01*
X486387Y281761D01*
X486332Y281747D01*
X485969Y281481D01*
X485595Y281231D01*
X485563Y281184D01*
X485517Y281150D01*
X482723Y278102D01*
X482489Y277717D01*
X482239Y277343D01*
X482228Y277287D01*
X482199Y277238D01*
X482130Y276793D01*
X482042Y276352D01*
Y241982D01*
X481630Y241669D01*
X480829Y241400D01*
X478542Y243687D01*
X463530Y258699D01*
X463317Y258841D01*
X463137Y259021D01*
X462937Y259154D01*
X462937Y259154D01*
X462702Y259252D01*
X462689Y259260D01*
X462675Y259263D01*
X462266Y259432D01*
X462254Y259441D01*
X462239Y259443D01*
X462004Y259541D01*
X461768Y259588D01*
X461513D01*
X461263Y259638D01*
X410719D01*
X410469Y259588D01*
X410214D01*
X410001Y259546D01*
X410001Y259546D01*
X410000D01*
X409765Y259448D01*
X409728Y259441D01*
X409697Y259420D01*
X409648Y259400D01*
X409510Y259372D01*
X409393Y259294D01*
X409067Y259159D01*
X409067Y259159D01*
X409067Y259159D01*
X408819Y258910D01*
X408670Y258811D01*
X408571Y258662D01*
X408353Y258444D01*
X408353Y258444D01*
X408353Y258444D01*
X408235Y258160D01*
X408108Y257971D01*
X408071Y257881D01*
X408027Y257657D01*
X407966Y257511D01*
Y257511D01*
X407966Y257510D01*
X407961Y257484D01*
Y257442D01*
X407597Y257158D01*
X407155Y256955D01*
X406735Y257152D01*
X406363Y257442D01*
Y257484D01*
X406358Y257511D01*
X406358Y257511D01*
Y257511D01*
X406297Y257657D01*
X406253Y257881D01*
X406253Y257881D01*
X406216Y257971D01*
X406089Y258160D01*
X405971Y258444D01*
X405971Y258444D01*
X405971Y258444D01*
X405754Y258662D01*
X405654Y258811D01*
X405505Y258910D01*
X405257Y259159D01*
X404931Y259294D01*
X404814Y259372D01*
X404675Y259400D01*
X404628Y259419D01*
X404596Y259441D01*
X404559Y259448D01*
X404323Y259546D01*
X404323D01*
X404323Y259546D01*
X404110Y259588D01*
X403855D01*
X403605Y259638D01*
X284480D01*
Y279516D01*
X285536Y280221D01*
X286595Y279783D01*
X289248Y279433D01*
X289248Y279433D01*
X310614D01*
X310642Y279428D01*
X329946D01*
X330937Y279625D01*
X331777Y280186D01*
X332339Y281027D01*
X332536Y282018D01*
Y297512D01*
X332339Y298503D01*
X332333Y298511D01*
X331855Y299505D01*
X332333Y300499D01*
X332339Y300507D01*
X332536Y301498D01*
Y316992D01*
X332339Y317983D01*
X331777Y318823D01*
X330937Y319385D01*
X329946Y319582D01*
X310642D01*
X310288Y319511D01*
X301910D01*
X289594Y331828D01*
Y342954D01*
X289594Y342954D01*
X289245Y345606D01*
X288221Y348078D01*
X286592Y350200D01*
X286592Y350200D01*
X254366Y382426D01*
X252244Y384054D01*
X249773Y385078D01*
X247120Y385427D01*
X247120Y385427D01*
X148313D01*
X145661Y385078D01*
X143189Y384054D01*
X141067Y382426D01*
X132454Y373813D01*
X130825Y371690D01*
X129802Y369219D01*
X129452Y366567D01*
X129452Y366567D01*
Y354586D01*
X128925Y353797D01*
X128728Y352806D01*
Y340106D01*
X128925Y339115D01*
X129487Y338275D01*
X134567Y333195D01*
X135407Y332633D01*
X136398Y332436D01*
X147828D01*
X148819Y332633D01*
X149659Y333195D01*
X152199Y335735D01*
X152761Y336575D01*
X152958Y337566D01*
Y340528D01*
X154178Y341580D01*
X171958D01*
X172949Y341777D01*
X173055Y341848D01*
X236750D01*
X246560Y332038D01*
X246618Y331462D01*
X246262Y330539D01*
X246019Y330439D01*
X245605Y330025D01*
X245544Y329984D01*
X241099Y325539D01*
X240549Y324716D01*
X239154Y324315D01*
X233485Y329984D01*
X233424Y330025D01*
X233010Y330439D01*
X232470Y330663D01*
X232409Y330703D01*
X232338Y330717D01*
X231797Y330941D01*
X231211D01*
X231140Y330956D01*
X231069Y330941D01*
X230483D01*
X229942Y330717D01*
X229871Y330703D01*
X229810Y330663D01*
X229270Y330439D01*
X228856Y330025D01*
X228795Y329984D01*
X227667Y329925D01*
X227314Y330143D01*
X227019Y330439D01*
X226478Y330663D01*
X226417Y330703D01*
X226346Y330717D01*
X225805Y330941D01*
X225220D01*
X225148Y330956D01*
X225077Y330941D01*
X224491D01*
X223951Y330717D01*
X223879Y330703D01*
X223819Y330663D01*
X223278Y330439D01*
X222864Y330025D01*
X222803Y329984D01*
X222763Y329924D01*
X222349Y329510D01*
X222125Y328969D01*
X222085Y328908D01*
X222070Y328837D01*
X221846Y328296D01*
Y327711D01*
X221832Y327639D01*
X221846Y327568D01*
Y326982D01*
X222070Y326442D01*
X222085Y326370D01*
X222125Y326310D01*
X222349Y325769D01*
X222763Y325355D01*
X222803Y325294D01*
X234174Y313924D01*
Y177706D01*
X232488Y176020D01*
X230998Y176299D01*
X230603Y176694D01*
X230209Y177524D01*
X230603Y178354D01*
X230998Y178748D01*
X231500Y179962D01*
Y181276D01*
X230998Y182489D01*
X230069Y183418D01*
X228855Y183921D01*
X227542D01*
X226328Y183418D01*
X225399Y182489D01*
X224896Y181276D01*
Y179962D01*
X225399Y178748D01*
X225794Y178354D01*
X226188Y177524D01*
X225794Y176694D01*
X225399Y176299D01*
X224896Y175086D01*
Y173772D01*
X225399Y172558D01*
X226328Y171630D01*
X226607Y170139D01*
X225854Y169386D01*
X225813Y169326D01*
X225399Y168911D01*
X225175Y168371D01*
X225135Y168310D01*
X225121Y168239D01*
X224896Y167698D01*
Y167113D01*
X224882Y167041D01*
X224896Y166970D01*
Y166384D01*
X225121Y165844D01*
X225135Y165772D01*
X225175Y165711D01*
X225399Y165171D01*
X225813Y164757D01*
X225854Y164696D01*
X225914Y164656D01*
X226328Y164242D01*
X226869Y164018D01*
X226929Y163977D01*
X227001Y163963D01*
X227542Y163739D01*
X227666D01*
X228218Y162559D01*
X228215Y162492D01*
X225854Y160131D01*
X225813Y160070D01*
X225399Y159656D01*
X225175Y159115D01*
X225135Y159055D01*
X225121Y158983D01*
X224896Y158442D01*
Y157857D01*
X224882Y157786D01*
X222553D01*
Y157796D01*
X222166Y158730D01*
X221605Y159291D01*
X222166Y159852D01*
X222553Y160786D01*
Y161796D01*
X222166Y162730D01*
X221452Y163444D01*
X220518Y163831D01*
X219508D01*
X218574Y163444D01*
X217860Y162730D01*
X217473Y161796D01*
Y160786D01*
X216518Y159831D01*
X215508D01*
X214574Y159444D01*
X214013Y158883D01*
X213452Y159444D01*
X212518Y159831D01*
X211508D01*
X210574Y159444D01*
X209860Y158730D01*
X209473Y157796D01*
Y156786D01*
X209860Y155852D01*
X210574Y155138D01*
X211508Y154751D01*
X212518D01*
X213452Y155138D01*
X214013Y155699D01*
X214574Y155138D01*
X215508Y154751D01*
Y151831D01*
X214574Y151444D01*
X213860Y150730D01*
X213473Y149796D01*
Y148786D01*
X213860Y147852D01*
X214574Y147138D01*
X215508Y146751D01*
X225796D01*
X226465Y145481D01*
X226069Y144855D01*
X225485Y144697D01*
X224883Y144765D01*
X224754Y144814D01*
X224729Y144831D01*
X224492Y144881D01*
X224484Y144887D01*
X224447Y144894D01*
X224211Y144992D01*
X223999Y145034D01*
X223775D01*
X223741Y145041D01*
X223723Y145038D01*
X223493Y145084D01*
X199932D01*
X199543Y146287D01*
X200472Y147216D01*
X200975Y148430D01*
Y149743D01*
X200472Y150957D01*
X199543Y151886D01*
X198330Y152388D01*
X197016D01*
X195802Y151886D01*
X195415Y151499D01*
X194973Y151942D01*
X193759Y152444D01*
X192445D01*
X191232Y151942D01*
X190817Y151527D01*
X190402Y151942D01*
X189188Y152444D01*
X187875D01*
X186661Y151942D01*
X185732Y151013D01*
X185230Y149799D01*
Y148486D01*
X185732Y147272D01*
X186661Y146343D01*
X187875Y145840D01*
X189188D01*
X190402Y146343D01*
X190817Y146758D01*
X191232Y146343D01*
X192445Y145840D01*
X193759D01*
X194973Y146343D01*
X195360Y146730D01*
X195802Y146287D01*
X197016Y145784D01*
X197999D01*
X198474Y144574D01*
X198383Y144536D01*
X198279Y144467D01*
X198209Y144397D01*
X198101Y144325D01*
X197990Y144214D01*
X197886Y144145D01*
X196977Y143236D01*
X196835Y143024D01*
X196655Y142843D01*
X196522Y142643D01*
X196521Y142643D01*
X196424Y142408D01*
X196416Y142395D01*
X196413Y142381D01*
X196244Y141972D01*
X196235Y141960D01*
X196232Y141945D01*
X196135Y141710D01*
X196088Y141474D01*
Y141219D01*
X196038Y140969D01*
Y119127D01*
X196088Y118877D01*
X196088Y118622D01*
X196135Y118386D01*
X196232Y118151D01*
X196235Y118136D01*
X196244Y118124D01*
X196413Y117715D01*
X196416Y117701D01*
X196424Y117688D01*
X196521Y117453D01*
X196655Y117253D01*
X196835Y117073D01*
X196977Y116860D01*
X197378Y116459D01*
X197591Y116317D01*
X197771Y116137D01*
X197971Y116004D01*
X197971Y116004D01*
X198206Y115906D01*
X198219Y115898D01*
X198233Y115895D01*
X198642Y115726D01*
X198654Y115717D01*
X198668Y115715D01*
X198904Y115617D01*
X199140Y115570D01*
X199395D01*
X199645Y115520D01*
X346455D01*
X346705Y115570D01*
X346960Y115570D01*
X347196Y115617D01*
X347431Y115715D01*
X347446Y115717D01*
X347458Y115726D01*
X347867Y115895D01*
X347881Y115898D01*
X347894Y115906D01*
X348129Y116004D01*
X348329Y116137D01*
X348509Y116317D01*
X348722Y116459D01*
X350473Y118210D01*
X351646Y117724D01*
Y79378D01*
X351899Y78109D01*
X352617Y77033D01*
X367508Y62142D01*
X368584Y61423D01*
X369853Y61171D01*
X396630D01*
Y54037D01*
X94368D01*
X94116Y55307D01*
X95367Y55825D01*
X99058Y58292D01*
X102198Y61432D01*
X104665Y65123D01*
X106364Y69225D01*
X107230Y73580D01*
Y78020D01*
X106364Y82375D01*
X104665Y86477D01*
X102198Y90168D01*
X99058Y93308D01*
X95367Y95775D01*
X91265Y97474D01*
X86910Y98340D01*
X82470D01*
X78115Y97474D01*
X74013Y95775D01*
X70322Y93308D01*
X67182Y90168D01*
X64715Y86477D01*
X64197Y85226D01*
X62927Y85478D01*
Y616114D01*
X64197Y616367D01*
X64715Y615116D01*
X67182Y611424D01*
X70322Y608285D01*
X74013Y605818D01*
X78115Y604119D01*
X82470Y603253D01*
X86910D01*
X91265Y604119D01*
X95367Y605818D01*
X99058Y608285D01*
X102198Y611424D01*
X104665Y615116D01*
X106364Y619218D01*
X107230Y623573D01*
Y628013D01*
X106364Y632368D01*
X104665Y636470D01*
X102198Y640161D01*
X99058Y643301D01*
X95367Y645768D01*
X94116Y646286D01*
X94368Y647556D01*
X733594D01*
X733847Y646286D01*
D02*
G37*
G36*
X403860Y572770D02*
Y488355D01*
X403364Y487157D01*
Y485843D01*
X403860Y484645D01*
Y452120D01*
X406400Y449580D01*
X426663D01*
X426913Y449530D01*
X427123D01*
X427376Y448260D01*
X426528Y447909D01*
X425599Y446980D01*
X425096Y445766D01*
Y444453D01*
X425599Y443239D01*
X426528Y442310D01*
X427742Y441808D01*
X429055D01*
X430269Y442310D01*
X431198Y443239D01*
X431700Y444453D01*
Y445766D01*
X431198Y446980D01*
X430269Y447909D01*
X429421Y448260D01*
X429673Y449530D01*
X429947D01*
X430197Y449580D01*
X454660D01*
X455569Y450489D01*
X455569Y450489D01*
X455750Y450670D01*
X455764Y450672D01*
X455923Y450738D01*
X455923Y450738D01*
X455923Y450738D01*
X456173Y450842D01*
X456185Y450850D01*
X456440Y450850D01*
X456440Y450850D01*
X474980Y450850D01*
X477520Y448310D01*
Y415290D01*
X469900Y407670D01*
X375920D01*
X363220Y420370D01*
Y455930D01*
Y527654D01*
X364201Y528061D01*
X365130Y528990D01*
X365633Y530203D01*
Y531517D01*
X365130Y532730D01*
X364201Y533659D01*
X363220Y534066D01*
Y562610D01*
X377190Y576580D01*
X400050D01*
X403860Y572770D01*
D02*
G37*
G36*
X174498Y354330D02*
Y346710D01*
X171958Y344170D01*
X154178D01*
X152908Y345440D01*
Y355600D01*
X154178Y356870D01*
X171958D01*
X174498Y354330D01*
D02*
G37*
G36*
X150318Y354126D02*
Y345440D01*
X150368Y345190D01*
Y337566D01*
X147828Y335026D01*
X136398D01*
X131318Y340106D01*
Y352806D01*
X135128Y356616D01*
X147828D01*
X150318Y354126D01*
D02*
G37*
G36*
X647900Y392284D02*
X648724Y391942D01*
Y290436D01*
X642573Y284286D01*
X641749Y284627D01*
X641400Y284908D01*
Y308195D01*
X641350Y308445D01*
X641350Y308701D01*
X641303Y308936D01*
X641206Y309172D01*
X641203Y309186D01*
X641194Y309199D01*
X641025Y309607D01*
X641022Y309622D01*
X641014Y309634D01*
X640917Y309870D01*
X640783Y310069D01*
X640603Y310250D01*
X640461Y310462D01*
X640248Y310675D01*
X640140Y310936D01*
Y311220D01*
X640248Y311481D01*
X640461Y311694D01*
X640603Y311906D01*
X640783Y312087D01*
X640916Y312286D01*
X640917Y312286D01*
X641014Y312522D01*
X641022Y312534D01*
X641025Y312549D01*
X641194Y312957D01*
X641203Y312970D01*
X641206Y312984D01*
X641303Y313220D01*
X641350Y313456D01*
Y313711D01*
X641400Y313961D01*
Y318195D01*
X641350Y318445D01*
X641350Y318701D01*
X641303Y318936D01*
X641206Y319172D01*
X641203Y319186D01*
X641194Y319199D01*
X641025Y319607D01*
X641022Y319622D01*
X641014Y319634D01*
X640917Y319870D01*
X640783Y320069D01*
X640603Y320250D01*
X640461Y320462D01*
X640248Y320675D01*
X640140Y320936D01*
Y321220D01*
X640248Y321482D01*
X640461Y321694D01*
X640603Y321906D01*
X640783Y322087D01*
X640916Y322286D01*
X640917Y322286D01*
X641014Y322522D01*
X641022Y322534D01*
X641025Y322549D01*
X641194Y322957D01*
X641203Y322970D01*
X641206Y322984D01*
X641303Y323220D01*
X641350Y323456D01*
Y323711D01*
X641400Y323961D01*
Y328195D01*
X641350Y328445D01*
X641350Y328701D01*
X641303Y328936D01*
X641206Y329172D01*
X641203Y329186D01*
X641194Y329199D01*
X641025Y329607D01*
X641022Y329622D01*
X641014Y329634D01*
X640917Y329870D01*
X640783Y330069D01*
X640603Y330250D01*
X640461Y330462D01*
X640461Y331694D01*
X640603Y331906D01*
X640783Y332087D01*
X640916Y332286D01*
X640917Y332286D01*
X641014Y332522D01*
X641022Y332534D01*
X641025Y332549D01*
X641194Y332957D01*
X641203Y332970D01*
X641206Y332984D01*
X641303Y333220D01*
X641350Y333456D01*
Y333711D01*
X641400Y333961D01*
Y379799D01*
X641350Y380049D01*
X641350Y380304D01*
X641303Y380540D01*
X641206Y380776D01*
X641203Y380790D01*
X641194Y380803D01*
X641025Y381211D01*
X641022Y381226D01*
X641014Y381238D01*
X640917Y381474D01*
X640783Y381673D01*
X640603Y381854D01*
X640461Y382066D01*
X640248Y382279D01*
X640140Y382540D01*
Y382824D01*
X640248Y383085D01*
X640461Y383298D01*
X640603Y383510D01*
X640783Y383690D01*
X640916Y383890D01*
X640917Y383890D01*
X641014Y384126D01*
X641022Y384138D01*
X641025Y384153D01*
X641194Y384561D01*
X641203Y384574D01*
X641206Y384588D01*
X641303Y384824D01*
X641350Y385060D01*
Y385315D01*
X641400Y385565D01*
Y386277D01*
X647454Y392332D01*
X647900Y392284D01*
D02*
G37*
G36*
X461498Y257001D02*
X461698Y256868D01*
X476711Y241855D01*
X485902Y232664D01*
Y225552D01*
X481330Y220980D01*
X414020D01*
X408181Y215142D01*
X401066Y208026D01*
Y186945D01*
X401024Y186732D01*
Y186707D01*
X401007Y186689D01*
X400890Y186505D01*
X396396Y181774D01*
X396239Y181669D01*
X396222Y181652D01*
X396197Y181651D01*
X396014Y181610D01*
X355600D01*
X350520Y176530D01*
Y162940D01*
X350015D01*
X349081Y162553D01*
X348367Y161839D01*
X347980Y160905D01*
Y159895D01*
X347025Y158940D01*
X346015D01*
X345081Y158553D01*
X344520Y157992D01*
X343959Y158553D01*
X343025Y158940D01*
X342015D01*
X341081Y158553D01*
X340367Y157839D01*
X339980Y156905D01*
Y155895D01*
X340367Y154961D01*
X341081Y154247D01*
X342015Y153860D01*
X343025D01*
X343959Y154247D01*
X344520Y154808D01*
X345081Y154247D01*
X346015Y153860D01*
X347025D01*
X347980Y152905D01*
Y151895D01*
X347025Y150940D01*
X346015D01*
X345081Y150553D01*
X344520Y149992D01*
X343959Y150553D01*
X343025Y150940D01*
X342015D01*
X341081Y150553D01*
X340367Y149839D01*
X339980Y148905D01*
Y147895D01*
X340367Y146961D01*
X341081Y146247D01*
X342015Y145860D01*
X343025D01*
X343959Y146247D01*
X344520Y146808D01*
X345081Y146247D01*
X346015Y145860D01*
X347025D01*
X347959Y146247D01*
X348520Y146808D01*
X349081Y146247D01*
X350015Y145860D01*
X350520D01*
Y142240D01*
X353060Y139700D01*
Y137578D01*
X352617Y137136D01*
X351899Y136060D01*
X351646Y134791D01*
Y123046D01*
X346890Y118290D01*
X346691Y118157D01*
X346455Y118110D01*
X199645D01*
X199409Y118157D01*
X199210Y118290D01*
X198808Y118692D01*
X198675Y118891D01*
X198628Y119127D01*
Y140969D01*
X198675Y141205D01*
X198808Y141404D01*
X199718Y142314D01*
X199822Y142383D01*
X199932Y142494D01*
X223493D01*
X223706Y142452D01*
X224168Y141292D01*
X224145Y141130D01*
X224132Y141082D01*
X223755Y140704D01*
X223252Y139491D01*
Y138177D01*
X223755Y136963D01*
X224683Y136035D01*
X225897Y135532D01*
X227211D01*
X228424Y136035D01*
X229353Y136963D01*
X229856Y138177D01*
Y139491D01*
X229353Y140704D01*
X228468Y141590D01*
X228424Y141634D01*
X228193Y143104D01*
X234250Y149160D01*
X235327Y148441D01*
X235316Y148416D01*
Y147102D01*
X235819Y145888D01*
X236748Y144960D01*
X237962Y144457D01*
X239275D01*
X240489Y144960D01*
X241418Y145888D01*
X241920Y147102D01*
Y148416D01*
X241418Y149629D01*
X240489Y150558D01*
X239275Y151061D01*
X237962D01*
X237937Y151051D01*
X237217Y152127D01*
X250190Y165100D01*
Y227330D01*
X279908Y257048D01*
X403605D01*
X403818Y257006D01*
X403823Y256980D01*
X403860Y256890D01*
Y255756D01*
X404363Y254543D01*
X405292Y253614D01*
X406505Y253111D01*
X407819D01*
X409032Y253614D01*
X409961Y254543D01*
X410464Y255756D01*
Y256890D01*
X410501Y256980D01*
X410506Y257006D01*
X410719Y257048D01*
X461263D01*
X461498Y257001D01*
D02*
G37*
G36*
X546100Y269240D02*
Y255270D01*
X541020Y250190D01*
X524510D01*
X520700Y254000D01*
Y266700D01*
X524510Y270510D01*
X544830D01*
X546100Y269240D01*
D02*
G37*
G36*
X488011Y222203D02*
Y167767D01*
X488208Y166776D01*
X488770Y165936D01*
X499057Y155649D01*
X499897Y155087D01*
X500888Y154890D01*
X538480D01*
X539471Y155087D01*
X540311Y155649D01*
X548590Y163928D01*
X549860Y163402D01*
Y134465D01*
X549910Y134215D01*
X549910Y133960D01*
X549957Y133724D01*
X549957Y133724D01*
Y133724D01*
X550055Y133488D01*
X550057Y133474D01*
X550065Y133462D01*
X550208Y133118D01*
X550218Y133069D01*
X550225Y133052D01*
X550225Y133052D01*
X550225Y133051D01*
X550253Y133009D01*
X550344Y132790D01*
X550344Y132790D01*
X550344Y132790D01*
X550457Y132621D01*
X550457Y132620D01*
X550457Y132620D01*
X550622Y132222D01*
Y131938D01*
X550457Y131539D01*
X550344Y131370D01*
X550344Y131370D01*
X550253Y131151D01*
X550225Y131109D01*
X550225Y131108D01*
X550224Y131108D01*
X550217Y131091D01*
X550207Y131041D01*
X550065Y130698D01*
X550057Y130686D01*
X550055Y130672D01*
X549957Y130436D01*
Y130436D01*
X549910Y130200D01*
X549910Y129945D01*
X549860Y129695D01*
Y120905D01*
X549910Y120655D01*
X549910Y120400D01*
X549957Y120164D01*
X550055Y119929D01*
X550057Y119914D01*
X550066Y119902D01*
X550235Y119493D01*
X550238Y119479D01*
X550246Y119466D01*
X550344Y119231D01*
X550477Y119031D01*
X550657Y118851D01*
X550799Y118638D01*
X560239Y109198D01*
X559753Y108025D01*
X388375D01*
X386888Y107729D01*
X385628Y106887D01*
X367470Y88729D01*
X367218Y88679D01*
X365958Y87837D01*
X365899Y87748D01*
X364256Y87470D01*
X363794Y87827D01*
Y129359D01*
X367089Y132653D01*
X367808Y133729D01*
X368060Y134998D01*
Y156423D01*
X367808Y157692D01*
X367089Y158768D01*
X363840Y162016D01*
X363780Y162056D01*
X363366Y162470D01*
X362825Y162694D01*
X362765Y162735D01*
X362693Y162749D01*
X362152Y162973D01*
X361567D01*
X361496Y162987D01*
X360540Y163793D01*
Y166303D01*
X361190Y166953D01*
X361231Y167013D01*
X361645Y167428D01*
X361869Y167968D01*
X361909Y168029D01*
X361923Y168100D01*
X362147Y168641D01*
Y169226D01*
X362162Y169298D01*
X362147Y169369D01*
Y169955D01*
X361923Y170496D01*
X361909Y170567D01*
X361869Y170627D01*
X361645Y171168D01*
X361231Y171582D01*
X361190Y171643D01*
X361130Y171683D01*
X361023Y171790D01*
X361458Y173060D01*
X369325D01*
X369397Y173074D01*
X369982D01*
X370523Y173298D01*
X370594Y173312D01*
X370655Y173353D01*
X371196Y173577D01*
X371610Y173991D01*
X371670Y174031D01*
X371711Y174092D01*
X372125Y174506D01*
X372349Y175047D01*
X372389Y175107D01*
X372403Y175179D01*
X372627Y175719D01*
X373824Y175543D01*
Y174532D01*
X374327Y173318D01*
X375256Y172389D01*
X376470Y171887D01*
X377783D01*
X378997Y172389D01*
X379926Y173318D01*
X380428Y174532D01*
Y175846D01*
X379926Y177059D01*
X379235Y177750D01*
X379530Y178866D01*
X379624Y179020D01*
X396014D01*
X396243Y179066D01*
X396264Y179062D01*
X396288Y179063D01*
X396354Y179078D01*
X396584Y179084D01*
X396767Y179125D01*
X396950Y179207D01*
X397005Y179217D01*
X397006Y179218D01*
X397213Y179259D01*
X397241Y179278D01*
X397274Y179286D01*
X397446Y179407D01*
X397448Y179407D01*
X397493Y179439D01*
X397678Y179516D01*
X397834Y179620D01*
X397997Y179783D01*
X398053Y179821D01*
X398071Y179838D01*
X398082Y179855D01*
X398273Y179990D01*
X402768Y184721D01*
X402884Y184905D01*
X402901Y184923D01*
X402921Y184954D01*
X403080Y185122D01*
X403196Y185306D01*
X403269Y185495D01*
X403416Y185716D01*
X403423Y185749D01*
X403441Y185777D01*
X403486Y186039D01*
X403564Y186227D01*
X403606Y186440D01*
Y186670D01*
X403613Y186707D01*
Y186732D01*
X403656Y186945D01*
Y206953D01*
X410013Y213310D01*
X415093Y218390D01*
X481330D01*
X482321Y218587D01*
X483161Y219149D01*
X486741Y222729D01*
X488011Y222203D01*
D02*
G37*
G36*
X513080Y275590D02*
Y265744D01*
X512467Y265334D01*
X511153D01*
X509940Y264831D01*
X509011Y263902D01*
X508508Y262689D01*
Y261375D01*
X509011Y260162D01*
X509940Y259233D01*
X511153Y258730D01*
X512467D01*
X513080Y258320D01*
Y255270D01*
X521970Y246380D01*
X534522D01*
X535178Y245399D01*
Y244085D01*
X535681Y242872D01*
X536610Y241943D01*
X537823Y241440D01*
X539137D01*
X540350Y241943D01*
X541279Y242872D01*
X541705Y243899D01*
X542447Y244223D01*
X543052Y244348D01*
X547370Y240030D01*
Y166370D01*
X538480Y157480D01*
X500888D01*
X490601Y167767D01*
Y223257D01*
X490610Y223261D01*
X491539Y224190D01*
X492042Y225403D01*
Y226717D01*
X491539Y227930D01*
X490610Y228859D01*
X490601Y228863D01*
Y235839D01*
X484632Y241808D01*
Y276352D01*
X487426Y279400D01*
X509270Y279400D01*
X513080Y275590D01*
D02*
G37*
%LPC*%
G36*
X362607Y582422D02*
X361293D01*
X360080Y581919D01*
X359151Y580990D01*
X358648Y579777D01*
Y578463D01*
X359151Y577250D01*
X360080Y576321D01*
X361293Y575818D01*
X362607D01*
X363820Y576321D01*
X364749Y577250D01*
X365252Y578463D01*
Y579777D01*
X364749Y580990D01*
X363820Y581919D01*
X362607Y582422D01*
D02*
G37*
G36*
X352607D02*
X351293D01*
X350080Y581919D01*
X349151Y580990D01*
X348648Y579777D01*
Y578463D01*
X349151Y577250D01*
X350080Y576321D01*
X351293Y575818D01*
X352607D01*
X353820Y576321D01*
X354749Y577250D01*
X355252Y578463D01*
Y579777D01*
X354749Y580990D01*
X353820Y581919D01*
X352607Y582422D01*
D02*
G37*
G36*
X342607D02*
X341293D01*
X340080Y581919D01*
X339151Y580990D01*
X338648Y579777D01*
Y578463D01*
X339151Y577250D01*
X340080Y576321D01*
X341293Y575818D01*
X342607D01*
X343820Y576321D01*
X344749Y577250D01*
X345252Y578463D01*
Y579777D01*
X344749Y580990D01*
X343820Y581919D01*
X342607Y582422D01*
D02*
G37*
G36*
X200746Y569403D02*
X199433D01*
X198219Y568901D01*
X197290Y567972D01*
X196787Y566758D01*
Y565444D01*
X197290Y564231D01*
X198219Y563302D01*
X199433Y562799D01*
X200746D01*
X201960Y563302D01*
X202889Y564231D01*
X203391Y565444D01*
Y566758D01*
X202889Y567972D01*
X201960Y568901D01*
X200746Y569403D01*
D02*
G37*
G36*
X187980D02*
X186667D01*
X185453Y568901D01*
X184524Y567972D01*
X184021Y566758D01*
Y565444D01*
X184524Y564231D01*
X185453Y563302D01*
X186667Y562799D01*
X187980D01*
X189194Y563302D01*
X190123Y564231D01*
X190625Y565444D01*
Y566758D01*
X190123Y567972D01*
X189194Y568901D01*
X187980Y569403D01*
D02*
G37*
G36*
X175214D02*
X173901D01*
X172687Y568901D01*
X171758Y567972D01*
X171255Y566758D01*
Y565444D01*
X171758Y564231D01*
X172687Y563302D01*
X173901Y562799D01*
X175214D01*
X176428Y563302D01*
X177357Y564231D01*
X177859Y565444D01*
Y566758D01*
X177357Y567972D01*
X176428Y568901D01*
X175214Y569403D01*
D02*
G37*
G36*
X161359Y563705D02*
X160045D01*
X158832Y563202D01*
X157903Y562273D01*
X157400Y561060D01*
Y559746D01*
X157903Y558532D01*
X158832Y557603D01*
X160045Y557101D01*
X161359D01*
X162572Y557603D01*
X163501Y558532D01*
X164004Y559746D01*
Y561060D01*
X163501Y562273D01*
X162572Y563202D01*
X161359Y563705D01*
D02*
G37*
G36*
X152638D02*
X151325D01*
X150111Y563202D01*
X149182Y562273D01*
X148679Y561060D01*
Y559746D01*
X149182Y558532D01*
X150111Y557603D01*
X151325Y557101D01*
X152638D01*
X153852Y557603D01*
X154781Y558532D01*
X155283Y559746D01*
Y561060D01*
X154781Y562273D01*
X153852Y563202D01*
X152638Y563705D01*
D02*
G37*
G36*
X143918Y563705D02*
X142604D01*
X141390Y563202D01*
X140461Y562273D01*
X139959Y561060D01*
Y559746D01*
X140461Y558532D01*
X141390Y557603D01*
X142604Y557101D01*
X143918D01*
X145131Y557603D01*
X146060Y558532D01*
X146563Y559746D01*
Y561060D01*
X146060Y562273D01*
X145131Y563202D01*
X143918Y563705D01*
D02*
G37*
G36*
X160935Y555111D02*
X159622D01*
X158408Y554608D01*
X157479Y553680D01*
X156977Y552466D01*
Y551152D01*
X157479Y549939D01*
X158408Y549010D01*
X159622Y548507D01*
X160935D01*
X162149Y549010D01*
X163078Y549939D01*
X163581Y551152D01*
Y552466D01*
X163078Y553680D01*
X162149Y554608D01*
X160935Y555111D01*
D02*
G37*
G36*
X152638D02*
X151325D01*
X150111Y554608D01*
X149182Y553680D01*
X148679Y552466D01*
Y551152D01*
X149182Y549939D01*
X150111Y549010D01*
X151325Y548507D01*
X152638D01*
X153852Y549010D01*
X154781Y549939D01*
X155283Y551152D01*
Y552466D01*
X154781Y553680D01*
X153852Y554608D01*
X152638Y555111D01*
D02*
G37*
G36*
X143918D02*
X142604D01*
X141390Y554608D01*
X140461Y553680D01*
X139959Y552466D01*
Y551152D01*
X140461Y549939D01*
X141390Y549010D01*
X142604Y548507D01*
X143918D01*
X145131Y549010D01*
X146060Y549939D01*
X146563Y551152D01*
Y552466D01*
X146060Y553680D01*
X145131Y554608D01*
X143918Y555111D01*
D02*
G37*
G36*
X182874Y548837D02*
X181560D01*
X180347Y548334D01*
X179418Y547405D01*
X178915Y546192D01*
Y544878D01*
X179418Y543664D01*
X180347Y542736D01*
X181560Y542233D01*
X182874D01*
X184088Y542736D01*
X185017Y543664D01*
X185519Y544878D01*
Y546192D01*
X185017Y547405D01*
X184088Y548334D01*
X182874Y548837D01*
D02*
G37*
G36*
X143918Y546517D02*
X142604D01*
X141390Y546015D01*
X140461Y545086D01*
X139959Y543872D01*
Y542559D01*
X140461Y541345D01*
X141390Y540416D01*
X142604Y539913D01*
X143918D01*
X145131Y540416D01*
X146060Y541345D01*
X146563Y542559D01*
Y543872D01*
X146060Y545086D01*
X145131Y546015D01*
X143918Y546517D01*
D02*
G37*
G36*
X192623Y546436D02*
X191309D01*
X190095Y545933D01*
X189166Y545005D01*
X188664Y543791D01*
Y542477D01*
X189166Y541264D01*
X190095Y540335D01*
X191309Y539832D01*
X192623D01*
X193836Y540335D01*
X194765Y541264D01*
X195268Y542477D01*
Y543791D01*
X194765Y545005D01*
X193836Y545933D01*
X192623Y546436D01*
D02*
G37*
G36*
X312506Y535904D02*
X311193D01*
X309979Y535401D01*
X309050Y534473D01*
X308548Y533259D01*
Y531945D01*
X309050Y530732D01*
X309979Y529803D01*
X310187Y529717D01*
X310240Y528385D01*
X309762Y528086D01*
X309407Y527923D01*
X308251Y528402D01*
X306937D01*
X306258Y528120D01*
X305794Y528377D01*
X305720Y528525D01*
X305660Y529902D01*
X306171Y530414D01*
X306674Y531628D01*
Y532941D01*
X306171Y534155D01*
X305242Y535084D01*
X304029Y535586D01*
X302715D01*
X301502Y535084D01*
X300573Y534155D01*
X300070Y532941D01*
Y531628D01*
X300573Y530414D01*
X301502Y529485D01*
X301756Y529380D01*
Y528005D01*
X301502Y527899D01*
X300573Y526970D01*
X300070Y525757D01*
Y524443D01*
X300573Y523230D01*
X301502Y522301D01*
X302715Y521798D01*
X304029D01*
X305242Y522301D01*
X305483Y522541D01*
X305724Y522301D01*
X306937Y521798D01*
X308251D01*
X309464Y522301D01*
X309742Y522578D01*
X309979Y522341D01*
X311193Y521838D01*
X312506D01*
X313720Y522341D01*
X314649Y523270D01*
X315152Y524484D01*
Y525797D01*
X314649Y527011D01*
X313720Y527940D01*
X313131Y528184D01*
Y529559D01*
X313720Y529803D01*
X314649Y530732D01*
X315152Y531945D01*
Y533259D01*
X314649Y534473D01*
X313720Y535401D01*
X312506Y535904D01*
D02*
G37*
G36*
X292178Y528402D02*
X290865D01*
X289651Y527899D01*
X288722Y526970D01*
X288220Y525757D01*
Y524443D01*
X288722Y523230D01*
X289651Y522301D01*
X290865Y521798D01*
X292178D01*
X293392Y522301D01*
X294321Y523230D01*
X294824Y524443D01*
Y525757D01*
X294321Y526970D01*
X293392Y527899D01*
X292178Y528402D01*
D02*
G37*
G36*
X695347Y591312D02*
X694033D01*
X692820Y590809D01*
X691891Y589880D01*
X691388Y588667D01*
Y587353D01*
X691891Y586140D01*
X692820Y585211D01*
X694033Y584708D01*
X695347D01*
X696560Y585211D01*
X697489Y586140D01*
X697992Y587353D01*
Y588667D01*
X697489Y589880D01*
X696560Y590809D01*
X695347Y591312D01*
D02*
G37*
G36*
X669947D02*
X668633D01*
X667420Y590809D01*
X666491Y589880D01*
X665988Y588667D01*
Y587353D01*
X666491Y586140D01*
X667420Y585211D01*
X668633Y584708D01*
X669947D01*
X671161Y585211D01*
X672089Y586140D01*
X672592Y587353D01*
Y588667D01*
X672089Y589880D01*
X671161Y590809D01*
X669947Y591312D01*
D02*
G37*
G36*
X644547D02*
X643233D01*
X642020Y590809D01*
X641091Y589880D01*
X640588Y588667D01*
Y587353D01*
X641091Y586140D01*
X642020Y585211D01*
X643233Y584708D01*
X644547D01*
X645760Y585211D01*
X646689Y586140D01*
X647192Y587353D01*
Y588667D01*
X646689Y589880D01*
X645760Y590809D01*
X644547Y591312D01*
D02*
G37*
G36*
X619147D02*
X617833D01*
X616620Y590809D01*
X615691Y589880D01*
X615188Y588667D01*
Y587353D01*
X615691Y586140D01*
X616620Y585211D01*
X617833Y584708D01*
X619147D01*
X620360Y585211D01*
X621289Y586140D01*
X621792Y587353D01*
Y588667D01*
X621289Y589880D01*
X620360Y590809D01*
X619147Y591312D01*
D02*
G37*
G36*
X734717Y568452D02*
X733403D01*
X732190Y567949D01*
X731261Y567020D01*
X730758Y565807D01*
Y564493D01*
X731261Y563280D01*
X732190Y562351D01*
X733403Y561848D01*
X734717D01*
X735930Y562351D01*
X736859Y563280D01*
X737362Y564493D01*
Y565807D01*
X736859Y567020D01*
X735930Y567949D01*
X734717Y568452D01*
D02*
G37*
G36*
X709317D02*
X708003D01*
X706790Y567949D01*
X705861Y567020D01*
X705358Y565807D01*
Y564493D01*
X705861Y563280D01*
X706790Y562351D01*
X708003Y561848D01*
X709317D01*
X710530Y562351D01*
X711459Y563280D01*
X711962Y564493D01*
Y565807D01*
X711459Y567020D01*
X710530Y567949D01*
X709317Y568452D01*
D02*
G37*
G36*
X683917D02*
X682603D01*
X681390Y567949D01*
X680461Y567020D01*
X679958Y565807D01*
Y564493D01*
X680461Y563280D01*
X681390Y562351D01*
X682603Y561848D01*
X683917D01*
X685130Y562351D01*
X686059Y563280D01*
X686562Y564493D01*
Y565807D01*
X686059Y567020D01*
X685130Y567949D01*
X683917Y568452D01*
D02*
G37*
G36*
X601367Y560835D02*
X600053D01*
X598840Y560333D01*
X597911Y559404D01*
X597408Y558190D01*
Y556876D01*
X597911Y555663D01*
X598840Y554734D01*
X600053Y554231D01*
X601367D01*
X602580Y554734D01*
X603509Y555663D01*
X604012Y556876D01*
Y558190D01*
X603509Y559404D01*
X602580Y560333D01*
X601367Y560835D01*
D02*
G37*
G36*
X625497Y555752D02*
X624183D01*
X622970Y555249D01*
X622041Y554320D01*
X621538Y553107D01*
Y551793D01*
X622041Y550580D01*
X622970Y549651D01*
X624183Y549148D01*
X625497D01*
X626710Y549651D01*
X627639Y550580D01*
X628142Y551793D01*
Y553107D01*
X627639Y554320D01*
X626710Y555249D01*
X625497Y555752D01*
D02*
G37*
G36*
X729245Y538694D02*
X727931D01*
X726717Y538191D01*
X725788Y537263D01*
X725286Y536049D01*
Y534735D01*
X725788Y533522D01*
X726717Y532593D01*
X727931Y532090D01*
X729245D01*
X730458Y532593D01*
X731387Y533522D01*
X731890Y534735D01*
Y536049D01*
X731387Y537263D01*
X730458Y538191D01*
X729245Y538694D01*
D02*
G37*
G36*
Y530693D02*
X727931D01*
X726717Y530190D01*
X725788Y529262D01*
X725286Y528048D01*
Y526734D01*
X725788Y525521D01*
X726717Y524592D01*
X727931Y524089D01*
X729245D01*
X730458Y524592D01*
X731387Y525521D01*
X731890Y526734D01*
Y528048D01*
X731387Y529262D01*
X730458Y530190D01*
X729245Y530693D01*
D02*
G37*
G36*
Y522692D02*
X727931D01*
X726717Y522189D01*
X725788Y521261D01*
X725286Y520047D01*
Y518733D01*
X725788Y517520D01*
X726717Y516591D01*
X727931Y516088D01*
X729245D01*
X730458Y516591D01*
X731387Y517520D01*
X731890Y518733D01*
Y520047D01*
X731387Y521261D01*
X730458Y522189D01*
X729245Y522692D01*
D02*
G37*
G36*
X729324Y488442D02*
X728010D01*
X726796Y487939D01*
X725867Y487010D01*
X725365Y485797D01*
Y484483D01*
X725867Y483270D01*
X726796Y482341D01*
X728010Y481838D01*
X729324D01*
X730537Y482341D01*
X731466Y483270D01*
X731969Y484483D01*
Y485797D01*
X731466Y487010D01*
X730537Y487939D01*
X729324Y488442D01*
D02*
G37*
G36*
X712657D02*
X711343D01*
X710130Y487939D01*
X709201Y487010D01*
X708698Y485797D01*
Y484483D01*
X709201Y483270D01*
X710130Y482341D01*
X711343Y481838D01*
X712657D01*
X713870Y482341D01*
X714799Y483270D01*
X715302Y484483D01*
Y485797D01*
X714799Y487010D01*
X713870Y487939D01*
X712657Y488442D01*
D02*
G37*
G36*
Y463042D02*
X711343D01*
X710130Y462539D01*
X709201Y461610D01*
X708698Y460397D01*
Y459083D01*
X709201Y457870D01*
X710130Y456941D01*
X711343Y456438D01*
X712657D01*
X713870Y456941D01*
X714799Y457870D01*
X715302Y459083D01*
Y460397D01*
X714799Y461610D01*
X713870Y462539D01*
X712657Y463042D01*
D02*
G37*
G36*
X700247Y437484D02*
X698933D01*
X697720Y436981D01*
X696791Y436052D01*
X696288Y434839D01*
Y433525D01*
X696791Y432312D01*
X697720Y431383D01*
X698933Y430880D01*
X700247D01*
X701460Y431383D01*
X702389Y432312D01*
X702892Y433525D01*
Y434839D01*
X702389Y436052D01*
X701460Y436981D01*
X700247Y437484D01*
D02*
G37*
G36*
X691747D02*
X690433D01*
X689220Y436981D01*
X688291Y436052D01*
X687788Y434839D01*
Y433525D01*
X688291Y432312D01*
X689220Y431383D01*
X690433Y430880D01*
X691747D01*
X692960Y431383D01*
X693889Y432312D01*
X694392Y433525D01*
Y434839D01*
X693889Y436052D01*
X692960Y436981D01*
X691747Y437484D01*
D02*
G37*
G36*
X683247Y422880D02*
X681933D01*
X680720Y422377D01*
X679791Y421449D01*
X679288Y420235D01*
Y418921D01*
X679791Y417708D01*
X680720Y416779D01*
X681933Y416276D01*
X683247D01*
X684460Y416779D01*
X685389Y417708D01*
X685892Y418921D01*
Y420235D01*
X685389Y421449D01*
X684460Y422377D01*
X683247Y422880D01*
D02*
G37*
G36*
X667913Y413512D02*
X666599D01*
X665386Y413009D01*
X664457Y412080D01*
X663954Y410867D01*
Y409553D01*
X664457Y408340D01*
X665386Y407411D01*
X666599Y406908D01*
X667913D01*
X669126Y407411D01*
X670055Y408340D01*
X670558Y409553D01*
Y410867D01*
X670055Y412080D01*
X669126Y413009D01*
X667913Y413512D01*
D02*
G37*
G36*
X683919Y407175D02*
X682605D01*
X681392Y406672D01*
X680463Y405743D01*
X679960Y404529D01*
Y403216D01*
X680463Y402002D01*
X681392Y401073D01*
X682605Y400571D01*
X683919D01*
X685133Y401073D01*
X686061Y402002D01*
X686564Y403216D01*
Y404529D01*
X686061Y405743D01*
X685133Y406672D01*
X683919Y407175D01*
D02*
G37*
G36*
X667913Y405511D02*
X666599D01*
X665386Y405008D01*
X664457Y404079D01*
X663954Y402866D01*
Y401552D01*
X664457Y400339D01*
X665386Y399410D01*
X666599Y398907D01*
X667913D01*
X669126Y399410D01*
X670055Y400339D01*
X670558Y401552D01*
Y402866D01*
X670055Y404079D01*
X669126Y405008D01*
X667913Y405511D01*
D02*
G37*
G36*
X683919Y398445D02*
X682605D01*
X681392Y397942D01*
X680463Y397013D01*
X679960Y395800D01*
Y394486D01*
X680463Y393272D01*
X681392Y392343D01*
X682605Y391841D01*
X683919D01*
X685133Y392343D01*
X686061Y393272D01*
X686564Y394486D01*
Y395800D01*
X686061Y397013D01*
X685133Y397942D01*
X683919Y398445D01*
D02*
G37*
G36*
X673145Y384394D02*
X671831D01*
X670618Y383891D01*
X669956Y383229D01*
X669190Y383068D01*
X668425Y383229D01*
X667762Y383891D01*
X666549Y384394D01*
X665235D01*
X664022Y383891D01*
X663093Y382962D01*
X662590Y381749D01*
Y380435D01*
X663093Y379222D01*
X664022Y378293D01*
X665040Y377871D01*
X665077Y377641D01*
Y376831D01*
X665040Y376601D01*
X664022Y376179D01*
X663093Y375250D01*
X662590Y374037D01*
Y372723D01*
X663093Y371510D01*
X664022Y370581D01*
X665235Y370078D01*
X666549D01*
X667762Y370581D01*
X667916Y370734D01*
X668573Y370579D01*
X669252Y370275D01*
X669689Y369222D01*
X670618Y368293D01*
X671831Y367790D01*
X673145D01*
X674358Y368293D01*
X675287Y369222D01*
X675790Y370435D01*
Y371749D01*
X675287Y372962D01*
X674358Y373891D01*
X673145Y374394D01*
X671831D01*
X670618Y373891D01*
X670464Y373738D01*
X669807Y373893D01*
X669128Y374197D01*
X668691Y375250D01*
X667762Y376179D01*
X666744Y376601D01*
X666706Y376831D01*
Y377641D01*
X666744Y377871D01*
X667762Y378293D01*
X668425Y378955D01*
X669190Y379116D01*
X669956Y378955D01*
X670618Y378293D01*
X671831Y377790D01*
X673145D01*
X674358Y378293D01*
X675287Y379222D01*
X675790Y380435D01*
Y381749D01*
X675287Y382962D01*
X674358Y383891D01*
X673145Y384394D01*
D02*
G37*
G36*
X682647D02*
X681333D01*
X680120Y383891D01*
X679191Y382962D01*
X678688Y381749D01*
Y380435D01*
X679191Y379222D01*
X680120Y378293D01*
X681333Y377790D01*
X682647D01*
X683860Y378293D01*
X684789Y379222D01*
X685292Y380435D01*
Y381749D01*
X684789Y382962D01*
X683860Y383891D01*
X682647Y384394D01*
D02*
G37*
G36*
Y374394D02*
X681333D01*
X680120Y373891D01*
X679191Y372962D01*
X678688Y371749D01*
Y370435D01*
X679191Y369222D01*
X680120Y368293D01*
X681333Y367790D01*
X682647D01*
X683860Y368293D01*
X684789Y369222D01*
X685292Y370435D01*
Y371749D01*
X684789Y372962D01*
X683860Y373891D01*
X682647Y374394D01*
D02*
G37*
G36*
X666549Y360182D02*
X665235D01*
X664022Y359679D01*
X663093Y358750D01*
X662590Y357537D01*
Y356223D01*
X663093Y355010D01*
X664022Y354081D01*
X665235Y353578D01*
X666549D01*
X667762Y354081D01*
X668691Y355010D01*
X669194Y356223D01*
Y357537D01*
X668691Y358750D01*
X667762Y359679D01*
X666549Y360182D01*
D02*
G37*
G36*
X676549Y347482D02*
X675235D01*
X674022Y346979D01*
X673093Y346050D01*
X672590Y344837D01*
Y343523D01*
X673093Y342310D01*
X674022Y341381D01*
X675235Y340878D01*
X676549D01*
X677762Y341381D01*
X678691Y342310D01*
X679194Y343523D01*
Y344837D01*
X678691Y346050D01*
X677762Y346979D01*
X676549Y347482D01*
D02*
G37*
G36*
X666549D02*
X665235D01*
X664022Y346979D01*
X663093Y346050D01*
X662590Y344837D01*
Y343523D01*
X663093Y342310D01*
X664022Y341381D01*
X665235Y340878D01*
X666549D01*
X667762Y341381D01*
X668691Y342310D01*
X669194Y343523D01*
Y344837D01*
X668691Y346050D01*
X667762Y346979D01*
X666549Y347482D01*
D02*
G37*
G36*
X676549Y334380D02*
X675235D01*
X674022Y333877D01*
X673093Y332948D01*
X672590Y331735D01*
Y330421D01*
X673093Y329208D01*
X674022Y328279D01*
X675235Y327776D01*
X676549D01*
X677762Y328279D01*
X678691Y329208D01*
X679194Y330421D01*
Y331735D01*
X678691Y332948D01*
X677762Y333877D01*
X676549Y334380D01*
D02*
G37*
G36*
X666549D02*
X665235D01*
X664022Y333877D01*
X663093Y332948D01*
X662590Y331735D01*
Y330421D01*
X663093Y329208D01*
X664022Y328279D01*
X665235Y327776D01*
X666549D01*
X667762Y328279D01*
X668691Y329208D01*
X669194Y330421D01*
Y331735D01*
X668691Y332948D01*
X667762Y333877D01*
X666549Y334380D01*
D02*
G37*
G36*
X683247Y297484D02*
X681933D01*
X680720Y296981D01*
X679791Y296052D01*
X679288Y294839D01*
Y293525D01*
X679791Y292312D01*
X680720Y291383D01*
X681933Y290880D01*
X683247D01*
X684460Y291383D01*
X685389Y292312D01*
X685892Y293525D01*
Y294839D01*
X685389Y296052D01*
X684460Y296981D01*
X683247Y297484D01*
D02*
G37*
G36*
X674747D02*
X673433D01*
X672220Y296981D01*
X671291Y296052D01*
X670788Y294839D01*
Y293525D01*
X671291Y292312D01*
X672220Y291383D01*
X673433Y290880D01*
X674747D01*
X675960Y291383D01*
X676889Y292312D01*
X677392Y293525D01*
Y294839D01*
X676889Y296052D01*
X675960Y296981D01*
X674747Y297484D01*
D02*
G37*
G36*
X666247Y282880D02*
X664933D01*
X663720Y282377D01*
X662791Y281448D01*
X662288Y280235D01*
Y278921D01*
X662791Y277708D01*
X663720Y276779D01*
X664933Y276276D01*
X666247D01*
X667460Y276779D01*
X668389Y277708D01*
X668892Y278921D01*
Y280235D01*
X668389Y281448D01*
X667460Y282377D01*
X666247Y282880D01*
D02*
G37*
G36*
X627753Y228987D02*
X626440D01*
X625226Y228485D01*
X624297Y227556D01*
X623794Y226342D01*
Y225029D01*
X624297Y223815D01*
X625226Y222886D01*
X626440Y222383D01*
X627753D01*
X628967Y222886D01*
X629896Y223815D01*
X630398Y225029D01*
Y226342D01*
X629896Y227556D01*
X628967Y228485D01*
X627753Y228987D01*
D02*
G37*
G36*
X658039Y228473D02*
X656725D01*
X655511Y227970D01*
X654583Y227041D01*
X654080Y225828D01*
Y224514D01*
X654583Y223301D01*
X655511Y222372D01*
X656725Y221869D01*
X658039D01*
X659252Y222372D01*
X660181Y223301D01*
X660684Y224514D01*
Y225828D01*
X660181Y227041D01*
X659252Y227970D01*
X658039Y228473D01*
D02*
G37*
G36*
X648039D02*
X646725D01*
X645512Y227970D01*
X644583Y227041D01*
X644080Y225828D01*
Y224514D01*
X644583Y223301D01*
X645512Y222372D01*
X646725Y221869D01*
X648039D01*
X649252Y222372D01*
X650181Y223301D01*
X650684Y224514D01*
Y225828D01*
X650181Y227041D01*
X649252Y227970D01*
X648039Y228473D01*
D02*
G37*
G36*
X627753Y218987D02*
X626440D01*
X625226Y218485D01*
X624297Y217556D01*
X623794Y216342D01*
Y215029D01*
X624297Y213815D01*
X625226Y212886D01*
X626440Y212383D01*
X627753D01*
X628967Y212886D01*
X629896Y213815D01*
X630398Y215029D01*
Y216342D01*
X629896Y217556D01*
X628967Y218485D01*
X627753Y218987D01*
D02*
G37*
G36*
X658039Y218473D02*
X656725D01*
X655511Y217970D01*
X654583Y217041D01*
X654080Y215828D01*
Y214514D01*
X654583Y213301D01*
X655511Y212372D01*
X656725Y211869D01*
X658039D01*
X659252Y212372D01*
X660181Y213301D01*
X660684Y214514D01*
Y215828D01*
X660181Y217041D01*
X659252Y217970D01*
X658039Y218473D01*
D02*
G37*
G36*
X670203Y207799D02*
X668889D01*
X667676Y207296D01*
X666747Y206367D01*
X666244Y205154D01*
Y203840D01*
X666747Y202627D01*
X667676Y201698D01*
X668889Y201195D01*
X670203D01*
X671416Y201698D01*
X672345Y202627D01*
X672848Y203840D01*
Y205154D01*
X672345Y206367D01*
X671416Y207296D01*
X670203Y207799D01*
D02*
G37*
G36*
X634902Y172157D02*
X633588D01*
X632375Y171655D01*
X631446Y170726D01*
X630943Y169512D01*
Y168198D01*
X631446Y166985D01*
X632375Y166056D01*
X633588Y165553D01*
X634902D01*
X636116Y166056D01*
X637045Y166985D01*
X637547Y168198D01*
Y169512D01*
X637045Y170726D01*
X636116Y171655D01*
X634902Y172157D01*
D02*
G37*
G36*
X626901D02*
X625588D01*
X624374Y171655D01*
X623445Y170726D01*
X622942Y169512D01*
Y168198D01*
X623445Y166985D01*
X624374Y166056D01*
X625588Y165553D01*
X626901D01*
X628115Y166056D01*
X629044Y166985D01*
X629546Y168198D01*
Y169512D01*
X629044Y170726D01*
X628115Y171655D01*
X626901Y172157D01*
D02*
G37*
G36*
X634902Y164156D02*
X633588D01*
X632375Y163654D01*
X631446Y162725D01*
X630943Y161511D01*
Y160197D01*
X631446Y158984D01*
X632375Y158055D01*
X633588Y157552D01*
X634902D01*
X636116Y158055D01*
X637045Y158984D01*
X637547Y160197D01*
Y161511D01*
X637045Y162725D01*
X636116Y163654D01*
X634902Y164156D01*
D02*
G37*
G36*
X626901D02*
X625588D01*
X624374Y163654D01*
X623445Y162725D01*
X622942Y161511D01*
Y160197D01*
X623445Y158984D01*
X624374Y158055D01*
X625588Y157552D01*
X626901D01*
X628115Y158055D01*
X629044Y158984D01*
X629546Y160197D01*
Y161511D01*
X629044Y162725D01*
X628115Y163654D01*
X626901Y164156D01*
D02*
G37*
G36*
X634902Y156155D02*
X633588D01*
X632375Y155653D01*
X631446Y154724D01*
X630943Y153510D01*
Y152196D01*
X631446Y150983D01*
X632375Y150054D01*
X633588Y149551D01*
X634902D01*
X636116Y150054D01*
X637045Y150983D01*
X637547Y152196D01*
Y153510D01*
X637045Y154724D01*
X636116Y155653D01*
X634902Y156155D01*
D02*
G37*
G36*
X626901D02*
X625588D01*
X624374Y155653D01*
X623445Y154724D01*
X622942Y153510D01*
Y152196D01*
X623445Y150983D01*
X624374Y150054D01*
X625588Y149551D01*
X626901D01*
X628115Y150054D01*
X629044Y150983D01*
X629546Y152196D01*
Y153510D01*
X629044Y154724D01*
X628115Y155653D01*
X626901Y156155D01*
D02*
G37*
G36*
X675406Y151730D02*
X674092D01*
X672879Y151227D01*
X671950Y150298D01*
X671447Y149085D01*
Y147771D01*
X671950Y146558D01*
X672879Y145629D01*
X674092Y145126D01*
X675406D01*
X676619Y145629D01*
X677548Y146558D01*
X678051Y147771D01*
Y149085D01*
X677548Y150298D01*
X676619Y151227D01*
X675406Y151730D01*
D02*
G37*
G36*
X655977Y146650D02*
X654663D01*
X653450Y146147D01*
X652521Y145218D01*
X652018Y144005D01*
Y142691D01*
X652521Y141478D01*
X653450Y140549D01*
X654663Y140046D01*
X655977D01*
X657190Y140549D01*
X658119Y141478D01*
X658622Y142691D01*
Y144005D01*
X658119Y145218D01*
X657190Y146147D01*
X655977Y146650D01*
D02*
G37*
G36*
X695201Y144855D02*
X693888D01*
X692674Y144353D01*
X691745Y143424D01*
X691243Y142210D01*
Y140897D01*
X691745Y139683D01*
X692674Y138754D01*
X693888Y138251D01*
X695201D01*
X696415Y138754D01*
X697344Y139683D01*
X697847Y140897D01*
Y142210D01*
X697344Y143424D01*
X696415Y144353D01*
X695201Y144855D01*
D02*
G37*
G36*
Y134874D02*
X693888D01*
X692674Y134371D01*
X691745Y133442D01*
X691243Y132229D01*
Y130915D01*
X691745Y129701D01*
X692674Y128773D01*
X693888Y128270D01*
X695201D01*
X696415Y128773D01*
X697344Y129701D01*
X697847Y130915D01*
Y132229D01*
X697344Y133442D01*
X696415Y134371D01*
X695201Y134874D01*
D02*
G37*
G36*
X666965D02*
X665651D01*
X664438Y134371D01*
X663509Y133442D01*
X663006Y132229D01*
Y130915D01*
X663509Y129701D01*
X664438Y128773D01*
X665651Y128270D01*
X666965D01*
X668178Y128773D01*
X669107Y129701D01*
X669610Y130915D01*
Y132229D01*
X669107Y133442D01*
X668178Y134371D01*
X666965Y134874D01*
D02*
G37*
G36*
X638728D02*
X637415D01*
X636201Y134371D01*
X635272Y133442D01*
X634769Y132229D01*
Y130915D01*
X635272Y129701D01*
X636201Y128773D01*
X637415Y128270D01*
X638728D01*
X639942Y128773D01*
X640871Y129701D01*
X641373Y130915D01*
Y132229D01*
X640871Y133442D01*
X639942Y134371D01*
X638728Y134874D01*
D02*
G37*
G36*
X666965Y122165D02*
X665651D01*
X664438Y121662D01*
X663509Y120733D01*
X663006Y119520D01*
Y118206D01*
X663509Y116992D01*
X664438Y116063D01*
X665651Y115561D01*
X666965D01*
X668178Y116063D01*
X669107Y116992D01*
X669610Y118206D01*
Y119520D01*
X669107Y120733D01*
X668178Y121662D01*
X666965Y122165D01*
D02*
G37*
G36*
X638728D02*
X637415D01*
X636201Y121662D01*
X635272Y120733D01*
X634769Y119520D01*
Y118206D01*
X635272Y116992D01*
X636201Y116063D01*
X637415Y115561D01*
X638728D01*
X639942Y116063D01*
X640871Y116992D01*
X641373Y118206D01*
Y119520D01*
X640871Y120733D01*
X639942Y121662D01*
X638728Y122165D01*
D02*
G37*
G36*
X621736Y526115D02*
X620423D01*
X619209Y525612D01*
X618280Y524683D01*
X617777Y523470D01*
Y522156D01*
X618280Y520942D01*
X619209Y520014D01*
X620423Y519511D01*
X621736D01*
X622950Y520014D01*
X623879Y520942D01*
X624381Y522156D01*
Y523470D01*
X623879Y524683D01*
X622950Y525612D01*
X621736Y526115D01*
D02*
G37*
G36*
X611374Y515619D02*
X610364D01*
X609430Y515232D01*
X608715Y514518D01*
X608329Y513584D01*
Y512574D01*
X608715Y511640D01*
X609430Y510925D01*
X610364Y510539D01*
X611374D01*
X612308Y510925D01*
X613022Y511640D01*
X613409Y512574D01*
Y513584D01*
X613022Y514518D01*
X612308Y515232D01*
X611374Y515619D01*
D02*
G37*
G36*
X611525Y506398D02*
X610212D01*
X608998Y505895D01*
X608608Y505505D01*
X607778Y505106D01*
X606949Y505505D01*
X606558Y505895D01*
X605345Y506398D01*
X604031D01*
X602817Y505895D01*
X601889Y504966D01*
X601386Y503753D01*
Y502439D01*
X601889Y501226D01*
X602817Y500297D01*
X604031Y499794D01*
X605345D01*
X606558Y500297D01*
X606949Y500687D01*
X607778Y501086D01*
X608608Y500687D01*
X608998Y500297D01*
X610212Y499794D01*
X611525D01*
X612739Y500297D01*
X613668Y501226D01*
X614171Y502439D01*
Y503753D01*
X613668Y504966D01*
X612739Y505895D01*
X611525Y506398D01*
D02*
G37*
G36*
X446224Y497030D02*
X444910D01*
X443697Y496528D01*
X442768Y495599D01*
X442265Y494385D01*
Y493072D01*
X442768Y491858D01*
X443697Y490929D01*
X444910Y490426D01*
X446224D01*
X447438Y490929D01*
X448366Y491858D01*
X448869Y493072D01*
Y494385D01*
X448366Y495599D01*
X447438Y496528D01*
X446224Y497030D01*
D02*
G37*
G36*
X476025Y496371D02*
X474711D01*
X473498Y495868D01*
X472569Y494939D01*
X472066Y493726D01*
Y492412D01*
X472569Y491198D01*
X473498Y490269D01*
X474711Y489767D01*
X476025D01*
X477239Y490269D01*
X478168Y491198D01*
X478670Y492412D01*
Y493726D01*
X478168Y494939D01*
X477239Y495868D01*
X476025Y496371D01*
D02*
G37*
G36*
X428647D02*
X427333D01*
X426120Y495868D01*
X425191Y494939D01*
X424688Y493726D01*
Y492412D01*
X425191Y491198D01*
X426120Y490269D01*
X427333Y489767D01*
X428647D01*
X429860Y490269D01*
X430789Y491198D01*
X431292Y492412D01*
Y493726D01*
X430789Y494939D01*
X429860Y495868D01*
X428647Y496371D01*
D02*
G37*
G36*
X504817Y488442D02*
X503503D01*
X502290Y487939D01*
X501361Y487010D01*
X500858Y485797D01*
Y484483D01*
X501361Y483270D01*
X502290Y482341D01*
X503503Y481838D01*
X504817D01*
X506031Y482341D01*
X506959Y483270D01*
X507462Y484483D01*
Y485797D01*
X506959Y487010D01*
X506031Y487939D01*
X504817Y488442D01*
D02*
G37*
G36*
X476629Y476236D02*
X475315D01*
X474101Y475733D01*
X473172Y474804D01*
X472670Y473591D01*
Y472277D01*
X473172Y471063D01*
X474101Y470135D01*
X475315Y469632D01*
X476629D01*
X477842Y470135D01*
X478771Y471063D01*
X479274Y472277D01*
Y473591D01*
X478771Y474804D01*
X477842Y475733D01*
X476629Y476236D01*
D02*
G37*
G36*
X436916Y475989D02*
X435602D01*
X434388Y475486D01*
X433460Y474557D01*
X432957Y473344D01*
Y472030D01*
X433460Y470816D01*
X434388Y469888D01*
X435602Y469385D01*
X436916D01*
X438129Y469888D01*
X439058Y470816D01*
X439561Y472030D01*
Y473344D01*
X439058Y474557D01*
X438129Y475486D01*
X436916Y475989D01*
D02*
G37*
G36*
X488135Y472804D02*
X486822D01*
X485608Y472302D01*
X484679Y471373D01*
X484177Y470159D01*
Y468845D01*
X484679Y467632D01*
X485608Y466703D01*
X486822Y466200D01*
X488135D01*
X489349Y466703D01*
X490278Y467632D01*
X490781Y468845D01*
Y470159D01*
X490278Y471373D01*
X489349Y472302D01*
X488135Y472804D01*
D02*
G37*
G36*
X580158Y470662D02*
X578844D01*
X577631Y470159D01*
X576702Y469230D01*
X576199Y468017D01*
Y466703D01*
X576702Y465490D01*
X577631Y464561D01*
X578844Y464058D01*
X580158D01*
X581371Y464561D01*
X582300Y465490D01*
X582803Y466703D01*
Y468017D01*
X582300Y469230D01*
X581371Y470159D01*
X580158Y470662D01*
D02*
G37*
G36*
X572157D02*
X570843D01*
X569630Y470159D01*
X568701Y469230D01*
X568198Y468017D01*
Y466703D01*
X568701Y465490D01*
X569630Y464561D01*
X570843Y464058D01*
X572157D01*
X573370Y464561D01*
X574299Y465490D01*
X574802Y466703D01*
Y468017D01*
X574299Y469230D01*
X573370Y470159D01*
X572157Y470662D01*
D02*
G37*
G36*
X675047Y516034D02*
X673734D01*
X672520Y515531D01*
X671591Y514603D01*
X671088Y513389D01*
Y512075D01*
X671591Y510862D01*
X672520Y509933D01*
X673734Y509430D01*
X675047D01*
X676261Y509933D01*
X677190Y510862D01*
X677692Y512075D01*
Y513389D01*
X677190Y514603D01*
X676261Y515531D01*
X675047Y516034D01*
D02*
G37*
G36*
X654655Y471641D02*
X653341D01*
X652128Y471138D01*
X651199Y470209D01*
X650696Y468996D01*
Y467682D01*
X651199Y466469D01*
X652128Y465540D01*
X653341Y465037D01*
X654655D01*
X655868Y465540D01*
X656797Y466469D01*
X657300Y467682D01*
Y468996D01*
X656797Y470209D01*
X655868Y471138D01*
X654655Y471641D01*
D02*
G37*
G36*
X615787Y446710D02*
X614473D01*
X613260Y446208D01*
X612331Y445279D01*
X611828Y444065D01*
Y442752D01*
X612331Y441538D01*
X613260Y440609D01*
X614473Y440106D01*
X615787D01*
X617000Y440609D01*
X617929Y441538D01*
X618432Y442752D01*
Y444065D01*
X617929Y445279D01*
X617000Y446208D01*
X615787Y446710D01*
D02*
G37*
G36*
X603907Y446532D02*
X602593D01*
X601380Y446029D01*
X600451Y445100D01*
X599948Y443887D01*
Y442573D01*
X600451Y441360D01*
X601380Y440431D01*
X602593Y439928D01*
X603907D01*
X605120Y440431D01*
X606049Y441360D01*
X606552Y442573D01*
Y443887D01*
X606049Y445100D01*
X605120Y446029D01*
X603907Y446532D01*
D02*
G37*
G36*
X632247Y445984D02*
X630933D01*
X629720Y445481D01*
X628791Y444552D01*
X628288Y443339D01*
Y442025D01*
X628791Y440812D01*
X629720Y439883D01*
X630933Y439380D01*
X632247D01*
X633460Y439883D01*
X634389Y440812D01*
X634892Y442025D01*
Y443339D01*
X634389Y444552D01*
X633460Y445481D01*
X632247Y445984D01*
D02*
G37*
G36*
Y437484D02*
X630933D01*
X629720Y436981D01*
X628791Y436052D01*
X628288Y434839D01*
Y433525D01*
X628791Y432312D01*
X629720Y431383D01*
X630933Y430880D01*
X632247D01*
X633460Y431383D01*
X634389Y432312D01*
X634892Y433525D01*
Y434839D01*
X634389Y436052D01*
X633460Y436981D01*
X632247Y437484D01*
D02*
G37*
G36*
X633371Y420624D02*
X632057D01*
X630844Y420121D01*
X629915Y419192D01*
X629412Y417979D01*
Y416665D01*
X629915Y415452D01*
X630072Y415294D01*
X630793Y414464D01*
X630072Y413635D01*
X629915Y413477D01*
X629412Y412264D01*
Y410950D01*
X629915Y409737D01*
X630844Y408808D01*
X632057Y408305D01*
X633371D01*
X634584Y408808D01*
X635513Y409737D01*
X636016Y410950D01*
Y412264D01*
X635513Y413477D01*
X635356Y413635D01*
X634635Y414464D01*
X635356Y415294D01*
X635513Y415452D01*
X636016Y416665D01*
Y417979D01*
X635513Y419192D01*
X634584Y420121D01*
X633371Y420624D01*
D02*
G37*
G36*
X578049Y417068D02*
X576735D01*
X575522Y416565D01*
X574593Y415636D01*
X574090Y414423D01*
Y413109D01*
X574593Y411896D01*
X574836Y411653D01*
X575420Y410823D01*
X574836Y409993D01*
X574593Y409750D01*
X574090Y408537D01*
Y407223D01*
X574593Y406010D01*
X575522Y405081D01*
X576735Y404578D01*
X578049D01*
X579262Y405081D01*
X580191Y406010D01*
X580694Y407223D01*
Y408537D01*
X580191Y409750D01*
X579948Y409993D01*
X579364Y410823D01*
X579948Y411653D01*
X580191Y411896D01*
X580694Y413109D01*
Y414423D01*
X580191Y415636D01*
X579262Y416565D01*
X578049Y417068D01*
D02*
G37*
G36*
X602797Y400284D02*
X601483D01*
X600270Y399781D01*
X599341Y398852D01*
X598838Y397639D01*
Y396325D01*
X599341Y395111D01*
X600270Y394182D01*
X601483Y393680D01*
X602797D01*
X604011Y394182D01*
X604939Y395111D01*
X605442Y396325D01*
Y397639D01*
X604939Y398852D01*
X604011Y399781D01*
X602797Y400284D01*
D02*
G37*
G36*
X590031D02*
X588717D01*
X587504Y399781D01*
X586575Y398852D01*
X586072Y397639D01*
Y396325D01*
X586575Y395111D01*
X587504Y394182D01*
X588717Y393680D01*
X590031D01*
X591244Y394182D01*
X592173Y395111D01*
X592676Y396325D01*
Y397639D01*
X592173Y398852D01*
X591244Y399781D01*
X590031Y400284D01*
D02*
G37*
G36*
X623747Y411793D02*
X622433D01*
X621220Y411290D01*
X620291Y410361D01*
X619788Y409148D01*
Y407834D01*
X620291Y406620D01*
X620590Y406321D01*
X621097Y405492D01*
X620590Y404662D01*
X620291Y404363D01*
X619788Y403149D01*
Y401836D01*
X620291Y400622D01*
X620590Y400323D01*
X621097Y399493D01*
X620590Y398664D01*
X620291Y398364D01*
X619788Y397151D01*
Y395837D01*
X620291Y394624D01*
X621220Y393695D01*
X622433Y393192D01*
X623747D01*
X624960Y393695D01*
X625889Y394624D01*
X626392Y395837D01*
Y397151D01*
X625889Y398364D01*
X625590Y398664D01*
X625083Y399493D01*
X625590Y400323D01*
X625889Y400622D01*
X626392Y401836D01*
Y403149D01*
X625889Y404363D01*
X625590Y404662D01*
X625083Y405492D01*
X625590Y406321D01*
X625889Y406620D01*
X626392Y407834D01*
Y409148D01*
X625889Y410361D01*
X624960Y411290D01*
X623747Y411793D01*
D02*
G37*
G36*
X614945Y385984D02*
X613631D01*
X612418Y385481D01*
X611489Y384552D01*
X610986Y383339D01*
Y382025D01*
X611489Y380812D01*
X612418Y379883D01*
X613631Y379380D01*
Y378183D01*
X612418Y377680D01*
X611489Y376751D01*
X610986Y375538D01*
Y374224D01*
X611489Y373011D01*
X612418Y372082D01*
X613631Y371579D01*
X614945D01*
X616158Y372082D01*
X617087Y373011D01*
X617590Y374224D01*
Y375538D01*
X617087Y376751D01*
X616158Y377680D01*
X614945Y378183D01*
Y379380D01*
X616158Y379883D01*
X617087Y380812D01*
X617590Y382025D01*
Y383339D01*
X617087Y384552D01*
X616158Y385481D01*
X614945Y385984D01*
D02*
G37*
G36*
X604945D02*
X603631D01*
X602418Y385481D01*
X601489Y384552D01*
X600986Y383339D01*
Y382025D01*
X601489Y380812D01*
X602418Y379883D01*
X603631Y379380D01*
Y378183D01*
X602418Y377680D01*
X601489Y376751D01*
X600986Y375538D01*
Y374224D01*
X601489Y373011D01*
X602418Y372082D01*
X603631Y371579D01*
X604945D01*
X606158Y372082D01*
X607087Y373011D01*
X607590Y374224D01*
Y375538D01*
X607087Y376751D01*
X606158Y377680D01*
X604945Y378183D01*
Y379380D01*
X606158Y379883D01*
X607087Y380812D01*
X607590Y382025D01*
Y383339D01*
X607087Y384552D01*
X606158Y385481D01*
X604945Y385984D01*
D02*
G37*
G36*
X590031Y376429D02*
X588717D01*
X587504Y375926D01*
X586575Y374997D01*
X586072Y373784D01*
Y372470D01*
X586575Y371256D01*
X587504Y370327D01*
X588717Y369825D01*
X590031D01*
X591244Y370327D01*
X592173Y371256D01*
X592676Y372470D01*
Y373784D01*
X592173Y374997D01*
X591244Y375926D01*
X590031Y376429D01*
D02*
G37*
G36*
X614945Y368183D02*
X613631D01*
X612418Y367680D01*
X611489Y366751D01*
X610986Y365538D01*
Y364224D01*
X611489Y363011D01*
X612418Y362082D01*
X613631Y361579D01*
X614945D01*
X616158Y362082D01*
X617087Y363011D01*
X617590Y364224D01*
Y365538D01*
X617087Y366751D01*
X616158Y367680D01*
X614945Y368183D01*
D02*
G37*
G36*
X604945D02*
X603631D01*
X602418Y367680D01*
X601489Y366751D01*
X600986Y365538D01*
Y364224D01*
X601489Y363011D01*
X602418Y362082D01*
X603631Y361579D01*
X604945D01*
X606158Y362082D01*
X607087Y363011D01*
X607590Y364224D01*
Y365538D01*
X607087Y366751D01*
X606158Y367680D01*
X604945Y368183D01*
D02*
G37*
G36*
X594945D02*
X593631D01*
X592418Y367680D01*
X591489Y366751D01*
X590986Y365538D01*
Y364224D01*
X591489Y363011D01*
X592418Y362082D01*
X593631Y361579D01*
X594945D01*
X596158Y362082D01*
X597087Y363011D01*
X597590Y364224D01*
Y365538D01*
X597087Y366751D01*
X596158Y367680D01*
X594945Y368183D01*
D02*
G37*
G36*
X584945D02*
X583631D01*
X582418Y367680D01*
X581489Y366751D01*
X580986Y365538D01*
Y364224D01*
X581489Y363011D01*
X582418Y362082D01*
X583631Y361579D01*
X584945D01*
X586158Y362082D01*
X587087Y363011D01*
X587590Y364224D01*
Y365538D01*
X587087Y366751D01*
X586158Y367680D01*
X584945Y368183D01*
D02*
G37*
G36*
X614945Y360182D02*
X613631D01*
X612418Y359679D01*
X611489Y358750D01*
X610986Y357537D01*
Y356223D01*
X611489Y355010D01*
X612418Y354081D01*
X613631Y353578D01*
X614945D01*
X616158Y354081D01*
X617087Y355010D01*
X617590Y356223D01*
Y357537D01*
X617087Y358750D01*
X616158Y359679D01*
X614945Y360182D01*
D02*
G37*
G36*
X604945D02*
X603631D01*
X602418Y359679D01*
X601489Y358750D01*
X600986Y357537D01*
Y356223D01*
X601489Y355010D01*
X602418Y354081D01*
X603631Y353578D01*
X604945D01*
X606158Y354081D01*
X607087Y355010D01*
X607590Y356223D01*
Y357537D01*
X607087Y358750D01*
X606158Y359679D01*
X604945Y360182D01*
D02*
G37*
G36*
X594945D02*
X593631D01*
X592418Y359679D01*
X591489Y358750D01*
X590986Y357537D01*
Y356223D01*
X591489Y355010D01*
X592418Y354081D01*
X593631Y353578D01*
X594945D01*
X596158Y354081D01*
X597087Y355010D01*
X597590Y356223D01*
Y357537D01*
X597087Y358750D01*
X596158Y359679D01*
X594945Y360182D01*
D02*
G37*
G36*
X584945D02*
X583631D01*
X582418Y359679D01*
X581489Y358750D01*
X580986Y357537D01*
Y356223D01*
X581489Y355010D01*
X582418Y354081D01*
X583631Y353578D01*
X584945D01*
X586158Y354081D01*
X587087Y355010D01*
X587590Y356223D01*
Y357537D01*
X587087Y358750D01*
X586158Y359679D01*
X584945Y360182D01*
D02*
G37*
G36*
X614945Y343682D02*
X613631D01*
X612418Y343179D01*
X611489Y342250D01*
X610986Y341037D01*
Y339723D01*
X611489Y338510D01*
X612418Y337581D01*
X613631Y337078D01*
X614945D01*
X616158Y337581D01*
X617087Y338510D01*
X617590Y339723D01*
Y341037D01*
X617087Y342250D01*
X616158Y343179D01*
X614945Y343682D01*
D02*
G37*
G36*
X604945D02*
X603631D01*
X602418Y343179D01*
X601489Y342250D01*
X600986Y341037D01*
Y339723D01*
X601489Y338510D01*
X602418Y337581D01*
X603631Y337078D01*
X604945D01*
X606158Y337581D01*
X607087Y338510D01*
X607590Y339723D01*
Y341037D01*
X607087Y342250D01*
X606158Y343179D01*
X604945Y343682D01*
D02*
G37*
G36*
X594945D02*
X593631D01*
X592418Y343179D01*
X591489Y342250D01*
X590986Y341037D01*
Y339723D01*
X591489Y338510D01*
X592418Y337581D01*
X593631Y337078D01*
X594945D01*
X596158Y337581D01*
X597087Y338510D01*
X597590Y339723D01*
Y341037D01*
X597087Y342250D01*
X596158Y343179D01*
X594945Y343682D01*
D02*
G37*
G36*
X584945D02*
X583631D01*
X582418Y343179D01*
X581489Y342250D01*
X580986Y341037D01*
Y339723D01*
X581489Y338510D01*
X582418Y337581D01*
X583631Y337078D01*
X584945D01*
X586158Y337581D01*
X587087Y338510D01*
X587590Y339723D01*
Y341037D01*
X587087Y342250D01*
X586158Y343179D01*
X584945Y343682D01*
D02*
G37*
G36*
X614945Y335681D02*
X613631D01*
X612418Y335178D01*
X611489Y334249D01*
X610986Y333036D01*
Y331722D01*
X611489Y330509D01*
X612418Y329580D01*
X613631Y329077D01*
X614945D01*
X616158Y329580D01*
X617087Y330509D01*
X617590Y331722D01*
Y333036D01*
X617087Y334249D01*
X616158Y335178D01*
X614945Y335681D01*
D02*
G37*
G36*
X604945D02*
X603631D01*
X602418Y335178D01*
X601489Y334249D01*
X600986Y333036D01*
Y331722D01*
X601489Y330509D01*
X602418Y329580D01*
X603631Y329077D01*
X604945D01*
X606158Y329580D01*
X607087Y330509D01*
X607590Y331722D01*
Y333036D01*
X607087Y334249D01*
X606158Y335178D01*
X604945Y335681D01*
D02*
G37*
G36*
X594945D02*
X593631D01*
X592418Y335178D01*
X591489Y334249D01*
X590986Y333036D01*
Y331722D01*
X591489Y330509D01*
X592418Y329580D01*
X593631Y329077D01*
X594945D01*
X596158Y329580D01*
X597087Y330509D01*
X597590Y331722D01*
Y333036D01*
X597087Y334249D01*
X596158Y335178D01*
X594945Y335681D01*
D02*
G37*
G36*
X584945D02*
X583631D01*
X582418Y335178D01*
X581489Y334249D01*
X580986Y333036D01*
Y331722D01*
X581489Y330509D01*
X582418Y329580D01*
X583631Y329077D01*
X584945D01*
X586158Y329580D01*
X587087Y330509D01*
X587590Y331722D01*
Y333036D01*
X587087Y334249D01*
X586158Y335178D01*
X584945Y335681D01*
D02*
G37*
G36*
X578049Y309182D02*
X576735D01*
X575522Y308679D01*
X574593Y307750D01*
X574090Y306537D01*
Y305223D01*
X574593Y304010D01*
X575522Y303081D01*
X576735Y302578D01*
X578049D01*
X579262Y303081D01*
X580191Y304010D01*
X580694Y305223D01*
Y306537D01*
X580191Y307750D01*
X579262Y308679D01*
X578049Y309182D01*
D02*
G37*
G36*
X615247Y297484D02*
X613933D01*
X612720Y296981D01*
X611791Y296052D01*
X611288Y294839D01*
Y293525D01*
X611791Y292312D01*
X612720Y291383D01*
X613933Y290880D01*
X615247D01*
X616460Y291383D01*
X617389Y292312D01*
X617892Y293525D01*
Y294839D01*
X617389Y296052D01*
X616460Y296981D01*
X615247Y297484D01*
D02*
G37*
G36*
X606747D02*
X605433D01*
X604220Y296981D01*
X603291Y296052D01*
X602788Y294839D01*
Y293525D01*
X603291Y292312D01*
X604220Y291383D01*
X605433Y290880D01*
X606747D01*
X607960Y291383D01*
X608889Y292312D01*
X609392Y293525D01*
Y294839D01*
X608889Y296052D01*
X607960Y296981D01*
X606747Y297484D01*
D02*
G37*
G36*
X598247D02*
X596933D01*
X595720Y296981D01*
X594791Y296052D01*
X594288Y294839D01*
Y293525D01*
X594791Y292312D01*
X595720Y291383D01*
X596933Y290880D01*
X598247D01*
X599460Y291383D01*
X600389Y292312D01*
X600892Y293525D01*
Y294839D01*
X600389Y296052D01*
X599460Y296981D01*
X598247Y297484D01*
D02*
G37*
G36*
X589747D02*
X588433D01*
X587220Y296981D01*
X586291Y296052D01*
X585788Y294839D01*
Y293525D01*
X586291Y292312D01*
X587220Y291383D01*
X588433Y290880D01*
X589747D01*
X590960Y291383D01*
X591889Y292312D01*
X592392Y293525D01*
Y294839D01*
X591889Y296052D01*
X590960Y296981D01*
X589747Y297484D01*
D02*
G37*
G36*
X581247D02*
X579933D01*
X578720Y296981D01*
X577791Y296052D01*
X577288Y294839D01*
Y293525D01*
X577791Y292312D01*
X578720Y291383D01*
X579933Y290880D01*
X581247D01*
X582460Y291383D01*
X583389Y292312D01*
X583892Y293525D01*
Y294839D01*
X583389Y296052D01*
X582460Y296981D01*
X581247Y297484D01*
D02*
G37*
G36*
X590887Y280162D02*
X589573D01*
X588359Y279659D01*
X587431Y278730D01*
X586928Y277517D01*
Y276203D01*
X587431Y274990D01*
X588359Y274061D01*
X589573Y273558D01*
X590887D01*
X592100Y274061D01*
X593029Y274990D01*
X593532Y276203D01*
Y277517D01*
X593029Y278730D01*
X592100Y279659D01*
X590887Y280162D01*
D02*
G37*
G36*
X580887D02*
X579573D01*
X578359Y279659D01*
X577431Y278730D01*
X576928Y277517D01*
Y276203D01*
X577431Y274990D01*
X578359Y274061D01*
X579573Y273558D01*
X580887D01*
X582100Y274061D01*
X583029Y274990D01*
X583532Y276203D01*
Y277517D01*
X583029Y278730D01*
X582100Y279659D01*
X580887Y280162D01*
D02*
G37*
G36*
X570887D02*
X569573D01*
X568360Y279659D01*
X567431Y278730D01*
X566928Y277517D01*
Y276203D01*
X567431Y274990D01*
X568360Y274061D01*
X569573Y273558D01*
X570887D01*
X572100Y274061D01*
X573029Y274990D01*
X573532Y276203D01*
Y277517D01*
X573029Y278730D01*
X572100Y279659D01*
X570887Y280162D01*
D02*
G37*
G36*
X574953Y252563D02*
X573639D01*
X572426Y252060D01*
X571497Y251131D01*
X570994Y249918D01*
Y248604D01*
X571497Y247391D01*
X572426Y246462D01*
X573639Y245959D01*
X574953D01*
X576166Y246462D01*
X577095Y247391D01*
X577598Y248604D01*
Y249918D01*
X577095Y251131D01*
X576166Y252060D01*
X574953Y252563D01*
D02*
G37*
G36*
X574700Y211019D02*
X573386D01*
X572172Y210517D01*
X571243Y209588D01*
X570741Y208374D01*
Y207061D01*
X571243Y205847D01*
X572172Y204918D01*
X573386Y204415D01*
X574700D01*
X575913Y204918D01*
X576842Y205847D01*
X577345Y207061D01*
Y208374D01*
X576842Y209588D01*
X575913Y210517D01*
X574700Y211019D01*
D02*
G37*
G36*
X584715Y162837D02*
X583401D01*
X582188Y162334D01*
X581259Y161406D01*
X580756Y160192D01*
Y158878D01*
X581259Y157665D01*
X582188Y156736D01*
X583401Y156233D01*
X584715D01*
X585928Y156736D01*
X586857Y157665D01*
X587360Y158878D01*
Y160192D01*
X586857Y161406D01*
X585928Y162334D01*
X584715Y162837D01*
D02*
G37*
G36*
X560323Y167950D02*
X559010D01*
X557796Y167447D01*
X556867Y166518D01*
X556365Y165305D01*
Y163991D01*
X556867Y162777D01*
X557796Y161849D01*
X558191Y161685D01*
Y160310D01*
X557598Y160065D01*
X556669Y159136D01*
X556166Y157922D01*
Y156608D01*
X556669Y155395D01*
X557598Y154466D01*
X558812Y153963D01*
X560125D01*
X561339Y154466D01*
X562268Y155395D01*
X562771Y156608D01*
Y157922D01*
X562268Y159136D01*
X561339Y160065D01*
X560944Y160228D01*
Y161603D01*
X561537Y161849D01*
X562466Y162777D01*
X562969Y163991D01*
Y165305D01*
X562466Y166518D01*
X561537Y167447D01*
X560323Y167950D01*
D02*
G37*
G36*
X584711Y154855D02*
X583398D01*
X582184Y154353D01*
X581255Y153424D01*
X580753Y152210D01*
Y150897D01*
X581255Y149683D01*
X582184Y148754D01*
X583398Y148251D01*
X584711D01*
X585925Y148754D01*
X586854Y149683D01*
X587357Y150897D01*
Y152210D01*
X586854Y153424D01*
X585925Y154353D01*
X584711Y154855D01*
D02*
G37*
G36*
Y146854D02*
X583398D01*
X582184Y146352D01*
X581255Y145423D01*
X580753Y144209D01*
Y142895D01*
X581255Y141682D01*
X582184Y140753D01*
X583398Y140250D01*
X584711D01*
X585925Y140753D01*
X586854Y141682D01*
X587357Y142895D01*
Y144209D01*
X586854Y145423D01*
X585925Y146352D01*
X584711Y146854D01*
D02*
G37*
G36*
X594711Y134855D02*
X593398D01*
X592184Y134353D01*
X591255Y133424D01*
X590753Y132210D01*
Y130897D01*
X591255Y129683D01*
X592184Y128754D01*
X593398Y128251D01*
X594711D01*
X595925Y128754D01*
X596854Y129683D01*
X597357Y130897D01*
Y132210D01*
X596854Y133424D01*
X595925Y134353D01*
X594711Y134855D01*
D02*
G37*
G36*
X584711D02*
X583398D01*
X582184Y134353D01*
X581255Y133424D01*
X580753Y132210D01*
Y130897D01*
X581255Y129683D01*
X582184Y128754D01*
X583398Y128251D01*
X584711D01*
X585925Y128754D01*
X586854Y129683D01*
X587357Y130897D01*
Y132210D01*
X586854Y133424D01*
X585925Y134353D01*
X584711Y134855D01*
D02*
G37*
G36*
X313710Y633400D02*
X311742Y633140D01*
X309908Y632381D01*
X308333Y631172D01*
X307124Y629597D01*
X306364Y627763D01*
X306105Y625794D01*
Y617794D01*
X306364Y615826D01*
X307124Y613992D01*
X308333Y612417D01*
X309908Y611208D01*
X311742Y610449D01*
X313710Y610190D01*
X315679Y610449D01*
X317513Y611208D01*
X319088Y612417D01*
X320297Y613992D01*
X321056Y615826D01*
X321315Y617794D01*
Y625794D01*
X321056Y627763D01*
X320297Y629597D01*
X319088Y631172D01*
X317513Y632381D01*
X315679Y633140D01*
X313710Y633400D01*
D02*
G37*
G36*
X227310D02*
X225341Y633140D01*
X223507Y632381D01*
X221932Y631172D01*
X220723Y629597D01*
X219964Y627763D01*
X219705Y625794D01*
Y617794D01*
X219964Y615826D01*
X220723Y613992D01*
X221932Y612417D01*
X223507Y611208D01*
X225341Y610449D01*
X227310Y610190D01*
X229278Y610449D01*
X231112Y611208D01*
X232687Y612417D01*
X233896Y613992D01*
X234656Y615826D01*
X234915Y617794D01*
Y625794D01*
X234656Y627763D01*
X233896Y629597D01*
X232687Y631172D01*
X231112Y632381D01*
X229278Y633140D01*
X227310Y633400D01*
D02*
G37*
G36*
X269937Y586899D02*
X268624D01*
X267410Y586397D01*
X266975Y585961D01*
X266145Y585610D01*
X265315Y585961D01*
X264880Y586397D01*
X263666Y586899D01*
X262353D01*
X261139Y586397D01*
X260210Y585468D01*
X259707Y584254D01*
Y582941D01*
X260210Y581727D01*
X261139Y580798D01*
X262353Y580295D01*
X263666D01*
X264880Y580798D01*
X265315Y581234D01*
X266145Y581585D01*
X266975Y581234D01*
X267410Y580798D01*
X268624Y580295D01*
X269937D01*
X271151Y580798D01*
X272080Y581727D01*
X272583Y582941D01*
Y584254D01*
X272080Y585468D01*
X271151Y586397D01*
X269937Y586899D01*
D02*
G37*
G36*
X227310Y593401D02*
X225341Y593142D01*
X223507Y592382D01*
X221932Y591174D01*
X220723Y589599D01*
X219964Y587764D01*
X219705Y585796D01*
Y574796D01*
X219964Y572828D01*
X220723Y570993D01*
X221932Y569418D01*
X223507Y568210D01*
X225341Y567450D01*
X227310Y567191D01*
X229278Y567450D01*
X231112Y568210D01*
X232687Y569418D01*
X233896Y570993D01*
X234656Y572828D01*
X234915Y574796D01*
Y581971D01*
X235143Y582146D01*
X236860Y581862D01*
X237390Y581069D01*
X239326Y579776D01*
X241610Y579321D01*
X243894Y579776D01*
X245830Y581069D01*
X247124Y583006D01*
X247578Y585290D01*
X247449Y585937D01*
Y585937D01*
X247402Y586176D01*
X247124Y587574D01*
X246758Y588122D01*
X246757Y588122D01*
X246196Y588962D01*
X246196Y588963D01*
X245830Y589510D01*
X245282Y589876D01*
X245282Y589877D01*
X244441Y590438D01*
X244441Y590438D01*
X243894Y590804D01*
X243248Y590932D01*
X243247Y590933D01*
X242256Y591130D01*
X242255D01*
X241610Y591258D01*
X240964Y591130D01*
X240963D01*
X239972Y590932D01*
X239971Y590932D01*
X239326Y590804D01*
X238778Y590438D01*
X238777Y590438D01*
X237937Y589876D01*
X237937Y589876D01*
X237390Y589510D01*
X237024Y588962D01*
X237023Y588962D01*
X236462Y588121D01*
Y588121D01*
X236096Y587574D01*
X236015Y587168D01*
X234729Y587210D01*
X234656Y587764D01*
X233896Y589599D01*
X232687Y591174D01*
X231112Y592382D01*
X229278Y593142D01*
X227310Y593401D01*
D02*
G37*
G36*
X102046Y579885D02*
X100732D01*
X99518Y579382D01*
X98590Y578453D01*
X98087Y577240D01*
Y575926D01*
X98590Y574713D01*
X99518Y573784D01*
X100732Y573281D01*
X102046D01*
X103259Y573784D01*
X104188Y574713D01*
X104691Y575926D01*
Y577240D01*
X104188Y578453D01*
X103259Y579382D01*
X102046Y579885D01*
D02*
G37*
G36*
X102046Y571508D02*
X100732D01*
X99518Y571006D01*
X98589Y570077D01*
X98087Y568863D01*
Y567550D01*
X98589Y566336D01*
X99518Y565407D01*
X99737Y565317D01*
X100353Y564136D01*
X99850Y562923D01*
Y561609D01*
X100353Y560396D01*
X101281Y559467D01*
X102495Y558964D01*
X103809D01*
X105022Y559467D01*
X105951Y560396D01*
X106454Y561609D01*
Y562923D01*
X105951Y564136D01*
X105022Y565065D01*
X104804Y565156D01*
X104188Y566336D01*
X104691Y567550D01*
Y568863D01*
X104188Y570077D01*
X103259Y571006D01*
X102046Y571508D01*
D02*
G37*
G36*
X75058Y574570D02*
X73745D01*
X72531Y574067D01*
X71602Y573138D01*
X71100Y571925D01*
Y570611D01*
X71602Y569397D01*
X71902Y569098D01*
X72409Y568268D01*
X71902Y567438D01*
X71602Y567139D01*
X71100Y565925D01*
Y564611D01*
X71602Y563398D01*
X71902Y563098D01*
X72409Y562268D01*
X71902Y561439D01*
X71602Y561139D01*
X71100Y559925D01*
Y558612D01*
X71602Y557398D01*
X72531Y556469D01*
X73745Y555967D01*
X75058D01*
X76272Y556469D01*
X77201Y557398D01*
X77704Y558612D01*
Y559925D01*
X77201Y561139D01*
X76901Y561439D01*
X76395Y562268D01*
X76901Y563098D01*
X77201Y563398D01*
X77704Y564611D01*
Y565925D01*
X77201Y567139D01*
X76901Y567438D01*
X76395Y568268D01*
X76901Y569098D01*
X77201Y569397D01*
X77704Y570611D01*
Y571925D01*
X77201Y573138D01*
X76272Y574067D01*
X75058Y574570D01*
D02*
G37*
G36*
X128927Y499872D02*
X127613D01*
X126400Y499369D01*
X125471Y498440D01*
X124968Y497227D01*
Y495913D01*
X125471Y494700D01*
X126400Y493771D01*
X127613Y493268D01*
X128927D01*
X130140Y493771D01*
X131069Y494700D01*
X131572Y495913D01*
Y497227D01*
X131069Y498440D01*
X130140Y499369D01*
X128927Y499872D01*
D02*
G37*
G36*
X346029Y497290D02*
X344715D01*
X343501Y496787D01*
X342572Y495858D01*
X342070Y494644D01*
Y493331D01*
X342572Y492117D01*
X343501Y491188D01*
X344715Y490686D01*
X346029D01*
X347242Y491188D01*
X348171Y492117D01*
X348674Y493331D01*
Y494644D01*
X348171Y495858D01*
X347242Y496787D01*
X346029Y497290D01*
D02*
G37*
G36*
X117497Y499872D02*
X116183D01*
X114970Y499369D01*
X114041Y498440D01*
X113538Y497227D01*
Y495913D01*
X114041Y494700D01*
X114762Y493979D01*
X114809Y493009D01*
X114703Y492506D01*
X113898Y491702D01*
X113396Y490489D01*
Y489175D01*
X113898Y487961D01*
X114827Y487032D01*
X116041Y486530D01*
X117355D01*
X118568Y487032D01*
X119497Y487961D01*
X120000Y489175D01*
Y490489D01*
X119497Y491702D01*
X118776Y492423D01*
X118729Y493392D01*
X118835Y493895D01*
X119639Y494700D01*
X120142Y495913D01*
Y497227D01*
X119639Y498440D01*
X118710Y499369D01*
X117497Y499872D01*
D02*
G37*
G36*
X266487Y491940D02*
X265173D01*
X263960Y491437D01*
X263031Y490508D01*
X262528Y489295D01*
Y487981D01*
X263031Y486768D01*
X263960Y485839D01*
X265173Y485336D01*
X266487D01*
X267700Y485839D01*
X268629Y486768D01*
X269132Y487981D01*
Y489295D01*
X268629Y490508D01*
X267700Y491437D01*
X266487Y491940D01*
D02*
G37*
G36*
X247487D02*
X246173D01*
X244960Y491437D01*
X244031Y490508D01*
X243528Y489295D01*
Y487981D01*
X244031Y486768D01*
X244960Y485839D01*
X246173Y485336D01*
X247487D01*
X248700Y485839D01*
X249629Y486768D01*
X250132Y487981D01*
Y489295D01*
X249629Y490508D01*
X248700Y491437D01*
X247487Y491940D01*
D02*
G37*
G36*
X88098Y502568D02*
X86784D01*
X85571Y502066D01*
X84642Y501137D01*
X84139Y499923D01*
Y498609D01*
X84642Y497396D01*
X84941Y497096D01*
X85448Y496267D01*
X84941Y495437D01*
X84642Y495137D01*
X84139Y493924D01*
Y492610D01*
X84642Y491396D01*
X84941Y491097D01*
X85448Y490267D01*
X84941Y489437D01*
X84642Y489138D01*
X84139Y487924D01*
Y486610D01*
X84642Y485397D01*
X85571Y484468D01*
X86784Y483965D01*
X88098D01*
X89312Y484468D01*
X90240Y485397D01*
X90743Y486610D01*
Y487924D01*
X90240Y489138D01*
X89941Y489437D01*
X89434Y490267D01*
X89941Y491097D01*
X90240Y491396D01*
X90743Y492610D01*
Y493924D01*
X90240Y495137D01*
X89941Y495437D01*
X89434Y496267D01*
X89941Y497096D01*
X90240Y497396D01*
X90743Y498609D01*
Y499923D01*
X90240Y501137D01*
X89312Y502066D01*
X88098Y502568D01*
D02*
G37*
G36*
X130363Y487570D02*
X129049D01*
X127836Y487067D01*
X126907Y486138D01*
X126404Y484924D01*
Y483611D01*
X126907Y482397D01*
X127836Y481468D01*
X129049Y480966D01*
X130363D01*
X131576Y481468D01*
X132505Y482397D01*
X133008Y483611D01*
Y484924D01*
X132505Y486138D01*
X131576Y487067D01*
X130363Y487570D01*
D02*
G37*
G36*
X169719Y484542D02*
X168405D01*
X167191Y484039D01*
X166262Y483111D01*
X165760Y481897D01*
Y480583D01*
X166262Y479370D01*
X167191Y478441D01*
X168405Y477938D01*
X169719D01*
X170932Y478441D01*
X171861Y479370D01*
X172364Y480583D01*
Y481897D01*
X171861Y483111D01*
X170932Y484039D01*
X169719Y484542D01*
D02*
G37*
G36*
X98919Y491684D02*
X97605D01*
X96392Y491181D01*
X95463Y490252D01*
X94960Y489039D01*
Y487725D01*
X95463Y486511D01*
X96392Y485583D01*
X96699Y485456D01*
Y484081D01*
X96392Y483954D01*
X95463Y483025D01*
X94960Y481811D01*
Y480498D01*
X95463Y479284D01*
X96392Y478355D01*
X97605Y477852D01*
X98919D01*
X100133Y478355D01*
X101061Y479284D01*
X101564Y480498D01*
Y481811D01*
X101061Y483025D01*
X100133Y483954D01*
X99826Y484081D01*
Y485456D01*
X100133Y485583D01*
X101061Y486511D01*
X101564Y487725D01*
Y489039D01*
X101061Y490252D01*
X100133Y491181D01*
X98919Y491684D01*
D02*
G37*
G36*
X169607Y470644D02*
X168293D01*
X167080Y470141D01*
X166151Y469212D01*
X165648Y467999D01*
Y466685D01*
X166151Y465472D01*
X167080Y464543D01*
X168293Y464040D01*
X169607D01*
X170820Y464543D01*
X171749Y465472D01*
X172252Y466685D01*
Y467999D01*
X171749Y469212D01*
X170820Y470141D01*
X169607Y470644D01*
D02*
G37*
G36*
X123922Y470520D02*
X122608D01*
X121394Y470018D01*
X120465Y469089D01*
X119963Y467875D01*
Y466561D01*
X120465Y465348D01*
X121394Y464419D01*
X122608Y463916D01*
X123922D01*
X125135Y464419D01*
X126064Y465348D01*
X126567Y466561D01*
Y467875D01*
X126064Y469089D01*
X125135Y470018D01*
X123922Y470520D01*
D02*
G37*
G36*
X116393Y457570D02*
X115079D01*
X113866Y457067D01*
X112937Y456138D01*
X112434Y454924D01*
Y453611D01*
X112937Y452397D01*
X113866Y451468D01*
X115079Y450966D01*
X116393D01*
X117606Y451468D01*
X118535Y452397D01*
X119038Y453611D01*
Y454924D01*
X118535Y456138D01*
X117606Y457067D01*
X116393Y457570D01*
D02*
G37*
G36*
X103059D02*
X101745D01*
X100532Y457067D01*
X99603Y456138D01*
X99100Y454924D01*
Y453611D01*
X99603Y452397D01*
X100532Y451468D01*
X101745Y450966D01*
X103059D01*
X104272Y451468D01*
X105201Y452397D01*
X105704Y453611D01*
Y454924D01*
X105201Y456138D01*
X104272Y457067D01*
X103059Y457570D01*
D02*
G37*
G36*
X303623Y448412D02*
X302309D01*
X301096Y447909D01*
X300331Y447144D01*
X299566Y447909D01*
X298353Y448412D01*
X297039D01*
X295825Y447909D01*
X295061Y447144D01*
X294296Y447909D01*
X293082Y448412D01*
X291768D01*
X290555Y447909D01*
X289626Y446980D01*
X289123Y445766D01*
Y444453D01*
X289626Y443239D01*
X289978Y442887D01*
X289626Y442535D01*
X289123Y441321D01*
Y440008D01*
X289626Y438794D01*
X290555Y437865D01*
X291768Y437363D01*
X293082D01*
X294296Y437865D01*
X295061Y438630D01*
X295825Y437865D01*
X297039Y437363D01*
X298353D01*
X299566Y437865D01*
X300331Y438630D01*
X301096Y437865D01*
X302309Y437363D01*
X303623D01*
X304837Y437865D01*
X305766Y438794D01*
X306268Y440008D01*
Y441321D01*
X305766Y442535D01*
X305414Y442887D01*
X305766Y443239D01*
X306268Y444453D01*
Y445766D01*
X305766Y446980D01*
X304837Y447909D01*
X303623Y448412D01*
D02*
G37*
G36*
X135513Y451932D02*
X134200D01*
X132986Y451429D01*
X132057Y450500D01*
X131554Y449287D01*
Y447973D01*
X132057Y446759D01*
X132986Y445830D01*
X134200Y445328D01*
X135513D01*
X136727Y445830D01*
X137656Y446759D01*
X138159Y447973D01*
Y449287D01*
X137656Y450500D01*
X136727Y451429D01*
X135513Y451932D01*
D02*
G37*
G36*
X325614Y443829D02*
X324300D01*
X323086Y443326D01*
X322158Y442397D01*
X321655Y441184D01*
Y439870D01*
X322158Y438656D01*
X323086Y437728D01*
X324300Y437225D01*
X325614D01*
X326827Y437728D01*
X327756Y438656D01*
X328259Y439870D01*
Y441184D01*
X327756Y442397D01*
X326827Y443326D01*
X325614Y443829D01*
D02*
G37*
G36*
X533836Y440284D02*
X532725D01*
X531698Y439858D01*
X530912Y439072D01*
X530487Y438045D01*
Y436934D01*
X530912Y435907D01*
X531698Y435121D01*
X532725Y434696D01*
X533836D01*
X534863Y435121D01*
X535649Y435907D01*
X536075Y436934D01*
Y438045D01*
X535649Y439072D01*
X534863Y439858D01*
X533836Y440284D01*
D02*
G37*
G36*
X353717Y438912D02*
X352403D01*
X351190Y438409D01*
X350261Y437480D01*
X349758Y436267D01*
Y434953D01*
X350261Y433740D01*
X351190Y432811D01*
X352403Y432308D01*
X353717D01*
X354930Y432811D01*
X355859Y433740D01*
X356362Y434953D01*
Y436267D01*
X355859Y437480D01*
X354930Y438409D01*
X353717Y438912D01*
D02*
G37*
G36*
X186077Y438023D02*
X184763D01*
X183550Y437520D01*
X182621Y436591D01*
X182118Y435378D01*
Y434064D01*
X182621Y432851D01*
X183481Y431991D01*
X182621Y431130D01*
X182118Y429917D01*
Y428603D01*
X182621Y427390D01*
X183550Y426461D01*
X184763Y425958D01*
X186077D01*
X187290Y426461D01*
X188219Y427390D01*
X188722Y428603D01*
Y429917D01*
X188219Y431130D01*
X187359Y431991D01*
X188219Y432851D01*
X188722Y434064D01*
Y435378D01*
X188219Y436591D01*
X187290Y437520D01*
X186077Y438023D01*
D02*
G37*
G36*
X88569Y432445D02*
X87255D01*
X86041Y431942D01*
X85112Y431013D01*
X84610Y429799D01*
Y428486D01*
X85112Y427272D01*
X86041Y426343D01*
X87255Y425841D01*
X88569D01*
X89782Y426343D01*
X90711Y427272D01*
X91214Y428486D01*
Y429799D01*
X90711Y431013D01*
X89782Y431942D01*
X88569Y432445D01*
D02*
G37*
G36*
X168570Y417684D02*
X167256D01*
X166043Y417182D01*
X165114Y416253D01*
X164611Y415039D01*
Y413726D01*
X165114Y412512D01*
X166043Y411583D01*
X167256Y411080D01*
X168570D01*
X169783Y411583D01*
X169926Y411726D01*
X170398Y411673D01*
X171309Y411312D01*
X171699Y410372D01*
X172628Y409443D01*
X173841Y408940D01*
X175155D01*
X176368Y409443D01*
X177297Y410372D01*
X177800Y411585D01*
Y412899D01*
X177297Y414112D01*
X176368Y415041D01*
X175155Y415544D01*
X173841D01*
X172628Y415041D01*
X172485Y414899D01*
X172013Y414951D01*
X171102Y415312D01*
X170712Y416253D01*
X169783Y417182D01*
X168570Y417684D01*
D02*
G37*
G36*
X528667Y347123D02*
X527354D01*
X526140Y346620D01*
X525211Y345691D01*
X524709Y344478D01*
Y343164D01*
X525211Y341950D01*
X525551Y341610D01*
X526008Y340780D01*
X525551Y339951D01*
X525211Y339610D01*
X524709Y338397D01*
Y337083D01*
X525211Y335870D01*
X526140Y334941D01*
X527354Y334438D01*
X528667D01*
X529881Y334941D01*
X530810Y335870D01*
X531312Y337083D01*
Y338397D01*
X530810Y339610D01*
X530470Y339951D01*
X530014Y340780D01*
X530470Y341610D01*
X530810Y341950D01*
X531312Y343164D01*
Y344478D01*
X530810Y345691D01*
X529881Y346620D01*
X528667Y347123D01*
D02*
G37*
G36*
X357527Y327450D02*
X356213D01*
X355000Y326948D01*
X354071Y326019D01*
X353568Y324805D01*
Y323492D01*
X354071Y322278D01*
X355000Y321349D01*
X356213Y320846D01*
X357527D01*
X358740Y321349D01*
X359182Y321790D01*
X360155Y322048D01*
X360795Y321744D01*
X361350Y321189D01*
X362563Y320686D01*
X363877D01*
X365090Y321189D01*
X366019Y322118D01*
X366522Y323332D01*
Y324645D01*
X366019Y325859D01*
X365090Y326788D01*
X363877Y327290D01*
X362563D01*
X361350Y326788D01*
X360908Y326347D01*
X359935Y326089D01*
X359295Y326393D01*
X358740Y326948D01*
X357527Y327450D01*
D02*
G37*
G36*
X363877Y318210D02*
X362563D01*
X361350Y317707D01*
X360421Y316778D01*
X359918Y315565D01*
Y314251D01*
X360421Y313038D01*
X361350Y312109D01*
X362563Y311606D01*
X363877D01*
X365090Y312109D01*
X366019Y313038D01*
X366522Y314251D01*
Y315565D01*
X366019Y316778D01*
X365090Y317707D01*
X363877Y318210D01*
D02*
G37*
G36*
X350923D02*
X349609D01*
X348396Y317707D01*
X347467Y316778D01*
X346964Y315565D01*
Y314251D01*
X347467Y313038D01*
X348396Y312109D01*
X349609Y311606D01*
X350923D01*
X352136Y312109D01*
X353065Y313038D01*
X353568Y314251D01*
Y315565D01*
X353065Y316778D01*
X352136Y317707D01*
X350923Y318210D01*
D02*
G37*
G36*
X148806Y314274D02*
X147492D01*
X146278Y313771D01*
X145350Y312842D01*
X144847Y311628D01*
Y310315D01*
X145350Y309101D01*
X146278Y308172D01*
X147492Y307670D01*
X148806D01*
X150019Y308172D01*
X150948Y309101D01*
X151451Y310315D01*
Y311628D01*
X150948Y312842D01*
X150019Y313771D01*
X148806Y314274D01*
D02*
G37*
G36*
X156807Y314182D02*
X155493D01*
X154279Y313680D01*
X153351Y312751D01*
X152848Y311537D01*
Y310224D01*
X153351Y309010D01*
X154279Y308081D01*
X155493Y307578D01*
X156807D01*
X158020Y308081D01*
X158949Y309010D01*
X159452Y310224D01*
Y311537D01*
X158949Y312751D01*
X158020Y313680D01*
X156807Y314182D01*
D02*
G37*
G36*
X199854Y307687D02*
X198540D01*
X197327Y307185D01*
X196785Y306643D01*
X196243Y307185D01*
X195029Y307687D01*
X193715D01*
X192502Y307185D01*
X192087Y306770D01*
X191672Y307185D01*
X190458Y307687D01*
X189145D01*
X187931Y307185D01*
X187002Y306256D01*
X186500Y305042D01*
Y303728D01*
X187002Y302515D01*
X187931Y301586D01*
X189145Y301083D01*
X190458D01*
X191672Y301586D01*
X192087Y302001D01*
X192502Y301586D01*
X193715Y301083D01*
X195029D01*
X196243Y301586D01*
X196785Y302128D01*
X197327Y301586D01*
X198540Y301083D01*
X199854D01*
X201067Y301586D01*
X201996Y302515D01*
X202499Y303728D01*
Y305042D01*
X201996Y306256D01*
X201067Y307185D01*
X199854Y307687D01*
D02*
G37*
G36*
X221788Y310393D02*
X220778D01*
X219844Y310006D01*
X219130Y309292D01*
X218743Y308358D01*
Y307348D01*
X217788Y306393D01*
X216778D01*
X215844Y306006D01*
X215283Y305445D01*
X214722Y306006D01*
X213788Y306393D01*
X212778D01*
X211844Y306006D01*
X211130Y305292D01*
X210743Y304358D01*
Y303348D01*
X211130Y302414D01*
X211844Y301700D01*
X212778Y301313D01*
X213788D01*
X214722Y301700D01*
X215283Y302261D01*
X215844Y301700D01*
X216778Y301313D01*
X217788D01*
X218743Y300358D01*
Y299348D01*
X217788Y298393D01*
X216778D01*
X215844Y298006D01*
X215130Y297292D01*
X214743Y296358D01*
Y295348D01*
X215130Y294414D01*
X215844Y293700D01*
X216778Y293313D01*
X217788D01*
X218722Y293700D01*
X219283Y294261D01*
X219844Y293700D01*
X220778Y293313D01*
X221788D01*
X222722Y293700D01*
X223436Y294414D01*
X223823Y295348D01*
Y296358D01*
X223436Y297292D01*
X222875Y297853D01*
X223436Y298414D01*
X223823Y299348D01*
Y300358D01*
X223436Y301292D01*
X222875Y301853D01*
X223436Y302414D01*
X223823Y303348D01*
Y304358D01*
X223436Y305292D01*
X222875Y305853D01*
X223436Y306414D01*
X223823Y307348D01*
Y308358D01*
X223436Y309292D01*
X222722Y310006D01*
X221788Y310393D01*
D02*
G37*
G36*
X350058Y305881D02*
X349048D01*
X348114Y305494D01*
X347553Y304933D01*
X346992Y305494D01*
X346058Y305881D01*
X345048D01*
X344114Y305494D01*
X343553Y304933D01*
X342992Y305494D01*
X342058Y305881D01*
X341048D01*
X340114Y305494D01*
X339400Y304780D01*
X339013Y303846D01*
Y302836D01*
X339400Y301902D01*
X340114Y301188D01*
X341048Y300801D01*
X342058D01*
X342992Y301188D01*
X343553Y301749D01*
X344114Y301188D01*
X345048Y300801D01*
X346058D01*
X347013Y299846D01*
Y298836D01*
X346058Y297881D01*
X345048D01*
X344114Y297494D01*
X343400Y296780D01*
X343013Y295846D01*
Y294836D01*
X343400Y293902D01*
X344114Y293188D01*
X345048Y292801D01*
X346058D01*
X346992Y293188D01*
X347553Y293749D01*
X348114Y293188D01*
X349048Y292801D01*
X350058D01*
X350992Y293188D01*
X351706Y293902D01*
X352093Y294836D01*
Y295846D01*
X351706Y296780D01*
X351145Y297341D01*
X351706Y297902D01*
X352093Y298836D01*
Y299846D01*
X351706Y300780D01*
X351145Y301341D01*
X351706Y301902D01*
X352093Y302836D01*
Y303846D01*
X351706Y304780D01*
X350992Y305494D01*
X350058Y305881D01*
D02*
G37*
G36*
X148714Y306273D02*
X147401D01*
X146187Y305770D01*
X145258Y304841D01*
X144756Y303627D01*
Y302314D01*
X145258Y301100D01*
X146187Y300171D01*
X147401Y299669D01*
X148714D01*
X149928Y300171D01*
X150857Y301100D01*
X151360Y302314D01*
Y303627D01*
X150857Y304841D01*
X149928Y305770D01*
X148714Y306273D01*
D02*
G37*
G36*
X156715Y306181D02*
X155402D01*
X154188Y305679D01*
X153259Y304750D01*
X152757Y303536D01*
Y302222D01*
X153259Y301009D01*
X154188Y300080D01*
X155402Y299577D01*
X156715D01*
X157929Y300080D01*
X158858Y301009D01*
X159361Y302222D01*
Y303536D01*
X158858Y304750D01*
X157929Y305679D01*
X156715Y306181D01*
D02*
G37*
G36*
X195029Y299006D02*
X193715D01*
X192502Y298504D01*
X192087Y298089D01*
X191672Y298504D01*
X190458Y299006D01*
X189145D01*
X187931Y298504D01*
X187002Y297575D01*
X186500Y296361D01*
Y295048D01*
X187002Y293834D01*
X187931Y292905D01*
X189145Y292402D01*
X190458D01*
X191672Y292905D01*
X192087Y293320D01*
X192502Y292905D01*
X193715Y292402D01*
X195029D01*
X196243Y292905D01*
X196757Y293419D01*
X197326Y292849D01*
X198540Y292346D01*
X199854D01*
X201067Y292849D01*
X201996Y293778D01*
X202499Y294992D01*
Y296305D01*
X201996Y297519D01*
X201067Y298448D01*
X199854Y298950D01*
X198540D01*
X197326Y298448D01*
X196812Y297934D01*
X196243Y298504D01*
X195029Y299006D01*
D02*
G37*
G36*
X377593Y305054D02*
X376279D01*
X375066Y304551D01*
X374137Y303622D01*
X373634Y302409D01*
Y301095D01*
X374137Y299882D01*
X374200Y299818D01*
X374943Y298901D01*
X374014Y297973D01*
X373511Y296759D01*
Y295445D01*
X374014Y294232D01*
X374943Y293303D01*
X376156Y292800D01*
X377470D01*
X378683Y293303D01*
X379612Y294232D01*
X380115Y295445D01*
Y296759D01*
X379612Y297973D01*
X379549Y298036D01*
X378806Y298953D01*
X379735Y299882D01*
X380238Y301095D01*
Y302409D01*
X379735Y303622D01*
X378806Y304551D01*
X377593Y305054D01*
D02*
G37*
G36*
X526275Y286258D02*
X524961D01*
X523748Y285755D01*
X522819Y284826D01*
X522316Y283613D01*
Y282299D01*
X522819Y281086D01*
X523748Y280157D01*
X524961Y279654D01*
X526275D01*
X527488Y280157D01*
X528417Y281086D01*
X528920Y282299D01*
Y283613D01*
X528417Y284826D01*
X527488Y285755D01*
X526275Y286258D01*
D02*
G37*
G36*
X448930Y289211D02*
X447617D01*
X446403Y288708D01*
X445474Y287779D01*
X444972Y286566D01*
Y285252D01*
X445474Y284039D01*
X446118Y283395D01*
X446293Y282624D01*
X446118Y281853D01*
X445474Y281209D01*
X444972Y279996D01*
Y278682D01*
X445474Y277469D01*
X446403Y276540D01*
X447617Y276037D01*
X448930D01*
X450144Y276540D01*
X451073Y277469D01*
X451576Y278682D01*
Y279996D01*
X451073Y281209D01*
X450429Y281853D01*
X450254Y282624D01*
X450429Y283395D01*
X451073Y284039D01*
X451576Y285252D01*
Y286566D01*
X451073Y287779D01*
X450144Y288708D01*
X448930Y289211D01*
D02*
G37*
G36*
X314347Y273153D02*
X313033D01*
X311820Y272650D01*
X310959Y271790D01*
X310099Y272650D01*
X308886Y273153D01*
X307572D01*
X306359Y272650D01*
X305430Y271721D01*
X304927Y270507D01*
Y269194D01*
X305430Y267980D01*
X306359Y267051D01*
X307572Y266549D01*
X308886D01*
X310099Y267051D01*
X310959Y267911D01*
X311820Y267051D01*
X313033Y266549D01*
X314347D01*
X315560Y267051D01*
X316489Y267980D01*
X316992Y269194D01*
Y270507D01*
X316489Y271721D01*
X315560Y272650D01*
X314347Y273153D01*
D02*
G37*
G36*
X223211Y278502D02*
X221897D01*
X220683Y277999D01*
X219755Y277070D01*
X219252Y275856D01*
Y274543D01*
X219755Y273329D01*
X220610Y272474D01*
X219755Y271618D01*
X219252Y270405D01*
Y269091D01*
X219755Y267878D01*
X220683Y266949D01*
X221897Y266446D01*
X223211D01*
X224424Y266949D01*
X225353Y267878D01*
X225856Y269091D01*
Y270405D01*
X225353Y271618D01*
X224498Y272474D01*
X225353Y273329D01*
X225856Y274543D01*
Y275856D01*
X225353Y277070D01*
X224424Y277999D01*
X223211Y278502D01*
D02*
G37*
G36*
X215210Y289405D02*
X213896D01*
X212682Y288902D01*
X211754Y287973D01*
X211251Y286760D01*
Y285446D01*
X211754Y284233D01*
X212609Y283377D01*
X211754Y282522D01*
X211251Y281308D01*
Y279995D01*
X211754Y278781D01*
X212609Y277926D01*
X211754Y277070D01*
X211251Y275856D01*
Y274543D01*
X211754Y273329D01*
X212609Y272474D01*
X211754Y271618D01*
X211251Y270405D01*
Y269091D01*
X211754Y267878D01*
X212682Y266949D01*
X213896Y266446D01*
X215210D01*
X216423Y266949D01*
X217352Y267878D01*
X217855Y269091D01*
Y270405D01*
X217352Y271618D01*
X216497Y272474D01*
X217352Y273329D01*
X217855Y274543D01*
Y275856D01*
X217352Y277070D01*
X216497Y277926D01*
X217352Y278781D01*
X217855Y279995D01*
Y281308D01*
X217352Y282522D01*
X216497Y283377D01*
X217352Y284233D01*
X217855Y285446D01*
Y286760D01*
X217352Y287973D01*
X216423Y288902D01*
X215210Y289405D01*
D02*
G37*
G36*
X343617Y290062D02*
X342303D01*
X341090Y289559D01*
X340161Y288630D01*
X339658Y287417D01*
Y286103D01*
X340161Y284890D01*
X340318Y284732D01*
X341039Y283902D01*
X340318Y283073D01*
X340161Y282915D01*
X339658Y281702D01*
Y280388D01*
X340161Y279174D01*
X340318Y279017D01*
X341039Y278187D01*
X340318Y277358D01*
X340161Y277200D01*
X339658Y275987D01*
Y274673D01*
X340161Y273459D01*
X340318Y273302D01*
X341039Y272472D01*
X340318Y271643D01*
X340161Y271485D01*
X339658Y270272D01*
Y268958D01*
X340161Y267745D01*
X341090Y266816D01*
X342303Y266313D01*
X343617D01*
X344831Y266816D01*
X345588Y267573D01*
X346326Y267670D01*
X347063Y267573D01*
X347821Y266816D01*
X349034Y266313D01*
X350348D01*
X351562Y266816D01*
X352491Y267745D01*
X352993Y268958D01*
Y270272D01*
X352491Y271485D01*
X352333Y271643D01*
X351612Y272472D01*
X352333Y273302D01*
X352491Y273459D01*
X352993Y274673D01*
Y275987D01*
X352491Y277200D01*
X351562Y278129D01*
X350348Y278632D01*
X349034D01*
X347821Y278129D01*
X347063Y277372D01*
X346326Y277275D01*
X345815Y277342D01*
X345118Y278459D01*
X345602Y279017D01*
X345760Y279174D01*
X346262Y280388D01*
Y281702D01*
X345760Y282915D01*
X345602Y283073D01*
X344881Y283902D01*
X345602Y284732D01*
X345760Y284890D01*
X346262Y286103D01*
Y287417D01*
X345760Y288630D01*
X344831Y289559D01*
X343617Y290062D01*
D02*
G37*
G36*
X189887Y272542D02*
X188573D01*
X187360Y272039D01*
X186431Y271110D01*
X185928Y269897D01*
Y268583D01*
X186431Y267370D01*
X187360Y266441D01*
X188573Y265938D01*
X189887D01*
X191100Y266441D01*
X192029Y267370D01*
X192532Y268583D01*
Y269897D01*
X192029Y271110D01*
X191100Y272039D01*
X189887Y272542D01*
D02*
G37*
G36*
Y264541D02*
X188573D01*
X187360Y264038D01*
X186431Y263109D01*
X185928Y261896D01*
Y260582D01*
X186431Y259369D01*
X187360Y258440D01*
X188573Y257937D01*
X189887D01*
X191100Y258440D01*
X192029Y259369D01*
X192532Y260582D01*
Y261896D01*
X192029Y263109D01*
X191100Y264038D01*
X189887Y264541D01*
D02*
G37*
G36*
X158645Y269795D02*
X157331D01*
X156117Y269293D01*
X155189Y268364D01*
X154686Y267150D01*
Y265836D01*
X155189Y264623D01*
X155945Y263866D01*
X155189Y263109D01*
X154686Y261896D01*
Y260582D01*
X155189Y259369D01*
X156117Y258440D01*
X157331Y257937D01*
X158645D01*
X159858Y258440D01*
X160787Y259369D01*
X161290Y260582D01*
Y261896D01*
X160787Y263109D01*
X160031Y263866D01*
X160787Y264623D01*
X161290Y265836D01*
Y267150D01*
X160787Y268364D01*
X159858Y269293D01*
X158645Y269795D01*
D02*
G37*
G36*
X150644D02*
X149330D01*
X148117Y269293D01*
X147188Y268364D01*
X146685Y267150D01*
Y265836D01*
X147188Y264623D01*
X147944Y263866D01*
X147188Y263109D01*
X146685Y261896D01*
Y260582D01*
X147188Y259369D01*
X148117Y258440D01*
X149330Y257937D01*
X150644D01*
X151857Y258440D01*
X152786Y259369D01*
X153289Y260582D01*
Y261896D01*
X152786Y263109D01*
X152030Y263866D01*
X152786Y264623D01*
X153289Y265836D01*
Y267150D01*
X152786Y268364D01*
X151857Y269293D01*
X150644Y269795D01*
D02*
G37*
G36*
X153214Y252633D02*
X151900D01*
X150686Y252131D01*
X149757Y251202D01*
X149255Y249988D01*
Y248674D01*
X149757Y247461D01*
X150686Y246532D01*
X151900Y246029D01*
X153214D01*
X154427Y246532D01*
X155356Y247461D01*
X155859Y248674D01*
Y249988D01*
X155356Y251202D01*
X154427Y252131D01*
X153214Y252633D01*
D02*
G37*
G36*
X145212D02*
X143899D01*
X142685Y252131D01*
X141756Y251202D01*
X141254Y249988D01*
Y248674D01*
X141756Y247461D01*
X142685Y246532D01*
X143899Y246029D01*
X145212D01*
X146426Y246532D01*
X147355Y247461D01*
X147858Y248674D01*
Y249988D01*
X147355Y251202D01*
X146426Y252131D01*
X145212Y252633D01*
D02*
G37*
G36*
X153214Y244632D02*
X151900D01*
X150686Y244130D01*
X149757Y243201D01*
X149255Y241987D01*
Y240673D01*
X149757Y239460D01*
X150686Y238531D01*
X151900Y238028D01*
X153214D01*
X154427Y238531D01*
X155356Y239460D01*
X155859Y240673D01*
Y241987D01*
X155356Y243201D01*
X154427Y244130D01*
X153214Y244632D01*
D02*
G37*
G36*
X145212D02*
X143899D01*
X142685Y244130D01*
X141756Y243201D01*
X141254Y241987D01*
Y240673D01*
X141756Y239460D01*
X142685Y238531D01*
X143899Y238028D01*
X145212D01*
X146426Y238531D01*
X147355Y239460D01*
X147858Y240673D01*
Y241987D01*
X147355Y243201D01*
X146426Y244130D01*
X145212Y244632D01*
D02*
G37*
G36*
X738009Y242984D02*
X736695D01*
X735481Y242481D01*
X734553Y241553D01*
X734050Y240339D01*
Y239025D01*
X734553Y237812D01*
X735481Y236883D01*
X736695Y236380D01*
X738009D01*
X739222Y236883D01*
X740151Y237812D01*
X740654Y239025D01*
Y240339D01*
X740151Y241553D01*
X739222Y242481D01*
X738009Y242984D01*
D02*
G37*
G36*
X153214Y222633D02*
X151900D01*
X150686Y222131D01*
X149757Y221202D01*
X149255Y219988D01*
Y218674D01*
X149757Y217461D01*
X150686Y216532D01*
X151900Y216029D01*
X153214D01*
X154427Y216532D01*
X155356Y217461D01*
X155859Y218674D01*
Y219988D01*
X155356Y221202D01*
X154427Y222131D01*
X153214Y222633D01*
D02*
G37*
G36*
X145212D02*
X143899D01*
X142685Y222131D01*
X141756Y221202D01*
X141254Y219988D01*
Y218674D01*
X141756Y217461D01*
X142685Y216532D01*
X143899Y216029D01*
X145212D01*
X146426Y216532D01*
X147355Y217461D01*
X147858Y218674D01*
Y219988D01*
X147355Y221202D01*
X146426Y222131D01*
X145212Y222633D01*
D02*
G37*
G36*
X153214Y214632D02*
X151900D01*
X150686Y214130D01*
X149757Y213201D01*
X149255Y211987D01*
Y210673D01*
X149757Y209460D01*
X150686Y208531D01*
X151900Y208028D01*
X153214D01*
X154427Y208531D01*
X155356Y209460D01*
X155859Y210673D01*
Y211987D01*
X155356Y213201D01*
X154427Y214130D01*
X153214Y214632D01*
D02*
G37*
G36*
X145212D02*
X143899D01*
X142685Y214130D01*
X141756Y213201D01*
X141254Y211987D01*
Y210673D01*
X141756Y209460D01*
X142685Y208531D01*
X143899Y208028D01*
X145212D01*
X146426Y208531D01*
X147355Y209460D01*
X147858Y210673D01*
Y211987D01*
X147355Y213201D01*
X146426Y214130D01*
X145212Y214632D01*
D02*
G37*
G36*
X738426Y167894D02*
X737314D01*
X736287Y167469D01*
X735501Y166683D01*
X735076Y165656D01*
Y164544D01*
X735501Y163517D01*
X736287Y162731D01*
X737314Y162306D01*
X738426D01*
X739453Y162731D01*
X740239Y163517D01*
X740664Y164544D01*
Y165656D01*
X740239Y166683D01*
X739453Y167469D01*
X738426Y167894D01*
D02*
G37*
G36*
X198330Y161125D02*
X197016D01*
X195802Y160623D01*
X195388Y160208D01*
X194973Y160623D01*
X193759Y161125D01*
X192445D01*
X191232Y160623D01*
X190817Y160208D01*
X190402Y160623D01*
X189188Y161125D01*
X187875D01*
X186661Y160623D01*
X185732Y159694D01*
X185230Y158480D01*
Y157166D01*
X185732Y155953D01*
X186661Y155024D01*
X187875Y154521D01*
X189188D01*
X190402Y155024D01*
X190817Y155439D01*
X191232Y155024D01*
X192445Y154521D01*
X193759D01*
X194973Y155024D01*
X195388Y155439D01*
X195802Y155024D01*
X197016Y154521D01*
X198330D01*
X199543Y155024D01*
X200472Y155953D01*
X200975Y157166D01*
Y158480D01*
X200472Y159694D01*
X199543Y160623D01*
X198330Y161125D01*
D02*
G37*
G36*
X187961Y128197D02*
X186647D01*
X185434Y127694D01*
X184505Y126765D01*
X184002Y125552D01*
Y124238D01*
X184505Y123024D01*
X185434Y122095D01*
X186647Y121593D01*
X187961D01*
X189175Y122095D01*
X190104Y123024D01*
X190606Y124238D01*
Y125552D01*
X190104Y126765D01*
X189175Y127694D01*
X187961Y128197D01*
D02*
G37*
G36*
X179960D02*
X178647D01*
X177433Y127694D01*
X176504Y126765D01*
X176001Y125552D01*
Y124238D01*
X176504Y123024D01*
X177433Y122095D01*
X178647Y121593D01*
X179960D01*
X181174Y122095D01*
X182103Y123024D01*
X182605Y124238D01*
Y125552D01*
X182103Y126765D01*
X181174Y127694D01*
X179960Y128197D01*
D02*
G37*
G36*
X138579Y117729D02*
X137265D01*
X136052Y117226D01*
X135767Y116942D01*
X135066Y116333D01*
X134108Y116942D01*
X133950Y117099D01*
X132737Y117602D01*
X131423D01*
X130210Y117099D01*
X129281Y116170D01*
X128778Y114957D01*
Y113643D01*
X129281Y112430D01*
X130210Y111501D01*
X131423Y110998D01*
X132737D01*
X133950Y111501D01*
X134235Y111785D01*
X134936Y112394D01*
X135894Y111785D01*
X136052Y111628D01*
X137265Y111125D01*
X138579D01*
X139792Y111628D01*
X140721Y112557D01*
X141224Y113770D01*
Y115084D01*
X140721Y116297D01*
X139792Y117226D01*
X138579Y117729D01*
D02*
G37*
G36*
X161439D02*
X160125D01*
X158912Y117226D01*
X158627Y116942D01*
X157927Y116333D01*
X156968Y116942D01*
X156810Y117099D01*
X155597Y117602D01*
X154283D01*
X153070Y117099D01*
X152141Y116170D01*
X151638Y114957D01*
Y113643D01*
X152141Y112430D01*
X153070Y111501D01*
X154283Y110998D01*
X155597D01*
X156810Y111501D01*
X157095Y111785D01*
X157795Y112394D01*
X158754Y111785D01*
X158912Y111628D01*
X160125Y111125D01*
X161439D01*
X162652Y111628D01*
X163581Y112557D01*
X164084Y113770D01*
Y115084D01*
X163581Y116297D01*
X162652Y117226D01*
X161439Y117729D01*
D02*
G37*
G36*
Y109728D02*
X160125D01*
X158912Y109225D01*
X158627Y108941D01*
X157927Y108332D01*
X156968Y108941D01*
X156810Y109098D01*
X155597Y109601D01*
X154283D01*
X153070Y109098D01*
X152141Y108169D01*
X151638Y106956D01*
Y105642D01*
X152141Y104429D01*
X153070Y103500D01*
X154283Y102997D01*
X155597D01*
X156810Y103500D01*
X157095Y103784D01*
X157795Y104393D01*
X158754Y103784D01*
X158912Y103627D01*
X160125Y103124D01*
X161439D01*
X162652Y103627D01*
X163581Y104556D01*
X164084Y105769D01*
Y107083D01*
X163581Y108296D01*
X162652Y109225D01*
X161439Y109728D01*
D02*
G37*
G36*
X138579D02*
X137265D01*
X136052Y109225D01*
X135767Y108941D01*
X135066Y108332D01*
X134108Y108941D01*
X133950Y109098D01*
X132737Y109601D01*
X131423D01*
X130210Y109098D01*
X129281Y108169D01*
X128778Y106956D01*
Y105642D01*
X129281Y104429D01*
X130210Y103500D01*
X131423Y102997D01*
X132737D01*
X133950Y103500D01*
X134235Y103784D01*
X134936Y104393D01*
X135894Y103784D01*
X136052Y103627D01*
X137265Y103124D01*
X138579D01*
X139792Y103627D01*
X140721Y104556D01*
X141224Y105769D01*
Y107083D01*
X140721Y108296D01*
X139792Y109225D01*
X138579Y109728D01*
D02*
G37*
G36*
X317185Y97917D02*
X315872D01*
X314658Y97414D01*
X313729Y96485D01*
X313227Y95272D01*
Y93958D01*
X313729Y92745D01*
X314658Y91816D01*
X315872Y91313D01*
X317185D01*
X318399Y91816D01*
X319328Y92745D01*
X319830Y93958D01*
Y95272D01*
X319328Y96485D01*
X318399Y97414D01*
X317185Y97917D01*
D02*
G37*
G36*
X277801Y95117D02*
X276487D01*
X275273Y94614D01*
X274344Y93685D01*
X273842Y92472D01*
Y91158D01*
X274344Y89944D01*
X275273Y89015D01*
X276487Y88513D01*
X277801D01*
X279014Y89015D01*
X279943Y89944D01*
X280446Y91158D01*
Y92472D01*
X279943Y93685D01*
X279014Y94614D01*
X277801Y95117D01*
D02*
G37*
G36*
X370989Y534162D02*
X369675D01*
X368462Y533659D01*
X367533Y532730D01*
X367030Y531517D01*
Y530203D01*
X367533Y528990D01*
X368462Y528061D01*
X369675Y527558D01*
X370989D01*
X372202Y528061D01*
X373131Y528990D01*
X373634Y530203D01*
Y531517D01*
X373131Y532730D01*
X372202Y533659D01*
X370989Y534162D01*
D02*
G37*
G36*
X385926Y476190D02*
X384612D01*
X383398Y475687D01*
X382469Y474758D01*
X381967Y473545D01*
Y472231D01*
X382469Y471018D01*
X383398Y470089D01*
X384612Y469586D01*
X385926D01*
X387139Y470089D01*
X388068Y471018D01*
X388571Y472231D01*
Y473545D01*
X388068Y474758D01*
X387139Y475687D01*
X385926Y476190D01*
D02*
G37*
G36*
X394412Y448412D02*
X393099D01*
X391885Y447909D01*
X390956Y446980D01*
X390454Y445766D01*
Y444453D01*
X390956Y443239D01*
X391885Y442310D01*
X393099Y441808D01*
X394412D01*
X395626Y442310D01*
X396555Y443239D01*
X397058Y444453D01*
Y445766D01*
X396555Y446980D01*
X395626Y447909D01*
X394412Y448412D01*
D02*
G37*
G36*
X415926Y252381D02*
X414613D01*
X413399Y251878D01*
X412470Y250949D01*
X411968Y249736D01*
Y248422D01*
X412470Y247209D01*
X413399Y246280D01*
X414613Y245777D01*
X415926D01*
X417140Y246280D01*
X418069Y247209D01*
X418572Y248422D01*
Y249736D01*
X418069Y250949D01*
X417140Y251878D01*
X415926Y252381D01*
D02*
G37*
G36*
X407819Y250952D02*
X406505D01*
X405292Y250449D01*
X404363Y249520D01*
X403860Y248307D01*
Y246993D01*
X404363Y245780D01*
X405292Y244851D01*
X406505Y244348D01*
X407819D01*
X409032Y244851D01*
X409961Y245780D01*
X410464Y246993D01*
Y248307D01*
X409961Y249520D01*
X409032Y250449D01*
X407819Y250952D01*
D02*
G37*
G36*
Y242189D02*
X406505D01*
X405292Y241686D01*
X404363Y240757D01*
X403860Y239544D01*
Y238230D01*
X404363Y237017D01*
X405292Y236088D01*
X406505Y235585D01*
X407819D01*
X409032Y236088D01*
X409961Y237017D01*
X410464Y238230D01*
Y239544D01*
X409961Y240757D01*
X409032Y241686D01*
X407819Y242189D01*
D02*
G37*
G36*
Y233426D02*
X406505D01*
X405292Y232923D01*
X404363Y231994D01*
X403860Y230781D01*
Y229467D01*
X404363Y228254D01*
X405292Y227325D01*
X406505Y226822D01*
X407819D01*
X409032Y227325D01*
X409961Y228254D01*
X410464Y229467D01*
Y230781D01*
X409961Y231994D01*
X409032Y232923D01*
X407819Y233426D01*
D02*
G37*
G36*
X415926Y233331D02*
X414613D01*
X413399Y232828D01*
X412470Y231899D01*
X411968Y230686D01*
Y229372D01*
X412470Y228159D01*
X413399Y227230D01*
X414613Y226727D01*
X415926D01*
X417140Y227230D01*
X418069Y228159D01*
X418572Y229372D01*
Y230686D01*
X418069Y231899D01*
X417140Y232828D01*
X415926Y233331D01*
D02*
G37*
G36*
X298728Y232117D02*
X297414D01*
X296201Y231614D01*
X295272Y230686D01*
X294769Y229472D01*
Y228158D01*
X295272Y226945D01*
X296201Y226016D01*
X297414Y225513D01*
X298728D01*
X299942Y226016D01*
X300870Y226945D01*
X301373Y228158D01*
Y229472D01*
X300870Y230686D01*
X299942Y231614D01*
X298728Y232117D01*
D02*
G37*
G36*
X285137Y231899D02*
X283823D01*
X282610Y231396D01*
X281681Y230467D01*
X281178Y229254D01*
Y227940D01*
X281681Y226726D01*
X282610Y225798D01*
X283823Y225295D01*
X285137D01*
X286350Y225798D01*
X287279Y226726D01*
X287782Y227940D01*
Y229254D01*
X287279Y230467D01*
X286350Y231396D01*
X285137Y231899D01*
D02*
G37*
G36*
X298728Y222117D02*
X297414D01*
X296201Y221614D01*
X295272Y220686D01*
X294769Y219472D01*
Y218158D01*
X295272Y216945D01*
X296201Y216016D01*
X297414Y215513D01*
X298728D01*
X299942Y216016D01*
X300870Y216945D01*
X301373Y218158D01*
Y219472D01*
X300870Y220686D01*
X299942Y221614D01*
X298728Y222117D01*
D02*
G37*
G36*
X285137Y221899D02*
X283823D01*
X282610Y221396D01*
X281681Y220467D01*
X281178Y219254D01*
Y217940D01*
X281681Y216726D01*
X282610Y215798D01*
X283823Y215295D01*
X285137D01*
X286350Y215798D01*
X287279Y216726D01*
X287782Y217940D01*
Y219254D01*
X287279Y220467D01*
X286350Y221396D01*
X285137Y221899D01*
D02*
G37*
G36*
X298728Y212117D02*
X297414D01*
X296201Y211614D01*
X295272Y210686D01*
X294769Y209472D01*
Y208158D01*
X295272Y206945D01*
X296201Y206016D01*
X297414Y205513D01*
X298728D01*
X299942Y206016D01*
X300870Y206945D01*
X301373Y208158D01*
Y209472D01*
X300870Y210686D01*
X299942Y211614D01*
X298728Y212117D01*
D02*
G37*
G36*
X285137Y211899D02*
X283823D01*
X282610Y211396D01*
X281681Y210467D01*
X281178Y209254D01*
Y207940D01*
X281681Y206726D01*
X282610Y205798D01*
X283823Y205295D01*
X285137D01*
X286350Y205798D01*
X287279Y206726D01*
X287782Y207940D01*
Y209254D01*
X287279Y210467D01*
X286350Y211396D01*
X285137Y211899D01*
D02*
G37*
G36*
X298728Y202117D02*
X297414D01*
X296201Y201615D01*
X295272Y200686D01*
X294769Y199472D01*
Y198158D01*
X295272Y196945D01*
X296201Y196016D01*
X297414Y195513D01*
X298728D01*
X299942Y196016D01*
X300870Y196945D01*
X301373Y198158D01*
Y199472D01*
X300870Y200686D01*
X299942Y201615D01*
X298728Y202117D01*
D02*
G37*
G36*
X285137Y201899D02*
X283823D01*
X282610Y201396D01*
X281681Y200467D01*
X281178Y199254D01*
Y197940D01*
X281681Y196726D01*
X282610Y195798D01*
X283823Y195295D01*
X285137D01*
X286350Y195798D01*
X287279Y196726D01*
X287782Y197940D01*
Y199254D01*
X287279Y200467D01*
X286350Y201396D01*
X285137Y201899D01*
D02*
G37*
G36*
Y191899D02*
X283823D01*
X282610Y191396D01*
X281681Y190467D01*
X281178Y189254D01*
Y187940D01*
X281681Y186727D01*
X282610Y185798D01*
X283823Y185295D01*
X285137D01*
X286350Y185798D01*
X287279Y186727D01*
X287782Y187940D01*
Y189254D01*
X287279Y190467D01*
X286350Y191396D01*
X285137Y191899D01*
D02*
G37*
G36*
X330095Y182626D02*
X328781D01*
X327568Y182123D01*
X326639Y181194D01*
X326136Y179981D01*
Y178667D01*
X326639Y177454D01*
X327568Y176525D01*
X328781Y176022D01*
X330095D01*
X331308Y176525D01*
X332237Y177454D01*
X332740Y178667D01*
Y179981D01*
X332237Y181194D01*
X331308Y182123D01*
X330095Y182626D01*
D02*
G37*
G36*
X319681D02*
X318367D01*
X317154Y182123D01*
X316225Y181194D01*
X315722Y179981D01*
Y178667D01*
X316225Y177454D01*
X317154Y176525D01*
X318367Y176022D01*
X319681D01*
X320894Y176525D01*
X321823Y177454D01*
X322326Y178667D01*
Y179981D01*
X321823Y181194D01*
X320894Y182123D01*
X319681Y182626D01*
D02*
G37*
G36*
X307831D02*
X306518D01*
X305304Y182123D01*
X304375Y181194D01*
X303873Y179981D01*
Y178667D01*
X304375Y177454D01*
X305304Y176525D01*
X306518Y176022D01*
X307831D01*
X309045Y176525D01*
X309974Y177454D01*
X310477Y178667D01*
Y179981D01*
X309974Y181194D01*
X309045Y182123D01*
X307831Y182626D01*
D02*
G37*
G36*
X335848Y174956D02*
X334535D01*
X333321Y174454D01*
X332392Y173525D01*
X331889Y172311D01*
Y170997D01*
X332392Y169784D01*
X333321Y168855D01*
X334535Y168352D01*
X335848D01*
X337062Y168855D01*
X337991Y169784D01*
X338493Y170997D01*
Y172311D01*
X337991Y173525D01*
X337062Y174454D01*
X335848Y174956D01*
D02*
G37*
G36*
X328837Y160234D02*
X327523D01*
X326310Y159731D01*
X325895Y159317D01*
X325480Y159731D01*
X324266Y160234D01*
X322952D01*
X321739Y159731D01*
X321324Y159317D01*
X320909Y159731D01*
X319695Y160234D01*
X318382D01*
X317168Y159731D01*
X316239Y158802D01*
X315737Y157589D01*
Y156275D01*
X316239Y155062D01*
X317168Y154133D01*
X318382Y153630D01*
X319695D01*
X320909Y154133D01*
X321324Y154548D01*
X321739Y154133D01*
X322952Y153630D01*
X324266D01*
X325480Y154133D01*
X325895Y154548D01*
X326310Y154133D01*
X327523Y153630D01*
X328837D01*
X330050Y154133D01*
X330979Y155062D01*
X331482Y156275D01*
Y157589D01*
X330979Y158802D01*
X330050Y159731D01*
X328837Y160234D01*
D02*
G37*
G36*
X324266Y151553D02*
X322952D01*
X321739Y151051D01*
X321324Y150636D01*
X320909Y151051D01*
X319695Y151553D01*
X318382D01*
X317168Y151051D01*
X316239Y150122D01*
X315737Y148908D01*
Y147594D01*
X316239Y146381D01*
X317168Y145452D01*
X318382Y144949D01*
X319695D01*
X320909Y145452D01*
X321324Y145867D01*
X321739Y145452D01*
X322952Y144949D01*
X324266D01*
X325480Y145452D01*
X325867Y145839D01*
X326310Y145396D01*
X327523Y144893D01*
X328837D01*
X330050Y145396D01*
X330979Y146325D01*
X331482Y147538D01*
Y148852D01*
X330979Y150066D01*
X330050Y150995D01*
X328837Y151497D01*
X327523D01*
X326310Y150995D01*
X325923Y150608D01*
X325480Y151051D01*
X324266Y151553D01*
D02*
G37*
G36*
X247276Y151061D02*
X245963D01*
X244749Y150558D01*
X243820Y149629D01*
X243317Y148416D01*
Y147102D01*
X243820Y145888D01*
X244749Y144960D01*
X245963Y144457D01*
X247276D01*
X248490Y144960D01*
X249419Y145888D01*
X249921Y147102D01*
Y148416D01*
X249419Y149629D01*
X248490Y150558D01*
X247276Y151061D01*
D02*
G37*
G36*
X238815Y127021D02*
X237502D01*
X236288Y126518D01*
X235359Y125589D01*
X234856Y124376D01*
Y123062D01*
X235359Y121848D01*
X236288Y120920D01*
X237502Y120417D01*
X238815D01*
X240029Y120920D01*
X240958Y121848D01*
X241460Y123062D01*
Y124376D01*
X240958Y125589D01*
X240029Y126518D01*
X238815Y127021D01*
D02*
G37*
G36*
X318470Y127003D02*
X317157D01*
X315943Y126501D01*
X315014Y125572D01*
X314512Y124358D01*
Y123045D01*
X315014Y121831D01*
X315943Y120902D01*
X317157Y120399D01*
X318470D01*
X319684Y120902D01*
X320613Y121831D01*
X321115Y123045D01*
Y124358D01*
X320613Y125572D01*
X319684Y126501D01*
X318470Y127003D01*
D02*
G37*
G36*
X310469D02*
X309156D01*
X307942Y126501D01*
X307013Y125572D01*
X306511Y124358D01*
Y123045D01*
X307013Y121831D01*
X307942Y120902D01*
X309156Y120399D01*
X310469D01*
X311683Y120902D01*
X312612Y121831D01*
X313114Y123045D01*
Y124358D01*
X312612Y125572D01*
X311683Y126501D01*
X310469Y127003D01*
D02*
G37*
G36*
X470347Y209296D02*
X469034D01*
X467820Y208793D01*
X466891Y207864D01*
X466388Y206651D01*
Y205337D01*
X466891Y204124D01*
X467820Y203195D01*
X469034Y202692D01*
X470347D01*
X471561Y203195D01*
X472490Y204124D01*
X472992Y205337D01*
Y206651D01*
X472490Y207864D01*
X471561Y208793D01*
X470347Y209296D01*
D02*
G37*
G36*
Y201295D02*
X469034D01*
X467820Y200792D01*
X466891Y199863D01*
X466388Y198650D01*
Y197336D01*
X466891Y196123D01*
X467820Y195194D01*
X469034Y194691D01*
X470347D01*
X471561Y195194D01*
X472490Y196123D01*
X472992Y197336D01*
Y198650D01*
X472490Y199863D01*
X471561Y200792D01*
X470347Y201295D01*
D02*
G37*
G36*
X448713Y197290D02*
X447399D01*
X446186Y196788D01*
X445257Y195859D01*
X444754Y194645D01*
Y193332D01*
X445257Y192118D01*
X446186Y191189D01*
X447399Y190686D01*
X448713D01*
X449926Y191189D01*
X450855Y192118D01*
X451358Y193332D01*
Y194645D01*
X450855Y195859D01*
X449926Y196788D01*
X448713Y197290D01*
D02*
G37*
G36*
X433536D02*
X432222D01*
X431009Y196788D01*
X430080Y195859D01*
X429577Y194645D01*
Y193332D01*
X430080Y192118D01*
X431009Y191189D01*
X432222Y190686D01*
X433536D01*
X434749Y191189D01*
X435678Y192118D01*
X436181Y193332D01*
Y194645D01*
X435678Y195859D01*
X434749Y196788D01*
X433536Y197290D01*
D02*
G37*
G36*
X480209Y194564D02*
X478895D01*
X477682Y194061D01*
X476753Y193132D01*
X476250Y191919D01*
Y190605D01*
X476753Y189392D01*
X477682Y188463D01*
X478895Y187960D01*
X480209D01*
X481422Y188463D01*
X482351Y189392D01*
X482854Y190605D01*
Y191919D01*
X482351Y193132D01*
X481422Y194061D01*
X480209Y194564D01*
D02*
G37*
G36*
X422750Y189992D02*
X421437D01*
X420223Y189489D01*
X419294Y188560D01*
X418791Y187347D01*
Y186033D01*
X419294Y184820D01*
X420223Y183891D01*
X421437Y183388D01*
X422750D01*
X423964Y183891D01*
X424893Y184820D01*
X425395Y186033D01*
Y187347D01*
X424893Y188560D01*
X423964Y189489D01*
X422750Y189992D01*
D02*
G37*
G36*
X429781Y182564D02*
X428467D01*
X427253Y182061D01*
X426325Y181133D01*
X425822Y179919D01*
Y178605D01*
X426325Y177392D01*
X427253Y176463D01*
X428467Y175960D01*
X429781D01*
X430994Y176463D01*
X431923Y177392D01*
X432426Y178605D01*
Y179919D01*
X431923Y181133D01*
X430994Y182061D01*
X429781Y182564D01*
D02*
G37*
G36*
X409597Y182564D02*
X408283D01*
X407070Y182061D01*
X406141Y181133D01*
X405638Y179919D01*
Y178605D01*
X406141Y177392D01*
X407070Y176463D01*
X408283Y175960D01*
X409597D01*
X410810Y176463D01*
X411739Y177392D01*
X412242Y178605D01*
Y179919D01*
X411739Y181133D01*
X410810Y182061D01*
X409597Y182564D01*
D02*
G37*
G36*
X476565Y176637D02*
X475251D01*
X474038Y176134D01*
X473221Y175318D01*
X472404Y176134D01*
X471191Y176637D01*
X469877D01*
X468664Y176134D01*
X467735Y175205D01*
X467232Y173992D01*
Y172678D01*
X467735Y171465D01*
X468664Y170536D01*
X468939Y170422D01*
X469900Y169567D01*
Y168253D01*
X470403Y167040D01*
X471332Y166111D01*
X472545Y165608D01*
X473859D01*
X475072Y166111D01*
X475747Y166785D01*
X476355Y166176D01*
X477569Y165674D01*
X478882D01*
X480096Y166176D01*
X481025Y167105D01*
X481528Y168319D01*
Y169632D01*
X481025Y170846D01*
X480096Y171775D01*
X479021Y172220D01*
X479210Y172678D01*
Y173992D01*
X478707Y175205D01*
X477778Y176134D01*
X476565Y176637D01*
D02*
G37*
G36*
X444031Y190196D02*
X442718D01*
X441504Y189694D01*
X440575Y188765D01*
X440072Y187551D01*
Y186238D01*
X440575Y185024D01*
X441227Y184372D01*
X441245Y184077D01*
X441074Y183234D01*
X440951Y182988D01*
X440090Y182631D01*
X439161Y181702D01*
X438658Y180489D01*
Y179175D01*
X439161Y177962D01*
X439731Y177391D01*
X439963Y176599D01*
X439731Y175807D01*
X439161Y175236D01*
X438658Y174023D01*
Y172709D01*
X439161Y171496D01*
X440090Y170567D01*
X441303Y170064D01*
X442617D01*
X443830Y170567D01*
X444759Y171496D01*
X445262Y172709D01*
Y174023D01*
X444759Y175236D01*
X444189Y175807D01*
X443957Y176599D01*
X444189Y177391D01*
X444759Y177962D01*
X445262Y179175D01*
Y180489D01*
X444759Y181702D01*
X444108Y182354D01*
X444089Y182650D01*
X444260Y183493D01*
X444383Y183738D01*
X445245Y184095D01*
X446174Y185024D01*
X446676Y186238D01*
Y187551D01*
X446174Y188765D01*
X445245Y189694D01*
X444031Y190196D01*
D02*
G37*
G36*
X453031Y182626D02*
X451717D01*
X450504Y182123D01*
X449575Y181194D01*
X449072Y179981D01*
Y178667D01*
X449575Y177454D01*
X449860Y177169D01*
X450373Y176319D01*
X449860Y175509D01*
X449556Y175205D01*
X449053Y173992D01*
Y172678D01*
X449556Y171465D01*
X449628Y171393D01*
X449556Y171321D01*
X449053Y170107D01*
Y168794D01*
X449556Y167580D01*
X450485Y166651D01*
X451698Y166148D01*
X453012D01*
X454225Y166651D01*
X455123Y167549D01*
X456021Y166651D01*
X457234Y166148D01*
X458548D01*
X459762Y166651D01*
X460691Y167580D01*
X461193Y168794D01*
Y170107D01*
X460691Y171321D01*
X460619Y171393D01*
X460820Y171594D01*
X461323Y172808D01*
Y174121D01*
X460820Y175335D01*
X459892Y176264D01*
X458678Y176767D01*
X457364D01*
X456151Y176264D01*
X455875Y175988D01*
X455664Y176031D01*
X455302Y176541D01*
X455152Y177433D01*
X455173Y177454D01*
X455676Y178667D01*
Y179981D01*
X455173Y181194D01*
X454244Y182123D01*
X453031Y182626D01*
D02*
G37*
G36*
X377783Y170490D02*
X376470D01*
X375256Y169987D01*
X374327Y169058D01*
X373824Y167845D01*
Y166531D01*
X374327Y165317D01*
X375256Y164388D01*
X376470Y163886D01*
X377783D01*
X378997Y164388D01*
X379926Y165317D01*
X380428Y166531D01*
Y167845D01*
X379926Y169058D01*
X378997Y169987D01*
X377783Y170490D01*
D02*
G37*
G36*
X455502Y159341D02*
X454188D01*
X452974Y158838D01*
X452869Y158733D01*
X451658Y159235D01*
X450344D01*
X449130Y158733D01*
X449097Y158699D01*
X447885Y159201D01*
X446571D01*
X445358Y158698D01*
X444429Y157769D01*
X443926Y156556D01*
Y155242D01*
X444429Y154029D01*
X445358Y153100D01*
X446571Y152597D01*
X447885D01*
X449099Y153100D01*
X449132Y153133D01*
X450344Y152631D01*
X451658D01*
X452871Y153134D01*
X452976Y153239D01*
X454188Y152737D01*
X455502D01*
X456575Y153181D01*
X456600Y153157D01*
X457813Y152654D01*
X459127D01*
X460340Y153157D01*
X461269Y154086D01*
X461772Y155299D01*
Y156613D01*
X461269Y157826D01*
X460340Y158755D01*
X459127Y159258D01*
X457813D01*
X456740Y158813D01*
X456715Y158838D01*
X455502Y159341D01*
D02*
G37*
G36*
X486051Y159004D02*
X484737D01*
X483524Y158501D01*
X483489Y158467D01*
X483454Y158501D01*
X482241Y159004D01*
X480927D01*
X479714Y158501D01*
X479679Y158467D01*
X479644Y158501D01*
X478431Y159004D01*
X477117D01*
X475904Y158501D01*
X475869Y158467D01*
X475834Y158501D01*
X474621Y159004D01*
X473307D01*
X472094Y158501D01*
X471165Y157572D01*
X470662Y156359D01*
Y155045D01*
X471165Y153832D01*
X472094Y152903D01*
X473307Y152400D01*
X474621D01*
X475834Y152903D01*
X475869Y152937D01*
X475904Y152903D01*
X477117Y152400D01*
X478431D01*
X479644Y152903D01*
X479679Y152937D01*
X479714Y152903D01*
X480927Y152400D01*
X482241D01*
X483454Y152903D01*
X483489Y152937D01*
X483524Y152903D01*
X484737Y152400D01*
X486051D01*
X487264Y152903D01*
X488193Y153832D01*
X488696Y155045D01*
Y156359D01*
X488193Y157572D01*
X487264Y158501D01*
X486051Y159004D01*
D02*
G37*
G36*
X407205Y121906D02*
X405892D01*
X404678Y121403D01*
X403749Y120474D01*
X403246Y119260D01*
Y117947D01*
X403749Y116733D01*
X404678Y115804D01*
X405892Y115302D01*
X407205D01*
X408419Y115804D01*
X409348Y116733D01*
X409851Y117947D01*
Y119260D01*
X409348Y120474D01*
X408419Y121403D01*
X407205Y121906D01*
D02*
G37*
G36*
X540538Y207914D02*
X539225D01*
X538011Y207411D01*
X537082Y206482D01*
X536580Y205269D01*
Y203955D01*
X537082Y202742D01*
X538011Y201813D01*
X539225Y201310D01*
X540538D01*
X541752Y201813D01*
X542681Y202742D01*
X543184Y203955D01*
Y205269D01*
X542681Y206482D01*
X541752Y207411D01*
X540538Y207914D01*
D02*
G37*
G36*
X529637Y212440D02*
X528323D01*
X527110Y211937D01*
X526181Y211008D01*
X525678Y209795D01*
Y208481D01*
X526181Y207268D01*
X526573Y206875D01*
X526181Y206482D01*
X525678Y205269D01*
Y203955D01*
X526181Y202742D01*
X527110Y201813D01*
X528323Y201310D01*
X529637D01*
X530850Y201813D01*
X531779Y202742D01*
X532282Y203955D01*
Y205269D01*
X531779Y206482D01*
X531387Y206875D01*
X531779Y207268D01*
X532282Y208481D01*
Y209795D01*
X531779Y211008D01*
X530850Y211937D01*
X529637Y212440D01*
D02*
G37*
G36*
X518817D02*
X517503D01*
X516290Y211937D01*
X515361Y211008D01*
X514858Y209795D01*
Y208481D01*
X515361Y207268D01*
X515443Y207185D01*
X515449Y205417D01*
X515445Y205413D01*
X514942Y204199D01*
Y202886D01*
X515445Y201672D01*
X516373Y200743D01*
X517587Y200241D01*
X518901D01*
X520114Y200743D01*
X521043Y201672D01*
X521546Y202886D01*
Y204199D01*
X521043Y205413D01*
X520961Y205495D01*
X520955Y207264D01*
X520959Y207268D01*
X521462Y208481D01*
Y209795D01*
X520959Y211008D01*
X520030Y211937D01*
X518817Y212440D01*
D02*
G37*
%LPD*%
D13*
X647700Y76200D02*
X655320Y83820D01*
X598170Y76200D02*
X647700D01*
X585470Y63500D02*
X598170Y76200D01*
X368705Y85090D02*
X369325D01*
X388375Y104140D02*
X563880D01*
X369325Y85090D02*
X388375Y104140D01*
X574040Y74930D02*
X585470Y63500D01*
X574040Y74930D02*
Y93980D01*
X563880Y104140D02*
X574040Y93980D01*
D21*
X62214Y568943D02*
X63599Y570329D01*
X64078D01*
X62214Y403876D02*
Y568943D01*
Y403876D02*
X66040Y400050D01*
D141*
X163712Y522260D02*
X183646Y502326D01*
X121015Y522260D02*
X163712D01*
X183646Y497977D02*
Y502326D01*
X117006Y526269D02*
X121015Y522260D01*
X200660Y471170D02*
Y480963D01*
X183646Y497977D02*
X200660Y480963D01*
X198120Y468630D02*
X200660Y471170D01*
X185928Y468630D02*
X198120D01*
X180848Y473710D02*
X185928Y468630D01*
X92710Y443230D02*
Y455930D01*
X110490Y425450D02*
X121920D01*
X92710Y443230D02*
X110490Y425450D01*
X88379Y460261D02*
X92710Y455930D01*
X88379Y460261D02*
Y467127D01*
X121920Y425450D02*
X125700Y429230D01*
X151130D01*
X220980Y490220D02*
X358140Y353060D01*
X501650D01*
X528320Y379730D01*
Y412750D01*
X565150Y449580D01*
X217170Y505460D02*
X220980Y501650D01*
Y490220D02*
Y501650D01*
X217170Y505460D02*
Y508851D01*
X211423Y514598D02*
X217170Y508851D01*
D143*
X653656Y512732D02*
X660748D01*
D144*
X531213Y255638D02*
X538001Y262426D01*
X642969Y492601D02*
X646176Y495808D01*
X642969Y476144D02*
Y492601D01*
X627380Y468378D02*
X635202D01*
X642969Y476144D01*
X617380Y468378D02*
X627380D01*
X608292D02*
X617380D01*
X547370Y336470D02*
Y407456D01*
X537290Y326390D02*
X547370Y336470D01*
Y407456D02*
X608292Y468378D01*
X538001Y262426D02*
Y324409D01*
X528980Y255638D02*
X531213D01*
X365920Y607239D02*
X533716D01*
X593090Y242838D02*
X629194Y278943D01*
X602557Y107972D02*
Y168910D01*
X593090Y178377D02*
Y242838D01*
Y178377D02*
X602557Y168910D01*
X636270Y264160D02*
X656410Y284300D01*
X617220Y95250D02*
Y180340D01*
X636270Y199390D02*
Y264160D01*
X617220Y180340D02*
X636270Y199390D01*
X585470Y90885D02*
X602557Y107972D01*
X493236Y570706D02*
X653574D01*
X478790Y556260D02*
X493236Y570706D01*
X653574D02*
X698580Y525700D01*
X656410Y424777D02*
X698580Y466948D01*
Y525700D01*
X656410Y284300D02*
Y424777D01*
X418106Y560586D02*
X420784Y563264D01*
X427788Y556260D02*
X478790D01*
X420784Y563264D02*
X427788Y556260D01*
X415566Y568587D02*
Y574377D01*
X643890Y404841D02*
Y443682D01*
X670560Y470352D02*
Y502920D01*
X643890Y443682D02*
X670560Y470352D01*
X629194Y278943D02*
Y390146D01*
X585470Y88900D02*
Y90885D01*
X660748Y512732D02*
X670560Y502920D01*
X629194Y390146D02*
X643890Y404841D01*
X610870Y88900D02*
X617220Y95250D01*
D152*
X483870Y63500D02*
D03*
X509270D02*
D03*
X407670Y88900D02*
D03*
X433070Y63500D02*
D03*
Y88900D02*
D03*
X458470Y63500D02*
D03*
Y88900D02*
D03*
X483870D02*
D03*
X509270D02*
D03*
X534670Y63500D02*
D03*
Y88900D02*
D03*
X560070Y63500D02*
D03*
Y88900D02*
D03*
X585470Y63500D02*
D03*
Y88900D02*
D03*
X610870Y63500D02*
D03*
Y88900D02*
D03*
X636270Y63500D02*
D03*
Y88900D02*
D03*
D153*
X407670Y63500D02*
D03*
D154*
X533715Y607239D02*
D03*
D155*
X558714D02*
D03*
D156*
X227310Y621795D02*
D03*
X313710D02*
D03*
D157*
X227310Y580296D02*
D03*
X313710D02*
D03*
D158*
X743290Y625800D02*
D03*
Y75800D02*
D03*
X84690D02*
D03*
Y625793D02*
D03*
D159*
X174557Y566101D02*
D03*
X87506Y577267D02*
D03*
X74402Y571268D02*
D03*
X64078Y570329D02*
D03*
X191966Y543134D02*
D03*
X182217Y545535D02*
D03*
X101266Y523003D02*
D03*
X102640Y513688D02*
D03*
X97239Y504738D02*
D03*
Y513688D02*
D03*
X101982Y445813D02*
D03*
X115736Y454268D02*
D03*
X102402D02*
D03*
X74514Y529236D02*
D03*
Y535238D02*
D03*
X94176Y544431D02*
D03*
X94231Y537971D02*
D03*
X87506Y547267D02*
D03*
Y553267D02*
D03*
X119096Y562689D02*
D03*
X103152Y562266D02*
D03*
X117006Y538268D02*
D03*
Y526269D02*
D03*
X119096Y551809D02*
D03*
X123915Y507980D02*
D03*
X116191Y508268D02*
D03*
X87441Y499266D02*
D03*
Y487267D02*
D03*
Y493267D02*
D03*
X128270Y496570D02*
D03*
X116840D02*
D03*
X116698Y489832D02*
D03*
X168950Y467342D02*
D03*
X98262Y488382D02*
D03*
Y481154D02*
D03*
X123265Y467218D02*
D03*
X87912Y429143D02*
D03*
X96241Y428931D02*
D03*
X88379Y467127D02*
D03*
X74402Y565268D02*
D03*
Y559269D02*
D03*
X101389Y576583D02*
D03*
X101389Y568206D02*
D03*
X118019Y574329D02*
D03*
X653656Y498950D02*
D03*
X536981Y255638D02*
D03*
X617380Y468378D02*
D03*
X537290Y326390D02*
D03*
X627380Y468378D02*
D03*
X652386Y493006D02*
D03*
X528980Y255638D02*
D03*
X124980Y435237D02*
D03*
X86614Y451104D02*
D03*
X246830Y488638D02*
D03*
X265830D02*
D03*
X490220Y453390D02*
D03*
X496570D02*
D03*
X565150Y449580D02*
D03*
X211423Y514598D02*
D03*
X408940Y179262D02*
D03*
X488740Y226060D02*
D03*
X549863Y77653D02*
D03*
X601872Y638416D02*
D03*
X571180Y638810D02*
D03*
X533080D02*
D03*
X494980D02*
D03*
X590230Y276860D02*
D03*
X580230D02*
D03*
X554990Y307340D02*
D03*
X280694Y377004D02*
D03*
Y367004D02*
D03*
X298695Y377004D02*
D03*
X290694D02*
D03*
X341950Y579120D02*
D03*
X351950D02*
D03*
X361950D02*
D03*
X370332Y530860D02*
D03*
X362331D02*
D03*
X354330D02*
D03*
X320520Y516372D02*
D03*
X291522Y516300D02*
D03*
X312519Y516372D02*
D03*
X290965Y434594D02*
D03*
X579501Y459359D02*
D03*
X571500D02*
D03*
X587502Y467360D02*
D03*
X579501D02*
D03*
X571500D02*
D03*
X615130Y443408D02*
D03*
X603250Y443230D02*
D03*
X462661Y234950D02*
D03*
X454660D02*
D03*
X470662D02*
D03*
X356986Y270070D02*
D03*
X349691Y269615D02*
D03*
Y275330D02*
D03*
X342960Y269615D02*
D03*
Y275330D02*
D03*
X229164Y269748D02*
D03*
X214553D02*
D03*
X222554Y275200D02*
D03*
Y269748D02*
D03*
X232410Y287171D02*
D03*
X214553Y275200D02*
D03*
X291522Y525100D02*
D03*
X311850Y532602D02*
D03*
X303372Y532284D02*
D03*
X237026Y505289D02*
D03*
X240836Y510750D02*
D03*
X246488D02*
D03*
X252139D02*
D03*
X246126Y557911D02*
D03*
X242062D02*
D03*
X238125D02*
D03*
X469690Y197993D02*
D03*
Y205994D02*
D03*
X432879Y193988D02*
D03*
X448056D02*
D03*
X443374Y186894D02*
D03*
X246619Y174429D02*
D03*
X614172Y529844D02*
D03*
X247889Y314641D02*
D03*
Y307910D02*
D03*
X376936Y301752D02*
D03*
X376813Y296102D02*
D03*
X458470Y155956D02*
D03*
X451001Y155933D02*
D03*
X454845Y156039D02*
D03*
X447228Y155899D02*
D03*
X485394Y155702D02*
D03*
X481584D02*
D03*
X477774D02*
D03*
X473964D02*
D03*
X478226Y168976D02*
D03*
X473202Y168910D02*
D03*
X457891Y169450D02*
D03*
X452355D02*
D03*
X307594Y525100D02*
D03*
X242062Y563626D02*
D03*
X345372Y493988D02*
D03*
X356986Y285477D02*
D03*
X335226Y317044D02*
D03*
X319811Y334238D02*
D03*
X309513D02*
D03*
X330454Y326644D02*
D03*
X329438Y179324D02*
D03*
X319024D02*
D03*
X307175D02*
D03*
X335191Y171654D02*
D03*
X322642Y303873D02*
D03*
X327213Y295136D02*
D03*
X327213Y303873D02*
D03*
X318072D02*
D03*
Y295192D02*
D03*
X322642D02*
D03*
X226554Y138834D02*
D03*
X323609Y148251D02*
D03*
X319039D02*
D03*
Y156932D02*
D03*
X328180D02*
D03*
X328180Y148195D02*
D03*
X323609Y156932D02*
D03*
X187880Y180292D02*
D03*
X204741Y177021D02*
D03*
X194372Y295704D02*
D03*
X189802D02*
D03*
Y304385D02*
D03*
X199197D02*
D03*
X199197Y295648D02*
D03*
X194372Y304385D02*
D03*
X157988Y266493D02*
D03*
X149987D02*
D03*
X193102Y157823D02*
D03*
X197673Y149086D02*
D03*
X197673Y157823D02*
D03*
X188532D02*
D03*
Y149142D02*
D03*
X193102D02*
D03*
X166370Y202536D02*
D03*
Y212579D02*
D03*
X152557Y241330D02*
D03*
Y249331D02*
D03*
X144556D02*
D03*
Y241330D02*
D03*
Y211330D02*
D03*
Y219331D02*
D03*
X137922Y106426D02*
D03*
Y114427D02*
D03*
X160782D02*
D03*
Y106426D02*
D03*
X225612Y287171D02*
D03*
X160279Y551809D02*
D03*
X223266Y510993D02*
D03*
X149987Y261239D02*
D03*
X157988D02*
D03*
X148149Y310972D02*
D03*
X148058Y302971D02*
D03*
X142429Y346710D02*
D03*
Y339563D02*
D03*
X155829Y353060D02*
D03*
X163830D02*
D03*
X428398Y445110D02*
D03*
X393756D02*
D03*
X297696Y440665D02*
D03*
Y434594D02*
D03*
X324957Y440527D02*
D03*
X212013Y121519D02*
D03*
X204012D02*
D03*
X212013Y128250D02*
D03*
X204012D02*
D03*
X350267Y127359D02*
D03*
Y132185D02*
D03*
X364519Y126379D02*
D03*
X350267Y137011D02*
D03*
X344806Y128629D02*
D03*
X462661Y226060D02*
D03*
X454660D02*
D03*
X470662D02*
D03*
X634245Y152853D02*
D03*
X626244D02*
D03*
X634245Y160854D02*
D03*
X626244D02*
D03*
X584055Y143552D02*
D03*
X610696Y200230D02*
D03*
Y212090D02*
D03*
X529896Y182272D02*
D03*
Y174271D02*
D03*
X521895D02*
D03*
Y182272D02*
D03*
X513823Y182245D02*
D03*
X555211Y468249D02*
D03*
Y476250D02*
D03*
X529750Y468249D02*
D03*
X537210D02*
D03*
X547210D02*
D03*
X302966Y440665D02*
D03*
X292425D02*
D03*
X297696Y445110D02*
D03*
X661657Y507271D02*
D03*
Y512732D02*
D03*
Y520733D02*
D03*
X653656D02*
D03*
X614172Y536448D02*
D03*
X621486Y536270D02*
D03*
X621538Y530098D02*
D03*
X600710Y557533D02*
D03*
X624840Y552450D02*
D03*
X454084Y441485D02*
D03*
X462085Y435930D02*
D03*
X468816Y440850D02*
D03*
X462085Y441485D02*
D03*
X376316Y456921D02*
D03*
X370855D02*
D03*
X376316Y445999D02*
D03*
X370855D02*
D03*
X445626Y455184D02*
D03*
X437625D02*
D03*
X414163D02*
D03*
X453627D02*
D03*
X604524Y523616D02*
D03*
X598762D02*
D03*
X590413D02*
D03*
X582412D02*
D03*
X590413Y529077D02*
D03*
X582412D02*
D03*
X378780Y567924D02*
D03*
Y573385D02*
D03*
X388780Y567924D02*
D03*
Y573385D02*
D03*
X412645Y552585D02*
D03*
Y560586D02*
D03*
Y568587D02*
D03*
Y575539D02*
D03*
X418106Y552585D02*
D03*
Y560586D02*
D03*
X151981Y560403D02*
D03*
X143261Y560403D02*
D03*
X151981Y551809D02*
D03*
X143261D02*
D03*
X129980D02*
D03*
Y543215D02*
D03*
Y534622D02*
D03*
X135187D02*
D03*
X547210Y476250D02*
D03*
X621079Y522813D02*
D03*
X529750Y476250D02*
D03*
X537210D02*
D03*
X429624Y455184D02*
D03*
X422164D02*
D03*
X657382Y215171D02*
D03*
X627096Y215685D02*
D03*
X657382Y225171D02*
D03*
X627096Y225685D02*
D03*
X647382Y225171D02*
D03*
X753272Y165100D02*
D03*
X655320Y143348D02*
D03*
X347980Y638810D02*
D03*
X373380D02*
D03*
X194472Y429641D02*
D03*
X638071Y131572D02*
D03*
Y118863D02*
D03*
Y106153D02*
D03*
X77702Y125984D02*
D03*
X89872D02*
D03*
X78210Y146050D02*
D03*
X90380D02*
D03*
X102550D02*
D03*
X90380Y224790D02*
D03*
X78210D02*
D03*
X66040D02*
D03*
Y199390D02*
D03*
Y146050D02*
D03*
Y173990D02*
D03*
Y250190D02*
D03*
Y273050D02*
D03*
Y298450D02*
D03*
Y323850D02*
D03*
X78210Y374650D02*
D03*
X66040D02*
D03*
X90380D02*
D03*
X66040Y400050D02*
D03*
X78210Y387350D02*
D03*
X66040Y349250D02*
D03*
X102550Y361950D02*
D03*
X90380D02*
D03*
X78210D02*
D03*
X65532Y100584D02*
D03*
Y113284D02*
D03*
Y125984D02*
D03*
X64262Y602488D02*
D03*
Y589915D02*
D03*
Y577342D02*
D03*
X361496Y159671D02*
D03*
X174498Y412242D02*
D03*
X86614Y445102D02*
D03*
X547483Y247603D02*
D03*
X559468Y157265D02*
D03*
X559667Y164648D02*
D03*
X584058Y159535D02*
D03*
X471170Y294640D02*
D03*
X428670Y265081D02*
D03*
X448274Y279339D02*
D03*
Y285909D02*
D03*
X513823Y174244D02*
D03*
X406666Y486500D02*
D03*
X343871Y472888D02*
D03*
X142205Y517091D02*
D03*
X281439Y559798D02*
D03*
X264160D02*
D03*
X309880Y565150D02*
D03*
X304419D02*
D03*
X223991Y564484D02*
D03*
X229452D02*
D03*
X278130Y584333D02*
D03*
X255886D02*
D03*
X633782Y483780D02*
D03*
X539910Y132080D02*
D03*
X549910D02*
D03*
X694545Y106153D02*
D03*
X666308D02*
D03*
X694545Y118863D02*
D03*
X666308D02*
D03*
X712000Y459740D02*
D03*
Y485140D02*
D03*
X728667Y459740D02*
D03*
Y485140D02*
D03*
X745333Y459740D02*
D03*
Y485140D02*
D03*
X102550Y173990D02*
D03*
Y250190D02*
D03*
Y199390D02*
D03*
Y224790D02*
D03*
Y323850D02*
D03*
Y273050D02*
D03*
Y298450D02*
D03*
Y349250D02*
D03*
X90380Y173990D02*
D03*
Y250190D02*
D03*
Y199390D02*
D03*
Y323850D02*
D03*
Y273050D02*
D03*
Y298450D02*
D03*
Y349250D02*
D03*
X653998Y468339D02*
D03*
X271739Y565493D02*
D03*
X278011D02*
D03*
X263009Y583597D02*
D03*
X269281D02*
D03*
X763916Y228062D02*
D03*
X758455D02*
D03*
X450330Y333896D02*
D03*
X442329D02*
D03*
X418326D02*
D03*
X426327D02*
D03*
X173101Y212579D02*
D03*
Y192493D02*
D03*
X290694Y367004D02*
D03*
Y356336D02*
D03*
Y345668D02*
D03*
Y334238D02*
D03*
X298695Y367004D02*
D03*
Y356336D02*
D03*
Y345668D02*
D03*
X298071Y228815D02*
D03*
Y218815D02*
D03*
Y208815D02*
D03*
Y198815D02*
D03*
X482409Y366068D02*
D03*
X537290Y339399D02*
D03*
X407162Y238887D02*
D03*
X418170Y265081D02*
D03*
X407162Y265176D02*
D03*
Y256413D02*
D03*
Y247650D02*
D03*
Y230124D02*
D03*
X198882Y331470D02*
D03*
X190881D02*
D03*
X182880D02*
D03*
X203200Y324286D02*
D03*
X174081Y335228D02*
D03*
X464966Y173335D02*
D03*
Y166604D02*
D03*
Y159873D02*
D03*
X406549Y118604D02*
D03*
X247889Y297866D02*
D03*
X667256Y402209D02*
D03*
Y410210D02*
D03*
X160702Y560403D02*
D03*
X292425Y445110D02*
D03*
X238125Y563626D02*
D03*
X246126D02*
D03*
X204980Y508105D02*
D03*
X185420Y434721D02*
D03*
Y429260D02*
D03*
X256330Y488638D02*
D03*
X228198Y180619D02*
D03*
X528980Y209138D02*
D03*
X518244Y203543D02*
D03*
X518160Y209138D02*
D03*
X666308Y131572D02*
D03*
X594055Y131553D02*
D03*
X584055D02*
D03*
X505460Y129628D02*
D03*
Y139628D02*
D03*
X429124Y118558D02*
D03*
Y128558D02*
D03*
X408940Y128558D02*
D03*
X78210Y173990D02*
D03*
Y199390D02*
D03*
Y250190D02*
D03*
Y273050D02*
D03*
Y298450D02*
D03*
Y323850D02*
D03*
Y349250D02*
D03*
X698500Y67310D02*
D03*
X339090Y60960D02*
D03*
X364490D02*
D03*
X224790D02*
D03*
X250190D02*
D03*
X275590D02*
D03*
X300990D02*
D03*
X120650D02*
D03*
X146050D02*
D03*
X171450D02*
D03*
X196850D02*
D03*
X727946Y157907D02*
D03*
X725406Y132507D02*
D03*
Y107107D02*
D03*
X759460Y106680D02*
D03*
Y132080D02*
D03*
Y157480D02*
D03*
Y182880D02*
D03*
X132080Y618490D02*
D03*
X157480D02*
D03*
X182880D02*
D03*
X208280D02*
D03*
X236220Y636270D02*
D03*
X261620D02*
D03*
X287020D02*
D03*
X312420D02*
D03*
X133350D02*
D03*
X158750D02*
D03*
X184150D02*
D03*
X209550D02*
D03*
X327660Y624840D02*
D03*
X353060D02*
D03*
X378460D02*
D03*
X403860D02*
D03*
X398780Y638810D02*
D03*
X424180D02*
D03*
X449580D02*
D03*
X474980D02*
D03*
X683260Y565150D02*
D03*
X708660D02*
D03*
X734060D02*
D03*
X759460D02*
D03*
X618490Y588010D02*
D03*
X643890D02*
D03*
X669290D02*
D03*
X694690D02*
D03*
X618490Y615950D02*
D03*
X643890D02*
D03*
X669290D02*
D03*
X694690D02*
D03*
X621030Y638810D02*
D03*
X646430D02*
D03*
X671830D02*
D03*
X697230D02*
D03*
X762000Y459740D02*
D03*
Y485140D02*
D03*
X762000Y510540D02*
D03*
Y535940D02*
D03*
X584288Y364881D02*
D03*
Y356880D02*
D03*
Y340380D02*
D03*
Y332379D02*
D03*
X594288Y364881D02*
D03*
Y356880D02*
D03*
Y340380D02*
D03*
Y332379D02*
D03*
X604288Y364881D02*
D03*
Y356880D02*
D03*
Y340380D02*
D03*
Y332379D02*
D03*
X675892Y331078D02*
D03*
Y344180D02*
D03*
X683262Y403873D02*
D03*
X604288Y382682D02*
D03*
Y374881D02*
D03*
X614288Y382682D02*
D03*
Y374881D02*
D03*
X665892Y381092D02*
D03*
X683262Y395143D02*
D03*
X681990Y381092D02*
D03*
X672488D02*
D03*
X681990Y371092D02*
D03*
X672488D02*
D03*
X284480Y218597D02*
D03*
Y228597D02*
D03*
X691090Y434182D02*
D03*
X699590D02*
D03*
X710090D02*
D03*
X151130Y435958D02*
D03*
X674390Y512732D02*
D03*
X165129Y501803D02*
D03*
X604688Y503096D02*
D03*
X151130Y429230D02*
D03*
X610869Y503096D02*
D03*
X170613Y501803D02*
D03*
X694545Y131572D02*
D03*
Y141553D02*
D03*
X584055Y151553D02*
D03*
X652780Y533400D02*
D03*
X574043Y207717D02*
D03*
X309813Y123701D02*
D03*
X179303Y124895D02*
D03*
X189230Y261239D02*
D03*
X308229Y269851D02*
D03*
X398780Y573385D02*
D03*
X462085Y447040D02*
D03*
X376316Y451460D02*
D03*
X357447Y486251D02*
D03*
X385269Y472888D02*
D03*
X146928Y339563D02*
D03*
Y346710D02*
D03*
X156059Y302879D02*
D03*
X156150Y310880D02*
D03*
X163746Y346710D02*
D03*
X155745D02*
D03*
Y339563D02*
D03*
X163746D02*
D03*
X317813Y123701D02*
D03*
X154940Y106299D02*
D03*
Y114300D02*
D03*
X132080Y106299D02*
D03*
Y114300D02*
D03*
X152557Y219331D02*
D03*
Y211330D02*
D03*
X238618Y147759D02*
D03*
X377126Y175189D02*
D03*
X342960Y281045D02*
D03*
X204012Y134981D02*
D03*
X214553Y280651D02*
D03*
X475908Y173335D02*
D03*
X458021Y173465D02*
D03*
X471932Y191262D02*
D03*
X441960Y173366D02*
D03*
X452374Y179324D02*
D03*
X441960Y179832D02*
D03*
X525618Y276860D02*
D03*
Y282956D02*
D03*
X504160Y485140D02*
D03*
X487479Y469502D02*
D03*
X475972Y472934D02*
D03*
X559837Y511810D02*
D03*
X556377Y228120D02*
D03*
X157609Y496788D02*
D03*
X180848Y473710D02*
D03*
X200469Y433040D02*
D03*
X398780Y567924D02*
D03*
X257791Y510750D02*
D03*
X263442D02*
D03*
X135187Y551809D02*
D03*
X418106Y568587D02*
D03*
Y575539D02*
D03*
X311850Y525140D02*
D03*
X303372Y525100D02*
D03*
X640852Y311078D02*
D03*
Y321078D02*
D03*
X614288Y332379D02*
D03*
Y364881D02*
D03*
X589374Y396982D02*
D03*
X602140D02*
D03*
X363220Y314908D02*
D03*
X623090Y396494D02*
D03*
X589374Y373127D02*
D03*
X623090Y402492D02*
D03*
Y408491D02*
D03*
X632714Y411607D02*
D03*
Y417322D02*
D03*
X434328Y333896D02*
D03*
X577392Y413766D02*
D03*
Y407880D02*
D03*
X358845Y169298D02*
D03*
X342960Y286760D02*
D03*
X363220Y323988D02*
D03*
X356870Y324148D02*
D03*
X350266Y314908D02*
D03*
X368705Y85090D02*
D03*
X228198Y167041D02*
D03*
Y157786D02*
D03*
X134857Y448630D02*
D03*
X142279Y501803D02*
D03*
X169062Y481240D02*
D03*
X353060Y435610D02*
D03*
X213349Y501803D02*
D03*
X631590Y434182D02*
D03*
Y442682D02*
D03*
X577392Y305880D02*
D03*
X570230Y276860D02*
D03*
X101600Y529269D02*
D03*
X369325Y176376D02*
D03*
X344806Y134090D02*
D03*
X212013Y134981D02*
D03*
X246619Y147759D02*
D03*
X187304Y124895D02*
D03*
X323822Y490774D02*
D03*
X304518Y516372D02*
D03*
X654950Y484991D02*
D03*
X632318Y493006D02*
D03*
Y498890D02*
D03*
X273050Y488638D02*
D03*
X240030D02*
D03*
X483844Y441124D02*
D03*
X167913Y414382D02*
D03*
X129706Y484268D02*
D03*
X528010Y343821D02*
D03*
Y320120D02*
D03*
Y326390D02*
D03*
Y337740D02*
D03*
X562788Y365380D02*
D03*
Y373880D02*
D03*
Y399380D02*
D03*
X682590Y419578D02*
D03*
X214553Y286103D02*
D03*
X503555Y446405D02*
D03*
X530860Y449580D02*
D03*
X547370Y447040D02*
D03*
X238158Y123719D02*
D03*
X377126Y167188D02*
D03*
X247889Y327639D02*
D03*
X225148D02*
D03*
X231140D02*
D03*
X562788Y305880D02*
D03*
X313690Y269851D02*
D03*
X189230Y269240D02*
D03*
X505460Y149627D02*
D03*
X492760Y160020D02*
D03*
Y149860D02*
D03*
Y138430D02*
D03*
X441960D02*
D03*
Y149860D02*
D03*
Y160020D02*
D03*
X470534Y173335D02*
D03*
X452355D02*
D03*
X228198Y174429D02*
D03*
X655320Y83820D02*
D03*
X665590Y279578D02*
D03*
X737352Y239682D02*
D03*
X626244Y168855D02*
D03*
X528980Y204612D02*
D03*
X539882D02*
D03*
X674749Y148428D02*
D03*
X634245Y168855D02*
D03*
X669546Y204497D02*
D03*
X479552Y191262D02*
D03*
X415270Y230029D02*
D03*
X511810Y262032D02*
D03*
X574296Y249261D02*
D03*
X490410Y366068D02*
D03*
X412932Y382108D02*
D03*
X414202Y375951D02*
D03*
X447040Y378917D02*
D03*
X461329D02*
D03*
X472801D02*
D03*
X465882Y397616D02*
D03*
Y385005D02*
D03*
Y391310D02*
D03*
X461241D02*
D03*
Y385005D02*
D03*
Y397616D02*
D03*
X610814Y523544D02*
D03*
X653998Y476340D02*
D03*
X653656Y512732D02*
D03*
X643656D02*
D03*
X598762Y529077D02*
D03*
X604524D02*
D03*
X475368Y493069D02*
D03*
X490171Y517871D02*
D03*
X436259Y472687D02*
D03*
X468816Y447040D02*
D03*
X445567Y511101D02*
D03*
Y493728D02*
D03*
X466910Y455930D02*
D03*
X370855Y451460D02*
D03*
X302966Y445110D02*
D03*
X274458Y516372D02*
D03*
X196438Y473710D02*
D03*
X194472Y421640D02*
D03*
X190228Y473710D02*
D03*
X702788Y314380D02*
D03*
X205019Y514605D02*
D03*
X196719Y508105D02*
D03*
X188487Y501803D02*
D03*
X143261Y543215D02*
D03*
X428035Y575539D02*
D03*
X427990Y493069D02*
D03*
X490171Y522870D02*
D03*
X450850Y575543D02*
D03*
X134854Y435958D02*
D03*
X702788Y416380D02*
D03*
Y407880D02*
D03*
Y390880D02*
D03*
Y399380D02*
D03*
Y382380D02*
D03*
Y373880D02*
D03*
Y365380D02*
D03*
Y356880D02*
D03*
Y348380D02*
D03*
Y339880D02*
D03*
Y331380D02*
D03*
Y322880D02*
D03*
Y305880D02*
D03*
Y297380D02*
D03*
X710090Y279578D02*
D03*
X728588Y519390D02*
D03*
Y527391D02*
D03*
Y535392D02*
D03*
X614590Y294182D02*
D03*
X606090D02*
D03*
X597590D02*
D03*
X589090D02*
D03*
X580590D02*
D03*
X674090D02*
D03*
X682590D02*
D03*
X665892Y344180D02*
D03*
X640852Y382682D02*
D03*
X665892Y373380D02*
D03*
Y356880D02*
D03*
Y331078D02*
D03*
X640852D02*
D03*
X614288Y340380D02*
D03*
Y356880D02*
D03*
X415270Y249079D02*
D03*
X547370Y420208D02*
D03*
X518279Y409188D02*
D03*
X697230Y223221D02*
D03*
X752138Y233680D02*
D03*
X750454Y228062D02*
D03*
X538480Y244742D02*
D03*
X422093Y186690D02*
D03*
X429124Y179262D02*
D03*
Y138558D02*
D03*
X408940Y138558D02*
D03*
X232200Y510993D02*
D03*
X298695Y334238D02*
D03*
X368705Y93816D02*
D03*
X316528Y94615D02*
D03*
X277144Y91815D02*
D03*
X318773Y103632D02*
D03*
X266700Y91868D02*
D03*
X284480Y208597D02*
D03*
Y198597D02*
D03*
Y188597D02*
D03*
X168579Y69676D02*
D03*
X173101Y202536D02*
D03*
X166370Y192493D02*
D03*
X135187Y543215D02*
D03*
X200089Y566101D02*
D03*
X187323D02*
D03*
D160*
X533281Y437490D02*
D03*
X737870Y165100D02*
D03*
D161*
X151638Y413639D02*
D03*
X143637D02*
D03*
X135636D02*
D03*
Y421640D02*
D03*
X143637D02*
D03*
X151638D02*
D03*
D162*
X337553Y307341D02*
D03*
X209283Y307853D02*
D03*
X505206Y268351D02*
D03*
Y275082D02*
D03*
X494919Y268351D02*
D03*
X498348D02*
D03*
X501777D02*
D03*
Y275082D02*
D03*
X498348D02*
D03*
X494919D02*
D03*
X528480Y583250D02*
D03*
X538480D02*
D03*
Y588170D02*
D03*
X528480D02*
D03*
Y593090D02*
D03*
X538480D02*
D03*
X346520Y156400D02*
D03*
X342520D02*
D03*
X220013Y161291D02*
D03*
X216013Y157291D02*
D03*
X208013Y161291D02*
D03*
X354520Y144400D02*
D03*
X350520Y160400D02*
D03*
X212013Y149291D02*
D03*
X216013D02*
D03*
X220013D02*
D03*
Y153291D02*
D03*
X212013Y157291D02*
D03*
X220013D02*
D03*
X342520Y148400D02*
D03*
X346520D02*
D03*
X350520D02*
D03*
Y152400D02*
D03*
X341553Y295341D02*
D03*
X345553D02*
D03*
X349553D02*
D03*
Y299341D02*
D03*
Y303341D02*
D03*
X345553D02*
D03*
X341553D02*
D03*
X213283Y295853D02*
D03*
X217283D02*
D03*
X221283D02*
D03*
Y299853D02*
D03*
X213283Y303853D02*
D03*
X217283D02*
D03*
X221283D02*
D03*
X610869Y513079D02*
D03*
X471987Y508840D02*
D03*
Y515213D02*
D03*
X463986Y521587D02*
D03*
Y515213D02*
D03*
Y508840D02*
D03*
X471987Y521587D02*
D03*
X221283Y307853D02*
D03*
X350520Y156400D02*
D03*
D163*
X189467Y517355D02*
D03*
Y526855D02*
D03*
X179967D02*
D03*
Y517355D02*
D03*
X176200Y442290D02*
D03*
Y451790D02*
D03*
X166700D02*
D03*
Y442290D02*
D03*
D166*
X75958Y533795D02*
X106285D01*
X74514Y535238D02*
X75958Y533795D01*
X106285D02*
X111760Y528320D01*
X114300Y516248D02*
X131452D01*
X111760Y518788D02*
X114300Y516248D01*
X111760Y518788D02*
Y528320D01*
X109589Y508983D02*
X113195Y512590D01*
X74514Y521116D02*
X86646Y508983D01*
X109589D01*
X178824Y491324D02*
Y503181D01*
X170195Y511810D02*
X178824Y503181D01*
X135890Y511810D02*
X170195D01*
X128224Y527050D02*
X163160D01*
X179582Y510629D02*
X186601D01*
X163160Y527050D02*
X179582Y510629D01*
X194399Y496659D02*
X204338Y486719D01*
X194399Y496659D02*
Y502831D01*
X186601Y510629D02*
X194399Y502831D01*
X204338Y436909D02*
Y486719D01*
X131452Y516248D02*
X135890Y511810D01*
X170425Y507755D02*
X175260Y502920D01*
X113195Y512590D02*
X128270D01*
X133105Y507755D02*
X170425D01*
X128270Y512590D02*
X133105Y507755D01*
X200469Y433040D02*
X204338Y436909D01*
X178824Y491324D02*
X196438Y473710D01*
X74514Y521116D02*
Y529236D01*
X175260Y488678D02*
Y502920D01*
Y488678D02*
X190228Y473710D01*
X117006Y538268D02*
X128224Y527050D01*
X225148Y327639D02*
X237490Y315298D01*
Y176333D02*
Y315298D01*
X231140Y327639D02*
X240305Y318475D01*
Y169892D02*
Y318475D01*
X243444Y177604D02*
Y323194D01*
X354962Y79378D02*
X369853Y64487D01*
X354962Y79378D02*
Y134791D01*
X357886Y137715D01*
X357731Y82552D02*
X365472Y74811D01*
X357731Y132734D02*
X360680Y135682D01*
X357731Y82552D02*
Y132734D01*
X360478Y85292D02*
X368148Y77622D01*
X360478Y130732D02*
X364744Y134998D01*
X360478Y85292D02*
Y130732D01*
X228198Y167041D02*
X237490Y176333D01*
X228198Y157786D02*
X240305Y169892D01*
X243444Y177604D02*
X246619Y174429D01*
X243444Y323194D02*
X247889Y327639D01*
X364744Y134998D02*
Y156423D01*
X360680Y135682D02*
Y153659D01*
X357886Y137715D02*
Y151950D01*
X357224Y167676D02*
X358845Y169298D01*
X357224Y157115D02*
X360680Y153659D01*
X357224Y157115D02*
Y167676D01*
X353872Y155964D02*
Y171246D01*
Y155964D02*
X357886Y151950D01*
X353872Y171246D02*
X359002Y176376D01*
X361496Y159671D02*
X364744Y156423D01*
X151130Y435958D02*
X152677D01*
X156699Y439980D02*
Y488125D01*
X152677Y435958D02*
X156699Y439980D01*
Y488125D02*
X165129Y496555D01*
X160885Y436213D02*
Y484940D01*
X153903Y429230D02*
X160885Y436213D01*
X152400Y429230D02*
X153903D01*
X170613Y494668D02*
Y501803D01*
X160885Y484940D02*
X170613Y494668D01*
X165129Y496555D02*
Y501803D01*
X359002Y176376D02*
X369325D01*
X444348Y77622D02*
X458470Y63500D01*
X368148Y77622D02*
X444348D01*
X369853Y64487D02*
X406683D01*
X407670Y63500D01*
X365472Y74811D02*
X421759D01*
X433070Y63500D01*
D168*
X297666Y309264D02*
X316894D01*
X289248Y289681D02*
X318775D01*
X161280Y352096D02*
X240994D01*
X259982Y318947D02*
X289248Y289681D01*
X259982Y318947D02*
Y333108D01*
X279346Y327583D02*
Y342954D01*
Y327583D02*
X297666Y309264D01*
X139700Y347980D02*
Y366567D01*
X148313Y375180D02*
X247120D01*
X139700Y366567D02*
X148313Y375180D01*
X247120D02*
X279346Y342954D01*
X240994Y352096D02*
X259982Y333108D01*
D169*
X320294Y289765D02*
D03*
X320294Y309245D02*
D03*
M02*
