G04*
G04 #@! TF.GenerationSoftware,Altium Limited,Altium Designer,23.1.1 (15)*
G04*
G04 Layer_Color=8421504*
%FSLAX44Y44*%
%MOMM*%
G71*
G04*
G04 #@! TF.SameCoordinates,D1EA7B9B-11C4-41B5-954D-5070AA3C9977*
G04*
G04*
G04 #@! TF.FilePolarity,Positive*
G04*
G01*
G75*
%ADD23R,0.6500X0.3000*%
%ADD24R,0.8000X0.3000*%
%ADD25R,0.9500X0.5000*%
%ADD26R,1.4000X2.8000*%
%ADD27R,0.8000X0.8000*%
%ADD28R,3.4000X0.9800*%
%ADD29R,0.8000X0.8000*%
%ADD30R,2.8000X1.4000*%
%ADD31R,1.0400X0.5320*%
%ADD32R,0.6600X0.6200*%
%ADD33R,1.2960X1.7575*%
%ADD34R,2.7430X2.1590*%
%ADD35R,0.6200X0.6600*%
G04:AMPARAMS|DCode=36|XSize=0.24mm|YSize=0.6mm|CornerRadius=0.0504mm|HoleSize=0mm|Usage=FLASHONLY|Rotation=270.000|XOffset=0mm|YOffset=0mm|HoleType=Round|Shape=RoundedRectangle|*
%AMROUNDEDRECTD36*
21,1,0.2400,0.4992,0,0,270.0*
21,1,0.1392,0.6000,0,0,270.0*
1,1,0.1008,-0.2496,-0.0696*
1,1,0.1008,-0.2496,0.0696*
1,1,0.1008,0.2496,0.0696*
1,1,0.1008,0.2496,-0.0696*
%
%ADD36ROUNDEDRECTD36*%
G04:AMPARAMS|DCode=37|XSize=0.24mm|YSize=0.6mm|CornerRadius=0.0504mm|HoleSize=0mm|Usage=FLASHONLY|Rotation=180.000|XOffset=0mm|YOffset=0mm|HoleType=Round|Shape=RoundedRectangle|*
%AMROUNDEDRECTD37*
21,1,0.2400,0.4992,0,0,180.0*
21,1,0.1392,0.6000,0,0,180.0*
1,1,0.1008,-0.0696,0.2496*
1,1,0.1008,0.0696,0.2496*
1,1,0.1008,0.0696,-0.2496*
1,1,0.1008,-0.0696,-0.2496*
%
%ADD37ROUNDEDRECTD37*%
%ADD38R,0.7154X0.6725*%
%ADD39R,1.0121X1.1581*%
%ADD40R,0.5725X0.6153*%
%ADD41R,1.1581X1.0121*%
%ADD42R,3.5000X1.2000*%
%ADD43R,0.9000X0.8000*%
%ADD44R,0.5050X0.2800*%
%ADD45R,0.9000X1.7000*%
%ADD46R,0.6153X0.5725*%
G04:AMPARAMS|DCode=47|XSize=0.67mm|YSize=0.3mm|CornerRadius=0.0495mm|HoleSize=0mm|Usage=FLASHONLY|Rotation=270.000|XOffset=0mm|YOffset=0mm|HoleType=Round|Shape=RoundedRectangle|*
%AMROUNDEDRECTD47*
21,1,0.6700,0.2010,0,0,270.0*
21,1,0.5710,0.3000,0,0,270.0*
1,1,0.0990,-0.1005,-0.2855*
1,1,0.0990,-0.1005,0.2855*
1,1,0.0990,0.1005,0.2855*
1,1,0.0990,0.1005,-0.2855*
%
%ADD47ROUNDEDRECTD47*%
%ADD48R,1.4500X1.5500*%
%ADD49R,1.7000X1.0000*%
%ADD50R,1.8052X0.6121*%
G04:AMPARAMS|DCode=51|XSize=1.8052mm|YSize=0.6121mm|CornerRadius=0.3061mm|HoleSize=0mm|Usage=FLASHONLY|Rotation=180.000|XOffset=0mm|YOffset=0mm|HoleType=Round|Shape=RoundedRectangle|*
%AMROUNDEDRECTD51*
21,1,1.8052,0.0000,0,0,180.0*
21,1,1.1931,0.6121,0,0,180.0*
1,1,0.6121,-0.5966,0.0000*
1,1,0.6121,0.5966,0.0000*
1,1,0.6121,0.5966,0.0000*
1,1,0.6121,-0.5966,0.0000*
%
%ADD51ROUNDEDRECTD51*%
%ADD52R,0.9800X3.4000*%
%ADD53R,0.9970X1.5450*%
G04:AMPARAMS|DCode=54|XSize=0.65mm|YSize=1.2mm|CornerRadius=0.0488mm|HoleSize=0mm|Usage=FLASHONLY|Rotation=180.000|XOffset=0mm|YOffset=0mm|HoleType=Round|Shape=RoundedRectangle|*
%AMROUNDEDRECTD54*
21,1,0.6500,1.1025,0,0,180.0*
21,1,0.5525,1.2000,0,0,180.0*
1,1,0.0975,-0.2763,0.5513*
1,1,0.0975,0.2763,0.5513*
1,1,0.0975,0.2763,-0.5513*
1,1,0.0975,-0.2763,-0.5513*
%
%ADD54ROUNDEDRECTD54*%
%ADD55C,0.1955*%
%ADD56R,0.8000X0.9000*%
G04:AMPARAMS|DCode=57|XSize=0.6182mm|YSize=0.1566mm|CornerRadius=0.0783mm|HoleSize=0mm|Usage=FLASHONLY|Rotation=270.000|XOffset=0mm|YOffset=0mm|HoleType=Round|Shape=RoundedRectangle|*
%AMROUNDEDRECTD57*
21,1,0.6182,0.0000,0,0,270.0*
21,1,0.4616,0.1566,0,0,270.0*
1,1,0.1566,0.0000,-0.2308*
1,1,0.1566,0.0000,0.2308*
1,1,0.1566,0.0000,0.2308*
1,1,0.1566,0.0000,-0.2308*
%
%ADD57ROUNDEDRECTD57*%
%ADD58R,0.1566X0.6182*%
%ADD59R,1.2000X1.2000*%
%ADD60R,0.8000X0.4000*%
%ADD61R,0.4000X0.8000*%
%ADD62R,0.8000X0.8000*%
%ADD63R,1.1000X1.2000*%
%ADD64R,0.9582X1.1061*%
G04:AMPARAMS|DCode=65|XSize=1.21mm|YSize=0.59mm|CornerRadius=0.0738mm|HoleSize=0mm|Usage=FLASHONLY|Rotation=90.000|XOffset=0mm|YOffset=0mm|HoleType=Round|Shape=RoundedRectangle|*
%AMROUNDEDRECTD65*
21,1,1.2100,0.4425,0,0,90.0*
21,1,1.0625,0.5900,0,0,90.0*
1,1,0.1475,0.2213,0.5313*
1,1,0.1475,0.2213,-0.5313*
1,1,0.1475,-0.2213,-0.5313*
1,1,0.1475,-0.2213,0.5313*
%
%ADD65ROUNDEDRECTD65*%
G36*
X316543Y630033D02*
X317949Y628627D01*
X318710Y626789D01*
Y625794D01*
Y617794D01*
Y616800D01*
X317949Y614962D01*
X316543Y613555D01*
X314705Y612794D01*
X312716D01*
X310878Y613555D01*
X309471Y614962D01*
X308710Y616800D01*
Y617794D01*
Y625794D01*
Y626789D01*
X309471Y628627D01*
X310878Y630033D01*
X312716Y630794D01*
X314705D01*
X316543Y630033D01*
D02*
G37*
G36*
X230142D02*
X231549Y628627D01*
X232310Y626789D01*
Y625794D01*
Y617794D01*
Y616800D01*
X231549Y614962D01*
X230142Y613555D01*
X228304Y612794D01*
X226315D01*
X224477Y613555D01*
X223071Y614962D01*
X222310Y616800D01*
Y617794D01*
Y625794D01*
Y626789D01*
X223071Y628627D01*
X224477Y630033D01*
X226315Y630794D01*
X228304D01*
X230142Y630033D01*
D02*
G37*
G36*
X316543Y590035D02*
X317949Y588628D01*
X318710Y586790D01*
Y585796D01*
Y574796D01*
Y573801D01*
X317949Y571963D01*
X316543Y570557D01*
X314705Y569796D01*
X312716D01*
X310878Y570557D01*
X309471Y571963D01*
X308710Y573801D01*
Y574796D01*
Y585796D01*
Y586790D01*
X309471Y588628D01*
X310878Y590035D01*
X312716Y590796D01*
X314705D01*
X316543Y590035D01*
D02*
G37*
G36*
X230142D02*
X231549Y588628D01*
X232310Y586790D01*
Y585796D01*
Y574796D01*
Y573801D01*
X231549Y571963D01*
X230142Y570557D01*
X228304Y569796D01*
X226315D01*
X224477Y570557D01*
X223071Y571963D01*
X222310Y573801D01*
Y574796D01*
Y585796D01*
Y586790D01*
X223071Y588628D01*
X224477Y590035D01*
X226315Y590796D01*
X228304D01*
X230142Y590035D01*
D02*
G37*
G36*
X305510Y568795D02*
X299510D01*
Y580295D01*
X305510D01*
Y568795D01*
D02*
G37*
G36*
X297511D02*
X291511D01*
Y580295D01*
X297511D01*
Y568795D01*
D02*
G37*
G36*
X289511D02*
X286511D01*
Y580295D01*
X289511D01*
Y568795D01*
D02*
G37*
G36*
X284511D02*
X281511D01*
Y580295D01*
X284511D01*
Y568795D01*
D02*
G37*
G36*
X279511D02*
X276511D01*
Y580295D01*
X279511D01*
Y568795D01*
D02*
G37*
G36*
X274511D02*
X271511D01*
Y580295D01*
X274511D01*
Y568795D01*
D02*
G37*
G36*
X269511D02*
X266511D01*
Y580295D01*
X269511D01*
Y568795D01*
D02*
G37*
G36*
X264511D02*
X261511D01*
Y580295D01*
X264511D01*
Y568795D01*
D02*
G37*
G36*
X259511D02*
X256511D01*
Y580295D01*
X259511D01*
Y568795D01*
D02*
G37*
G36*
X254511D02*
X251511D01*
Y580295D01*
X254511D01*
Y568795D01*
D02*
G37*
G36*
X249511D02*
X243511D01*
Y580295D01*
X249511D01*
Y568795D01*
D02*
G37*
G36*
X241511D02*
X235511D01*
Y580295D01*
X241511D01*
Y568795D01*
D02*
G37*
G36*
X202789Y562399D02*
Y557393D01*
X202389Y556993D01*
X197789D01*
X197389Y557393D01*
Y562399D01*
X197789Y562799D01*
X202389D01*
X202789Y562399D01*
D02*
G37*
G36*
X190023D02*
Y557393D01*
X189623Y556993D01*
X185023D01*
X184623Y557393D01*
Y562399D01*
X185023Y562799D01*
X189623D01*
X190023Y562399D01*
D02*
G37*
G36*
X177257D02*
Y557393D01*
X176857Y556993D01*
X172257D01*
X171857Y557393D01*
Y562399D01*
X172257Y562799D01*
X176857D01*
X177257Y562399D01*
D02*
G37*
G36*
X202789Y553893D02*
Y548886D01*
X202389Y548486D01*
X197789D01*
X197389Y548886D01*
Y553893D01*
X197789Y554293D01*
X202389D01*
X202789Y553893D01*
D02*
G37*
G36*
X190023D02*
Y548886D01*
X189623Y548486D01*
X185023D01*
X184623Y548886D01*
Y553893D01*
X185023Y554293D01*
X189623D01*
X190023Y553893D01*
D02*
G37*
G36*
X177257D02*
Y548886D01*
X176857Y548486D01*
X172257D01*
X171857Y548886D01*
Y553893D01*
X172257Y554293D01*
X176857D01*
X177257Y553893D01*
D02*
G37*
G36*
X603460Y552130D02*
Y547330D01*
X602960Y546630D01*
X598460D01*
X597960Y547330D01*
Y552130D01*
X598460Y552630D01*
X602960D01*
X603460Y552130D01*
D02*
G37*
G36*
X159606Y544923D02*
Y540323D01*
X159206Y539923D01*
X154199D01*
X153799Y540323D01*
Y544923D01*
X154199Y545323D01*
X159206D01*
X159606Y544923D01*
D02*
G37*
G36*
X151099D02*
Y540323D01*
X150699Y539923D01*
X145693D01*
X145293Y540323D01*
Y544923D01*
X145693Y545323D01*
X150699D01*
X151099Y544923D01*
D02*
G37*
G36*
X603460Y542330D02*
Y537530D01*
X602960Y537030D01*
X598460D01*
X597960Y537530D01*
Y542330D01*
X598460Y543030D01*
X602960D01*
X603460Y542330D01*
D02*
G37*
G36*
X159606Y532157D02*
Y527557D01*
X159206Y527157D01*
X154199D01*
X153799Y527557D01*
Y532157D01*
X154199Y532557D01*
X159206D01*
X159606Y532157D01*
D02*
G37*
G36*
X151099D02*
Y527557D01*
X150699Y527157D01*
X145693D01*
X145293Y527557D01*
Y532157D01*
X145693Y532557D01*
X150699D01*
X151099Y532157D01*
D02*
G37*
G36*
X476769Y526370D02*
X473969D01*
Y534370D01*
X476769D01*
Y526370D01*
D02*
G37*
G36*
X471769D02*
X468969D01*
Y534370D01*
X471769D01*
Y526370D01*
D02*
G37*
G36*
X466768D02*
X463968D01*
Y534370D01*
X466768D01*
Y526370D01*
D02*
G37*
G36*
X461768D02*
X458968D01*
Y534370D01*
X461768D01*
Y526370D01*
D02*
G37*
G36*
X234900Y528208D02*
Y523202D01*
X234500Y522802D01*
X229900D01*
X229500Y523202D01*
Y528208D01*
X229900Y528608D01*
X234500D01*
X234900Y528208D01*
D02*
G37*
G36*
X283160Y527456D02*
Y522450D01*
X282760Y522050D01*
X278160D01*
X277760Y522450D01*
Y527456D01*
X278160Y527856D01*
X282760D01*
X283160Y527456D01*
D02*
G37*
G36*
X137887Y527001D02*
Y521995D01*
X137487Y521595D01*
X132887D01*
X132487Y521995D01*
Y527001D01*
X132887Y527401D01*
X137487D01*
X137887Y527001D01*
D02*
G37*
G36*
X486869Y521470D02*
X478868D01*
Y524271D01*
X486869D01*
Y521470D01*
D02*
G37*
G36*
X456869D02*
X448869D01*
Y524271D01*
X456869D01*
Y521470D01*
D02*
G37*
G36*
X646485Y521730D02*
Y517130D01*
X646085Y516730D01*
X641078D01*
X640678Y517130D01*
Y521730D01*
X641078Y522130D01*
X646085D01*
X646485Y521730D01*
D02*
G37*
G36*
X637978D02*
Y517130D01*
X637578Y516730D01*
X632572D01*
X632172Y517130D01*
Y521730D01*
X632572Y522130D01*
X637578D01*
X637978Y521730D01*
D02*
G37*
G36*
X617368Y519127D02*
Y517027D01*
X616918Y516577D01*
X614818D01*
X614368Y517027D01*
Y519127D01*
X614818Y519577D01*
X616918D01*
X617368Y519127D01*
D02*
G37*
G36*
X612368D02*
Y517027D01*
X611918Y516577D01*
X609818D01*
X609368Y517027D01*
Y519127D01*
X609818Y519577D01*
X611918D01*
X612368Y519127D01*
D02*
G37*
G36*
X607368D02*
Y517027D01*
X606918Y516577D01*
X604818D01*
X604368Y517027D01*
Y519127D01*
X604818Y519577D01*
X606918D01*
X607368Y519127D01*
D02*
G37*
G36*
X486869Y516470D02*
X478868D01*
Y519271D01*
X486869D01*
Y516470D01*
D02*
G37*
G36*
X456869D02*
X448869D01*
Y519271D01*
X456869D01*
Y516470D01*
D02*
G37*
G36*
X234900Y519702D02*
Y514695D01*
X234500Y514295D01*
X229900D01*
X229500Y514695D01*
Y519702D01*
X229900Y520102D01*
X234500D01*
X234900Y519702D01*
D02*
G37*
G36*
X283160Y518950D02*
Y513944D01*
X282760Y513544D01*
X278160D01*
X277760Y513944D01*
Y518950D01*
X278160Y519350D01*
X282760D01*
X283160Y518950D01*
D02*
G37*
G36*
X137887Y518495D02*
Y513488D01*
X137487Y513088D01*
X132887D01*
X132487Y513488D01*
Y518495D01*
X132887Y518895D01*
X137487D01*
X137887Y518495D01*
D02*
G37*
G36*
X617368Y514127D02*
Y512027D01*
X616918Y511577D01*
X614818D01*
X614368Y512027D01*
Y514127D01*
X614818Y514577D01*
X616918D01*
X617368Y514127D01*
D02*
G37*
G36*
X612368D02*
Y512027D01*
X611918Y511577D01*
X609818D01*
X609368Y512027D01*
Y514127D01*
X609818Y514577D01*
X611918D01*
X612368Y514127D01*
D02*
G37*
G36*
X607368D02*
Y512027D01*
X606918Y511577D01*
X604818D01*
X604368Y512027D01*
Y514127D01*
X604818Y514577D01*
X606918D01*
X607368Y514127D01*
D02*
G37*
G36*
X486869Y511470D02*
X478868D01*
Y514271D01*
X486869D01*
Y511470D01*
D02*
G37*
G36*
X456869D02*
X448869D01*
Y514271D01*
X456869D01*
Y511470D01*
D02*
G37*
G36*
X474670Y508569D02*
X461070D01*
Y519369D01*
X463870Y522170D01*
X474670D01*
Y508569D01*
D02*
G37*
G36*
X617368Y509127D02*
Y507027D01*
X616918Y506577D01*
X614818D01*
X614368Y507027D01*
Y509127D01*
X614818Y509577D01*
X616918D01*
X617368Y509127D01*
D02*
G37*
G36*
X612368D02*
Y507027D01*
X611918Y506577D01*
X609818D01*
X609368Y507027D01*
Y509127D01*
X609818Y509577D01*
X611918D01*
X612368Y509127D01*
D02*
G37*
G36*
X607368D02*
Y507027D01*
X606918Y506577D01*
X604818D01*
X604368Y507027D01*
Y509127D01*
X604818Y509577D01*
X606918D01*
X607368Y509127D01*
D02*
G37*
G36*
X486869Y506470D02*
X478868D01*
Y509270D01*
X486869D01*
Y506470D01*
D02*
G37*
G36*
X456869D02*
X448869D01*
Y509270D01*
X456869D01*
Y506470D01*
D02*
G37*
G36*
X646485Y509030D02*
Y504430D01*
X646085Y504030D01*
X641078D01*
X640678Y504430D01*
Y509030D01*
X641078Y509430D01*
X646085D01*
X646485Y509030D01*
D02*
G37*
G36*
X637978D02*
Y504430D01*
X637578Y504030D01*
X632572D01*
X632172Y504430D01*
Y509030D01*
X632572Y509430D01*
X637578D01*
X637978Y509030D01*
D02*
G37*
G36*
X159606Y506625D02*
Y502025D01*
X159206Y501625D01*
X154199D01*
X153799Y502025D01*
Y506625D01*
X154199Y507025D01*
X159206D01*
X159606Y506625D01*
D02*
G37*
G36*
X151099D02*
Y502025D01*
X150699Y501625D01*
X145693D01*
X145293Y502025D01*
Y506625D01*
X145693Y507025D01*
X150699D01*
X151099Y506625D01*
D02*
G37*
G36*
X476769Y496371D02*
X473969D01*
Y504370D01*
X476769D01*
Y496371D01*
D02*
G37*
G36*
X471769D02*
X468969D01*
Y504370D01*
X471769D01*
Y496371D01*
D02*
G37*
G36*
X466768D02*
X463968D01*
Y504370D01*
X466768D01*
Y496371D01*
D02*
G37*
G36*
X461768D02*
X458968D01*
Y504370D01*
X461768D01*
Y496371D01*
D02*
G37*
G36*
X335335Y498870D02*
Y494270D01*
X334935Y493870D01*
X329928D01*
X329528Y494270D01*
Y498870D01*
X329928Y499270D01*
X334935D01*
X335335Y498870D01*
D02*
G37*
G36*
X326828D02*
Y494270D01*
X326428Y493870D01*
X321422D01*
X321022Y494270D01*
Y498870D01*
X321422Y499270D01*
X326428D01*
X326828Y498870D01*
D02*
G37*
G36*
X193767Y494571D02*
Y489565D01*
X193367Y489165D01*
X188767D01*
X188367Y489565D01*
Y494571D01*
X188767Y494971D01*
X193367D01*
X193767Y494571D01*
D02*
G37*
G36*
X178527D02*
Y489565D01*
X178127Y489165D01*
X173527D01*
X173127Y489565D01*
Y494571D01*
X173527Y494971D01*
X178127D01*
X178527Y494571D01*
D02*
G37*
G36*
X335335Y486170D02*
Y481570D01*
X334935Y481170D01*
X329928D01*
X329528Y481570D01*
Y486170D01*
X329928Y486570D01*
X334935D01*
X335335Y486170D01*
D02*
G37*
G36*
X326828D02*
Y481570D01*
X326428Y481170D01*
X321422D01*
X321022Y481570D01*
Y486170D01*
X321422Y486570D01*
X326428D01*
X326828Y486170D01*
D02*
G37*
G36*
X193767Y486065D02*
Y481058D01*
X193367Y480658D01*
X188767D01*
X188367Y481058D01*
Y486065D01*
X188767Y486465D01*
X193367D01*
X193767Y486065D01*
D02*
G37*
G36*
X178527D02*
Y481058D01*
X178127Y480658D01*
X173527D01*
X173127Y481058D01*
Y486065D01*
X173527Y486465D01*
X178127D01*
X178527Y486065D01*
D02*
G37*
G36*
X449630Y488725D02*
Y480725D01*
X449130Y480225D01*
X446710D01*
Y483925D01*
X443410D01*
Y480225D01*
X441130D01*
X440630Y480725D01*
Y488725D01*
X441130Y489225D01*
X449130D01*
X449630Y488725D01*
D02*
G37*
G36*
X485300Y484050D02*
Y479043D01*
X484900Y478643D01*
X480300D01*
X479900Y479043D01*
Y484050D01*
X480300Y484450D01*
X484900D01*
X485300Y484050D01*
D02*
G37*
G36*
X473550D02*
Y479043D01*
X473150Y478643D01*
X468550D01*
X468150Y479043D01*
Y484050D01*
X468550Y484450D01*
X473150D01*
X473550Y484050D01*
D02*
G37*
G36*
X461800D02*
Y479043D01*
X461400Y478643D01*
X456800D01*
X456400Y479043D01*
Y484050D01*
X456800Y484450D01*
X461400D01*
X461800Y484050D01*
D02*
G37*
G36*
X431452D02*
Y479043D01*
X431052Y478643D01*
X426452D01*
X426052Y479043D01*
Y484050D01*
X426452Y484450D01*
X431052D01*
X431452Y484050D01*
D02*
G37*
G36*
X485300Y475543D02*
Y470537D01*
X484900Y470137D01*
X480300D01*
X479900Y470537D01*
Y475543D01*
X480300Y475943D01*
X484900D01*
X485300Y475543D01*
D02*
G37*
G36*
X473550D02*
Y470537D01*
X473150Y470137D01*
X468550D01*
X468150Y470537D01*
Y475543D01*
X468550Y475943D01*
X473150D01*
X473550Y475543D01*
D02*
G37*
G36*
X461800D02*
Y470537D01*
X461400Y470137D01*
X456800D01*
X456400Y470537D01*
Y475543D01*
X456800Y475943D01*
X461400D01*
X461800Y475543D01*
D02*
G37*
G36*
X431452D02*
Y470537D01*
X431052Y470137D01*
X426452D01*
X426052Y470537D01*
Y475543D01*
X426452Y475943D01*
X431052D01*
X431452Y475543D01*
D02*
G37*
G36*
X449630Y472725D02*
Y464826D01*
X449130Y464325D01*
X441130D01*
X440630Y464826D01*
Y472725D01*
X441130Y473225D01*
X443410D01*
Y469425D01*
X446710D01*
Y473225D01*
X449130D01*
X449630Y472725D01*
D02*
G37*
G36*
X361487Y472200D02*
Y467600D01*
X361086Y467200D01*
X356080D01*
X355680Y467600D01*
Y472200D01*
X356080Y472600D01*
X361086D01*
X361487Y472200D01*
D02*
G37*
G36*
X352980D02*
Y467600D01*
X352580Y467200D01*
X347574D01*
X347174Y467600D01*
Y472200D01*
X347574Y472600D01*
X352580D01*
X352980Y472200D01*
D02*
G37*
G36*
X215183Y457323D02*
Y452723D01*
X214783Y452323D01*
X209776D01*
X209376Y452723D01*
Y457323D01*
X209776Y457723D01*
X214783D01*
X215183Y457323D01*
D02*
G37*
G36*
X206676D02*
Y452723D01*
X206276Y452323D01*
X201270D01*
X200870Y452723D01*
Y457323D01*
X201270Y457723D01*
X206276D01*
X206676Y457323D01*
D02*
G37*
G36*
X146338Y456960D02*
Y452360D01*
X145938Y451960D01*
X140932D01*
X140532Y452360D01*
Y456960D01*
X140932Y457360D01*
X145938D01*
X146338Y456960D01*
D02*
G37*
G36*
X137832D02*
Y452360D01*
X137432Y451960D01*
X132425D01*
X132025Y452360D01*
Y456960D01*
X132425Y457360D01*
X137432D01*
X137832Y456960D01*
D02*
G37*
G36*
X146338Y444260D02*
Y439660D01*
X145938Y439260D01*
X140932D01*
X140532Y439660D01*
Y444260D01*
X140932Y444660D01*
X145938D01*
X146338Y444260D01*
D02*
G37*
G36*
X137832D02*
Y439660D01*
X137432Y439260D01*
X132425D01*
X132025Y439660D01*
Y444260D01*
X132425Y444660D01*
X137432D01*
X137832Y444260D01*
D02*
G37*
G36*
X444710Y395709D02*
Y390909D01*
X444210Y390209D01*
X439710D01*
X439210Y390909D01*
Y395709D01*
X439710Y396209D01*
X444210D01*
X444710Y395709D01*
D02*
G37*
G36*
X431850Y401970D02*
X432350Y401470D01*
X432350Y389970D01*
X431850Y389470D01*
X427650Y389470D01*
X427650Y393920D01*
X423150D01*
Y389520D01*
X419050Y389470D01*
X418550Y389970D01*
Y401470D01*
X419050Y401970D01*
X431850Y401970D01*
D02*
G37*
G36*
X444710Y385909D02*
Y381109D01*
X444210Y380609D01*
X439710D01*
X439210Y381109D01*
X439210Y385909D01*
X439710Y386609D01*
X444210D01*
X444710Y385909D01*
D02*
G37*
G36*
X423150Y376020D02*
X427650Y376020D01*
Y380420D01*
X431850Y380470D01*
X432350Y379970D01*
X432350Y368470D01*
X431850Y367970D01*
X419050D01*
X418550Y368470D01*
X418550Y379970D01*
X419050Y380470D01*
X423151Y380520D01*
X423150Y376020D01*
D02*
G37*
G36*
X544411Y372604D02*
Y368004D01*
X544011Y367604D01*
X539005D01*
X538605Y368004D01*
Y372604D01*
X539005Y373004D01*
X544011D01*
X544411Y372604D01*
D02*
G37*
G36*
X535904D02*
Y368004D01*
X535504Y367604D01*
X530498D01*
X530098Y368004D01*
Y372604D01*
X530498Y373004D01*
X535504D01*
X535904Y372604D01*
D02*
G37*
G36*
X662590Y373380D02*
Y367380D01*
X650590D01*
Y379380D01*
X656590D01*
X662590Y373380D01*
D02*
G37*
G36*
X544411Y359838D02*
Y355238D01*
X544011Y354838D01*
X539005D01*
X538605Y355238D01*
Y359838D01*
X539005Y360238D01*
X544011D01*
X544411Y359838D01*
D02*
G37*
G36*
X535904D02*
Y355238D01*
X535504Y354838D01*
X530498D01*
X530098Y355238D01*
Y359838D01*
X530498Y360238D01*
X535504D01*
X535904Y359838D01*
D02*
G37*
G36*
X640240Y269988D02*
Y264981D01*
X639840Y264581D01*
X635240D01*
X634840Y264981D01*
Y269988D01*
X635240Y270388D01*
X639840D01*
X640240Y269988D01*
D02*
G37*
G36*
X627109D02*
Y264981D01*
X626709Y264581D01*
X622109D01*
X621709Y264981D01*
Y269988D01*
X622109Y270388D01*
X626709D01*
X627109Y269988D01*
D02*
G37*
G36*
X613978D02*
Y264981D01*
X613578Y264581D01*
X608978D01*
X608578Y264981D01*
Y269988D01*
X608978Y270388D01*
X613578D01*
X613978Y269988D01*
D02*
G37*
G36*
X600847D02*
Y264981D01*
X600447Y264581D01*
X595847D01*
X595447Y264981D01*
Y269988D01*
X595847Y270388D01*
X600447D01*
X600847Y269988D01*
D02*
G37*
G36*
X640240Y261481D02*
Y256475D01*
X639840Y256075D01*
X635240D01*
X634840Y256475D01*
Y261481D01*
X635240Y261881D01*
X639840D01*
X640240Y261481D01*
D02*
G37*
G36*
X627109D02*
Y256475D01*
X626709Y256075D01*
X622109D01*
X621709Y256475D01*
Y261481D01*
X622109Y261881D01*
X626709D01*
X627109Y261481D01*
D02*
G37*
G36*
X613978D02*
Y256475D01*
X613578Y256075D01*
X608978D01*
X608578Y256475D01*
Y261481D01*
X608978Y261881D01*
X613578D01*
X613978Y261481D01*
D02*
G37*
G36*
X600847D02*
Y256475D01*
X600447Y256075D01*
X595847D01*
X595447Y256475D01*
Y261481D01*
X595847Y261881D01*
X600447D01*
X600847Y261481D01*
D02*
G37*
G36*
X698660Y240436D02*
Y235430D01*
X698260Y235030D01*
X693660D01*
X693260Y235430D01*
Y240436D01*
X693660Y240836D01*
X698260D01*
X698660Y240436D01*
D02*
G37*
G36*
X748837Y235980D02*
Y231380D01*
X748436Y230980D01*
X743430D01*
X743030Y231380D01*
Y235980D01*
X743430Y236380D01*
X748436D01*
X748837Y235980D01*
D02*
G37*
G36*
X740330D02*
Y231380D01*
X739930Y230980D01*
X734924D01*
X734523Y231380D01*
Y235980D01*
X734924Y236380D01*
X739930D01*
X740330Y235980D01*
D02*
G37*
G36*
X698660Y231930D02*
Y226924D01*
X698260Y226524D01*
X693660D01*
X693260Y226924D01*
Y231930D01*
X693660Y232330D01*
X698260D01*
X698660Y231930D01*
D02*
G37*
G36*
X466388Y208294D02*
Y203694D01*
X465988Y203294D01*
X460982Y203294D01*
X460582Y203694D01*
Y208294D01*
X460982Y208694D01*
X465988Y208694D01*
X466388Y208294D01*
D02*
G37*
G36*
X457882D02*
Y203694D01*
X457482Y203294D01*
X452476D01*
X452076Y203694D01*
Y208294D01*
X452476Y208694D01*
X457482D01*
X457882Y208294D01*
D02*
G37*
G36*
X445606Y204660D02*
X445606Y196660D01*
X445106Y196160D01*
X437206D01*
X436706Y196660D01*
X436706Y198940D01*
X440506D01*
X440506Y202240D01*
X436706D01*
Y204660D01*
X437206Y205160D01*
X445106D01*
X445606Y204660D01*
D02*
G37*
G36*
X429706D02*
Y202240D01*
X426006D01*
X426006Y198940D01*
X429706Y198940D01*
X429706Y196660D01*
X429206Y196160D01*
X421206D01*
X420706Y196660D01*
Y204660D01*
X421206Y205160D01*
X429206Y205160D01*
X429706Y204660D01*
D02*
G37*
G36*
X475313Y187879D02*
X475454Y187738D01*
X475530Y187554D01*
Y187455D01*
Y185955D01*
Y185856D01*
X475454Y185672D01*
X475313Y185531D01*
X475129Y185455D01*
X473430D01*
X473247Y185531D01*
X473106Y185672D01*
X473030Y185856D01*
Y185955D01*
Y187455D01*
Y187554D01*
X473106Y187738D01*
X473247Y187879D01*
X473430Y187955D01*
X475129D01*
X475313Y187879D01*
D02*
G37*
G36*
X471313D02*
X471454Y187738D01*
X471530Y187554D01*
Y187455D01*
Y185955D01*
Y185856D01*
X471454Y185672D01*
X471313Y185531D01*
X471129Y185455D01*
X469431D01*
X469247Y185531D01*
X469106Y185672D01*
X469030Y185856D01*
Y185955D01*
Y187455D01*
Y187554D01*
X469106Y187738D01*
X469247Y187879D01*
X469431Y187955D01*
X471129D01*
X471313Y187879D01*
D02*
G37*
G36*
X467313D02*
X467454Y187738D01*
X467530Y187554D01*
Y187455D01*
Y185955D01*
Y185856D01*
X467454Y185672D01*
X467313Y185531D01*
X467129Y185455D01*
X465430D01*
X465247Y185531D01*
X465106Y185672D01*
X465030Y185856D01*
Y185955D01*
Y187455D01*
Y187554D01*
X465106Y187738D01*
X465247Y187879D01*
X465430Y187955D01*
X467129D01*
X467313Y187879D01*
D02*
G37*
G36*
X463313D02*
X463454Y187738D01*
X463530Y187554D01*
Y187455D01*
Y185955D01*
Y185856D01*
X463454Y185672D01*
X463313Y185531D01*
X463129Y185455D01*
X461431D01*
X461247Y185531D01*
X461106Y185672D01*
X461030Y185856D01*
Y185955D01*
Y187455D01*
Y187554D01*
X461106Y187738D01*
X461247Y187879D01*
X461431Y187955D01*
X463129D01*
X463313Y187879D01*
D02*
G37*
G36*
X459313D02*
X459454Y187738D01*
X459530Y187554D01*
Y187455D01*
Y185955D01*
Y185856D01*
X459454Y185672D01*
X459313Y185531D01*
X459129Y185455D01*
X457430D01*
X457247Y185531D01*
X457106Y185672D01*
X457030Y185856D01*
Y185955D01*
Y187455D01*
Y187554D01*
X457106Y187738D01*
X457247Y187879D01*
X457430Y187955D01*
X459129D01*
X459313Y187879D01*
D02*
G37*
G36*
X439708Y188990D02*
Y184390D01*
X439308Y183990D01*
X434302D01*
X433902Y184390D01*
Y188990D01*
X434302Y189390D01*
X439308D01*
X439708Y188990D01*
D02*
G37*
G36*
X431202D02*
Y184390D01*
X430802Y183990D01*
X425795D01*
X425395Y184390D01*
Y188990D01*
X425795Y189390D01*
X430802D01*
X431202Y188990D01*
D02*
G37*
G36*
X475313Y183879D02*
X475454Y183738D01*
X475530Y183554D01*
Y183455D01*
Y181955D01*
Y181856D01*
X475454Y181672D01*
X475313Y181531D01*
X475129Y181455D01*
X473430D01*
X473247Y181531D01*
X473106Y181672D01*
X473030Y181856D01*
Y181955D01*
Y183455D01*
Y183554D01*
X473106Y183738D01*
X473247Y183879D01*
X473430Y183955D01*
X475129D01*
X475313Y183879D01*
D02*
G37*
G36*
X471313D02*
X471454Y183738D01*
X471530Y183554D01*
Y183455D01*
Y181955D01*
Y181856D01*
X471454Y181672D01*
X471313Y181531D01*
X471129Y181455D01*
X469431D01*
X469247Y181531D01*
X469106Y181672D01*
X469030Y181856D01*
Y181955D01*
Y183455D01*
Y183554D01*
X469106Y183738D01*
X469247Y183879D01*
X469431Y183955D01*
X471129D01*
X471313Y183879D01*
D02*
G37*
G36*
X467313D02*
X467454Y183738D01*
X467530Y183554D01*
Y183455D01*
Y181955D01*
Y181856D01*
X467454Y181672D01*
X467313Y181531D01*
X467129Y181455D01*
X465430D01*
X465247Y181531D01*
X465106Y181672D01*
X465030Y181856D01*
Y181955D01*
Y183455D01*
Y183554D01*
X465106Y183738D01*
X465247Y183879D01*
X465430Y183955D01*
X467129D01*
X467313Y183879D01*
D02*
G37*
G36*
X463313D02*
X463454Y183738D01*
X463530Y183554D01*
Y183455D01*
Y181955D01*
Y181856D01*
X463454Y181672D01*
X463313Y181531D01*
X463129Y181455D01*
X461431D01*
X461247Y181531D01*
X461106Y181672D01*
X461030Y181856D01*
Y181955D01*
Y183455D01*
Y183554D01*
X461106Y183738D01*
X461247Y183879D01*
X461431Y183955D01*
X463129D01*
X463313Y183879D01*
D02*
G37*
G36*
X459313D02*
X459454Y183738D01*
X459530Y183554D01*
Y183455D01*
Y181955D01*
Y181856D01*
X459454Y181672D01*
X459313Y181531D01*
X459129Y181455D01*
X457430D01*
X457247Y181531D01*
X457106Y181672D01*
X457030Y181856D01*
Y181955D01*
Y183455D01*
Y183554D01*
X457106Y183738D01*
X457247Y183879D01*
X457430Y183955D01*
X459129D01*
X459313Y183879D01*
D02*
G37*
G36*
X475313Y179879D02*
X475454Y179738D01*
X475530Y179554D01*
Y179455D01*
Y177955D01*
Y177855D01*
X475454Y177672D01*
X475313Y177531D01*
X475129Y177455D01*
X473430D01*
X473247Y177531D01*
X473106Y177672D01*
X473030Y177855D01*
Y177955D01*
Y179455D01*
Y179554D01*
X473106Y179738D01*
X473247Y179879D01*
X473430Y179955D01*
X475129D01*
X475313Y179879D01*
D02*
G37*
G36*
X471313D02*
X471454Y179738D01*
X471530Y179554D01*
Y179455D01*
Y177955D01*
Y177855D01*
X471454Y177672D01*
X471313Y177531D01*
X471129Y177455D01*
X469431D01*
X469247Y177531D01*
X469106Y177672D01*
X469030Y177855D01*
Y177955D01*
Y179455D01*
Y179554D01*
X469106Y179738D01*
X469247Y179879D01*
X469431Y179955D01*
X471129D01*
X471313Y179879D01*
D02*
G37*
G36*
X467313D02*
X467454Y179738D01*
X467530Y179554D01*
Y179455D01*
Y177955D01*
Y177855D01*
X467454Y177672D01*
X467313Y177531D01*
X467129Y177455D01*
X465430D01*
X465247Y177531D01*
X465106Y177672D01*
X465030Y177855D01*
Y177955D01*
Y179455D01*
Y179554D01*
X465106Y179738D01*
X465247Y179879D01*
X465430Y179955D01*
X467129D01*
X467313Y179879D01*
D02*
G37*
G36*
X463313D02*
X463454Y179738D01*
X463530Y179554D01*
Y179455D01*
Y177955D01*
Y177855D01*
X463454Y177672D01*
X463313Y177531D01*
X463129Y177455D01*
X461431D01*
X461247Y177531D01*
X461106Y177672D01*
X461030Y177855D01*
Y177955D01*
Y179455D01*
Y179554D01*
X461106Y179738D01*
X461247Y179879D01*
X461431Y179955D01*
X463129D01*
X463313Y179879D01*
D02*
G37*
G36*
X459313D02*
X459454Y179738D01*
X459530Y179554D01*
Y179455D01*
Y177955D01*
Y177855D01*
X459454Y177672D01*
X459313Y177531D01*
X459129Y177455D01*
X457430D01*
X457247Y177531D01*
X457106Y177672D01*
X457030Y177855D01*
Y177955D01*
Y179455D01*
Y179554D01*
X457106Y179738D01*
X457247Y179879D01*
X457430Y179955D01*
X459129D01*
X459313Y179879D01*
D02*
G37*
G36*
X435824Y175660D02*
Y164160D01*
X435323Y163660D01*
X431124Y163660D01*
Y168110D01*
X426624Y168110D01*
X426624Y163710D01*
X422524Y163660D01*
X422023Y164160D01*
X422024Y175660D01*
X422524Y176160D01*
X435323D01*
X435824Y175660D01*
D02*
G37*
G36*
X415640Y175660D02*
X415640Y164160D01*
X415140Y163660D01*
X410940Y163660D01*
Y168110D01*
X406440D01*
Y163710D01*
X402340Y163660D01*
X401840Y164160D01*
X401840Y175660D01*
X402340Y176160D01*
X415140D01*
X415640Y175660D01*
D02*
G37*
G36*
X426624Y150210D02*
X431124D01*
Y154610D01*
X435323Y154660D01*
X435824Y154160D01*
X435824Y142660D01*
X435323Y142160D01*
X422524D01*
X422024Y142660D01*
X422023Y154160D01*
X422524Y154660D01*
X426624Y154710D01*
Y150210D01*
D02*
G37*
G36*
X406440Y150210D02*
X410940D01*
X410940Y154610D01*
X415140Y154660D01*
X415640Y154160D01*
X415640Y142660D01*
X415140Y142160D01*
X402340D01*
X401840Y142660D01*
X401840Y154160D01*
X402340Y154660D01*
X406440Y154710D01*
X406440Y150210D01*
D02*
G37*
G36*
X289615Y108980D02*
Y104380D01*
X289215Y103980D01*
X284208D01*
X283808Y104380D01*
Y108980D01*
X284208Y109380D01*
X289215D01*
X289615Y108980D01*
D02*
G37*
G36*
X281108D02*
Y104380D01*
X280708Y103980D01*
X275702D01*
X275302Y104380D01*
Y108980D01*
X275702Y109380D01*
X280708D01*
X281108Y108980D01*
D02*
G37*
G36*
X313870Y108930D02*
Y104430D01*
X313370Y103930D01*
X308570D01*
X307870Y104430D01*
Y108930D01*
X308570Y109430D01*
X313370D01*
X313870Y108930D01*
D02*
G37*
G36*
X304270D02*
Y104430D01*
X303570Y103930D01*
X298770D01*
X298270Y104430D01*
Y108930D01*
X298770Y109430D01*
X303570D01*
X304270Y108930D01*
D02*
G37*
G36*
X313227Y96915D02*
Y92315D01*
X312826Y91915D01*
X307820D01*
X307420Y92315D01*
Y96915D01*
X307820Y97315D01*
X312826D01*
X313227Y96915D01*
D02*
G37*
G36*
X304720D02*
Y92315D01*
X304320Y91915D01*
X299314D01*
X298913Y92315D01*
Y96915D01*
X299314Y97315D01*
X304320D01*
X304720Y96915D01*
D02*
G37*
G36*
X382430Y91072D02*
Y86066D01*
X382030Y85666D01*
X377430D01*
X377030Y86066D01*
Y91072D01*
X377430Y91472D01*
X382030D01*
X382430Y91072D01*
D02*
G37*
G36*
X313227Y84850D02*
Y80250D01*
X312826Y79850D01*
X307820D01*
X307420Y80250D01*
Y84850D01*
X307820Y85250D01*
X312826D01*
X313227Y84850D01*
D02*
G37*
G36*
X304720D02*
Y80250D01*
X304320Y79850D01*
X299314D01*
X298913Y80250D01*
Y84850D01*
X299314Y85250D01*
X304320D01*
X304720Y84850D01*
D02*
G37*
G36*
X382430Y82566D02*
Y77559D01*
X382030Y77159D01*
X377430D01*
X377030Y77559D01*
Y82566D01*
X377430Y82966D01*
X382030D01*
X382430Y82566D01*
D02*
G37*
D23*
X109704Y556266D02*
D03*
Y574267D02*
D03*
Y568268D02*
D03*
Y562266D02*
D03*
Y550267D02*
D03*
Y544267D02*
D03*
Y538268D02*
D03*
Y532266D02*
D03*
Y526267D02*
D03*
Y520267D02*
D03*
Y514268D02*
D03*
Y508268D02*
D03*
Y502266D02*
D03*
Y496267D02*
D03*
Y490267D02*
D03*
Y484268D02*
D03*
Y478268D02*
D03*
Y472266D02*
D03*
Y466267D02*
D03*
Y460267D02*
D03*
Y454268D02*
D03*
Y448268D02*
D03*
D24*
X80954Y553267D02*
D03*
Y577267D02*
D03*
Y571268D02*
D03*
Y565268D02*
D03*
Y559266D02*
D03*
Y547267D02*
D03*
Y541268D02*
D03*
Y535268D02*
D03*
Y529266D02*
D03*
Y523267D02*
D03*
Y517267D02*
D03*
Y511268D02*
D03*
Y505266D02*
D03*
Y499266D02*
D03*
Y493267D02*
D03*
Y487267D02*
D03*
Y481268D02*
D03*
X80955Y475266D02*
D03*
X80954Y469266D02*
D03*
Y463267D02*
D03*
Y457267D02*
D03*
Y451268D02*
D03*
Y445266D02*
D03*
D25*
X83705Y584267D02*
D03*
Y438268D02*
D03*
D26*
X546757Y163775D02*
D03*
X571756Y226879D02*
D03*
X596755Y163775D02*
D03*
X695559Y161488D02*
D03*
X670560Y224592D02*
D03*
X645561Y161488D02*
D03*
D27*
X619726Y241675D02*
D03*
X619794Y225685D02*
D03*
X640080Y242189D02*
D03*
Y225171D02*
D03*
X414054Y463857D02*
D03*
X413986Y479846D02*
D03*
X284514Y75825D02*
D03*
X284446Y91815D02*
D03*
D28*
X474032Y255009D02*
D03*
Y278709D02*
D03*
X519190Y505602D02*
D03*
Y529302D02*
D03*
D29*
X393654Y472156D02*
D03*
X376636D02*
D03*
D30*
X393700Y504952D02*
D03*
X330596Y529951D02*
D03*
X393700Y554949D02*
D03*
D31*
X418064Y426110D02*
D03*
Y435610D02*
D03*
Y445110D02*
D03*
X440964D02*
D03*
Y435610D02*
D03*
Y426110D02*
D03*
X385508D02*
D03*
Y435610D02*
D03*
Y445110D02*
D03*
X362607D02*
D03*
Y435610D02*
D03*
Y426110D02*
D03*
X281960D02*
D03*
Y435610D02*
D03*
Y445110D02*
D03*
X259060D02*
D03*
Y435610D02*
D03*
Y426110D02*
D03*
X333607D02*
D03*
Y435610D02*
D03*
Y445110D02*
D03*
X310706D02*
D03*
Y435610D02*
D03*
Y426110D02*
D03*
D32*
X340450Y321310D02*
D03*
X349250D02*
D03*
X148049Y517091D02*
D03*
X156849D02*
D03*
X158840Y421640D02*
D03*
X167640D02*
D03*
X187870D02*
D03*
X179070D02*
D03*
X343303Y174808D02*
D03*
X352104D02*
D03*
X221596D02*
D03*
X212796D02*
D03*
X746670Y165100D02*
D03*
X737870D02*
D03*
X542200Y281940D02*
D03*
X533400D02*
D03*
D33*
X306070D02*
D03*
Y315666D02*
D03*
X177654Y285995D02*
D03*
Y319721D02*
D03*
X306070Y135537D02*
D03*
Y169263D02*
D03*
X177654Y139433D02*
D03*
Y173159D02*
D03*
D34*
X271780Y320903D02*
D03*
Y276703D02*
D03*
X146855Y325466D02*
D03*
Y281266D02*
D03*
X271780Y174500D02*
D03*
Y130300D02*
D03*
X146855Y134196D02*
D03*
Y178396D02*
D03*
D35*
X239820Y288970D02*
D03*
Y297770D02*
D03*
X406400Y397510D02*
D03*
Y388710D02*
D03*
X266700Y98470D02*
D03*
Y107270D02*
D03*
X627380Y483780D02*
D03*
Y474980D02*
D03*
X660400Y476340D02*
D03*
Y485140D02*
D03*
X547370Y426810D02*
D03*
Y435610D02*
D03*
X296970Y516300D02*
D03*
Y525100D02*
D03*
D36*
X198717Y514605D02*
D03*
Y519605D02*
D03*
Y524605D02*
D03*
Y529605D02*
D03*
X170717D02*
D03*
Y524605D02*
D03*
Y519605D02*
D03*
Y514605D02*
D03*
X185450Y439540D02*
D03*
Y444540D02*
D03*
Y449540D02*
D03*
Y454540D02*
D03*
X157450D02*
D03*
Y449540D02*
D03*
Y444540D02*
D03*
Y439540D02*
D03*
D37*
X192217Y536105D02*
D03*
X187217D02*
D03*
X182217D02*
D03*
X177217D02*
D03*
X182217Y508105D02*
D03*
X187217D02*
D03*
X192217D02*
D03*
X177217D02*
D03*
X178950Y461040D02*
D03*
X173950D02*
D03*
X168950D02*
D03*
X163950D02*
D03*
X168950Y433040D02*
D03*
X173950D02*
D03*
X178950D02*
D03*
X163950D02*
D03*
D38*
X467654Y549910D02*
D03*
X477226D02*
D03*
D39*
X450850Y566450D02*
D03*
Y549910D02*
D03*
X428035Y566446D02*
D03*
Y549907D02*
D03*
X427990Y510510D02*
D03*
Y527050D02*
D03*
X505460Y158720D02*
D03*
Y175260D02*
D03*
X490410Y391700D02*
D03*
X490410Y375160D02*
D03*
D40*
X474980Y455611D02*
D03*
Y447040D02*
D03*
D41*
X504160Y476250D02*
D03*
X520700D02*
D03*
X568930Y513080D02*
D03*
X585470D02*
D03*
D42*
X434282Y322580D02*
D03*
X487680D02*
D03*
D43*
X406400Y375951D02*
D03*
X406400Y361950D02*
D03*
D44*
X454249Y398620D02*
D03*
Y393619D02*
D03*
Y388620D02*
D03*
X454249Y383619D02*
D03*
X472801D02*
D03*
X472801Y388620D02*
D03*
X472801Y393619D02*
D03*
X472801Y398620D02*
D03*
D45*
X463525Y391119D02*
D03*
D46*
X461329Y372110D02*
D03*
X469900Y372110D02*
D03*
D47*
X443472Y279339D02*
D03*
X438472D02*
D03*
X433472D02*
D03*
Y264539D02*
D03*
X438472D02*
D03*
X443472D02*
D03*
D48*
X444162Y249079D02*
D03*
X425162D02*
D03*
X444822Y230029D02*
D03*
X425822D02*
D03*
D49*
X180381Y106680D02*
D03*
Y69676D02*
D03*
X246380Y69676D02*
D03*
Y106680D02*
D03*
X674390Y535392D02*
D03*
X740390Y535392D02*
D03*
Y498388D02*
D03*
X674390Y498388D02*
D03*
D50*
X356376Y74816D02*
D03*
D51*
Y93816D02*
D03*
X333367Y84316D02*
D03*
D52*
X455510Y135890D02*
D03*
X479210D02*
D03*
D53*
X732654Y184285D02*
D03*
X750454D02*
D03*
Y217035D02*
D03*
X732654D02*
D03*
D54*
X528980Y235440D02*
D03*
X538480D02*
D03*
X547980D02*
D03*
Y264940D02*
D03*
X528980D02*
D03*
D55*
X542290Y320120D02*
D03*
X537290D02*
D03*
X532290D02*
D03*
X542290Y325120D02*
D03*
X537290D02*
D03*
X532290D02*
D03*
X542290Y330120D02*
D03*
X537290D02*
D03*
X532290D02*
D03*
X542290Y335120D02*
D03*
X537290D02*
D03*
X532290D02*
D03*
D56*
X530830Y398780D02*
D03*
X544830D02*
D03*
D57*
X649620Y476250D02*
D03*
X646120D02*
D03*
X642620D02*
D03*
X639120D02*
D03*
Y484793D02*
D03*
X642620D02*
D03*
X646120D02*
D03*
D58*
X649620D02*
D03*
D59*
X640090Y373380D02*
D03*
X623590D02*
D03*
Y356880D02*
D03*
Y340380D02*
D03*
X640090D02*
D03*
X656590D02*
D03*
Y356880D02*
D03*
X640090D02*
D03*
D60*
X710090Y416380D02*
D03*
Y407880D02*
D03*
Y399380D02*
D03*
Y390880D02*
D03*
Y382380D02*
D03*
Y373880D02*
D03*
Y365380D02*
D03*
Y356880D02*
D03*
Y348380D02*
D03*
Y339880D02*
D03*
Y331380D02*
D03*
Y322880D02*
D03*
Y314380D02*
D03*
Y305880D02*
D03*
Y297380D02*
D03*
X570090D02*
D03*
Y305880D02*
D03*
Y314380D02*
D03*
Y322880D02*
D03*
Y331380D02*
D03*
Y339880D02*
D03*
Y348380D02*
D03*
Y356880D02*
D03*
Y365380D02*
D03*
Y373880D02*
D03*
Y382380D02*
D03*
Y390880D02*
D03*
Y399380D02*
D03*
Y407880D02*
D03*
Y416380D02*
D03*
D61*
X699590Y286880D02*
D03*
X691090D02*
D03*
X682590D02*
D03*
X674090D02*
D03*
X665590D02*
D03*
X657090D02*
D03*
X648590D02*
D03*
X640090D02*
D03*
X631590D02*
D03*
X623090D02*
D03*
X614590D02*
D03*
X606090D02*
D03*
X597590D02*
D03*
X589090D02*
D03*
X580590D02*
D03*
Y426880D02*
D03*
X589090D02*
D03*
X597590D02*
D03*
X606090D02*
D03*
X614590D02*
D03*
X623090D02*
D03*
X631590D02*
D03*
X640090D02*
D03*
X648590D02*
D03*
X657090D02*
D03*
X682590D02*
D03*
X691090D02*
D03*
X699590D02*
D03*
X665590D02*
D03*
X674090D02*
D03*
D62*
X570090Y286880D02*
D03*
X710090D02*
D03*
X570090Y426880D02*
D03*
X710090D02*
D03*
D63*
X518279Y418490D02*
D03*
Y437490D02*
D03*
X533281Y418490D02*
D03*
Y437490D02*
D03*
D64*
X474980Y420370D02*
D03*
X474980Y433892D02*
D03*
D65*
X246830Y523090D02*
D03*
X256330D02*
D03*
X265830D02*
D03*
Y497990D02*
D03*
X256330D02*
D03*
X246830D02*
D03*
M02*
