G04*
G04 #@! TF.GenerationSoftware,Altium Limited,Altium Designer,23.1.1 (15)*
G04*
G04 Layer_Color=16711935*
%FSLAX44Y44*%
%MOMM*%
G71*
G04*
G04 #@! TF.SameCoordinates,D1EA7B9B-11C4-41B5-954D-5070AA3C9977*
G04*
G04*
G04 #@! TF.FilePolarity,Positive*
G04*
G01*
G75*
%ADD10C,0.1000*%
%ADD16C,0.2000*%
%ADD17C,0.1270*%
%ADD191R,3.9500X0.6187*%
D10*
X195717Y516105D02*
G03*
X195717Y516105I-5000J0D01*
G01*
X182450Y441040D02*
G03*
X182450Y441040I-5000J0D01*
G01*
X368951Y122953D02*
Y133453D01*
X374451Y122953D02*
Y133453D01*
X368951D02*
X374451D01*
X368951Y122953D02*
X374451D01*
X354867Y123191D02*
Y133691D01*
X360367Y123191D02*
Y133691D01*
X354867D02*
X360367D01*
X354867Y123191D02*
X360367D01*
X361086Y268919D02*
X366586D01*
X361086Y279419D02*
X366586D01*
Y268919D02*
Y279419D01*
X361086Y268919D02*
Y279419D01*
X369976Y268919D02*
X375476D01*
X369976Y279419D02*
X375476D01*
Y268919D02*
Y279419D01*
X369976Y268919D02*
Y279419D01*
X541870Y274110D02*
Y279610D01*
X531370Y274110D02*
Y279610D01*
X541870D01*
X531370Y274110D02*
X541870D01*
X218846Y122869D02*
X224346D01*
X218846Y133369D02*
X224346D01*
Y122869D02*
Y133369D01*
X218846Y122869D02*
Y133369D01*
X229006Y122869D02*
X234506D01*
X229006Y133369D02*
X234506D01*
Y122869D02*
Y133369D01*
X229006Y122869D02*
Y133369D01*
X231546Y269431D02*
X237046D01*
X231546Y279931D02*
X237046D01*
Y269431D02*
Y279931D01*
X231546Y269431D02*
Y279931D01*
X239166Y269431D02*
X244666D01*
X239166Y279931D02*
X244666D01*
Y269431D02*
Y279931D01*
X239166Y269431D02*
Y279931D01*
X590380Y209340D02*
Y214840D01*
X600880Y209340D02*
Y214840D01*
X590380Y209340D02*
X600880D01*
X590380Y214840D02*
X600880D01*
X652570Y154180D02*
X658070D01*
X652570Y164680D02*
X658070D01*
Y154180D02*
Y164680D01*
X652570Y154180D02*
Y164680D01*
X669738Y354840D02*
X675238D01*
X669738Y365340D02*
X675238D01*
Y354840D02*
Y365340D01*
X669738Y354840D02*
Y365340D01*
X679240Y354840D02*
X684740D01*
X679240Y365340D02*
X684740D01*
Y354840D02*
Y365340D01*
X679240Y354840D02*
Y365340D01*
X618989Y349340D02*
Y370840D01*
X632989Y349340D02*
Y370840D01*
X618989D02*
X632989D01*
X618989Y349340D02*
X632989D01*
X202230Y500315D02*
X207730D01*
X202230Y489815D02*
X207730D01*
X202230D02*
Y500315D01*
X207730Y489815D02*
Y500315D01*
X192728D02*
X198228D01*
X192728Y489815D02*
X198228D01*
X192728D02*
Y500315D01*
X198228Y489815D02*
Y500315D01*
X339600Y318560D02*
Y324060D01*
X350100Y318560D02*
Y324060D01*
X339600D02*
X350100D01*
X339600Y318560D02*
X350100D01*
X291530Y275803D02*
Y321803D01*
X252030Y275803D02*
Y321803D01*
X291530D01*
X252030Y275803D02*
X291530D01*
X237070Y288120D02*
X242570D01*
X237070Y298620D02*
X242570D01*
X237070Y288120D02*
Y298620D01*
X242570Y288120D02*
Y298620D01*
X166605Y280366D02*
Y326366D01*
X127105Y280366D02*
Y326366D01*
X166605D01*
X127105Y280366D02*
X166605D01*
X169717Y537105D02*
X199717D01*
X169717Y507105D02*
X199717D01*
X169717D02*
Y537105D01*
X199717Y507105D02*
Y537105D01*
X147199Y514341D02*
Y519841D01*
X157699Y514341D02*
Y519841D01*
X147199D02*
X157699D01*
X147199Y514341D02*
X157699D01*
X156450Y462040D02*
X186450D01*
X156450Y432040D02*
X186450D01*
X156450D02*
Y462040D01*
X186450Y432040D02*
Y462040D01*
X157990Y424390D02*
X168490D01*
X157990Y418890D02*
X168490D01*
X157990D02*
Y424390D01*
X168490Y418890D02*
Y424390D01*
X178220Y418890D02*
X188720D01*
X178220Y424390D02*
X188720D01*
Y418890D02*
Y424390D01*
X178220Y418890D02*
Y424390D01*
X409150Y387860D02*
Y398360D01*
X403650D02*
X403650Y387860D01*
X403650Y398360D02*
X409150D01*
X403650Y387860D02*
X409150D01*
X423912Y242079D02*
X445412D01*
X423912Y256079D02*
X445412D01*
Y242079D02*
Y256079D01*
X423912Y242079D02*
Y256079D01*
X424572Y223029D02*
X446072D01*
X424572Y237029D02*
X446072D01*
Y223029D02*
Y237029D01*
X424572D02*
X424572Y223029D01*
X342453Y172058D02*
Y177558D01*
X352953Y172058D02*
Y177558D01*
X342453D02*
X352953D01*
X342453Y172058D02*
X352953D01*
X291530Y129400D02*
Y175400D01*
X252030Y129400D02*
Y175400D01*
X291530D01*
X252030Y129400D02*
X291530D01*
X211946Y172058D02*
X222446D01*
X211946Y177558D02*
X222446D01*
Y172058D02*
Y177558D01*
X211946Y172058D02*
Y177558D01*
X127105Y133296D02*
X166605D01*
X127105Y179296D02*
X166605D01*
X127105Y133296D02*
Y179296D01*
X166605Y133296D02*
Y179296D01*
X263950Y108120D02*
X269450D01*
X263950Y97620D02*
X269450D01*
Y108120D01*
X263950Y97620D02*
Y108120D01*
X747520Y162350D02*
Y167850D01*
X737020Y162350D02*
Y167850D01*
Y162350D02*
X747520D01*
X737020Y167850D02*
X747520D01*
X523230Y241440D02*
X553730D01*
X523230Y258940D02*
X553730D01*
X523230Y241440D02*
Y258940D01*
X553730Y241440D02*
Y258940D01*
X543050Y279190D02*
Y284690D01*
X532550Y279190D02*
Y284690D01*
Y279190D02*
X543050D01*
X532550Y284690D02*
X543050D01*
X630130Y474130D02*
Y484630D01*
X624630Y474130D02*
Y484630D01*
X630130D01*
X624630Y474130D02*
X630130D01*
X657650Y475490D02*
Y485990D01*
X663150Y475490D02*
Y485990D01*
X657650Y475490D02*
X663150D01*
X657650Y485990D02*
X663150D01*
X544620Y425960D02*
X550120D01*
X544620Y436460D02*
X550120D01*
X544620Y425960D02*
Y436460D01*
X550120Y425960D02*
Y436460D01*
X294220Y515450D02*
X299720D01*
X294220Y525950D02*
X299720D01*
X294220Y515450D02*
Y525950D01*
X299720Y515450D02*
Y525950D01*
D16*
X700590Y441380D02*
G03*
X700590Y441380I-1000J0D01*
G01*
X247880Y484990D02*
G03*
X247880Y484990I-1000J0D01*
G01*
X454032Y286859D02*
X494032D01*
X454032Y246859D02*
Y286859D01*
Y246859D02*
X494032D01*
Y286859D01*
X499190Y537453D02*
X539190D01*
X499190Y497452D02*
Y537453D01*
Y497452D02*
X539190D01*
Y537453D01*
D17*
X161299Y136898D02*
Y157218D01*
X149361Y147058D02*
X161299Y157218D01*
X149361Y147058D02*
X161299Y136898D01*
X61319Y110228D02*
Y413227D01*
X137319D01*
Y110228D02*
Y413227D01*
X61319Y110228D02*
X137319D01*
X717340Y279880D02*
Y433880D01*
X767840D01*
X562840D02*
X717340D01*
X562840Y279880D02*
Y433880D01*
Y279880D02*
X717340D01*
X767840D01*
Y433880D01*
X241705Y502415D02*
X270955D01*
Y518665D01*
X241705D02*
X270955D01*
X241705Y502415D02*
Y518665D01*
D191*
X271780Y278897D02*
D03*
X146855Y283459D02*
D03*
X271780Y132493D02*
D03*
X146855Y136390D02*
D03*
M02*
