G04*
G04 #@! TF.GenerationSoftware,Altium Limited,Altium Designer,23.1.1 (15)*
G04*
G04 Layer_Color=8388736*
%FSLAX44Y44*%
%MOMM*%
G71*
G04*
G04 #@! TF.SameCoordinates,D1EA7B9B-11C4-41B5-954D-5070AA3C9977*
G04*
G04*
G04 #@! TF.FilePolarity,Negative*
G04*
G01*
G75*
%ADD38R,0.7154X0.6725*%
%ADD39R,1.0121X1.1581*%
%ADD40R,0.5725X0.6153*%
%ADD41R,1.1581X1.0121*%
%ADD46R,0.6153X0.5725*%
G04:AMPARAMS|DCode=47|XSize=0.67mm|YSize=0.3mm|CornerRadius=0.0495mm|HoleSize=0mm|Usage=FLASHONLY|Rotation=270.000|XOffset=0mm|YOffset=0mm|HoleType=Round|Shape=RoundedRectangle|*
%AMROUNDEDRECTD47*
21,1,0.6700,0.2010,0,0,270.0*
21,1,0.5710,0.3000,0,0,270.0*
1,1,0.0990,-0.1005,-0.2855*
1,1,0.0990,-0.1005,0.2855*
1,1,0.0990,0.1005,0.2855*
1,1,0.0990,0.1005,-0.2855*
%
%ADD47ROUNDEDRECTD47*%
%ADD50R,1.8052X0.6121*%
G04:AMPARAMS|DCode=51|XSize=1.8052mm|YSize=0.6121mm|CornerRadius=0.3061mm|HoleSize=0mm|Usage=FLASHONLY|Rotation=180.000|XOffset=0mm|YOffset=0mm|HoleType=Round|Shape=RoundedRectangle|*
%AMROUNDEDRECTD51*
21,1,1.8052,0.0000,0,0,180.0*
21,1,1.1931,0.6121,0,0,180.0*
1,1,0.6121,-0.5966,0.0000*
1,1,0.6121,0.5966,0.0000*
1,1,0.6121,0.5966,0.0000*
1,1,0.6121,-0.5966,0.0000*
%
%ADD51ROUNDEDRECTD51*%
%ADD52R,0.9800X3.4000*%
%ADD55C,0.1955*%
G04:AMPARAMS|DCode=57|XSize=0.6182mm|YSize=0.1566mm|CornerRadius=0.0783mm|HoleSize=0mm|Usage=FLASHONLY|Rotation=270.000|XOffset=0mm|YOffset=0mm|HoleType=Round|Shape=RoundedRectangle|*
%AMROUNDEDRECTD57*
21,1,0.6182,0.0000,0,0,270.0*
21,1,0.4616,0.1566,0,0,270.0*
1,1,0.1566,0.0000,-0.2308*
1,1,0.1566,0.0000,0.2308*
1,1,0.1566,0.0000,0.2308*
1,1,0.1566,0.0000,-0.2308*
%
%ADD57ROUNDEDRECTD57*%
%ADD58R,0.1566X0.6182*%
%ADD64R,0.9582X1.1061*%
%ADD66C,0.1650*%
%ADD67R,0.7770X0.4270*%
%ADD68R,0.9270X0.4270*%
%ADD69R,1.0770X0.6270*%
%ADD70C,1.3270*%
%ADD71R,1.5270X2.9270*%
%ADD72R,0.9270X0.9270*%
%ADD73R,0.6416X0.6673*%
%ADD74R,3.5270X1.1070*%
%ADD75R,0.9270X0.9270*%
%ADD76R,2.9270X1.5270*%
%ADD77R,1.1670X0.6590*%
%ADD78R,0.6673X0.6416*%
%ADD79R,0.7870X0.7470*%
%ADD80R,1.4230X1.8845*%
%ADD81R,2.8700X2.2860*%
%ADD82R,0.7470X0.7870*%
G04:AMPARAMS|DCode=83|XSize=0.367mm|YSize=0.727mm|CornerRadius=0.1139mm|HoleSize=0mm|Usage=FLASHONLY|Rotation=270.000|XOffset=0mm|YOffset=0mm|HoleType=Round|Shape=RoundedRectangle|*
%AMROUNDEDRECTD83*
21,1,0.3670,0.4992,0,0,270.0*
21,1,0.1392,0.7270,0,0,270.0*
1,1,0.2278,-0.2496,-0.0696*
1,1,0.2278,-0.2496,0.0696*
1,1,0.2278,0.2496,0.0696*
1,1,0.2278,0.2496,-0.0696*
%
%ADD83ROUNDEDRECTD83*%
G04:AMPARAMS|DCode=84|XSize=0.367mm|YSize=0.727mm|CornerRadius=0.1139mm|HoleSize=0mm|Usage=FLASHONLY|Rotation=180.000|XOffset=0mm|YOffset=0mm|HoleType=Round|Shape=RoundedRectangle|*
%AMROUNDEDRECTD84*
21,1,0.3670,0.4992,0,0,180.0*
21,1,0.1392,0.7270,0,0,180.0*
1,1,0.2278,-0.0696,0.2496*
1,1,0.2278,0.0696,0.2496*
1,1,0.2278,0.0696,-0.2496*
1,1,0.2278,-0.0696,-0.2496*
%
%ADD84ROUNDEDRECTD84*%
G04:AMPARAMS|DCode=85|XSize=1.577mm|YSize=1.577mm|CornerRadius=0.1143mm|HoleSize=0mm|Usage=FLASHONLY|Rotation=180.000|XOffset=0mm|YOffset=0mm|HoleType=Round|Shape=RoundedRectangle|*
%AMROUNDEDRECTD85*
21,1,1.5770,1.3485,0,0,180.0*
21,1,1.3485,1.5770,0,0,180.0*
1,1,0.2285,-0.6743,0.6743*
1,1,0.2285,0.6743,0.6743*
1,1,0.2285,0.6743,-0.6743*
1,1,0.2285,-0.6743,-0.6743*
%
%ADD85ROUNDEDRECTD85*%
G04:AMPARAMS|DCode=86|XSize=1.8016mm|YSize=1.8016mm|CornerRadius=0mm|HoleSize=0mm|Usage=FLASHONLY|Rotation=270.000|XOffset=0mm|YOffset=0mm|HoleType=Round|Shape=Octagon|*
%AMOCTAGOND86*
4,1,8,-0.4504,-0.9008,0.4504,-0.9008,0.9008,-0.4504,0.9008,0.4504,0.4504,0.9008,-0.4504,0.9008,-0.9008,0.4504,-0.9008,-0.4504,-0.4504,-0.9008,0.0*
%
%ADD86OCTAGOND86*%

%ADD87R,0.3816X0.9016*%
%ADD88R,0.9016X0.3816*%
%ADD89R,0.9656X0.9081*%
%ADD90R,1.4786X1.2341*%
%ADD91R,3.6270X1.3270*%
%ADD92R,1.0270X0.9270*%
%ADD93R,0.6320X0.4070*%
%ADD94R,1.0270X1.8270*%
%ADD95R,0.6416X0.8917*%
%ADD96R,1.5770X1.6770*%
%ADD97R,1.8270X1.1270*%
%ADD98R,0.8917X0.6416*%
%ADD99R,1.4516X1.5116*%
%ADD100R,0.9081X0.9656*%
%ADD101R,1.1240X1.6720*%
G04:AMPARAMS|DCode=102|XSize=0.777mm|YSize=1.327mm|CornerRadius=0.1123mm|HoleSize=0mm|Usage=FLASHONLY|Rotation=180.000|XOffset=0mm|YOffset=0mm|HoleType=Round|Shape=RoundedRectangle|*
%AMROUNDEDRECTD102*
21,1,0.7770,1.1025,0,0,180.0*
21,1,0.5525,1.3270,0,0,180.0*
1,1,0.2245,-0.2763,0.5513*
1,1,0.2245,0.2763,0.5513*
1,1,0.2245,0.2763,-0.5513*
1,1,0.2245,-0.2763,-0.5513*
%
%ADD102ROUNDEDRECTD102*%
%ADD103R,0.9270X1.0270*%
%ADD104C,0.3162*%
%ADD105R,1.3270X1.3270*%
%ADD106R,0.9270X0.5270*%
%ADD107R,0.5270X0.9270*%
%ADD108R,0.9270X0.9270*%
%ADD109R,1.2270X1.3270*%
G04:AMPARAMS|DCode=110|XSize=1.337mm|YSize=0.717mm|CornerRadius=0.1373mm|HoleSize=0mm|Usage=FLASHONLY|Rotation=90.000|XOffset=0mm|YOffset=0mm|HoleType=Round|Shape=RoundedRectangle|*
%AMROUNDEDRECTD110*
21,1,1.3370,0.4425,0,0,90.0*
21,1,1.0625,0.7170,0,0,90.0*
1,1,0.2745,0.2213,0.5313*
1,1,0.2745,0.2213,-0.5313*
1,1,0.2745,-0.2213,-0.5313*
1,1,0.2745,-0.2213,0.5313*
%
%ADD110ROUNDEDRECTD110*%
%ADD111R,0.7016X1.2516*%
%ADD112R,0.4016X1.2516*%
%ADD113C,1.8270*%
%ADD114R,1.8270X1.8270*%
%ADD115C,1.9000*%
%ADD116R,1.9000X1.9000*%
%ADD117O,1.1270X1.9270*%
%ADD118O,1.1270X2.2270*%
%ADD119C,4.1270*%
%ADD120C,0.4318*%
%ADD121C,0.5334*%
%ADD122C,0.6270*%
G36*
X649590Y366380D02*
Y380380D01*
X657090D01*
X663590Y373880D01*
Y366380D01*
X649590D01*
D02*
G37*
D38*
X467654Y549910D02*
D03*
X477226D02*
D03*
D39*
X450850Y566450D02*
D03*
Y549910D02*
D03*
X428035Y566446D02*
D03*
Y549907D02*
D03*
X427990Y510510D02*
D03*
Y527050D02*
D03*
X505460Y158720D02*
D03*
Y175260D02*
D03*
X490410Y391700D02*
D03*
X490410Y375160D02*
D03*
D40*
X474980Y455611D02*
D03*
Y447040D02*
D03*
D41*
X504160Y476250D02*
D03*
X520700D02*
D03*
X568930Y513080D02*
D03*
X585470D02*
D03*
D46*
X461329Y372110D02*
D03*
X469900Y372110D02*
D03*
D47*
X443472Y279339D02*
D03*
X438472D02*
D03*
X433472D02*
D03*
Y264539D02*
D03*
X438472D02*
D03*
X443472D02*
D03*
D50*
X356376Y74816D02*
D03*
D51*
Y93816D02*
D03*
X333367Y84316D02*
D03*
D52*
X455510Y135890D02*
D03*
X479210D02*
D03*
D55*
X542290Y320120D02*
D03*
X537290D02*
D03*
X532290D02*
D03*
X542290Y325120D02*
D03*
X537290D02*
D03*
X532290D02*
D03*
X542290Y330120D02*
D03*
X537290D02*
D03*
X532290D02*
D03*
X542290Y335120D02*
D03*
X537290D02*
D03*
X532290D02*
D03*
D57*
X649620Y476250D02*
D03*
X646120D02*
D03*
X642620D02*
D03*
X639120D02*
D03*
Y484793D02*
D03*
X642620D02*
D03*
X646120D02*
D03*
D58*
X649620D02*
D03*
D64*
X474980Y420370D02*
D03*
X474980Y433892D02*
D03*
D66*
X475105Y186705D02*
G03*
X475105Y186705I-825J0D01*
G01*
X471105D02*
G03*
X471105Y186705I-825J0D01*
G01*
X467105D02*
G03*
X467105Y186705I-825J0D01*
G01*
X463105D02*
G03*
X463105Y186705I-825J0D01*
G01*
X459105D02*
G03*
X459105Y186705I-825J0D01*
G01*
X475105Y178705D02*
G03*
X475105Y178705I-825J0D01*
G01*
X471105D02*
G03*
X471105Y178705I-825J0D01*
G01*
X467105D02*
G03*
X467105Y178705I-825J0D01*
G01*
X463105D02*
G03*
X463105Y178705I-825J0D01*
G01*
X459105D02*
G03*
X459105Y178705I-825J0D01*
G01*
X475105Y182705D02*
G03*
X475105Y182705I-825J0D01*
G01*
X471105D02*
G03*
X471105Y182705I-825J0D01*
G01*
X467105D02*
G03*
X467105Y182705I-825J0D01*
G01*
X463105D02*
G03*
X463105Y182705I-825J0D01*
G01*
X459105D02*
G03*
X459105Y182705I-825J0D01*
G01*
D67*
X109704Y556266D02*
D03*
Y574267D02*
D03*
Y568268D02*
D03*
Y562266D02*
D03*
Y550267D02*
D03*
Y544267D02*
D03*
Y538268D02*
D03*
Y532266D02*
D03*
Y526267D02*
D03*
Y520267D02*
D03*
Y514268D02*
D03*
Y508268D02*
D03*
Y502266D02*
D03*
Y496267D02*
D03*
Y490267D02*
D03*
Y484268D02*
D03*
Y478268D02*
D03*
Y472266D02*
D03*
Y466267D02*
D03*
Y460267D02*
D03*
Y454268D02*
D03*
Y448268D02*
D03*
D68*
X80954Y553267D02*
D03*
Y577267D02*
D03*
Y571268D02*
D03*
Y565268D02*
D03*
Y559266D02*
D03*
Y547267D02*
D03*
Y541268D02*
D03*
Y535268D02*
D03*
Y529266D02*
D03*
Y523267D02*
D03*
Y517267D02*
D03*
Y511268D02*
D03*
Y505266D02*
D03*
Y499266D02*
D03*
Y493267D02*
D03*
Y487267D02*
D03*
Y481268D02*
D03*
X80955Y475266D02*
D03*
X80954Y469266D02*
D03*
Y463267D02*
D03*
Y457267D02*
D03*
Y451268D02*
D03*
Y445266D02*
D03*
D69*
X83705Y584267D02*
D03*
Y438268D02*
D03*
D70*
X737870Y447040D02*
D03*
X689610D02*
D03*
X486410Y204470D02*
D03*
X513080Y274320D02*
D03*
X515620Y218440D02*
D03*
X511810Y252730D02*
D03*
X574040Y259080D02*
D03*
X236220Y447040D02*
D03*
X200162Y470242D02*
D03*
X160587Y486545D02*
D03*
X140267D02*
D03*
X402590Y450850D02*
D03*
X453390Y415290D02*
D03*
X384810Y118110D02*
D03*
X480627Y232043D02*
D03*
X712470Y236220D02*
D03*
X513080Y303530D02*
D03*
X510540Y347980D02*
D03*
X635000Y554990D02*
D03*
X586740Y537210D02*
D03*
X548640Y490220D02*
D03*
X586740D02*
D03*
X612140D02*
D03*
X635000Y537210D02*
D03*
X679960Y477267D02*
D03*
X330200Y556260D02*
D03*
X292100Y538480D02*
D03*
X215197Y556395D02*
D03*
X131572Y565404D02*
D03*
X668020Y67310D02*
D03*
D71*
X546757Y163775D02*
D03*
X571756Y226879D02*
D03*
X596755Y163775D02*
D03*
X695559Y161488D02*
D03*
X670560Y224592D02*
D03*
X645561Y161488D02*
D03*
D72*
X619726Y241675D02*
D03*
X619794Y225685D02*
D03*
X640080Y242189D02*
D03*
Y225171D02*
D03*
X414054Y463857D02*
D03*
X413986Y479846D02*
D03*
X284514Y75825D02*
D03*
X284446Y91815D02*
D03*
D73*
X637540Y267559D02*
D03*
Y258903D02*
D03*
X428752Y481622D02*
D03*
Y472965D02*
D03*
X459100D02*
D03*
Y481622D02*
D03*
X135187Y524573D02*
D03*
Y515916D02*
D03*
X175827Y483487D02*
D03*
Y492143D02*
D03*
X191067D02*
D03*
Y483487D02*
D03*
X470850Y481622D02*
D03*
Y472965D02*
D03*
X482600D02*
D03*
Y481622D02*
D03*
X379730Y79988D02*
D03*
Y88644D02*
D03*
X695960Y238008D02*
D03*
Y229352D02*
D03*
X624409Y267559D02*
D03*
Y258903D02*
D03*
X611278Y267559D02*
D03*
Y258903D02*
D03*
X598147Y267559D02*
D03*
Y258903D02*
D03*
X232200Y525780D02*
D03*
Y517124D02*
D03*
X280460Y525028D02*
D03*
Y516372D02*
D03*
X200089Y551315D02*
D03*
Y559971D02*
D03*
X187323Y551315D02*
D03*
Y559971D02*
D03*
X174557Y551315D02*
D03*
Y559971D02*
D03*
D74*
X474032Y255009D02*
D03*
Y278709D02*
D03*
X519190Y505602D02*
D03*
Y529302D02*
D03*
D75*
X393654Y472156D02*
D03*
X376636D02*
D03*
D76*
X393700Y504952D02*
D03*
X330596Y529951D02*
D03*
X393700Y554949D02*
D03*
D77*
X418064Y426110D02*
D03*
Y435610D02*
D03*
Y445110D02*
D03*
X440964D02*
D03*
Y435610D02*
D03*
Y426110D02*
D03*
X385508D02*
D03*
Y435610D02*
D03*
Y445110D02*
D03*
X362607D02*
D03*
Y435610D02*
D03*
Y426110D02*
D03*
X281960D02*
D03*
Y435610D02*
D03*
Y445110D02*
D03*
X259060D02*
D03*
Y435610D02*
D03*
Y426110D02*
D03*
X333607D02*
D03*
Y435610D02*
D03*
Y445110D02*
D03*
X310706D02*
D03*
Y435610D02*
D03*
Y426110D02*
D03*
D78*
X350002Y469900D02*
D03*
X358658D02*
D03*
X156777Y542623D02*
D03*
X148121D02*
D03*
X156777Y529857D02*
D03*
X148121D02*
D03*
Y504325D02*
D03*
X156777D02*
D03*
X203698Y455023D02*
D03*
X212355D02*
D03*
X134854Y454660D02*
D03*
X143510D02*
D03*
X134854Y441960D02*
D03*
X143510D02*
D03*
X286786Y106680D02*
D03*
X278130D02*
D03*
X301742Y94615D02*
D03*
X310398D02*
D03*
X301742Y82550D02*
D03*
X310398D02*
D03*
X436880Y186690D02*
D03*
X428224D02*
D03*
X463560Y205994D02*
D03*
X454904D02*
D03*
X737352Y233680D02*
D03*
X746008D02*
D03*
X532926Y357538D02*
D03*
X541583D02*
D03*
X532926Y370304D02*
D03*
X541583D02*
D03*
X643656Y519430D02*
D03*
X635000D02*
D03*
Y506730D02*
D03*
X643656D02*
D03*
X323850Y483870D02*
D03*
X332506D02*
D03*
Y496570D02*
D03*
X323850D02*
D03*
D79*
X340450Y321310D02*
D03*
X349250D02*
D03*
X148049Y517091D02*
D03*
X156849D02*
D03*
X158840Y421640D02*
D03*
X167640D02*
D03*
X187870D02*
D03*
X179070D02*
D03*
X343303Y174808D02*
D03*
X352104D02*
D03*
X221596D02*
D03*
X212796D02*
D03*
X746670Y165100D02*
D03*
X737870D02*
D03*
X542200Y281940D02*
D03*
X533400D02*
D03*
D80*
X306070D02*
D03*
Y315666D02*
D03*
X177654Y285995D02*
D03*
Y319721D02*
D03*
X306070Y135537D02*
D03*
Y169263D02*
D03*
X177654Y139433D02*
D03*
Y173159D02*
D03*
D81*
X271780Y320903D02*
D03*
Y276703D02*
D03*
X146855Y325466D02*
D03*
Y281266D02*
D03*
X271780Y174500D02*
D03*
Y130300D02*
D03*
X146855Y134196D02*
D03*
Y178396D02*
D03*
D82*
X239820Y288970D02*
D03*
Y297770D02*
D03*
X406400Y397510D02*
D03*
Y388710D02*
D03*
X266700Y98470D02*
D03*
Y107270D02*
D03*
X627380Y483780D02*
D03*
Y474980D02*
D03*
X660400Y476340D02*
D03*
Y485140D02*
D03*
X547370Y426810D02*
D03*
Y435610D02*
D03*
X296970Y516300D02*
D03*
Y525100D02*
D03*
D83*
X198717Y514605D02*
D03*
Y519605D02*
D03*
Y524605D02*
D03*
Y529605D02*
D03*
X170717D02*
D03*
Y524605D02*
D03*
Y519605D02*
D03*
Y514605D02*
D03*
X185450Y439540D02*
D03*
Y444540D02*
D03*
Y449540D02*
D03*
Y454540D02*
D03*
X157450D02*
D03*
Y449540D02*
D03*
Y444540D02*
D03*
Y439540D02*
D03*
D84*
X192217Y536105D02*
D03*
X187217D02*
D03*
X182217D02*
D03*
X177217D02*
D03*
X182217Y508105D02*
D03*
X187217D02*
D03*
X192217D02*
D03*
X177217D02*
D03*
X178950Y461040D02*
D03*
X173950D02*
D03*
X168950D02*
D03*
X163950D02*
D03*
X168950Y433040D02*
D03*
X173950D02*
D03*
X178950D02*
D03*
X163950D02*
D03*
D85*
X184717Y522105D02*
D03*
X171450Y447040D02*
D03*
D86*
X467870Y515369D02*
D03*
D87*
X460370Y530371D02*
D03*
X465368D02*
D03*
X470370D02*
D03*
X475368D02*
D03*
Y500371D02*
D03*
X470370D02*
D03*
X465368D02*
D03*
X460370D02*
D03*
D88*
X482869Y522870D02*
D03*
Y517871D02*
D03*
Y512870D02*
D03*
Y507871D02*
D03*
X452869D02*
D03*
Y512870D02*
D03*
Y517871D02*
D03*
Y522870D02*
D03*
D89*
X445130Y484309D02*
D03*
Y469241D02*
D03*
D90*
X425450Y394970D02*
D03*
Y374970D02*
D03*
D91*
X434282Y322580D02*
D03*
X487680D02*
D03*
D92*
X406400Y375951D02*
D03*
X406400Y361950D02*
D03*
D93*
X454249Y398620D02*
D03*
Y393619D02*
D03*
Y388620D02*
D03*
X454249Y383619D02*
D03*
X472801D02*
D03*
X472801Y388620D02*
D03*
X472801Y393619D02*
D03*
X472801Y398620D02*
D03*
D94*
X463525Y391119D02*
D03*
D95*
X441960Y382958D02*
D03*
X441960Y393860D02*
D03*
X600710Y539379D02*
D03*
Y550281D02*
D03*
D96*
X444162Y249079D02*
D03*
X425162D02*
D03*
X444822Y230029D02*
D03*
X425822D02*
D03*
D97*
X180381Y106680D02*
D03*
Y69676D02*
D03*
X246380Y69676D02*
D03*
Y106680D02*
D03*
X674390Y535392D02*
D03*
X740390Y535392D02*
D03*
Y498388D02*
D03*
X674390Y498388D02*
D03*
D98*
X300619Y106680D02*
D03*
X311521D02*
D03*
D99*
X429124Y168910D02*
D03*
Y148910D02*
D03*
X408940Y148910D02*
D03*
Y168910D02*
D03*
D100*
X440690Y200660D02*
D03*
X425623Y200660D02*
D03*
D101*
X732654Y184285D02*
D03*
X750454D02*
D03*
Y217035D02*
D03*
X732654D02*
D03*
D102*
X528980Y235440D02*
D03*
X538480D02*
D03*
X547980D02*
D03*
Y264940D02*
D03*
X528980D02*
D03*
D103*
X530830Y398780D02*
D03*
X544830D02*
D03*
D104*
X605870Y518080D02*
D03*
Y513079D02*
D03*
X610869Y518080D02*
D03*
Y513079D02*
D03*
X615870Y518080D02*
D03*
Y513079D02*
D03*
Y508080D02*
D03*
X610869D02*
D03*
X605870D02*
D03*
D105*
X640090Y373380D02*
D03*
X623590D02*
D03*
Y356880D02*
D03*
Y340380D02*
D03*
X640090D02*
D03*
X656590D02*
D03*
Y356880D02*
D03*
X640090D02*
D03*
D106*
X710090Y416380D02*
D03*
Y407880D02*
D03*
Y399380D02*
D03*
Y390880D02*
D03*
Y382380D02*
D03*
Y373880D02*
D03*
Y365380D02*
D03*
Y356880D02*
D03*
Y348380D02*
D03*
Y339880D02*
D03*
Y331380D02*
D03*
Y322880D02*
D03*
Y314380D02*
D03*
Y305880D02*
D03*
Y297380D02*
D03*
X570090D02*
D03*
Y305880D02*
D03*
Y314380D02*
D03*
Y322880D02*
D03*
Y331380D02*
D03*
Y339880D02*
D03*
Y348380D02*
D03*
Y356880D02*
D03*
Y365380D02*
D03*
Y373880D02*
D03*
Y382380D02*
D03*
Y390880D02*
D03*
Y399380D02*
D03*
Y407880D02*
D03*
Y416380D02*
D03*
D107*
X699590Y286880D02*
D03*
X691090D02*
D03*
X682590D02*
D03*
X674090D02*
D03*
X665590D02*
D03*
X657090D02*
D03*
X648590D02*
D03*
X640090D02*
D03*
X631590D02*
D03*
X623090D02*
D03*
X614590D02*
D03*
X606090D02*
D03*
X597590D02*
D03*
X589090D02*
D03*
X580590D02*
D03*
Y426880D02*
D03*
X589090D02*
D03*
X597590D02*
D03*
X606090D02*
D03*
X614590D02*
D03*
X623090D02*
D03*
X631590D02*
D03*
X640090D02*
D03*
X648590D02*
D03*
X657090D02*
D03*
X682590D02*
D03*
X691090D02*
D03*
X699590D02*
D03*
X665590D02*
D03*
X674090D02*
D03*
D108*
X570090Y286880D02*
D03*
X710090D02*
D03*
X570090Y426880D02*
D03*
X710090D02*
D03*
D109*
X518279Y418490D02*
D03*
Y437490D02*
D03*
X533281Y418490D02*
D03*
Y437490D02*
D03*
D110*
X246830Y523090D02*
D03*
X256330D02*
D03*
X265830D02*
D03*
Y497990D02*
D03*
X256330D02*
D03*
X246830D02*
D03*
D111*
X302512Y574546D02*
D03*
X294510D02*
D03*
X238511D02*
D03*
X246509D02*
D03*
D112*
X253009D02*
D03*
X258011D02*
D03*
X263009D02*
D03*
X268011D02*
D03*
X273009D02*
D03*
X278011D02*
D03*
X283009D02*
D03*
X288011D02*
D03*
D113*
X483870Y63500D02*
D03*
X509270D02*
D03*
X407670Y88900D02*
D03*
X433070Y63500D02*
D03*
Y88900D02*
D03*
X458470Y63500D02*
D03*
Y88900D02*
D03*
X483870D02*
D03*
X509270D02*
D03*
X534670Y63500D02*
D03*
Y88900D02*
D03*
X560070Y63500D02*
D03*
Y88900D02*
D03*
X585470Y63500D02*
D03*
Y88900D02*
D03*
X610870Y63500D02*
D03*
Y88900D02*
D03*
X636270Y63500D02*
D03*
Y88900D02*
D03*
D114*
X407670Y63500D02*
D03*
D115*
X533715Y607239D02*
D03*
D116*
X558714D02*
D03*
D117*
X227310Y621795D02*
D03*
X313710D02*
D03*
D118*
X227310Y580296D02*
D03*
X313710D02*
D03*
D119*
X743290Y625800D02*
D03*
Y75800D02*
D03*
X84690D02*
D03*
Y625793D02*
D03*
D120*
X533281Y437490D02*
D03*
X737870Y165100D02*
D03*
D121*
X565150Y449580D02*
D03*
D122*
X189467Y517355D02*
D03*
Y526855D02*
D03*
X179967D02*
D03*
Y517355D02*
D03*
X176200Y442290D02*
D03*
Y451790D02*
D03*
X166700D02*
D03*
Y442290D02*
D03*
M02*
